<?xml version="1.0" standalone="no"?>
<!DOCTYPE svg PUBLIC "-//W3C//DTD SVG 1.1//EN" "http://www.w3.org/Graphics/SVG/1.1/DTD/svg11.dtd" >
<svg xmlns="http://www.w3.org/2000/svg" xmlns:xlink="http://www.w3.org/1999/xlink" version="1.1">
<metadata>
Created by FontForge 20170924 at Fri Dec 21 00:11:02 2018
 By www-data
Copyright \(c\) 2016 by Thomas Gillett. All rights reserved. |DCNT
</metadata>
<defs>
<font id="Gordita-Medium" horiz-adv-x="680" >
  <font-face 
    font-family="Gordita Medium"
    font-weight="500"
    font-stretch="normal"
    units-per-em="1000"
    panose-1="0 0 0 0 0 0 0 0 0 0"
    ascent="754"
    descent="-246"
    x-height="534"
    cap-height="783"
    bbox="-218 -356 1265 1131"
    underline-thickness="50"
    underline-position="-100"
    unicode-range="U+0020-FB04"
  />
<missing-glyph horiz-adv-x="799" 
d="M750 783v-783h-660v783h660zM706 40v699h-577z" />
    <glyph glyph-name="ff" unicode="ff" horiz-adv-x="765" 
d="M708 711c-68 0 -102 -35 -102 -106v-71h142v-105h-142v-429h-120v429h-241v-429h-120v429h-98v105h98v75c0 132 79 208 210 208c18 0 36 -3 55 -8v-102c-12 3 -26 4 -43 4c-68 0 -102 -35 -102 -106v-71h241v75c0 132 79 208 210 208c18 0 36 -3 55 -8v-102
c-12 3 -26 4 -43 4z" />
    <glyph glyph-name="fi" unicode="fi" horiz-adv-x="686" 
d="M245 534h361v-534h-120v429h-241v-429h-120v429h-98v105h98v75c0 132 79 208 210 208c18 0 36 -3 55 -8v-102c-12 3 -26 4 -43 4c-68 0 -102 -35 -102 -106v-71zM545 629c-43 0 -77 35 -77 78s36 79 77 79c44 0 80 -36 80 -79s-36 -78 -80 -78z" />
    <glyph glyph-name="fl" unicode="fl" horiz-adv-x="685" 
d="M486 815h119v-815h-119v429h-241v-429h-120v429h-98v105h98v75c0 132 79 208 210 208c18 0 36 -3 55 -8v-102c-12 3 -26 4 -43 4c-68 0 -102 -35 -102 -106v-71h241v281z" />
    <glyph glyph-name="ffi" unicode="ffi" horiz-adv-x="1042" 
d="M607 534h355v-534h-119v429h-236v-429h-120v429h-242v-429h-120v429h-98v105h98v75c0 132 79 208 210 208c18 0 36 -3 55 -8v-102c-12 3 -26 4 -43 4c-68 0 -102 -35 -102 -106v-71h242v75c0 132 79 208 210 208c18 0 36 -3 55 -8v-102c-12 3 -26 4 -43 4
c-68 0 -102 -35 -102 -106v-71zM902 629c-43 0 -78 35 -78 78s35 79 78 79c44 0 79 -36 79 -79s-35 -78 -79 -78z" />
    <glyph glyph-name="ffl" unicode="ffl" horiz-adv-x="1042" 
d="M843 815h119v-815h-119v429h-236v-429h-120v429h-242v-429h-120v429h-98v105h98v75c0 132 79 208 210 208c18 0 36 -3 55 -8v-102c-12 3 -26 4 -43 4c-68 0 -102 -35 -102 -106v-71h242v75c0 132 79 208 210 208c18 0 36 -3 55 -8v-102c-12 3 -26 4 -43 4
c-68 0 -102 -35 -102 -106v-71h236v281z" />
    <glyph glyph-name=".notdef" horiz-adv-x="799" 
d="M750 783v-783h-660v783h660zM706 40v699h-577z" />
    <glyph glyph-name="NULL" horiz-adv-x="0" 
 />
    <glyph glyph-name="CR" horiz-adv-x="333" 
 />
    <glyph glyph-name="space" unicode=" " horiz-adv-x="264" 
 />
    <glyph glyph-name="exclam" unicode="!" horiz-adv-x="312" 
d="M102 230l-10 434v119h128v-119l-10 -434h-108zM155 -7c-43 0 -78 34 -78 78s35 79 78 79c44 0 79 -35 79 -79s-35 -78 -79 -78z" />
    <glyph glyph-name="quotedbl" unicode="&#x22;" horiz-adv-x="454" 
d="M168 501l-10 -57h-62c-27 150 -40 235 -40 254c0 48 27 80 71 80s71 -32 71 -80c0 -9 -3 -34 -10 -77c-7 -42 -13 -82 -20 -120zM368 501l-10 -57h-62c-27 150 -40 235 -40 254c0 48 27 80 71 80s71 -32 71 -80c0 -9 -3 -34 -10 -77c-7 -42 -13 -82 -20 -120z" />
    <glyph glyph-name="numbersign" unicode="#" horiz-adv-x="829" 
d="M574 207l-45 -207h-104l45 207h-196l-45 -207h-104l45 207h-131v97h152l42 191h-131v97h152l42 191h104l-42 -191h196l42 191h104l-42 -191h132v-97h-153l-42 -191h131l1 -97h-153zM336 495l-42 -191h198l42 191h-198z" />
    <glyph glyph-name="dollar" unicode="$" horiz-adv-x="635" 
d="M587 219c0 -55 -20 -103 -60 -146s-95 -68 -164 -76l1 -99h-80l-1 99c-117 12 -205 77 -244 184l103 54c27 -71 75 -112 143 -125v233c-73 23 -126 51 -161 83c-40 34 -60 81 -60 141c0 56 21 105 62 146c41 42 94 67 157 75l1 103h80l-1 -103c108 -13 181 -78 213 -162
l-101 -55c-23 58 -61 93 -113 104v-229c78 -24 135 -54 170 -89c37 -35 55 -81 55 -138zM189 574c0 -48 32 -78 96 -103v206c-57 -11 -96 -51 -96 -103zM361 317v-208c60 11 100 50 100 103c0 47 -29 77 -100 105z" />
    <glyph glyph-name="percent" unicode="%" horiz-adv-x="875" 
d="M390 614c0 -49 -17 -90 -52 -125s-76 -52 -125 -52s-90 17 -125 52c-34 35 -51 76 -51 125s17 90 51 125c35 35 76 52 125 52s90 -17 125 -52c35 -34 52 -76 52 -125zM751 783l-509 -783h-118l510 783h117zM213 690c-41 0 -76 -33 -76 -76s35 -76 76 -76
c43 0 77 35 77 76s-34 76 -77 76zM662 348c49 0 90 -17 124 -52c35 -35 52 -76 52 -125s-17 -90 -52 -125c-34 -34 -75 -51 -124 -51s-90 17 -125 51c-35 35 -52 76 -52 125s17 90 51 125c35 35 77 52 126 52zM716 117c29 31 29 78 0 107c-29 31 -78 31 -109 0
c-29 -29 -29 -76 0 -107c31 -29 80 -29 109 0z" />
    <glyph glyph-name="ampersand" unicode="&#x26;" horiz-adv-x="729" 
d="M699 0h-142l-60 70c-63 -53 -132 -79 -205 -79c-70 0 -128 17 -175 52c-46 35 -69 86 -69 153c0 84 51 147 156 214l-45 52c-38 44 -57 88 -57 133c0 54 20 101 61 140s92 59 153 59c58 0 109 -19 152 -58c43 -38 65 -83 65 -136c0 -73 -41 -133 -122 -180l-50 -29
l135 -157c34 53 59 110 76 173l109 -26c-20 -85 -57 -163 -110 -233zM253 516l43 -50l73 44c33 20 50 48 50 85c0 51 -43 95 -100 95c-29 0 -53 -10 -72 -29c-39 -37 -41 -90 6 -145zM293 100c45 0 89 18 132 54l-157 181c-65 -40 -98 -81 -98 -123c0 -95 79 -112 123 -112z
" />
    <glyph glyph-name="quotesingle" unicode="'" horiz-adv-x="254" 
d="M168 501l-10 -57h-62c-27 150 -40 235 -40 254c0 48 27 80 71 80s71 -32 71 -80c0 -9 -3 -34 -10 -77c-7 -42 -13 -82 -20 -120z" />
    <glyph glyph-name="parenleft" unicode="(" horiz-adv-x="400" 
d="M379 -70l-51 -66c-177 100 -279 273 -279 490v29c0 219 103 395 279 494l51 -65c-137 -101 -217 -250 -217 -430v-28c0 -177 72 -319 217 -424z" />
    <glyph glyph-name="parenright" unicode=")" horiz-adv-x="400" 
d="M72 -136l-51 66c144 105 216 247 216 424v28c0 180 -79 329 -216 430l51 65c176 -99 279 -275 279 -494v-29c0 -217 -102 -390 -279 -490z" />
    <glyph glyph-name="asterisk" unicode="*" horiz-adv-x="499" 
d="M162 387l-67 49l85 118l-139 46l26 79l139 -45v149h86v-149l139 45l27 -79l-139 -46l85 -118l-67 -49l-88 118z" />
    <glyph glyph-name="plus" unicode="+" horiz-adv-x="620" 
d="M254 311h-209v109h209v202h112v-202h209v-109h-209v-205h-112v205z" />
    <glyph glyph-name="comma" unicode="," horiz-adv-x="307" 
d="M124 -162l-54 48c45 31 78 72 99 121c-9 -4 -19 -6 -30 -6c-41 0 -77 35 -77 82c0 49 37 87 90 87c52 0 93 -47 93 -114v-5c0 -80 -48 -161 -121 -213z" />
    <glyph glyph-name="hyphen" unicode="-" horiz-adv-x="464" 
d="M69 264v121h326v-121h-326z" />
    <glyph glyph-name="period" unicode="." horiz-adv-x="292" 
d="M59 82c0 49 39 88 87 88c49 0 87 -39 87 -88c0 -48 -39 -87 -87 -87s-87 40 -87 87z" />
    <glyph glyph-name="slash" unicode="/" horiz-adv-x="540" 
d="M151 -5h-119l358 820h119z" />
    <glyph glyph-name="zero" unicode="0" horiz-adv-x="764" 
d="M53 392c0 114 31 209 92 286c62 77 141 116 238 116s176 -38 237 -115c61 -76 91 -171 91 -285c0 -115 -31 -211 -92 -288s-141 -115 -238 -115s-176 38 -237 114c-61 77 -91 172 -91 287zM584 392c0 81 -19 149 -56 205s-86 84 -147 84s-109 -28 -146 -83
c-36 -55 -54 -123 -54 -204s18 -150 55 -206s86 -84 147 -84s109 28 146 83s55 124 55 205z" />
    <glyph glyph-name="one" unicode="1" horiz-adv-x="462" 
d="M7 639l239 144h117v-783h-123v651l-176 -106z" />
    <glyph glyph-name="two" unicode="2" horiz-adv-x="657" 
d="M48 0v107l280 239c53 45 90 82 110 109c20 28 30 59 30 94c0 75 -53 132 -140 132c-75 0 -128 -41 -159 -123l-110 46c16 57 48 103 96 138c49 35 107 52 174 52c77 0 141 -22 191 -66c50 -43 75 -100 75 -170c0 -57 -15 -107 -44 -149c-29 -41 -78 -90 -147 -147
l-182 -151h377v-111h-551z" />
    <glyph glyph-name="three" unicode="3" horiz-adv-x="647" 
d="M592 220c0 -64 -26 -118 -79 -163c-52 -44 -118 -66 -199 -66c-136 0 -227 59 -274 176l106 52c34 -77 91 -116 170 -116c42 0 77 12 106 35c29 24 43 52 43 84c0 33 -14 62 -42 85c-27 24 -62 36 -105 36h-84v111h77c40 0 73 11 99 34c27 23 40 51 40 83
c0 64 -51 111 -139 111c-70 0 -121 -38 -153 -113l-107 49c36 104 129 176 262 176c80 0 144 -20 191 -61s71 -90 71 -149c0 -81 -39 -141 -118 -179v-1c90 -35 135 -96 135 -184z" />
    <glyph glyph-name="four" unicode="4" horiz-adv-x="712" 
d="M404 783h151v-499h116v-111h-116v-173h-121v173h-403v124zM434 644l-277 -360h277v360z" />
    <glyph glyph-name="five" unicode="5" horiz-adv-x="639" 
d="M307 -9c-120 0 -218 57 -266 168l106 59c33 -76 87 -114 162 -114c44 0 81 13 111 39c31 26 46 61 46 105c0 92 -67 146 -154 146c-59 0 -108 -22 -148 -67l-105 43l59 413h437v-111h-344l-31 -224c42 35 94 53 155 53c77 0 140 -24 187 -71s71 -107 71 -180
c0 -79 -28 -142 -83 -189s-123 -70 -203 -70z" />
    <glyph glyph-name="six" unicode="6" horiz-adv-x="685" 
d="M401 686c-69 0 -123 -27 -162 -80c-38 -53 -59 -119 -64 -197h1c44 63 124 99 203 99c75 0 137 -24 186 -71s74 -108 74 -183c0 -77 -28 -141 -84 -190c-55 -49 -122 -74 -201 -74c-85 0 -156 28 -213 85c-59 59 -88 155 -88 289c0 221 107 430 348 430
c79 0 151 -28 218 -84l-62 -90c-19 15 -34 26 -46 33c-23 16 -66 33 -110 33zM352 401c-44 0 -82 -14 -115 -42s-49 -63 -49 -106c0 -46 16 -83 47 -110s70 -41 117 -41c92 0 160 60 160 148c0 45 -15 82 -45 109c-30 28 -68 42 -115 42z" />
    <glyph glyph-name="seven" unicode="7" horiz-adv-x="615" 
d="M29 783h559v-101l-359 -682h-142l360 672h-418v111z" />
    <glyph glyph-name="eight" unicode="8" horiz-adv-x="679" 
d="M339 -9c-81 0 -150 21 -205 62s-82 95 -82 160c0 93 50 157 150 194v1c-80 23 -130 90 -130 174c0 64 27 115 80 154s116 58 187 58c73 0 135 -19 188 -58c53 -38 80 -89 80 -154c0 -84 -48 -147 -129 -174v-1c99 -36 149 -99 149 -189c0 -68 -28 -123 -83 -165
c-55 -41 -123 -62 -205 -62zM194 570c0 -34 14 -62 42 -85c29 -22 63 -33 103 -33c84 0 146 50 146 118s-62 118 -146 118c-85 0 -145 -49 -145 -118zM175 223c0 -35 16 -65 47 -89c32 -24 71 -36 117 -36s85 12 117 35c33 24 49 54 49 90c0 35 -16 65 -49 88
c-32 24 -71 36 -117 36c-47 0 -87 -12 -118 -35s-46 -52 -46 -89z" />
    <glyph glyph-name="nine" unicode="9" horiz-adv-x="686" 
d="M284 98c48 0 89 14 123 41c69 56 98 136 105 231h-2c-45 -63 -125 -100 -202 -100c-76 0 -139 24 -188 71s-74 109 -74 184c0 79 28 143 83 193c56 51 123 76 202 76c85 0 156 -28 213 -85c59 -59 88 -155 88 -289c0 -222 -103 -430 -348 -430c-83 0 -158 29 -225 87
l64 89c54 -45 108 -68 161 -68zM333 377c44 0 82 14 115 42c33 29 49 65 49 109c0 96 -68 154 -164 154c-93 0 -160 -59 -160 -151c0 -93 65 -154 160 -154z" />
    <glyph glyph-name="colon" unicode=":" horiz-adv-x="313" 
d="M69 454c0 49 40 88 88 88c49 0 87 -39 87 -88c0 -48 -38 -86 -87 -86c-48 0 -88 39 -88 86zM69 82c0 49 40 88 88 88c49 0 87 -39 87 -88c0 -48 -39 -87 -87 -87s-88 40 -88 87z" />
    <glyph glyph-name="semicolon" unicode=";" horiz-adv-x="317" 
d="M73 454c0 49 39 88 87 88c49 0 88 -39 88 -88c0 -47 -39 -86 -88 -86c-48 0 -87 39 -87 86zM134 -162l-54 48c45 31 78 72 99 121c-9 -4 -19 -6 -30 -6c-41 0 -77 35 -77 82c0 49 37 87 90 87c52 0 93 -47 93 -114v-5c0 -80 -48 -161 -121 -213z" />
    <glyph glyph-name="less" unicode="&#x3c;" horiz-adv-x="663" 
d="M190 331l395 -174v-118l-547 248v88l547 246v-116z" />
    <glyph glyph-name="equal" unicode="=" horiz-adv-x="627" 
d="M72 450v111h483v-111h-483zM72 171v111h483v-111h-483z" />
    <glyph glyph-name="greater" unicode="&#x3e;" horiz-adv-x="663" 
d="M78 621l547 -246v-88l-547 -248v118l395 174l-395 174v116z" />
    <glyph glyph-name="question" unicode="?" horiz-adv-x="534" 
d="M266 794c65 0 120 -20 163 -60c44 -39 66 -90 66 -151c0 -41 -10 -75 -30 -103s-52 -61 -97 -100c-55 -47 -76 -75 -76 -126v-24h-115v45c0 69 24 116 84 168l27 23c52 46 78 87 78 124c0 53 -42 92 -101 92c-55 0 -105 -32 -130 -95l-103 57c33 87 115 150 234 150z
M239 -7c-43 0 -78 34 -78 78s35 79 78 79s79 -35 79 -79s-35 -78 -79 -78z" />
    <glyph glyph-name="at" unicode="@" horiz-adv-x="867" 
d="M624 119c-47 0 -93 23 -112 62c-29 -39 -78 -62 -118 -62c-46 0 -85 17 -116 52s-47 73 -47 116c0 62 19 115 58 160s88 68 145 68c33 0 79 -18 96 -58l10 55h110l-42 -250c-7 -40 5 -60 35 -60c29 0 56 17 81 51c26 35 39 76 39 125c0 79 -28 144 -85 197
s-129 79 -218 79c-93 0 -174 -33 -241 -100s-100 -147 -100 -242c-5 -172 129 -330 335 -329c77 0 147 23 210 69l35 -54c-27 -23 -65 -43 -112 -58s-92 -23 -133 -23c-117 0 -214 38 -289 113c-75 76 -113 170 -113 282c0 113 40 209 120 288s176 119 287 119
c105 0 193 -32 264 -97c71 -64 106 -145 106 -243c0 -77 -20 -139 -61 -188c-41 -48 -89 -72 -144 -72zM445 411c-28 0 -52 -12 -72 -35c-19 -23 -29 -48 -28 -77c1 -40 30 -78 73 -78c27 0 49 12 68 35c19 24 29 51 29 81c0 44 -29 74 -70 74z" />
    <glyph glyph-name="A" unicode="A" horiz-adv-x="783" 
d="M0 0l319 783h145l317 -783h-128l-71 184h-384l-72 -184h-126zM390 665l-148 -372h297z" />
    <glyph glyph-name="B" unicode="B" horiz-adv-x="734" 
d="M100 0v783h299c76 0 137 -18 183 -55s69 -87 69 -151c0 -17 -3 -35 -8 -54c-11 -36 -48 -90 -105 -115c54 -17 92 -44 115 -79s34 -72 34 -110c0 -132 -97 -219 -278 -219h-309zM222 672v-220h154c101 0 152 47 152 112s-45 108 -145 108h-161zM222 344v-233h189
c99 0 153 47 153 118c0 68 -53 115 -161 115h-181z" />
    <glyph glyph-name="C" unicode="C" horiz-adv-x="834" 
d="M442 -9c-100 0 -196 38 -271 103c-75 67 -123 172 -123 295c0 116 39 212 118 289s172 116 281 116c99 0 186 -31 242 -79c56 -47 94 -100 111 -156l-111 -51c-39 101 -121 171 -244 171c-71 0 -134 -27 -187 -80s-80 -121 -80 -206c0 -84 26 -153 79 -207
c53 -53 116 -80 188 -80c54 0 104 16 149 47c46 32 79 74 98 125l112 -51c-19 -55 -57 -108 -116 -156s-147 -80 -246 -80z" />
    <glyph glyph-name="D" unicode="D" horiz-adv-x="813" 
d="M766 391c0 -93 -34 -186 -99 -263c-64 -76 -178 -128 -317 -128h-250v783h248c116 0 215 -36 278 -91c97 -83 140 -202 140 -301zM637 391c0 64 -23 129 -68 184c-44 56 -124 94 -223 94h-123v-555h122c99 0 179 36 224 89c45 55 68 120 68 188z" />
    <glyph glyph-name="E" unicode="E" horiz-adv-x="663" 
d="M601 672h-378v-218h344v-111h-344v-231h382v-112h-505v783h501v-111z" />
    <glyph glyph-name="F" unicode="F" horiz-adv-x="642" 
d="M570 329h-347v-329h-123v783h499v-114h-376v-227h347v-113z" />
    <glyph glyph-name="G" unicode="G" horiz-adv-x="853" 
d="M800 562l-109 -50c-41 100 -121 168 -245 168c-77 0 -141 -27 -193 -82c-51 -55 -77 -123 -77 -205s25 -151 76 -206s115 -83 193 -83c132 0 214 73 233 176h-281v112h414v-43c0 -102 -33 -187 -100 -256c-66 -68 -154 -102 -265 -102c-117 0 -213 38 -287 113
s-111 171 -111 286s39 211 118 288s172 116 281 116c89 0 165 -23 227 -68s104 -99 126 -164z" />
    <glyph glyph-name="H" unicode="H" horiz-adv-x="833" 
d="M100 0v783h123v-328h387v328h123v-783h-123v338h-387v-338h-123z" />
    <glyph glyph-name="I" unicode="I" horiz-adv-x="322" 
d="M100 0v783h123v-783h-123z" />
    <glyph glyph-name="J" unicode="J" horiz-adv-x="591" 
d="M258 -9c-105 0 -188 61 -233 170l102 57c29 -75 72 -112 129 -112c77 0 119 51 119 126v551h124v-551c0 -71 -23 -129 -68 -174s-102 -67 -173 -67z" />
    <glyph glyph-name="K" unicode="K" horiz-adv-x="711" 
d="M100 783h123v-338l312 338h163l-350 -374l370 -409h-166l-329 370v-370h-123v783z" />
    <glyph glyph-name="L" unicode="L" horiz-adv-x="592" 
d="M223 114h353v-114h-476v783h123v-669z" />
    <glyph glyph-name="M" unicode="M" horiz-adv-x="1045" 
d="M823 0v571h-2l-254 -571h-91l-253 568h-2v-568h-121v783h157l265 -599h1l261 599h161v-783h-122z" />
    <glyph glyph-name="N" unicode="N" horiz-adv-x="853" 
d="M625 0l-404 603v-603h-121v783h145l386 -577v577h122v-783h-128z" />
    <glyph glyph-name="O" unicode="O" horiz-adv-x="900" 
d="M48 390c0 113 39 209 118 287s174 117 285 117c112 0 207 -38 284 -115c78 -77 117 -172 117 -286s-39 -210 -118 -287s-174 -115 -286 -115s-207 38 -284 113c-77 76 -116 171 -116 286zM450 105c76 0 140 28 193 84s80 124 80 204s-27 148 -80 203
c-53 56 -117 84 -193 84c-77 0 -141 -28 -194 -84c-53 -55 -79 -123 -79 -203s26 -148 79 -204s117 -84 194 -84z" />
    <glyph glyph-name="P" unicode="P" horiz-adv-x="683" 
d="M651 540c0 -71 -26 -131 -77 -179c-51 -47 -121 -71 -212 -71h-139v-290h-123v783h277c91 0 160 -24 205 -71c46 -47 69 -105 69 -172zM366 669h-143v-266h143c109 0 160 62 160 134c0 36 -12 67 -37 93c-24 26 -65 39 -123 39z" />
    <glyph glyph-name="Q" unicode="Q" horiz-adv-x="902" 
d="M861 73l-78 -90l-96 84c-71 -51 -150 -76 -239 -76c-112 0 -207 38 -284 113c-77 76 -116 171 -116 286c0 113 39 209 118 287s174 117 285 117c112 0 207 -38 284 -115c78 -77 117 -172 117 -286c0 -92 -27 -173 -81 -244zM450 105c51 0 100 14 145 42l-145 125l79 90
l148 -131c31 49 46 103 46 162c0 80 -27 148 -80 203c-53 56 -117 84 -193 84c-77 0 -141 -28 -194 -84c-53 -55 -79 -123 -79 -203s26 -148 79 -204s117 -84 194 -84z" />
    <glyph glyph-name="R" unicode="R" horiz-adv-x="719" 
d="M100 0v783h294c91 0 159 -23 202 -69s65 -103 65 -172c0 -109 -61 -189 -166 -224l186 -318h-139l-170 297h-149v-297h-123zM223 669v-261h158c109 0 155 59 155 131c0 60 -27 130 -155 130h-158z" />
    <glyph glyph-name="S" unicode="S" horiz-adv-x="641" 
d="M327 -9c-137 0 -244 68 -288 188l104 54c33 -84 101 -130 186 -130c80 0 137 42 137 107c0 57 -45 90 -157 125c-85 27 -146 57 -184 91c-40 35 -60 83 -60 143c0 63 25 116 75 159c51 44 112 66 185 66c132 0 220 -69 257 -166l-102 -55c-30 73 -83 110 -158 110
c-76 0 -131 -44 -131 -107c0 -59 49 -91 145 -120c97 -29 164 -62 201 -99c37 -36 56 -83 56 -140c0 -61 -24 -114 -72 -159s-113 -67 -194 -67z" />
    <glyph glyph-name="T" unicode="T" horiz-adv-x="660" 
d="M20 669v114h620v-114h-249v-669h-123v669h-248z" />
    <glyph glyph-name="U" unicode="U" horiz-adv-x="791" 
d="M577 783h123v-479c0 -95 -26 -172 -79 -229c-52 -57 -128 -85 -227 -85s-175 28 -226 85s-77 132 -77 223v485h123v-480c0 -121 74 -197 182 -197c113 0 181 78 181 193v484z" />
    <glyph glyph-name="V" unicode="V" horiz-adv-x="773" 
d="M389 142l235 641h130l-296 -783h-142l-297 783h137z" />
    <glyph glyph-name="W" unicode="W" horiz-adv-x="1174" 
d="M331 174l188 609h137l189 -609l179 609h128l-238 -783h-140l-187 612h-1l-189 -612h-138l-236 783h132z" />
    <glyph glyph-name="X" unicode="X" horiz-adv-x="732" 
d="M2 0l291 403l-274 380h148l200 -285l201 285h145l-272 -379l288 -404h-146l-218 308l-219 -308h-144z" />
    <glyph glyph-name="Y" unicode="Y" horiz-adv-x="751" 
d="M20 783h142l214 -351l216 351h141l-296 -467v-316h-124v313z" />
    <glyph glyph-name="Z" unicode="Z" horiz-adv-x="665" 
d="M54 783h561v-105l-428 -568h437v-110h-586v106l427 567h-411v110z" />
    <glyph glyph-name="bracketleft" unicode="[" horiz-adv-x="428" 
d="M208 772v-802h184v-96h-296v993h296v-95h-184z" />
    <glyph glyph-name="backslash" unicode="\" horiz-adv-x="540" 
d="M30 815h120l357 -820h-119z" />
    <glyph glyph-name="bracketright" unicode="]" horiz-adv-x="428" 
d="M37 772v95h296v-993h-296v96h184v802h-184z" />
    <glyph glyph-name="asciicircum" unicode="^" horiz-adv-x="619" 
d="M264 783h92l216 -332h-123l-139 218l-138 -218h-125z" />
    <glyph glyph-name="underscore" unicode="_" horiz-adv-x="538" 
d="M0 -176v107h538v-107h-538z" />
    <glyph glyph-name="grave" unicode="`" horiz-adv-x="293" 
d="M22 797h146l103 -172h-104z" />
    <glyph glyph-name="a" unicode="a" horiz-adv-x="575" 
d="M385 362c0 44 -38 80 -105 80c-61 0 -106 -28 -133 -85l-91 52c42 91 118 136 227 136c100 0 167 -36 200 -109c12 -27 18 -59 18 -96v-340h-117v73c-33 -55 -85 -82 -157 -82c-52 0 -95 15 -129 44s-51 67 -51 113v6c0 124 128 163 222 163h66c33 0 50 15 50 45z
M384 216v17h-115c-25 0 -49 -7 -71 -20c-21 -13 -32 -31 -32 -54c0 -44 34 -73 85 -73c81 0 133 50 133 130z" />
    <glyph glyph-name="b" unicode="b" horiz-adv-x="681" 
d="M637 269c0 -75 -25 -140 -75 -195s-113 -82 -190 -82c-30 0 -63 8 -98 24s-61 38 -78 66v-82h-116v814h119v-359c17 28 42 50 77 65c35 16 68 24 99 24c78 0 141 -28 189 -84c49 -56 73 -120 73 -191zM241 388c-29 -33 -44 -73 -44 -120s15 -87 44 -120
c30 -32 69 -48 116 -48s86 16 115 48c30 33 45 73 45 120s-15 87 -45 120c-29 33 -68 49 -115 49s-86 -16 -116 -49z" />
    <glyph glyph-name="c" unicode="c" horiz-adv-x="601" 
d="M322 -9c-79 0 -145 26 -198 79s-80 119 -80 198c0 75 27 140 80 195s119 82 198 82c120 0 208 -65 240 -160l-102 -46c-23 65 -69 98 -137 98c-44 0 -81 -16 -112 -47c-30 -31 -45 -71 -45 -120c0 -50 15 -91 45 -123s68 -48 113 -48c67 0 113 33 138 99l104 -46
c-15 -43 -44 -81 -85 -113s-94 -48 -159 -48z" />
    <glyph glyph-name="d" unicode="d" horiz-adv-x="681" 
d="M43 268c0 72 24 136 73 192s114 84 193 84c29 0 60 -7 94 -22c35 -14 61 -35 79 -64v356h119v-814h-116v83c-19 -31 -46 -54 -83 -69c-36 -15 -68 -22 -96 -22c-75 0 -138 27 -188 82s-75 120 -75 194zM324 437c-47 0 -86 -16 -116 -49c-29 -33 -44 -73 -44 -120
s15 -87 44 -120c30 -32 69 -48 116 -48s86 16 115 48c30 33 45 73 45 120s-15 87 -45 120s-68 49 -115 49z" />
    <glyph glyph-name="e" unicode="e" horiz-adv-x="615" 
d="M571 232h-405c1 -40 17 -73 48 -100c31 -26 67 -39 108 -39c67 0 115 28 144 83l86 -57c-45 -83 -132 -129 -228 -129c-79 0 -146 26 -200 79c-53 53 -80 120 -80 199c0 77 26 142 77 196s115 81 192 81c81 0 145 -25 191 -76s69 -117 69 -200c0 -16 -1 -28 -2 -37z
M313 443c-73 0 -130 -48 -141 -121h280c-4 75 -63 121 -139 121z" />
    <glyph glyph-name="f" unicode="f" horiz-adv-x="404" 
d="M390 809v-102c-12 3 -26 4 -43 4c-68 0 -102 -35 -102 -106v-71h142v-105h-142v-429h-120v429h-98v105h98v75c0 132 79 208 210 208c18 0 36 -3 55 -8z" />
    <glyph glyph-name="g" unicode="g" horiz-adv-x="677" 
d="M303 -4c-75 0 -138 27 -187 81s-73 118 -73 192c0 71 24 134 72 190c49 56 113 84 192 84c29 0 60 -8 94 -23s61 -37 80 -67v81h116v-527c0 -84 -26 -151 -77 -200s-118 -74 -202 -74c-130 0 -220 54 -269 162l99 57c37 -75 93 -113 168 -113c93 0 162 56 162 163v84
c-19 -31 -46 -53 -81 -68s-66 -22 -94 -22zM480 271c0 47 -15 86 -44 118s-68 48 -115 48s-86 -16 -115 -48c-29 -31 -44 -71 -44 -118s15 -87 44 -120c30 -32 68 -48 115 -48s85 16 114 48c30 33 45 73 45 120z" />
    <glyph glyph-name="h" unicode="h" horiz-adv-x="633" 
d="M559 0h-119v299c0 80 -39 133 -118 133c-75 0 -123 -54 -123 -135v-297h-119v814h119v-348c41 53 95 79 160 79c131 0 200 -88 200 -216v-329z" />
    <glyph glyph-name="i" unicode="i" horiz-adv-x="278" 
d="M84 652c-31 31 -31 79 0 110c31 32 79 32 110 0c31 -31 31 -79 0 -110s-79 -31 -110 0zM199 534v-534h-119v534h119z" />
    <glyph glyph-name="j" unicode="j" horiz-adv-x="286" 
d="M146 786c44 0 80 -36 80 -79s-36 -78 -80 -78c-43 0 -78 35 -78 78s35 79 78 79zM87 534h120v-597c0 -135 -65 -202 -194 -202c-19 0 -37 3 -54 8v104c9 -3 19 -4 30 -4c71 0 98 27 98 107v584z" />
    <glyph glyph-name="k" unicode="k" horiz-adv-x="580" 
d="M80 0v814h119v-490h1l207 210h162l-241 -242l254 -292h-157l-223 261h-3v-261h-119z" />
    <glyph glyph-name="l" unicode="l" horiz-adv-x="278" 
d="M80 0v814h119v-814h-119z" />
    <glyph glyph-name="m" unicode="m" horiz-adv-x="974" 
d="M549 0h-118v300c0 80 -36 133 -115 133c-72 0 -117 -55 -117 -136v-297h-119v534h116v-72c42 56 95 84 159 84c77 0 132 -29 165 -88c55 60 107 88 186 88c129 0 194 -88 194 -216v-330h-119v301c0 81 -35 132 -114 132c-73 0 -118 -54 -118 -135v-298z" />
    <glyph glyph-name="n" unicode="n" horiz-adv-x="633" 
d="M559 0h-119v299c0 80 -39 133 -118 133c-75 0 -123 -54 -123 -135v-297h-119v534h116v-72c41 55 95 83 163 83c131 0 200 -88 200 -216v-329z" />
    <glyph glyph-name="o" unicode="o" horiz-adv-x="650" 
d="M326 545c77 0 143 -26 198 -79s82 -118 82 -196c0 -79 -27 -145 -82 -199c-54 -53 -120 -80 -199 -80c-78 0 -145 27 -200 80s-82 119 -82 197s28 144 83 197s122 80 200 80zM209 388c-29 -32 -44 -71 -44 -118s15 -87 45 -121c30 -33 69 -50 116 -50s86 16 115 49
s44 73 44 120s-15 87 -45 120c-29 33 -68 49 -115 49s-86 -16 -116 -49z" />
    <glyph glyph-name="p" unicode="p" horiz-adv-x="681" 
d="M637 269c0 -75 -25 -140 -75 -195s-113 -82 -190 -82c-27 0 -58 7 -93 21c-35 15 -61 36 -80 65v-341h-119v797h116v-83c20 33 47 56 82 71s67 22 97 22c78 0 141 -28 189 -84c49 -56 73 -120 73 -191zM241 388c-29 -33 -44 -73 -44 -120s15 -87 44 -120
c30 -32 69 -48 116 -48s86 16 115 48c30 33 45 73 45 120s-15 87 -45 120c-29 33 -68 49 -115 49s-86 -16 -116 -49z" />
    <glyph glyph-name="q" unicode="q" horiz-adv-x="681" 
d="M43 268c0 72 24 136 73 192s114 84 193 84c29 0 60 -7 94 -22c35 -15 62 -37 82 -67v79h116v-797h-119v343c-19 -30 -47 -52 -82 -67c-35 -14 -66 -21 -94 -21c-75 0 -138 27 -188 82s-75 120 -75 194zM324 437c-47 0 -86 -16 -116 -49c-29 -33 -44 -73 -44 -120
s15 -87 44 -120c30 -32 69 -48 116 -48s86 16 115 48c30 33 45 73 45 120s-15 87 -45 120s-68 49 -115 49z" />
    <glyph glyph-name="r" unicode="r" horiz-adv-x="393" 
d="M372 536v-122c-10 2 -21 3 -34 3c-91 0 -139 -53 -139 -146v-271h-119v534h116v-85c33 60 82 90 147 90c13 0 22 -1 29 -3z" />
    <glyph glyph-name="s" unicode="s" horiz-adv-x="502" 
d="M253 -9c-106 0 -180 45 -221 134l93 52c29 -57 71 -86 128 -86c45 0 84 23 84 59c0 31 -37 55 -110 70c-59 12 -104 33 -133 64c-25 27 -38 59 -38 97c0 48 19 87 58 118s84 46 136 46c96 0 163 -40 200 -120l-92 -52c-24 48 -61 72 -112 72c-37 0 -75 -23 -75 -52
c0 -35 30 -53 99 -68c121 -27 185 -85 185 -168c0 -49 -19 -89 -56 -120s-86 -46 -146 -46z" />
    <glyph glyph-name="t" unicode="t" horiz-adv-x="416" 
d="M371 427h-131v-236c0 -64 31 -89 92 -89c12 0 25 1 38 4v-101c-19 -7 -41 -11 -64 -11c-117 0 -185 62 -185 178v255h-98v107h98v165h119v-165h131v-107z" />
    <glyph glyph-name="u" unicode="u" horiz-adv-x="633" 
d="M74 534h119v-299c0 -80 39 -133 118 -133c75 0 123 54 123 135v297h119v-534h-116v72c-41 -55 -95 -83 -163 -83c-129 0 -200 89 -200 217v328z" />
    <glyph glyph-name="v" unicode="v" horiz-adv-x="604" 
d="M17 534h129l157 -395l157 395h125l-223 -534h-119z" />
    <glyph glyph-name="w" unicode="w" horiz-adv-x="879" 
d="M736 534h122l-171 -534h-124l-123 375h-2l-124 -375h-122l-171 534h125l112 -377h1l121 377h120l122 -378h2z" />
    <glyph glyph-name="x" unicode="x" horiz-adv-x="570" 
d="M14 0l203 270l-196 264h137l128 -177l129 177h134l-195 -262l202 -272h-137l-135 186l-134 -186h-136z" />
    <glyph glyph-name="y" unicode="y" horiz-adv-x="612" 
d="M152 534l166 -350l154 350h129l-367 -797h-127l147 323l-238 474h136z" />
    <glyph glyph-name="z" unicode="z" horiz-adv-x="529" 
d="M51 534h431v-95l-294 -335h295v-104h-440v99l290 331h-282v104z" />
    <glyph glyph-name="braceleft" unicode="{" horiz-adv-x="450" 
d="M132 97l16 110c13 87 -36 114 -120 114h-7v97h7c83 0 133 29 120 116l-16 110c-25 164 58 223 226 223h55v-95h-48c-134 0 -130 -61 -114 -170l12 -80c5 -33 -1 -64 -18 -94c-17 -29 -50 -48 -99 -57v-1c34 -6 61 -18 80 -37c39 -37 43 -74 38 -113l-13 -81
c-16 -109 -20 -170 114 -170h48v-95h-55c-85 0 -147 16 -186 49s-53 91 -40 174z" />
    <glyph glyph-name="bar" unicode="|" horiz-adv-x="304" 
d="M96 -116v1007h112v-1007h-112z" />
    <glyph glyph-name="braceright" unicode="}" horiz-adv-x="450" 
d="M302 207l16 -110c12 -83 -2 -141 -41 -174s-101 -49 -185 -49h-54v95h47c134 0 130 61 114 170l-13 81c-7 49 9 131 119 150v1c-110 19 -126 100 -118 151l12 80c16 109 20 170 -114 170h-47v95h54c168 0 250 -59 226 -223l-16 -110c-13 -87 37 -116 120 -116h8v-97h-8
c-75 1 -131 -21 -120 -114z" />
    <glyph glyph-name="asciitilde" unicode="~" horiz-adv-x="635" 
d="M422 207c-29 0 -66 13 -112 40s-79 41 -99 41c-29 0 -54 -15 -77 -46l-69 65c37 63 85 94 146 94c79 3 168 -85 211 -81c29 0 55 15 78 46l68 -65c-36 -63 -85 -94 -146 -94z" />
    <glyph glyph-name="exclamdown" unicode="&#xa1;" horiz-adv-x="295" 
d="M148 545c43 0 78 -34 78 -78s-35 -79 -78 -79c-44 0 -79 35 -79 79s35 78 79 78zM211 -126l-10 434h-108l-10 -434v-119h128v119z" />
    <glyph glyph-name="cent" unicode="&#xa2;" horiz-adv-x="601" 
d="M462 198l104 -46c-28 -77 -98 -147 -209 -159v-95h-75v96c-69 9 -126 39 -171 90s-67 113 -67 184c0 69 22 129 67 181c45 53 102 84 171 93v95h75v-94c101 -12 177 -74 205 -158l-102 -46c-20 55 -55 86 -104 95v-332c50 9 85 41 106 96zM166 270
c0 -83 48 -147 117 -166v328c-68 -17 -117 -81 -117 -162z" />
    <glyph glyph-name="sterling" unicode="&#xa3;" horiz-adv-x="650" 
d="M538 171l83 -58c-31 -79 -98 -124 -182 -124c-33 0 -68 8 -105 23c-36 16 -66 24 -90 24c-37 0 -81 -14 -130 -41l-66 116c102 61 153 120 153 177c0 16 -4 33 -11 51h-128v102h78c-25 47 -37 88 -37 124c0 61 25 115 74 160c50 46 110 69 180 69c129 0 213 -69 244 -166
l-105 -51c-25 71 -71 106 -138 106c-72 0 -129 -47 -129 -127c0 -28 14 -66 41 -115h221v-102h-176c4 -14 6 -29 6 -44c0 -63 -34 -115 -102 -158v-1c17 7 32 10 46 10c29 0 59 -7 92 -22s61 -22 84 -22c37 0 74 28 97 69z" />
    <glyph glyph-name="currency" unicode="&#xa4;" horiz-adv-x="671" 
d="M97 271c0 45 13 87 38 126h1l-86 88l74 73l88 -90c38 22 79 33 124 33s86 -11 123 -33l89 89l73 -73l-85 -87c26 -37 39 -79 39 -126c0 -40 -13 -82 -38 -125l-2 -3l87 -86l-73 -74l-89 91c-91 -45 -157 -45 -248 0l-89 -90l-73 74l87 86c-27 38 -40 80 -40 127zM426 360
c-24 24 -54 36 -91 36s-67 -12 -91 -36c-24 -23 -36 -53 -36 -90s12 -67 36 -90s54 -35 91 -35s67 12 91 35s36 53 36 90s-12 67 -36 90z" />
    <glyph glyph-name="yen" unicode="&#xa5;" horiz-adv-x="757" 
d="M440 300v-79h237v-91h-237v-130h-124v130h-235v91h235v79h-235v92h192l-236 391h142l200 -346l201 346h141l-240 -391h196v-92h-237z" />
    <glyph glyph-name="brokenbar" unicode="&#xa6;" horiz-adv-x="302" 
d="M94 891h114v-390h-114v390zM208 274v-390h-114v390h114z" />
    <glyph glyph-name="section" unicode="&#xa7;" horiz-adv-x="667" 
d="M342 90c21 0 42 5 61 15c20 10 30 25 30 46c0 28 -32 50 -96 66l-107 27c-121 30 -181 79 -181 147c0 69 47 113 119 132c-41 27 -62 61 -62 103c0 52 23 93 69 123c47 30 99 45 158 45c111 0 188 -41 230 -123l-91 -56c-28 52 -74 78 -139 78c-23 0 -45 -5 -67 -15
c-21 -10 -32 -25 -32 -45c0 -30 34 -53 103 -69l100 -24c121 -29 182 -78 182 -147c0 -67 -40 -111 -119 -132c36 -21 62 -62 62 -103c0 -54 -22 -96 -67 -126c-44 -29 -95 -44 -153 -44c-141 0 -220 52 -267 148l92 55c37 -67 96 -101 175 -101zM254 472
c-49 0 -85 -25 -85 -60c0 -33 36 -56 129 -79c54 -13 92 -20 115 -20c49 0 86 26 86 61c0 33 -37 55 -130 78c-54 13 -92 20 -115 20z" />
    <glyph glyph-name="dieresis" unicode="&#xa8;" horiz-adv-x="420" 
d="M99 771c41 0 75 -35 75 -75c4 -64 -85 -101 -128 -53c-48 43 -13 132 53 128zM246 696c0 41 32 75 75 75c41 0 75 -35 75 -75c0 -41 -34 -75 -75 -75s-75 32 -75 75z" />
    <glyph glyph-name="copyright" unicode="&#xa9;" horiz-adv-x="896" 
d="M447 -9c-109 0 -203 39 -281 117c-77 79 -116 173 -116 284s39 205 116 284c78 79 172 118 281 118c110 0 204 -39 281 -118c78 -78 117 -173 117 -284s-39 -205 -117 -284c-77 -78 -171 -117 -281 -117zM447 730c-92 0 -170 -33 -234 -99c-64 -65 -96 -145 -96 -239
s32 -174 96 -239s142 -98 234 -98c93 0 171 33 235 98s96 145 96 239s-32 174 -96 239c-64 66 -142 99 -235 99zM455 145c-70 0 -129 24 -177 71c-47 47 -71 106 -71 176c0 67 24 125 71 174c48 49 107 73 177 73c107 0 186 -59 214 -143l-91 -41c-21 59 -61 88 -122 88
c-39 0 -73 -14 -100 -42s-40 -64 -40 -107c0 -89 60 -153 141 -153c59 0 100 29 123 88l92 -41c-13 -39 -38 -72 -75 -101c-37 -28 -84 -42 -142 -42z" />
    <glyph glyph-name="ordfeminine" unicode="&#xaa;" horiz-adv-x="557" 
d="M470 387h-93v48c-27 -36 -80 -54 -116 -54c-53 0 -98 19 -134 58c-35 39 -53 84 -53 135c0 50 17 95 52 134s80 59 137 59c48 0 86 -18 114 -53v45h93v-372zM348 650c-19 21 -44 31 -75 31s-56 -10 -75 -31s-29 -46 -29 -76s10 -56 29 -77c20 -21 45 -31 76 -31
s56 10 75 31s29 47 29 77s-10 55 -30 76zM470 205h-391v84h391v-84z" />
    <glyph glyph-name="guillemotleft" unicode="&#xab;" horiz-adv-x="635" 
d="M329 148l-69 -67l-224 220l224 221l69 -67l-156 -154zM580 148l-70 -67l-224 220l224 221l69 -67l-156 -154z" />
    <glyph glyph-name="logicalnot" unicode="&#xac;" horiz-adv-x="695" 
d="M619 558v-319h-113v209h-457v110h570z" />
    <glyph glyph-name="registered" unicode="&#xae;" horiz-adv-x="649" 
d="M324 258c-73 0 -136 26 -189 78c-52 53 -78 116 -78 190s26 137 78 189c53 53 116 79 189 79c74 0 137 -26 189 -79c53 -52 79 -115 79 -189s-26 -137 -79 -190c-52 -52 -115 -78 -189 -78zM324 744c-59 0 -110 -21 -151 -64s-62 -94 -62 -154s21 -111 62 -154
c41 -42 92 -63 151 -63c60 0 111 21 152 63c42 43 63 94 63 154s-21 111 -63 154c-41 43 -92 64 -152 64zM283 373h-62v307h114c72 0 107 -43 107 -98c0 -41 -18 -69 -53 -85l64 -124h-69l-56 110h-45v-110zM379 581c0 27 -16 41 -49 41h-47v-82h47c35 0 49 20 49 41z" />
    <glyph glyph-name="overscore" unicode="&#xaf;" horiz-adv-x="386" 
d="M20 730h346v-95h-346v95z" />
    <glyph glyph-name="degree" unicode="&#xb0;" horiz-adv-x="453" 
d="M226 431c-49 0 -92 17 -127 52s-52 78 -52 128c0 49 18 91 53 126s77 53 126 53c50 0 92 -18 127 -53s53 -77 53 -126c0 -50 -18 -93 -53 -128s-77 -52 -127 -52zM226 693c-70 5 -108 -93 -58 -141c47 -52 144 -13 140 59c0 43 -38 82 -82 82z" />
    <glyph glyph-name="plusminus" unicode="&#xb1;" 
d="M283 370h-213v109h213v177h113v-177h213v-109h-213v-181h-113v181zM71 24v107h537v-107h-537z" />
    <glyph glyph-name="uni00B2" unicode="&#xb2;" horiz-adv-x="465" 
d="M234 891c100 0 164 -62 164 -145c0 -61 -31 -100 -104 -160l-89 -71h195v-89h-339v83l174 141c43 35 64 65 64 91c0 33 -24 60 -68 60c-34 0 -59 -21 -75 -64l-89 37c23 72 86 117 167 117z" />
    <glyph glyph-name="uni00B3" unicode="&#xb3;" horiz-adv-x="441" 
d="M214 417c-84 0 -145 44 -168 112l83 37c16 -41 45 -62 87 -62c43 0 75 21 75 54c0 36 -25 54 -75 54h-53v88h49c47 0 70 18 70 53c0 31 -22 52 -70 52c-37 0 -64 -20 -80 -61l-84 37c24 67 85 110 166 110c47 0 86 -12 118 -37c32 -24 48 -55 48 -94
c0 -43 -27 -83 -68 -100v-1c48 -15 76 -53 76 -104c0 -40 -17 -73 -51 -99c-33 -26 -74 -39 -123 -39z" />
    <glyph glyph-name="acute" unicode="&#xb4;" horiz-adv-x="285" 
d="M120 625h-103l103 172h145z" />
    <glyph glyph-name="uni00B5" unicode="&#xb5;" horiz-adv-x="661" 
d="M90 534h119v-299c0 -80 39 -133 118 -133c76 0 124 54 124 135v297h119v-534h-116v72c-41 -54 -94 -81 -159 -81c-35 0 -64 8 -89 25v-180h-116v698z" />
    <glyph glyph-name="paragraph" unicode="&#xb6;" horiz-adv-x="541" 
d="M312 0v360h-52c-62 0 -115 21 -159 62c-43 42 -65 92 -65 150c0 59 22 108 65 149c44 41 97 62 159 62h176v-783h-124z" />
    <glyph glyph-name="middot" unicode="&#xb7;" horiz-adv-x="302" 
d="M63 323c0 49 40 89 88 89c49 0 87 -40 87 -89c0 -48 -39 -87 -87 -87s-88 40 -88 87z" />
    <glyph glyph-name="cedilla" unicode="&#xb8;" horiz-adv-x="300" 
d="M172 0h82c17 -25 26 -53 26 -86c0 -50 -18 -89 -54 -116c-35 -28 -79 -42 -130 -42c-31 0 -57 4 -76 12v80c18 -5 40 -8 66 -8c63 0 105 31 105 92c0 24 -6 47 -19 68z" />
    <glyph glyph-name="uni00B9" unicode="&#xb9;" horiz-adv-x="347" 
d="M19 790l152 91h100v-455h-104v350l-103 -61z" />
    <glyph glyph-name="ordmasculine" unicode="&#xba;" horiz-adv-x="546" 
d="M273 381c-55 0 -102 18 -141 55s-58 83 -58 138s19 100 58 137s87 56 142 56s101 -18 140 -55s58 -82 58 -136c0 -55 -19 -102 -58 -139c-38 -37 -85 -56 -141 -56zM377 574c0 61 -43 107 -104 107s-104 -45 -104 -105s44 -109 105 -109s103 47 103 107zM467 205h-388v84
h388v-84z" />
    <glyph glyph-name="guillemotright" unicode="&#xbb;" horiz-adv-x="635" 
d="M125 522l225 -221l-224 -220l-70 67l156 152l-155 155zM376 522l224 -221l-224 -220l-69 67l156 152l-156 155z" />
    <glyph glyph-name="onequarter" unicode="&#xbc;" horiz-adv-x="959" 
d="M285 783v-455h-103v350l-104 -61l-45 74l152 92h100zM155 0l510 783h117l-509 -783h-118zM716 455h123v-274h77v-88h-77v-93h-97v93h-230v105zM742 351l-135 -170h135v170z" />
    <glyph glyph-name="onehalf" unicode="&#xbd;" horiz-adv-x="969" 
d="M284 783v-455h-103v350l-104 -61l-45 74l152 92h100zM155 0l510 783h117l-509 -783h-118zM748 465c100 0 164 -62 164 -145c0 -61 -31 -100 -104 -160l-89 -71h195v-89h-339v83l174 141c43 35 64 65 64 91c0 33 -24 60 -68 60c-34 0 -59 -21 -75 -64l-89 37
c23 72 86 117 167 117z" />
    <glyph glyph-name="threequarters" unicode="&#xbe;" horiz-adv-x="983" 
d="M211 319c-84 0 -145 44 -168 112l83 37c16 -41 45 -62 87 -62c43 0 75 21 75 54c0 36 -25 54 -75 54h-53v88h49c47 0 70 18 70 53c0 31 -22 52 -70 52c-37 0 -64 -20 -80 -61l-84 37c24 67 85 110 166 110c47 0 86 -12 118 -37c32 -24 48 -55 48 -94
c0 -43 -27 -83 -68 -100v-1c48 -15 76 -53 76 -104c0 -40 -17 -73 -51 -99c-33 -26 -74 -39 -123 -39zM185 0l510 783h117l-509 -783h-118zM746 455h123v-274h77v-88h-77v-93h-97v93h-230v105zM772 351l-135 -170h135v170z" />
    <glyph glyph-name="questiondown" unicode="&#xbf;" horiz-adv-x="528" 
d="M289 545c43 0 78 -34 78 -78s-35 -79 -78 -79s-79 35 -79 79s35 78 79 78zM262 -256c-65 0 -120 20 -164 60c-43 39 -65 90 -65 151c0 57 31 110 60 141c15 15 37 36 67 62c55 47 76 75 76 126v24h115v-45c0 -69 -24 -116 -84 -168l-27 -23c-52 -46 -78 -87 -78 -124
c0 -53 42 -92 101 -92c55 0 105 32 130 95l103 -57c-33 -87 -115 -150 -234 -150z" />
    <glyph glyph-name="Agrave" unicode="&#xc0;" horiz-adv-x="783" 
d="M198 1027h145l103 -172h-103zM0 0l319 783h145l317 -783h-128l-71 184h-384l-72 -184h-126zM390 665l-148 -372h297z" />
    <glyph glyph-name="Aacute" unicode="&#xc1;" horiz-adv-x="783" 
d="M442 854h-103l103 172h145zM0 0l319 783h145l317 -783h-128l-71 184h-384l-72 -184h-126zM390 665l-148 -372h297z" />
    <glyph glyph-name="Acircumflex" unicode="&#xc2;" horiz-adv-x="783" 
d="M434 1026l144 -172h-114l-74 92l-69 -92h-118l138 172h93zM0 0l319 783h145l317 -783h-128l-71 184h-384l-72 -184h-126zM390 665l-148 -372h297z" />
    <glyph glyph-name="Atilde" unicode="&#xc3;" horiz-adv-x="783" 
d="M317 922c-25 0 -38 -22 -39 -66h-81c-5 96 40 155 120 155c72 2 107 -72 143 -69c25 0 38 22 39 66h82c4 -96 -41 -155 -121 -155c-69 -3 -110 72 -143 69zM0 0l319 783h145l317 -783h-128l-71 184h-384l-72 -184h-126zM390 665l-148 -372h297z" />
    <glyph glyph-name="Adieresis" unicode="&#xc4;" horiz-adv-x="783" 
d="M277 1000c41 0 75 -35 75 -76s-34 -75 -75 -75s-74 34 -74 75s31 76 74 76zM435 924c0 41 31 76 74 76c64 3 101 -87 53 -129c-43 -48 -131 -13 -127 53zM0 0l319 783h145l317 -783h-128l-71 184h-384l-72 -184h-126zM390 665l-148 -372h297z" />
    <glyph glyph-name="Aring" unicode="&#xc5;" horiz-adv-x="782" 
d="M198 184l-72 -184h-126l299 735c-35 27 -53 63 -53 108c0 38 14 70 43 97s63 41 102 41c40 0 74 -14 102 -41c29 -27 43 -59 43 -97c0 -44 -17 -80 -52 -108l297 -735h-128l-71 184h-384zM391 908c-61 3 -92 -73 -49 -112c40 -42 121 -9 117 47c0 33 -32 65 -68 65z
M539 293l-149 372l-148 -372h297z" />
    <glyph glyph-name="AE" unicode="&#xc6;" horiz-adv-x="1053" 
d="M414 783h577v-111h-374v-218h340v-111h-340v-231h378v-112h-500v184h-274l-99 -184h-134zM495 673h-11l-204 -380h215v380z" />
    <glyph glyph-name="Ccedilla" unicode="&#xc7;" horiz-adv-x="834" 
d="M692 278l112 -51c-17 -51 -52 -100 -105 -147c-52 -45 -131 -80 -218 -87c15 -25 23 -52 23 -79c0 -50 -18 -89 -54 -116c-36 -28 -79 -42 -130 -42c-32 0 -58 4 -77 12v80c18 -5 40 -8 66 -8c63 0 105 31 105 92c0 19 -5 39 -15 61c-92 11 -177 52 -244 117
c-65 65 -107 166 -107 279c0 116 39 212 118 289s172 116 281 116c99 0 186 -31 242 -79c56 -47 94 -100 111 -156l-111 -51c-39 101 -121 171 -244 171c-71 0 -134 -27 -187 -80s-80 -121 -80 -206c0 -84 26 -153 79 -207c53 -53 116 -80 188 -80c54 0 104 16 149 47
c46 32 79 74 98 125z" />
    <glyph glyph-name="Egrave" unicode="&#xc8;" horiz-adv-x="664" 
d="M194 1027h146l103 -172h-103zM223 454h344v-111h-344v-231h382v-112h-505v783h502v-111h-379v-218z" />
    <glyph glyph-name="Eacute" unicode="&#xc9;" horiz-adv-x="664" 
d="M396 854h-104l103 172h146zM602 672h-379v-218h344v-111h-344v-231h382v-112h-505v783h502v-111z" />
    <glyph glyph-name="Ecircumflex" unicode="&#xca;" horiz-adv-x="664" 
d="M304 1026h93l144 -172h-114l-74 92l-69 -92h-119zM223 454h344v-111h-344v-231h382v-112h-505v783h502v-111h-379v-218z" />
    <glyph glyph-name="Edieresis" unicode="&#xcb;" horiz-adv-x="663" 
d="M237 1000c41 0 75 -35 75 -76s-34 -75 -75 -75s-74 34 -74 75s31 76 74 76zM395 924c0 41 31 76 74 76c64 3 101 -87 53 -129c-43 -48 -131 -13 -127 53zM601 672h-378v-218h344v-111h-344v-231h382v-112h-505v783h501v-111z" />
    <glyph glyph-name="Igrave" unicode="&#xcc;" horiz-adv-x="322" 
d="M-35 1027h146l102 -172h-103zM223 783v-783h-123v783h123z" />
    <glyph glyph-name="Iacute" unicode="&#xcd;" horiz-adv-x="322" 
d="M213 854h-104l103 172h146zM100 0v783h123v-783h-123z" />
    <glyph glyph-name="Icircumflex" unicode="&#xce;" horiz-adv-x="322" 
d="M112 1026h94l143 -172h-114l-73 92l-70 -92h-119zM223 783v-783h-123v783h123z" />
    <glyph glyph-name="Idieresis" unicode="&#xcf;" horiz-adv-x="322" 
d="M52 849c-43 0 -75 32 -75 75c0 41 32 76 75 76c41 0 75 -35 75 -76s-34 -75 -75 -75zM344 924c0 -43 -34 -75 -75 -75s-74 34 -74 75s33 76 74 76s75 -35 75 -76zM100 0v783h123v-783h-123z" />
    <glyph glyph-name="Eth" unicode="&#xd0;" horiz-adv-x="834" 
d="M15 454h106v329h248c116 0 215 -36 278 -91c97 -83 140 -202 140 -301c0 -93 -34 -186 -99 -263c-64 -76 -178 -128 -317 -128h-250v343h-106v111zM417 343h-173v-229h122c99 0 179 36 224 89c45 55 68 120 68 188c0 64 -23 129 -68 184c-44 56 -124 94 -223 94h-123
v-215h173v-111z" />
    <glyph glyph-name="Ntilde" unicode="&#xd1;" horiz-adv-x="853" 
d="M358 922c-25 0 -38 -22 -39 -66h-81c-5 96 40 155 120 155c72 2 107 -72 143 -69c25 0 38 22 39 66h82c4 -96 -41 -155 -121 -155c-69 -3 -110 72 -143 69zM625 0l-404 603v-603h-121v783h145l386 -577v577h122v-783h-128z" />
    <glyph glyph-name="Ograve" unicode="&#xd2;" horiz-adv-x="900" 
d="M261 1027h146l102 -172h-103zM48 390c0 113 39 209 118 287s174 117 285 117c112 0 207 -38 284 -115c78 -77 117 -172 117 -286s-39 -210 -118 -287s-174 -115 -286 -115s-207 38 -284 113c-77 76 -116 171 -116 286zM450 105c76 0 140 28 193 84s80 124 80 204
s-27 148 -80 203c-53 56 -117 84 -193 84c-77 0 -141 -28 -194 -84c-53 -55 -79 -123 -79 -203s26 -148 79 -204s117 -84 194 -84z" />
    <glyph glyph-name="Oacute" unicode="&#xd3;" horiz-adv-x="900" 
d="M500 854h-104l103 172h146zM48 390c0 113 39 209 118 287s174 117 285 117c112 0 207 -38 284 -115c78 -77 117 -172 117 -286s-39 -210 -118 -287s-174 -115 -286 -115s-207 38 -284 113c-77 76 -116 171 -116 286zM450 105c76 0 140 28 193 84s80 124 80 204
s-27 148 -80 203c-53 56 -117 84 -193 84c-77 0 -141 -28 -194 -84c-53 -55 -79 -123 -79 -203s26 -148 79 -204s117 -84 194 -84z" />
    <glyph glyph-name="Ocircumflex" unicode="&#xd4;" horiz-adv-x="900" 
d="M400 1026h94l143 -172h-114l-73 92l-70 -92h-118zM48 390c0 113 39 209 118 287s174 117 285 117c112 0 207 -38 284 -115c78 -77 117 -172 117 -286s-39 -210 -118 -287s-174 -115 -286 -115s-207 38 -284 113c-77 76 -116 171 -116 286zM450 105c76 0 140 28 193 84
s80 124 80 204s-27 148 -80 203c-53 56 -117 84 -193 84c-77 0 -141 -28 -194 -84c-53 -55 -79 -123 -79 -203s26 -148 79 -204s117 -84 194 -84z" />
    <glyph glyph-name="Otilde" unicode="&#xd5;" horiz-adv-x="900" 
d="M379 922c-25 0 -38 -22 -39 -66h-81c-5 96 40 155 120 155c72 2 107 -72 143 -69c25 0 38 22 39 66h82c4 -96 -41 -155 -121 -155c-69 -3 -110 72 -143 69zM48 390c0 113 39 209 118 287s174 117 285 117c112 0 207 -38 284 -115c78 -77 117 -172 117 -286
s-39 -210 -118 -287s-174 -115 -286 -115s-207 38 -284 113c-77 76 -116 171 -116 286zM450 105c76 0 140 28 193 84s80 124 80 204s-27 148 -80 203c-53 56 -117 84 -193 84c-77 0 -141 -28 -194 -84c-53 -55 -79 -123 -79 -203s26 -148 79 -204s117 -84 194 -84z" />
    <glyph glyph-name="Odieresis" unicode="&#xd6;" horiz-adv-x="900" 
d="M336 849c-43 0 -75 32 -75 75c0 41 32 76 75 76c41 0 75 -35 75 -76s-34 -75 -75 -75zM567 849c-41 0 -74 34 -74 75s33 76 74 76s76 -35 76 -76s-33 -75 -76 -75zM48 390c0 113 39 209 118 287s174 117 285 117c112 0 207 -38 284 -115c78 -77 117 -172 117 -286
s-39 -210 -118 -287s-174 -115 -286 -115s-207 38 -284 113c-77 76 -116 171 -116 286zM450 105c76 0 140 28 193 84s80 124 80 204s-27 148 -80 203c-53 56 -117 84 -193 84c-77 0 -141 -28 -194 -84c-53 -55 -79 -123 -79 -203s26 -148 79 -204s117 -84 194 -84z" />
    <glyph glyph-name="multiply" unicode="&#xd7;" horiz-adv-x="676" 
d="M261 344l-202 203l76 78l203 -205l203 205l76 -78l-202 -203l202 -202l-76 -79l-203 204l-203 -204l-76 79z" />
    <glyph glyph-name="Oslash" unicode="&#xd8;" horiz-adv-x="906" 
d="M791 820l68 -64l-97 -103c62 -74 93 -161 93 -260c0 -114 -39 -210 -118 -287s-174 -115 -286 -115c-91 0 -172 26 -242 77l-92 -94l-68 64l91 96c-59 72 -89 157 -89 256c0 113 39 209 118 287s174 117 285 117c89 0 169 -26 239 -77zM180 393c0 -63 16 -119 48 -166
l382 402c-47 34 -99 51 -157 51c-77 0 -141 -28 -194 -84c-53 -55 -79 -123 -79 -203zM726 393c0 63 -17 119 -51 169l-384 -403c47 -36 101 -54 162 -54c76 0 140 28 193 84s80 124 80 204z" />
    <glyph glyph-name="Ugrave" unicode="&#xd9;" horiz-adv-x="791" 
d="M210 1027h145l103 -172h-103zM577 783h123v-479c0 -95 -26 -172 -79 -229c-52 -57 -128 -85 -227 -85s-175 28 -226 85s-77 132 -77 223v485h123v-480c0 -121 74 -197 182 -197c113 0 181 78 181 193v484z" />
    <glyph glyph-name="Uacute" unicode="&#xda;" horiz-adv-x="792" 
d="M437 854h-103l103 172h145zM578 783h123v-479c0 -95 -26 -172 -79 -229c-52 -57 -128 -85 -227 -85c-100 0 -176 28 -227 85s-77 132 -77 223v485h124v-480c0 -121 74 -197 182 -197c113 0 181 78 181 193v484z" />
    <glyph glyph-name="Ucircumflex" unicode="&#xdb;" horiz-adv-x="792" 
d="M347 1026h93l143 -172h-113l-74 92l-69 -92h-119zM578 783h123v-479c0 -95 -26 -172 -79 -229c-52 -57 -128 -85 -227 -85c-100 0 -176 28 -227 85s-77 132 -77 223v485h124v-480c0 -121 74 -197 182 -197c113 0 181 78 181 193v484z" />
    <glyph glyph-name="Udieresis" unicode="&#xdc;" horiz-adv-x="791" 
d="M280 849c-43 0 -75 32 -75 75c0 41 32 76 75 76c41 0 74 -35 74 -76s-33 -75 -74 -75zM586 924c0 -43 -34 -75 -75 -75s-74 34 -74 75s33 76 74 76s75 -35 75 -76zM577 783h123v-479c0 -95 -26 -172 -79 -229c-52 -57 -128 -85 -227 -85s-175 28 -226 85s-77 132 -77 223
v485h123v-480c0 -121 74 -197 182 -197c113 0 181 78 181 193v484z" />
    <glyph glyph-name="Yacute" unicode="&#xdd;" horiz-adv-x="751" 
d="M418 854h-103l102 172h146zM20 783h142l215 -351l216 351h140l-295 -467v-316h-124v313z" />
    <glyph glyph-name="Thorn" unicode="&#xde;" horiz-adv-x="682" 
d="M222 784v-140h154c197 0 274 -122 274 -244c0 -71 -25 -131 -76 -178s-121 -71 -212 -71h-140v-151h-122v784h122zM222 530v-266h144c54 0 94 13 120 40s39 58 39 93c0 37 -12 68 -36 94s-65 39 -123 39h-144z" />
    <glyph glyph-name="germandbls" unicode="&#xdf;" horiz-adv-x="687" 
d="M654 161c0 -49 -18 -90 -55 -123c-36 -32 -82 -48 -139 -48c-96 0 -161 36 -196 109l86 57c23 -40 60 -66 100 -66c53 0 87 23 87 66c0 15 -8 29 -23 42s-47 31 -95 53c-77 35 -115 87 -115 154c0 49 35 102 70 134c36 32 71 70 71 95c0 47 -41 75 -108 75
c-85 0 -139 -65 -139 -162v-547h-118v547c0 89 25 157 74 202s112 68 188 68c61 0 114 -15 159 -44s68 -70 68 -123c0 -56 -24 -91 -84 -150c-35 -35 -56 -57 -61 -67c-4 -8 -6 -17 -6 -26c0 -12 6 -23 19 -32s37 -23 74 -42l14 -7c95 -49 129 -93 129 -165z" />
    <glyph glyph-name="agrave" unicode="&#xe0;" horiz-adv-x="575" 
d="M94 797h145l103 -172h-103zM385 362c0 44 -38 80 -105 80c-61 0 -106 -28 -133 -85l-91 52c42 91 118 136 227 136c100 0 167 -36 200 -109c12 -27 18 -59 18 -96v-340h-117v73c-33 -55 -85 -82 -157 -82c-52 0 -95 15 -129 44s-51 67 -51 113v6c0 124 128 163 222 163
h66c33 0 50 15 50 45zM384 216v17h-115c-25 0 -49 -7 -71 -20c-21 -13 -32 -31 -32 -54c0 -44 34 -73 85 -73c81 0 133 50 133 130z" />
    <glyph glyph-name="aacute" unicode="&#xe1;" horiz-adv-x="575" 
d="M327 625h-103l103 172h145zM385 362c0 44 -38 80 -105 80c-61 0 -106 -28 -133 -85l-91 52c42 91 118 136 227 136c100 0 167 -36 200 -109c12 -27 18 -59 18 -96v-340h-117v73c-33 -55 -85 -82 -157 -82c-52 0 -95 15 -129 44s-51 67 -51 113v6c0 124 128 163 222 163
h66c33 0 50 15 50 45zM384 216v17h-115c-25 0 -49 -7 -71 -20c-21 -13 -32 -31 -32 -54c0 -44 34 -73 85 -73c81 0 133 50 133 130z" />
    <glyph glyph-name="acircumflex" unicode="&#xe2;" horiz-adv-x="575" 
d="M232 797h93l144 -172h-114l-74 92l-69 -92h-118zM385 362c0 44 -38 80 -105 80c-61 0 -106 -28 -133 -85l-91 52c42 91 118 136 227 136c100 0 167 -36 200 -109c12 -27 18 -59 18 -96v-340h-117v73c-33 -55 -85 -82 -157 -82c-52 0 -95 15 -129 44s-51 67 -51 113v6
c0 124 128 163 222 163h66c33 0 50 15 50 45zM384 216v17h-115c-25 0 -49 -7 -71 -20c-21 -13 -32 -31 -32 -54c0 -44 34 -73 85 -73c81 0 133 50 133 130z" />
    <glyph glyph-name="atilde" unicode="&#xe3;" horiz-adv-x="575" 
d="M208 693c-25 0 -38 -22 -39 -66h-81c-5 96 40 155 120 155s97 -69 143 -69c25 0 38 22 39 66h82c4 -96 -41 -155 -121 -155c-79 0 -98 69 -143 69zM385 362c0 44 -38 80 -105 80c-61 0 -106 -28 -133 -85l-91 52c42 91 118 136 227 136c100 0 167 -36 200 -109
c12 -27 18 -59 18 -96v-340h-117v73c-33 -55 -85 -82 -157 -82c-52 0 -95 15 -129 44s-51 67 -51 113v6c0 124 128 163 222 163h66c33 0 50 15 50 45zM384 216v17h-115c-25 0 -49 -7 -71 -20c-21 -13 -32 -31 -32 -54c0 -44 34 -73 85 -73c81 0 133 50 133 130z" />
    <glyph glyph-name="adieresis" unicode="&#xe4;" horiz-adv-x="575" 
d="M171 621c-41 0 -74 34 -74 75c0 40 33 75 74 75s76 -35 76 -75c0 -41 -33 -75 -76 -75zM394 621c-43 0 -75 32 -75 75c0 41 32 75 75 75c41 0 74 -35 74 -75c0 -41 -33 -75 -74 -75zM385 362c0 44 -38 80 -105 80c-61 0 -106 -28 -133 -85l-91 52c42 91 118 136 227 136
c100 0 167 -36 200 -109c12 -27 18 -59 18 -96v-340h-117v73c-33 -55 -85 -82 -157 -82c-52 0 -95 15 -129 44s-51 67 -51 113v6c0 124 128 163 222 163h66c33 0 50 15 50 45zM384 216v17h-115c-25 0 -49 -7 -71 -20c-21 -13 -32 -31 -32 -54c0 -44 34 -73 85 -73
c81 0 133 50 133 130z" />
    <glyph glyph-name="aring" unicode="&#xe5;" horiz-adv-x="575" 
d="M483 436c12 -27 18 -59 18 -96v-340h-117v73c-33 -55 -85 -82 -157 -82c-52 0 -95 15 -129 44s-51 67 -51 113v6c0 124 128 163 222 163h66c33 0 50 15 50 45c0 44 -38 80 -105 80c-61 0 -106 -28 -133 -85l-91 52c24 52 61 90 111 113c-20 25 -30 54 -30 85
c0 38 14 70 43 97s64 41 103 41c40 0 74 -14 103 -41s43 -59 43 -97c0 -33 -10 -61 -30 -85c39 -19 67 -48 84 -86zM283 671c-62 0 -91 -69 -49 -111c40 -42 121 -9 117 47c0 33 -32 64 -68 64zM384 216v17h-115c-25 0 -49 -7 -71 -20c-21 -13 -32 -31 -32 -54
c0 -44 34 -73 85 -73c81 0 133 50 133 130z" />
    <glyph glyph-name="ae" unicode="&#xe6;" horiz-adv-x="951" 
d="M389 362c0 45 -38 80 -106 80c-63 0 -109 -28 -136 -85l-91 52c42 91 118 136 227 136c84 0 144 -26 179 -77c49 51 112 77 189 77c81 0 144 -26 189 -77c46 -51 69 -117 69 -199c0 -16 0 -28 -1 -37h-409c1 -40 18 -73 50 -100c32 -26 68 -39 109 -39
c67 0 115 28 144 83l86 -57c-45 -83 -132 -129 -228 -129c-89 0 -160 32 -215 97c-55 -64 -126 -96 -213 -96h-3c-52 0 -95 15 -130 44s-52 67 -52 113v6c0 124 128 163 222 163h76c29 0 44 15 44 45zM505 322h285c-4 75 -61 121 -141 121c-75 0 -133 -48 -144 -121z
M387 216v17h-118c-25 0 -49 -7 -71 -20c-21 -13 -32 -31 -32 -54c0 -44 34 -73 85 -73c83 0 136 49 136 130z" />
    <glyph glyph-name="ccedilla" unicode="&#xe7;" horiz-adv-x="601" 
d="M462 198l104 -46c-27 -75 -94 -142 -197 -158c15 -25 23 -51 23 -80c0 -50 -18 -89 -54 -116c-36 -28 -79 -42 -130 -42c-32 0 -58 4 -77 12v80c18 -5 40 -8 66 -8c63 0 105 31 105 92c0 19 -5 39 -14 61c-71 8 -129 38 -175 89c-46 52 -69 114 -69 186
c0 75 27 140 80 195s119 82 198 82c120 0 208 -65 240 -160l-102 -46c-23 65 -69 98 -137 98c-44 0 -81 -16 -112 -47c-30 -31 -45 -71 -45 -120c0 -50 15 -91 45 -123s68 -48 113 -48c67 0 113 33 138 99z" />
    <glyph glyph-name="egrave" unicode="&#xe8;" horiz-adv-x="615" 
d="M122 797h146l102 -172h-103zM571 232h-405c1 -40 17 -73 48 -100c31 -26 67 -39 108 -39c67 0 115 28 144 83l86 -57c-45 -83 -132 -129 -228 -129c-79 0 -146 26 -200 79c-53 53 -80 120 -80 199c0 77 26 142 77 196s115 81 192 81c81 0 145 -25 191 -76
s69 -117 69 -200c0 -16 -1 -28 -2 -37zM313 443c-73 0 -130 -48 -141 -121h280c-4 75 -63 121 -139 121z" />
    <glyph glyph-name="eacute" unicode="&#xe9;" horiz-adv-x="615" 
d="M362 625h-103l102 172h146zM571 232h-405c1 -40 17 -73 48 -100c31 -26 67 -39 108 -39c67 0 115 28 144 83l86 -57c-45 -83 -132 -129 -228 -129c-79 0 -146 26 -200 79c-53 53 -80 120 -80 199c0 77 26 142 77 196s115 81 192 81c81 0 145 -25 191 -76s69 -117 69 -200
c0 -16 -1 -28 -2 -37zM313 443c-73 0 -130 -48 -141 -121h280c-4 75 -63 121 -139 121z" />
    <glyph glyph-name="ecircumflex" unicode="&#xea;" horiz-adv-x="615" 
d="M260 797h94l143 -172h-114l-73 92l-70 -92h-118zM571 232h-405c1 -40 17 -73 48 -100c31 -26 67 -39 108 -39c67 0 115 28 144 83l86 -57c-45 -83 -132 -129 -228 -129c-79 0 -146 26 -200 79c-53 53 -80 120 -80 199c0 77 26 142 77 196s115 81 192 81
c81 0 145 -25 191 -76s69 -117 69 -200c0 -16 -1 -28 -2 -37zM313 443c-73 0 -130 -48 -141 -121h280c-4 75 -63 121 -139 121z" />
    <glyph glyph-name="edieresis" unicode="&#xeb;" horiz-adv-x="615" 
d="M200 771c41 0 75 -35 75 -75c4 -64 -85 -101 -128 -53c-48 43 -13 132 53 128zM422 621c-43 0 -75 32 -75 75c0 41 32 75 75 75c41 0 75 -35 75 -75c0 -41 -34 -75 -75 -75zM571 232h-405c1 -40 17 -73 48 -100c31 -26 67 -39 108 -39c67 0 115 28 144 83l86 -57
c-45 -83 -132 -129 -228 -129c-79 0 -146 26 -200 79c-53 53 -80 120 -80 199c0 77 26 142 77 196s115 81 192 81c81 0 145 -25 191 -76s69 -117 69 -200c0 -16 -1 -28 -2 -37zM313 443c-73 0 -130 -48 -141 -121h280c-4 75 -63 121 -139 121z" />
    <glyph glyph-name="igrave" unicode="&#xec;" horiz-adv-x="279" 
d="M-58 793h146l102 -172h-103zM199 534v-534h-119v534h119z" />
    <glyph glyph-name="iacute" unicode="&#xed;" horiz-adv-x="279" 
d="M192 625h-104l103 172h146zM80 0v534h119v-534h-119z" />
    <glyph glyph-name="icircumflex" unicode="&#xee;" horiz-adv-x="279" 
d="M90 797h93l144 -172h-114l-74 92l-69 -92h-119zM199 534v-534h-119v534h119z" />
    <glyph glyph-name="idieresis" unicode="&#xef;" horiz-adv-x="278" 
d="M25 621c-41 0 -74 34 -74 75c0 40 33 75 74 75s76 -35 76 -75c0 -41 -33 -75 -76 -75zM248 621c-43 0 -75 32 -75 75c0 41 32 75 75 75c41 0 74 -35 74 -75c0 -41 -33 -75 -74 -75zM80 0v534h119v-534h-119z" />
    <glyph glyph-name="eth" unicode="&#xf0;" horiz-adv-x="655" 
d="M467 796l32 -73l-97 -43c134 -119 201 -247 201 -382c0 -85 -26 -158 -78 -218c-51 -59 -120 -89 -207 -89c-77 0 -142 26 -195 78c-53 53 -79 117 -79 194c0 71 25 131 75 180c51 49 112 73 183 73c56 0 124 -28 164 -67h1c-21 58 -75 120 -164 186l-149 -67l-31 73
l107 46l-77 51l55 81c39 -23 81 -50 126 -83zM323 97c47 0 86 16 115 47c30 32 45 71 45 116s-16 82 -47 112s-70 45 -117 45c-93 0 -155 -66 -155 -158c0 -45 15 -83 45 -115c31 -31 69 -47 114 -47z" />
    <glyph glyph-name="ntilde" unicode="&#xf1;" horiz-adv-x="633" 
d="M248 693c-25 0 -38 -22 -39 -66h-81c-5 96 40 155 120 155s97 -69 143 -69c25 0 38 22 39 66h82c4 -96 -41 -155 -121 -155c-79 0 -98 69 -143 69zM559 0h-119v299c0 80 -39 133 -118 133c-75 0 -123 -54 -123 -135v-297h-119v534h116v-72c41 55 95 83 163 83
c131 0 200 -88 200 -216v-329z" />
    <glyph glyph-name="ograve" unicode="&#xf2;" horiz-adv-x="650" 
d="M134 797h145l103 -172h-103zM326 -9c-78 0 -145 27 -200 80s-83 119 -83 197s28 144 83 197s122 80 201 80c77 0 142 -27 197 -80s83 -118 83 -195c0 -79 -27 -145 -82 -199c-54 -53 -120 -80 -199 -80zM210 149c30 -33 69 -50 116 -50s86 16 115 49s44 73 44 120
s-15 87 -45 120c-29 33 -68 49 -115 49s-86 -16 -116 -49c-29 -32 -44 -71 -44 -118s15 -87 45 -121z" />
    <glyph glyph-name="oacute" unicode="&#xf3;" horiz-adv-x="650" 
d="M372 625h-103l102 172h146zM327 545c77 0 143 -26 198 -79s82 -118 82 -196c0 -79 -27 -145 -82 -199c-54 -53 -120 -80 -199 -80c-78 0 -145 27 -200 80s-83 119 -83 197s28 144 83 197s122 80 201 80zM166 270c0 -47 15 -87 45 -121c30 -33 69 -50 116 -50
s85 16 114 49s44 73 44 120s-15 87 -45 120c-29 33 -67 49 -114 49s-86 -16 -116 -48c-29 -32 -44 -72 -44 -119z" />
    <glyph glyph-name="ocircumflex" unicode="&#xf4;" horiz-adv-x="650" 
d="M276 797h93l144 -172h-114l-74 92l-69 -92h-118zM326 -9c-78 0 -145 27 -200 80s-83 119 -83 197s28 144 83 197s122 80 201 80c77 0 143 -26 198 -79s82 -118 82 -196c0 -79 -27 -145 -82 -199c-54 -53 -120 -80 -199 -80zM166 270c0 -47 15 -87 45 -121
c30 -33 69 -50 116 -50s85 16 114 49s44 73 44 120s-15 87 -45 120c-29 33 -67 49 -114 49s-86 -16 -116 -48c-29 -32 -44 -72 -44 -119z" />
    <glyph glyph-name="otilde" unicode="&#xf5;" horiz-adv-x="650" 
d="M254 693c-25 0 -38 -22 -39 -66h-81c-5 96 40 155 120 155s97 -69 143 -69c25 0 38 22 39 66h82c4 -96 -41 -155 -121 -155c-79 0 -98 69 -143 69zM327 545c77 0 143 -26 198 -79s82 -118 82 -196c0 -79 -27 -145 -82 -199c-54 -53 -120 -80 -199 -80
c-78 0 -145 27 -200 80s-83 119 -83 197s28 144 83 197s122 80 201 80zM209 388c-29 -32 -44 -71 -44 -118s15 -87 45 -121c30 -33 69 -50 116 -50s86 16 115 49s44 73 44 120s-15 87 -45 120c-29 33 -68 49 -115 49s-86 -16 -116 -49z" />
    <glyph glyph-name="odieresis" unicode="&#xf6;" horiz-adv-x="650" 
d="M213 621c-41 0 -74 34 -74 75c0 40 33 75 74 75s76 -35 76 -75c0 -41 -33 -75 -76 -75zM436 621c-43 0 -75 32 -75 75c0 41 32 75 75 75c41 0 74 -35 74 -75c0 -41 -33 -75 -74 -75zM326 545c77 0 143 -26 198 -79s82 -118 82 -196c0 -79 -27 -145 -82 -199
c-54 -53 -120 -80 -199 -80c-78 0 -145 27 -200 80s-82 119 -82 197s28 144 83 197s122 80 200 80zM209 388c-29 -32 -44 -71 -44 -118s15 -87 45 -121c30 -33 69 -50 116 -50s86 16 115 49s44 73 44 120s-15 87 -45 120c-29 33 -68 49 -115 49s-86 -16 -116 -49z" />
    <glyph glyph-name="divide" unicode="&#xf7;" horiz-adv-x="597" 
d="M298 674c43 0 76 -33 76 -76s-33 -76 -76 -76c-41 0 -75 35 -75 76s34 76 75 76zM56 313v111h486v-111h-486zM298 216c43 0 76 -33 76 -76s-33 -76 -76 -76c-41 0 -75 35 -75 76s34 76 75 76z" />
    <glyph glyph-name="oslash" unicode="&#xf8;" horiz-adv-x="655" 
d="M550 554l60 -59l-58 -59c38 -49 57 -105 57 -168c0 -79 -27 -145 -82 -198s-121 -79 -199 -79c-62 0 -116 17 -163 50l-60 -60l-60 59l58 59c-38 49 -57 105 -57 169c0 78 27 144 82 197s121 80 199 80c60 0 115 -17 165 -51zM167 268c0 -32 6 -60 19 -85l228 231
c-25 15 -54 22 -86 22c-47 0 -86 -16 -116 -49c-30 -32 -45 -72 -45 -119zM487 268c0 31 -6 59 -18 84l-227 -230c23 -15 52 -23 85 -23c47 0 86 16 115 49c30 33 45 73 45 120z" />
    <glyph glyph-name="ugrave" unicode="&#xf9;" horiz-adv-x="633" 
d="M126 797h145l103 -172h-103zM74 534h119v-299c0 -80 39 -133 118 -133c75 0 123 54 123 135v297h119v-534h-116v72c-41 -55 -95 -83 -163 -83c-129 0 -200 89 -200 217v328z" />
    <glyph glyph-name="uacute" unicode="&#xfa;" horiz-adv-x="633" 
d="M356 625h-103l102 172h146zM74 534h119v-299c0 -80 39 -133 118 -133c75 0 123 54 123 135v297h119v-534h-116v72c-41 -55 -95 -83 -163 -83c-129 0 -200 89 -200 217v328z" />
    <glyph glyph-name="ucircumflex" unicode="&#xfb;" horiz-adv-x="633" 
d="M264 797h93l144 -172h-114l-74 92l-69 -92h-118zM74 534h119v-299c0 -80 39 -133 118 -133c75 0 123 54 123 135v297h119v-534h-116v72c-41 -55 -95 -83 -163 -83c-129 0 -200 89 -200 217v328z" />
    <glyph glyph-name="udieresis" unicode="&#xfc;" horiz-adv-x="633" 
d="M200 771c41 0 75 -35 75 -75c4 -64 -85 -101 -128 -53c-48 43 -13 132 53 128zM422 621c-43 0 -75 32 -75 75c0 41 32 75 75 75c41 0 75 -35 75 -75c0 -41 -34 -75 -75 -75zM74 534h119v-299c0 -80 39 -133 118 -133c75 0 123 54 123 135v297h119v-534h-116v72
c-41 -55 -95 -83 -163 -83c-129 0 -200 89 -200 217v328z" />
    <glyph glyph-name="yacute" unicode="&#xfd;" horiz-adv-x="612" 
d="M356 625h-103l102 172h146zM152 534l166 -350l154 350h129l-366 -797h-128l147 323l-238 474h136z" />
    <glyph glyph-name="thorn" unicode="&#xfe;" horiz-adv-x="681" 
d="M637 269c0 -75 -25 -140 -75 -195s-113 -82 -190 -82c-27 0 -58 7 -93 21c-35 15 -61 36 -80 65v-341h-119v1077h116v-363c20 33 47 56 82 71s67 22 97 22c78 0 141 -28 189 -84c49 -56 73 -120 73 -191zM241 388c-29 -33 -44 -73 -44 -120s15 -87 44 -120
c30 -32 69 -48 116 -48s86 16 115 48c30 33 45 73 45 120s-15 87 -45 120c-29 33 -68 49 -115 49s-86 -16 -116 -49z" />
    <glyph glyph-name="ydieresis" unicode="&#xff;" horiz-adv-x="612" 
d="M200 771c41 0 75 -35 75 -75c4 -64 -85 -101 -128 -53c-48 43 -13 132 53 128zM422 621c-43 0 -75 32 -75 75c0 41 32 75 75 75c41 0 75 -35 75 -75c0 -41 -34 -75 -75 -75zM152 534l166 -350l154 350h129l-367 -797h-127l147 323l-238 474h136z" />
    <glyph glyph-name="Amacron" unicode="&#x100;" horiz-adv-x="783" 
d="M218 984h346v-95h-346v95zM0 0l319 783h145l317 -783h-128l-71 184h-384l-72 -184h-126zM390 665l-148 -372h297z" />
    <glyph glyph-name="amacron" unicode="&#x101;" horiz-adv-x="575" 
d="M104 730h346v-95h-346v95zM385 362c0 44 -38 80 -105 80c-61 0 -106 -28 -133 -85l-91 52c42 91 118 136 227 136c100 0 167 -36 200 -109c12 -27 18 -59 18 -96v-340h-117v73c-33 -55 -85 -82 -157 -82c-52 0 -95 15 -129 44s-51 67 -51 113v6c0 124 128 163 222 163h66
c33 0 50 15 50 45zM384 216v17h-115c-25 0 -49 -7 -71 -20c-21 -13 -32 -31 -32 -54c0 -44 34 -73 85 -73c81 0 133 50 133 130z" />
    <glyph glyph-name="Abreve" unicode="&#x102;" horiz-adv-x="783" 
d="M392 853c-97 0 -174 61 -183 170h102c4 -55 33 -85 81 -85s78 30 82 85h100c-9 -105 -81 -170 -182 -170zM0 0l319 783h145l317 -783h-128l-71 184h-384l-72 -184h-126zM390 665l-148 -372h297z" />
    <glyph glyph-name="abreve" unicode="&#x103;" horiz-adv-x="575" 
d="M278 623c-97 0 -175 61 -184 170h103c4 -55 33 -85 81 -85s77 29 81 85h100c-8 -105 -80 -170 -181 -170zM385 362c0 44 -38 80 -105 80c-61 0 -106 -28 -133 -85l-91 52c42 91 118 136 227 136c100 0 167 -36 200 -109c12 -27 18 -59 18 -96v-340h-117v73
c-33 -55 -85 -82 -157 -82c-52 0 -95 15 -129 44s-51 67 -51 113v6c0 124 128 163 222 163h66c33 0 50 15 50 45zM384 216v17h-115c-25 0 -49 -7 -71 -20c-21 -13 -32 -31 -32 -54c0 -44 34 -73 85 -73c81 0 133 50 133 130z" />
    <glyph glyph-name="Aogonek" unicode="&#x104;" horiz-adv-x="783" 
d="M775 -160h2v-82c-16 -1 -28 -2 -37 -2c-83 0 -145 40 -145 109c0 41 31 86 93 135h-35l-71 184h-384l-72 -184h-126l319 783h145l317 -783c-55 -42 -83 -77 -83 -106c0 -36 26 -54 77 -54zM390 665l-148 -372h297z" />
    <glyph glyph-name="aogonek" unicode="&#x105;" horiz-adv-x="575" 
d="M501 340v-340c-55 -42 -82 -77 -82 -106c0 -36 26 -54 77 -54h1v-82c-16 -1 -28 -2 -36 -2c-83 0 -146 40 -146 109c0 41 31 86 94 135h-25v73c-33 -55 -85 -82 -157 -82c-52 0 -95 15 -129 44s-51 67 -51 113v6c0 124 128 163 222 163h66c33 0 50 15 50 45
c0 44 -38 80 -105 80c-61 0 -106 -28 -133 -85l-91 52c42 91 118 136 227 136c100 0 167 -36 200 -109c12 -27 18 -59 18 -96zM384 216v17h-115c-25 0 -49 -7 -71 -20c-21 -13 -32 -31 -32 -54c0 -44 34 -73 85 -73c81 0 133 50 133 130z" />
    <glyph glyph-name="Cacute" unicode="&#x106;" horiz-adv-x="834" 
d="M490 854h-104l103 172h146zM442 -9c-100 0 -196 38 -271 103c-75 67 -123 172 -123 295c0 116 39 212 118 289s172 116 281 116c99 0 186 -31 242 -79c56 -47 94 -100 111 -156l-111 -51c-39 101 -121 171 -244 171c-71 0 -134 -27 -187 -80s-80 -121 -80 -206
c0 -84 26 -153 79 -207c53 -53 116 -80 188 -80c54 0 104 16 149 47c46 32 79 74 98 125l112 -51c-19 -55 -57 -108 -116 -156s-147 -80 -246 -80z" />
    <glyph glyph-name="cacute" unicode="&#x107;" horiz-adv-x="601" 
d="M366 625h-103l103 172h145zM322 -9c-79 0 -145 26 -198 79s-80 119 -80 198c0 75 27 140 80 195s119 82 198 82c120 0 208 -65 240 -160l-102 -46c-23 65 -69 98 -137 98c-44 0 -81 -16 -112 -47c-30 -31 -45 -71 -45 -120c0 -50 15 -91 45 -123s68 -48 113 -48
c67 0 113 33 138 99l104 -46c-15 -43 -44 -81 -85 -113s-94 -48 -159 -48z" />
    <glyph glyph-name="Ccircumflex" unicode="&#x108;" horiz-adv-x="834" 
d="M387 1026h94l143 -172h-113l-74 92l-70 -92h-118zM442 -9c-100 0 -196 38 -271 103c-75 67 -123 172 -123 295c0 116 39 212 118 289s172 116 281 116c99 0 186 -31 242 -79c56 -47 94 -100 111 -156l-111 -51c-39 101 -121 171 -244 171c-71 0 -134 -27 -187 -80
s-80 -121 -80 -206c0 -84 26 -153 79 -207c53 -53 116 -80 188 -80c54 0 104 16 149 47c46 32 79 74 98 125l112 -51c-19 -55 -57 -108 -116 -156s-147 -80 -246 -80z" />
    <glyph glyph-name="ccircumflex" unicode="&#x109;" horiz-adv-x="601" 
d="M276 797h94l143 -172h-114l-73 92l-70 -92h-118zM322 -9c-79 0 -145 26 -198 79s-80 119 -80 198c0 75 27 140 80 195s119 82 198 82c120 0 208 -65 240 -160l-102 -46c-23 65 -69 98 -137 98c-44 0 -81 -16 -112 -47c-30 -31 -45 -71 -45 -120c0 -50 15 -91 45 -123
s68 -48 113 -48c67 0 113 33 138 99l104 -46c-15 -43 -44 -81 -85 -113s-94 -48 -159 -48z" />
    <glyph glyph-name="Cdotaccent" unicode="&#x10a;" horiz-adv-x="834" 
d="M436 849c-68 -5 -104 90 -56 135c45 51 139 11 135 -56c0 -44 -36 -79 -79 -79zM442 -9c-100 0 -196 38 -271 103c-75 67 -123 172 -123 295c0 116 39 212 118 289s172 116 281 116c99 0 186 -31 242 -79c56 -47 94 -100 111 -156l-111 -51c-39 101 -121 171 -244 171
c-71 0 -134 -27 -187 -80s-80 -121 -80 -206c0 -84 26 -153 79 -207c53 -53 116 -80 188 -80c54 0 104 16 149 47c46 32 79 74 98 125l112 -51c-19 -55 -57 -108 -116 -156s-147 -80 -246 -80z" />
    <glyph glyph-name="cdotaccent" unicode="&#x10b;" horiz-adv-x="601" 
d="M324 621c-68 -5 -104 90 -56 135c45 51 139 11 135 -56c0 -44 -36 -79 -79 -79zM322 -9c-79 0 -145 26 -198 79s-80 119 -80 198c0 75 27 140 80 195s119 82 198 82c120 0 208 -65 240 -160l-102 -46c-23 65 -69 98 -137 98c-44 0 -81 -16 -112 -47
c-30 -31 -45 -71 -45 -120c0 -50 15 -91 45 -123s68 -48 113 -48c67 0 113 33 138 99l104 -46c-15 -43 -44 -81 -85 -113s-94 -48 -159 -48z" />
    <glyph glyph-name="Ccaron" unicode="&#x10c;" horiz-adv-x="834" 
d="M369 1027l70 -92l73 92h114l-143 -172h-94l-138 172h118zM442 -9c-100 0 -196 38 -271 103c-75 67 -123 172 -123 295c0 116 39 212 118 289s172 116 281 116c99 0 186 -31 242 -79c56 -47 94 -100 111 -156l-111 -51c-39 101 -121 171 -244 171c-71 0 -134 -27 -187 -80
s-80 -121 -80 -206c0 -84 26 -153 79 -207c53 -53 116 -80 188 -80c54 0 104 16 149 47c46 32 79 74 98 125l112 -51c-19 -55 -57 -108 -116 -156s-147 -80 -246 -80z" />
    <glyph glyph-name="ccaron" unicode="&#x10d;" horiz-adv-x="601" 
d="M255 797l70 -92l73 92h114l-143 -172h-94l-138 172h118zM322 -9c-79 0 -145 26 -198 79s-80 119 -80 198c0 75 27 140 80 195s119 82 198 82c120 0 208 -65 240 -160l-102 -46c-23 65 -69 98 -137 98c-44 0 -81 -16 -112 -47c-30 -31 -45 -71 -45 -120
c0 -50 15 -91 45 -123s68 -48 113 -48c67 0 113 33 138 99l104 -46c-15 -43 -44 -81 -85 -113s-94 -48 -159 -48z" />
    <glyph glyph-name="Dcaron" unicode="&#x10e;" horiz-adv-x="815" 
d="M285 1027l69 -92l74 92h114l-144 -172h-93l-138 172h118zM768 391c0 -93 -34 -186 -99 -263c-64 -76 -178 -128 -317 -128h-252v783h250c116 0 215 -36 278 -91c97 -83 140 -202 140 -301zM641 391c0 64 -23 129 -68 184c-44 56 -124 94 -223 94h-124v-555h123
c99 0 179 36 224 89c45 55 68 120 68 188z" />
    <glyph glyph-name="dcaron" unicode="&#x10f;" horiz-adv-x="700" 
d="M757 581h-90l15 234h133zM43 268c0 72 24 136 73 192s114 84 193 84c29 0 60 -7 94 -22c35 -14 61 -35 79 -64v356h119v-814h-116v83c-19 -31 -46 -54 -83 -69c-36 -15 -68 -22 -96 -22c-75 0 -138 27 -188 82s-75 120 -75 194zM324 437c-47 0 -86 -16 -116 -49
c-29 -33 -44 -73 -44 -120s15 -87 44 -120c30 -32 69 -48 116 -48s86 16 115 48c30 33 45 73 45 120s-15 87 -45 120s-68 49 -115 49z" />
    <glyph glyph-name="Dcroat" unicode="&#x110;" horiz-adv-x="834" 
d="M15 454h106v329h248c116 0 215 -36 278 -91c97 -83 140 -202 140 -301c0 -93 -34 -186 -99 -263c-64 -76 -178 -128 -317 -128h-250v343h-106v111zM417 343h-173v-229h122c99 0 179 36 224 89c45 55 68 120 68 188c0 64 -23 129 -68 184c-44 56 -124 94 -223 94h-123
v-215h173v-111z" />
    <glyph glyph-name="dslash" unicode="&#x111;" horiz-adv-x="681" 
d="M601 0h-117v83c-18 -31 -45 -54 -81 -69s-68 -22 -97 -22c-75 0 -138 27 -188 82s-75 120 -75 194c0 72 24 136 73 192s114 84 193 84c29 0 60 -7 94 -22c35 -14 61 -35 79 -64v170h-167v87h167v99h119v-99h70v-87h-70v-628zM323 437c-47 0 -85 -16 -115 -49
c-29 -33 -44 -73 -44 -120s15 -87 44 -120c30 -32 69 -48 116 -48s86 16 115 48c30 33 45 73 45 120s-15 87 -45 120s-69 49 -116 49z" />
    <glyph glyph-name="Emacron" unicode="&#x112;" horiz-adv-x="664" 
d="M179 984h347v-95h-347v95zM602 674h-379v-218h344v-111h-344v-231h382v-112h-505v783h502v-111z" />
    <glyph glyph-name="emacron" unicode="&#x113;" horiz-adv-x="615" 
d="M140 730h346v-95h-346v95zM571 232h-405c1 -40 17 -73 48 -100c31 -26 67 -39 108 -39c67 0 115 28 144 83l86 -57c-45 -83 -132 -129 -228 -129c-79 0 -146 26 -200 79c-53 53 -80 120 -80 199c0 77 26 142 77 196s115 81 192 81c81 0 145 -25 191 -76s69 -117 69 -200
c0 -16 -1 -28 -2 -37zM313 443c-73 0 -130 -48 -141 -121h280c-4 75 -63 121 -139 121z" />
    <glyph glyph-name="Edotaccent" unicode="&#x116;" horiz-adv-x="664" 
d="M357 849c-68 -5 -104 90 -56 135c45 51 139 11 135 -56c0 -44 -36 -79 -79 -79zM602 672h-379v-218h344v-111h-344v-231h382v-112h-505v783h502v-111z" />
    <glyph glyph-name="edotaccent" unicode="&#x117;" horiz-adv-x="615" 
d="M315 621c-44 0 -79 35 -79 79c0 43 35 79 79 79s79 -36 79 -79c0 -44 -36 -79 -79 -79zM571 232h-405c1 -40 17 -73 48 -100c31 -26 67 -39 108 -39c67 0 115 28 144 83l86 -57c-45 -83 -132 -129 -228 -129c-79 0 -146 26 -200 79c-53 53 -80 120 -80 199
c0 77 26 142 77 196s115 81 192 81c81 0 145 -25 191 -76s69 -117 69 -200c0 -16 -1 -28 -2 -37zM313 443c-73 0 -130 -48 -141 -121h280c-4 75 -63 121 -139 121z" />
    <glyph glyph-name="Eogonek" unicode="&#x118;" horiz-adv-x="663" 
d="M600 -160h1v-82c-16 -1 -28 -2 -37 -2c-83 0 -145 40 -145 109c0 41 31 86 94 135h-413v783h501v-111h-378v-218h344v-111h-344v-231h382v-112c-55 -42 -83 -77 -83 -106c0 -36 26 -54 78 -54z" />
    <glyph glyph-name="eogonek" unicode="&#x119;" horiz-adv-x="615" 
d="M573 269c0 -16 -1 -28 -2 -37h-405c1 -40 17 -73 48 -100c31 -26 67 -39 108 -39c67 0 115 28 144 83l86 -57c-15 -27 -37 -52 -66 -77l-57 -46c-53 -43 -79 -70 -79 -102c0 -36 26 -54 78 -54h2v-82c-17 -1 -30 -2 -37 -2c-83 0 -146 40 -146 109c0 39 27 81 82 125h-5
c-79 0 -146 26 -200 79c-53 53 -80 120 -80 199c0 77 26 142 77 196s115 81 192 81c81 0 145 -25 191 -76s69 -117 69 -200zM172 322h280c-4 75 -63 121 -139 121c-73 0 -130 -48 -141 -121z" />
    <glyph glyph-name="Ecaron" unicode="&#x11a;" horiz-adv-x="664" 
d="M288 1027l69 -92l74 92h114l-144 -172h-93l-138 172h118zM602 672h-379v-218h344v-111h-344v-231h382v-112h-505v783h502v-111z" />
    <glyph glyph-name="ecaron" unicode="&#x11b;" horiz-adv-x="615" 
d="M245 797l69 -92l74 92h113l-143 -172h-93l-139 172h119zM571 232h-405c1 -40 17 -73 48 -100c31 -26 67 -39 108 -39c67 0 115 28 144 83l86 -57c-45 -83 -132 -129 -228 -129c-79 0 -146 26 -200 79c-53 53 -80 120 -80 199c0 77 26 142 77 196s115 81 192 81
c81 0 145 -25 191 -76s69 -117 69 -200c0 -16 -1 -28 -2 -37zM313 443c-73 0 -130 -48 -141 -121h280c-4 75 -63 121 -139 121z" />
    <glyph glyph-name="Gcircumflex" unicode="&#x11c;" horiz-adv-x="854" 
d="M400 1026h94l143 -172h-114l-73 92l-70 -92h-118zM800 562l-109 -50c-41 100 -121 168 -245 168c-77 0 -141 -27 -193 -82c-51 -55 -77 -123 -77 -205s25 -151 76 -206s115 -83 193 -83c132 0 214 73 233 176h-281v112h414v-43c0 -102 -33 -187 -100 -256
c-66 -68 -154 -102 -265 -102c-117 0 -213 38 -287 113s-111 171 -111 286s39 211 118 288s172 116 281 116c89 0 165 -23 227 -68s104 -99 126 -164z" />
    <glyph glyph-name="gcircumflex" unicode="&#x11d;" horiz-adv-x="677" 
d="M271 797h93l144 -172h-114l-74 92l-69 -92h-119zM303 -4c-75 0 -138 27 -187 81s-73 118 -73 192c0 71 24 134 72 190c49 56 113 84 192 84c29 0 60 -8 94 -23s61 -37 80 -67v81h116v-527c0 -84 -26 -151 -77 -200s-118 -74 -202 -74c-130 0 -220 54 -269 162l99 57
c37 -75 93 -113 168 -113c93 0 162 56 162 163v84c-19 -31 -46 -53 -81 -68s-66 -22 -94 -22zM480 271c0 47 -15 86 -44 118s-68 48 -115 48s-86 -16 -115 -48c-29 -31 -44 -71 -44 -118s15 -87 44 -120c30 -32 68 -48 115 -48s85 16 114 48c30 33 45 73 45 120z" />
    <glyph glyph-name="Gbreve" unicode="&#x11e;" horiz-adv-x="854" 
d="M450 853c-97 0 -174 61 -182 170h101c4 -55 33 -85 81 -85s78 30 82 85h100c-9 -105 -81 -170 -182 -170zM800 562l-109 -50c-41 100 -121 168 -245 168c-77 0 -141 -27 -193 -82c-51 -55 -77 -123 -77 -205s25 -151 76 -206s115 -83 193 -83c132 0 214 73 233 176h-281
v112h414v-43c0 -102 -33 -187 -100 -256c-66 -68 -154 -102 -265 -102c-117 0 -213 38 -287 113s-111 171 -111 286s39 211 118 288s172 116 281 116c89 0 165 -23 227 -68s104 -99 126 -164z" />
    <glyph glyph-name="gbreve" unicode="&#x11f;" horiz-adv-x="677" 
d="M321 623c-97 0 -175 61 -183 170h102c4 -55 33 -85 81 -85s77 29 81 85h100c-8 -105 -80 -170 -181 -170zM303 -4c-75 0 -138 27 -187 81s-73 118 -73 192c0 71 24 134 72 190c49 56 113 84 192 84c29 0 60 -8 94 -23s61 -37 80 -67v81h116v-527c0 -84 -26 -151 -77 -200
s-118 -74 -202 -74c-130 0 -220 54 -269 162l99 57c37 -75 93 -113 168 -113c93 0 162 56 162 163v84c-19 -31 -46 -53 -81 -68s-66 -22 -94 -22zM480 271c0 47 -15 86 -44 118s-68 48 -115 48s-86 -16 -115 -48c-29 -31 -44 -71 -44 -118s15 -87 44 -120
c30 -32 68 -48 115 -48s85 16 114 48c30 33 45 73 45 120z" />
    <glyph glyph-name="Gdotaccent" unicode="&#x120;" horiz-adv-x="853" 
d="M448 849c-43 0 -78 35 -78 79s34 79 78 79s79 -35 79 -79s-35 -79 -79 -79zM800 562l-109 -50c-41 100 -121 168 -245 168c-77 0 -141 -27 -193 -82c-51 -55 -77 -123 -77 -205s25 -151 76 -206s115 -83 193 -83c132 0 214 73 233 176h-281v112h414v-43
c0 -102 -33 -187 -100 -256c-66 -68 -154 -102 -265 -102c-117 0 -213 38 -287 113s-111 171 -111 286s39 211 118 288s172 116 281 116c89 0 165 -23 227 -68s104 -99 126 -164z" />
    <glyph glyph-name="gdotaccent" unicode="&#x121;" horiz-adv-x="677" 
d="M320 621c-68 -5 -104 90 -56 135c45 51 139 11 135 -56c0 -44 -36 -79 -79 -79zM303 -4c-75 0 -138 27 -187 81s-73 118 -73 192c0 71 24 134 72 190c49 56 113 84 192 84c29 0 60 -8 94 -23s61 -37 80 -67v81h116v-527c0 -84 -26 -151 -77 -200s-118 -74 -202 -74
c-130 0 -220 54 -269 162l99 57c37 -75 93 -113 168 -113c93 0 162 56 162 163v84c-19 -31 -46 -53 -81 -68s-66 -22 -94 -22zM480 271c0 47 -15 86 -44 118s-68 48 -115 48s-86 -16 -115 -48c-29 -31 -44 -71 -44 -118s15 -87 44 -120c30 -32 68 -48 115 -48s85 16 114 48
c30 33 45 73 45 120z" />
    <glyph glyph-name="Gcommaaccent" unicode="&#x122;" horiz-adv-x="853" 
d="M800 562l-109 -50c-41 100 -121 168 -245 168c-77 0 -141 -27 -193 -82c-51 -55 -77 -123 -77 -205s25 -151 76 -206s115 -83 193 -83c132 0 214 73 233 176h-281v112h414v-43c0 -102 -33 -187 -100 -256c-66 -68 -154 -102 -265 -102c-117 0 -213 38 -287 113
s-111 171 -111 286s39 211 118 288s172 116 281 116c89 0 165 -23 227 -68s104 -99 126 -164zM416 -326l-42 38c35 25 60 57 77 94c-6 -3 -14 -4 -23 -4c-33 0 -60 27 -60 63c0 39 29 68 69 68s73 -37 73 -89v-3c0 -63 -37 -127 -94 -167z" />
    <glyph glyph-name="gcommaaccent" unicode="&#x123;" horiz-adv-x="677" 
d="M344 875l42 -38c-34 -23 -60 -55 -77 -94c8 3 16 5 23 5c33 0 60 -28 60 -64c0 -39 -29 -68 -70 -68c-40 0 -72 36 -72 89v4c0 63 37 125 94 166zM303 -4c-75 0 -138 27 -187 81s-73 118 -73 192c0 71 24 134 72 190c49 56 113 84 192 84c29 0 60 -8 94 -23
s61 -37 80 -67v81h116v-527c0 -84 -26 -151 -77 -200s-118 -74 -202 -74c-130 0 -220 54 -269 162l99 57c37 -75 93 -113 168 -113c93 0 162 56 162 163v84c-19 -31 -46 -53 -81 -68s-66 -22 -94 -22zM480 271c0 47 -15 86 -44 118s-68 48 -115 48s-86 -16 -115 -48
c-29 -31 -44 -71 -44 -118s15 -87 44 -120c30 -32 68 -48 115 -48s85 16 114 48c30 33 45 73 45 120z" />
    <glyph glyph-name="Hbar" unicode="&#x126;" horiz-adv-x="841" 
d="M104 0v577h-78v94h78v112h123v-112h387v112h123v-112h79v-94h-79v-577h-123v338h-387v-338h-123zM227 577v-122h387v122h-387z" />
    <glyph glyph-name="hbar" unicode="&#x127;" horiz-adv-x="633" 
d="M199 715h166v-87h-166v-162c41 53 95 79 160 79c131 0 200 -88 200 -216v-329h-119v299c0 80 -39 133 -118 133c-75 0 -123 -54 -123 -135v-297h-119v628h-71v87h71v99h119v-99z" />
    <glyph glyph-name="Itilde" unicode="&#x128;" horiz-adv-x="322" 
d="M89 922c-25 0 -38 -22 -39 -66h-81c-5 96 40 155 120 155c72 2 107 -72 143 -69c25 0 38 22 39 66h82c4 -96 -41 -155 -121 -155c-69 -3 -110 72 -143 69zM100 0v783h123v-783h-123z" />
    <glyph glyph-name="itilde" unicode="&#x129;" horiz-adv-x="278" 
d="M67 693c-25 0 -38 -22 -39 -66h-81c-5 96 40 155 120 155s97 -69 143 -69c25 0 38 22 39 66h82c4 -96 -41 -155 -121 -155c-79 0 -98 69 -143 69zM80 0v534h119v-534h-119z" />
    <glyph glyph-name="Imacron" unicode="&#x12a;" horiz-adv-x="323" 
d="M3 984h317v-95h-317v95zM100 0v783h124v-783h-124z" />
    <glyph glyph-name="imacron" unicode="&#x12b;" horiz-adv-x="278" 
d="M-17 730h312v-95h-312v95zM80 0v534h119v-534h-119z" />
    <glyph glyph-name="Ibreve" unicode="&#x12c;" horiz-adv-x="322" 
d="M162 853c-97 0 -174 61 -183 170h102c3 -55 32 -85 81 -85c47 0 77 30 81 85h100c-9 -105 -80 -170 -181 -170zM100 0v783h123v-783h-123z" />
    <glyph glyph-name="ibreve" unicode="&#x12d;" horiz-adv-x="278" 
d="M140 623c-99 0 -175 61 -183 170h102c3 -55 32 -85 81 -85c48 0 77 29 81 85h100c-9 -105 -80 -170 -181 -170zM80 0v534h119v-534h-119z" />
    <glyph glyph-name="Iogonek" unicode="&#x12e;" horiz-adv-x="322" 
d="M140 -106c0 -36 26 -54 77 -54h2v-82c-16 -1 -28 -2 -37 -2c-83 0 -145 40 -145 109c0 41 31 86 93 135h-30v783h123v-783c-55 -41 -83 -77 -83 -106z" />
    <glyph glyph-name="iogonek" unicode="&#x12f;" horiz-adv-x="278" 
d="M194 652c-31 -31 -79 -31 -110 0s-31 79 0 110c31 32 79 32 110 0c31 -31 31 -79 0 -110zM80 534h119v-534c-55 -41 -83 -77 -83 -106c0 -36 26 -54 77 -54h1v-82c-15 -1 -27 -2 -36 -2c-83 0 -146 40 -146 109c0 41 31 86 94 135h-26v534z" />
    <glyph glyph-name="Idot" unicode="&#x130;" horiz-adv-x="322" 
d="M161 849c-68 -5 -104 90 -56 135c45 51 139 11 135 -56c0 -44 -36 -79 -79 -79zM100 0v783h123v-783h-123z" />
    <glyph glyph-name="dotlessi" unicode="&#x131;" horiz-adv-x="278" 
d="M80 0v534h119v-534h-119z" />
    <glyph glyph-name="IJ" unicode="&#x132;" horiz-adv-x="913" 
d="M100 0v783h123v-783h-123zM580 -9c-105 0 -188 61 -233 170l102 57c29 -75 72 -112 129 -112c77 0 119 51 119 126v551h124v-551c0 -71 -23 -129 -68 -174s-102 -67 -173 -67z" />
    <glyph glyph-name="ij" unicode="&#x133;" horiz-adv-x="564" 
d="M84 652c-31 31 -31 79 0 110c31 32 79 32 110 0c31 -31 31 -79 0 -110s-79 -31 -110 0zM424 786c44 0 80 -36 80 -79s-36 -78 -80 -78c-43 0 -78 35 -78 78s35 79 78 79zM199 534v-534h-119v534h119zM365 534h120v-597c0 -135 -65 -202 -194 -202c-19 0 -37 3 -54 8v104
c9 -3 19 -4 30 -4c71 0 98 27 98 107v584z" />
    <glyph glyph-name="Kcommaaccent" unicode="&#x136;" horiz-adv-x="711" 
d="M100 783h123v-338l312 338h163l-350 -374l370 -409h-166l-329 370v-370h-123v783zM346 -326l-42 38c35 25 60 57 77 94c-6 -3 -14 -4 -23 -4c-33 0 -60 27 -60 63c0 39 29 68 69 68s73 -37 73 -89v-3c0 -63 -37 -127 -94 -167z" />
    <glyph glyph-name="kcommaaccent" unicode="&#x137;" horiz-adv-x="580" 
d="M80 0v814h119v-490h1l207 210h162l-241 -242l254 -292h-157l-223 261h-3v-261h-119zM277 -326l-42 38c35 25 60 57 77 94c-6 -3 -14 -4 -23 -4c-33 0 -60 27 -60 63c0 39 29 68 69 68s73 -37 73 -89v-3c0 -63 -37 -127 -94 -167z" />
    <glyph glyph-name="Lacute" unicode="&#x139;" horiz-adv-x="592" 
d="M219 854h-103l103 172h145zM223 114h353v-114h-476v783h123v-669z" />
    <glyph glyph-name="lacute" unicode="&#x13a;" horiz-adv-x="278" 
d="M191 883h-103l103 172h145zM80 0v814h119v-814h-119z" />
    <glyph glyph-name="Lcommaaccent" unicode="&#x13b;" horiz-adv-x="592" 
d="M223 114h353v-114h-476v783h123v-669zM308 -326l-42 38c35 25 60 57 77 94c-6 -3 -14 -4 -23 -4c-33 0 -60 27 -60 63c0 39 29 68 69 68s73 -37 73 -89v-3c0 -63 -37 -127 -94 -167z" />
    <glyph glyph-name="lcommaaccent" unicode="&#x13c;" horiz-adv-x="278" 
d="M80 0v814h119v-814h-119zM71 -356v47c53 7 86 41 86 88c-7 -5 -18 -8 -32 -8c-37 0 -64 27 -64 64c0 39 31 67 71 67c49 0 79 -40 79 -91c0 -92 -51 -154 -140 -167z" />
    <glyph glyph-name="Lcaron" unicode="&#x13d;" horiz-adv-x="606" 
d="M518 571h-90l14 234h134zM223 114h353v-114h-476v783h123v-669z" />
    <glyph glyph-name="lcaron" unicode="&#x13e;" horiz-adv-x="298" 
d="M354 581h-90l15 234h134zM80 0v814h119v-814h-119z" />
    <glyph glyph-name="Ldot" unicode="&#x13f;" horiz-adv-x="606" 
d="M223 114h353v-114h-476v783h123v-669zM419 388c0 44 35 79 78 79c44 0 79 -35 79 -79c0 -43 -35 -78 -79 -78c-43 0 -78 35 -78 78z" />
    <glyph glyph-name="ldot" unicode="&#x140;" horiz-adv-x="421" 
d="M80 0v814h119v-814h-119zM270 378c0 44 35 80 78 80s78 -36 78 -80c0 -43 -35 -78 -78 -78s-78 35 -78 78z" />
    <glyph glyph-name="Lslash" unicode="&#x141;" horiz-adv-x="619" 
d="M22 384l103 46v353h123v-298l223 100v-118l-223 -100v-253h354v-114h-477v312l-103 -46v118z" />
    <glyph glyph-name="lslash" unicode="&#x142;" horiz-adv-x="397" 
d="M142 390v424h119v-355l102 60v-121l-102 -59v-339h-119v269l-102 -60v122z" />
    <glyph glyph-name="Nacute" unicode="&#x143;" horiz-adv-x="853" 
d="M481 854h-103l103 172h145zM625 0l-404 603v-603h-121v783h145l386 -577v577h122v-783h-128z" />
    <glyph glyph-name="nacute" unicode="&#x144;" horiz-adv-x="633" 
d="M372 625h-103l103 172h145zM560 0h-120v299c0 80 -38 133 -117 133c-76 0 -124 -54 -124 -135v-297h-119v534h116v-72c42 55 96 83 163 83c131 0 201 -88 201 -216v-329z" />
    <glyph glyph-name="Ncommaaccent" unicode="&#x145;" horiz-adv-x="853" 
d="M625 0l-404 603v-603h-121v783h145l386 -577v577h122v-783h-128zM372 -356v47c52 7 85 41 86 88c-8 -5 -19 -8 -33 -8c-37 0 -64 27 -64 64c0 39 32 67 71 67c49 0 80 -40 80 -91c0 -92 -52 -154 -140 -167z" />
    <glyph glyph-name="ncommaaccent" unicode="&#x146;" horiz-adv-x="633" 
d="M559 0h-119v299c0 80 -39 133 -118 133c-75 0 -123 -54 -123 -135v-297h-119v534h116v-72c41 55 95 83 163 83c131 0 200 -88 200 -216v-329zM296 -326l-42 38c35 25 60 57 77 94c-6 -3 -14 -4 -23 -4c-33 0 -60 27 -60 63c0 39 29 68 69 68s73 -37 73 -89v-3
c0 -63 -37 -127 -94 -167z" />
    <glyph glyph-name="Ncaron" unicode="&#x147;" horiz-adv-x="853" 
d="M361 1027l69 -92l74 92h114l-144 -172h-93l-138 172h118zM625 0l-404 603v-603h-121v783h145l386 -577v577h122v-783h-128z" />
    <glyph glyph-name="ncaron" unicode="&#x148;" horiz-adv-x="633" 
d="M255 797l70 -92l73 92h114l-143 -172h-94l-138 172h118zM560 0h-120v299c0 80 -38 133 -117 133c-76 0 -124 -54 -124 -135v-297h-119v534h116v-72c42 55 96 83 163 83c131 0 201 -88 201 -216v-329z" />
    <glyph glyph-name="Eng" unicode="&#x14a;" horiz-adv-x="853" 
d="M221 603v-603h-121v783h145l387 -578v578h121v-840c0 -133 -66 -208 -194 -208c-19 0 -37 3 -54 8v104c9 -3 19 -4 30 -4c71 0 97 27 97 107v41z" />
    <glyph glyph-name="eng" unicode="&#x14b;" horiz-adv-x="633" 
d="M559 329v-387c0 -133 -66 -207 -194 -207c-19 0 -37 3 -54 8v104c9 -3 19 -4 30 -4c71 0 99 27 99 107v349c0 80 -39 133 -118 133c-75 0 -123 -54 -123 -135v-297h-119v534h116v-72c41 55 95 83 163 83c131 0 200 -88 200 -216z" />
    <glyph glyph-name="Omacron" unicode="&#x14c;" horiz-adv-x="900" 
d="M277 984h347v-95h-347v95zM48 390c0 113 39 209 118 287s174 117 285 117c112 0 207 -38 284 -115c78 -77 117 -172 117 -286s-39 -210 -118 -287s-174 -115 -286 -115s-207 38 -284 113c-77 76 -116 171 -116 286zM450 105c76 0 140 28 193 84s80 124 80 204
s-27 148 -80 203c-53 56 -117 84 -193 84c-77 0 -141 -28 -194 -84c-53 -55 -79 -123 -79 -203s26 -148 79 -204s117 -84 194 -84z" />
    <glyph glyph-name="omacron" unicode="&#x14d;" horiz-adv-x="650" 
d="M152 730h347v-95h-347v95zM327 545c77 0 143 -26 198 -79s82 -118 82 -196c0 -79 -27 -145 -82 -199c-54 -53 -120 -80 -199 -80c-78 0 -145 27 -200 80s-83 119 -83 197s28 144 83 197s122 80 201 80zM166 270c0 -47 15 -87 45 -121c30 -33 69 -50 116 -50s85 16 114 49
s44 73 44 120s-15 87 -45 120c-29 33 -67 49 -114 49s-86 -16 -116 -48c-29 -32 -44 -72 -44 -119z" />
    <glyph glyph-name="Ohungarumlaut" unicode="&#x150;" horiz-adv-x="900" 
d="M404 854h-98l98 172h140zM602 854h-99l98 172h141zM48 390c0 113 39 209 118 287s174 117 285 117c112 0 207 -38 284 -115c78 -77 117 -172 117 -286s-39 -210 -118 -287s-174 -115 -286 -115s-207 38 -284 113c-77 76 -116 171 -116 286zM450 105c76 0 140 28 193 84
s80 124 80 204s-27 148 -80 203c-53 56 -117 84 -193 84c-77 0 -141 -28 -194 -84c-53 -55 -79 -123 -79 -203s26 -148 79 -204s117 -84 194 -84z" />
    <glyph glyph-name="ohungarumlaut" unicode="&#x151;" horiz-adv-x="650" 
d="M271 625h-98l98 172h140zM468 625h-98l97 172h141zM326 545c77 0 143 -26 198 -79s82 -118 82 -196c0 -79 -27 -145 -82 -199c-54 -53 -120 -80 -199 -80c-78 0 -145 27 -200 80s-82 119 -82 197s28 144 83 197s122 80 200 80zM209 388c-29 -32 -44 -71 -44 -118
s15 -87 45 -121c30 -33 69 -50 116 -50s86 16 115 49s44 73 44 120s-15 87 -45 120c-29 33 -68 49 -115 49s-86 -16 -116 -49z" />
    <glyph glyph-name="OE" unicode="&#x152;" horiz-adv-x="1283" 
d="M722 0v116h-3c-61 -79 -169 -125 -277 -125c-110 0 -203 38 -280 114c-76 76 -114 171 -114 285c0 113 39 209 117 287s172 117 282 117c105 0 211 -46 272 -126h3v115h499v-111h-379v-218h345v-111h-345v-231h383v-112h-503zM177 392c0 -79 26 -147 78 -203
c53 -56 117 -84 194 -84s142 28 195 84c54 56 81 124 81 203c0 80 -27 148 -81 204c-53 56 -118 84 -195 84s-141 -28 -194 -84c-52 -55 -78 -123 -78 -204z" />
    <glyph glyph-name="oe" unicode="&#x153;" horiz-adv-x="1055" 
d="M1011 232h-406c1 -40 18 -73 49 -100c31 -26 67 -39 108 -39c67 0 115 28 144 83l86 -57c-45 -83 -132 -129 -228 -129c-92 0 -165 35 -220 106c-54 -70 -127 -105 -219 -105c-79 0 -145 26 -200 79s-82 119 -82 198c0 78 27 144 82 197s121 80 200 80
c88 0 167 -40 218 -105c51 70 121 105 209 105c82 0 146 -25 192 -76s69 -117 69 -200c0 -7 -1 -20 -2 -37zM753 443c-73 0 -131 -49 -142 -121h281c-4 75 -63 121 -139 121zM325 99c47 0 85 16 115 49s45 73 45 120s-15 87 -45 119c-29 33 -68 49 -115 49s-86 -16 -116 -49
c-29 -32 -44 -72 -44 -119s15 -87 44 -120c30 -33 69 -49 116 -49z" />
    <glyph glyph-name="Racute" unicode="&#x154;" horiz-adv-x="719" 
d="M394 854h-103l102 172h146zM100 0v783h294c91 0 159 -23 202 -69s65 -103 65 -172c0 -109 -61 -189 -166 -224l186 -318h-139l-170 297h-149v-297h-123zM223 669v-261h158c109 0 155 59 155 131c0 60 -27 130 -155 130h-158z" />
    <glyph glyph-name="racute" unicode="&#x155;" horiz-adv-x="393" 
d="M278 625h-103l102 172h146zM372 536v-122c-10 2 -21 3 -34 3c-91 0 -139 -53 -139 -146v-271h-119v534h116v-85c33 60 82 90 147 90c13 0 22 -1 29 -3z" />
    <glyph glyph-name="Rcommaaccent" unicode="&#x156;" horiz-adv-x="719" 
d="M100 0v783h294c91 0 159 -23 202 -69s65 -103 65 -172c0 -109 -61 -189 -166 -224l186 -318h-139l-170 297h-149v-297h-123zM223 669v-261h158c109 0 155 59 155 131c0 60 -27 130 -155 130h-158zM335 -326l-42 38c35 25 60 57 77 94c-6 -3 -14 -4 -23 -4
c-33 0 -60 27 -60 63c0 39 29 68 69 68s73 -37 73 -89v-3c0 -63 -37 -127 -94 -167z" />
    <glyph glyph-name="rcommaaccent" unicode="&#x157;" horiz-adv-x="393" 
d="M372 536v-122c-10 2 -21 3 -34 3c-91 0 -139 -53 -139 -146v-271h-119v534h116v-85c33 60 82 90 147 90c13 0 22 -1 29 -3zM114 -326l-42 38c35 25 60 57 77 94c-6 -3 -14 -4 -23 -4c-33 0 -60 27 -60 63c0 39 29 68 69 68s73 -37 73 -89v-3c0 -63 -37 -127 -94 -167z
" />
    <glyph glyph-name="Rcaron" unicode="&#x158;" horiz-adv-x="719" 
d="M284 1027l69 -92l74 92h114l-144 -172h-93l-138 172h118zM100 0v783h294c91 0 159 -23 202 -69s65 -103 65 -172c0 -109 -61 -189 -166 -224l186 -318h-139l-170 297h-149v-297h-123zM223 669v-261h158c109 0 155 59 155 131c0 60 -27 130 -155 130h-158z" />
    <glyph glyph-name="rcaron" unicode="&#x159;" horiz-adv-x="393" 
d="M157 797l70 -92l73 92h114l-143 -172h-94l-139 172h119zM372 536v-122c-10 2 -21 3 -34 3c-91 0 -139 -53 -139 -146v-271h-119v534h116v-85c33 60 82 90 147 90c13 0 22 -1 29 -3z" />
    <glyph glyph-name="Sacute" unicode="&#x15a;" horiz-adv-x="641" 
d="M374 854h-103l103 172h145zM327 -9c-137 0 -244 68 -288 188l104 54c33 -84 101 -130 186 -130c80 0 137 42 137 107c0 57 -45 90 -157 125c-85 27 -146 57 -184 91c-40 35 -60 83 -60 143c0 63 25 116 75 159c51 44 112 66 185 66c132 0 220 -69 257 -166l-102 -55
c-30 73 -83 110 -158 110c-76 0 -131 -44 -131 -107c0 -59 49 -91 145 -120c97 -29 164 -62 201 -99c37 -36 56 -83 56 -140c0 -61 -24 -114 -72 -159s-113 -67 -194 -67z" />
    <glyph glyph-name="sacute" unicode="&#x15b;" horiz-adv-x="502" 
d="M297 625h-103l102 172h146zM253 -9c-106 0 -180 45 -221 134l93 52c29 -57 71 -86 128 -86c45 0 84 23 84 59c0 31 -37 55 -110 70c-59 12 -104 33 -133 64c-25 27 -38 59 -38 97c0 48 19 87 58 118s84 46 136 46c96 0 163 -40 200 -120l-92 -52c-24 48 -61 72 -112 72
c-37 0 -75 -23 -75 -52c0 -35 30 -53 99 -68c121 -27 185 -85 185 -168c0 -49 -19 -89 -56 -120s-86 -46 -146 -46z" />
    <glyph glyph-name="Scircumflex" unicode="&#x15c;" horiz-adv-x="642" 
d="M277 1026h94l143 -172h-114l-73 92l-70 -92h-118zM327 -9c-137 0 -244 68 -288 188l104 54c33 -84 101 -130 186 -130c80 0 137 42 137 107c0 57 -45 90 -157 125c-85 27 -146 57 -184 91c-40 35 -60 83 -60 143c0 63 25 116 75 159c51 44 112 66 185 66
c132 0 220 -69 257 -166l-102 -55c-30 73 -83 110 -158 110c-76 0 -131 -44 -131 -107c0 -59 49 -91 145 -120c97 -29 164 -62 201 -99c37 -36 56 -83 56 -140c0 -61 -24 -114 -72 -159s-113 -67 -194 -67z" />
    <glyph glyph-name="scircumflex" unicode="&#x15d;" horiz-adv-x="502" 
d="M205 797h93l144 -172h-114l-74 92l-69 -92h-119zM253 -9c-106 0 -180 45 -221 134l93 52c29 -57 71 -86 128 -86c45 0 84 23 84 59c0 31 -37 55 -110 70c-59 12 -104 33 -133 64c-25 27 -38 59 -38 97c0 48 19 87 58 118s84 46 136 46c96 0 163 -40 200 -120l-92 -52
c-24 48 -61 72 -112 72c-37 0 -75 -23 -75 -52c0 -35 30 -53 99 -68c121 -27 185 -85 185 -168c0 -49 -19 -89 -56 -120s-86 -46 -146 -46z" />
    <glyph glyph-name="Scedilla" unicode="&#x15e;" horiz-adv-x="641" 
d="M593 217c0 -54 -20 -103 -59 -146s-93 -69 -162 -78c15 -23 22 -49 22 -79c0 -50 -18 -89 -54 -116c-36 -28 -79 -42 -130 -42c-31 0 -56 4 -77 12v80c19 -5 41 -8 66 -8c63 0 105 31 105 92c0 22 -5 42 -14 61c-120 11 -211 78 -251 186l104 54
c33 -84 101 -130 186 -130c80 0 137 42 137 107c0 57 -45 90 -157 125c-85 27 -146 57 -184 91c-40 35 -60 83 -60 143c0 63 25 116 75 159c51 44 112 66 185 66c132 0 220 -69 257 -166l-102 -55c-30 73 -83 110 -158 110c-76 0 -131 -44 -131 -107c0 -59 49 -91 145 -120
c97 -29 164 -62 201 -99c37 -36 56 -83 56 -140z" />
    <glyph glyph-name="scedilla" unicode="&#x15f;" horiz-adv-x="502" 
d="M455 157c0 -81 -59 -145 -150 -161c15 -25 23 -53 23 -82c0 -50 -18 -89 -54 -116c-36 -28 -79 -42 -130 -42c-31 0 -56 4 -77 12v80c19 -5 41 -8 66 -8c63 0 105 31 105 92c0 22 -5 42 -15 60c-90 8 -154 52 -191 133l93 52c29 -57 71 -86 128 -86c45 0 84 23 84 59
c0 31 -37 55 -110 70c-59 12 -104 33 -133 64c-25 27 -38 59 -38 97c0 48 19 87 58 118s84 46 136 46c96 0 163 -40 200 -120l-92 -52c-24 48 -61 72 -112 72c-37 0 -75 -23 -75 -52c0 -35 30 -53 99 -68c121 -27 185 -85 185 -168z" />
    <glyph glyph-name="Scaron" unicode="&#x160;" horiz-adv-x="641" 
d="M255 1027l69 -92l74 92h114l-144 -172h-93l-138 172h118zM327 -9c-137 0 -244 68 -288 188l104 54c33 -84 101 -130 186 -130c80 0 137 42 137 107c0 57 -45 90 -157 125c-85 27 -146 57 -184 91c-40 35 -60 83 -60 143c0 63 25 116 75 159c51 44 112 66 185 66
c132 0 220 -69 257 -166l-102 -55c-30 73 -83 110 -158 110c-76 0 -131 -44 -131 -107c0 -59 49 -91 145 -120c97 -29 164 -62 201 -99c37 -36 56 -83 56 -140c0 -61 -24 -114 -72 -159s-113 -67 -194 -67z" />
    <glyph glyph-name="scaron" unicode="&#x161;" horiz-adv-x="502" 
d="M185 797l69 -92l74 92h114l-144 -172h-93l-138 172h118zM253 -9c-106 0 -180 45 -221 134l93 52c29 -57 71 -86 128 -86c45 0 84 23 84 59c0 31 -37 55 -110 70c-59 12 -104 33 -133 64c-25 27 -38 59 -38 97c0 48 19 87 58 118s84 46 136 46c96 0 163 -40 200 -120
l-92 -52c-24 48 -61 72 -112 72c-37 0 -75 -23 -75 -52c0 -35 30 -53 99 -68c121 -27 185 -85 185 -168c0 -49 -19 -89 -56 -120s-86 -46 -146 -46z" />
    <glyph glyph-name="uni0162" unicode="&#x162;" horiz-adv-x="660" 
d="M640 669h-249v-669c18 -25 27 -54 27 -86c0 -50 -18 -89 -54 -116c-36 -28 -80 -42 -131 -42c-30 0 -55 4 -76 12v80c18 -5 40 -8 66 -8c63 0 105 31 105 92c0 23 -6 46 -18 68h-42v669h-248v114h620v-114z" />
    <glyph glyph-name="uni0163" unicode="&#x163;" horiz-adv-x="416" 
d="M371 427h-131v-236c0 -64 31 -89 92 -89c12 0 25 1 38 4v-101c-19 -7 -41 -11 -64 -11h-6c15 -24 23 -51 23 -80c0 -50 -18 -89 -54 -116c-36 -28 -79 -42 -130 -42c-19 0 -35 2 -49 5v82c12 -2 25 -3 38 -3c64 0 105 31 105 92c0 31 -14 72 -47 95
c-43 30 -65 78 -65 145v255h-98v107h98v165h119v-165h131v-107z" />
    <glyph glyph-name="Tcaron" unicode="&#x164;" horiz-adv-x="660" 
d="M261 1027l69 -92l74 92h114l-144 -172h-93l-138 172h118zM20 669v114h621v-114h-249v-669h-123v669h-249z" />
    <glyph glyph-name="tcaron" unicode="&#x165;" horiz-adv-x="426" 
d="M406 586h-90l15 229h134zM371 427h-131v-236c0 -64 31 -89 92 -89c12 0 25 1 38 4v-101c-19 -7 -41 -11 -64 -11c-117 0 -185 62 -185 178v255h-98v107h98v165h119v-165h131v-107z" />
    <glyph glyph-name="Tbar" unicode="&#x166;" horiz-adv-x="672" 
d="M141 444h133v225h-248v114h620v-114h-249v-225h133v-106h-133v-338h-123v338h-133v106z" />
    <glyph glyph-name="tbar" unicode="&#x167;" horiz-adv-x="416" 
d="M371 427h-131v-92h122v-104h-122v-40c0 -64 31 -89 92 -89c12 0 25 1 38 4v-101c-19 -7 -41 -11 -64 -11c-117 0 -185 62 -185 178v59h-93v104h93v92h-98v107h98v165h119v-165h131v-107z" />
    <glyph glyph-name="Utilde" unicode="&#x168;" horiz-adv-x="791" 
d="M500 1012h76v-11c0 -89 -35 -133 -104 -133c-21 0 -47 8 -76 24c-29 17 -51 25 -65 25c-21 0 -32 -16 -33 -48h-83v11c0 89 35 134 106 134c19 0 45 -8 76 -24s53 -24 66 -24c22 0 34 15 37 46zM577 783h123v-479c0 -95 -26 -172 -79 -229c-52 -57 -128 -85 -227 -85
s-175 28 -226 85s-77 132 -77 223v485h123v-480c0 -121 74 -197 182 -197c113 0 181 78 181 193v484z" />
    <glyph glyph-name="utilde" unicode="&#x169;" horiz-adv-x="633" 
d="M246 693c-25 0 -38 -22 -39 -66h-81c-5 96 40 155 120 155s97 -69 143 -69c25 0 38 22 39 66h82c4 -96 -41 -155 -121 -155c-79 0 -98 69 -143 69zM74 534h119v-299c0 -80 39 -133 118 -133c75 0 123 54 123 135v297h119v-534h-116v72c-41 -55 -95 -83 -163 -83
c-129 0 -200 89 -200 217v328z" />
    <glyph glyph-name="Umacron" unicode="&#x16a;" horiz-adv-x="792" 
d="M223 984h346v-95h-346v95zM578 783h123v-479c0 -95 -26 -172 -79 -229s-128 -85 -227 -85c-100 0 -176 28 -227 85s-77 132 -77 223v485h123v-480c0 -121 75 -197 183 -197c113 0 181 78 181 193v484z" />
    <glyph glyph-name="umacron" unicode="&#x16b;" horiz-adv-x="633" 
d="M141 730h346v-95h-346v95zM74 534h119v-299c0 -80 39 -133 118 -133c75 0 123 54 123 135v297h119v-534h-116v72c-41 -55 -95 -83 -163 -83c-129 0 -200 89 -200 217v328z" />
    <glyph glyph-name="Uring" unicode="&#x16e;" horiz-adv-x="791" 
d="M395 851c-40 0 -74 13 -103 40c-28 27 -42 60 -42 99c0 38 14 70 43 97s63 41 102 41c41 0 75 -14 103 -41c29 -27 43 -59 43 -97c0 -39 -14 -72 -43 -99c-28 -27 -62 -40 -103 -40zM396 1054c-62 0 -91 -69 -49 -111c40 -42 121 -9 117 47c0 33 -32 64 -68 64zM577 783
h123v-479c0 -95 -26 -172 -79 -229c-52 -57 -128 -85 -227 -85s-175 28 -226 85s-77 132 -77 223v485h123v-480c0 -121 74 -197 182 -197c113 0 181 78 181 193v484z" />
    <glyph glyph-name="uring" unicode="&#x16f;" horiz-adv-x="633" 
d="M313 603c-39 0 -73 13 -102 40s-43 60 -43 99c0 38 14 70 43 97s63 41 102 41c41 0 75 -14 103 -41c29 -27 43 -59 43 -97c0 -39 -14 -72 -43 -99c-28 -27 -62 -40 -103 -40zM314 806c-60 3 -90 -72 -49 -111c40 -42 121 -9 117 47c0 33 -32 64 -68 64zM74 534h119v-299
c0 -80 39 -133 118 -133c75 0 123 54 123 135v297h119v-534h-116v72c-41 -55 -95 -83 -163 -83c-129 0 -200 89 -200 217v328z" />
    <glyph glyph-name="Uhungarumlaut" unicode="&#x170;" horiz-adv-x="791" 
d="M342 854h-98l98 172h140zM540 854h-99l98 172h141zM577 783h123v-479c0 -95 -26 -172 -79 -229c-52 -57 -128 -85 -227 -85s-175 28 -226 85s-77 132 -77 223v485h123v-480c0 -121 74 -197 182 -197c113 0 181 78 181 193v484z" />
    <glyph glyph-name="uhungarumlaut" unicode="&#x171;" horiz-adv-x="633" 
d="M260 625h-98l98 172h140zM458 625h-99l98 172h141zM74 534h119v-299c0 -80 39 -133 118 -133c75 0 123 54 123 135v297h119v-534h-116v72c-41 -55 -95 -83 -163 -83c-129 0 -200 89 -200 217v328z" />
    <glyph glyph-name="Uogonek" unicode="&#x172;" horiz-adv-x="791" 
d="M423 -9c-5 0 -22 -1 -29 -1c-99 0 -175 28 -226 85s-77 132 -77 223v485h123v-480c0 -121 74 -197 182 -197c113 0 181 78 181 193v484h123v-483c0 -109 -38 -194 -113 -254l-63 -50c-53 -43 -78 -70 -78 -102c0 -36 26 -54 77 -54h2v-82c-16 -1 -28 -2 -37 -2
c-81 0 -145 40 -145 109c0 40 27 82 80 126z" />
    <glyph glyph-name="uogonek" unicode="&#x173;" horiz-adv-x="633" 
d="M547 -160h2v-82c-16 -1 -28 -2 -37 -2c-83 0 -146 40 -146 109c0 41 31 86 94 135h-23v72c-41 -55 -95 -83 -163 -83c-131 0 -200 88 -200 216v329h119v-299c0 -80 39 -133 118 -133c75 0 123 54 123 135v297h119v-534c-55 -41 -83 -77 -83 -106c0 -36 26 -54 77 -54z
" />
    <glyph glyph-name="Wcircumflex" unicode="&#x174;" horiz-adv-x="1174" 
d="M539 1026h93l143 -172h-113l-74 92l-69 -92h-119zM331 174l188 609h137l189 -609l179 609h128l-238 -783h-140l-187 612h-1l-189 -612h-138l-236 783h132z" />
    <glyph glyph-name="wcircumflex" unicode="&#x175;" horiz-adv-x="879" 
d="M391 797h93l143 -172h-113l-74 92l-69 -92h-119zM736 534h122l-171 -534h-124l-123 375h-2l-124 -375h-122l-171 534h125l112 -377h1l121 377h120l122 -378h2z" />
    <glyph glyph-name="Ycircumflex" unicode="&#x176;" horiz-adv-x="751" 
d="M327 1026h93l144 -172h-114l-74 92l-69 -92h-118zM20 783h142l214 -351l216 351h141l-296 -467v-316h-124v313z" />
    <glyph glyph-name="ycircumflex" unicode="&#x177;" horiz-adv-x="612" 
d="M262 797h93l144 -172h-114l-73 92l-70 -92h-118zM152 534l166 -350l154 350h129l-367 -797h-127l147 323l-238 474h136z" />
    <glyph glyph-name="Ydieresis" unicode="&#x178;" horiz-adv-x="751" 
d="M340 924c0 -43 -34 -75 -75 -75s-74 34 -74 75s33 75 74 75s75 -34 75 -75zM487 999c41 0 75 -34 75 -75s-34 -75 -75 -75s-74 34 -74 75s31 75 74 75zM314 0v313l-294 470h142l215 -351l216 351h140l-295 -467v-316h-124z" />
    <glyph glyph-name="Zacute" unicode="&#x179;" horiz-adv-x="666" 
d="M364 854h-103l103 172h145zM54 783h562v-105l-428 -568h437v-110h-587v106l428 567h-412v110z" />
    <glyph glyph-name="zacute" unicode="&#x17a;" horiz-adv-x="528" 
d="M315 625h-103l102 172h146zM50 534h431v-95l-293 -335h294v-104h-439v99l290 331h-283v104z" />
    <glyph glyph-name="Zdotaccent" unicode="&#x17b;" horiz-adv-x="665" 
d="M331 849c-68 -5 -106 90 -56 135c45 51 139 11 135 -56c0 -44 -36 -79 -79 -79zM54 783h561v-105l-428 -568h437v-110h-586v106l427 567h-411v110z" />
    <glyph glyph-name="zdotaccent" unicode="&#x17c;" horiz-adv-x="529" 
d="M263 621c-68 -5 -104 90 -56 135c45 51 139 11 135 -56c0 -44 -36 -79 -79 -79zM51 534h431v-95l-294 -335h295v-104h-440v99l290 331h-282v104z" />
    <glyph glyph-name="Zcaron" unicode="&#x17d;" horiz-adv-x="665" 
d="M262 1027l69 -92l74 92h114l-144 -172h-93l-138 172h118zM55 783h560v-105l-428 -568h437v-110h-586v106l428 567h-411v110z" />
    <glyph glyph-name="zcaron" unicode="&#x17e;" horiz-adv-x="529" 
d="M194 797l69 -92l74 92h114l-144 -172h-93l-138 172h118zM51 534h431v-95l-294 -335h295v-104h-440v99l290 331h-282v104z" />
    <glyph glyph-name="florin" unicode="&#x192;" horiz-adv-x="600" 
d="M536 680c-63 0 -108 -44 -120 -105l-8 -41h129v-105h-150l-49 -250c-17 -88 -73 -188 -224 -188c-25 0 -47 2 -65 7v104c21 -3 38 -5 51 -5c64 0 109 43 121 106l45 226h-108v105h129l13 64c9 49 28 89 61 126c33 39 89 62 160 62c26 0 47 -2 64 -6l1 -105
c-20 3 -37 5 -50 5z" />
    <glyph glyph-name="uni01B5" unicode="&#x1b5;" horiz-adv-x="668" 
d="M56 451h243l168 222h-411v110h561v-105l-174 -227h174v-105h-251l-177 -236h436v-110h-585v106l180 240h-164v105z" />
    <glyph glyph-name="uni01B6" unicode="&#x1b6;" horiz-adv-x="530" 
d="M51 311h178l104 119h-282v104h431v-95l-113 -128h113v-84h-186l-108 -123h295v-104h-440v99l112 128h-104v84z" />
    <glyph glyph-name="uni01CD" unicode="&#x1cd;" horiz-adv-x="783" 
d="M322 1027l70 -92l73 92h114l-143 -172h-94l-138 172h118zM0 0l319 783h145l317 -783h-128l-71 184h-384l-72 -184h-126zM390 665l-148 -372h297z" />
    <glyph glyph-name="uni01CE" unicode="&#x1ce;" horiz-adv-x="575" 
d="M208 797l69 -92l74 92h114l-144 -172h-93l-139 172h119zM385 362c0 44 -38 80 -105 80c-61 0 -106 -28 -133 -85l-91 52c42 91 118 136 227 136c100 0 167 -36 200 -109c12 -27 18 -59 18 -96v-340h-117v73c-33 -55 -85 -82 -157 -82c-52 0 -95 15 -129 44
s-51 67 -51 113v6c0 124 128 163 222 163h66c33 0 50 15 50 45zM384 216v17h-115c-25 0 -49 -7 -71 -20c-21 -13 -32 -31 -32 -54c0 -44 34 -73 85 -73c81 0 133 50 133 130z" />
    <glyph glyph-name="uni01CF" unicode="&#x1cf;" horiz-adv-x="323" 
d="M92 1027l69 -92l75 92h114l-144 -172h-94l-138 172h118zM100 0v783h124v-783h-124z" />
    <glyph glyph-name="uni01D0" unicode="&#x1d0;" horiz-adv-x="278" 
d="M70 797l69 -92l74 92h114l-144 -172h-93l-139 172h119zM80 0v534h119v-534h-119z" />
    <glyph glyph-name="uni01D1" unicode="&#x1d1;" horiz-adv-x="900" 
d="M381 1027l69 -92l74 92h114l-144 -172h-93l-138 172h118zM48 390c0 113 39 209 118 287s174 117 285 117c112 0 207 -38 284 -115c78 -77 117 -172 117 -286s-39 -210 -118 -287s-174 -115 -286 -115s-207 38 -284 113c-77 76 -116 171 -116 286zM450 105
c76 0 140 28 193 84s80 124 80 204s-27 148 -80 203c-53 56 -117 84 -193 84c-77 0 -141 -28 -194 -84c-53 -55 -79 -123 -79 -203s26 -148 79 -204s117 -84 194 -84z" />
    <glyph glyph-name="uni01D2" unicode="&#x1d2;" horiz-adv-x="650" 
d="M256 797l69 -92l74 92h114l-144 -172h-93l-138 172h118zM326 545c77 0 143 -26 198 -79s82 -118 82 -196c0 -79 -27 -145 -82 -199c-54 -53 -120 -80 -199 -80c-78 0 -145 27 -200 80s-82 119 -82 197s28 144 83 197s122 80 200 80zM209 388c-29 -32 -44 -71 -44 -118
s15 -87 45 -121c30 -33 69 -50 116 -50s86 16 115 49s44 73 44 120s-15 87 -45 120c-29 33 -68 49 -115 49s-86 -16 -116 -49z" />
    <glyph glyph-name="uni01D3" unicode="&#x1d3;" horiz-adv-x="791" 
d="M326 1027l70 -92l73 92h114l-144 -172h-93l-138 172h118zM577 783h123v-479c0 -95 -26 -172 -79 -229c-52 -57 -128 -85 -227 -85s-175 28 -226 85s-77 132 -77 223v485h123v-480c0 -121 74 -197 182 -197c113 0 181 78 181 193v484z" />
    <glyph glyph-name="uni01D4" unicode="&#x1d4;" horiz-adv-x="633" 
d="M244 797l69 -92l74 92h114l-144 -172h-93l-138 172h118zM74 534h119v-299c0 -80 39 -133 118 -133c75 0 123 54 123 135v297h119v-534h-116v72c-41 -55 -95 -83 -163 -83c-129 0 -200 89 -200 217v328z" />
    <glyph glyph-name="uni01D5" unicode="&#x1d5;" horiz-adv-x="791" 
d="M222 1083h347v-95h-347v95zM280 955c41 0 75 -34 75 -75s-34 -75 -75 -75s-74 34 -74 75s31 75 74 75zM512 805c-43 0 -75 32 -75 75c0 41 32 75 75 75c41 0 74 -34 74 -75s-33 -75 -74 -75zM577 783h123v-479c0 -95 -26 -172 -79 -229c-52 -57 -128 -85 -227 -85
s-175 28 -226 85s-77 132 -77 223v485h123v-480c0 -121 74 -197 182 -197c113 0 181 78 181 193v484z" />
    <glyph glyph-name="uni01D6" unicode="&#x1d6;" horiz-adv-x="633" 
d="M140 869h347v-95h-347v95zM202 586c-41 0 -74 34 -74 75s33 75 74 75s75 -34 75 -75s-32 -75 -75 -75zM424 736c41 0 75 -34 75 -75s-34 -75 -75 -75s-74 34 -74 75s31 75 74 75zM74 534h119v-299c0 -80 39 -133 118 -133c75 0 123 54 123 135v297h119v-534h-116v72
c-41 -55 -95 -83 -163 -83c-129 0 -200 89 -200 217v328z" />
    <glyph glyph-name="uni01D7" unicode="&#x1d7;" horiz-adv-x="791" 
d="M445 968h-103l97 162h143zM354 880c0 -43 -34 -75 -75 -75s-74 34 -74 75s33 75 74 75s75 -34 75 -75zM511 955c41 0 75 -34 75 -75s-34 -75 -75 -75s-74 34 -74 75s31 75 74 75zM577 783h123v-479c0 -95 -26 -172 -79 -229c-52 -57 -128 -85 -227 -85s-175 28 -226 85
s-77 132 -77 223v485h123v-480c0 -121 74 -197 182 -197c113 0 181 78 181 193v484z" />
    <glyph glyph-name="uni01D8" unicode="&#x1d8;" horiz-adv-x="633" 
d="M363 759h-103l102 172h146zM202 586c-41 0 -74 34 -74 75s33 75 74 75s75 -34 75 -75s-32 -75 -75 -75zM424 736c41 0 75 -34 75 -75s-34 -75 -75 -75s-74 34 -74 75s31 75 74 75zM74 534h119v-299c0 -80 39 -133 118 -133c75 0 123 54 123 135v297h119v-534h-116v72
c-41 -55 -95 -83 -163 -83c-129 0 -200 89 -200 217v328z" />
    <glyph glyph-name="uni01D9" unicode="&#x1d9;" horiz-adv-x="791" 
d="M326 1131l70 -87l73 87h114l-144 -162h-93l-138 162h118zM280 955c41 0 75 -34 75 -75s-34 -75 -75 -75s-74 34 -74 75s31 75 74 75zM512 805c-43 0 -75 32 -75 75c0 41 32 75 75 75c41 0 74 -34 74 -75s-33 -75 -74 -75zM577 783h123v-479c0 -95 -26 -172 -79 -229
c-52 -57 -128 -85 -227 -85s-175 28 -226 85s-77 132 -77 223v485h123v-480c0 -121 74 -197 182 -197c113 0 181 78 181 193v484z" />
    <glyph glyph-name="uni01DA" unicode="&#x1da;" horiz-adv-x="633" 
d="M313 840l74 92h114l-144 -172h-93l-138 172h118zM200 736c41 0 75 -34 75 -75s-34 -75 -75 -75s-75 34 -75 75s32 75 75 75zM422 586c-43 0 -75 34 -75 75s32 75 75 75c41 0 75 -34 75 -75s-34 -75 -75 -75zM74 534h119v-299c0 -80 39 -133 118 -133c75 0 123 54 123 135
v297h119v-534h-116v72c-41 -55 -95 -83 -163 -83c-129 0 -200 89 -200 217v328z" />
    <glyph glyph-name="uni01DB" unicode="&#x1db;" horiz-adv-x="791" 
d="M213 1130h143l97 -162h-103zM354 880c0 -43 -34 -75 -75 -75s-74 34 -74 75s33 75 74 75s75 -34 75 -75zM511 955c41 0 75 -34 75 -75s-34 -75 -75 -75s-74 34 -74 75s31 75 74 75zM577 783h123v-479c0 -95 -26 -172 -79 -229c-52 -57 -128 -85 -227 -85s-175 28 -226 85
s-77 132 -77 223v485h123v-480c0 -121 74 -197 182 -197c113 0 181 78 181 193v484z" />
    <glyph glyph-name="uni01DC" unicode="&#x1dc;" horiz-adv-x="633" 
d="M123 931h146l102 -172h-103zM202 586c-41 0 -74 34 -74 75s33 75 74 75s75 -34 75 -75s-32 -75 -75 -75zM424 736c41 0 75 -34 75 -75s-34 -75 -75 -75s-74 34 -74 75s31 75 74 75zM74 534h119v-299c0 -80 39 -133 118 -133c75 0 123 54 123 135v297h119v-534h-116v72
c-41 -55 -95 -83 -163 -83c-129 0 -200 89 -200 217v328z" />
    <glyph glyph-name="Gcaron" unicode="&#x1e6;" horiz-adv-x="854" 
d="M380 1027l70 -92l73 92h114l-143 -172h-94l-138 172h118zM800 562l-109 -50c-41 100 -121 168 -245 168c-77 0 -141 -27 -193 -82c-51 -55 -77 -123 -77 -205s25 -151 76 -206s115 -83 193 -83c132 0 214 73 233 176h-281v112h414v-43c0 -102 -33 -187 -100 -256
c-66 -68 -154 -102 -265 -102c-117 0 -213 38 -287 113s-111 171 -111 286s39 211 118 288s172 116 281 116c89 0 165 -23 227 -68s104 -99 126 -164z" />
    <glyph glyph-name="gcaron" unicode="&#x1e7;" horiz-adv-x="677" 
d="M251 797l69 -92l74 92h114l-144 -172h-93l-139 172h119zM303 -4c-75 0 -138 27 -187 81s-73 118 -73 192c0 71 24 134 72 190c49 56 113 84 192 84c29 0 60 -8 94 -23s61 -37 80 -67v81h116v-527c0 -84 -26 -151 -77 -200s-118 -74 -202 -74c-130 0 -220 54 -269 162
l99 57c37 -75 93 -113 168 -113c93 0 162 56 162 163v84c-19 -31 -46 -53 -81 -68s-66 -22 -94 -22zM480 271c0 47 -15 86 -44 118s-68 48 -115 48s-86 -16 -115 -48c-29 -31 -44 -71 -44 -118s15 -87 44 -120c30 -32 68 -48 115 -48s85 16 114 48c30 33 45 73 45 120z" />
    <glyph glyph-name="uni01E8" unicode="&#x1e8;" horiz-adv-x="711" 
d="M306 1027l69 -92l74 92h113l-143 -172h-93l-139 172h119zM223 783v-338l313 338h162l-350 -374l371 -409h-167l-329 370v-370h-123v783h123z" />
    <glyph glyph-name="uni01E9" unicode="&#x1e9;" horiz-adv-x="581" 
d="M80 0v814h120v-490h1l207 210h162l-241 -242l254 -292h-157l-223 261h-3v-261h-120zM368 797l69 -92l74 92h114l-144 -172h-93l-138 172h118z" />
    <glyph glyph-name="uni01F4" unicode="&#x1f4;" horiz-adv-x="853" 
d="M500 854h-103l103 172h146zM800 562l-109 -50c-41 100 -121 168 -245 168c-77 0 -141 -27 -193 -82c-51 -55 -77 -123 -77 -205s25 -151 76 -206s115 -83 193 -83c132 0 214 73 233 176h-281v112h414v-43c0 -102 -33 -187 -100 -256c-66 -68 -154 -102 -265 -102
c-117 0 -213 38 -287 113s-111 171 -111 286s39 211 118 288s172 116 281 116c89 0 165 -23 227 -68s104 -99 126 -164z" />
    <glyph glyph-name="uni01F5" unicode="&#x1f5;" horiz-adv-x="677" 
d="M368 625h-104l103 172h146zM303 -4c-75 0 -138 27 -187 81s-73 118 -73 192c0 71 24 134 72 190c49 56 113 84 192 84c29 0 60 -8 94 -23s61 -37 80 -67v81h116v-527c0 -84 -26 -151 -77 -200s-118 -74 -202 -74c-130 0 -220 54 -269 162l99 57c37 -75 93 -113 168 -113
c93 0 162 56 162 163v84c-19 -31 -46 -53 -81 -68s-66 -22 -94 -22zM480 271c0 47 -15 86 -44 118s-68 48 -115 48s-86 -16 -115 -48c-29 -31 -44 -71 -44 -118s15 -87 44 -120c30 -32 68 -48 115 -48s85 16 114 48c30 33 45 73 45 120z" />
    <glyph glyph-name="Aringacute" unicode="&#x1fa;" horiz-adv-x="782" 
d="M493 1080h146l-131 -155c19 -24 28 -51 28 -82c0 -44 -17 -80 -52 -108l297 -735h-128l-71 184h-384l-72 -184h-126l299 735c-35 27 -53 63 -53 108c0 38 14 70 43 97s63 41 102 41c12 0 25 -2 40 -5zM391 908c-61 3 -92 -73 -49 -112c40 -42 121 -9 117 47
c0 33 -32 65 -68 65zM242 293h297l-149 372z" />
    <glyph glyph-name="aringacute" unicode="&#x1fb;" horiz-adv-x="575" 
d="M398 522c40 -19 68 -48 85 -86c12 -27 18 -59 18 -96v-340h-117v73c-33 -55 -85 -82 -157 -82c-52 0 -95 15 -129 44s-51 67 -51 113v6c0 124 128 163 222 163h66c33 0 50 15 50 45c0 44 -38 80 -105 80c-61 0 -106 -28 -133 -85l-91 52c25 53 63 90 112 113
c-21 25 -31 54 -31 85c0 38 14 70 43 97s64 41 103 41c15 0 29 -2 43 -6l59 100h146l-129 -152c18 -25 27 -51 27 -80c0 -33 -10 -61 -31 -85zM283 671c-62 0 -91 -69 -49 -111c40 -42 121 -9 117 47c0 33 -32 64 -68 64zM384 216v17h-115c-25 0 -49 -7 -71 -20
c-21 -13 -32 -31 -32 -54c0 -44 34 -73 85 -73c81 0 133 50 133 130z" />
    <glyph glyph-name="AEacute" unicode="&#x1fc;" horiz-adv-x="1053" 
d="M625 854h-103l103 172h145zM414 783h577v-111h-374v-218h340v-111h-340v-231h378v-112h-500v184h-274l-99 -184h-134zM495 673h-11l-204 -380h215v380z" />
    <glyph glyph-name="aeacute" unicode="&#x1fd;" horiz-adv-x="951" 
d="M521 625h-103l103 172h146zM909 269c0 -16 0 -28 -1 -37h-409c1 -40 18 -73 50 -100c33 -26 69 -39 110 -39c74 0 121 30 140 89l102 -30c-15 -50 -46 -90 -91 -119s-95 -43 -150 -43c-89 0 -160 32 -215 97c-55 -64 -126 -96 -213 -96h-3c-52 0 -95 15 -130 44
s-52 67 -52 113v6c0 124 128 163 222 163h76c29 0 44 15 44 45c0 45 -38 81 -106 81c-67 0 -114 -36 -122 -88l-106 24c3 25 15 51 38 80s51 51 86 66c29 13 65 20 107 20c82 0 141 -26 176 -77c49 51 112 77 189 77c81 0 144 -26 189 -77c46 -51 69 -117 69 -199zM505 322
h285c-4 75 -61 121 -141 121c-75 0 -133 -48 -144 -121zM387 216v17h-118c-25 0 -49 -7 -71 -20c-21 -13 -32 -31 -32 -54c0 -44 34 -73 85 -73c83 0 136 49 136 130z" />
    <glyph glyph-name="Oslashacute" unicode="&#x1fe;" horiz-adv-x="906" 
d="M503 854h-103l103 172h145zM791 820l68 -64l-97 -103c62 -74 93 -161 93 -260c0 -114 -39 -210 -118 -287s-174 -115 -286 -115c-91 0 -172 26 -242 77l-92 -94l-68 64l91 96c-59 72 -89 157 -89 256c0 113 39 209 118 287s174 117 285 117c89 0 169 -26 239 -77z
M180 393c0 -63 16 -119 48 -166l382 402c-47 34 -99 51 -157 51c-77 0 -141 -28 -194 -84c-53 -55 -79 -123 -79 -203zM726 393c0 63 -17 119 -51 169l-384 -403c47 -36 101 -54 162 -54c76 0 140 28 193 84s80 124 80 204z" />
    <glyph glyph-name="oslashacute" unicode="&#x1ff;" horiz-adv-x="655" 
d="M373 625h-103l102 172h146zM550 554l60 -59l-58 -59c38 -49 57 -105 57 -168c0 -79 -27 -145 -82 -198s-121 -79 -199 -79c-62 0 -116 17 -163 50l-60 -60l-60 59l58 59c-38 49 -57 105 -57 169c0 78 27 144 82 197s121 80 199 80c60 0 115 -17 165 -51zM167 268
c0 -32 6 -60 19 -85l228 231c-25 15 -54 22 -86 22c-47 0 -86 -16 -116 -49c-30 -32 -45 -72 -45 -119zM487 268c0 31 -6 59 -18 84l-227 -230c23 -15 52 -23 85 -23c47 0 86 16 115 49c30 33 45 73 45 120z" />
    <glyph glyph-name="Scommaaccent" unicode="&#x218;" horiz-adv-x="641" 
d="M327 -9c-137 0 -244 68 -288 188l104 54c33 -84 101 -130 186 -130c80 0 137 42 137 107c0 57 -45 90 -157 125c-85 27 -146 57 -184 91c-40 35 -60 83 -60 143c0 63 25 116 75 159c51 44 112 66 185 66c132 0 220 -69 257 -166l-102 -55c-30 73 -83 110 -158 110
c-76 0 -131 -44 -131 -107c0 -59 49 -91 145 -120c97 -29 164 -62 201 -99c37 -36 56 -83 56 -140c0 -61 -24 -114 -72 -159s-113 -67 -194 -67zM303 -326l-42 38c35 25 60 57 77 94c-6 -3 -14 -4 -23 -4c-33 0 -60 27 -60 63c0 39 29 68 69 68s73 -37 73 -89v-3
c0 -63 -37 -127 -94 -167z" />
    <glyph glyph-name="scommaaccent" unicode="&#x219;" horiz-adv-x="503" 
d="M253 -9c-106 0 -180 45 -221 134l93 52c29 -57 71 -86 128 -86c45 0 84 23 84 59c0 31 -37 55 -110 70c-59 12 -104 33 -133 64c-25 27 -38 59 -38 97c0 48 19 87 58 118s84 46 136 46c96 0 163 -40 200 -120l-92 -52c-24 48 -61 72 -112 72c-37 0 -75 -23 -75 -52
c0 -35 30 -53 99 -68c121 -27 185 -85 185 -168c0 -49 -19 -89 -56 -120s-86 -46 -146 -46zM228 -326l-42 38c35 25 60 57 77 94c-6 -3 -14 -4 -23 -4c-33 0 -60 27 -60 63c0 39 29 68 69 68s73 -37 73 -89v-3c0 -63 -37 -127 -94 -167z" />
    <glyph glyph-name="uni021A" unicode="&#x21a;" horiz-adv-x="660" 
d="M20 669v114h620v-114h-249v-669h-123v669h-248zM302 -326l-42 38c35 25 60 57 77 94c-6 -3 -14 -4 -23 -4c-33 0 -60 27 -60 63c0 39 29 68 69 68s73 -37 73 -89v-3c0 -63 -37 -127 -94 -167z" />
    <glyph glyph-name="uni021B" unicode="&#x21b;" horiz-adv-x="416" 
d="M371 427h-131v-236c0 -64 31 -89 92 -89c12 0 25 1 38 4v-101c-19 -7 -41 -11 -64 -11c-117 0 -185 62 -185 178v255h-98v107h98v165h119v-165h131v-107zM206 -326l-42 38c35 25 60 57 77 94c-6 -3 -14 -4 -23 -4c-33 0 -60 27 -60 63c0 39 29 68 69 68s73 -37 73 -89v-3
c0 -63 -37 -127 -94 -167z" />
    <glyph glyph-name="uni0237" unicode="&#x237;" horiz-adv-x="286" 
d="M87 534h120v-597c0 -135 -65 -202 -194 -202c-19 0 -37 3 -54 8v104c9 -3 19 -4 30 -4c71 0 98 27 98 107v584z" />
    <glyph glyph-name="circumflex" unicode="&#x2c6;" horiz-adv-x="415" 
d="M159 797h93l143 -172h-113l-74 92l-69 -92h-119z" />
    <glyph glyph-name="breve" unicode="&#x2d8;" horiz-adv-x="404" 
d="M202 623c-97 0 -173 61 -182 170h101c4 -55 33 -85 81 -85s78 30 82 85h100c-9 -105 -79 -170 -182 -170z" />
    <glyph glyph-name="dotaccent" unicode="&#x2d9;" horiz-adv-x="198" 
d="M99 621c-68 -5 -106 90 -56 135c45 51 139 11 135 -56c0 -44 -36 -79 -79 -79z" />
    <glyph glyph-name="tilde" unicode="&#x2dc;" horiz-adv-x="400" 
d="M128 693c-25 0 -38 -22 -39 -66h-81c-5 96 40 155 120 155s97 -69 143 -69c25 0 38 22 39 66h82c4 -96 -41 -155 -121 -155c-79 0 -98 69 -143 69z" />
    <glyph glyph-name="hungarumlaut" unicode="&#x2dd;" horiz-adv-x="476" 
d="M118 625h-98l98 172h141zM316 625h-99l98 172h141z" />
    <glyph glyph-name="gravecomb" unicode="&#x300;" horiz-adv-x="0" 
d="M-124 797h145l103 -172h-103z" />
    <glyph glyph-name="acutecomb" unicode="&#x301;" horiz-adv-x="0" 
d="M-21 625h-103l103 172h145z" />
    <glyph glyph-name="uni0302" unicode="&#x302;" horiz-adv-x="0" 
d="M-49 797h93l143 -172h-113l-74 92l-69 -92h-119z" />
    <glyph glyph-name="tildecomb" unicode="&#x303;" horiz-adv-x="0" 
d="M-72 693c-25 0 -38 -22 -39 -66h-81c-5 96 40 155 120 155s97 -69 143 -69c25 0 38 22 39 66h82c4 -96 -41 -155 -121 -155c-79 0 -98 69 -143 69z" />
    <glyph glyph-name="uni0304" unicode="&#x304;" horiz-adv-x="0" 
d="M-173 730h346v-95h-346v95z" />
    <glyph glyph-name="uni0306" unicode="&#x306;" horiz-adv-x="0" 
d="M0 623c-97 0 -173 61 -182 170h101c4 -55 33 -85 81 -85s78 30 82 85h100c-9 -105 -79 -170 -182 -170z" />
    <glyph glyph-name="uni0307" unicode="&#x307;" horiz-adv-x="0" 
d="M0 621c-68 -5 -106 90 -56 135c45 51 139 11 135 -56c0 -44 -36 -79 -79 -79z" />
    <glyph glyph-name="uni0308" unicode="&#x308;" horiz-adv-x="0" 
d="M-111 771c41 0 75 -35 75 -75c4 -64 -85 -101 -128 -53c-48 43 -13 132 53 128zM36 696c0 41 32 75 75 75c41 0 75 -35 75 -75c0 -41 -34 -75 -75 -75s-75 32 -75 75z" />
    <glyph glyph-name="uni030A" unicode="&#x30a;" horiz-adv-x="0" 
d="M-146 742c0 38 15 70 44 97s63 41 102 41c40 0 74 -14 103 -41s43 -59 43 -97c0 -39 -14 -72 -43 -99s-63 -40 -103 -40s-74 13 -103 40s-43 60 -43 99zM0 806c-62 0 -91 -69 -49 -111c40 -42 121 -9 117 47c0 33 -32 64 -68 64z" />
    <glyph glyph-name="uni030B" unicode="&#x30b;" horiz-adv-x="0" 
d="M-120 625h-98l98 172h141zM78 625h-99l98 172h141z" />
    <glyph glyph-name="uni030C" unicode="&#x30c;" horiz-adv-x="0" 
d="M-69 797l69 -92l74 92h113l-143 -172h-93l-139 172h119z" />
    <glyph glyph-name="uni0312" unicode="&#x312;" horiz-adv-x="0" 
d="M22 875l42 -38c-34 -23 -60 -55 -77 -94c8 3 16 5 23 5c33 0 60 -28 60 -64c0 -39 -29 -68 -70 -68c-40 0 -72 36 -72 89v4c0 63 37 125 94 166z" />
    <glyph glyph-name="uni0326" unicode="&#x326;" horiz-adv-x="0" 
d="M-22 -326l-42 38c35 25 60 57 77 94c-6 -3 -14 -4 -23 -4c-33 0 -60 27 -60 63c0 39 29 68 69 68s73 -37 73 -89v-3c0 -63 -37 -127 -94 -167z" />
    <glyph glyph-name="uni0327" unicode="&#x327;" horiz-adv-x="0" 
d="M22 0h82c17 -25 26 -53 26 -86c0 -50 -18 -89 -54 -116c-35 -28 -79 -42 -130 -42c-31 0 -57 4 -76 12v80c18 -5 40 -8 66 -8c63 0 105 31 105 92c0 24 -6 47 -19 68z" />
    <glyph glyph-name="uni0328" unicode="&#x328;" horiz-adv-x="0" 
d="M0 0h93c-55 -42 -83 -77 -83 -106c0 -36 26 -54 77 -54h2v-82c-16 -1 -28 -2 -37 -2c-83 0 -145 40 -145 109c0 41 31 86 93 135z" />
    <glyph glyph-name="Theta" unicode="&#x398;" horiz-adv-x="900" 
d="M48 390c0 113 39 209 118 287s174 117 285 117c112 0 207 -38 284 -115c78 -77 117 -172 117 -286s-39 -210 -118 -287s-174 -115 -286 -115s-207 38 -284 113c-77 76 -116 171 -116 286zM450 105c76 0 140 28 193 84s80 124 80 204s-27 148 -80 203
c-53 56 -117 84 -193 84c-77 0 -142 -28 -195 -84c-53 -55 -79 -123 -79 -203s26 -148 79 -204s118 -84 195 -84zM242 454h416v-111h-416v111z" />
    <glyph glyph-name="uni03A9" unicode="&#x3a9;" horiz-adv-x="875" 
d="M187 431c0 -61 18 -114 55 -159c37 -44 87 -72 148 -85v-187h-328v106h217v24c-65 27 -119 68 -160 123s-61 116 -61 184c0 103 37 189 112 256s164 101 268 101c105 0 194 -34 268 -101s111 -152 111 -255c0 -68 -21 -130 -62 -185s-94 -96 -159 -123v-24h216v-106h-327
v187c61 13 110 41 147 85c37 45 56 98 56 159c0 71 -24 130 -72 177c-48 48 -108 72 -179 72s-130 -24 -178 -72c-48 -47 -72 -106 -72 -177z" />
    <glyph glyph-name="theta" unicode="&#x3b8;" horiz-adv-x="726" 
d="M362 -9c-192 -2 -318 192 -314 412c0 115 29 212 87 293s134 121 229 121s171 -40 228 -120s86 -177 86 -292s-29 -212 -87 -293s-134 -121 -229 -121zM171 458h385c-7 71 -27 131 -60 179s-78 72 -134 72s-100 -24 -133 -72c-33 -47 -52 -107 -58 -179zM557 354h-387
c6 -72 26 -133 59 -182s78 -73 135 -73s102 25 135 74s53 110 58 181z" />
    <glyph glyph-name="pi" unicode="&#x3c0;" horiz-adv-x="710" 
d="M660 428h-116v-256c0 -32 6 -69 66 -69c13 0 30 2 50 5v-101c-26 -8 -55 -12 -86 -12c-104 0 -149 64 -149 155v278h-170v-428h-118v428h-116v106h639v-106z" />
    <glyph glyph-name="uni0401" unicode="&#x401;" horiz-adv-x="663" 
d="M237 1000c41 0 75 -35 75 -76s-34 -75 -75 -75s-74 34 -74 75s31 76 74 76zM395 924c0 41 31 76 74 76c64 3 101 -87 53 -129c-43 -48 -131 -13 -127 53zM601 672h-378v-218h344v-111h-344v-231h382v-112h-505v783h501v-111z" />
    <glyph glyph-name="uni0402" unicode="&#x402;" horiz-adv-x="842" 
d="M551 -12c-30 0 -60 4 -90 12v118c20 -7 41 -10 62 -10c96 0 163 45 163 145c0 88 -60 138 -163 138c-79 0 -145 -25 -199 -74v-317h-123v670h-180v113h623v-113h-320v-232c72 49 148 74 227 74s142 -23 189 -70c48 -46 72 -109 72 -188c0 -171 -101 -266 -261 -266z" />
    <glyph glyph-name="uni0403" unicode="&#x403;" horiz-adv-x="591" 
d="M370 854h-103l103 172h145zM571 783v-114h-348v-669h-123v783h471z" />
    <glyph glyph-name="uni0404" unicode="&#x404;" horiz-adv-x="834" 
d="M442 -9c-100 0 -196 38 -271 103c-75 67 -123 172 -123 295c0 116 39 212 118 289s172 116 281 116c99 0 186 -31 242 -79c56 -47 94 -100 111 -155l-110 -51c-39 101 -122 171 -245 171c-63 0 -119 -21 -169 -63c-50 -41 -81 -96 -93 -164h342v-109h-344
c10 -71 40 -129 91 -173s108 -66 173 -66c54 0 104 16 149 47c46 32 79 74 99 125l111 -51c-19 -53 -57 -107 -116 -155s-149 -80 -246 -80z" />
    <glyph glyph-name="uni0405" unicode="&#x405;" horiz-adv-x="641" 
d="M327 -9c-137 0 -244 68 -288 188l104 54c33 -84 101 -130 186 -130c80 0 137 42 137 107c0 57 -45 90 -157 125c-85 27 -146 57 -184 91c-40 35 -60 83 -60 143c0 63 25 116 75 159c51 44 112 66 185 66c132 0 220 -69 257 -166l-102 -55c-30 73 -83 110 -158 110
c-76 0 -131 -44 -131 -107c0 -59 49 -91 145 -120c97 -29 164 -62 201 -99c37 -36 56 -83 56 -140c0 -61 -24 -114 -72 -159s-113 -67 -194 -67z" />
    <glyph glyph-name="uni0406" unicode="&#x406;" horiz-adv-x="322" 
d="M100 0v783h123v-783h-123z" />
    <glyph glyph-name="uni0407" unicode="&#x407;" horiz-adv-x="322" 
d="M52 849c-43 0 -75 32 -75 75c0 41 32 76 75 76c41 0 75 -35 75 -76s-34 -75 -75 -75zM344 924c0 -43 -34 -75 -75 -75s-74 34 -74 75s33 76 74 76s75 -35 75 -76zM100 0v783h123v-783h-123z" />
    <glyph glyph-name="uni0408" unicode="&#x408;" horiz-adv-x="591" 
d="M258 -9c-105 0 -188 61 -233 170l102 57c29 -75 72 -112 129 -112c77 0 119 51 119 126v551h124v-551c0 -71 -23 -129 -68 -174s-102 -67 -173 -67z" />
    <glyph glyph-name="uni0409" unicode="&#x409;" horiz-adv-x="1223" 
d="M607 671h-276l-41 -370l-6 -44c-1 -12 -5 -30 -11 -53c-5 -23 -12 -42 -19 -59c-13 -33 -41 -79 -76 -104c-33 -25 -86 -45 -147 -44l-9 1v110c83 0 133 75 149 224l50 451h509v-305h183c136 0 279 -61 279 -234c0 -70 -24 -128 -72 -175c-47 -46 -117 -69 -208 -69h-305
v671zM730 369v-257h178c119 0 162 57 162 133c0 72 -51 124 -164 124h-176z" />
    <glyph glyph-name="uni040A" unicode="&#x40a;" horiz-adv-x="1226" 
d="M732 783v-316h188c133 0 275 -57 275 -229c0 -70 -23 -127 -70 -172c-47 -44 -116 -66 -209 -66h-307v356h-387v-356h-122v783h122v-316h387v316h123zM732 359v-247h184c105 0 157 43 157 129c0 76 -56 118 -160 118h-181z" />
    <glyph glyph-name="uni040B" unicode="&#x40b;" horiz-adv-x="862" 
d="M812 0h-123v224c0 105 -54 164 -161 164c-80 0 -148 -26 -204 -77v-311h-122v670h-181v113h623v-113h-320v-235c73 49 148 73 227 73s142 -21 189 -64c48 -42 72 -101 72 -178v-266z" />
    <glyph glyph-name="uni040C" unicode="&#x40c;" horiz-adv-x="711" 
d="M422 854h-103l103 172h145zM100 783h123v-338l312 338h163l-350 -374l370 -409h-166l-329 370v-370h-123v783z" />
    <glyph glyph-name="uni040E" unicode="&#x40e;" horiz-adv-x="708" 
d="M363 851c-92 0 -169 55 -182 164l81 15c19 -59 44 -91 101 -91c56 0 82 34 101 91l80 -15c-15 -109 -86 -164 -181 -164zM4 783h137l234 -436l208 436h133l-308 -624c-57 -119 -128 -168 -225 -168c-63 0 -118 17 -166 51l66 98c33 -24 64 -36 95 -36c36 0 65 14 87 41
c14 17 29 43 46 78z" />
    <glyph glyph-name="uni040F" unicode="&#x40f;" horiz-adv-x="827" 
d="M352 -165v165h-252v783h123v-671h381v671h124v-783h-253v-165h-123z" />
    <glyph glyph-name="uni0410" unicode="&#x410;" horiz-adv-x="783" 
d="M0 0l319 783h145l317 -783h-128l-71 184h-384l-72 -184h-126zM390 665l-148 -372h297z" />
    <glyph glyph-name="uni0411" unicode="&#x411;" horiz-adv-x="727" 
d="M223 671v-203h183c137 0 280 -57 280 -230c0 -70 -24 -127 -71 -172c-47 -44 -118 -66 -213 -66h-302v783h537v-112h-414zM223 359v-247h167c120 0 173 42 173 129c0 79 -54 118 -163 118h-177z" />
    <glyph glyph-name="uni0412" unicode="&#x412;" horiz-adv-x="734" 
d="M100 0v783h299c76 0 137 -18 183 -55s69 -87 69 -151c0 -17 -3 -35 -8 -54c-11 -36 -48 -90 -105 -115c54 -17 92 -44 115 -79s34 -72 34 -110c0 -132 -97 -219 -278 -219h-309zM222 672v-220h154c101 0 152 47 152 112s-45 108 -145 108h-161zM222 344v-233h189
c99 0 153 47 153 118c0 68 -53 115 -161 115h-181z" />
    <glyph glyph-name="uni0413" unicode="&#x413;" horiz-adv-x="591" 
d="M571 783v-114h-348v-669h-123v783h471z" />
    <glyph glyph-name="uni0414" unicode="&#x414;" horiz-adv-x="824" 
d="M654 -165v165h-516v-165h-123v276h4c55 0 100 43 124 102c25 60 38 109 43 156l49 414h459v-672h83v-276h-123zM571 673h-226l-37 -311c-6 -47 -18 -94 -36 -141c-17 -46 -41 -82 -70 -109h369v561z" />
    <glyph glyph-name="uni0415" unicode="&#x415;" horiz-adv-x="663" 
d="M601 672h-378v-218h344v-111h-344v-231h382v-112h-505v783h501v-111z" />
    <glyph glyph-name="uni0416" unicode="&#x416;" horiz-adv-x="1056" 
d="M891 783h154l-315 -383l325 -400h-157l-303 380h-6v-380h-123v380h-5l-304 -380h-156l324 400l-315 383h155l297 -367h4v367h123v-367h5z" />
    <glyph glyph-name="uni0417" unicode="&#x417;" horiz-adv-x="644" 
d="M591 220c0 -65 -27 -119 -80 -163s-119 -66 -200 -66c-137 0 -229 59 -276 177l106 52c35 -78 92 -117 172 -117c43 0 79 12 108 35c29 24 43 52 43 84c0 33 -14 62 -42 85c-27 24 -63 36 -107 36h-104v111h97c41 0 75 11 101 34c27 23 40 51 40 83
c0 65 -50 111 -141 111c-71 0 -123 -38 -155 -114l-107 49c36 104 129 177 264 177c81 0 146 -20 193 -61c47 -40 71 -90 71 -149c0 -81 -39 -141 -118 -179v-1c90 -35 135 -96 135 -184z" />
    <glyph glyph-name="uni0418" unicode="&#x418;" horiz-adv-x="848" 
d="M232 0h-132v783h121v-587l382 587h145v-783h-122v608z" />
    <glyph glyph-name="uni0419" unicode="&#x419;" horiz-adv-x="848" 
d="M425 851c-93 0 -169 55 -182 164l81 15c19 -59 44 -91 101 -91c56 0 82 34 101 91l80 -15c-15 -109 -86 -164 -181 -164zM232 0h-132v783h121v-587l382 587h145v-783h-122v608z" />
    <glyph glyph-name="uni041A" unicode="&#x41a;" horiz-adv-x="711" 
d="M100 783h123v-338l312 338h163l-350 -374l370 -409h-166l-329 370v-370h-123v783z" />
    <glyph glyph-name="uni041B" unicode="&#x41b;" horiz-adv-x="835" 
d="M613 671h-282l-41 -370c-9 -85 -27 -148 -64 -209c-36 -60 -102 -95 -190 -95c-6 0 -11 0 -14 1v110c44 0 79 24 99 53c10 15 19 33 26 55c15 44 19 73 24 116l50 451h515v-783h-123v671z" />
    <glyph glyph-name="uni041C" unicode="&#x41c;" horiz-adv-x="1045" 
d="M823 0v571h-2l-254 -571h-91l-253 568h-2v-568h-121v783h157l265 -599h1l261 599h161v-783h-122z" />
    <glyph glyph-name="uni041D" unicode="&#x41d;" horiz-adv-x="833" 
d="M100 0v783h123v-328h387v328h123v-783h-123v338h-387v-338h-123z" />
    <glyph glyph-name="uni041E" unicode="&#x41e;" horiz-adv-x="900" 
d="M48 390c0 113 39 209 118 287s174 117 285 117c112 0 207 -38 284 -115c78 -77 117 -172 117 -286s-39 -210 -118 -287s-174 -115 -286 -115s-207 38 -284 113c-77 76 -116 171 -116 286zM450 105c76 0 140 28 193 84s80 124 80 204s-27 148 -80 203
c-53 56 -117 84 -193 84c-77 0 -141 -28 -194 -84c-53 -55 -79 -123 -79 -203s26 -148 79 -204s117 -84 194 -84z" />
    <glyph glyph-name="uni041F" unicode="&#x41f;" horiz-adv-x="824" 
d="M100 0v783h625v-783h-123v671h-379v-671h-123z" />
    <glyph glyph-name="uni0420" unicode="&#x420;" horiz-adv-x="682" 
d="M651 540c0 -71 -26 -131 -77 -179c-51 -47 -121 -71 -212 -71h-139v-290h-123v783h277c91 0 160 -24 205 -71c46 -47 69 -105 69 -172zM366 669h-143v-266h143c109 0 160 62 160 134c0 36 -12 67 -37 93c-24 26 -65 39 -123 39z" />
    <glyph glyph-name="uni0421" unicode="&#x421;" horiz-adv-x="834" 
d="M442 -9c-100 0 -196 38 -271 103c-75 67 -123 172 -123 295c0 116 39 212 118 289s172 116 281 116c99 0 186 -31 242 -79c56 -47 94 -100 111 -156l-111 -51c-39 101 -121 171 -244 171c-71 0 -134 -27 -187 -80s-80 -121 -80 -206c0 -84 26 -153 79 -207
c53 -53 116 -80 188 -80c54 0 104 16 149 47c46 32 79 74 98 125l112 -51c-19 -55 -57 -108 -116 -156s-147 -80 -246 -80z" />
    <glyph glyph-name="uni0422" unicode="&#x422;" horiz-adv-x="659" 
d="M19 669v114h621v-114h-249v-669h-123v669h-249z" />
    <glyph glyph-name="uni0423" unicode="&#x423;" horiz-adv-x="708" 
d="M4 783h137l234 -436l208 436h133l-308 -624c-57 -119 -128 -168 -225 -168c-63 0 -118 17 -166 51l66 98c33 -24 64 -36 95 -36c36 0 65 14 87 41c14 17 29 43 46 78z" />
    <glyph glyph-name="uni0424" unicode="&#x424;" horiz-adv-x="971" 
d="M424 808h123v-73c111 0 202 -30 274 -90c72 -59 108 -141 108 -246c0 -102 -35 -184 -106 -245s-163 -92 -276 -92v-86h-123v86c-113 0 -205 31 -276 93s-106 144 -106 246c0 103 36 185 108 244c72 60 163 90 274 90v73zM168 399c0 -65 21 -118 63 -161s106 -64 193 -64
v449c-84 0 -148 -22 -191 -65s-65 -96 -65 -159zM803 399c0 63 -22 116 -65 159s-107 65 -191 65v-449c87 0 151 21 193 64s63 96 63 161z" />
    <glyph glyph-name="uni0425" unicode="&#x425;" horiz-adv-x="732" 
d="M2 0l291 403l-274 380h148l200 -285l201 285h145l-272 -379l288 -404h-146l-218 308l-219 -308h-144z" />
    <glyph glyph-name="uni0426" unicode="&#x426;" horiz-adv-x="856" 
d="M100 0v783h123v-671h381v671h124v-671h82v-277h-123v165h-587z" />
    <glyph glyph-name="uni0427" unicode="&#x427;" horiz-adv-x="761" 
d="M661 0h-123v320c-89 -45 -164 -67 -225 -67c-165 0 -257 92 -257 251v279h123v-245c0 -109 44 -169 159 -169c72 0 152 33 200 66v348h123v-783z" />
    <glyph glyph-name="uni0428" unicode="&#x428;" horiz-adv-x="1217" 
d="M547 112v671h123v-671h325v671h123v-783h-1018v783h122v-671h325z" />
    <glyph glyph-name="uni0429" unicode="&#x429;" horiz-adv-x="1248" 
d="M547 113v670h123v-670h325v670h124v-670h82v-278h-123v165h-978v783h122v-670h325z" />
    <glyph glyph-name="uni042A" unicode="&#x42a;" horiz-adv-x="811" 
d="M316 783v-305h184c136 0 279 -61 279 -234c0 -70 -24 -128 -72 -175c-47 -46 -117 -69 -209 -69h-304v671h-176v112h298zM316 369v-257h179c119 0 162 57 162 133c0 72 -50 124 -163 124h-178z" />
    <glyph glyph-name="uni042B" unicode="&#x42b;" horiz-adv-x="1007" 
d="M685 244c0 -70 -24 -128 -72 -175c-47 -46 -117 -69 -209 -69h-304v783h122v-305h183c72 0 135 -16 190 -52c56 -35 90 -99 90 -182zM778 0v783h130v-783h-130zM563 245c0 72 -51 124 -164 124h-177v-257h178c119 0 163 57 163 133z" />
    <glyph glyph-name="uni042C" unicode="&#x42c;" horiz-adv-x="716" 
d="M685 244c0 -70 -24 -128 -72 -175c-47 -46 -117 -69 -209 -69h-304v783h122v-305h183c72 0 135 -16 190 -52c56 -35 90 -99 90 -182zM563 245c0 72 -51 124 -164 124h-177v-257h178c119 0 163 57 163 133z" />
    <glyph glyph-name="uni042D" unicode="&#x42d;" horiz-adv-x="834" 
d="M394 794c103 0 199 -37 272 -104c73 -65 120 -171 120 -294c0 -116 -39 -213 -117 -290s-171 -115 -280 -115c-205 -1 -322 131 -355 235l112 52c37 -101 122 -171 245 -171c64 0 121 22 171 65s80 101 90 172h-343v109h341c-12 69 -42 123 -91 164
c-48 41 -104 61 -168 61c-54 0 -104 -16 -149 -47s-78 -73 -99 -125l-113 52c25 65 68 120 131 166c63 47 141 70 233 70z" />
    <glyph glyph-name="uni042E" unicode="&#x42e;" horiz-adv-x="1160" 
d="M223 783v-333h116c13 100 56 182 127 247c72 65 158 97 259 97c111 0 203 -38 276 -115c73 -76 110 -171 110 -286s-37 -211 -112 -288c-74 -76 -166 -114 -277 -114c-101 0 -188 32 -259 96c-71 65 -112 148 -124 249h-116v-336h-123v783h123zM466 393
c0 -78 24 -146 72 -203c49 -57 110 -85 185 -85c76 0 138 28 186 83c49 56 73 124 73 205c0 79 -25 147 -74 203s-111 84 -185 84c-75 0 -136 -28 -185 -84c-48 -56 -72 -124 -72 -203z" />
    <glyph glyph-name="uni042F" unicode="&#x42f;" horiz-adv-x="719" 
d="M175 0h-135l173 322c-101 36 -154 118 -154 222c0 67 22 124 65 170s110 69 201 69h295v-783h-123v297h-164zM497 408v261h-158c-103 0 -155 -44 -155 -132c0 -69 47 -129 155 -129h158z" />
    <glyph glyph-name="uni0430" unicode="&#x430;" horiz-adv-x="575" 
d="M385 362c0 44 -38 80 -105 80c-61 0 -106 -28 -133 -85l-91 52c42 91 118 136 227 136c100 0 167 -36 200 -109c12 -27 18 -59 18 -96v-340h-117v73c-33 -55 -85 -82 -157 -82c-52 0 -95 15 -129 44s-51 67 -51 113v6c0 124 128 163 222 163h66c33 0 50 15 50 45z
M384 216v17h-115c-25 0 -49 -7 -71 -20c-21 -13 -32 -31 -32 -54c0 -44 34 -73 85 -73c81 0 133 50 133 130z" />
    <glyph glyph-name="uni0431" unicode="&#x431;" horiz-adv-x="663" 
d="M565 805l21 -100l-188 -41c-93 -20 -155 -49 -188 -92c-32 -43 -43 -81 -48 -144l4 -1c17 29 43 54 80 77s77 34 120 34c68 0 127 -25 177 -76c51 -51 76 -114 76 -190c0 -84 -26 -152 -78 -204c-52 -51 -118 -77 -199 -77c-84 0 -152 27 -203 81s-77 134 -77 240
c0 32 1 60 2 84c3 48 13 115 30 159s49 96 92 129c44 35 110 65 191 82zM184 270c0 -51 15 -92 45 -124c31 -31 68 -47 113 -47s83 16 112 47c30 32 45 73 45 124s-16 92 -47 122s-68 45 -110 45s-79 -16 -111 -47c-31 -31 -47 -71 -47 -120z" />
    <glyph glyph-name="uni0432" unicode="&#x432;" horiz-adv-x="609" 
d="M80 0v534h283c104 0 178 -49 178 -134c0 -55 -29 -96 -86 -121c29 -5 55 -20 76 -45s32 -54 32 -89c0 -49 -19 -86 -57 -110c-38 -23 -84 -35 -138 -35h-288zM197 438v-123h140c110 -2 104 131 3 123h-143zM197 229v-131h154c55 0 90 24 90 68c0 41 -40 63 -95 63h-149z
" />
    <glyph glyph-name="uni0433" unicode="&#x433;" horiz-adv-x="475" 
d="M455 534v-107h-256v-427h-119v534h375z" />
    <glyph glyph-name="uni0434" unicode="&#x434;" horiz-adv-x="694" 
d="M27 -165v270h2c25 0 47 11 66 32c39 43 50 93 57 146l31 251h397v-427h68v-272h-117v165h-387v-165h-117zM460 427h-171l-20 -155c-10 -76 -36 -131 -79 -165h270v320z" />
    <glyph glyph-name="uni0435" unicode="&#x435;" horiz-adv-x="615" 
d="M571 232h-405c1 -40 17 -73 48 -100c31 -26 67 -39 108 -39c67 0 115 28 144 83l86 -57c-45 -83 -132 -129 -228 -129c-79 0 -146 26 -200 79c-53 53 -80 120 -80 199c0 77 26 142 77 196s115 81 192 81c81 0 145 -25 191 -76s69 -117 69 -200c0 -16 -1 -28 -2 -37z
M313 443c-73 0 -130 -48 -141 -121h280c-4 75 -63 121 -139 121z" />
    <glyph glyph-name="uni0436" unicode="&#x436;" horiz-adv-x="871" 
d="M702 534h152l-220 -260l226 -274h-152l-208 259h-5v-259h-119v259h-5l-207 -259h-153l226 274l-220 260h152l201 -246h6v246h119v-246h6z" />
    <glyph glyph-name="uni0437" unicode="&#x437;" horiz-adv-x="513" 
d="M257 -11c-104 0 -187 47 -227 136l95 51c25 -55 68 -83 129 -83c53 0 90 29 90 66c0 44 -30 66 -89 66h-69v90h68c52 0 81 25 81 65c0 35 -31 62 -83 62c-57 0 -98 -28 -125 -85l-93 50c41 89 123 138 223 138c121 0 198 -62 198 -153c0 -49 -29 -92 -81 -113v-1
c61 -24 91 -66 91 -126c0 -101 -83 -163 -208 -163z" />
    <glyph glyph-name="uni0438" unicode="&#x438;" horiz-adv-x="644" 
d="M80 0v534h116v-357l253 357h115v-534h-116v356l-253 -356h-115z" />
    <glyph glyph-name="uni0439" unicode="&#x439;" horiz-adv-x="644" 
d="M141 786l80 15c19 -59 45 -91 102 -91c56 0 82 34 101 91l79 -15c-15 -109 -87 -164 -180 -164s-170 55 -182 164zM80 0v534h116v-357l253 357h115v-534h-116v356l-253 -356h-115z" />
    <glyph glyph-name="uni043A" unicode="&#x43a;" horiz-adv-x="586" 
d="M80 534h119v-225h5l212 225h158l-244 -256l261 -278h-161l-226 247h-5v-247h-119v534z" />
    <glyph glyph-name="uni043B" unicode="&#x43b;" horiz-adv-x="654" 
d="M455 427h-181l-26 -217c-8 -59 -20 -101 -51 -146c-31 -44 -87 -69 -166 -69h-3v107c59 0 93 41 103 124l37 308h407v-534h-120v427z" />
    <glyph glyph-name="uni043C" unicode="&#x43c;" horiz-adv-x="810" 
d="M80 534h168l158 -383l155 383h169v-534h-117v401l-163 -401h-88l-166 399v-399h-116v534z" />
    <glyph glyph-name="uni043D" unicode="&#x43d;" horiz-adv-x="640" 
d="M80 0v534h119v-212h242v212h119v-534h-119v218h-242v-218h-119z" />
    <glyph glyph-name="uni043E" unicode="&#x43e;" horiz-adv-x="650" 
d="M326 545c77 0 143 -26 198 -79s82 -118 82 -196c0 -79 -27 -145 -82 -199c-54 -53 -120 -80 -199 -80c-78 0 -145 27 -200 80s-82 119 -82 197s28 144 83 197s122 80 200 80zM209 388c-29 -32 -44 -71 -44 -118s15 -87 45 -121c30 -33 69 -50 116 -50s86 16 115 49
s44 73 44 120s-15 87 -45 120c-29 33 -68 49 -115 49s-86 -16 -116 -49z" />
    <glyph glyph-name="uni043F" unicode="&#x43f;" horiz-adv-x="636" 
d="M80 0v534h476v-534h-119v427h-238v-427h-119z" />
    <glyph glyph-name="uni0440" unicode="&#x440;" horiz-adv-x="681" 
d="M637 269c0 -75 -25 -140 -75 -195s-113 -82 -190 -82c-27 0 -58 7 -93 21c-35 15 -61 36 -80 65v-341h-119v797h116v-83c20 33 47 56 82 71s67 22 97 22c78 0 141 -28 189 -84c49 -56 73 -120 73 -191zM241 388c-29 -33 -44 -73 -44 -120s15 -87 44 -120
c30 -32 69 -48 116 -48s86 16 115 48c30 33 45 73 45 120s-15 87 -45 120c-29 33 -68 49 -115 49s-86 -16 -116 -49z" />
    <glyph glyph-name="uni0441" unicode="&#x441;" horiz-adv-x="601" 
d="M322 -9c-79 0 -145 26 -198 79s-80 119 -80 198c0 75 27 140 80 195s119 82 198 82c120 0 208 -65 240 -160l-102 -46c-23 65 -69 98 -137 98c-44 0 -81 -16 -112 -47c-30 -31 -45 -71 -45 -120c0 -50 15 -91 45 -123s68 -48 113 -48c67 0 113 33 138 99l104 -46
c-15 -43 -44 -81 -85 -113s-94 -48 -159 -48z" />
    <glyph glyph-name="uni0442" unicode="&#x442;" horiz-adv-x="509" 
d="M21 427v107h467v-107h-174v-427h-120v427h-173z" />
    <glyph glyph-name="uni0443" unicode="&#x443;" horiz-adv-x="612" 
d="M152 534l166 -350l154 350h129l-367 -797h-127l147 323l-238 474h136z" />
    <glyph glyph-name="uni0444" unicode="&#x444;" horiz-adv-x="887" 
d="M503 -244h-119v285c-35 -31 -75 -46 -121 -46c-71 0 -124 26 -161 78s-55 117 -55 195c0 77 19 142 56 194c38 53 92 79 161 79c47 0 97 -24 120 -49v291h119v-291c23 25 73 49 120 49c69 0 123 -26 160 -79c37 -52 56 -117 56 -195c0 -77 -18 -142 -55 -194
c-36 -52 -89 -78 -160 -78c-46 0 -86 15 -121 46v-285zM297 437c-84 0 -129 -68 -129 -172c0 -107 42 -168 129 -168c31 0 60 12 87 35v268c-27 25 -56 37 -87 37zM591 437c-32 0 -61 -12 -88 -37v-268c27 -23 56 -35 87 -35c86 0 129 57 129 170c0 101 -44 170 -128 170z
" />
    <glyph glyph-name="uni0445" unicode="&#x445;" horiz-adv-x="570" 
d="M14 0l203 270l-196 264h137l128 -177l129 177h134l-195 -262l202 -272h-137l-135 186l-134 -186h-136z" />
    <glyph glyph-name="uni0446" unicode="&#x446;" horiz-adv-x="670" 
d="M80 0v534h119v-427h238v427h119v-427h68v-271h-117v164h-427z" />
    <glyph glyph-name="uni0447" unicode="&#x447;" horiz-adv-x="590" 
d="M511 0h-120v193c-58 -27 -109 -41 -154 -41c-113 0 -191 60 -191 176v206h120v-187c0 -55 35 -88 91 -88c46 0 91 13 134 38v237h120v-534z" />
    <glyph glyph-name="uni0448" unicode="&#x448;" horiz-adv-x="927" 
d="M404 107v427h118v-427h206v427h120v-534h-768v534h119v-427h205z" />
    <glyph glyph-name="uni0449" unicode="&#x449;" horiz-adv-x="961" 
d="M404 107v427h118v-427h206v427h119v-427h69v-272h-113v165h-723v534h119v-427h205z" />
    <glyph glyph-name="uni044A" unicode="&#x44a;" horiz-adv-x="684" 
d="M654 184c0 -111 -75 -184 -210 -184h-268v428h-155v106h274v-176h141c131 0 218 -58 218 -174zM534 185c0 53 -43 80 -107 80h-132v-165h134c64 0 105 28 105 85z" />
    <glyph glyph-name="uni044B" unicode="&#x44b;" horiz-adv-x="866" 
d="M557 184c0 -111 -74 -184 -209 -184h-268v534h119v-176h140c131 0 218 -58 218 -174zM667 0v534h119v-534h-119zM437 185c0 53 -43 80 -107 80h-131v-165h133c70 0 105 28 105 85z" />
    <glyph glyph-name="uni044C" unicode="&#x44c;" horiz-adv-x="587" 
d="M557 184c0 -111 -74 -184 -209 -184h-268v534h119v-176h140c131 0 218 -58 218 -174zM437 185c0 53 -43 80 -107 80h-131v-165h133c70 0 105 28 105 85z" />
    <glyph glyph-name="uni044D" unicode="&#x44d;" horiz-adv-x="601" 
d="M285 545c81 0 146 -26 196 -79c51 -53 76 -118 76 -195c0 -81 -26 -148 -78 -201c-51 -53 -118 -79 -199 -79c-65 0 -118 16 -160 47c-41 32 -70 69 -85 112l102 45c25 -65 73 -98 142 -98c80 0 139 53 154 133h-208v92h205c-17 71 -75 117 -147 117
c-69 0 -117 -32 -144 -97l-100 44c33 93 126 159 246 159z" />
    <glyph glyph-name="uni044E" unicode="&#x44e;" horiz-adv-x="872" 
d="M198 534v-216h91c11 66 42 120 91 163s108 64 177 64c78 0 142 -26 193 -79s77 -119 77 -198s-26 -145 -78 -198c-51 -53 -116 -79 -195 -79c-68 0 -126 21 -175 63c-48 42 -78 97 -89 164h-92v-218h-118v534h118zM406 268c0 -48 14 -88 41 -121c28 -32 65 -48 110 -48
c92 0 149 73 149 169c0 47 -14 87 -42 120c-27 33 -64 49 -109 49c-93 0 -149 -72 -149 -169z" />
    <glyph glyph-name="uni044F" unicode="&#x44f;" horiz-adv-x="614" 
d="M175 0h-142l150 197c-85 27 -128 82 -128 163c0 100 72 174 211 174h268v-534h-119v176h-110zM415 271v163h-136c-53 0 -104 -21 -104 -80c0 -47 34 -83 106 -83h134z" />
    <glyph glyph-name="uni0451" unicode="&#x451;" horiz-adv-x="615" 
d="M200 771c41 0 75 -35 75 -75c4 -64 -85 -101 -128 -53c-48 43 -13 132 53 128zM422 621c-43 0 -75 32 -75 75c0 41 32 75 75 75c41 0 75 -35 75 -75c0 -41 -34 -75 -75 -75zM571 232h-405c1 -40 17 -73 48 -100c31 -26 67 -39 108 -39c67 0 115 28 144 83l86 -57
c-45 -83 -132 -129 -228 -129c-79 0 -146 26 -200 79c-53 53 -80 120 -80 199c0 77 26 142 77 196s115 81 192 81c81 0 145 -25 191 -76s69 -117 69 -200c0 -16 -1 -28 -2 -37zM313 443c-73 0 -130 -48 -141 -121h280c-4 75 -63 121 -139 121z" />
    <glyph glyph-name="uni0452" unicode="&#x452;" horiz-adv-x="619" 
d="M561 329v-363c0 -148 -74 -230 -215 -230c-19 0 -39 3 -60 9v100c10 -3 22 -5 37 -5c85 0 118 33 118 129v330c0 80 -39 133 -118 133c-75 0 -124 -56 -124 -136v-296h-119v628h-71v87h71v99h119v-99h166v-87h-166v-163c42 53 96 80 161 80c131 0 201 -88 201 -216z" />
    <glyph glyph-name="uni0453" unicode="&#x453;" horiz-adv-x="475" 
d="M305 625h-103l103 172h145zM456 534v-107h-257v-427h-119v534h376z" />
    <glyph glyph-name="uni0454" unicode="&#x454;" horiz-adv-x="600" 
d="M464 195l101 -45c-15 -43 -44 -80 -85 -112c-41 -31 -93 -47 -158 -47c-79 0 -145 26 -198 79s-80 119 -80 198c0 75 27 140 80 195s119 82 198 82c120 0 208 -64 240 -159l-100 -44c-25 65 -71 97 -139 97c-72 0 -135 -46 -152 -117h205v-92h-208
c15 -79 77 -133 156 -133c67 0 113 33 140 98z" />
    <glyph glyph-name="uni0455" unicode="&#x455;" horiz-adv-x="502" 
d="M253 -9c-106 0 -180 45 -221 134l93 52c29 -57 71 -86 128 -86c45 0 84 23 84 59c0 31 -37 55 -110 70c-59 12 -104 33 -133 64c-25 27 -38 59 -38 97c0 48 19 87 58 118s84 46 136 46c96 0 163 -40 200 -120l-92 -52c-24 48 -61 72 -112 72c-37 0 -75 -23 -75 -52
c0 -35 30 -53 99 -68c121 -27 185 -85 185 -168c0 -49 -19 -89 -56 -120s-86 -46 -146 -46z" />
    <glyph glyph-name="uni0456" unicode="&#x456;" horiz-adv-x="278" 
d="M84 652c-31 31 -31 79 0 110c31 32 79 32 110 0c31 -31 31 -79 0 -110s-79 -31 -110 0zM199 534v-534h-119v534h119z" />
    <glyph glyph-name="uni0457" unicode="&#x457;" horiz-adv-x="278" 
d="M25 621c-41 0 -74 34 -74 75c0 40 33 75 74 75s76 -35 76 -75c0 -41 -33 -75 -76 -75zM248 621c-43 0 -75 32 -75 75c0 41 32 75 75 75c41 0 74 -35 74 -75c0 -41 -33 -75 -74 -75zM80 0v534h119v-534h-119z" />
    <glyph glyph-name="uni0458" unicode="&#x458;" horiz-adv-x="286" 
d="M146 786c44 0 80 -36 80 -79s-36 -78 -80 -78c-43 0 -78 35 -78 78s35 79 78 79zM87 534h120v-597c0 -135 -65 -202 -194 -202c-19 0 -37 3 -54 8v104c9 -3 19 -4 30 -4c71 0 98 27 98 107v584z" />
    <glyph glyph-name="uni0459" unicode="&#x459;" horiz-adv-x="962" 
d="M933 184c0 -111 -75 -184 -210 -184h-268v427h-182l-26 -217c-7 -59 -19 -100 -50 -145c-31 -44 -87 -70 -166 -70h-3v107c58 0 92 41 102 124l37 308h407v-176h140c131 0 219 -58 219 -174zM813 185c0 53 -43 80 -107 80h-132v-165h134c64 0 105 28 105 85z" />
    <glyph glyph-name="uni045A" unicode="&#x45a;" horiz-adv-x="947" 
d="M199 0h-119v534h119v-185h241v185h119v-185h140c132 0 218 -54 218 -170c0 -109 -73 -179 -209 -179h-268v255h-241v-255zM559 257v-157h133c71 0 106 27 106 82c0 50 -36 75 -108 75h-131z" />
    <glyph glyph-name="uni045B" unicode="&#x45b;" horiz-adv-x="633" 
d="M199 715h166v-87h-166v-162c41 53 95 79 160 79c131 0 200 -88 200 -216v-329h-119v299c0 80 -39 133 -118 133c-75 0 -123 -54 -123 -135v-297h-119v628h-71v87h71v99h119v-99z" />
    <glyph glyph-name="uni045C" unicode="&#x45c;" horiz-adv-x="586" 
d="M348 625h-103l102 172h146zM204 309l212 225h158l-244 -256l261 -278h-161l-226 247h-5v-247h-119v534h119v-225h5z" />
    <glyph glyph-name="uni045E" unicode="&#x45e;" horiz-adv-x="612" 
d="M314 622c-92 0 -169 55 -182 164l80 15c20 -59 45 -91 102 -91c56 0 82 34 101 91l80 -15c-15 -109 -88 -164 -181 -164zM152 534l166 -350l154 350h129l-367 -797h-127l147 323l-238 474h136z" />
    <glyph glyph-name="uni045F" unicode="&#x45f;" horiz-adv-x="636" 
d="M80 0v534h119v-427h238v427h119v-534h-179v-164h-116v164h-181z" />
    <glyph glyph-name="uni0490" unicode="&#x490;" horiz-adv-x="591" 
d="M100 783h349v162h123v-276h-349v-669h-123v783z" />
    <glyph glyph-name="uni0491" unicode="&#x491;" horiz-adv-x="475" 
d="M344 534v159h111v-266h-257v-427h-118v534h264z" />
    <glyph glyph-name="uni0496" unicode="&#x496;" horiz-adv-x="1077" 
d="M932 0h-34l-303 380h-6v-380h-123v380h-5l-304 -380h-156l324 400l-315 383h155l297 -367h4v367h123v-367h5l297 367h154l-315 -383l233 -287h92v-278h-123v165z" />
    <glyph glyph-name="uni0497" unicode="&#x497;" horiz-adv-x="892" 
d="M748 0h-40l-208 259h-5v-259h-119v259h-5l-207 -259h-153l226 274l-220 260h152l201 -246h6v246h119v-246h6l201 246h152l-220 -260l138 -167h89v-272h-113v165z" />
    <glyph glyph-name="uni0498" unicode="&#x498;" horiz-adv-x="644" 
d="M591 220c0 -56 -20 -105 -61 -146s-94 -67 -160 -78v-161h-122v161c-103 17 -174 74 -213 172l106 52c35 -78 92 -117 172 -117c43 0 79 12 108 35c29 24 43 52 43 84c0 33 -14 62 -42 85c-27 24 -63 36 -107 36h-104v111h97c41 0 75 11 101 34c27 23 40 51 40 83
c0 65 -50 111 -141 111c-71 0 -123 -38 -155 -114l-107 49c36 104 129 177 264 177c81 0 146 -20 193 -61c47 -40 71 -90 71 -149c0 -81 -39 -141 -118 -179v-1c90 -35 135 -96 135 -184z" />
    <glyph glyph-name="uni0499" unicode="&#x499;" horiz-adv-x="513" 
d="M465 152c0 -84 -59 -142 -152 -158v-159h-112v159c-82 15 -139 59 -171 131l95 51c25 -55 68 -83 129 -83c53 0 90 29 90 66c0 44 -30 66 -89 66h-69v90h68c52 0 81 25 81 65c0 35 -31 62 -83 62c-57 0 -98 -28 -125 -85l-93 50c41 89 123 138 223 138
c121 0 198 -62 198 -153c0 -49 -29 -92 -81 -113v-1c61 -24 91 -66 91 -126z" />
    <glyph glyph-name="uni049A" unicode="&#x49a;" horiz-adv-x="735" 
d="M596 0h-44l-329 370v-370h-123v783h123v-338l312 338h163l-350 -374l268 -296h103v-278h-123v165z" />
    <glyph glyph-name="uni049B" unicode="&#x49b;" horiz-adv-x="609" 
d="M479 0h-49l-226 247h-5v-247h-119v534h119v-225h5l212 225h158l-244 -256l161 -171h100v-272h-112v165z" />
    <glyph glyph-name="uni04A2" unicode="&#x4a2;" horiz-adv-x="863" 
d="M693 0h-83v338h-387v-338h-123v783h123v-328h387v328h123v-670h83v-278h-123v165z" />
    <glyph glyph-name="uni04A3" unicode="&#x4a3;" horiz-adv-x="674" 
d="M516 0h-75v218h-242v-218h-119v534h119v-212h242v212h119v-427h68v-272h-113z" />
    <glyph glyph-name="uni04AA" unicode="&#x4aa;" horiz-adv-x="834" 
d="M692 278l112 -51c-11 -33 -30 -66 -55 -97s-60 -60 -105 -87c-45 -26 -94 -42 -149 -49v-159h-123v162c-91 16 -168 59 -231 128c-62 70 -93 158 -93 264c0 116 39 212 118 289s172 116 281 116c99 0 186 -31 242 -79c56 -47 94 -100 111 -156l-111 -51
c-39 101 -121 171 -244 171c-71 0 -134 -27 -187 -80s-80 -121 -80 -206c0 -84 26 -153 79 -207c53 -53 116 -80 188 -80c54 0 104 16 149 47c46 32 79 74 98 125z" />
    <glyph glyph-name="uni04AB" unicode="&#x4ab;" horiz-adv-x="601" 
d="M462 198l104 -46c-25 -72 -90 -139 -189 -156v-161h-113v162c-65 13 -118 44 -159 94s-61 109 -61 177c0 75 27 140 80 195s119 82 198 82c120 0 208 -65 240 -160l-102 -46c-23 65 -69 98 -137 98c-44 0 -81 -16 -112 -47c-30 -31 -45 -71 -45 -120
c0 -50 15 -91 45 -123s68 -48 113 -48c67 0 113 33 138 99z" />
    <glyph glyph-name="uni04AC" unicode="&#x4ac;" horiz-adv-x="663" 
d="M350 0h-82v669h-249v114h621v-114h-249v-556h82v-278h-123v165z" />
    <glyph glyph-name="uni04AD" unicode="&#x4ad;" horiz-adv-x="514" 
d="M270 0h-76v427h-173v107h467v-107h-174v-320h68v-272h-112v165z" />
    <glyph glyph-name="uni04B2" unicode="&#x4b2;" horiz-adv-x="752" 
d="M607 0h-24l-218 308l-219 -308h-144l291 403l-274 380h148l200 -285l201 285h145l-272 -379l208 -291h80v-278h-122v165z" />
    <glyph glyph-name="uni04B3" unicode="&#x4b3;" horiz-adv-x="589" 
d="M443 0h-24l-135 186l-134 -186h-136l203 270l-196 264h137l128 -177l129 177h134l-195 -262l122 -165h80v-272h-113v165z" />
    <glyph glyph-name="uni04B6" unicode="&#x4b6;" horiz-adv-x="792" 
d="M622 0h-84v320c-89 -45 -164 -67 -225 -67c-165 0 -257 92 -257 251v279h123v-245c0 -109 44 -169 159 -169c72 0 152 33 200 66v348h125v-671h82v-277h-123v165z" />
    <glyph glyph-name="uni04B7" unicode="&#x4b7;" horiz-adv-x="625" 
d="M466 0h-75v193c-58 -27 -109 -41 -154 -41c-113 0 -191 60 -191 176v206h120v-187c0 -55 35 -88 91 -88c46 0 91 13 134 38v237h120v-427h68v-272h-113v165z" />
    <glyph glyph-name="uni04C0" unicode="&#x4c0;" horiz-adv-x="322" 
d="M100 0v783h123v-783h-123z" />
    <glyph glyph-name="uni04C1" unicode="&#x4c1;" horiz-adv-x="1056" 
d="M527 851c-92 0 -169 55 -182 164l81 15c19 -59 44 -91 101 -91c56 0 82 34 101 91l80 -15c-15 -109 -86 -164 -181 -164zM891 783h154l-315 -383l325 -400h-157l-303 380h-6v-380h-123v380h-5l-304 -380h-156l324 400l-315 383h155l297 -367h4v367h123v-367h5z" />
    <glyph glyph-name="uni04C2" unicode="&#x4c2;" horiz-adv-x="871" 
d="M254 786l81 15c19 -59 45 -91 102 -91c56 0 81 32 101 91l79 -15c-15 -109 -87 -164 -180 -164s-170 55 -183 164zM702 534h152l-220 -260l226 -274h-152l-208 259h-5v-259h-119v259h-5l-207 -259h-153l226 274l-220 260h152l201 -246h6v246h119v-246h6z" />
    <glyph glyph-name="uni04CF" unicode="&#x4cf;" horiz-adv-x="278" 
d="M80 0v534h119v-534h-119z" />
    <glyph glyph-name="uni04D0" unicode="&#x4d0;" horiz-adv-x="783" 
d="M209 1015l81 15c19 -59 45 -91 102 -91c56 0 82 34 101 91l79 -15c-15 -109 -87 -164 -180 -164s-170 55 -183 164zM0 0l319 783h145l317 -783h-128l-71 184h-384l-72 -184h-126zM390 665l-148 -372h297z" />
    <glyph glyph-name="uni04D1" unicode="&#x4d1;" horiz-adv-x="575" 
d="M95 786l80 15c19 -59 45 -91 102 -91c56 0 82 34 101 91l80 -15c-15 -109 -88 -164 -181 -164s-170 55 -182 164zM385 362c0 44 -38 80 -105 80c-61 0 -106 -28 -133 -85l-91 52c42 91 118 136 227 136c100 0 167 -36 200 -109c12 -27 18 -59 18 -96v-340h-117v73
c-33 -55 -85 -82 -157 -82c-52 0 -95 15 -129 44s-51 67 -51 113v6c0 124 128 163 222 163h66c33 0 50 15 50 45zM384 216v17h-115c-25 0 -49 -7 -71 -20c-21 -13 -32 -31 -32 -54c0 -44 34 -73 85 -73c81 0 133 50 133 130z" />
    <glyph glyph-name="uni04D2" unicode="&#x4d2;" horiz-adv-x="783" 
d="M277 1000c41 0 75 -35 75 -76s-34 -75 -75 -75s-74 34 -74 75s31 76 74 76zM435 924c0 41 31 76 74 76c64 3 101 -87 53 -129c-43 -48 -131 -13 -127 53zM0 0l319 783h145l317 -783h-128l-71 184h-384l-72 -184h-126zM390 665l-148 -372h297z" />
    <glyph glyph-name="uni04D3" unicode="&#x4d3;" horiz-adv-x="575" 
d="M171 621c-41 0 -74 34 -74 75c0 40 33 75 74 75s76 -35 76 -75c0 -41 -33 -75 -76 -75zM394 621c-43 0 -75 32 -75 75c0 41 32 75 75 75c41 0 74 -35 74 -75c0 -41 -33 -75 -74 -75zM385 362c0 44 -38 80 -105 80c-61 0 -106 -28 -133 -85l-91 52c42 91 118 136 227 136
c100 0 167 -36 200 -109c12 -27 18 -59 18 -96v-340h-117v73c-33 -55 -85 -82 -157 -82c-52 0 -95 15 -129 44s-51 67 -51 113v6c0 124 128 163 222 163h66c33 0 50 15 50 45zM384 216v17h-115c-25 0 -49 -7 -71 -20c-21 -13 -32 -31 -32 -54c0 -44 34 -73 85 -73
c81 0 133 50 133 130z" />
    <glyph glyph-name="uni04D4" unicode="&#x4d4;" horiz-adv-x="1053" 
d="M414 783h577v-111h-374v-218h340v-111h-340v-231h378v-112h-500v184h-274l-99 -184h-134zM495 673h-11l-204 -380h215v380z" />
    <glyph glyph-name="uni04D5" unicode="&#x4d5;" horiz-adv-x="951" 
d="M389 362c0 45 -38 80 -106 80c-63 0 -109 -28 -136 -85l-91 52c42 91 118 136 227 136c84 0 144 -26 179 -77c49 51 112 77 189 77c81 0 144 -26 189 -77c46 -51 69 -117 69 -199c0 -16 0 -28 -1 -37h-409c1 -40 18 -73 50 -100c32 -26 68 -39 109 -39
c67 0 115 28 144 83l86 -57c-45 -83 -132 -129 -228 -129c-89 0 -160 32 -215 97c-55 -64 -126 -96 -213 -96h-3c-52 0 -95 15 -130 44s-52 67 -52 113v6c0 124 128 163 222 163h76c29 0 44 15 44 45zM505 322h285c-4 75 -61 121 -141 121c-75 0 -133 -48 -144 -121z
M387 216v17h-118c-25 0 -49 -7 -71 -20c-21 -13 -32 -31 -32 -54c0 -44 34 -73 85 -73c83 0 136 49 136 130z" />
    <glyph glyph-name="uni04D6" unicode="&#x4d6;" horiz-adv-x="663" 
d="M168 1015l81 15c19 -59 45 -91 102 -91c56 0 82 34 101 91l79 -15c-15 -109 -87 -164 -180 -164s-170 55 -183 164zM601 672h-378v-218h344v-111h-344v-231h382v-112h-505v783h501v-111z" />
    <glyph glyph-name="uni04D7" unicode="&#x4d7;" horiz-adv-x="615" 
d="M130 786l80 15c20 -59 45 -91 102 -91c56 0 82 34 101 91l80 -15c-15 -109 -88 -164 -181 -164s-169 55 -182 164zM571 232h-405c1 -40 17 -73 48 -100c31 -26 67 -39 108 -39c67 0 115 28 144 83l86 -57c-45 -83 -132 -129 -228 -129c-79 0 -146 26 -200 79
c-53 53 -80 120 -80 199c0 77 26 142 77 196s115 81 192 81c81 0 145 -25 191 -76s69 -117 69 -200c0 -16 -1 -28 -2 -37zM313 443c-73 0 -130 -48 -141 -121h280c-4 75 -63 121 -139 121z" />
    <glyph glyph-name="uni04DC" unicode="&#x4dc;" horiz-adv-x="1056" 
d="M412 999c41 0 75 -34 75 -75s-34 -75 -75 -75s-75 34 -75 75s32 75 75 75zM644 849c-43 0 -75 32 -75 75c0 41 32 75 75 75c41 0 74 -34 74 -75s-33 -75 -74 -75zM891 783h154l-315 -383l325 -400h-157l-303 380h-6v-380h-123v380h-5l-304 -380h-156l324 400l-315 383
h155l297 -367h4v367h123v-367h5z" />
    <glyph glyph-name="uni04DD" unicode="&#x4dd;" horiz-adv-x="871" 
d="M324 621c-41 0 -74 34 -74 75c0 40 33 75 74 75s75 -35 75 -75c0 -43 -32 -75 -75 -75zM546 771c41 0 75 -35 75 -75c4 -64 -85 -101 -128 -53c-45 43 -13 132 53 128zM702 534h152l-220 -260l226 -274h-152l-208 259h-5v-259h-119v259h-5l-207 -259h-153l226 274
l-220 260h152l201 -246h6v246h119v-246h6z" />
    <glyph glyph-name="uni04DE" unicode="&#x4de;" horiz-adv-x="644" 
d="M192 849c-41 0 -74 34 -74 75s33 75 74 75s76 -34 76 -75s-33 -75 -76 -75zM424 999c41 0 75 -34 75 -75s-34 -75 -75 -75s-74 34 -74 75s31 75 74 75zM591 220c0 -65 -27 -119 -80 -163s-119 -66 -200 -66c-137 0 -229 59 -276 177l106 52c35 -78 92 -117 172 -117
c43 0 79 12 108 35c29 24 43 52 43 84c0 33 -14 62 -42 85c-27 24 -63 36 -107 36h-104v111h97c41 0 75 11 101 34c27 23 40 51 40 83c0 65 -50 111 -141 111c-71 0 -123 -38 -155 -114l-107 49c36 104 129 177 264 177c81 0 146 -20 193 -61c47 -40 71 -90 71 -149
c0 -81 -39 -141 -118 -179v-1c90 -35 135 -96 135 -184z" />
    <glyph glyph-name="uni04DF" unicode="&#x4df;" horiz-adv-x="513" 
d="M145 771c41 0 75 -35 75 -75c4 -64 -85 -101 -128 -53c-45 43 -13 132 53 128zM292 696c0 41 32 75 75 75c41 0 75 -35 75 -75c0 -41 -34 -75 -75 -75s-75 32 -75 75zM257 -11c-104 0 -187 47 -227 136l95 51c25 -55 68 -83 129 -83c53 0 90 29 90 66c0 44 -30 66 -89 66
h-69v90h68c52 0 81 25 81 65c0 35 -31 62 -83 62c-57 0 -98 -28 -125 -85l-93 50c41 89 123 138 223 138c121 0 198 -62 198 -153c0 -49 -29 -92 -81 -113v-1c61 -24 91 -66 91 -126c0 -101 -83 -163 -208 -163z" />
    <glyph glyph-name="uni04E2" unicode="&#x4e2;" horiz-adv-x="848" 
d="M251 984h347v-95h-347v95zM232 0h-132v783h121v-587l382 587h145v-783h-122v608z" />
    <glyph glyph-name="uni04E3" unicode="&#x4e3;" horiz-adv-x="644" 
d="M149 730h347v-95h-347v95zM80 0v534h116v-357l253 357h115v-534h-116v356l-253 -356h-115z" />
    <glyph glyph-name="uni04E4" unicode="&#x4e4;" horiz-adv-x="848" 
d="M309 999c41 0 75 -34 75 -75s-34 -75 -75 -75s-75 34 -75 75s32 75 75 75zM540 999c41 0 75 -34 75 -75s-34 -75 -75 -75s-74 34 -74 75s31 75 74 75zM232 0h-132v783h121v-587l382 587h145v-783h-122v608z" />
    <glyph glyph-name="uni04E5" unicode="&#x4e5;" horiz-adv-x="644" 
d="M211 771c41 0 75 -35 75 -75c4 -64 -85 -101 -128 -53c-45 43 -13 132 53 128zM433 771c41 0 75 -35 75 -75c4 -64 -85 -101 -128 -53c-48 43 -13 132 53 128zM80 0v534h116v-357l253 357h115v-534h-116v356l-253 -356h-115z" />
    <glyph glyph-name="uni04E6" unicode="&#x4e6;" horiz-adv-x="900" 
d="M336 849c-43 0 -75 32 -75 75c0 41 32 76 75 76c41 0 75 -35 75 -76s-34 -75 -75 -75zM567 849c-41 0 -74 34 -74 75s33 76 74 76s76 -35 76 -76s-33 -75 -76 -75zM48 390c0 113 39 209 118 287s174 117 285 117c112 0 207 -38 284 -115c78 -77 117 -172 117 -286
s-39 -210 -118 -287s-174 -115 -286 -115s-207 38 -284 113c-77 76 -116 171 -116 286zM450 105c76 0 140 28 193 84s80 124 80 204s-27 148 -80 203c-53 56 -117 84 -193 84c-77 0 -141 -28 -194 -84c-53 -55 -79 -123 -79 -203s26 -148 79 -204s117 -84 194 -84z" />
    <glyph glyph-name="uni04E7" unicode="&#x4e7;" horiz-adv-x="650" 
d="M213 621c-41 0 -74 34 -74 75c0 40 33 75 74 75s76 -35 76 -75c0 -41 -33 -75 -76 -75zM436 621c-43 0 -75 32 -75 75c0 41 32 75 75 75c41 0 74 -35 74 -75c0 -41 -33 -75 -74 -75zM326 545c77 0 143 -26 198 -79s82 -118 82 -196c0 -79 -27 -145 -82 -199
c-54 -53 -120 -80 -199 -80c-78 0 -145 27 -200 80s-82 119 -82 197s28 144 83 197s122 80 200 80zM209 388c-29 -32 -44 -71 -44 -118s15 -87 45 -121c30 -33 69 -50 116 -50s86 16 115 49s44 73 44 120s-15 87 -45 120c-29 33 -68 49 -115 49s-86 -16 -116 -49z" />
    <glyph glyph-name="uni04E8" unicode="&#x4e8;" horiz-adv-x="900" 
d="M48 390c0 113 39 209 118 287s174 117 285 117c112 0 207 -38 284 -115c78 -77 117 -172 117 -286s-39 -210 -118 -287s-174 -115 -286 -115s-207 38 -284 113c-77 76 -116 171 -116 286zM182 452h536c-11 66 -42 120 -93 163s-109 65 -175 65c-67 0 -125 -22 -176 -65
c-50 -43 -81 -98 -92 -163zM720 344h-540c9 -68 39 -125 90 -171c51 -45 111 -68 180 -68c68 0 128 23 179 69s82 103 91 170z" />
    <glyph glyph-name="uni04E9" unicode="&#x4e9;" horiz-adv-x="650" 
d="M606 270c0 -79 -27 -145 -82 -199c-54 -53 -120 -80 -199 -80c-78 0 -145 27 -200 80s-82 119 -82 197s28 144 83 197s122 80 200 80c77 0 143 -26 198 -79s82 -118 82 -196zM167 312h316c-15 75 -77 127 -158 127s-145 -54 -158 -127zM483 224h-315
c13 -72 78 -127 158 -127s145 55 157 127z" />
    <glyph glyph-name="uni04EA" unicode="&#x4ea;" horiz-adv-x="900" 
d="M331 1000c41 0 75 -35 75 -76s-34 -75 -75 -75s-75 34 -75 75s32 76 75 76zM572 849c-64 -4 -99 85 -53 128c43 51 132 11 128 -53c0 -43 -32 -75 -75 -75zM48 390c0 113 39 209 118 287s174 117 285 117c112 0 207 -38 284 -115c78 -77 117 -172 117 -286
s-39 -210 -118 -287s-174 -115 -286 -115s-207 38 -284 113c-77 76 -116 171 -116 286zM718 452c-11 66 -42 120 -93 163s-109 65 -175 65c-67 0 -125 -22 -176 -65c-50 -43 -81 -98 -92 -163h536zM180 344c9 -68 39 -125 90 -171c51 -45 111 -68 180 -68
c68 0 128 23 179 69s82 103 91 170h-540z" />
    <glyph glyph-name="uni04EB" unicode="&#x4eb;" horiz-adv-x="650" 
d="M289 696c0 -41 -33 -75 -76 -75c-41 0 -74 34 -74 75c0 40 33 75 74 75s76 -35 76 -75zM510 696c0 -41 -33 -75 -74 -75c-43 0 -75 32 -75 75c0 41 32 75 75 75c41 0 74 -35 74 -75zM606 270c0 -79 -27 -145 -82 -199c-54 -53 -120 -80 -199 -80c-78 0 -145 27 -200 80
s-82 119 -82 197s28 144 83 197s122 80 200 80c77 0 143 -26 198 -79s82 -118 82 -196zM167 312h316c-15 75 -77 127 -158 127s-145 -54 -158 -127zM483 224h-315c13 -72 78 -127 158 -127s145 55 157 127z" />
    <glyph glyph-name="uni04EC" unicode="&#x4ec;" horiz-adv-x="834" 
d="M294 849c-41 0 -74 34 -74 75s33 75 74 75s76 -34 76 -75s-33 -75 -76 -75zM526 999c41 0 75 -34 75 -75s-34 -75 -75 -75s-74 34 -74 75s31 75 74 75zM394 794c103 0 199 -37 272 -104c73 -65 120 -171 120 -294c0 -116 -39 -213 -117 -290s-171 -115 -280 -115
c-205 -1 -322 131 -355 235l112 52c37 -101 122 -171 245 -171c64 0 121 22 171 65s80 101 90 172h-343v109h341c-12 69 -42 123 -91 164c-48 41 -104 61 -168 61c-54 0 -104 -16 -149 -47s-78 -73 -99 -125l-113 52c25 65 68 120 131 166c63 47 141 70 233 70z" />
    <glyph glyph-name="uni04ED" unicode="&#x4ed;" horiz-adv-x="601" 
d="M165 771c41 0 75 -35 75 -75c4 -64 -85 -101 -128 -53c-45 43 -13 132 53 128zM312 696c0 41 32 75 75 75c41 0 75 -35 75 -75c0 -41 -34 -75 -75 -75s-75 32 -75 75zM285 545c81 0 146 -26 196 -79c51 -53 76 -118 76 -195c0 -81 -26 -148 -78 -201
c-51 -53 -118 -79 -199 -79c-65 0 -118 16 -160 47c-41 32 -70 69 -85 112l102 45c25 -65 73 -98 142 -98c80 0 139 53 154 133h-208v92h205c-17 71 -75 117 -147 117c-69 0 -117 -32 -144 -97l-100 44c33 93 126 159 246 159z" />
    <glyph glyph-name="uni04EE" unicode="&#x4ee;" horiz-adv-x="708" 
d="M188 984h347v-95h-347v95zM4 783h137l234 -436l208 436h133l-308 -624c-57 -119 -128 -168 -225 -168c-63 0 -118 17 -166 51l66 98c33 -24 64 -36 95 -36c36 0 65 14 87 41c14 17 29 43 46 78z" />
    <glyph glyph-name="uni04EF" unicode="&#x4ef;" horiz-adv-x="612" 
d="M136 730h347v-95h-347v95zM152 534l166 -350l154 350h129l-367 -797h-127l147 323l-238 474h136z" />
    <glyph glyph-name="uni04F0" unicode="&#x4f0;" horiz-adv-x="708" 
d="M249 999c41 0 75 -34 75 -75s-34 -75 -75 -75s-75 34 -75 75s32 75 75 75zM480 999c41 0 75 -34 75 -75s-34 -75 -75 -75s-74 34 -74 75s31 75 74 75zM4 783h137l234 -436l208 436h133l-308 -624c-57 -119 -128 -168 -225 -168c-63 0 -118 17 -166 51l66 98
c33 -24 64 -36 95 -36c36 0 65 14 87 41c14 17 29 43 46 78z" />
    <glyph glyph-name="uni04F1" unicode="&#x4f1;" horiz-adv-x="612" 
d="M200 771c41 0 75 -35 75 -75c4 -64 -85 -101 -128 -53c-48 43 -13 132 53 128zM422 621c-43 0 -75 32 -75 75c0 41 32 75 75 75c41 0 75 -35 75 -75c0 -41 -34 -75 -75 -75zM152 534l166 -350l154 350h129l-367 -797h-127l147 323l-238 474h136z" />
    <glyph glyph-name="uni04F2" unicode="&#x4f2;" horiz-adv-x="708" 
d="M312 854h-99l98 172h141zM509 854h-98l97 172h141zM4 783h137l234 -436l208 436h133l-308 -624c-57 -119 -128 -168 -225 -168c-63 0 -118 17 -166 51l66 98c33 -24 64 -36 95 -36c36 0 65 14 87 41c14 17 29 43 46 78z" />
    <glyph glyph-name="uni04F3" unicode="&#x4f3;" horiz-adv-x="612" 
d="M261 625h-98l98 172h140zM458 625h-98l98 172h141zM152 534l166 -350l154 350h129l-367 -797h-127l147 323l-238 474h136z" />
    <glyph glyph-name="uni04F4" unicode="&#x4f4;" horiz-adv-x="761" 
d="M242 849c-64 -4 -99 85 -53 128c43 48 132 11 128 -53c0 -43 -32 -75 -75 -75zM474 999c41 0 75 -34 75 -75s-34 -75 -75 -75s-75 34 -75 75s32 75 75 75zM661 0h-123v320c-89 -45 -164 -67 -225 -67c-165 0 -257 92 -257 251v279h123v-245c0 -109 44 -169 159 -169
c72 0 152 33 200 66v348h123v-783z" />
    <glyph glyph-name="uni04F5" unicode="&#x4f5;" horiz-adv-x="590" 
d="M93 696c0 40 33 75 74 75s75 -35 75 -75c0 -41 -34 -75 -75 -75s-74 34 -74 75zM389 771c41 0 75 -35 75 -75c4 -64 -85 -101 -128 -53c-48 43 -13 132 53 128zM511 0h-120v193c-58 -27 -109 -41 -154 -41c-113 0 -191 60 -191 176v206h120v-187c0 -55 35 -88 91 -88
c46 0 91 13 134 38v237h120v-534z" />
    <glyph glyph-name="uni04F8" unicode="&#x4f8;" horiz-adv-x="1007" 
d="M388 999c41 0 75 -34 75 -75s-34 -75 -75 -75s-75 34 -75 75s32 75 75 75zM620 849c-43 0 -75 32 -75 75c0 41 32 75 75 75c41 0 74 -34 74 -75s-33 -75 -74 -75zM685 244c0 -70 -24 -128 -72 -175c-47 -46 -117 -69 -209 -69h-304v783h122v-305h183
c72 0 135 -16 190 -52c56 -35 90 -99 90 -182zM778 0v783h130v-783h-130zM563 245c0 72 -51 124 -164 124h-177v-257h178c119 0 163 57 163 133z" />
    <glyph glyph-name="uni04F9" unicode="&#x4f9;" horiz-adv-x="866" 
d="M247 696c0 40 33 75 74 75s75 -35 75 -75c0 -43 -34 -75 -75 -75s-74 34 -74 75zM543 771c41 0 75 -35 75 -75c4 -64 -85 -101 -128 -53c-45 43 -13 132 53 128zM557 184c0 -111 -74 -184 -209 -184h-268v534h119v-176h140c131 0 218 -58 218 -174zM667 0v534h119v-534
h-119zM437 185c0 53 -43 80 -107 80h-131v-165h133c70 0 105 28 105 85z" />
    <glyph glyph-name="uni0E3F" unicode="&#xe3f;" horiz-adv-x="734" 
d="M328 783v108h80v-108c73 -1 132 -20 176 -57c45 -37 67 -86 67 -148c0 -29 -9 -60 -26 -93s-47 -58 -88 -77c54 -17 92 -44 115 -80c23 -35 35 -72 35 -109c0 -132 -97 -219 -278 -219h-1v-102h-80v102h-228v783h228zM329 452v221h-108v-221h108zM407 672v-219
c81 8 122 53 122 112s-39 100 -122 107zM329 110v234h-107v-234h107zM407 344v-234h4c99 0 153 47 153 118c0 69 -52 115 -157 116z" />
    <glyph glyph-name="uni1E20" unicode="&#x1e20;" horiz-adv-x="854" 
d="M273 984h347v-95h-347v95zM800 562l-109 -50c-41 100 -121 168 -245 168c-77 0 -141 -27 -193 -82c-51 -55 -77 -123 -77 -205s25 -151 76 -206s115 -83 193 -83c132 0 214 73 233 176h-281v112h414v-43c0 -102 -33 -187 -100 -256c-66 -68 -154 -102 -265 -102
c-117 0 -213 38 -287 113s-111 171 -111 286s39 211 118 288s172 116 281 116c89 0 165 -23 227 -68s104 -99 126 -164z" />
    <glyph glyph-name="uni1E21" unicode="&#x1e21;" horiz-adv-x="677" 
d="M146 730h348v-95h-348v95zM303 -4c-75 0 -138 27 -187 81s-73 118 -73 192c0 71 24 134 72 190c49 56 113 84 192 84c29 0 60 -8 94 -23s61 -37 80 -67v81h116v-527c0 -84 -26 -151 -77 -200s-118 -74 -202 -74c-130 0 -220 54 -269 162l99 57c37 -75 93 -113 168 -113
c93 0 162 56 162 163v84c-19 -31 -46 -53 -81 -68s-66 -22 -94 -22zM480 271c0 47 -15 86 -44 118s-68 48 -115 48s-86 -16 -115 -48c-29 -31 -44 -71 -44 -118s15 -87 44 -120c30 -32 68 -48 115 -48s85 16 114 48c30 33 45 73 45 120z" />
    <glyph glyph-name="uni1E30" unicode="&#x1e30;" horiz-adv-x="711" 
d="M417 854h-103l103 172h145zM223 783v-338l313 338h162l-350 -374l371 -409h-167l-329 370v-370h-123v783h123z" />
    <glyph glyph-name="uni1E31" unicode="&#x1e31;" horiz-adv-x="581" 
d="M80 0v814h120v-490h1l207 210h162l-241 -242l254 -292h-157l-223 261h-3v-261h-120zM394 625h-103l102 172h146z" />
    <glyph glyph-name="uni1E60" unicode="&#x1e60;" horiz-adv-x="641" 
d="M325 849c-43 0 -78 35 -78 79s34 79 78 79s79 -35 79 -79s-35 -79 -79 -79zM327 -9c-137 0 -244 68 -288 188l104 54c33 -84 101 -130 186 -130c80 0 137 42 137 107c0 57 -45 90 -157 125c-85 27 -146 57 -184 91c-40 35 -60 83 -60 143c0 63 25 116 75 159
c51 44 112 66 185 66c132 0 220 -69 257 -166l-102 -55c-30 73 -83 110 -158 110c-76 0 -131 -44 -131 -107c0 -59 49 -91 145 -120c97 -29 164 -62 201 -99c37 -36 56 -83 56 -140c0 -61 -24 -114 -72 -159s-113 -67 -194 -67z" />
    <glyph glyph-name="uni1E61" unicode="&#x1e61;" horiz-adv-x="502" 
d="M248 621c-43 0 -78 35 -78 79s34 79 78 79s79 -35 79 -79s-35 -79 -79 -79zM253 -9c-106 0 -180 45 -221 134l93 52c29 -57 71 -86 128 -86c45 0 84 23 84 59c0 31 -37 55 -110 70c-59 12 -104 33 -133 64c-25 27 -38 59 -38 97c0 48 19 87 58 118s84 46 136 46
c96 0 163 -40 200 -120l-92 -52c-24 48 -61 72 -112 72c-37 0 -75 -23 -75 -52c0 -35 30 -53 99 -68c121 -27 185 -85 185 -168c0 -49 -19 -89 -56 -120s-86 -46 -146 -46z" />
    <glyph glyph-name="Wgrave" unicode="&#x1e80;" horiz-adv-x="1174" 
d="M535 854l-145 172h146l102 -172h-103zM331 174l188 609h137l189 -609l179 609h128l-238 -783h-140l-187 612h-1l-189 -612h-138l-236 783h132z" />
    <glyph glyph-name="wgrave" unicode="&#x1e81;" horiz-adv-x="879" 
d="M247 797h145l103 -172h-103zM736 534h122l-171 -534h-124l-123 375h-2l-124 -375h-122l-171 534h125l112 -377h1l121 377h120l122 -378h2z" />
    <glyph glyph-name="Wacute" unicode="&#x1e82;" horiz-adv-x="1174" 
d="M636 854h-103l103 172h145zM331 174l188 609h137l189 -609l179 609h128l-238 -783h-140l-187 612h-1l-189 -612h-138l-236 783h132z" />
    <glyph glyph-name="wacute" unicode="&#x1e83;" horiz-adv-x="879" 
d="M490 625h-103l103 172h145zM736 534h122l-171 -534h-124l-123 375h-2l-124 -375h-122l-171 534h125l112 -377h1l121 377h120l122 -378h2z" />
    <glyph glyph-name="Wdieresis" unicode="&#x1e84;" horiz-adv-x="1174" 
d="M477 999c41 0 75 -34 75 -75s-34 -75 -75 -75s-75 34 -75 75s32 75 75 75zM624 924c0 41 32 75 75 75c64 4 100 -85 52 -128c-41 -48 -131 -13 -127 53zM331 174l188 609h137l189 -609l179 609h128l-238 -783h-140l-187 612h-1l-189 -612h-138l-236 783h132z" />
    <glyph glyph-name="wdieresis" unicode="&#x1e85;" horiz-adv-x="879" 
d="M329 771c41 0 75 -35 75 -75c4 -64 -85 -101 -128 -53c-48 43 -13 132 53 128zM476 696c0 41 32 75 75 75c41 0 74 -35 74 -75c0 -41 -33 -75 -74 -75s-75 32 -75 75zM736 534h122l-171 -534h-124l-123 375h-2l-124 -375h-122l-171 534h125l112 -377h1l121 377h120
l122 -378h2z" />
    <glyph glyph-name="uni1E90" unicode="&#x1e90;" horiz-adv-x="666" 
d="M282 1026h93l144 -172h-114l-73 92l-70 -92h-118zM54 783h562v-105l-428 -568h437v-110h-587v106l428 567h-412v110z" />
    <glyph glyph-name="uni1E91" unicode="&#x1e91;" horiz-adv-x="529" 
d="M214 797h93l144 -172h-114l-74 92l-69 -92h-118zM51 534h431v-95l-294 -335h295v-104h-440v99l290 331h-282v104z" />
    <glyph glyph-name="uni1EBC" unicode="&#x1ebc;" horiz-adv-x="663" 
d="M280 922c-25 0 -38 -22 -39 -66h-81c-5 96 40 155 120 155c72 2 107 -72 143 -69c25 0 38 22 39 66h82c4 -96 -41 -155 -121 -155c-69 -3 -110 72 -143 69zM601 672h-378v-218h344v-111h-344v-231h382v-112h-505v783h501v-111z" />
    <glyph glyph-name="uni1EBD" unicode="&#x1ebd;" horiz-adv-x="615" 
d="M237 693c-25 0 -38 -22 -39 -66h-81c-5 96 40 155 120 155s97 -69 143 -69c25 0 38 22 39 66h82c4 -96 -41 -155 -121 -155c-79 0 -98 69 -143 69zM571 232h-405c1 -40 17 -73 48 -100c31 -26 67 -39 108 -39c67 0 115 28 144 83l86 -57c-45 -83 -132 -129 -228 -129
c-79 0 -146 26 -200 79c-53 53 -80 120 -80 199c0 77 26 142 77 196s115 81 192 81c81 0 145 -25 191 -76s69 -117 69 -200c0 -16 -1 -28 -2 -37zM313 443c-73 0 -130 -48 -141 -121h280c-4 75 -63 121 -139 121z" />
    <glyph glyph-name="Ygrave" unicode="&#x1ef2;" horiz-adv-x="751" 
d="M336 854l-145 172h145l103 -172h-103zM20 783h142l214 -351l216 351h141l-296 -467v-316h-124v313z" />
    <glyph glyph-name="ygrave" unicode="&#x1ef3;" horiz-adv-x="612" 
d="M130 797h145l103 -172h-103zM152 534l166 -350l154 350h129l-367 -797h-127l147 323l-238 474h136z" />
    <glyph glyph-name="endash" unicode="&#x2013;" horiz-adv-x="605" 
d="M73 267v115h459v-115h-459z" />
    <glyph glyph-name="emdash" unicode="&#x2014;" horiz-adv-x="1018" 
d="M73 267v115h872v-115h-872z" />
    <glyph glyph-name="quoteleft" unicode="&#x2018;" horiz-adv-x="293" 
d="M174 790l54 -49c-45 -31 -77 -71 -98 -120c9 3 18 5 29 5c43 0 77 -34 77 -81c0 -49 -37 -88 -90 -88c-52 0 -93 47 -93 115v5c0 79 48 161 121 213z" />
    <glyph glyph-name="quoteright" unicode="&#x2019;" horiz-adv-x="296" 
d="M126 455l-54 49c45 32 74 64 98 121c-8 -4 -18 -6 -29 -6c-43 0 -77 34 -77 81c0 49 37 88 90 88c52 0 93 -47 93 -115v-4c0 -80 -48 -161 -121 -214z" />
    <glyph glyph-name="quotesinglbase" unicode="&#x201a;" horiz-adv-x="307" 
d="M124 -162l-54 48c45 31 78 72 99 121c-9 -4 -19 -6 -30 -6c-41 0 -77 35 -77 82c0 49 37 87 90 87c52 0 93 -47 93 -114v-5c0 -80 -48 -161 -121 -213z" />
    <glyph glyph-name="quotedblleft" unicode="&#x201c;" horiz-adv-x="522" 
d="M173 790l54 -49c-45 -31 -77 -71 -98 -120c9 3 18 5 29 5c43 0 77 -34 77 -81c0 -49 -37 -88 -90 -88c-52 0 -93 47 -93 115v5c0 79 48 161 121 213zM402 790l55 -49c-45 -31 -78 -71 -99 -120c10 3 20 5 30 5c43 0 77 -34 77 -81c0 -49 -37 -88 -90 -88
c-52 0 -93 47 -93 115v5c0 79 48 161 120 213z" />
    <glyph glyph-name="quotedblright" unicode="&#x201d;" horiz-adv-x="526" 
d="M126 455l-54 49c45 32 74 64 98 121c-8 -4 -18 -6 -29 -6c-43 0 -77 34 -77 81c0 49 37 88 90 88c52 0 93 -47 93 -115v-4c0 -80 -48 -161 -121 -214zM356 455l-55 49c45 31 78 72 99 121c-9 -4 -19 -6 -29 -6c-43 0 -77 34 -77 81c0 49 37 88 89 88s94 -47 94 -115v-4
c0 -79 -48 -161 -121 -214z" />
    <glyph glyph-name="quotedblbase" unicode="&#x201e;" horiz-adv-x="521" 
d="M73 -162v56c52 9 91 58 92 111c-7 -5 -17 -7 -29 -7c-44 0 -75 32 -75 76c0 47 36 79 83 79c59 0 93 -47 93 -108c0 -53 -15 -98 -44 -137s-69 -62 -120 -70zM296 -162v56c52 9 91 58 92 111c-7 -5 -17 -7 -29 -7c-44 0 -75 32 -75 76c0 47 36 79 83 79
c59 0 93 -47 93 -108c0 -53 -15 -98 -44 -137s-69 -62 -120 -70z" />
    <glyph glyph-name="dagger" unicode="&#x2020;" horiz-adv-x="629" 
d="M61 422v112h192v206h122v-206h193v-112h-193v-422h-122v422h-192z" />
    <glyph glyph-name="daggerdbl" unicode="&#x2021;" horiz-adv-x="629" 
d="M253 -207v207h-192v112h192v310h-192v112h192v206h122v-206h193v-112h-193v-310h193v-112h-193v-207h-122z" />
    <glyph glyph-name="bullet" unicode="&#x2022;" horiz-adv-x="492" 
d="M246 542c47 0 88 -18 122 -53s51 -76 51 -124s-17 -89 -51 -124c-33 -34 -74 -51 -122 -51s-89 17 -123 51c-34 35 -51 76 -51 124s17 89 51 124s75 53 123 53z" />
    <glyph glyph-name="ellipsis" unicode="&#x2026;" horiz-adv-x="900" 
d="M59 82c0 49 39 88 87 88c49 0 87 -39 87 -88c0 -48 -39 -86 -87 -86s-87 39 -87 86zM362 82c0 49 40 88 88 88c49 0 87 -39 87 -88c0 -48 -39 -86 -87 -86s-88 39 -88 86zM666 82c0 48 40 88 87 88c49 0 88 -39 88 -88c0 -48 -39 -86 -88 -86c-47 0 -87 39 -87 86z" />
    <glyph glyph-name="perthousand" unicode="&#x2030;" horiz-adv-x="1277" 
d="M390 614c0 -49 -17 -90 -52 -125s-76 -52 -125 -52s-90 17 -125 52c-34 35 -51 76 -51 125s17 90 51 125c35 35 76 52 125 52s90 -17 125 -52c35 -34 52 -76 52 -125zM751 783l-509 -783h-118l510 783h117zM213 690c-41 0 -76 -33 -76 -76s35 -76 76 -76
c43 0 77 35 77 76s-34 76 -77 76zM786 296c35 -35 52 -76 52 -125s-17 -90 -52 -125c-35 -34 -76 -51 -125 -51s-90 17 -125 51c-35 35 -52 76 -52 125s17 90 52 125s76 52 125 52s90 -17 125 -52zM1189 296c35 -35 52 -76 52 -125s-17 -90 -52 -125
c-35 -34 -76 -51 -125 -51s-90 17 -125 51c-35 35 -52 76 -52 125s17 90 51 125c35 35 77 52 126 52s91 -17 125 -52zM737 171c0 43 -35 77 -76 77s-76 -34 -76 -77c0 -41 35 -76 76 -76s76 35 76 76zM1140 171c0 43 -35 77 -76 77s-76 -34 -76 -77c0 -41 33 -76 76 -76
s76 35 76 76z" />
    <glyph glyph-name="guilsinglleft" unicode="&#x2039;" horiz-adv-x="385" 
d="M329 148l-70 -67l-224 220l225 221l69 -67l-157 -154z" />
    <glyph glyph-name="guilsinglright" unicode="&#x203a;" horiz-adv-x="385" 
d="M125 522l225 -221l-225 -220l-69 67l156 152l-155 155z" />
    <glyph glyph-name="uni203D" unicode="&#x203d;" horiz-adv-x="537" 
d="M268 794c65 0 120 -20 163 -60c44 -39 66 -90 66 -151c0 -37 -13 -75 -40 -112c-20 -27 -49 -57 -87 -91c-55 -47 -76 -75 -76 -126v-36h-108l-8 357h120l-3 -115c59 52 80 85 80 132c0 56 -43 95 -108 95c-62 0 -109 -30 -142 -90l-93 57c41 84 120 140 236 140zM241 -7
c-43 0 -78 34 -78 78s35 79 78 79s79 -35 79 -79s-35 -78 -79 -78z" />
    <glyph glyph-name="uni2042" unicode="&#x2042;" horiz-adv-x="915" 
d="M376 413l-63 46l79 110l-129 43l25 74l129 -42v139h81v-139l129 42l25 -74l-129 -43l79 -110l-63 -46l-82 111zM146 -18l-63 47l80 110l-130 43l25 73l129 -42v140h81v-140l129 42l26 -73l-130 -43l80 -110l-63 -47l-82 111zM605 -18l-63 47l80 110l-130 43l25 73
l129 -42v140h81v-140l129 42l26 -73l-130 -43l80 -110l-63 -47l-82 111z" />
    <glyph glyph-name="fraction" unicode="&#x2044;" horiz-adv-x="638" 
d="M634 785l-509 -785h-119l511 785h117z" />
    <glyph glyph-name="uni2051" unicode="&#x2051;" horiz-adv-x="494" 
d="M166 413l-63 46l79 110l-129 43l24 74l130 -42v139h81v-139l129 42l25 -74l-130 -43l80 -110l-63 -46l-82 111zM166 -18l-63 47l79 110l-129 43l24 73l130 -42v140h81v-140l129 42l25 -73l-130 -43l80 -110l-63 -47l-82 111z" />
    <glyph glyph-name="lira" unicode="&#x20a4;" horiz-adv-x="650" 
d="M538 171l83 -58c-31 -79 -98 -124 -182 -124c-33 0 -68 8 -105 23c-36 16 -66 24 -90 24c-37 0 -81 -14 -130 -41l-66 116c87 53 137 103 150 152h-136v82h126l-1 3l-25 52l-13 24h-87v82h50c-6 23 -9 42 -9 59c0 61 25 115 74 160c50 46 110 69 180 69
c129 0 213 -69 244 -166l-105 -51c-25 71 -71 106 -138 106c-72 0 -129 -47 -129 -127c0 -15 3 -31 10 -50h252v-82h-212c17 -35 29 -61 34 -79h178v-82h-173c-10 -49 -43 -91 -99 -126v-1c17 7 32 10 46 10c29 0 59 -7 92 -22s61 -22 84 -22c37 0 74 28 97 69z" />
    <glyph glyph-name="uni20A6" unicode="&#x20a6;" horiz-adv-x="927" 
d="M868 364v-91h-78v-273h-124l-184 274h-224v-274h-121v274h-78v90h78v80h-78v92h78v247h141l166 -247h224v247h122v-247l78 -1v-92h-78v-79h78zM257 612v-80h53zM258 364h163l-52 80h-111v-80zM559 364h109v80h-162zM616 277l53 -79v79h-53z" />
    <glyph glyph-name="uni20A9" unicode="&#x20a9;" horiz-adv-x="1209" 
d="M1039 356l-109 -356h-139l-110 358h-157l-110 -358h-138l-108 356h-118v73h96l-106 354h131l103 -356h152l110 356h136l111 -356h154l104 356h128l-108 -354h98v-73h-120zM545 427h115l-56 185h-1zM405 358h-111l54 -184zM862 174l54 184h-112z" />
    <glyph glyph-name="uni20AA" unicode="&#x20aa;" horiz-adv-x="1029" 
d="M693 221h-121v205c0 93 -36 123 -116 123h-236v-549h-120v658h357c164 0 236 -65 236 -220v-217zM808 658h121v-438c0 -155 -72 -220 -236 -220h-357v436h121v-327h235c80 0 116 30 116 123v426z" />
    <glyph glyph-name="dong" unicode="&#x20ab;" horiz-adv-x="714" 
d="M599 0h-117v83c-19 -31 -46 -54 -83 -69c-36 -15 -68 -22 -96 -22c-75 0 -138 27 -188 82c-49 55 -74 120 -74 194c0 72 24 136 73 192s114 84 193 84c28 0 59 -7 93 -22c35 -14 61 -35 79 -64v170h-156v87h156v99h120v-99h65v-87h-65v-628zM205 148
c30 -32 69 -48 116 -48s86 16 115 48c30 33 45 73 45 120s-15 87 -45 120s-68 49 -115 49s-85 -16 -115 -49s-45 -73 -45 -120s15 -87 44 -120zM61 -194v107h538v-107h-538z" />
    <glyph glyph-name="Euro" unicode="&#x20ac;" horiz-adv-x="911" 
d="M759 278l112 -51c-19 -55 -57 -108 -116 -156s-147 -80 -246 -80c-85 0 -163 25 -234 74s-118 117 -143 203h-89v86h73c-1 7 -1 19 -1 35c0 11 1 25 2 44h-74v86h92c27 83 75 149 145 199c70 51 148 76 234 76c99 0 186 -31 242 -79c56 -47 94 -100 111 -156l-111 -51
c-39 101 -121 171 -244 171c-51 0 -98 -14 -143 -43c-44 -29 -77 -68 -98 -117h316l-27 -86h-313c-1 -17 -2 -31 -2 -40s1 -22 2 -39h293l-27 -86h-243c44 -100 139 -162 242 -162c54 0 104 16 149 47c46 32 79 74 98 125z" />
    <glyph glyph-name="uni20AE" unicode="&#x20ae;" horiz-adv-x="706" 
d="M623 470l-205 -73v-84l205 73v-91l-205 -73v-222h-123v178l-205 -73v92l205 73v83l-205 -73v92l205 72v225h-249v114h621v-114h-249v-181l205 73v-91z" />
    <glyph glyph-name="uni20B1" unicode="&#x20b1;" horiz-adv-x="791" 
d="M756 577v-82h-75c-21 -121 -124 -205 -285 -205h-140v-290h-123v495h-81v82h81v206h278c82 0 146 -20 191 -59s72 -88 80 -147h74zM256 669v-94h300c-17 63 -68 94 -155 94h-145zM256 497v-94h145c88 0 138 39 154 94h-299z" />
    <glyph glyph-name="uni20B4" unicode="&#x20b4;" horiz-adv-x="750" 
d="M53 434v87h447c9 16 14 34 14 55c0 65 -60 110 -147 110c-47 0 -105 -23 -141 -74l-95 67c52 75 143 115 240 115c77 0 141 -21 191 -63c50 -41 75 -95 75 -161c0 -16 -2 -32 -5 -49h64v-87h-643zM696 365v-87h-450c-16 -18 -24 -40 -24 -66c0 -67 59 -111 155 -111
c78 0 140 29 185 86l96 -65c-64 -87 -160 -131 -287 -131c-89 0 -157 21 -204 64s-70 95 -70 156c0 24 3 46 9 67h-53v87h643z" />
    <glyph glyph-name="uni20B8" unicode="&#x20b8;" horiz-adv-x="713" 
d="M46 783h621v-113h-621v113zM46 479v113h621v-113h-249v-479h-123v479h-249z" />
    <glyph glyph-name="uni20B9" unicode="&#x20b9;" horiz-adv-x="633" 
d="M588 783v-101h-177c35 -23 59 -55 70 -96h107v-94h-105c-16 -83 -66 -139 -151 -170l169 -322h-136l-151 297l-154 1v110h151c78 0 126 28 145 84h-296v94h297c-16 55 -65 83 -146 83h-151v114h528z" />
    <glyph glyph-name="uni20BA" unicode="&#x20ba;" horiz-adv-x="734" 
d="M580 340l119 -12c-8 -101 -49 -181 -122 -240s-176 -88 -308 -88h-97v273l-110 -52v95l110 53v87l-110 -53v96l110 52v232h122v-174l244 117v-97l-244 -115v-87l244 116v-95l-244 -116v-221c183 5 270 94 286 229z" />
    <glyph glyph-name="uni20BD" unicode="&#x20bd;" horiz-adv-x="735" 
d="M495 120h-215v-120h-123v120h-96v91h96v79h-96v113h96v380h268c91 0 160 -24 205 -71c46 -47 69 -105 69 -172c0 -71 -26 -131 -77 -179c-51 -47 -121 -71 -212 -71h-130v-79h215v-91zM280 669v-266h134c109 0 160 62 160 134c0 36 -12 67 -37 93c-24 26 -65 39 -123 39
h-134z" />
    <glyph glyph-name="uni2113" unicode="&#x2113;" horiz-adv-x="468" 
d="M395 95v-90c-21 -7 -43 -10 -66 -10c-119 0 -202 76 -202 211v10l-50 -45l-63 68l113 102v278c0 101 54 175 157 175c100 0 155 -64 155 -156c0 -93 -59 -192 -176 -298l-32 -29v-96c0 -88 39 -125 116 -125c16 0 32 2 48 5zM284 701c-35 0 -53 -26 -53 -79v-185
c73 73 109 139 109 198c0 44 -19 66 -56 66z" />
    <glyph glyph-name="uni2116" unicode="&#x2116;" horiz-adv-x="1317" 
d="M221 600v-600h-121v783h141l398 -596v596h121v-783h-137zM1070 293c-54 0 -100 18 -139 55c-38 37 -57 83 -57 138s19 100 57 137s84 55 139 55c53 0 99 -19 137 -56c39 -37 58 -82 58 -136c0 -55 -19 -101 -57 -138c-37 -37 -83 -55 -138 -55zM1070 398
c49 0 85 39 85 88s-34 87 -85 87s-86 -38 -86 -87s35 -88 86 -88zM1255 102h-366v105h366v-105z" />
    <glyph glyph-name="trademark" unicode="&#x2122;" horiz-adv-x="1064" 
d="M170 696h-131v87h359v-87h-131v-364h-97v364zM696 332l-124 349h-6v-349h-90v451h141l112 -311l105 311h147v-451h-93v356h-5l-123 -356h-64z" />
    <glyph glyph-name="estimated" unicode="&#x212e;" horiz-adv-x="867" 
d="M441 -12c-119 0 -214 39 -284 116c-69 78 -104 176 -104 294c0 112 36 206 108 282c73 77 166 115 280 115c113 0 206 -38 278 -114c73 -75 109 -169 109 -281v-9h-604v-254c52 -53 138 -88 217 -88c136 0 236 60 288 167l53 -29c-55 -121 -181 -199 -341 -199zM224 453
h435v197c-52 55 -139 85 -220 85c-85 0 -157 -28 -215 -84v-198z" />
    <glyph glyph-name="uni2153" unicode="&#x2153;" horiz-adv-x="1009" 
d="M154 0l511 785h117l-509 -785h-119zM284 783v-455h-103v350l-104 -61l-45 74l152 92h100zM779 -9c-84 0 -145 44 -168 112l83 37c16 -41 45 -62 87 -62c43 0 75 21 75 54c0 36 -25 54 -75 54h-53v88h49c47 0 70 18 70 53c0 31 -22 52 -70 52c-37 0 -64 -20 -80 -61
l-84 37c24 67 85 110 166 110c47 0 86 -12 118 -37c32 -24 48 -55 48 -94c0 -43 -27 -83 -68 -100v-1c48 -15 76 -53 76 -104c0 -40 -17 -73 -51 -99c-33 -26 -74 -39 -123 -39z" />
    <glyph glyph-name="uni2154" unicode="&#x2154;" horiz-adv-x="1091" 
d="M218 793c100 0 164 -62 164 -145c0 -61 -31 -100 -104 -160l-89 -71h195v-89h-339v83l174 141c43 35 64 65 64 91c0 33 -24 60 -68 60c-34 0 -59 -21 -75 -64l-89 37c23 72 86 117 167 117zM242 0l510 785h117l-509 -785h-118zM870 -9c-84 0 -145 44 -168 112l83 37
c16 -41 45 -62 87 -62c43 0 75 21 75 54c0 36 -25 54 -75 54h-53v88h49c47 0 70 18 70 53c0 31 -22 52 -70 52c-37 0 -64 -20 -80 -61l-84 37c24 67 85 110 166 110c47 0 86 -12 118 -37c32 -24 48 -55 48 -94c0 -43 -27 -83 -68 -100v-1c48 -15 76 -53 76 -104
c0 -40 -17 -73 -51 -99c-33 -26 -74 -39 -123 -39z" />
    <glyph glyph-name="oneeighth" unicode="&#x215b;" horiz-adv-x="975" 
d="M782 785l-509 -785h-119l511 785h117zM32 691l152 92h100v-455h-103v350l-104 -61zM914 333c0 -43 -35 -85 -76 -100c52 -17 87 -55 87 -107c8 -180 -364 -180 -357 0c0 52 35 90 88 107c-41 15 -76 57 -76 100c0 40 17 72 52 95s73 35 115 35s80 -12 115 -35
s52 -55 52 -95zM747 274c33 0 69 19 69 52s-34 51 -69 51s-70 -18 -70 -51s35 -52 70 -52zM747 189c-40 0 -80 -20 -80 -56s41 -57 80 -57s79 21 79 57s-40 56 -79 56z" />
    <glyph glyph-name="threeeighths" unicode="&#x215c;" horiz-adv-x="993" 
d="M210 319c-84 0 -145 44 -168 112l83 37c16 -41 45 -62 87 -62c43 0 75 21 75 54c0 36 -25 54 -75 54h-53v88h49c47 0 70 18 70 53c0 31 -22 52 -70 52c-37 0 -64 -20 -80 -61l-84 37c24 67 85 110 166 110c47 0 86 -12 118 -37c32 -24 48 -55 48 -94
c0 -43 -27 -83 -68 -100v-1c48 -15 76 -53 76 -104c0 -40 -17 -73 -51 -99c-33 -26 -74 -39 -123 -39zM183 0l510 785h117l-509 -785h-118zM954 126c7 -180 -365 -180 -357 0c0 52 35 90 87 107c-41 15 -76 57 -76 100c0 40 17 72 52 95s73 35 115 35s80 -12 115 -35
s52 -55 52 -95c0 -43 -35 -85 -76 -100c53 -17 88 -55 88 -107zM775 274c35 0 70 19 70 52s-35 51 -70 51s-69 -18 -69 -51s36 -52 69 -52zM829 91c17 10 25 24 25 42s-8 32 -25 41c-33 20 -75 20 -108 0c-17 -9 -25 -23 -25 -41s8 -32 25 -42c33 -20 75 -20 108 0z" />
    <glyph glyph-name="fiveeighths" unicode="&#x215d;" horiz-adv-x="1011" 
d="M188 0l511 785h117l-509 -785h-119zM382 482c0 -49 -17 -88 -52 -118c-34 -30 -75 -45 -123 -45c-83 0 -143 40 -168 107l83 41c17 -40 45 -60 86 -60c45 0 76 32 76 73c0 40 -28 70 -75 70c-27 0 -51 -12 -72 -36l-80 32l33 237h274v-88h-197l-14 -93c24 17 52 25 84 25
c83 0 145 -52 145 -145zM969 126c7 -180 -365 -180 -357 0c0 52 35 90 88 107c-41 15 -77 59 -77 100c0 40 17 72 52 95s74 35 116 35s80 -12 115 -35s52 -55 52 -95c0 -43 -35 -85 -76 -100c52 -17 87 -55 87 -107zM791 274c33 0 69 19 69 52s-35 51 -70 51
s-69 -18 -69 -51s35 -52 70 -52zM790 189c-39 0 -79 -20 -79 -56s41 -57 80 -57s79 21 79 57s-40 56 -80 56z" />
    <glyph glyph-name="seveneighths" unicode="&#x215e;" horiz-adv-x="921" 
d="M729 785l-509 -785h-118l510 785h117zM40 783h340v-88l-194 -367h-112l195 367h-229v88zM871 333c0 -43 -35 -85 -76 -100c52 -17 87 -55 87 -107c8 -180 -364 -180 -357 0c0 52 35 90 88 107c-41 15 -76 57 -76 100c0 40 17 72 52 95s73 35 115 35s80 -12 115 -35
s52 -55 52 -95zM704 274c33 0 69 19 69 52s-34 51 -69 51s-70 -18 -70 -51s35 -52 70 -52zM704 189c-40 0 -79 -20 -79 -56s40 -57 79 -57s79 21 79 57s-40 56 -79 56z" />
    <glyph glyph-name="arrowleft" unicode="&#x2190;" horiz-adv-x="664" 
d="M20 374l289 313l71 -66l-186 -198h435v-117h-435l186 -198l-71 -66l-289 313v19z" />
    <glyph glyph-name="arrowup" unicode="&#x2191;" horiz-adv-x="664" 
d="M341 669l313 -289l-66 -71l-198 186v-435h-117v435l-197 -186l-66 71l313 289h18z" />
    <glyph glyph-name="arrowright" unicode="&#x2192;" horiz-adv-x="664" 
d="M644 355l-290 -313l-70 66l186 198h-436v117h436l-186 198l70 66l290 -313v-19z" />
    <glyph glyph-name="arrowdown" unicode="&#x2193;" horiz-adv-x="664" 
d="M323 60l-313 289l66 71l197 -186v435h118v-435l197 186l66 -71l-313 -289h-18z" />
    <glyph glyph-name="uni2196" unicode="&#x2196;" horiz-adv-x="664" 
d="M131 582l427 17l3 -97c-123 -4 -213 -7 -271 -8l308 -308l-83 -83l-308 308c-1 -63 -4 -154 -8 -271l-97 3l17 426z" />
    <glyph glyph-name="uni2197" unicode="&#x2197;" horiz-adv-x="664" 
d="M545 569l17 -426l-97 -3c-4 75 -7 166 -8 271l-309 -308l-82 83l308 308c-63 1 -154 4 -271 8l3 97l426 -17z" />
    <glyph glyph-name="uni2198" unicode="&#x2198;" horiz-adv-x="664" 
d="M532 120l-427 -17l-2 97c119 4 209 7 270 8l-308 308l83 83l308 -308c1 58 4 148 8 271l97 -3l-17 -427z" />
    <glyph glyph-name="uni2199" unicode="&#x2199;" horiz-adv-x="664" 
d="M119 132l-16 427l96 3c6 -179 9 -269 9 -271l307 308l83 -83l-308 -308c58 -1 148 -4 271 -8l-3 -97l-426 17z" />
    <glyph glyph-name="uni21A9" unicode="&#x21a9;" horiz-adv-x="1102" 
d="M726 151h-521l186 -197l-71 -66l-290 313v18l290 313l71 -66l-186 -197h516c63 0 115 18 155 54s60 83 60 142c0 123 -82 197 -218 198h-199v115h207c99 0 178 -29 239 -88s92 -134 92 -225s-30 -166 -91 -225s-141 -89 -240 -89z" />
    <glyph glyph-name="uni21B0" unicode="&#x21b0;" horiz-adv-x="846" 
d="M456 466h-251l186 -197l-71 -66l-289 313v18l289 313l71 -66l-186 -197h265c203 0 317 -97 317 -276v-308h-121v296c0 115 -79 170 -210 170z" />
    <glyph glyph-name="uni21B1" unicode="&#x21b1;" horiz-adv-x="846" 
d="M456 269l185 197h-251c-131 0 -209 -55 -209 -170v-296h-121v308c0 179 113 276 316 276h265l-185 197l70 66l289 -313v-18l-289 -313z" />
    <glyph glyph-name="uni21B2" unicode="&#x21b2;" horiz-adv-x="846" 
d="M391 514l-186 -197h251c131 0 210 55 210 170v296h121v-308c0 -179 -114 -275 -317 -275h-265l186 -198l-71 -66l-289 313v18l289 313z" />
    <glyph glyph-name="uni21B3" unicode="&#x21b3;" horiz-adv-x="846" 
d="M390 317h251l-185 197l70 66l289 -313v-18l-289 -313l-70 66l185 198h-265c-203 0 -316 96 -316 275v308h121v-296c0 -115 78 -170 209 -170z" />
    <glyph glyph-name="uni21B4" unicode="&#x21b4;" horiz-adv-x="917" 
d="M555 27l-313 290l66 70l197 -185v251c0 71 -7 111 -32 152s-78 60 -162 60h-272v118h284c111 0 188 -26 233 -79c45 -52 67 -131 67 -237v-265l197 185l66 -70l-313 -290h-18z" />
    <glyph glyph-name="partialdiff" unicode="&#x2202;" horiz-adv-x="662" 
d="M305 -10c-73 0 -135 24 -185 73s-75 112 -75 189c0 73 25 131 75 176s111 68 183 68c69 0 130 -20 183 -61c-20 160 -97 251 -222 251c-51 0 -101 -12 -151 -35l-42 94c59 33 126 49 201 49c228 0 336 -202 336 -429c0 -205 -97 -375 -303 -375zM331 396
c-45 0 -83 -13 -116 -40c-33 -26 -49 -64 -49 -113c0 -41 15 -76 44 -104c30 -27 64 -41 102 -41c55 0 99 24 130 71c31 48 47 103 47 164c-39 41 -106 63 -158 63z" />
    <glyph glyph-name="uni2206" unicode="&#x2206;" horiz-adv-x="846" 
d="M33 0l318 783h146l316 -783h-780zM203 111h440l-221 550z" />
    <glyph glyph-name="product" unicode="&#x220f;" horiz-adv-x="778" 
d="M292 669v-669h-124v669h-132v114h706v-114h-133v-669h-122v669h-195z" />
    <glyph glyph-name="summation" unicode="&#x2211;" horiz-adv-x="639" 
d="M47 113l279 284l-267 276v110h524v-110h-370l276 -276l-283 -287h377v-110h-536v113z" />
    <glyph glyph-name="minus" unicode="&#x2212;" horiz-adv-x="630" 
d="M72 312v110h486v-110h-486z" />
    <glyph glyph-name="radical" unicode="&#x221a;" horiz-adv-x="768" 
d="M758 958l-295 -958h-135l-188 514h-121v101h214l163 -477l252 820h110z" />
    <glyph glyph-name="infinity" unicode="&#x221e;" horiz-adv-x="1009" 
d="M739 109c-45 0 -87 13 -132 48c-23 18 -40 32 -51 42s-29 27 -52 50l-24 -23c-13 -12 -21 -20 -25 -23l-23 -21c-11 -10 -20 -17 -26 -21c-11 -7 -36 -25 -53 -32c-27 -9 -59 -20 -95 -20c-61 0 -110 21 -148 62c-37 41 -56 92 -56 153s20 113 61 155s93 63 154 63
c45 0 88 -14 132 -49c23 -17 40 -32 52 -43s29 -27 52 -50c50 49 85 80 104 94c45 32 93 48 142 48c61 0 111 -21 148 -63s56 -94 56 -155s-21 -112 -62 -153s-93 -62 -154 -62zM271 435c-60 0 -104 -51 -104 -111s42 -108 102 -108c40 0 87 27 140 80l26 27l-26 27
c-15 15 -26 26 -33 32l-30 24c-25 21 -50 29 -75 29zM742 435c-16 0 -35 -6 -48 -11c-13 -4 -34 -20 -45 -27c-9 -7 -33 -30 -40 -35l-19 -20l-16 -17l26 -27c16 -16 27 -27 33 -32c7 -5 17 -12 30 -23c28 -20 51 -27 76 -27c29 0 53 11 73 32s30 47 30 76
c0 60 -41 111 -100 111z" />
    <glyph glyph-name="integral" unicode="&#x222b;" horiz-adv-x="409" 
d="M265 551v-571c0 -164 -87 -245 -238 -245h-13v108c85 3 130 36 130 139v569c0 159 88 243 237 243h14v-108c-87 -3 -130 -32 -130 -135z" />
    <glyph glyph-name="uni2236" unicode="&#x2236;" horiz-adv-x="327" 
d="M76 542c0 49 40 88 88 88s87 -39 87 -88c0 -47 -39 -87 -87 -87s-88 40 -88 87zM76 169c0 49 40 89 88 89c49 0 87 -40 87 -89c0 -47 -39 -86 -87 -86s-88 39 -88 86z" />
    <glyph glyph-name="approxequal" unicode="&#x2248;" horiz-adv-x="629" 
d="M420 396c-28 0 -65 14 -111 41s-79 41 -99 41c-29 0 -55 -15 -78 -45l-65 61c36 60 84 90 143 90c41 0 89 -20 118 -41c29 -20 67 -40 92 -40c29 0 56 15 79 45l64 -61c-35 -61 -83 -91 -143 -91zM420 146c-28 0 -65 14 -111 41s-79 41 -99 41c-29 0 -55 -15 -78 -45
l-65 61c36 60 84 90 143 90c41 0 89 -20 118 -41c29 -20 67 -40 92 -40c29 0 56 15 79 45l64 -61c-35 -61 -83 -91 -143 -91z" />
    <glyph glyph-name="notequal" unicode="&#x2260;" horiz-adv-x="627" 
d="M555 171h-286l-65 -133l-84 42l46 91h-94v111h148l85 169h-233v110h286l67 132l83 -38l-47 -94h94v-110h-146l-85 -169h231v-111z" />
    <glyph glyph-name="lessequal" unicode="&#x2264;" horiz-adv-x="681" 
d="M213 426l389 -144v-114l-537 206v103l537 205v-112zM65 24v107h538v-107h-538z" />
    <glyph glyph-name="greaterequal" unicode="&#x2265;" horiz-adv-x="681" 
d="M80 682l536 -205v-103l-536 -206v113l388 144l-388 144v113zM79 24v107h537v-107h-537z" />
    <glyph glyph-name="uni2318" unicode="&#x2318;" horiz-adv-x="698" 
d="M546 69c-33 0 -62 12 -87 37c-24 24 -36 53 -36 86v63h-148v-63c0 -33 -12 -62 -36 -86c-23 -25 -52 -37 -87 -37c-34 0 -63 12 -86 37c-24 24 -36 53 -36 86s12 62 36 86s53 36 86 36h62v148h-61c-34 0 -63 12 -86 37c-25 23 -37 52 -37 86s12 63 37 86
c24 24 53 36 86 36s62 -12 86 -36s36 -53 36 -86v-63h148v63c0 33 12 62 36 86c25 24 54 36 87 36s62 -12 86 -36s36 -53 36 -86s-12 -62 -36 -86c-23 -25 -52 -37 -86 -37h-62v-148h62c33 0 62 -12 86 -36s36 -53 36 -86s-12 -62 -36 -86c-23 -25 -52 -37 -86 -37zM153 522
h61v63c0 17 -6 32 -18 44c-11 12 -26 18 -43 18c-19 0 -34 -6 -45 -18c-12 -11 -18 -26 -18 -44c0 -17 6 -32 18 -44c14 -13 29 -19 45 -19zM546 647c-19 0 -33 -6 -44 -18c-12 -11 -18 -26 -18 -44v-63h62c17 0 31 6 44 19c39 35 10 110 -44 106zM423 462h-148v-148h148
v148zM214 192v63h-62c-18 0 -33 -6 -44 -19c-12 -11 -18 -25 -18 -44c0 -17 6 -32 18 -45c27 -24 61 -24 88 0c12 13 18 28 18 45zM546 255h-62v-63c0 -17 6 -32 18 -45c12 -12 27 -18 44 -18c16 0 31 6 44 18c12 13 18 28 18 45c0 19 -6 33 -18 44c-11 13 -26 19 -44 19z
" />
    <glyph glyph-name="filledbox" unicode="&#x25a0;" horiz-adv-x="908" 
d="M101 711h709v-711h-709v711z" />
    <glyph glyph-name="uni25A1" unicode="&#x25a1;" horiz-adv-x="908" 
d="M101 0v711h709v-711h-709zM709 616h-511v-522h511v522z" />
    <glyph glyph-name="triagup" unicode="&#x25b2;" horiz-adv-x="838" 
d="M0 0l421 730l417 -730h-838z" />
    <glyph glyph-name="uni25B3" unicode="&#x25b3;" horiz-adv-x="838" 
d="M419 720l412 -720h-824zM176 95h485l-242 428z" />
    <glyph glyph-name="lozenge" unicode="&#x25ca;" horiz-adv-x="716" 
d="M419 783l290 -390l-290 -393h-121l-292 393l292 390h121zM358 663l-199 -270l199 -271l199 273z" />
    <glyph glyph-name="circle" unicode="&#x25cb;" horiz-adv-x="813" 
d="M777 356c0 -103 -36 -190 -108 -262s-159 -108 -262 -108s-190 36 -263 108c-72 72 -108 159 -108 262s36 190 108 263c73 73 160 109 263 109s190 -36 262 -109c72 -72 108 -160 108 -263zM407 631c-76 0 -141 -27 -194 -81c-53 -53 -79 -118 -79 -194s26 -141 79 -194
s118 -80 194 -80c75 0 138 27 191 80c53 54 79 119 79 194c0 76 -26 141 -79 194c-53 54 -116 81 -191 81z" />
    <glyph glyph-name="uni25CF" unicode="&#x25cf;" horiz-adv-x="813" 
d="M36 356c0 103 36 191 108 263c72 73 159 109 262 109s190 -36 262 -109c73 -73 109 -160 109 -263s-36 -190 -109 -262c-72 -72 -159 -108 -262 -108s-190 36 -262 108s-108 159 -108 262z" />
    <glyph glyph-name="uni2605" unicode="&#x2605;" horiz-adv-x="838" 
d="M663 -21l-244 177l-245 -175l94 285l-244 177h302l93 287l93 -287h302l-244 -177z" />
    <glyph glyph-name="uni2611" unicode="&#x2611;" horiz-adv-x="956" 
d="M101 711h620l128 225l92 -56l-131 -227v-653h-709v711zM297 499l177 -217l193 336h-470v-526h514v390l-223 -384l-274 329z" />
    <glyph glyph-name="uni2612" unicode="&#x2612;" horiz-adv-x="908" 
d="M810 0h-709v711h709v-711zM711 92v526h-514v-526h514zM383 355l-157 158l72 71l157 -157l155 157l72 -71l-156 -158l156 -156l-72 -72l-155 156l-158 -159l-71 72z" />
    <glyph glyph-name="uni2639" unicode="&#x2639;" horiz-adv-x="813" 
d="M777 356c0 -103 -36 -190 -108 -262s-159 -108 -262 -108s-190 36 -263 108c-72 72 -108 159 -108 262s36 190 108 263c73 73 160 109 263 109s190 -36 262 -109c72 -72 108 -160 108 -263zM407 649c-80 0 -148 -29 -205 -86s-85 -126 -85 -207c0 -80 28 -149 85 -206
s125 -86 205 -86c79 0 147 29 203 86s84 126 84 206c0 81 -28 150 -84 207s-124 86 -203 86zM363 501c25 -25 25 -69 0 -94s-69 -25 -94 0s-25 69 0 94c25 27 69 27 94 0zM544 501c25 -25 25 -69 0 -94s-69 -25 -94 0s-25 69 0 94c25 27 69 27 94 0zM603 180h-78
c-4 31 -18 55 -42 74c-23 19 -49 29 -76 29c-57 0 -112 -40 -120 -103h-78c7 52 29 94 66 127c38 33 82 49 132 49c49 0 93 -17 130 -50s59 -75 66 -126z" />
    <glyph glyph-name="smileface" unicode="&#x263a;" horiz-adv-x="813" 
d="M777 356c0 -103 -36 -190 -108 -262s-159 -108 -262 -108s-190 36 -263 108c-72 72 -108 159 -108 262s36 190 108 263c73 73 160 109 263 109s190 -36 262 -109c72 -72 108 -160 108 -263zM407 649c-80 0 -148 -29 -205 -86s-85 -126 -85 -207c0 -80 28 -149 85 -206
s125 -86 205 -86c79 0 147 29 203 86s84 126 84 206c0 81 -28 150 -84 207s-124 86 -203 86zM363 501c25 -25 25 -69 0 -94s-69 -25 -94 0s-25 69 0 94c25 27 69 27 94 0zM544 501c25 -25 25 -69 0 -94s-69 -25 -94 0s-25 69 0 94c25 27 69 27 94 0zM525 332h78
c-7 -51 -29 -94 -67 -127c-37 -33 -80 -50 -129 -50c-50 0 -94 16 -132 49c-37 33 -59 76 -66 128h78c8 -63 63 -103 120 -103c27 0 53 9 76 28c24 19 38 44 42 75z" />
    <glyph glyph-name="invsmileface" unicode="&#x263b;" horiz-adv-x="813" 
d="M777 356c0 -103 -36 -190 -108 -262s-159 -108 -262 -108s-190 36 -263 108c-72 72 -108 159 -108 262s36 190 108 263c73 73 160 109 263 109s190 -36 262 -109c72 -72 108 -160 108 -263zM363 407c25 25 25 69 0 94c-25 27 -69 27 -94 0c-25 -25 -25 -69 0 -94
s69 -25 94 0zM544 407c25 25 25 69 0 94c-25 27 -69 27 -94 0c-25 -25 -25 -69 0 -94s69 -25 94 0zM603 332h-78c-4 -31 -18 -56 -42 -75c-23 -19 -49 -28 -76 -28c-57 0 -112 40 -120 103h-78c7 -52 29 -95 66 -128c38 -33 82 -49 132 -49c49 0 92 17 129 50
c38 33 60 76 67 127z" />
    <glyph glyph-name="heart" unicode="&#x2665;" horiz-adv-x="872" 
d="M3 480c0 65 22 119 65 163c44 44 98 66 163 66c77 0 146 -39 178 -106c32 69 102 106 181 106c63 0 117 -22 160 -67s65 -99 65 -162c0 -81 -40 -169 -95 -237c-27 -34 -60 -68 -98 -102c-75 -67 -138 -111 -213 -155c-75 44 -138 88 -214 155c-37 34 -70 68 -97 102
c-55 68 -95 156 -95 237z" />
    <glyph glyph-name="uni2713" unicode="&#x2713;" horiz-adv-x="942" 
d="M834 713l75 -73l-602 -653l-290 319l75 71l218 -236z" />
    <glyph glyph-name="uni2715" unicode="&#x2715;" horiz-adv-x="755" 
d="M303 355l-282 282l74 72l281 -280l279 280l73 -72l-279 -282l284 -284l-72 -73l-285 283l-282 -283l-73 73z" />
    <glyph glyph-name="uni2E18" unicode="&#x2e18;" horiz-adv-x="530" 
d="M289 541c43 0 78 -34 78 -78s-35 -79 -78 -79s-79 35 -79 79s35 78 79 78zM405 -63l93 -57c-41 -84 -120 -140 -236 -140c-65 0 -120 20 -164 60c-43 39 -65 90 -65 151c0 37 13 75 40 112c20 27 49 57 87 91c55 47 76 75 76 126v36h108l8 -357h-120l3 115
c-59 -52 -80 -85 -80 -132c0 -56 43 -95 108 -95c62 0 109 30 142 90z" />
    <glyph glyph-name="uniE09D" unicode="&#xe09d;" horiz-adv-x="781" 
d="M736 429h-131v-238c0 -64 31 -89 92 -89c12 0 25 1 38 4v-101c-19 -7 -41 -11 -64 -11c-117 0 -185 62 -185 178v257h-241v-429h-120v429h-98v105h98v75c0 132 79 208 210 208c18 0 36 -3 55 -8v-102c-12 3 -26 4 -43 4c-68 0 -102 -35 -102 -106v-71h241v165h119v-165
h131v-105z" />
    <glyph glyph-name="at.case" unicode="&#xf633;" horiz-adv-x="867" 
d="M624 192c-47 0 -93 25 -112 62c-28 -39 -78 -61 -118 -61c-46 0 -85 17 -116 52s-47 73 -47 115c0 63 19 116 58 161s88 67 145 67c35 0 79 -17 96 -58l10 55h110l-42 -249c-7 -41 4 -61 35 -61c29 0 56 17 81 52c26 35 39 76 39 125c0 79 -28 144 -85 197
s-129 79 -218 79c-93 0 -174 -33 -241 -100s-100 -147 -100 -242c0 -91 30 -169 91 -233s142 -96 244 -96c77 0 147 23 210 69l35 -54c-27 -24 -65 -44 -112 -59s-91 -22 -133 -22c-117 0 -214 38 -289 113c-75 76 -113 170 -113 282c-5 221 191 412 407 407
c105 0 193 -32 264 -97c71 -64 106 -145 106 -243c0 -77 -20 -139 -61 -188s-89 -73 -144 -73zM445 485c-28 0 -52 -12 -72 -35c-19 -23 -29 -48 -28 -77c1 -40 30 -78 73 -78c27 0 49 12 68 35c19 24 29 51 29 81c0 44 -29 74 -70 74z" />
    <glyph glyph-name="dollar.lowercase" unicode="&#xf653;" horiz-adv-x="502" 
d="M455 157c0 -81 -58 -144 -149 -161v-98h-114v98c-74 14 -127 57 -160 129l93 52c29 -57 71 -86 128 -86c45 0 84 23 84 59c0 31 -37 55 -110 70c-59 12 -104 33 -133 64c-25 27 -38 59 -38 97c0 77 57 136 136 157v99h114v-97c67 -13 115 -51 144 -115l-92 -52
c-24 48 -61 72 -112 72c-37 0 -75 -23 -75 -52c0 -35 30 -53 99 -68c121 -27 185 -85 185 -168z" />
    <glyph glyph-name="commaaccent" unicode="&#xf6c3;" horiz-adv-x="0" 
d="M68 -326l-42 38c35 25 60 57 77 94c-6 -3 -14 -4 -23 -4c-33 0 -60 27 -60 63c0 39 29 68 69 68s73 -37 73 -89v-3c0 -63 -37 -127 -94 -167z" />
    <glyph glyph-name="uniF730" unicode="&#xf730;" horiz-adv-x="649" 
d="M326 545c77 0 142 -26 195 -79s80 -118 80 -196c0 -79 -27 -145 -80 -199c-53 -53 -118 -80 -196 -80s-144 26 -197 79s-80 119 -80 198s27 144 80 197c54 53 120 80 198 80zM168 270c0 -47 14 -88 43 -122c29 -33 68 -50 115 -50s85 16 112 49c28 33 42 73 42 121
s-14 88 -42 120c-28 33 -66 49 -113 49s-85 -16 -114 -48c-29 -31 -43 -71 -43 -119z" />
    <glyph glyph-name="uniF731" unicode="&#xf731;" horiz-adv-x="398" 
d="M16 426l178 108h117v-534h-121v411l-121 -73z" />
    <glyph glyph-name="uniF732" unicode="&#xf732;" horiz-adv-x="515" 
d="M50 0v93l197 159c35 29 59 51 71 66s18 33 18 52c0 39 -29 69 -78 69c-46 0 -80 -29 -101 -86l-103 43c27 93 104 148 204 148c57 0 104 -16 141 -47c38 -31 57 -71 57 -121c0 -40 -11 -75 -32 -104s-56 -62 -104 -100l-87 -68h226v-104h-409z" />
    <glyph glyph-name="uniF733" unicode="&#xf733;" horiz-adv-x="510" 
d="M249 -6c-102 0 -172 46 -209 138l100 49c24 -55 61 -82 110 -82s85 29 85 60c0 33 -32 62 -84 62h-53v104h49c97 -1 106 119 0 114c-43 0 -76 -26 -98 -79l-101 46c31 87 100 138 200 138c59 0 106 -15 141 -44c36 -29 54 -65 54 -108c0 -52 -25 -90 -76 -115v-1
c59 -23 88 -62 88 -118c0 -46 -20 -85 -59 -117c-39 -31 -88 -47 -147 -47z" />
    <glyph glyph-name="uniF734" unicode="&#xf734;" horiz-adv-x="552" 
d="M38 110v127l240 297h147v-322h82v-102h-82v-110h-116v110h-271zM142 212h167v205z" />
    <glyph glyph-name="uniF735" unicode="&#xf735;" horiz-adv-x="508" 
d="M432 432h-236l-18 -111c27 23 60 34 97 34c49 0 92 -16 128 -49c37 -32 55 -75 55 -129c0 -57 -21 -101 -62 -134s-91 -49 -150 -49c-97 0 -165 44 -202 132l98 55c24 -55 59 -82 106 -82c51 0 90 30 90 77c0 49 -37 79 -88 79c-35 0 -67 -16 -97 -47l-94 36l44 290h329
v-102z" />
    <glyph glyph-name="uniF736" unicode="&#xf736;" horiz-adv-x="528" 
d="M304 442c-72 0 -122 -52 -135 -140h1c27 37 74 58 119 58c56 0 102 -17 139 -50s55 -77 55 -130c0 -55 -21 -99 -63 -134c-41 -35 -91 -52 -148 -52c-62 0 -114 20 -157 59c-43 41 -65 107 -65 198c0 147 75 293 254 293c62 0 119 -22 172 -66l-59 -85
c-45 36 -72 49 -113 49zM271 260c-53 0 -97 -36 -97 -81c0 -51 40 -82 97 -82c55 0 94 32 94 80c0 49 -38 83 -94 83z" />
    <glyph glyph-name="uniF737" unicode="&#xf737;" horiz-adv-x="471" 
d="M37 534h400v-103l-229 -431h-129l229 431h-271v103z" />
    <glyph glyph-name="uniF738" unicode="&#xf738;" horiz-adv-x="522" 
d="M458 393c0 -49 -42 -101 -90 -117c61 -21 102 -66 102 -127c0 -52 -21 -91 -63 -118s-91 -40 -146 -40c-56 0 -105 13 -147 40s-63 66 -63 118c0 61 42 106 103 127c-48 16 -90 68 -90 117c0 47 20 84 61 111s87 41 136 41s94 -14 135 -41s62 -64 62 -111zM320 337
c36 23 36 71 -1 94c-36 23 -80 23 -117 0c-36 -23 -36 -71 0 -94c36 -21 82 -21 118 0zM358 157c0 45 -49 70 -97 70s-98 -25 -98 -70c0 -43 50 -69 98 -69s97 26 97 69z" />
    <glyph glyph-name="uniF739" unicode="&#xf739;" horiz-adv-x="529" 
d="M230 96c69 0 115 51 130 140h-1c-27 -37 -74 -58 -119 -58c-56 0 -102 16 -139 49s-55 76 -55 131c0 53 21 98 62 133c42 35 92 53 149 53c63 0 116 -20 157 -59c43 -41 65 -107 65 -198c0 -147 -73 -293 -249 -293c-76 0 -121 20 -178 69l58 85c45 -39 75 -52 120 -52z
M259 278c53 0 96 35 96 80c0 51 -39 83 -96 83c-55 0 -94 -33 -94 -81c0 -52 37 -82 94 -82z" />
    <glyph glyph-name="Aring.alt" horiz-adv-x="783" 
d="M245 990c0 38 14 70 43 97s63 41 102 41c40 0 74 -14 103 -41s43 -59 43 -97c0 -39 -14 -72 -43 -99s-63 -40 -103 -40s-74 13 -103 40c-28 27 -42 60 -42 99zM390 1054c-39 0 -68 -28 -68 -64s31 -66 68 -66c39 0 68 30 68 66c0 33 -32 64 -68 64zM0 0l319 783h145
l317 -783h-128l-71 184h-384l-72 -184h-126zM390 665l-148 -372h297z" />
    <glyph glyph-name="OE.alt" horiz-adv-x="1135" 
d="M1077 112v-112h-613c-289 0 -416 210 -416 391c0 67 17 136 60 207c61 103 179 184 358 185h607v-111h-369v-218h335v-111h-335v-231h373zM581 114v555h-113c-99 0 -179 -38 -224 -94c-44 -55 -67 -119 -67 -180c0 -68 23 -134 68 -190c45 -55 125 -91 224 -91h112z" />
    <glyph glyph-name="Q.alt" horiz-adv-x="899" 
d="M875 104v-104h-431c-113 0 -207 37 -283 112c-75 75 -113 169 -113 282c0 112 39 207 117 284s172 116 282 116c111 0 204 -38 281 -115c77 -76 116 -170 116 -282c0 -125 -57 -227 -166 -290v-3h197zM175 396c0 -79 26 -146 78 -201c53 -55 117 -82 193 -82
c51 0 97 13 140 39c80 51 130 143 130 244c0 79 -26 147 -79 202c-52 55 -116 83 -192 83s-140 -28 -192 -83s-78 -122 -78 -202z" />
    <glyph glyph-name="O.slash" horiz-adv-x="900" 
d="M451 794c112 0 207 -38 284 -115c78 -77 117 -172 117 -286s-39 -210 -118 -287s-174 -115 -286 -115s-207 38 -284 113c-77 76 -116 171 -116 286c0 113 39 209 118 287s174 117 285 117zM450 680c-77 0 -141 -28 -194 -84c-53 -55 -79 -123 -79 -203
c0 -63 17 -119 51 -169l362 416c-44 27 -91 40 -140 40zM450 105c76 0 140 28 193 84s80 124 80 204c0 63 -18 119 -53 169l-361 -416c43 -27 90 -41 141 -41z" />
    <glyph glyph-name="a.alt" horiz-adv-x="681" 
d="M43 268c0 72 24 136 73 192s114 84 193 84c29 0 60 -7 93 -22c34 -14 61 -36 81 -66v78h118v-534h-118v81c-19 -31 -47 -53 -82 -68c-35 -14 -67 -21 -95 -21c-75 0 -138 27 -188 82s-75 120 -75 194zM324 437c-47 0 -86 -16 -116 -49c-29 -33 -44 -73 -44 -120
s15 -87 44 -120c30 -32 69 -48 116 -48s86 16 115 48c30 33 45 73 45 120s-15 87 -45 120s-68 49 -115 49z" />
    <glyph glyph-name="aacute.alt" horiz-adv-x="681" 
d="M375 625h-103l103 172h145zM43 268c0 72 24 136 73 192s114 84 193 84c29 0 60 -7 93 -22c34 -14 61 -36 81 -66v78h118v-534h-118v81c-19 -31 -47 -53 -82 -68c-35 -14 -67 -21 -95 -21c-75 0 -138 27 -188 82s-75 120 -75 194zM324 437c-47 0 -86 -16 -116 -49
c-29 -33 -44 -73 -44 -120s15 -87 44 -120c30 -32 69 -48 116 -48s86 16 115 48c30 33 45 73 45 120s-15 87 -45 120s-68 49 -115 49z" />
    <glyph glyph-name="abreve.alt" horiz-adv-x="681" 
d="M322 623c-97 0 -174 61 -182 170h101c4 -55 33 -85 81 -85s78 30 82 85h100c-9 -105 -81 -170 -182 -170zM43 268c0 72 24 136 73 192s114 84 193 84c29 0 60 -7 93 -22c34 -14 61 -36 81 -66v78h118v-534h-118v81c-19 -31 -47 -53 -82 -68c-35 -14 -67 -21 -95 -21
c-75 0 -138 27 -188 82s-75 120 -75 194zM324 437c-47 0 -86 -16 -116 -49c-29 -33 -44 -73 -44 -120s15 -87 44 -120c30 -32 69 -48 116 -48s86 16 115 48c30 33 45 73 45 120s-15 87 -45 120s-68 49 -115 49z" />
    <glyph glyph-name="acaron.alt" horiz-adv-x="681" 
d="M253 797l69 -92l74 92h114l-144 -172h-93l-138 172h118zM43 268c0 72 24 136 73 192s114 84 193 84c29 0 60 -7 93 -22c34 -14 61 -36 81 -66v78h118v-534h-118v81c-19 -31 -47 -53 -82 -68c-35 -14 -67 -21 -95 -21c-75 0 -138 27 -188 82s-75 120 -75 194zM324 437
c-47 0 -86 -16 -116 -49c-29 -33 -44 -73 -44 -120s15 -87 44 -120c30 -32 69 -48 116 -48s86 16 115 48c30 33 45 73 45 120s-15 87 -45 120s-68 49 -115 49z" />
    <glyph glyph-name="acircumflex.alt" horiz-adv-x="681" 
d="M273 797h94l143 -172h-114l-73 92l-70 -92h-118zM43 268c0 72 24 136 73 192s114 84 193 84c29 0 60 -7 93 -22c34 -14 61 -36 81 -66v78h118v-534h-118v81c-19 -31 -47 -53 -82 -68c-35 -14 -67 -21 -95 -21c-75 0 -138 27 -188 82s-75 120 -75 194zM324 437
c-47 0 -86 -16 -116 -49c-29 -33 -44 -73 -44 -120s15 -87 44 -120c30 -32 69 -48 116 -48s86 16 115 48c30 33 45 73 45 120s-15 87 -45 120s-68 49 -115 49z" />
    <glyph glyph-name="adieresis.alt" horiz-adv-x="681" 
d="M198 771c41 0 75 -35 75 -75c4 -64 -85 -101 -128 -53c-45 43 -13 132 53 128zM420 621c-43 0 -75 32 -75 75c0 41 32 75 75 75c41 0 75 -35 75 -75c0 -41 -34 -75 -75 -75zM43 268c0 72 24 136 73 192s114 84 193 84c29 0 60 -7 93 -22c34 -14 61 -36 81 -66v78h118
v-534h-118v81c-19 -31 -47 -53 -82 -68c-35 -14 -67 -21 -95 -21c-75 0 -138 27 -188 82s-75 120 -75 194zM324 437c-47 0 -86 -16 -116 -49c-29 -33 -44 -73 -44 -120s15 -87 44 -120c30 -32 69 -48 116 -48s86 16 115 48c30 33 45 73 45 120s-15 87 -45 120
s-68 49 -115 49z" />
    <glyph glyph-name="agrave.alt" horiz-adv-x="681" 
d="M125 797h146l103 -172h-103zM43 268c0 72 24 136 73 192s114 84 193 84c29 0 60 -7 93 -22c34 -14 61 -36 81 -66v78h118v-534h-118v81c-19 -31 -47 -53 -82 -68c-35 -14 -67 -21 -95 -21c-75 0 -138 27 -188 82s-75 120 -75 194zM324 437c-47 0 -86 -16 -116 -49
c-29 -33 -44 -73 -44 -120s15 -87 44 -120c30 -32 69 -48 116 -48s86 16 115 48c30 33 45 73 45 120s-15 87 -45 120s-68 49 -115 49z" />
    <glyph glyph-name="amacron.alt" horiz-adv-x="681" 
d="M149 730h347v-95h-347v95zM43 268c0 72 24 136 73 192s114 84 193 84c29 0 60 -7 93 -22c34 -14 61 -36 81 -66v78h118v-534h-118v81c-19 -31 -47 -53 -82 -68c-35 -14 -67 -21 -95 -21c-75 0 -138 27 -188 82s-75 120 -75 194zM324 437c-47 0 -86 -16 -116 -49
c-29 -33 -44 -73 -44 -120s15 -87 44 -120c30 -32 69 -48 116 -48s86 16 115 48c30 33 45 73 45 120s-15 87 -45 120s-68 49 -115 49z" />
    <glyph glyph-name="aogonek.alt" horiz-adv-x="681" 
d="M483 534h118v-534c-55 -41 -83 -77 -83 -106c0 -36 26 -54 77 -54h2v-82c-17 -1 -30 -2 -37 -2c-83 0 -146 40 -146 109c0 41 31 86 94 135h-25v81c-19 -31 -47 -53 -82 -68c-35 -14 -67 -21 -95 -21c-75 0 -138 27 -188 82s-75 120 -75 194c0 72 24 136 73 192
s114 84 193 84c29 0 60 -7 93 -22c34 -14 61 -36 81 -66v78zM324 437c-47 0 -86 -16 -116 -49c-29 -33 -44 -73 -44 -120s15 -87 44 -120c30 -32 69 -48 116 -48s86 16 115 48c30 33 45 73 45 120s-15 87 -45 120s-68 49 -115 49z" />
    <glyph glyph-name="aring.alt" horiz-adv-x="681" 
d="M321 603c-39 0 -73 13 -102 40s-43 60 -43 99c0 38 14 70 43 97s63 41 102 41c41 0 75 -14 103 -41c29 -27 43 -59 43 -97c0 -39 -14 -72 -43 -99c-28 -27 -62 -40 -103 -40zM322 806c-60 3 -93 -72 -49 -111c40 -42 121 -9 117 47c0 33 -32 64 -68 64zM43 268
c0 72 24 136 73 192s114 84 193 84c29 0 60 -7 93 -22c34 -14 61 -36 81 -66v78h118v-534h-118v81c-19 -31 -47 -53 -82 -68c-35 -14 -67 -21 -95 -21c-75 0 -138 27 -188 82s-75 120 -75 194zM324 437c-47 0 -86 -16 -116 -49c-29 -33 -44 -73 -44 -120s15 -87 44 -120
c30 -32 69 -48 116 -48s86 16 115 48c30 33 45 73 45 120s-15 87 -45 120s-68 49 -115 49z" />
    </font>
</defs>
</svg>
