<svg width="86" height="52" viewBox="0 0 86 52" fill="none" xmlns="http://www.w3.org/2000/svg">
<g clip-path="url(#clip0)">
<path d="M24.2246 18.8862C24.2246 19.9561 24.339 20.8237 24.5392 21.4599C24.768 22.0961 25.054 22.7901 25.4544 23.542C25.5974 23.7733 25.6546 24.0047 25.6546 24.2071C25.6546 24.4963 25.483 24.7854 25.1112 25.0746L23.3094 26.2892C23.052 26.4627 22.7946 26.5494 22.5658 26.5494C22.2798 26.5494 21.9938 26.4048 21.7078 26.1446C21.3074 25.7108 20.9642 25.2481 20.6782 24.7854C20.3922 24.2938 20.1062 23.7444 19.7916 23.0793C17.5608 25.7397 14.758 27.07 11.3833 27.07C8.98086 27.07 7.06467 26.3759 5.66327 24.9879C4.26187 23.5998 3.54688 21.749 3.54688 19.4356C3.54688 16.9776 4.40487 14.9822 6.14947 13.4785C7.89407 11.9747 10.2107 11.2229 13.1565 11.2229C14.1289 11.2229 15.1298 11.3096 16.188 11.4542C17.2462 11.5988 18.333 11.8302 19.477 12.0904V9.97941C19.477 7.78164 19.0194 6.24898 18.1328 5.35252C17.2176 4.45606 15.6732 4.02229 13.4711 4.02229C12.4701 4.02229 11.4405 4.13796 10.3823 4.39823C9.32406 4.65849 8.29446 4.97659 7.29347 5.38144C6.83587 5.58387 6.49267 5.69954 6.29247 5.75737C6.09227 5.81521 5.94927 5.84413 5.83487 5.84413C5.43447 5.84413 5.23427 5.55495 5.23427 4.94767V3.53069C5.23427 3.068 5.29147 2.72098 5.43447 2.51855C5.57747 2.31613 5.83487 2.1137 6.23527 1.91128C7.23627 1.39075 8.43746 0.956981 9.83886 0.609964C11.2403 0.23403 12.7275 0.0605216 14.3005 0.0605216C17.7038 0.0605216 20.192 0.841308 21.7936 2.40288C23.3666 3.96446 24.1674 6.33573 24.1674 9.51672V18.8862H24.2246ZM12.6131 23.2817C13.5569 23.2817 14.5293 23.1082 15.5588 22.7612C16.5884 22.4142 17.5036 21.778 18.2758 20.9104C18.7334 20.361 19.0766 19.7537 19.2482 19.0597C19.4198 18.3656 19.5342 17.527 19.5342 16.5438V15.3292C18.7048 15.1268 17.8182 14.9533 16.903 14.8376C15.9878 14.722 15.1012 14.6641 14.2147 14.6641C12.2985 14.6641 10.8971 15.0401 9.95326 15.8208C9.00946 16.6016 8.55186 17.7005 8.55186 19.1464C8.55186 20.5056 8.89506 21.5177 9.61006 22.2117C10.2965 22.9347 11.2975 23.2817 12.6131 23.2817ZM35.5788 26.4048C35.064 26.4048 34.7208 26.3181 34.492 26.1157C34.2632 25.9422 34.063 25.5373 33.8914 24.9879L27.1704 2.63423C26.9988 2.05587 26.913 1.67993 26.913 1.47751C26.913 1.01482 27.1418 0.754554 27.5994 0.754554H30.4022C30.9456 0.754554 31.3174 0.841308 31.5176 1.04373C31.7464 1.21724 31.918 1.6221 32.0896 2.17154L36.8944 21.3153L41.356 2.17154C41.499 1.59318 41.6706 1.21724 41.8994 1.04373C42.1282 0.870226 42.5286 0.754554 43.0434 0.754554H45.3314C45.8748 0.754554 46.2466 0.841308 46.4754 1.04373C46.7042 1.21724 46.9044 1.6221 47.0188 2.17154L51.5376 21.5466L56.4854 2.17154C56.657 1.59318 56.8572 1.21724 57.0574 1.04373C57.2862 0.870226 57.658 0.754554 58.1728 0.754554H60.8325C61.2901 0.754554 61.5475 0.985899 61.5475 1.47751C61.5475 1.6221 61.5189 1.76669 61.4903 1.94019C61.4617 2.1137 61.4045 2.34505 61.2901 2.66314L54.3976 25.0168C54.226 25.5951 54.0258 25.9711 53.797 26.1446C53.5682 26.3181 53.1964 26.4338 52.7102 26.4338H50.2506C49.7072 26.4338 49.3354 26.347 49.1066 26.1446C48.8778 25.9422 48.6776 25.5662 48.5632 24.9879L44.1302 6.33573L39.7258 24.9589C39.5828 25.5373 39.4112 25.9132 39.1824 26.1157C38.9536 26.3181 38.5532 26.4048 38.0384 26.4048H35.5788ZM72.3297 27.1856C70.8425 27.1856 69.3553 27.0121 67.9253 26.6651C66.4953 26.3181 65.3799 25.9422 64.6363 25.5084C64.1787 25.2481 63.8641 24.9589 63.7497 24.6987C63.6353 24.4384 63.5781 24.1492 63.5781 23.889V22.4142C63.5781 21.8069 63.8069 21.5177 64.2359 21.5177C64.4075 21.5177 64.5791 21.5466 64.7507 21.6045C64.9223 21.6623 65.1797 21.778 65.4657 21.8936C66.4381 22.3274 67.4963 22.6744 68.6117 22.9058C69.7557 23.1371 70.8711 23.2528 72.0151 23.2528C73.8169 23.2528 75.2183 22.9347 76.1907 22.2985C77.1631 21.6623 77.6779 20.7369 77.6779 19.5513C77.6779 18.7416 77.4205 18.0765 76.9057 17.527C76.3909 16.9776 75.4185 16.486 74.0171 16.0233L69.8701 14.722C67.7823 14.0568 66.2379 13.0736 65.2941 11.7723C64.3503 10.4999 63.8641 9.08295 63.8641 7.57921C63.8641 6.36465 64.1215 5.29469 64.6363 4.36931C65.1511 3.44393 65.8375 2.63423 66.6955 1.99803C67.5535 1.33291 68.5259 0.841308 69.6699 0.494292C70.8139 0.147276 72.0151 0.00268555 73.2735 0.00268555C73.9027 0.00268555 74.5605 0.0316036 75.1897 0.118358C75.8475 0.205112 76.4481 0.320784 77.0487 0.436456C77.6207 0.581046 78.1641 0.725636 78.6789 0.899144C79.1937 1.07265 79.5941 1.24616 79.8801 1.41967C80.2805 1.65101 80.5665 1.88236 80.7381 2.14262C80.9097 2.37396 80.9955 2.69206 80.9955 3.09691V4.45606C80.9955 5.06334 80.7667 5.38144 80.3377 5.38144C80.1089 5.38144 79.7371 5.26577 79.2509 5.03442C77.6207 4.28255 75.7903 3.90662 73.7597 3.90662C72.1295 3.90662 70.8425 4.16688 69.9559 4.71632C69.0693 5.26577 68.6117 6.10439 68.6117 7.29003C68.6117 8.09973 68.8977 8.79377 69.4697 9.34321C70.0417 9.89265 71.0999 10.4421 72.6157 10.9337L76.6769 12.235C78.7361 12.9001 80.2233 13.8255 81.1099 15.0111C81.9965 16.1968 82.4255 17.5559 82.4255 19.0597C82.4255 20.3031 82.1681 21.4309 81.6819 22.4142C81.1671 23.3974 80.4807 24.2649 79.5941 24.9589C78.7075 25.6819 77.6493 26.2024 76.4195 26.5784C75.1325 26.9832 73.7883 27.1856 72.3297 27.1856Z" fill="#252F3E"/>
<path d="M77.734 41.2398C68.3246 48.2669 54.6539 51.9974 42.8993 51.9974C26.4257 51.9974 11.5824 45.8378 0.37119 35.6008C-0.515408 34.7911 0.285391 33.6922 1.34359 34.3284C13.47 41.4423 28.4277 45.7511 43.9003 45.7511C54.3393 45.7511 65.8078 43.5533 76.3612 39.0421C77.9342 38.3191 79.2784 40.0831 77.734 41.2398Z" fill="#FF9900"/>
<path d="M81.6531 36.7287C80.452 35.1672 73.7024 35.9769 70.6422 36.3528C69.727 36.4685 69.584 35.6588 70.4134 35.0515C75.7902 31.2343 84.6275 32.3332 85.6571 33.6056C86.6867 34.9069 85.3711 43.8426 80.3376 48.1224C79.5654 48.7875 78.8218 48.4405 79.165 47.573C80.309 44.7101 82.8543 38.2614 81.6531 36.7287Z" fill="#FF9900"/>
</g>
<defs>
<clipPath id="clip0">
<rect width="86" height="52" fill="white"/>
</clipPath>
</defs>
</svg>
