<?xml version="1.0" encoding="utf-8"?>
<!-- Generator: Adobe Illustrator 19.0.0, SVG Export Plug-In . SVG Version: 6.00 Build 0)  -->
<svg version="1.1" id="Ebene_1" xmlns="http://www.w3.org/2000/svg" xmlns:xlink="http://www.w3.org/1999/xlink" x="0px" y="0px"
     width="175.2px" height="500px" viewBox="0 0 175.2 500" style="enable-background:new 0 0 175.2 500;" xml:space="preserve">
<style type="text/css">
    .st0{fill:#213B8B;}
</style>
<g id="XMLID_2_">
    <path id="XMLID_15_" class="st0" d="M166,426.5c0,20.5,0,40.6,0,60.8c-0.8,0.1-1.5,0.2-2.2,0.2c-18-0.1-36.1,0.1-54.1-0.5
        c-18-0.6-35.3-4.2-51.3-12.8c-23.4-12.6-37.3-32.6-44-57.9c-3.5-13.2-5.1-26.6-5.1-40.2c-0.1-84.1-0.1-168.1,0-252.2
        c0-20.1,3-39.7,11.5-58.2C32.9,39.6,53.7,24,81.1,16.8c11.7-3.1,23.7-4.3,35.8-4.3c15.2,0,30.4,0,45.6,0c1.1,0,2.2,0,3.5,0
        c0,20.3,0,40.5,0,61.1c-1.2,0-2.3,0-3.4,0c-14.2,0-28.4,0-42.5,0c-27.6,0-48.5,19.9-49.9,47.5c-0.1,2.7-0.2,5.5-0.2,8.2
        c0,81.5,0,163.1,0,244.6c0,11.9,2.8,22.8,10,32.4c9.7,13,22.7,19.4,38.8,19.6c15.1,0.1,30.2,0.3,45.3,0.4
        C164.7,426.3,165.3,426.4,166,426.5z"/>
</g>
</svg>
