<svg width="100%" xmlns="http://www.w3.org/2000/svg" viewBox="0 0 122.86 84.8"><defs><style>.cls-1{fill-rule:evenodd;}</style></defs><title>Asset 1</title><g id="Layer_2" data-name="Layer 2"><g id="Layer_1-2" data-name="Layer 1"><path class="cls-1" d="M118.27,10.9a15.63,15.63,0,0,1,4.41,8.72,24.26,24.26,0,0,1,.18,3.7V44.41c0,1.14,0,2.27-.07,3.41a15.69,15.69,0,0,1-7.06,11.64c-5,3.27-10.8,2.52-16.83,2.52,2,5.48,6,10.54,10.33,14.37l-1.62,3,0,0C97.07,76.67,86,70.47,79.27,62a88.66,88.66,0,0,1-11.74-.55A30.33,30.33,0,0,1,52.12,66,52.62,52.62,0,0,1,39.93,77.13a57.23,57.23,0,0,1-17,7.45,7.48,7.48,0,0,1-.94.2A3.49,3.49,0,0,1,19.3,78.7a26.62,26.62,0,0,0,8-12.67c-8,0-14.62.84-21.1-5.63C-1.9,52.3.11,33.47.52,22.17c.13-3.63-.12-6,1.33-9.81A19.13,19.13,0,0,1,12.56,1.45C17.17-.41,22.18.05,27,.05H56.59a24.87,24.87,0,0,1,6.16.51A19,19,0,0,1,72.53,6.3h34.12a15.57,15.57,0,0,1,11.62,4.59ZM99.91,42.79h-9L89.7,47.25h-8q4-11.4,8.08-22.82c1-2.75,2.07-7.3,5.6-7.3s4.87,4.17,5.89,7.05l8.18,23.06h-8.24l-1.26-4.45Zm-1.65-5.85-2.82-9.72-2.8,9.72ZM83.13,71.66,77.3,66.84l-7.28,9L59.45,66.66l-5,5.64,11.45,9.11,9.28-.8,7.94-9Zm-6.5-61.8c3.42,13.31,7.07,36.69-2.11,48.53,2.17,0,4.31,0,6.48,0A46.41,46.41,0,0,0,99.68,72.87c.7.31,1.41.62,2.12.9a37,37,0,0,1-6.16-10.33,42.74,42.74,0,0,1-1.44-5c2,0,4,0,6.09.09,4.53.16,9.3.29,13.07-1.82a11.5,11.5,0,0,0,4-3.75,12.18,12.18,0,0,0,1.83-4.67,25.27,25.27,0,0,0,.14-4V22.63c0-.57,0-1.09,0-1.66A12.13,12.13,0,0,0,108.43,9.91c-.73-.07-1.45-.06-2.18-.06ZM21.19,13.49H34.63V9.7h6v3.79H54.12v6.22H51.35a28.22,28.22,0,0,1-1.19,5.21h0a32.73,32.73,0,0,1-2.28,5.25,46.87,46.87,0,0,1-6,8.5A60.6,60.6,0,0,0,56,50.7l-3.09,4.81A67,67,0,0,1,37.94,42.84a96,96,0,0,1-12.17,9.85L22.52,48a89.8,89.8,0,0,0,11.92-9.71A54.28,54.28,0,0,1,27,22.07l5.51-1.54a49.12,49.12,0,0,0,5.93,13.41,40.3,40.3,0,0,0,4.42-6.46,27.33,27.33,0,0,0,1.88-4.35h0a22.17,22.17,0,0,0,.84-3.42H21.19V13.49Z"/></g></g></svg>