<svg width="100" height="123" viewBox="0 0 100 123" fill="none" xmlns="http://www.w3.org/2000/svg">
<g clip-path="url(#clip0)">
<path fill-rule="evenodd" clip-rule="evenodd" d="M3.67025 0H98.112C98.6121 0.00263169 99.091 0.247905 99.4446 0.68242C99.7983 1.11694 99.9979 1.70551 100 2.32V10.18C99.9979 10.7945 99.7983 11.3831 99.4446 11.8176C99.091 12.2521 98.6121 12.4974 98.112 12.5H96.7448V72.81C96.7431 73.253 96.6703 73.6912 96.5307 74.0995C96.3911 74.5079 96.1873 74.8785 95.931 75.19C95.6762 75.5057 95.3733 75.7565 95.0396 75.9281C94.7058 76.0997 94.3478 76.1887 93.986 76.19H74.5606V80.68H70.5566V87.68C69.499 85.4462 68.044 83.5352 66.3005 82.09C64.4721 80.5691 62.312 79.7637 60.1042 79.7798C57.8964 79.7959 55.7442 80.6326 53.9307 82.18C51.6505 84.1474 49.8792 86.8794 48.8281 90.05H41.805L41.3981 89.87C39.0598 88.8567 36.5098 88.8567 34.1716 89.87L33.7647 90.05H31.2012V80.67H27.1973V76.18H7.78809C7.4263 76.1787 7.06828 76.0897 6.73453 75.9181C6.40077 75.7465 6.09785 75.4957 5.8431 75.18L5.69661 75C5.26124 74.392 5.02111 73.6099 5.02116 72.8V12.5H3.67025C3.17017 12.4974 2.69119 12.2521 2.33758 11.8176C1.98397 11.3831 1.78437 10.7945 1.78223 10.18V2.32C1.78223 1.7047 1.98114 1.1146 2.33522 0.679512C2.68929 0.244428 3.16951 0 3.67025 0V0ZM53.8249 108.12C45.638 108.12 51.0254 108.91 52.1403 97.97C53.8086 81.61 66.4632 81.61 68.335 97.97C69.5313 108.49 74.6663 108.12 66.6504 108.12H63.4766C63.4766 110.8 63.1266 112.12 65.389 113.67C66.5446 114.44 68.693 115.01 70.5241 115.9C73.3236 112.96 78.2959 114.9 78.8086 109.51C78.89 108.69 77.3112 105.51 76.9531 104.06C76.5243 103.245 76.2795 102.304 76.2438 101.334C76.208 100.364 76.3826 99.3998 76.7497 98.54C77.0833 97.9 76.945 95.54 76.945 94.71C76.945 86 89.3717 85.99 89.3717 94.71C89.3717 95.81 89.1683 97.84 89.6484 98.71C90.4622 100.16 90.0391 102.71 89.3555 104.07C88.916 105.65 87.2396 108.63 87.3861 109.52C88.5905 117.06 96.9564 108.99 96.9564 122.52H0C0 108.73 10.5794 116.36 11.3932 107.91C11.4827 106.99 9.7168 103.48 9.3099 101.8C8.44727 100.1 8.12988 97.4 9.08203 95.61C9.45638 94.9 9.30176 92.3 9.30176 91.31C9.30176 81.54 23.2259 81.54 23.2259 91.31C23.2259 92.55 22.998 94.82 23.5433 95.79C24.4548 97.41 23.9827 100.29 23.2178 101.79C22.7214 103.56 20.8496 106.9 21.0042 107.9C21.5902 111.55 28.9958 114.03 31.5837 115.37C33.0404 114.45 34.2122 113.37 34.3343 112.1C34.3994 111.44 33.138 108.95 32.8532 107.75C32.5107 107.098 32.3152 106.347 32.2866 105.572C32.258 104.797 32.3974 104.027 32.6904 103.34C32.959 102.83 32.8451 100.98 32.8451 100.28C32.8451 93.33 42.7653 93.28 42.7653 100.28C42.7653 101.16 42.6025 102.78 42.985 103.47C43.6361 104.63 43.3024 106.68 42.749 107.75C42.3991 109.01 41.0645 111.39 41.1784 112.1C41.9108 116.66 45.9229 114.1 47.819 117.26C49.6094 115.53 53.1738 115.05 55.3467 113.45C57.3324 111.99 56.9743 110.52 56.9743 108.09L53.8249 108.12ZM24.9349 59.82H41.7074V54H40.8936C40.6849 53.9872 40.4882 53.8762 40.3442 53.69C40.2003 53.5038 40.1202 53.2568 40.1204 53V50.64C40.1226 49.7603 40.4079 48.9174 40.9142 48.2953C41.4204 47.6733 42.1064 47.3226 42.8223 47.32H43.571C44.2869 47.3226 44.9728 47.6733 45.4791 48.2953C45.9853 48.9174 46.2706 49.7603 46.2728 50.64V53C46.2731 53.2568 46.1929 53.5038 46.049 53.69C45.9051 53.8762 45.7084 53.9872 45.4997 54H44.6859V59.86H56.8929V54H56.0791C55.8633 54 55.6563 53.8946 55.5037 53.7071C55.351 53.5196 55.2653 53.2652 55.2653 53V50.63C55.2675 49.7503 55.5528 48.9074 56.059 48.2853C56.5652 47.6633 57.2512 47.3126 57.9671 47.31H58.7158C59.4317 47.3126 60.1177 47.6633 60.6239 48.2853C61.1302 48.9074 61.4155 49.7503 61.4176 50.63V53C61.4072 53.2565 61.3169 53.4981 61.1654 53.675C61.0139 53.8519 60.8128 53.9503 60.6038 53.95H59.79V59.8H76.8473C77.0147 59.7987 77.1807 59.8381 77.3357 59.9159C77.4906 59.9937 77.6315 60.1084 77.7503 60.2534C77.869 60.3984 77.9633 60.5708 78.0276 60.7607C78.0919 60.9506 78.125 61.1543 78.125 61.36V70.89C78.1251 71.1164 78.0852 71.3401 78.0079 71.5456C77.9306 71.7511 77.8178 71.9334 77.6774 72.08H93.4245V12.76H8.36589V72.1H24.113C23.9721 71.9539 23.8591 71.7716 23.7817 71.566C23.7044 71.3604 23.6647 71.1365 23.6654 70.91V61.38C23.6654 61.1751 23.6982 60.9723 23.762 60.783C23.8258 60.5937 23.9193 60.4218 24.0372 60.2769C24.1551 60.1321 24.295 60.0171 24.4491 59.9387C24.6031 59.8604 24.7682 59.82 24.9349 59.82Z" fill="#1B39CA"/>
</g>
<defs>
<clipPath id="clip0">
<rect width="100" height="122.55" fill="white"/>
</clipPath>
</defs>
</svg>
