<svg xmlns="http://www.w3.org/2000/svg" viewBox="0 0 122.89 100.55"><title>Asset 2</title><g id="Layer_2" data-name="Layer 2"><g id="Layer_1-2" data-name="Layer 1"><path d="M56.9,50.27H66a4.85,4.85,0,0,1,4.84,4.84V74.25A4.85,4.85,0,0,1,66,79.09H56.9a4.85,4.85,0,0,1-4.84-4.84V55.12a4.87,4.87,0,0,1,4.84-4.85ZM7,14h31.5v-9A5,5,0,0,1,43.41,0H79.47a5,5,0,0,1,4.94,4.94v9h31.5a7,7,0,0,1,7,7V93.57a7,7,0,0,1-7,7H7A7,7,0,0,1,2,98.5a7,7,0,0,1-2-4.94V20.94a7,7,0,0,1,7-7Zm72.5-9.63H43.41a.61.61,0,0,0-.61.61v8.93H80.08V4.94a.6.6,0,0,0-.18-.43.57.57,0,0,0-.43-.18ZM4.32,55.63A173,173,0,0,0,48,62.92v4.33A176.49,176.49,0,0,1,4.32,60.11V93.55A2.66,2.66,0,0,0,7,96.2H115.9a2.66,2.66,0,0,0,2.65-2.65V60.12c-15.91,4.48-27,6.4-42.88,7.13V62.92c15.91-.75,27-2.72,42.88-7.29V20.94a2.66,2.66,0,0,0-2.65-2.65H7a2.66,2.66,0,0,0-2.65,2.65V55.63ZM66,54.6H56.9a.51.51,0,0,0-.51.51V74.25a.51.51,0,0,0,.15.36.48.48,0,0,0,.36.15H66a.51.51,0,0,0,.51-.51V55.12a.51.51,0,0,0-.15-.36A.48.48,0,0,0,66,54.6Z"/></g></g></svg>