<svg width="100%" viewBox="0 0 32 33" fill="none" xmlns="http://www.w3.org/2000/svg">
<path d="M4.39611 22.9946C4.39611 22.9946 0.377408 26.3733 0.0810291 26.6887C-0.21535 27.004 4.40741 32.2455 5.05794 31.9658C5.70847 31.6861 7.39381 29.4816 7.39381 29.4816L4.39611 22.9946Z" fill="#231F20"/>
<path d="M5.0077 32.0449C4.22531 32.0449 0.978947 28.3997 0.206602 27.1846C0.0119465 26.8786 -0.0445659 26.7216 0.0345523 26.6437C0.330932 26.3284 4.1914 23.0816 4.35591 22.9431C4.36333 22.9371 4.37186 22.9329 4.38095 22.9306C4.39004 22.9283 4.39948 22.9281 4.40866 22.9299C4.41771 22.9325 4.42616 22.937 4.4335 22.9431C4.44084 22.9492 4.44691 22.9569 4.45136 22.9655L7.44278 29.4538C7.44783 29.4648 7.4498 29.4771 7.44846 29.4893C7.44713 29.5014 7.44255 29.5129 7.43525 29.5224C7.36617 29.6135 5.73734 31.752 5.07928 32.0291C5.05672 32.0395 5.03234 32.0449 5.0077 32.0449ZM4.37977 23.0975C3.87744 23.5249 0.402514 26.4472 0.131252 26.7361C0.0697155 27.0171 2.28628 29.6939 3.86362 31.1254C4.75778 31.9367 4.99388 31.9315 5.04035 31.909C5.62557 31.661 7.10998 29.7467 7.31971 29.4736L4.37977 23.0975Z" fill="#231F20"/>
<path d="M28.0051 8.33324C28.0641 8.30553 30.3912 5.78304 30.4452 5.1168C30.4992 4.45055 25.3138 -0.202602 24.6833 0.0810467C24.0529 0.364695 21.874 3.95318 21.874 3.95318L27.9021 8.13271" fill="#231F20"/>
<path d="M28.0046 8.39923C27.9911 8.3992 27.9779 8.39456 27.9671 8.38602C27.9563 8.37748 27.9483 8.3655 27.9445 8.35185C27.9407 8.3382 27.9412 8.32362 27.9459 8.31029C27.9506 8.29695 27.9593 8.28558 27.9707 8.27786C28.0963 8.171 30.3292 5.7369 30.3819 5.11155C30.4158 4.72368 28.1478 2.47296 26.2703 1.04152C25.0471 0.104824 24.7633 0.118017 24.708 0.141764C24.2321 0.352851 22.7225 2.68273 21.9602 3.93342L27.9393 8.07733C27.9532 8.08724 27.9628 8.10247 27.9661 8.11973C27.9693 8.137 27.9661 8.15493 27.9569 8.16968C27.9477 8.18414 27.9334 8.19419 27.9172 8.19765C27.901 8.20111 27.8841 8.19769 27.8702 8.18815L21.8359 4.0073C21.8225 3.99765 21.8132 3.9829 21.8099 3.96617C21.8066 3.94944 21.8096 3.93202 21.8183 3.91759C21.9075 3.76983 24.0161 0.304037 24.6565 0.0203886C24.7331 -0.0152323 24.9655 -0.118138 26.3419 0.93466C28.0172 2.21833 30.549 4.60494 30.505 5.12342C30.4435 5.84112 28.0498 8.3834 28.0272 8.39396C28.0201 8.39715 28.0124 8.39893 28.0046 8.39923Z" fill="#231F20"/>
<path d="M15.7733 31.4749C23.6587 31.4749 30.051 24.7596 30.051 16.4759C30.051 8.19212 23.6587 1.47681 15.7733 1.47681C7.88795 1.47681 1.49561 8.19212 1.49561 16.4759C1.49561 24.7596 7.88795 31.4749 15.7733 31.4749Z" fill="white"/>
<path d="M15.7726 31.541C12.9363 31.541 10.1638 30.6574 7.80548 29.002C5.44719 27.3467 3.60914 24.9938 2.52374 22.2411C1.43834 19.4883 1.15435 16.4592 1.70768 13.5369C2.26101 10.6146 3.62681 7.93022 5.63237 5.82334C7.63792 3.71646 10.1932 2.28165 12.9749 1.70037C15.7567 1.11908 18.6401 1.41742 21.2605 2.55765C23.8809 3.69789 26.1206 5.62881 27.6963 8.10625C29.2721 10.5837 30.1131 13.4963 30.1131 16.4759C30.1088 20.47 28.5965 24.2992 25.9081 27.1235C23.2197 29.9478 19.5746 31.5364 15.7726 31.541ZM15.7726 1.54282C12.9612 1.54282 10.2129 2.41864 7.87525 4.05951C5.53762 5.70038 3.71566 8.03261 2.63976 10.7613C1.56387 13.4899 1.28237 16.4925 1.83086 19.3892C2.37934 22.286 3.73318 24.9468 5.72117 27.0352C7.70916 29.1237 10.242 30.5459 12.9994 31.1221C15.7569 31.6983 18.615 31.4026 21.2124 30.2723C23.8099 29.1421 26.0299 27.2281 27.5919 24.7723C29.1538 22.3166 29.9875 19.4294 29.9875 16.4759C29.9832 12.5168 28.4842 8.72116 25.8193 5.92164C23.1544 3.12213 19.5413 1.54736 15.7726 1.54282Z" fill="#231F20"/>
<path d="M14.0441 8.59664L10.3882 6.27441L8.85093 8.94525L12.5068 11.2675L14.0441 8.59664Z" fill="white"/>
<path d="M12.417 11.2238C12.4056 11.2234 12.3944 11.2202 12.3844 11.2145L8.75372 8.90048C8.74659 8.89601 8.74038 8.89009 8.73545 8.88308C8.73052 8.87607 8.72695 8.86811 8.72497 8.85964C8.72298 8.85118 8.72261 8.84238 8.72388 8.83377C8.72515 8.82515 8.72804 8.81688 8.73237 8.80945L10.2645 6.15238C10.2731 6.13763 10.2869 6.12701 10.3028 6.12282C10.3188 6.11862 10.3357 6.12119 10.3499 6.12996L13.9918 8.444C14.0061 8.45324 14.0164 8.46788 14.0207 8.4849C14.0227 8.49337 14.023 8.50215 14.0217 8.51076C14.0204 8.51936 14.0175 8.52761 14.0132 8.53503L12.4811 11.1921C12.4722 11.2068 12.4582 11.2172 12.4421 11.2211L12.417 11.2238ZM8.87177 8.82132L12.3994 11.0641L13.8675 8.52052L10.3386 6.27772L8.87177 8.82132Z" fill="#231F20"/>
<path d="M12.4229 11.1559L8.78711 8.8418L7.25525 11.498L10.891 13.812L12.4229 11.1559Z" fill="white"/>
<path d="M10.889 13.8795C10.8775 13.8797 10.8662 13.8765 10.8564 13.8702L7.22068 11.5562C7.2067 11.5469 7.19678 11.5322 7.19305 11.5153C7.1893 11.4986 7.19202 11.4811 7.20059 11.4665L8.73272 8.80942C8.74151 8.79443 8.75545 8.78356 8.77165 8.77907C8.78752 8.77514 8.80424 8.77798 8.81811 8.78699L12.4538 11.101C12.4677 11.1106 12.478 11.1251 12.4827 11.1419C12.4865 11.159 12.4838 11.177 12.4751 11.1921L10.943 13.8478C10.9374 13.8575 10.9294 13.8656 10.92 13.8711C10.9105 13.8767 10.8998 13.8795 10.889 13.8795ZM7.33999 11.4784L10.8677 13.7212L12.3345 11.1776L8.80681 8.93475L7.33999 11.4784Z" fill="#231F20"/>
<path d="M12.1784 10.3834C12.1673 10.3837 12.1564 10.3805 12.147 10.3742C12.1402 10.3701 12.1342 10.3646 12.1294 10.358C12.1247 10.3515 12.1212 10.3439 12.1194 10.3359C12.1175 10.3278 12.1172 10.3195 12.1185 10.3113C12.1198 10.3032 12.1226 10.2954 12.1269 10.2884L13.0839 8.62877C13.088 8.62166 13.0934 8.61548 13.0998 8.61057C13.1062 8.60567 13.1135 8.60213 13.1211 8.60017C13.1288 8.59821 13.1368 8.59786 13.1447 8.59915C13.1525 8.60043 13.16 8.60333 13.1668 8.60766C13.1802 8.61664 13.1897 8.63072 13.1935 8.64695C13.1972 8.66318 13.1949 8.68031 13.1869 8.69474L12.2299 10.3518C12.2247 10.3613 12.2172 10.3692 12.2081 10.3748C12.1991 10.3803 12.1889 10.3833 12.1784 10.3834Z" fill="#D1D3D4"/>
<path d="M11.7949 9.61438C11.7844 9.61444 11.774 9.61171 11.7648 9.60646C11.758 9.60214 11.7521 9.59645 11.7474 9.58973C11.7428 9.58301 11.7394 9.57539 11.7375 9.5673C11.7357 9.55922 11.7353 9.55082 11.7366 9.5426C11.7378 9.53438 11.7405 9.52649 11.7447 9.51939L12.4793 8.24099C12.4829 8.23299 12.4881 8.22586 12.4944 8.22006C12.5008 8.21427 12.5082 8.20994 12.5163 8.20735C12.5243 8.20477 12.5328 8.20398 12.5412 8.20505C12.5495 8.20612 12.5576 8.20902 12.5648 8.21356C12.572 8.21809 12.5783 8.22417 12.5831 8.2314C12.588 8.23863 12.5914 8.24684 12.593 8.25552C12.5947 8.2642 12.5946 8.27314 12.5927 8.28177C12.5909 8.2904 12.5873 8.29853 12.5823 8.30564L11.8464 9.58008C11.8415 9.59009 11.8341 9.59854 11.8251 9.60457C11.816 9.6106 11.8056 9.61399 11.7949 9.61438Z" fill="#D1D3D4"/>
<path d="M10.9704 9.61428C10.9593 9.61451 10.9484 9.61129 10.939 9.60504C10.9323 9.60084 10.9264 9.59527 10.9218 9.58867C10.9171 9.58207 10.9137 9.57456 10.9119 9.56658C10.91 9.5586 10.9097 9.55031 10.9109 9.54219C10.9121 9.53407 10.9148 9.52629 10.9189 9.51929L11.695 8.1736C11.7033 8.15961 11.7165 8.14958 11.7317 8.14563C11.747 8.14169 11.7631 8.14415 11.7766 8.1525C11.7903 8.16126 11.8001 8.17524 11.8041 8.19149C11.8081 8.20774 11.8059 8.22498 11.798 8.23957L11.0219 9.58393C11.0165 9.5932 11.0089 9.60086 10.9999 9.60618C10.9909 9.61149 10.9807 9.61428 10.9704 9.61428Z" fill="#D1D3D4"/>
<path d="M10.3665 9.23034C10.3554 9.23057 10.3444 9.22736 10.3351 9.22111C10.3283 9.21678 10.3224 9.21109 10.3178 9.20437C10.3131 9.19765 10.3097 9.19003 10.3078 9.18194C10.306 9.17386 10.3057 9.16546 10.3069 9.15724C10.3081 9.14902 10.3109 9.14113 10.315 9.13403L10.703 8.46251C10.7072 8.4554 10.7126 8.44922 10.719 8.44431C10.7254 8.43941 10.7326 8.43587 10.7403 8.43391C10.748 8.43195 10.756 8.4316 10.7638 8.43289C10.7717 8.43417 10.7792 8.43707 10.7859 8.4414C10.7992 8.45013 10.8088 8.46398 10.8125 8.47999C10.8163 8.49601 10.814 8.51293 10.806 8.52716L10.418 9.2C10.4126 9.20927 10.405 9.21693 10.396 9.22224C10.387 9.22756 10.3768 9.23035 10.3665 9.23034Z" fill="#D1D3D4"/>
<path d="M10.9881 8.1526C10.977 8.15268 10.9661 8.14948 10.9567 8.14336C10.9433 8.13439 10.9337 8.12031 10.93 8.10407C10.9262 8.08784 10.9286 8.07072 10.9366 8.05629L11.2719 7.4758C11.2808 7.46318 11.2939 7.45449 11.3085 7.45142C11.3232 7.44835 11.3384 7.45111 11.3512 7.45916C11.3641 7.46722 11.3736 7.48 11.378 7.49502C11.3823 7.51004 11.3812 7.52623 11.3749 7.54044L11.0358 8.12225C11.0308 8.13097 11.0238 8.13829 11.0155 8.14357C11.0072 8.14885 10.9978 8.15195 10.9881 8.1526Z" fill="#D1D3D4"/>
<path d="M9.95603 8.50483C9.94541 8.50443 9.93506 8.50126 9.92589 8.4956C9.91913 8.49127 9.91324 8.48558 9.90857 8.47886C9.9039 8.47214 9.90054 8.46452 9.89867 8.45644C9.8968 8.44835 9.89647 8.43996 9.8977 8.43174C9.89892 8.42351 9.90167 8.41563 9.9058 8.40852L10.6681 7.08923C10.6766 7.07515 10.69 7.06508 10.7055 7.06115C10.7209 7.05721 10.7372 7.05971 10.751 7.06812C10.7577 7.07245 10.7636 7.07814 10.7683 7.08486C10.773 7.09158 10.7763 7.0992 10.7782 7.10728C10.7801 7.11537 10.7804 7.12376 10.7792 7.13199C10.778 7.14021 10.7752 7.14809 10.7711 7.1552L10.0075 8.47449C10.0022 8.48385 9.99469 8.49158 9.98565 8.49691C9.97661 8.50224 9.9664 8.50497 9.95603 8.50483Z" fill="#D1D3D4"/>
<path d="M10.6449 13.0405C10.6342 13.0407 10.6237 13.0375 10.6148 13.0313C10.6079 13.0272 10.6019 13.0217 10.5972 13.0151C10.5924 13.0085 10.589 13.001 10.5871 12.993C10.5852 12.9849 10.5849 12.9766 10.5862 12.9684C10.5875 12.9603 10.5904 12.9525 10.5947 12.9455L11.5516 11.2859C11.5552 11.2777 11.5603 11.2703 11.5667 11.2644C11.5732 11.2584 11.5807 11.254 11.5889 11.2513C11.5971 11.2487 11.6058 11.2479 11.6143 11.2491C11.6228 11.2502 11.631 11.2532 11.6383 11.258C11.6456 11.2627 11.6518 11.269 11.6566 11.2765C11.6614 11.284 11.6646 11.2924 11.6661 11.3013C11.6675 11.3102 11.6671 11.3193 11.6649 11.328C11.6627 11.3367 11.6588 11.3448 11.6534 11.3518L10.6964 13.0102C10.6911 13.0195 10.6836 13.0273 10.6745 13.0326C10.6655 13.0379 10.6553 13.0407 10.6449 13.0405Z" fill="#D1D3D4"/>
<path d="M10.2634 12.2714C10.2525 12.2713 10.2418 12.2686 10.232 12.2635C10.2253 12.2591 10.2194 12.2534 10.2147 12.2467C10.2101 12.24 10.2067 12.2324 10.2048 12.2243C10.203 12.2162 10.2026 12.2078 10.2038 12.1996C10.2051 12.1914 10.2078 12.1835 10.212 12.1764L10.9479 10.902C10.9519 10.8949 10.9572 10.8888 10.9635 10.884C10.9698 10.8791 10.9769 10.8756 10.9845 10.8736C10.9921 10.8717 11 10.8713 11.0077 10.8725C11.0154 10.8738 11.0228 10.8766 11.0295 10.8808C11.0362 10.8851 11.042 10.8907 11.0466 10.8973C11.0513 10.9039 11.0546 10.9114 11.0565 10.9193C11.0583 10.9273 11.0587 10.9356 11.0575 10.9437C11.0563 10.9518 11.0536 10.9596 11.0496 10.9666L10.3149 12.2424C10.3093 12.2513 10.3017 12.2586 10.2927 12.2637C10.2837 12.2688 10.2736 12.2714 10.2634 12.2714Z" fill="#D1D3D4"/>
<path d="M9.43699 12.2714C9.42647 12.2715 9.41611 12.2687 9.40685 12.2635C9.40008 12.2592 9.3942 12.2535 9.38953 12.2468C9.38486 12.24 9.38149 12.2324 9.37963 12.2243C9.37776 12.2162 9.37743 12.2078 9.37865 12.1996C9.37988 12.1914 9.38263 12.1835 9.38676 12.1764L10.1616 10.8307C10.1704 10.8169 10.1838 10.807 10.1991 10.8031C10.2145 10.7992 10.2307 10.8015 10.2445 10.8096C10.2513 10.814 10.2571 10.8196 10.2618 10.8264C10.2665 10.8331 10.2699 10.8407 10.2717 10.8488C10.2736 10.8569 10.2739 10.8653 10.2727 10.8735C10.2715 10.8817 10.2687 10.8896 10.2646 10.8967L9.48848 12.2411C9.48319 12.2504 9.47564 12.2582 9.46661 12.2635C9.45757 12.2688 9.44735 12.2715 9.43699 12.2714Z" fill="#D1D3D4"/>
<path d="M23.0233 17.3271L17.4092 22.115L17.7195 22.5165L23.3336 17.7287L23.0233 17.3271Z" fill="white"/>
<path d="M17.7195 22.5857H17.7132C17.6966 22.5838 17.6813 22.5753 17.6705 22.562L17.3603 22.1662C17.3499 22.1523 17.3452 22.1347 17.3471 22.1172C17.349 22.0997 17.3573 22.0836 17.3703 22.0725L22.984 17.2848C22.9972 17.2739 23.0139 17.269 23.0306 17.2709C23.0473 17.2729 23.0625 17.2817 23.0731 17.2954L23.3833 17.6911C23.3933 17.7052 23.3982 17.7225 23.3971 17.74C23.3953 17.7574 23.3872 17.7734 23.3745 17.7848L17.7596 22.5725C17.748 22.5815 17.7339 22.5861 17.7195 22.5857ZM17.4972 22.1266L17.7295 22.4261L23.2464 17.7228L23.0141 17.422L17.4972 22.1266Z" fill="#231F20"/>
<path d="M23.2491 17.8001L17.8037 22.4441L20.0896 25.4022L25.535 20.7582L23.2491 17.8001Z" fill="white"/>
<path d="M20.0904 25.4724H20.0779C20.0698 25.4715 20.062 25.469 20.0548 25.4649C20.0477 25.4608 20.0414 25.4553 20.0364 25.4486L17.7558 22.4894C17.7453 22.4757 17.7404 22.4582 17.742 22.4407C17.7437 22.4232 17.7518 22.4071 17.7646 22.3958L23.2099 17.7518C23.2232 17.741 23.2399 17.736 23.2566 17.738C23.2732 17.7399 23.2885 17.7487 23.2991 17.7624L25.5847 20.7203C25.5947 20.7343 25.5996 20.7516 25.5986 20.7691C25.5962 20.7863 25.5882 20.8022 25.5759 20.8139L20.1293 25.4565C20.1186 25.4666 20.1048 25.4722 20.0904 25.4724ZM17.8927 22.4564L20.0992 25.3127L25.4479 20.7519L23.2413 17.897L17.8927 22.4564Z" fill="#231F20"/>
<path d="M19.45 23.9815C19.4411 23.9815 19.4324 23.9796 19.4244 23.9757C19.4163 23.9718 19.4092 23.9661 19.4035 23.959L18.2682 22.4893C18.263 22.4829 18.259 22.4755 18.2566 22.4674C18.2542 22.4594 18.2534 22.4509 18.2542 22.4425C18.255 22.4341 18.2575 22.426 18.2614 22.4186C18.2653 22.4112 18.2706 22.4048 18.277 22.3996L23.1045 18.2834C23.1105 18.278 23.1175 18.274 23.1251 18.2717C23.1327 18.2694 23.1407 18.2689 23.1485 18.2702C23.164 18.2723 23.1783 18.2803 23.1886 18.2927L24.3277 19.769C24.3327 19.7753 24.3365 19.7827 24.3388 19.7906C24.3411 19.7985 24.3419 19.8069 24.3411 19.8151C24.3402 19.8233 24.3379 19.8313 24.334 19.8386C24.3302 19.8458 24.3251 19.8522 24.3189 19.8574L19.4927 23.9735C19.4798 23.9815 19.4647 23.9844 19.45 23.9815ZM18.3938 22.4524L19.4588 23.8311L24.1921 19.794L23.1284 18.4167L18.3938 22.4524Z" fill="#D1D3D4"/>
<path d="M21.9971 23.3771C21.988 23.3771 21.979 23.375 21.9707 23.3709C21.9624 23.3668 21.9552 23.3608 21.9494 23.3534L21.393 22.633C21.3879 22.6267 21.3842 22.6193 21.382 22.6114C21.3798 22.6034 21.3793 22.5951 21.3805 22.5869C21.3811 22.5787 21.3834 22.5707 21.387 22.5634C21.3907 22.5562 21.3957 22.5498 21.4018 22.5446L22.6012 21.5222C22.6072 21.5169 22.6142 21.5129 22.6218 21.5105C22.6293 21.5081 22.6373 21.5073 22.6451 21.5081C22.6529 21.509 22.6605 21.5115 22.6674 21.5155C22.6744 21.5195 22.6804 21.5249 22.6853 21.5314L23.2417 22.2518C23.2467 22.2581 23.2505 22.2655 23.2528 22.2734C23.2551 22.2813 23.2558 22.2897 23.255 22.2979C23.2542 22.3061 23.2518 22.3141 23.248 22.3214C23.2442 22.3286 23.2391 22.335 23.2329 22.3402L22.0348 23.3626C22.0241 23.3716 22.0108 23.3767 21.9971 23.3771ZM21.5237 22.6027L22.0059 23.2254L23.111 22.2821L22.6301 21.6594L21.5237 22.6027Z" fill="#D1D3D4"/>
<path d="M23.877 29.2705C23.877 29.2705 25.8122 31.9315 26.3799 31.9803C26.9475 32.0291 31.7034 27.248 31.5451 26.7849C31.3869 26.3218 28.6077 23.8152 28.6077 23.8152L23.877 29.2705Z" fill="#231F20"/>
<path d="M26.3855 32.0463H26.3742C25.7953 31.9961 24.0258 29.5858 23.8261 29.3114C23.8164 29.2994 23.811 29.2842 23.811 29.2685C23.811 29.2528 23.8164 29.2376 23.8261 29.2256L28.5569 23.7703C28.5686 23.7582 28.5844 23.7515 28.6008 23.7515C28.6173 23.7515 28.633 23.7582 28.6448 23.7703C28.7578 23.8732 31.4378 26.2928 31.5998 26.7678C31.6236 26.8364 31.6111 26.9577 31.3361 27.3351C30.4193 28.591 26.9494 32.0463 26.3855 32.0463ZM23.958 29.2757C24.5168 30.0383 25.9497 31.8787 26.3843 31.9143H26.3918C26.7912 31.9143 29.7047 29.161 31.0095 27.5461C31.4993 26.9406 31.488 26.8192 31.4855 26.806C31.3599 26.4472 29.4134 24.6318 28.6121 23.9036L23.958 29.2757Z" fill="#231F20"/>
<path d="M20.8852 26.2624C20.8852 26.2624 21.0459 25.2928 20.9794 25.0896C20.9128 24.8864 20.7521 24.4379 20.6491 24.5619C20.5461 24.6859 20.6102 25.0896 20.6102 25.0896C20.6102 25.0896 20.4205 24.7967 20.2435 24.4959C20.0664 24.1951 19.9019 24.1964 19.8943 24.3006C19.9297 24.4851 19.9823 24.6654 20.0513 24.8389C20.0513 24.8389 19.8115 24.24 19.7185 24.3864C19.6256 24.5328 19.8127 25.0632 19.8127 25.0632C19.8127 25.0632 19.5415 24.4167 19.436 24.6357C19.3305 24.8547 19.4561 25.3165 19.5314 25.4761C19.6068 25.6358 20.2384 26.8284 20.2384 26.8284L20.9756 26.2255" fill="white"/>
<path d="M20.2441 26.8866H20.2315C20.2227 26.8846 20.2144 26.8808 20.2071 26.8754C20.1998 26.8699 20.1935 26.863 20.1888 26.8549C20.1637 26.8061 19.5609 25.6583 19.4805 25.4987C19.4002 25.3391 19.2683 24.8496 19.3851 24.6003C19.3942 24.5768 19.4097 24.5566 19.4295 24.5421C19.4493 24.5276 19.4727 24.5194 19.4969 24.5185C19.5249 24.5231 19.5518 24.5335 19.5759 24.5491C19.6001 24.5647 19.621 24.5853 19.6375 24.6095C19.6207 24.5205 19.6308 24.4283 19.6664 24.3456C19.6766 24.3283 19.6911 24.3143 19.7084 24.305C19.7257 24.2957 19.745 24.2915 19.7644 24.2929C19.7904 24.2972 19.8147 24.3091 19.8347 24.3272C19.8336 24.3149 19.8336 24.3025 19.8347 24.2902C19.8362 24.2625 19.8459 24.2359 19.8626 24.2144C19.8793 24.1928 19.9021 24.1774 19.9276 24.1702C20.0381 24.1412 20.1788 24.2493 20.3044 24.4565C20.3847 24.5884 20.4689 24.7282 20.5354 24.8351C20.5261 24.7233 20.5527 24.6114 20.6108 24.5172C20.6236 24.5012 20.6403 24.4891 20.659 24.4821C20.6778 24.4752 20.698 24.4736 20.7175 24.4776C20.7602 24.4868 20.862 24.5079 21.0466 25.0713C21.1043 25.2467 21.0164 25.88 20.9737 26.157C20.9854 26.1538 20.9978 26.1543 21.0092 26.1585C21.0207 26.1628 21.0306 26.1705 21.0378 26.1808C21.048 26.1945 21.0528 26.2118 21.0509 26.2291C21.049 26.2464 21.0407 26.2622 21.0277 26.2731L20.2906 26.8761C20.277 26.8858 20.2603 26.8896 20.2441 26.8866ZM19.5006 24.6517C19.4165 24.8325 19.5144 25.2612 19.5948 25.4341C19.6589 25.566 20.1311 26.4618 20.2654 26.7164L20.8255 26.2586C20.8249 26.2547 20.8249 26.2507 20.8255 26.2467C20.8858 25.8773 20.9662 25.2428 20.921 25.1069C20.7954 24.7111 20.7175 24.6253 20.6937 24.6042C20.6422 24.6821 20.651 24.9169 20.6736 25.066C20.676 25.0806 20.6736 25.0956 20.6668 25.1086C20.6599 25.1216 20.649 25.1317 20.6359 25.1372C20.6227 25.1429 20.608 25.1436 20.5943 25.1393C20.5806 25.135 20.5687 25.1259 20.5606 25.1135C20.5606 25.1135 20.3672 24.8166 20.1913 24.5185C20.0658 24.3034 19.9691 24.2876 19.9565 24.2916C19.9926 24.4665 20.0443 24.6374 20.111 24.8021C20.114 24.8101 20.1155 24.8186 20.1154 24.8272C20.1152 24.8358 20.1135 24.8442 20.1102 24.8521C20.1069 24.8599 20.1022 24.867 20.0963 24.873C20.0904 24.8789 20.0834 24.8835 20.0758 24.8866C20.0683 24.89 20.0603 24.8917 20.0521 24.8918C20.0439 24.8918 20.0359 24.8901 20.0284 24.8868C20.0208 24.8835 20.0141 24.8786 20.0084 24.8724C20.0027 24.8663 19.9983 24.8589 19.9954 24.8509C19.9399 24.6978 19.8624 24.5546 19.7656 24.4261C19.7342 24.5224 19.7945 24.8034 19.8736 25.0277C19.879 25.044 19.8782 25.0619 19.8714 25.0776C19.8647 25.0933 19.8524 25.1057 19.8372 25.1122C19.8222 25.1184 19.8054 25.1183 19.7905 25.1119C19.7755 25.1055 19.7634 25.0933 19.7568 25.0779C19.6992 24.9193 19.6121 24.7745 19.5006 24.6517Z" fill="#231F20"/>
<path d="M23.4084 21.4656C23.4084 21.4656 22.5055 21.7295 22.307 21.682C22.1086 21.6345 21.6666 21.5105 21.7695 21.3904C21.8725 21.2703 22.2618 21.2967 22.2618 21.2967C22.2618 21.2967 21.9655 21.1279 21.6628 20.9722C21.3601 20.8165 21.3451 20.645 21.443 20.6278C21.621 20.6459 21.7969 20.6825 21.968 20.7374C21.968 20.7374 21.3777 20.5461 21.5071 20.4352C21.6364 20.3244 22.1576 20.4656 22.1576 20.4656C22.1576 20.4656 21.5184 20.2466 21.7105 20.1146C21.9027 19.9827 22.3585 20.0671 22.5168 20.1305C22.675 20.1938 23.8681 20.7347 23.8681 20.7347L23.3657 21.5646" fill="white"/>
<path d="M22.3682 21.7531C22.3424 21.7536 22.3167 21.751 22.2916 21.7452C21.7402 21.6133 21.7088 21.5051 21.6963 21.4602C21.6904 21.4404 21.6897 21.4192 21.6943 21.399C21.699 21.3788 21.7088 21.3603 21.7227 21.3454C21.8063 21.2754 21.9096 21.2364 22.0165 21.2346C21.9085 21.1752 21.7729 21.1027 21.6398 21.0314C21.4313 20.9246 21.3158 20.79 21.3321 20.6713C21.3366 20.6439 21.3492 20.6186 21.3681 20.5992C21.3871 20.5798 21.4114 20.5671 21.4376 20.5631C21.4435 20.5663 21.4501 20.5679 21.4568 20.5677C21.4635 20.5675 21.47 20.5654 21.4758 20.5618C21.4815 20.5581 21.4862 20.553 21.4895 20.5469C21.4928 20.5408 21.4945 20.5338 21.4945 20.5268C21.4945 20.5198 21.4928 20.5129 21.4895 20.5068C21.4862 20.5006 21.4815 20.4955 21.4758 20.4919C21.47 20.4882 21.4635 20.4862 21.4568 20.4859C21.4501 20.4857 21.4435 20.4873 21.4376 20.4905C21.4339 20.4707 21.4356 20.4501 21.4425 20.4313C21.4494 20.4124 21.4612 20.3959 21.4765 20.3837C21.5523 20.3371 21.6403 20.3172 21.7277 20.3269C21.6782 20.2964 21.6421 20.2467 21.6272 20.1884C21.6256 20.163 21.631 20.1376 21.6429 20.1154C21.6547 20.0932 21.6723 20.075 21.6938 20.0631C21.9186 19.918 22.3945 20.0103 22.554 20.0736C22.7135 20.137 23.8601 20.6568 23.9091 20.6792C23.9174 20.683 23.9248 20.6886 23.9308 20.6957C23.9369 20.7027 23.9415 20.7111 23.9442 20.7201C23.9467 20.7291 23.9474 20.7385 23.9463 20.7478C23.9452 20.7571 23.9424 20.7661 23.938 20.7742L23.4356 21.6053C23.4266 21.62 23.4125 21.6303 23.3964 21.6343C23.3802 21.6382 23.3632 21.6354 23.349 21.6264C23.3386 21.6198 23.3304 21.6102 23.3253 21.5987C23.3201 21.5872 23.3183 21.5744 23.3201 21.5618C23.0092 21.6567 22.6905 21.7207 22.3682 21.7531ZM21.8219 21.4338C21.8432 21.4563 21.9374 21.5275 22.3242 21.6225C22.4573 21.6555 23.0513 21.5077 23.3942 21.4074H23.4055L23.7822 20.7768C23.5311 20.6607 22.6344 20.2557 22.5 20.2029C22.328 20.1356 21.9135 20.071 21.7465 20.1818C21.7377 20.1818 21.7365 20.1911 21.7365 20.1911C21.8691 20.2904 22.0175 20.3641 22.1748 20.4087C22.1905 20.4139 22.2037 20.4254 22.2115 20.4407C22.2192 20.456 22.2209 20.4739 22.2162 20.4905C22.2115 20.507 22.2009 20.521 22.1866 20.5293C22.1723 20.5377 22.1554 20.5399 22.1396 20.5354C21.9186 20.4747 21.6461 20.4417 21.5594 20.4826C21.6906 20.5716 21.8342 20.6384 21.9851 20.6805C22.0018 20.6854 22.0159 20.6971 22.0244 20.7129C22.0329 20.7287 22.035 20.7475 22.0303 20.7649C22.0257 20.7824 22.0146 20.7973 21.9995 20.8062C21.9844 20.8151 21.9666 20.8173 21.95 20.8124C21.7865 20.7583 21.6182 20.722 21.4476 20.7043C21.4476 20.7161 21.4715 20.8151 21.685 20.9246C21.9851 21.0789 22.2828 21.2491 22.2865 21.2504C22.2994 21.2576 22.3095 21.2692 22.3151 21.2832C22.3207 21.2973 22.3215 21.313 22.3174 21.3276C22.3132 21.3422 22.3044 21.3549 22.2924 21.3634C22.2803 21.372 22.2658 21.3759 22.2514 21.3745C22.112 21.3534 21.8872 21.3679 21.8219 21.4338Z" fill="#231F20"/>
<path d="M25.2263 27.5027C25.0046 27.9592 24.8165 28.4329 24.6637 28.9196C24.6637 28.9196 22.8289 28.3919 22.7058 28.3259C22.5828 28.26 21.0619 25.8668 21.0619 25.8668L20.0347 26.6425C20.0347 26.6425 21.4023 29.1175 21.7275 29.413C22.0528 29.7086 24.0848 30.7152 24.8232 30.8115C25.5616 30.9078 27.0913 29.9579 28.0984 28.8893C29.1056 27.8206 30.2874 25.6293 30.0965 24.8232C29.9056 24.0171 29.2978 23.5751 29.0654 23.4116C28.8331 23.248 27.5999 22.0408 27.3989 21.9076C27.198 21.7743 23.7419 20.4167 23.7419 20.4167L23.374 21.5659C23.374 21.5659 26.4922 22.9762 26.6768 23.1002C26.8614 23.2242 28.2441 25.2111 28.2441 25.2111C28.2441 25.2111 27.1603 25.5594 26.6329 25.9525C26.1054 26.3457 25.2263 27.5027 25.2263 27.5027Z" fill="#0064FF"/>
<path d="M28.5878 27.3389C28.5558 26.9237 28.4299 26.5225 28.2207 26.1687C28.0114 25.8149 27.7248 25.5186 27.3847 25.3046C27.0825 25.1021 26.7239 25.0132 26.3674 25.0526C26.1904 25.0755 26.0232 25.1509 25.8855 25.2701C25.7478 25.3893 25.6453 25.5472 25.5901 25.7254C25.4952 25.6964 25.3951 25.6913 25.298 25.7105C25.2009 25.7298 25.1095 25.7729 25.0312 25.8362C24.6055 26.1634 24.6268 26.8178 24.7198 27.302C24.7785 27.6458 24.8909 27.977 25.0526 28.2822C25.2661 28.6375 25.5724 28.9207 25.9349 29.0983C26.2973 29.2758 26.7008 29.3401 27.0971 29.2836C27.529 29.2072 27.9194 28.9671 28.1941 28.6087C28.4688 28.2503 28.6089 27.7985 28.5878 27.3389Z" fill="white"/>
<path d="M26.8195 29.3695C26.4555 29.3713 26.0971 29.2752 25.7784 29.0905C25.4597 28.9058 25.1912 28.6385 24.9985 28.3141C24.8329 28.0025 24.7179 27.6641 24.6582 27.3128C24.5602 26.8061 24.5326 26.1254 24.9947 25.7811C25.073 25.7192 25.1626 25.675 25.2579 25.6511C25.3532 25.6273 25.4521 25.6244 25.5486 25.6425C25.6148 25.4663 25.725 25.3121 25.8675 25.196C26.01 25.08 26.1796 25.0063 26.3586 24.9829C26.7297 24.9437 27.1025 25.0366 27.4173 25.2467C27.7665 25.4656 28.0608 25.7692 28.2754 26.1321C28.4899 26.495 28.6186 26.9066 28.6505 27.3325C28.6738 27.8086 28.5299 28.277 28.246 28.6489C27.9622 29.0208 27.5582 29.2702 27.1108 29.3498C27.0143 29.3638 26.9169 29.3704 26.8195 29.3695ZM25.423 25.7626C25.2947 25.7663 25.1707 25.8125 25.0688 25.8945C24.667 26.2019 24.6921 26.8246 24.7812 27.293C24.8379 27.6299 24.9478 27.9546 25.1065 28.2534C25.3139 28.597 25.6111 28.8706 25.9625 29.0416C26.3138 29.2126 26.7046 29.2738 27.0882 29.2178C27.5048 29.1446 27.8813 28.9133 28.1461 28.5676C28.411 28.222 28.5458 27.7863 28.5249 27.3431C28.4945 26.9389 28.3722 26.5482 28.1683 26.2038C27.9644 25.8595 27.6849 25.5716 27.3532 25.3642C27.0629 25.1697 26.7188 25.0833 26.3762 25.1188C26.2115 25.1405 26.0561 25.2108 25.9279 25.3215C25.7996 25.4321 25.7038 25.5787 25.6515 25.7441C25.6463 25.7614 25.6351 25.776 25.6201 25.785C25.6122 25.7886 25.6037 25.7904 25.595 25.7904C25.5864 25.7904 25.5779 25.7886 25.5699 25.785C25.5224 25.7695 25.4728 25.7619 25.423 25.7626Z" fill="#231F20"/>
<path d="M27.304 28.69C27.282 28.807 27.2983 28.9284 27.3504 29.0344C27.3875 29.0845 27.4184 29.1395 27.4421 29.198C27.4522 29.2523 27.4496 29.3085 27.4346 29.3615C27.4033 29.5058 27.3643 29.6481 27.3178 29.7877C27.3085 29.8063 27.3058 29.8278 27.3102 29.8484C27.3228 29.8879 27.3755 29.8893 27.4157 29.8827C27.6782 29.8418 27.9507 29.7956 28.1692 29.6307C28.2993 29.5163 28.4038 29.3731 28.4752 29.2114C28.5466 29.0498 28.5832 28.8735 28.5824 28.6953C28.5824 28.4143 28.5196 27.9275 28.1868 27.8945C27.7824 27.8576 27.3617 28.3022 27.304 28.69Z" fill="white"/>
<path d="M27.3818 29.9552C27.3551 29.9572 27.3286 29.9502 27.306 29.9352C27.2834 29.9203 27.266 29.8982 27.2562 29.8721C27.2468 29.8376 27.249 29.8008 27.2625 29.7679C27.309 29.6315 27.3475 29.4923 27.378 29.351C27.3904 29.3083 27.3934 29.2632 27.3868 29.219C27.3753 29.1865 27.3587 29.1562 27.3378 29.1293C27.3252 29.1109 27.3127 29.0911 27.3014 29.0713C27.2409 28.9526 27.2218 28.8154 27.2474 28.6834C27.3077 28.2639 27.7573 27.7902 28.193 27.8325C28.5346 27.8668 28.6514 28.3035 28.6452 28.7006C28.6455 28.8888 28.6064 29.0747 28.5307 29.2453C28.4549 29.4158 28.3444 29.5668 28.2069 29.6874C27.9758 29.8668 27.6731 29.9143 27.4307 29.9513L27.3818 29.9552ZM27.373 29.8233C27.3842 29.8252 27.3956 29.8252 27.4069 29.8233C27.648 29.785 27.9218 29.7428 28.1265 29.5832C28.2491 29.4749 28.3475 29.3396 28.4146 29.1868C28.4817 29.034 28.5158 28.8675 28.5145 28.6992C28.5145 28.628 28.5145 27.9987 28.1755 27.9657C27.8075 27.9275 27.4219 28.3483 27.3667 28.7045C27.3468 28.8068 27.3601 28.9132 27.4044 29.0066L27.4358 29.0541C27.4721 29.0984 27.4968 29.1519 27.5074 29.2093C27.5179 29.2667 27.514 29.326 27.496 29.3813C27.4645 29.5279 27.4247 29.6724 27.3767 29.8141L27.373 29.8233Z" fill="#231F20"/>
<path d="M15.3836 25.6438C15.7078 25.6101 16.0322 25.7069 16.2911 25.9145C16.5501 26.1222 16.7245 26.4253 16.7792 26.7627C16.8338 27.1001 16.7646 27.4467 16.5856 27.7326C16.4065 28.0186 16.131 28.2226 15.8144 28.3035L15.8621 28.7942C15.866 28.8188 15.8651 28.8439 15.8594 28.8681C15.8537 28.8923 15.8434 28.9149 15.829 28.9347C15.8146 28.9545 15.7966 28.971 15.7759 28.9832C15.7552 28.9954 15.7324 29.003 15.7088 29.0055C15.6852 29.008 15.6614 29.0054 15.6388 28.9979C15.6162 28.9904 15.5953 28.9781 15.5775 28.9618C15.5596 28.9454 15.5451 28.9254 15.5348 28.9029C15.5246 28.8805 15.5189 28.8561 15.518 28.8312L15.4703 28.3404C15.1444 28.3284 14.8349 28.187 14.6045 27.9446C14.3741 27.7022 14.2398 27.377 14.2288 27.0346C14.2178 26.6922 14.3309 26.3582 14.5452 26.1C14.7596 25.8419 15.0592 25.6788 15.3836 25.6438Z" fill="white"/>
<path d="M15.6903 29.0606C15.6318 29.0606 15.5754 29.0378 15.532 28.9966C15.4886 28.9554 15.4613 28.8988 15.4554 28.8377L15.414 28.4036C15.0767 28.3782 14.7608 28.2207 14.5287 27.9623C14.2967 27.7039 14.1653 27.3634 14.1608 27.0082C14.1562 26.653 14.2787 26.3089 14.504 26.044C14.7293 25.7791 15.0411 25.6127 15.3776 25.5777C15.7096 25.5492 16.0399 25.6507 16.305 25.8627C16.5701 26.0746 16.7513 26.3821 16.8136 26.7259C16.8759 27.0697 16.8151 27.4255 16.6427 27.725C16.4703 28.0245 16.1986 28.2465 15.8799 28.3482L15.9226 28.7823C15.9289 28.8477 15.9102 28.9131 15.8707 28.964C15.8311 29.015 15.7739 29.0474 15.7116 29.054L15.6903 29.0606ZM15.3901 25.7096C15.0821 25.7436 14.7977 25.899 14.5944 26.1445C14.391 26.39 14.2838 26.7073 14.2943 27.0325C14.3048 27.3578 14.4323 27.6667 14.651 27.8971C14.8697 28.1276 15.1635 28.2624 15.473 28.2743C15.4882 28.2749 15.5027 28.2812 15.5138 28.2921C15.5248 28.3031 15.5318 28.3178 15.5333 28.3337L15.581 28.8245C15.5824 28.8401 15.5868 28.8553 15.5939 28.8692C15.6011 28.883 15.6108 28.8951 15.6225 28.9049C15.6343 28.9146 15.6478 28.9217 15.6622 28.9258C15.6767 28.9299 15.6918 28.9309 15.7066 28.9287C15.7214 28.9271 15.7357 28.9224 15.7487 28.9148C15.7617 28.9072 15.7731 28.897 15.7823 28.8846C15.7914 28.8723 15.7981 28.8582 15.8019 28.8431C15.8058 28.828 15.8067 28.8122 15.8045 28.7968L15.7568 28.3047C15.7553 28.2887 15.7594 28.2727 15.7685 28.2598C15.7775 28.2469 15.7908 28.238 15.8058 28.2348C16.1079 28.1586 16.3711 27.9647 16.5422 27.6923C16.7132 27.42 16.7794 27.0895 16.7272 26.7678C16.675 26.4461 16.5083 26.1573 16.261 25.9598C16.0137 25.7624 15.7042 25.671 15.3951 25.7044L15.3901 25.7096Z" fill="#231F20"/>
<path d="M15.5145 27.9459C16.0173 27.9459 16.425 27.5177 16.425 26.9895C16.425 26.4612 16.0173 26.033 15.5145 26.033C15.0116 26.033 14.604 26.4612 14.604 26.9895C14.604 27.5177 15.0116 27.9459 15.5145 27.9459Z" fill="#231F20"/>
<path d="M15.5119 28.0118C15.2606 28.0147 15.0179 27.9151 14.8349 27.7341C14.6519 27.5531 14.5428 27.3046 14.5305 27.0409C14.5181 26.7771 14.6035 26.5186 14.7687 26.3196C14.9339 26.1206 15.1661 25.9965 15.4165 25.9735C15.6731 25.9462 15.9296 26.0271 16.1294 26.1984C16.3292 26.3698 16.4561 26.6175 16.4821 26.8871C16.508 27.1567 16.431 27.4261 16.2679 27.636C16.1048 27.8459 15.869 27.9792 15.6124 28.0065C15.579 28.0102 15.5455 28.012 15.5119 28.0118ZM15.4316 26.1041C15.2367 26.1249 15.0548 26.2161 14.9168 26.362C14.7788 26.508 14.6932 26.6997 14.6747 26.9045C14.6561 27.1093 14.7058 27.3146 14.8151 27.4852C14.9245 27.6559 15.0868 27.7815 15.2744 27.8405C15.462 27.8995 15.6633 27.8884 15.8439 27.809C16.0246 27.7296 16.1735 27.5869 16.2652 27.4051C16.3569 27.2233 16.3858 27.0138 16.3469 26.8121C16.308 26.6105 16.2038 26.4293 16.0519 26.2993C15.8779 26.1505 15.6548 26.0803 15.4316 26.1041Z" fill="#231F20"/>
<path d="M6.05508 15.472C6.36839 15.5702 6.63437 15.7901 6.79902 16.0868C6.96367 16.3836 7.01464 16.735 6.9416 17.0699C6.86856 17.4047 6.67697 17.6977 6.40573 17.8895C6.13449 18.0814 5.80393 18.1576 5.48116 18.1027L5.34679 18.575C5.33173 18.6187 5.30131 18.6548 5.26176 18.6757C5.22221 18.6966 5.17654 18.7008 5.13411 18.6875C5.09169 18.6742 5.05573 18.6443 5.03363 18.604C5.01152 18.5637 5.00494 18.516 5.01524 18.4707L5.15088 17.9984C4.85245 17.8573 4.61641 17.602 4.49075 17.2846C4.36509 16.9671 4.35926 16.6113 4.47444 16.2895C4.58962 15.9676 4.81715 15.704 5.11078 15.5521C5.4044 15.4003 5.74206 15.3716 6.05508 15.472Z" fill="white"/>
<path d="M5.18069 18.7703C5.15769 18.7707 5.13478 18.7671 5.11288 18.7598C5.08311 18.7506 5.05537 18.7352 5.03127 18.7147C5.00717 18.6941 4.98718 18.6688 4.97247 18.6401C4.95776 18.6114 4.9486 18.5799 4.94554 18.5474C4.94248 18.515 4.94558 18.4822 4.95464 18.4511L5.08023 18.0328C4.77491 17.8747 4.53773 17.6013 4.41617 17.2673C4.29461 16.9332 4.29764 16.5633 4.42466 16.2315C4.55169 15.8998 4.79332 15.6307 5.10118 15.4781C5.40904 15.3255 5.7604 15.3008 6.0849 15.4088C6.41351 15.5063 6.69475 15.731 6.87195 16.0376C7.04916 16.3442 7.10918 16.71 7.03992 17.0613C6.97066 17.4125 6.77726 17.7232 6.49869 17.9306C6.22011 18.1381 5.87705 18.2269 5.53861 18.1793L5.4193 18.5988C5.40102 18.6615 5.35996 18.7141 5.30502 18.7453C5.26657 18.7655 5.22354 18.7741 5.18069 18.7703ZM5.68303 15.48C5.40419 15.4821 5.13438 15.5841 4.91813 15.769C4.70189 15.954 4.55214 16.2109 4.4936 16.4973C4.43506 16.7837 4.47124 17.0825 4.59616 17.3444C4.72107 17.6063 4.92726 17.8156 5.18069 17.9378C5.19473 17.9443 5.20606 17.9559 5.21253 17.9704C5.21901 17.985 5.22019 18.0016 5.21586 18.017L5.08023 18.4893C5.07583 18.5038 5.07424 18.5191 5.07553 18.5343C5.07683 18.5495 5.08098 18.5642 5.08776 18.5777C5.09446 18.5911 5.10371 18.603 5.11494 18.6125C5.12617 18.6221 5.13915 18.6291 5.15306 18.6331C5.18104 18.6422 5.2113 18.6392 5.2372 18.6249C5.26311 18.6105 5.28253 18.586 5.29121 18.5566L5.42684 18.083C5.43096 18.0678 5.44033 18.0548 5.45311 18.0465C5.46588 18.0382 5.48115 18.0352 5.49591 18.0381C5.66223 18.0646 5.83196 18.0547 5.9945 18.0092C6.15705 17.9637 6.30892 17.8835 6.44065 17.7736C6.57238 17.6637 6.68114 17.5265 6.76015 17.3704C6.83916 17.2144 6.88672 17.043 6.89987 16.8668C6.91301 16.6906 6.89146 16.5135 6.83656 16.3465C6.78166 16.1794 6.69458 16.0261 6.58076 15.8959C6.46694 15.7658 6.32882 15.6617 6.17501 15.5902C6.02121 15.5186 5.85501 15.4811 5.6868 15.48H5.68303Z" fill="#231F20"/>
<path d="M5.68344 17.724C6.18628 17.724 6.59392 17.2958 6.59392 16.7675C6.59392 16.2393 6.18628 15.811 5.68344 15.811C5.18059 15.811 4.77295 16.2393 4.77295 16.7675C4.77295 17.2958 5.18059 17.724 5.68344 17.724Z" fill="#231F20"/>
<path d="M5.68454 17.79C5.58926 17.7899 5.4945 17.7752 5.40323 17.7465C5.16791 17.6719 4.96814 17.5066 4.84406 17.2837C4.71998 17.0608 4.68077 16.7969 4.73431 16.5449C4.78784 16.2929 4.93016 16.0715 5.13267 15.9251C5.33519 15.7788 5.58291 15.7184 5.82607 15.756C6.06924 15.7937 6.28985 15.9266 6.44359 16.128C6.59733 16.3295 6.67283 16.5846 6.65491 16.8421C6.63699 17.0996 6.52698 17.3405 6.34699 17.5163C6.16699 17.6922 5.93033 17.7899 5.68454 17.79ZM5.68454 15.8771C5.50267 15.8779 5.32585 15.94 5.18006 16.0542C5.03426 16.1684 4.92717 16.3288 4.87452 16.5116C4.82659 16.68 4.82724 16.8595 4.87636 17.0275C4.92549 17.1955 5.0209 17.3444 5.15055 17.4555C5.2802 17.5666 5.43826 17.6348 5.60479 17.6515C5.77132 17.6683 5.93884 17.6328 6.08619 17.5496C6.23355 17.4664 6.35413 17.3392 6.43272 17.1841C6.5113 17.0289 6.54436 16.8528 6.52772 16.6779C6.51108 16.5031 6.44549 16.3373 6.33923 16.2016C6.23297 16.0658 6.0908 15.9662 5.93069 15.9153C5.85 15.89 5.76624 15.8771 5.68203 15.8771H5.68454Z" fill="#231F20"/>
<path d="M14.3553 5.41115C14.3617 5.75853 14.2407 6.09521 14.0172 6.35136C13.7938 6.6075 13.485 6.76345 13.155 6.78687C12.825 6.81029 12.4991 6.69937 12.2449 6.47712C11.9907 6.25487 11.8276 5.93835 11.7896 5.59321H11.3199C11.296 5.59535 11.2719 5.59226 11.2492 5.58411C11.2265 5.57597 11.2056 5.56296 11.1879 5.54591C11.1702 5.52885 11.1561 5.50813 11.1465 5.48504C11.1368 5.46196 11.1318 5.43702 11.1318 5.4118C11.1318 5.38659 11.1368 5.36165 11.1465 5.33857C11.1561 5.31548 11.1702 5.29476 11.1879 5.2777C11.2056 5.26065 11.2265 5.24764 11.2492 5.2395C11.2719 5.23135 11.296 5.22826 11.3199 5.2304H11.7896C11.8349 4.89207 12.0004 4.58429 12.2528 4.36892C12.5053 4.15355 12.826 4.04655 13.1505 4.06945C13.475 4.09234 13.7792 4.24342 14.002 4.49232C14.2248 4.74122 14.3497 5.06949 14.3515 5.41115H14.3553Z" fill="white"/>
<path d="M13.0675 6.82916C12.7506 6.82877 12.4438 6.71135 12.2009 6.49744C11.9581 6.28352 11.7945 5.98673 11.7388 5.65895H11.3231C11.2908 5.66143 11.2583 5.65688 11.2276 5.64557C11.197 5.63427 11.1689 5.61645 11.1452 5.59324C11.1214 5.57003 11.1024 5.54191 11.0895 5.51066C11.0765 5.4794 11.0698 5.44567 11.0698 5.41158C11.0698 5.37748 11.0765 5.34375 11.0895 5.3125C11.1024 5.28124 11.1214 5.25313 11.1452 5.22992C11.1689 5.2067 11.197 5.18889 11.2276 5.17758C11.2583 5.16628 11.2908 5.16172 11.3231 5.16421H11.7388C11.7835 4.89834 11.8995 4.6514 12.0732 4.45241C12.2469 4.25342 12.4711 4.11064 12.7193 4.04086C12.9676 3.97108 13.2297 3.9772 13.4748 4.05849C13.7198 4.13978 13.9377 4.29287 14.1028 4.49977C14.2679 4.70666 14.3734 4.95877 14.4068 5.22646C14.4403 5.49416 14.4003 5.76631 14.2915 6.01094C14.1828 6.25557 14.0099 6.46252 13.793 6.60746C13.5762 6.7524 13.3245 6.82931 13.0675 6.82916ZM11.3231 5.29614C11.3077 5.29441 11.2921 5.2961 11.2774 5.30111C11.2626 5.30612 11.249 5.31434 11.2375 5.32523C11.226 5.33611 11.2167 5.34943 11.2104 5.36431C11.2041 5.37918 11.2009 5.39529 11.2009 5.41158C11.2009 5.42787 11.2041 5.44397 11.2104 5.45885C11.2167 5.47373 11.226 5.48704 11.2375 5.49793C11.249 5.50882 11.2626 5.51703 11.2774 5.52205C11.2921 5.52706 11.3077 5.52875 11.3231 5.52702H11.789C11.8043 5.52722 11.8189 5.53322 11.8302 5.54389C11.8415 5.55457 11.8488 5.5692 11.8506 5.58507C11.8925 5.90819 12.0496 6.20254 12.2902 6.40859C12.5308 6.61464 12.8369 6.71699 13.1466 6.69495C13.4563 6.67291 13.7465 6.52812 13.9584 6.28986C14.1704 6.05161 14.2883 5.73768 14.2883 5.41158C14.2883 5.08548 14.1704 4.77155 13.9584 4.53329C13.7465 4.29504 13.4563 4.15025 13.1466 4.12821C12.8369 4.10617 12.5308 4.20852 12.2902 4.41457C12.0496 4.62061 11.8925 4.91497 11.8506 5.23809C11.8488 5.25395 11.8415 5.26858 11.8302 5.27926C11.8189 5.28994 11.8043 5.29594 11.789 5.29614H11.3231Z" fill="#231F20"/>
<path d="M13.0677 6.36757C13.5706 6.36757 13.9782 5.93934 13.9782 5.41108C13.9782 4.88283 13.5706 4.45459 13.0677 4.45459C12.5649 4.45459 12.1572 4.88283 12.1572 5.41108C12.1572 5.93934 12.5649 6.36757 13.0677 6.36757Z" fill="#231F20"/>
<path d="M13.068 6.43358C12.8755 6.43358 12.6873 6.37361 12.5273 6.26126C12.3672 6.14891 12.2425 5.98923 12.1688 5.8024C12.0951 5.61557 12.0759 5.40999 12.1134 5.21165C12.151 5.01332 12.2437 4.83113 12.3798 4.68814C12.5159 4.54515 12.6893 4.44777 12.8781 4.40832C13.0669 4.36887 13.2626 4.38912 13.4405 4.4665C13.6183 4.54389 13.7703 4.67494 13.8773 4.84308C13.9842 5.01122 14.0413 5.2089 14.0413 5.41113C14.041 5.68219 13.9383 5.94205 13.7559 6.13372C13.5734 6.32539 13.326 6.43323 13.068 6.43358ZM13.068 4.52192C12.9003 4.52192 12.7364 4.57418 12.5969 4.67209C12.4575 4.77 12.3488 4.90916 12.2847 5.07196C12.2206 5.23476 12.2039 5.41388 12.2367 5.58666C12.2695 5.75944 12.3504 5.91812 12.469 6.04261C12.5877 6.16709 12.7389 6.2518 12.9034 6.28602C13.0679 6.32023 13.2384 6.3024 13.3933 6.2348C13.5482 6.1672 13.6805 6.05285 13.7735 5.90623C13.8665 5.75961 13.916 5.58731 13.9157 5.41113C13.9154 5.17517 13.8259 4.949 13.667 4.78228C13.508 4.61556 13.2926 4.52192 13.068 4.52192Z" fill="#231F20"/>
<path d="M28.3661 13.5933C28.3643 13.935 28.2395 14.2633 28.0167 14.5122C27.7939 14.7611 27.4897 14.9121 27.1652 14.935C26.8407 14.9579 26.52 14.8509 26.2675 14.6356C26.015 14.4202 25.8495 14.1124 25.8042 13.7741H25.3345C25.3106 13.7762 25.2865 13.7731 25.2638 13.765C25.2411 13.7568 25.2202 13.7438 25.2026 13.7268C25.1849 13.7097 25.1708 13.689 25.1611 13.6659C25.1515 13.6428 25.1465 13.6179 25.1465 13.5927C25.1465 13.5675 25.1515 13.5425 25.1611 13.5194C25.1708 13.4963 25.1849 13.4756 25.2026 13.4586C25.2202 13.4415 25.2411 13.4285 25.2638 13.4204C25.2865 13.4122 25.3106 13.4091 25.3345 13.4113H25.8042C25.8495 13.0728 26.0151 12.765 26.2677 12.5496C26.5203 12.3342 26.8412 12.2273 27.1658 12.2504C27.4904 12.2735 27.7946 12.4248 28.0173 12.6739C28.24 12.9231 28.3646 13.2516 28.3661 13.5933Z" fill="white"/>
<path d="M27.0814 15.0103C26.7645 15.0101 26.4578 14.8928 26.2151 14.6788C25.9724 14.4648 25.8091 14.1679 25.754 13.8401H25.3383C25.3059 13.8426 25.2734 13.838 25.2428 13.8267C25.2122 13.8154 25.1841 13.7976 25.1603 13.7744C25.1365 13.7512 25.1176 13.7231 25.1046 13.6918C25.0916 13.6606 25.085 13.6268 25.085 13.5927C25.085 13.5586 25.0916 13.5249 25.1046 13.4937C25.1176 13.4624 25.1365 13.4343 25.1603 13.4111C25.1841 13.3879 25.2122 13.37 25.2428 13.3587C25.2734 13.3474 25.3059 13.3429 25.3383 13.3454H25.754C25.7987 13.0794 25.9147 12.8325 26.0885 12.6334C26.2622 12.4344 26.4864 12.2917 26.7348 12.2219C26.9831 12.1522 27.2452 12.1584 27.4903 12.2398C27.7354 12.3212 27.9533 12.4744 28.1184 12.6814C28.2834 12.8884 28.3888 13.1407 28.4221 13.4084C28.4553 13.6762 28.4152 13.9484 28.3062 14.193C28.1973 14.4376 28.0242 14.6445 27.8072 14.7892C27.5902 14.934 27.3384 15.0107 27.0814 15.0103ZM25.3383 13.4773C25.3229 13.4756 25.3073 13.4773 25.2925 13.4823C25.2778 13.4873 25.2642 13.4955 25.2526 13.5064C25.2411 13.5173 25.2319 13.5306 25.2256 13.5455C25.2193 13.5603 25.216 13.5764 25.216 13.5927C25.216 13.609 25.2193 13.6251 25.2256 13.64C25.2319 13.6549 25.2411 13.6682 25.2526 13.6791C25.2642 13.69 25.2778 13.6982 25.2925 13.7032C25.3073 13.7082 25.3229 13.7099 25.3383 13.7082H25.808C25.8232 13.7084 25.8378 13.7144 25.8491 13.725C25.8604 13.7357 25.8677 13.7504 25.8695 13.7662C25.9114 14.0893 26.0685 14.3837 26.3091 14.5897C26.5497 14.7958 26.8558 14.8981 27.1655 14.8761C27.4752 14.8541 27.7654 14.7093 27.9773 14.471C28.1893 14.2328 28.3072 13.9188 28.3072 13.5927C28.3072 13.2666 28.1893 12.9527 27.9773 12.7144C27.7654 12.4762 27.4752 12.3314 27.1655 12.3094C26.8558 12.2873 26.5497 12.3897 26.3091 12.5957C26.0685 12.8018 25.9114 13.0961 25.8695 13.4192C25.8677 13.4351 25.8604 13.4497 25.8491 13.4604C25.8378 13.4711 25.8232 13.4771 25.808 13.4773H25.3383Z" fill="#231F20"/>
<path d="M27.0828 14.5497C27.5857 14.5497 27.9933 14.1215 27.9933 13.5932C27.9933 13.065 27.5857 12.6367 27.0828 12.6367C26.58 12.6367 26.1724 13.065 26.1724 13.5932C26.1724 14.1215 26.58 14.5497 27.0828 14.5497Z" fill="#231F20"/>
<path d="M27.0829 14.6145C26.8903 14.6147 26.702 14.555 26.5417 14.4427C26.3815 14.3305 26.2565 14.1708 26.1827 13.9839C26.1089 13.797 26.0895 13.5913 26.127 13.3929C26.1646 13.1944 26.2573 13.0121 26.3935 12.869C26.5297 12.726 26.7032 12.6286 26.8921 12.5892C27.081 12.5498 27.2768 12.5701 27.4547 12.6477C27.6326 12.7252 27.7846 12.8565 27.8914 13.0248C27.9983 13.1932 28.0552 13.391 28.0549 13.5934C28.0546 13.8641 27.9521 14.1236 27.7699 14.315C27.5877 14.5064 27.3406 14.6141 27.0829 14.6145ZM27.0829 12.7028C26.9152 12.7026 26.7512 12.7546 26.6116 12.8523C26.4721 12.95 26.3632 13.0889 26.2989 13.2516C26.2345 13.4143 26.2175 13.5934 26.2501 13.7663C26.2827 13.9391 26.3633 14.0979 26.4818 14.2226C26.6003 14.3472 26.7514 14.4322 26.9158 14.4667C27.0803 14.5011 27.2508 14.4836 27.4058 14.4162C27.5607 14.3488 27.6932 14.2347 27.7864 14.0882C27.8796 13.9418 27.9294 13.7695 27.9294 13.5934C27.929 13.3575 27.8398 13.1314 27.6812 12.9645C27.5225 12.7976 27.3074 12.7035 27.0829 12.7028Z" fill="#231F20"/>
<path d="M25.67 10.5391C25.67 10.5391 24.6942 11.2291 24.477 11.2832C24.2597 11.3373 23.1357 11.3004 23.1357 11.3004L24.2032 9.70798C24.2032 9.70798 24.9567 9.54307 25.3448 9.58528C25.7328 9.6275 25.67 10.5391 25.67 10.5391Z" fill="white"/>
<path d="M23.8767 11.3795C23.5263 11.3795 23.1596 11.3663 23.1332 11.3663C23.1219 11.3654 23.1111 11.3616 23.1017 11.3551C23.0922 11.3487 23.0845 11.3398 23.0792 11.3293C23.0737 11.3191 23.0708 11.3075 23.0708 11.2957C23.0708 11.2839 23.0737 11.2723 23.0792 11.262L24.1467 9.66965C24.156 9.65606 24.1699 9.64665 24.1856 9.64326C24.2157 9.64326 24.9517 9.47571 25.346 9.52057C25.7906 9.56938 25.7303 10.5048 25.7227 10.5443C25.7221 10.5544 25.7192 10.5641 25.7144 10.5728C25.7097 10.5815 25.7031 10.5889 25.6951 10.5945C25.5947 10.6657 24.7055 11.2911 24.4832 11.3478C24.2821 11.3747 24.0793 11.3853 23.8767 11.3795ZM23.2487 11.237C23.6167 11.2475 24.3049 11.2581 24.4581 11.2198C24.6113 11.1816 25.3171 10.704 25.6034 10.5034C25.616 10.2475 25.5896 9.68021 25.3322 9.65118C24.9956 9.61424 24.3652 9.73957 24.2346 9.76728L23.2487 11.237Z" fill="#231F20"/>
<path d="M21.5169 6.60494C21.55 6.78614 21.5589 6.97131 21.5432 7.15509C21.5143 7.33583 21.6412 7.98756 21.6412 7.98756L20.4544 9.03245C20.4544 9.03245 20.1605 7.44929 20.2346 7.18543C20.3836 6.79507 20.5513 6.41287 20.737 6.04028L21.5169 6.60494Z" fill="white"/>
<path d="M20.4541 9.09578C20.4474 9.09704 20.4406 9.09704 20.434 9.09578C20.4237 9.09201 20.4145 9.08556 20.4072 9.07702C20.4 9.06847 20.3949 9.05813 20.3925 9.04696C20.3624 8.88337 20.0974 7.44534 20.174 7.16829C20.3224 6.77379 20.49 6.3876 20.6763 6.01126C20.6805 6.00297 20.6861 5.99565 20.6931 5.98975C20.7 5.98385 20.708 5.9795 20.7165 5.97696C20.7253 5.97472 20.7345 5.9745 20.7434 5.97632C20.7523 5.97814 20.7607 5.98196 20.768 5.98752L21.5517 6.55481C21.5608 6.56215 21.5681 6.57165 21.573 6.58252C21.6115 6.77589 21.6221 6.97424 21.6044 7.17092C21.5818 7.30285 21.6672 7.80023 21.7011 7.97833C21.7037 7.99013 21.703 8.00244 21.6992 8.01387C21.6955 8.02529 21.6887 8.03538 21.6798 8.04298L20.4892 9.0839C20.479 9.09171 20.4667 9.09587 20.4541 9.09578ZM20.7567 6.13C20.583 6.47614 20.4275 6.832 20.2908 7.19599C20.2418 7.37278 20.3787 8.27386 20.4917 8.90184L21.573 7.95722C21.5429 7.80419 21.4537 7.30549 21.4813 7.13926C21.4931 6.974 21.4855 6.80784 21.4587 6.64453L20.7567 6.13Z" fill="#231F20"/>
<path d="M29.5161 5.13123C29.6216 5.80143 28.6244 9.60628 28.4273 9.81869C28.2301 10.0311 25.5928 10.9942 25.5928 10.9942L25.1558 9.40443C25.1558 9.40443 27.0308 8.50203 27.1425 8.40441C27.2543 8.30678 27.5193 6.85555 27.5193 6.85555C27.5193 6.85555 25.854 6.59169 25.2349 6.03759C24.6158 5.48349 24.0544 3.67605 23.7442 3.60349C23.434 3.53093 22.4984 4.11933 22.3628 4.36868C22.2272 4.61803 21.8969 6.86215 21.8969 6.86215L20.3296 6.35026C20.3296 6.35026 20.7716 4.0283 21.0304 3.36338C21.2891 2.69845 24.2792 1.18654 24.6196 1.15092C24.9599 1.1153 29.4106 4.46235 29.5161 5.13123Z" fill="#0064FF"/>
<path d="M23.6445 5.02697C23.6874 5.47984 23.8629 5.9076 24.1469 6.25127C24.1469 6.25127 24.069 6.47819 24.2247 6.53888C24.3103 6.57548 24.4024 6.59256 24.4947 6.58901C24.4947 6.58901 25.4442 7.10222 25.9277 6.85287C26.4112 6.60353 25.7468 4.56654 24.9129 4.58632C24.0791 4.60611 23.6445 5.02697 23.6445 5.02697Z" fill="white"/>
<path d="M25.6034 6.98767C25.1388 6.98767 24.585 6.7093 24.4832 6.65521C24.3879 6.65588 24.2933 6.63752 24.2044 6.60112C24.1476 6.5724 24.1031 6.52225 24.0798 6.46066C24.0566 6.39906 24.0562 6.33052 24.0788 6.26866C23.7989 5.91826 23.6272 5.48661 23.5866 5.03116C23.586 5.02135 23.5874 5.01152 23.5909 5.00238C23.5944 4.99325 23.5998 4.98506 23.6067 4.97839C23.6242 4.95992 24.065 4.54038 24.914 4.52059C25.4917 4.5008 25.9551 5.37418 26.0995 5.99425C26.21 6.46655 26.1573 6.80957 25.9576 6.91775C25.846 6.96861 25.725 6.99251 25.6034 6.98767ZM24.4908 6.52592C24.5003 6.52393 24.5101 6.52393 24.5196 6.52592C24.5297 6.52592 25.4477 7.02198 25.9011 6.78978C26.0392 6.71854 26.0694 6.41774 25.9764 6.02195C25.822 5.3623 25.3774 4.64857 24.9253 4.64857H24.9152C24.4847 4.6428 24.0637 4.78145 23.7134 5.04435C23.7595 5.4702 23.9267 5.87157 24.1931 6.1961C24.201 6.20497 24.2064 6.2159 24.2088 6.22774C24.2113 6.23959 24.2106 6.2519 24.2069 6.26338C24.2069 6.26338 24.1529 6.42961 24.2471 6.46787C24.324 6.50066 24.4066 6.51595 24.4895 6.51273L24.4908 6.52592Z" fill="#231F20"/>
<path d="M23.6446 5.02705C23.8033 5.23463 24.0152 5.39015 24.2553 5.47525C24.4954 5.56035 24.7537 5.57146 24.9997 5.50728C24.9997 5.50728 25.1252 6.50335 25.9252 6.85296C25.9252 6.85296 27.392 6.2606 27.6947 5.11413C27.9974 3.96766 27.2753 3.01909 26.425 2.6233C25.5748 2.22751 23.4562 2.74995 23.6446 5.02705Z" fill="white"/>
<path d="M25.9251 6.92153C25.9172 6.9234 25.9091 6.9234 25.9012 6.92153C25.1967 6.61149 24.9957 5.83443 24.9493 5.59432C24.699 5.64322 24.4407 5.61984 24.2021 5.52667C23.9635 5.4335 23.7534 5.27404 23.5942 5.06528C23.5879 5.05544 23.584 5.04411 23.5829 5.0323C23.4862 3.85944 23.9873 3.2209 24.4256 2.8924C25.1012 2.38183 25.9803 2.34225 26.4513 2.56785C27.3015 2.96364 28.0713 3.93728 27.7548 5.13784C27.4471 6.30278 26.0092 6.89514 25.9477 6.92021C25.9402 6.9219 25.9326 6.92235 25.9251 6.92153ZM24.9995 5.44392C25.0147 5.44412 25.0293 5.45012 25.0407 5.46079C25.052 5.47147 25.0592 5.4861 25.061 5.50196C25.061 5.5112 25.1942 6.44394 25.9263 6.78432C26.1122 6.70252 27.363 6.12467 27.6343 5.09958C27.9306 3.97422 27.2023 3.05995 26.3998 2.68659C25.9514 2.47682 25.1163 2.53883 24.4972 3.00322C24.089 3.3093 23.6181 3.90562 23.7047 5.00459C23.8561 5.19858 24.0571 5.34319 24.284 5.42147C24.5108 5.49975 24.7543 5.50845 24.9857 5.44655L24.9995 5.44392Z" fill="#231F20"/>
<path d="M20.0375 9.90813L22.6271 11.7799C22.7842 11.8935 22.9993 11.8518 23.1074 11.6867L24.4044 9.70642C24.5125 9.54135 24.4728 9.31546 24.3156 9.20188L21.726 7.33007C21.5689 7.21649 21.3539 7.25823 21.2457 7.42331L19.9487 9.40359C19.8406 9.56866 19.8804 9.79455 20.0375 9.90813Z" fill="white"/>
<path d="M22.8193 11.9111C22.7368 11.9108 22.6563 11.8846 22.5882 11.8359L19.9986 9.96381C19.9096 9.89924 19.8485 9.80015 19.829 9.68832C19.8094 9.5765 19.833 9.46109 19.8944 9.36749L21.1904 7.38855C21.2519 7.29503 21.3461 7.23089 21.4525 7.21012C21.5589 7.18936 21.6687 7.21366 21.7581 7.27772L24.3476 9.14849C24.392 9.18024 24.4299 9.22089 24.4592 9.2681C24.4885 9.31532 24.5087 9.36816 24.5185 9.42359C24.5283 9.47901 24.5276 9.53593 24.5163 9.59106C24.5051 9.64619 24.4836 9.69844 24.4531 9.74481L23.1571 11.7237C23.1196 11.7816 23.0692 11.8288 23.0103 11.8615C22.9514 11.8942 22.8858 11.9112 22.8193 11.9111ZM21.527 7.33314C21.481 7.33347 21.4357 7.34568 21.3952 7.36868C21.3547 7.39168 21.3202 7.42478 21.2947 7.46507L19.9974 9.44401C19.9552 9.50901 19.9392 9.58889 19.9529 9.66624C19.9665 9.74358 20.0087 9.81213 20.0702 9.85695L22.6598 11.7277C22.6903 11.75 22.7247 11.7657 22.7611 11.7739C22.7974 11.7821 22.8349 11.7827 22.8715 11.7756C22.908 11.7684 22.9429 11.7538 22.974 11.7324C23.0052 11.7111 23.0319 11.6835 23.0528 11.6512L24.3501 9.67225C24.3923 9.60724 24.4083 9.52736 24.3947 9.45002C24.381 9.37267 24.3388 9.30412 24.2773 9.25931L21.6877 7.38591C21.6405 7.35156 21.5844 7.33315 21.527 7.33314Z" fill="#231F20"/>
<path d="M20.317 9.7172L22.6976 11.438C22.7805 11.4978 22.8939 11.4758 22.9509 11.3888L24.0849 9.6574C24.1419 9.57036 24.1209 9.45125 24.0381 9.39137L21.6575 7.67062C21.5746 7.61073 21.4612 7.63274 21.4042 7.71978L20.2702 9.45117C20.2132 9.53821 20.2342 9.65732 20.317 9.7172Z" fill="white"/>
<path d="M22.7966 11.5393C22.7474 11.5389 22.6993 11.5233 22.6585 11.4944L20.2724 9.77934C20.2457 9.76021 20.2229 9.73563 20.2054 9.70708C20.188 9.67852 20.1761 9.64656 20.1706 9.61311C20.1643 9.58012 20.1645 9.54612 20.1712 9.51321C20.1779 9.4803 20.1909 9.44919 20.2096 9.42181L21.3398 7.68958C21.3777 7.63484 21.4341 7.59747 21.4975 7.58519C21.5608 7.57291 21.6262 7.58667 21.6802 7.62361L24.0663 9.3387C24.1184 9.37847 24.154 9.43775 24.1656 9.50429C24.1773 9.57082 24.1642 9.63954 24.1291 9.69622L22.9988 11.4285C22.9758 11.4624 22.9455 11.4901 22.9104 11.5094C22.8752 11.5286 22.8362 11.5389 22.7966 11.5393ZM21.5496 7.70541C21.5304 7.70597 21.5116 7.71113 21.4946 7.72051C21.4776 7.72988 21.4629 7.74322 21.4516 7.7595L20.3213 9.49041C20.3041 9.51806 20.2974 9.55148 20.3025 9.58408C20.309 9.6166 20.3269 9.64534 20.3527 9.66456L22.7388 11.3796C22.7516 11.3891 22.7659 11.3958 22.7812 11.3994C22.7964 11.4029 22.8121 11.4032 22.8275 11.4003C22.8428 11.3973 22.8574 11.3912 22.8704 11.3822C22.8835 11.3732 22.8947 11.3616 22.9034 11.348L24.0336 9.61575C24.0427 9.60256 24.0491 9.58758 24.0526 9.57172C24.0561 9.55585 24.0564 9.53942 24.0537 9.5234C24.0472 9.49088 24.0293 9.46214 24.0035 9.44292L21.6174 7.72124C21.5966 7.70937 21.5731 7.70388 21.5496 7.70541Z" fill="#231F20"/>
<path d="M24.0552 10.5748C24.0552 10.5748 23.1761 10.7212 23.0819 10.5616C22.9878 10.4019 23.1749 10.1579 23.3419 10.1091C23.5089 10.0603 24.4031 9.99561 24.4031 9.99561" fill="white"/>
<path d="M23.4236 10.7027C23.2378 10.7027 23.077 10.6763 23.0293 10.5971C23.0082 10.56 22.9958 10.5182 22.9932 10.475C22.9906 10.4319 22.9978 10.3887 23.0142 10.3491C23.0422 10.2781 23.0844 10.2143 23.1379 10.1619C23.1914 10.1096 23.255 10.0699 23.3244 10.0457C23.4965 9.99422 24.3618 9.93221 24.3994 9.92957C24.4159 9.92848 24.4321 9.93423 24.4445 9.94559C24.457 9.95695 24.4647 9.97299 24.466 9.99026C24.4667 9.99897 24.4657 10.0077 24.463 10.016C24.4604 10.0243 24.4562 10.0319 24.4507 10.0385C24.4452 10.045 24.4385 10.0503 24.431 10.054C24.4234 10.0578 24.4153 10.0599 24.407 10.0602C24.1558 10.0787 23.4902 10.1327 23.3583 10.1723C23.3076 10.1907 23.2612 10.2201 23.2223 10.2588C23.1833 10.2975 23.1526 10.3445 23.1323 10.3966C23.1222 10.417 23.1169 10.4396 23.1169 10.4626C23.1169 10.4855 23.1222 10.5082 23.1323 10.5285C23.1762 10.5932 23.602 10.5853 24.0428 10.5114C24.0509 10.5101 24.0593 10.5105 24.0673 10.5125C24.0753 10.5146 24.0829 10.5183 24.0895 10.5235C24.0962 10.5286 24.1018 10.5351 24.106 10.5425C24.1103 10.55 24.1131 10.5582 24.1144 10.5668C24.1156 10.5754 24.1152 10.5841 24.1132 10.5926C24.1113 10.601 24.1077 10.6089 24.1028 10.6159C24.0979 10.6229 24.0918 10.6288 24.0847 10.6333C24.0776 10.6377 24.0698 10.6407 24.0616 10.642C23.8506 10.6782 23.6374 10.6985 23.4236 10.7027Z" fill="#231F20"/>
<path d="M20.6595 7.63935C20.6595 7.66178 20.613 8.64333 20.829 8.71985C21.045 8.79637 21.035 8.54834 21.0613 8.32406C21.0877 8.09978 21.0174 7.71851 21.1379 7.44409" fill="white"/>
<path d="M20.9009 8.80029C20.8701 8.79926 20.8396 8.79348 20.8105 8.78314C20.6032 8.70926 20.5794 8.12349 20.597 7.64722C20.5973 7.62957 20.6039 7.61269 20.6155 7.59997C20.6272 7.58724 20.643 7.57962 20.6598 7.57862C20.6677 7.57826 20.6757 7.5796 20.6831 7.58256C20.6906 7.58552 20.6974 7.59003 20.7031 7.59582C20.7089 7.60161 20.7135 7.60857 20.7166 7.61627C20.7197 7.62397 20.7213 7.63225 20.7213 7.64062V7.6525C20.6987 8.27521 20.769 8.62878 20.8469 8.6578C20.8723 8.66832 20.9006 8.66832 20.926 8.6578C20.9662 8.63142 20.9775 8.51268 20.9875 8.40846C20.9875 8.37811 20.9875 8.34645 20.9963 8.31611C21.0017 8.23088 21.0017 8.14538 20.9963 8.06016C20.9769 7.84226 21.003 7.62252 21.0729 7.41634C21.0764 7.40842 21.0814 7.40131 21.0875 7.39542C21.0937 7.38953 21.1009 7.38498 21.1087 7.38204C21.1165 7.37909 21.1248 7.37781 21.1331 7.37826C21.1414 7.37872 21.1496 7.3809 21.1571 7.38468C21.1646 7.38823 21.1713 7.39332 21.1769 7.39964C21.1825 7.40597 21.1868 7.41342 21.1896 7.42153C21.1925 7.42965 21.1937 7.43828 21.1933 7.4469C21.1929 7.45553 21.1908 7.46398 21.1872 7.47175C21.1258 7.65986 21.1036 7.85961 21.1219 8.05752C21.1278 8.14889 21.1278 8.24057 21.1219 8.33194C21.1219 8.36228 21.1144 8.39262 21.1119 8.42165C21.0981 8.56809 21.0842 8.70794 20.9938 8.76862C20.9666 8.78882 20.9342 8.79986 20.9009 8.80029Z" fill="#231F20"/>
<path d="M13.5868 22.9962L10.313 19.5845L6.35422 23.7768L9.62808 27.1886L13.5868 22.9962Z" fill="white"/>
<path d="M9.62611 27.2546C9.60954 27.2544 9.59374 27.2473 9.58215 27.2348L6.30817 23.8231C6.29679 23.8107 6.29049 23.7942 6.29058 23.777C6.29022 23.7682 6.2916 23.7595 6.29463 23.7513C6.29765 23.7431 6.30226 23.7357 6.30817 23.7295L10.2666 19.5381C10.2724 19.5319 10.2794 19.527 10.287 19.5236C10.2947 19.5203 10.3029 19.5186 10.3112 19.5186C10.3195 19.5186 10.3277 19.5203 10.3353 19.5236C10.343 19.527 10.3499 19.5319 10.3558 19.5381L13.6297 22.9498C13.6356 22.9559 13.6403 22.9632 13.6435 22.9712C13.6467 22.9793 13.6483 22.9879 13.6483 22.9966C13.6483 23.0053 13.6467 23.0139 13.6435 23.022C13.6403 23.03 13.6356 23.0373 13.6297 23.0434L9.67132 27.2388C9.65875 27.25 9.64255 27.2557 9.62611 27.2546ZM6.44129 23.7756L9.62611 27.095L13.4966 22.9973L10.3118 19.6779L6.44129 23.7756Z" fill="#231F20"/>
<path d="M12.3656 23.2149C12.3576 23.215 12.3498 23.2133 12.3425 23.2102C12.3351 23.207 12.3285 23.2023 12.3229 23.1965L10.1151 20.8943C10.1096 20.8885 10.1052 20.8816 10.1022 20.874C10.0992 20.8664 10.0977 20.8583 10.0977 20.8501C10.0977 20.8419 10.0992 20.8338 10.1022 20.8262C10.1052 20.8186 10.1096 20.8117 10.1151 20.8059C10.1206 20.8001 10.1272 20.7955 10.1344 20.7924C10.1416 20.7892 10.1493 20.7876 10.1572 20.7876C10.165 20.7876 10.1727 20.7892 10.1799 20.7924C10.1871 20.7955 10.1937 20.8001 10.1992 20.8059L12.407 23.1068C12.4181 23.1188 12.4242 23.1349 12.4242 23.1516C12.4242 23.1683 12.4181 23.1844 12.407 23.1965C12.3958 23.2077 12.381 23.2142 12.3656 23.2149Z" fill="#D1D3D4"/>
<path d="M11.7326 23.8838C11.7248 23.884 11.7171 23.8825 11.7099 23.8793C11.7028 23.8761 11.6964 23.8714 11.6911 23.8653L9.48209 21.5658C9.47647 21.5599 9.47201 21.5529 9.46896 21.5452C9.46592 21.5375 9.46436 21.5293 9.46436 21.521C9.46436 21.5126 9.46592 21.5044 9.46896 21.4967C9.47201 21.489 9.47647 21.482 9.48209 21.4761C9.49355 21.4645 9.50886 21.458 9.52479 21.458C9.54071 21.458 9.55602 21.4645 9.56748 21.4761L11.7753 23.7769C11.7809 23.7828 11.7853 23.7898 11.7884 23.7975C11.7914 23.8052 11.793 23.8135 11.793 23.8218C11.793 23.8301 11.7914 23.8384 11.7884 23.8461C11.7853 23.8538 11.7809 23.8608 11.7753 23.8667C11.7637 23.8779 11.7484 23.8841 11.7326 23.8838Z" fill="#D1D3D4"/>
<path d="M11.1011 24.5527C11.0853 24.5531 11.0699 24.5469 11.0584 24.5355L8.85063 22.2334C8.84505 22.2276 8.84062 22.2207 8.83759 22.2131C8.83457 22.2055 8.83301 22.1974 8.83301 22.1892C8.83301 22.1809 8.83457 22.1728 8.83759 22.1652C8.84062 22.1576 8.84505 22.1507 8.85063 22.145C8.85613 22.1391 8.86268 22.1345 8.8699 22.1313C8.87712 22.1281 8.88487 22.1265 8.8927 22.1265C8.90053 22.1265 8.90829 22.1281 8.91551 22.1313C8.92273 22.1345 8.92928 22.1391 8.93477 22.145L11.1425 24.4472C11.1481 24.4529 11.1526 24.4598 11.1556 24.4674C11.1586 24.475 11.1602 24.4831 11.1602 24.4914C11.1602 24.4996 11.1586 24.5077 11.1556 24.5153C11.1526 24.5229 11.1481 24.5298 11.1425 24.5355C11.1314 24.5467 11.1165 24.5529 11.1011 24.5527Z" fill="#D1D3D4"/>
<path d="M10.4684 25.2228C10.4528 25.2227 10.4379 25.216 10.427 25.2044L8.21792 22.9035C8.20716 22.8913 8.20117 22.8753 8.20117 22.8586C8.20117 22.842 8.20716 22.826 8.21792 22.8138C8.22352 22.8079 8.23018 22.8032 8.23751 22.8C8.24483 22.7968 8.25269 22.7952 8.26062 22.7952C8.26856 22.7952 8.27641 22.7968 8.28374 22.8C8.29107 22.8032 8.29772 22.8079 8.30332 22.8138L10.5111 25.1146C10.5196 25.1235 10.5253 25.1348 10.5277 25.1471C10.53 25.1594 10.5288 25.1722 10.5242 25.1838C10.5197 25.1953 10.5119 25.2052 10.502 25.2122C10.492 25.2192 10.4803 25.2229 10.4684 25.2228Z" fill="#D1D3D4"/>
<path d="M8.92105 24.938C8.91341 24.9382 8.90581 24.9367 8.89869 24.9338C8.89158 24.9308 8.88509 24.9264 8.87961 24.9208L7.58609 23.5725C7.58047 23.5666 7.57601 23.5597 7.57297 23.552C7.56993 23.5443 7.56836 23.536 7.56836 23.5277C7.56836 23.5193 7.56993 23.5111 7.57297 23.5034C7.57601 23.4957 7.58047 23.4887 7.58609 23.4828C7.59735 23.4713 7.61244 23.4648 7.62816 23.4648C7.64388 23.4648 7.65897 23.4713 7.67023 23.4828L8.96375 24.8311C8.96933 24.8369 8.97377 24.8438 8.97679 24.8514C8.97982 24.859 8.98138 24.8671 8.98138 24.8753C8.98138 24.8836 8.97982 24.8917 8.97679 24.8993C8.97377 24.9069 8.96933 24.9138 8.96375 24.9195C8.95832 24.9257 8.9517 24.9305 8.94433 24.9337C8.93696 24.9369 8.92902 24.9383 8.92105 24.938Z" fill="#D1D3D4"/>
<path d="M5.09644 24.6108C5.26598 24.4195 5.54729 24.405 5.79721 24.405C5.96299 24.3952 6.12915 24.4157 6.28824 24.4657C6.49879 24.5658 6.68319 24.7178 6.82574 24.9089C7.08696 25.2071 7.36324 25.5382 7.3871 25.9433C7.4185 26.471 6.96388 26.9433 6.4628 27.0277C5.96172 27.1122 5.45813 26.8852 5.05877 26.5528C4.83624 26.392 4.67586 26.1529 4.60666 25.8786C4.59027 25.7392 4.60253 25.5977 4.6426 25.4636C4.68268 25.3296 4.74965 25.2061 4.839 25.1016C5.01979 24.896 5.22739 24.7183 5.45562 24.5738" fill="white"/>
<path d="M6.24639 27.1068C5.7114 27.1068 5.2593 26.8007 5.02069 26.6002C4.7444 26.368 4.58868 26.1345 4.54598 25.8864C4.52789 25.7371 4.54098 25.5853 4.58436 25.4418C4.62773 25.2982 4.70035 25.1664 4.79715 25.0553C4.9799 24.8427 5.19148 24.6595 5.42507 24.5117C5.43911 24.5021 5.45618 24.4987 5.47262 24.5021C5.48905 24.5056 5.50354 24.5157 5.51298 24.5302C5.52207 24.5448 5.52532 24.5625 5.52203 24.5795C5.51873 24.5966 5.50916 24.6116 5.4954 24.6212C5.2716 24.7625 5.06854 24.9371 4.89259 25.1397C4.80833 25.2363 4.74503 25.351 4.70709 25.4758C4.66914 25.6007 4.65745 25.7327 4.67282 25.8627C4.7105 26.0791 4.85115 26.2862 5.10232 26.4973C5.35349 26.7084 5.87466 27.0567 6.45737 26.9577C6.9032 26.8825 7.35907 26.4577 7.32893 25.9432C7.30758 25.5738 7.05892 25.2624 6.78515 24.9497C6.64852 24.7669 6.47246 24.6209 6.27151 24.5236C6.11928 24.4762 5.96034 24.457 5.80182 24.4669C5.55066 24.4669 5.29949 24.4814 5.14753 24.6516C5.14169 24.6578 5.13475 24.6627 5.1271 24.666C5.11944 24.6694 5.11124 24.6711 5.10295 24.6711C5.09466 24.6711 5.08645 24.6694 5.0788 24.666C5.07115 24.6627 5.0642 24.6578 5.05837 24.6516C5.04678 24.639 5.0403 24.6222 5.0403 24.6048C5.0403 24.5873 5.04678 24.5705 5.05837 24.5579C5.24423 24.3495 5.54061 24.331 5.81187 24.331C5.98486 24.321 6.1582 24.3424 6.32426 24.3943C6.5443 24.4987 6.73725 24.657 6.88687 24.8561C7.17697 25.1872 7.4407 25.5157 7.46456 25.9313C7.49972 26.5157 6.98734 26.9999 6.48751 27.0844C6.4079 27.0991 6.32723 27.1066 6.24639 27.1068Z" fill="#231F20"/>
<path d="M7.23089 20.05C7.3025 20.0174 7.37754 19.9939 7.45443 19.98C7.5436 19.9695 7.91533 19.9378 8.23557 19.8771C8.55581 19.8164 8.76553 19.761 8.7153 19.6594C8.66507 19.5579 8.09491 19.5354 8.09491 19.5354C8.28725 19.3667 8.4922 19.2145 8.70777 19.0803C8.87479 19.0064 8.95893 18.9483 8.94889 18.8626C8.93884 18.7768 8.93005 18.6858 8.52692 18.9299C8.52692 18.9299 8.91498 18.6053 8.75549 18.542C8.59599 18.4787 8.2971 18.7227 8.2971 18.7227C8.2971 18.7227 8.64748 18.4101 8.58092 18.327C8.51436 18.2438 8.11249 18.4351 8.11249 18.4351C8.11249 18.4351 8.50934 18.2082 8.40511 18.1211C8.30087 18.0341 7.98691 18.133 7.58378 18.418C7.18066 18.703 6.54395 19.2465 6.54395 19.2465L7.23089 20.05Z" fill="white"/>
<path d="M7.2302 20.1145C7.22139 20.1144 7.2127 20.1124 7.2047 20.1085C7.19669 20.1047 7.18955 20.0991 7.18374 20.0921L6.49679 19.286C6.49124 19.2794 6.48704 19.2717 6.48445 19.2633C6.48186 19.2549 6.48093 19.246 6.48172 19.2372C6.48232 19.2283 6.48463 19.2196 6.48852 19.2117C6.4924 19.2038 6.49778 19.1967 6.50433 19.191C6.50433 19.191 7.14732 18.6435 7.54793 18.3599C7.97115 18.0591 8.30144 17.9496 8.44335 18.0657C8.45739 18.077 8.46845 18.0919 8.47548 18.109C8.48251 18.1261 8.48528 18.1448 8.48353 18.1633C8.47998 18.1918 8.46913 18.2187 8.45214 18.2411C8.48253 18.2316 8.51473 18.2304 8.5457 18.2376C8.57668 18.2447 8.60541 18.26 8.62921 18.282C8.66438 18.3282 8.65684 18.3929 8.60535 18.4773C8.661 18.4594 8.72049 18.4594 8.77614 18.4773C8.79617 18.4837 8.81408 18.4959 8.82785 18.5124C8.84161 18.529 8.85068 18.5493 8.85401 18.571C8.85672 18.6217 8.84201 18.6718 8.81257 18.7121C8.853 18.6959 8.89772 18.6959 8.93815 18.7121C8.9596 18.7259 8.97725 18.7453 8.98936 18.7685C9.00148 18.7916 9.00763 18.8177 9.00722 18.8441C9.02355 18.9879 8.88164 19.0644 8.72842 19.1303C8.56324 19.2284 8.4065 19.3414 8.25999 19.4681C8.49232 19.4879 8.72214 19.5288 8.76233 19.6185C8.77072 19.6359 8.77509 19.6551 8.77509 19.6746C8.77509 19.694 8.77072 19.7132 8.76233 19.7306C8.7234 19.8164 8.5953 19.8626 8.23613 19.9325C7.95608 19.9839 7.6371 20.0156 7.50021 20.0288H7.44997C7.37959 20.0426 7.31091 20.0647 7.24527 20.0948C7.24166 20.1024 7.23652 20.1092 7.2302 20.1145ZM6.63996 19.2517L7.25281 19.9721C7.31679 19.944 7.38388 19.9245 7.45249 19.914H7.50398C7.63835 19.9008 7.95357 19.8692 8.22985 19.8177C8.50614 19.7662 8.64428 19.724 8.66563 19.6858C8.48023 19.6326 8.28892 19.6055 8.09674 19.6053C8.08401 19.605 8.0717 19.6006 8.06155 19.5925C8.05139 19.5844 8.04393 19.5732 8.04022 19.5604C8.03595 19.5478 8.03546 19.534 8.03883 19.5211C8.0422 19.5081 8.04926 19.4965 8.05906 19.4879C8.25556 19.3148 8.46561 19.1595 8.68698 19.0235C8.82889 18.9602 8.89294 18.914 8.88917 18.8744C8.89034 18.8626 8.89034 18.8506 8.88917 18.8388C8.88917 18.8388 8.83266 18.8295 8.56768 18.9905C8.55376 18.9985 8.53754 19.0009 8.52205 18.9973C8.50657 18.9936 8.49288 18.9842 8.48353 18.9707C8.47482 18.9569 8.47141 18.9401 8.47397 18.9237C8.47653 18.9073 8.48488 18.8925 8.49735 18.8823C8.62293 18.7755 8.74098 18.6409 8.73973 18.5987C8.64554 18.571 8.43205 18.7069 8.34414 18.7781C8.33779 18.7834 8.33052 18.7873 8.32272 18.7897C8.31493 18.792 8.30677 18.7927 8.29872 18.7917C8.29067 18.7908 8.28288 18.7881 8.2758 18.784C8.26873 18.7798 8.2625 18.7742 8.25748 18.7675C8.24723 18.7541 8.2423 18.737 8.2437 18.7198C8.2451 18.7026 8.25273 18.6866 8.26502 18.6752C8.37023 18.59 8.46072 18.4865 8.53251 18.3691C8.39848 18.391 8.2687 18.4356 8.14822 18.501C8.13324 18.5089 8.11588 18.5102 8.09999 18.5046C8.08409 18.4991 8.07095 18.4871 8.06346 18.4714C8.05596 18.4556 8.05473 18.4374 8.06003 18.4207C8.06533 18.404 8.07672 18.3902 8.09171 18.3823C8.19361 18.3292 8.28584 18.2578 8.36423 18.1712C8.29013 18.1343 8.04148 18.1844 7.6283 18.4786C7.28797 18.7042 6.79443 19.1172 6.63996 19.2517Z" fill="#231F20"/>
<path d="M7.00006 20.2822L7.30523 20.079L6.5693 19.1226L6.08203 19.455L7.00006 20.2822Z" fill="#231F20"/>
<path d="M6.99944 20.348C6.98426 20.3482 6.96953 20.3426 6.958 20.3322L6.04123 19.505C6.03362 19.4986 6.02767 19.4903 6.02394 19.4808C6.0202 19.4714 6.01881 19.4611 6.01988 19.4509C6.02046 19.4407 6.02325 19.4307 6.02803 19.4218C6.03282 19.4129 6.03948 19.4053 6.04751 19.3995L6.53478 19.067C6.54786 19.0582 6.56357 19.0549 6.57887 19.0575C6.59418 19.0602 6.608 19.0688 6.61766 19.0815L7.35358 20.0367C7.36378 20.0521 7.36825 20.0708 7.36614 20.0894C7.36462 20.0986 7.36126 20.1074 7.35628 20.1151C7.35131 20.1229 7.34482 20.1294 7.33726 20.1343L7.03209 20.3375C7.02234 20.3441 7.01104 20.3478 6.99944 20.348ZM6.18691 19.4628L7.00446 20.2003L7.21042 20.0683L6.55613 19.2161L6.18691 19.4628Z" fill="#231F20"/>
<path d="M9.01389 26.4973C9.01389 26.4973 8.67104 25.8878 8.63714 25.6556C8.60323 25.4234 8.66979 25.0487 8.7263 25.0421C8.78281 25.0355 8.92473 25.3482 8.89584 25.5329C8.89584 25.5329 9.1985 24.5975 9.36301 24.5725C9.52753 24.5474 9.4886 24.7479 9.45092 24.8627C9.45092 24.8627 9.59158 24.5817 9.66693 24.6503C9.74228 24.7189 9.69958 24.9894 9.69958 24.9894C9.69958 24.9894 9.80507 24.6872 9.89173 24.7466C9.97838 24.806 9.92563 25.0672 9.92563 25.0672C9.92563 25.0672 10.0349 24.7598 10.0989 24.8865C10.163 25.0131 10.1492 26.3179 9.99847 26.711C9.84777 27.1042 9.01389 26.4973 9.01389 26.4973Z" fill="white"/>
<path d="M9.78047 26.9103C9.47278 26.9103 9.02696 26.5923 8.97421 26.5514C8.96681 26.5465 8.96075 26.5397 8.95663 26.5316C8.94156 26.5052 8.60751 25.9089 8.56732 25.6662C8.53493 25.4462 8.56281 25.221 8.64769 25.0171C8.65505 25.0062 8.66439 24.997 8.67517 24.99C8.68595 24.983 8.69796 24.9783 8.71048 24.9762C8.72683 24.9751 8.74318 24.9782 8.75808 24.9854C8.77298 24.9925 8.78597 25.0034 8.79588 25.0171C8.85053 25.0874 8.8911 25.1687 8.91519 25.2559C9.03198 24.9353 9.20529 24.5289 9.34594 24.5078C9.37461 24.5005 9.40466 24.5018 9.43265 24.5116C9.46063 24.5214 9.48543 24.5393 9.50418 24.5632C9.51705 24.5804 9.52645 24.6002 9.53181 24.6213C9.5541 24.5985 9.58189 24.5825 9.61218 24.5751C9.62769 24.5719 9.64368 24.5725 9.65892 24.5769C9.67416 24.5812 9.68825 24.5892 9.70009 24.6002C9.73388 24.6355 9.75477 24.6822 9.75912 24.7321C9.77744 24.7107 9.80021 24.694 9.82568 24.6833C9.84088 24.6778 9.85709 24.6762 9.87301 24.6785C9.88893 24.6808 9.90411 24.6869 9.91735 24.6965C9.93639 24.7115 9.95241 24.7302 9.96448 24.7518C9.97655 24.7733 9.98444 24.7971 9.98768 24.8218C10.0051 24.8065 10.0266 24.7973 10.0492 24.7954C10.0698 24.7942 10.0902 24.7998 10.1075 24.8114C10.1249 24.823 10.1383 24.84 10.1459 24.8601C10.2276 25.0224 10.1962 26.3575 10.048 26.7414C10.034 26.7797 10.0118 26.8141 9.98303 26.8418C9.95426 26.8695 9.91973 26.8898 9.88219 26.901C9.84884 26.9089 9.81462 26.9121 9.78047 26.9103ZM9.06087 26.4472C9.22413 26.5646 9.64986 26.8285 9.8508 26.7651C9.86999 26.7595 9.88764 26.7491 9.90227 26.7349C9.9169 26.7207 9.9281 26.703 9.93494 26.6833C10.0768 26.3153 10.0869 25.1714 10.0467 24.9445C10.0196 24.9893 9.99724 25.0371 9.98015 25.087C9.97548 25.1045 9.9644 25.1193 9.94932 25.1282C9.93425 25.1371 9.91643 25.1394 9.89977 25.1345C9.88312 25.1296 9.869 25.118 9.86052 25.1021C9.85204 25.0863 9.8499 25.0676 9.85456 25.0501C9.87413 24.97 9.87413 24.8861 9.85456 24.806C9.80811 24.8661 9.77238 24.9344 9.74907 25.0078C9.74342 25.0231 9.73264 25.0357 9.71876 25.0433C9.70489 25.0508 9.68887 25.0528 9.67372 25.0487C9.65871 25.0447 9.64572 25.0348 9.63734 25.0211C9.62896 25.0074 9.6258 24.9909 9.62851 24.9749C9.64661 24.8879 9.64661 24.7979 9.62851 24.711C9.5768 24.7645 9.53431 24.827 9.50292 24.8957C9.49946 24.9036 9.49455 24.9107 9.48848 24.9166C9.48241 24.9225 9.4753 24.927 9.46754 24.93C9.45979 24.933 9.45154 24.9344 9.44329 24.9341C9.43503 24.9337 9.42692 24.9317 9.41941 24.928C9.41191 24.9244 9.40516 24.9192 9.39955 24.9129C9.39394 24.9065 9.38959 24.899 9.38673 24.8909C9.38387 24.8827 9.38257 24.8741 9.3829 24.8654C9.38323 24.8567 9.38518 24.8482 9.38864 24.8403C9.41943 24.7805 9.42708 24.7106 9.40999 24.645C9.40246 24.6358 9.3786 24.6384 9.36855 24.645C9.29571 24.6688 9.10482 25.0883 8.95286 25.5606C8.94887 25.5781 8.93842 25.5932 8.92382 25.6026C8.90921 25.612 8.89165 25.615 8.875 25.6108C8.85835 25.6066 8.84396 25.5956 8.83501 25.5802C8.82606 25.5649 8.82328 25.5465 8.82728 25.529C8.83204 25.3946 8.79836 25.2618 8.73058 25.1477C8.68569 25.3108 8.67245 25.4817 8.69165 25.6503C8.7243 25.8205 8.96291 26.2757 9.06087 26.4472Z" fill="#231F20"/>
<path d="M8.92578 26.8219L9.01369 26.4973L9.99325 26.711L9.8865 27.2678L8.92578 26.8219Z" fill="#231F20"/>
<path d="M9.88679 27.3337C9.87846 27.3351 9.86999 27.3351 9.86167 27.3337L8.90095 26.8812C8.887 26.875 8.87571 26.8637 8.86922 26.8493C8.86274 26.835 8.86151 26.8186 8.86579 26.8034L8.95369 26.4801C8.95757 26.4638 8.96735 26.4497 8.98095 26.4409C8.99454 26.432 9.0109 26.4291 9.02653 26.4326L10.0061 26.6464C10.0223 26.6502 10.0364 26.6604 10.0455 26.6749C10.0546 26.6894 10.0581 26.7071 10.0551 26.7242L9.94832 27.281C9.94638 27.2905 9.94244 27.2995 9.9368 27.3072C9.93115 27.315 9.92393 27.3213 9.91567 27.3258C9.90687 27.3311 9.89691 27.3338 9.88679 27.3337ZM9.0077 26.7849L9.8466 27.1741L9.92572 26.7625L9.05793 26.5791L9.0077 26.7849Z" fill="#231F20"/>
<path d="M4.7103 25.128C4.7103 25.128 3.81488 24.5752 3.3138 24.4868C3.3138 24.4868 4.25694 22.5079 4.36996 22.376C4.48299 22.244 7.13282 20.3047 7.13282 20.3047L6.20852 19.2202C6.20852 19.2202 3.48836 21.1081 2.92197 21.7533C2.35559 22.3984 1.20273 24.099 1.51166 25.1781C1.8206 26.2573 2.13958 27.5714 3.47957 28.7983C4.49264 29.7379 5.77829 30.2902 7.1278 30.3656C8.02196 30.4171 9.00277 30.1651 9.28408 29.8722C9.56539 29.5793 9.99363 27.0555 9.99363 27.0555L8.76416 26.7112L8.34722 28.7785L7.34255 28.3827C7.34255 28.3827 7.20691 27.5054 6.20098 26.6373C5.66115 26.1832 5.16216 25.678 4.7103 25.128Z" fill="#0064FF"/>
<path d="M5.04544 28.7627C5.31644 28.7749 5.58481 28.7023 5.81653 28.5542C6.4005 28.1822 6.90535 27.7851 7.26828 27.1558C7.40768 26.9156 7.51945 26.6201 7.42401 26.3642C7.29843 26.033 6.84758 25.8826 6.76846 25.5462C6.74209 25.4327 6.77851 25.3087 6.74209 25.1979C6.72029 25.1434 6.68592 25.0954 6.64207 25.0583C6.59822 25.0213 6.54628 24.9962 6.49092 24.9855C6.44039 24.976 6.39048 24.9633 6.34147 24.9472C6.25148 24.8926 6.17323 24.8189 6.11165 24.7309C6.00725 24.6271 5.88185 24.5494 5.74484 24.5037C5.60783 24.458 5.46275 24.4455 5.32047 24.467C5.03592 24.5131 4.76715 24.6343 4.53933 24.8193C3.90136 25.3021 3.25837 26.2705 3.37768 27.1412C3.50075 27.983 4.22161 28.7297 5.04544 28.7627Z" fill="white"/>
<path d="M5.10329 28.8298H5.04301C4.21541 28.7968 3.44055 28.0382 3.31748 27.149C3.19189 26.2756 3.83991 25.2677 4.50551 24.7637C4.74191 24.5725 5.02058 24.4472 5.31553 24.3996C5.46727 24.3763 5.62206 24.3895 5.76824 24.4382C5.91443 24.4869 6.04819 24.5698 6.15945 24.6806L6.21346 24.7439C6.25509 24.7993 6.30783 24.8444 6.36792 24.8759C6.39618 24.8858 6.42516 24.8933 6.45458 24.8983L6.50858 24.9102C6.57369 24.9241 6.6345 24.9548 6.68557 24.9994C6.73664 25.0441 6.77636 25.1014 6.80119 25.1661C6.82021 25.2337 6.82702 25.3044 6.82128 25.3746C6.81797 25.4231 6.8205 25.4718 6.82882 25.5197C6.86524 25.6754 6.99836 25.7901 7.13901 25.9155C7.28473 26.0221 7.40262 26.1654 7.48186 26.3324C7.57102 26.5672 7.51828 26.8469 7.32236 27.1873C6.93556 27.8575 6.38551 28.2651 5.84926 28.6082C5.62492 28.7532 5.36668 28.8299 5.10329 28.8298ZM5.45367 24.5223C5.41348 24.5223 5.37204 24.5223 5.32809 24.5289C5.05362 24.5738 4.79442 24.6909 4.57458 24.8693C3.93912 25.3508 3.31873 26.306 3.44432 27.1292C3.5699 27.9525 4.28071 28.6662 5.05054 28.6966C5.30936 28.7096 5.5659 28.6402 5.78647 28.4973C6.3089 28.1649 6.84515 27.7665 7.21813 27.1213C7.39269 26.8192 7.44167 26.5778 7.36758 26.3825C7.29541 26.2369 7.19015 26.1123 7.06115 26.0197C6.91171 25.8878 6.75598 25.7558 6.70951 25.5566C6.69835 25.4971 6.69455 25.4364 6.69821 25.3759C6.70258 25.3219 6.69834 25.2675 6.68565 25.2149C6.66706 25.1712 6.63877 25.1329 6.60315 25.103C6.56754 25.0732 6.52563 25.0528 6.48095 25.0434L6.43448 25.0342C6.3964 25.0272 6.35899 25.0166 6.32271 25.0025C6.24377 24.9623 6.17494 24.9031 6.12178 24.8297C6.10545 24.8099 6.08913 24.7901 6.07155 24.7717C5.98937 24.6892 5.89245 24.6247 5.78639 24.5819C5.68033 24.5391 5.56724 24.5189 5.45367 24.5223Z" fill="#231F20"/>
<path d="M7.59323 10.6883C7.87352 10.5897 8.17432 10.5747 8.46227 10.6448C8.46227 10.6448 8.57655 10.3809 8.7574 10.3479C8.93824 10.3149 8.89931 10.3954 8.89931 10.3954C8.89931 10.3954 9.04875 10.2041 9.1329 10.2767C9.1329 10.2767 9.30997 10.3585 9.33132 10.4759C9.33132 10.4759 9.56742 10.3888 9.60509 10.5326C9.64277 10.6764 9.44686 10.9706 9.1442 11.2371C8.84154 11.5036 8.47734 11.7134 8.36808 11.7187C8.25882 11.724 7.42871 11.5485 7.42871 11.5485L7.59323 10.6883Z" fill="white"/>
<path d="M8.36311 11.7846C8.23124 11.7846 7.55434 11.6421 7.41746 11.6131C7.40107 11.6096 7.38663 11.5995 7.37725 11.5849C7.36786 11.5704 7.36426 11.5525 7.36722 11.5352L7.53174 10.6751C7.53367 10.6641 7.53826 10.6538 7.54509 10.6453C7.55191 10.6367 7.56072 10.6302 7.57067 10.6263C7.84736 10.5289 8.14339 10.5089 8.42967 10.5682C8.46158 10.5009 8.50604 10.441 8.5604 10.392C8.61476 10.3431 8.67792 10.3061 8.74614 10.2832C8.79976 10.2661 8.85703 10.2661 8.91065 10.2832C8.98977 10.2067 9.08773 10.1513 9.16182 10.216C9.2437 10.2543 9.31404 10.3155 9.36527 10.3927C9.43665 10.3716 9.5127 10.3763 9.58127 10.4059C9.6011 10.4164 9.61855 10.4313 9.63242 10.4495C9.64629 10.4677 9.65626 10.4889 9.66165 10.5115C9.71314 10.7067 9.45695 11.0392 9.18192 11.2833C8.90689 11.5273 8.50627 11.7727 8.36687 11.7806L8.36311 11.7846ZM7.50285 11.497C7.82309 11.5643 8.29529 11.654 8.36436 11.6527C8.43343 11.6513 8.78381 11.468 9.10405 11.187C9.42429 10.9059 9.56997 10.6474 9.5436 10.5497C9.54277 10.5446 9.54073 10.5397 9.53766 10.5355C9.5346 10.5314 9.53059 10.5281 9.52602 10.526C9.46808 10.5106 9.40702 10.5148 9.35145 10.5379C9.34336 10.5417 9.33459 10.5437 9.32571 10.5437C9.31683 10.5437 9.30806 10.5417 9.29997 10.5379C9.29232 10.5329 9.28571 10.5264 9.28053 10.5187C9.27535 10.511 9.27171 10.5022 9.26983 10.493C9.25852 10.431 9.15554 10.3611 9.10782 10.3413C9.10256 10.3392 9.09751 10.3365 9.09275 10.3334C9.07768 10.3202 9.00359 10.3716 8.94833 10.4416C8.94094 10.452 8.93074 10.4598 8.91905 10.464C8.90736 10.4683 8.89473 10.4687 8.8828 10.4653C8.87087 10.4619 8.8602 10.4548 8.85218 10.4449C8.84415 10.435 8.83915 10.4228 8.83782 10.4099C8.81502 10.4102 8.7923 10.4128 8.77 10.4178C8.64442 10.4429 8.54772 10.6131 8.51883 10.6817C8.51238 10.6954 8.50164 10.7065 8.48839 10.713C8.47514 10.7194 8.46018 10.721 8.44599 10.7173C8.18133 10.6545 7.90568 10.6649 7.64602 10.7476L7.50285 11.497Z" fill="#231F20"/>
<path d="M8.86395 11.5827C8.85245 11.583 8.84112 11.5798 8.83129 11.5735C8.81728 11.5645 8.80712 11.5501 8.80291 11.5334C8.79871 11.5167 8.80077 11.4989 8.80869 11.4838L9.66769 9.93495C9.67631 9.91988 9.69021 9.90896 9.70641 9.90452C9.7226 9.90008 9.73981 9.90248 9.75434 9.9112C9.76868 9.92027 9.77908 9.93487 9.78331 9.95188C9.78753 9.96889 9.78525 9.98697 9.77695 10.0022L8.91795 11.5498C8.91247 11.5597 8.9046 11.568 8.89513 11.5738C8.88566 11.5796 8.87491 11.5827 8.86395 11.5827Z" fill="#231F20"/>
<path d="M9.06694 10.5339C9.16483 10.5089 9.2651 10.4957 9.36584 10.4944C9.38797 10.4911 9.41051 10.4926 9.43209 10.4987C9.45367 10.5048 9.47386 10.5155 9.49142 10.53C9.50622 10.5478 9.51567 10.5699 9.51857 10.5934C9.52148 10.6168 9.51771 10.6407 9.50775 10.6619C9.48717 10.7044 9.45533 10.7397 9.41607 10.7635C9.29469 10.8341 9.16449 10.8865 9.02927 10.9192C8.99846 10.9271 8.96916 10.9405 8.94262 10.9588C8.91131 10.9874 8.88423 11.0207 8.86224 11.0577C8.76635 11.1748 8.64831 11.2696 8.51562 11.3361" fill="white"/>
<path d="M8.51417 11.4074C8.50284 11.4075 8.4917 11.4044 8.48195 11.3984C8.4722 11.3923 8.46422 11.3836 8.45891 11.3731C8.45493 11.3654 8.45243 11.3571 8.45154 11.3484C8.45065 11.3398 8.45139 11.3311 8.45372 11.3227C8.45606 11.3144 8.45994 11.3066 8.46514 11.2999C8.47034 11.2931 8.47676 11.2875 8.48403 11.2834C8.60905 11.22 8.72022 11.1302 8.81055 11.0195L8.82562 10.9984C8.84713 10.9637 8.87385 10.933 8.90474 10.9074C8.93666 10.8848 8.97186 10.8679 9.00897 10.8572L9.09186 10.8308C9.19287 10.8061 9.2898 10.7656 9.37944 10.7108C9.40858 10.693 9.43281 10.6675 9.44977 10.6369C9.45484 10.6277 9.45751 10.6172 9.45751 10.6066C9.45751 10.5959 9.45484 10.5854 9.44977 10.5762C9.4347 10.5604 9.39703 10.5604 9.3694 10.5604C9.27372 10.5619 9.17852 10.5747 9.08558 10.5986C9.06943 10.6026 9.05244 10.5997 9.03832 10.5906C9.0242 10.5814 9.0141 10.5668 9.01023 10.5498C9.00816 10.5415 9.0077 10.5328 9.00887 10.5243C9.01003 10.5158 9.0128 10.5076 9.01701 10.5003C9.02122 10.4929 9.02679 10.4865 9.03338 10.4814C9.03998 10.4763 9.04748 10.4727 9.05544 10.4707C9.1578 10.4441 9.26272 10.4299 9.36814 10.4284C9.39869 10.4252 9.42954 10.4285 9.45888 10.438C9.48821 10.4475 9.51543 10.4631 9.53894 10.4839C9.56257 10.5113 9.57793 10.5455 9.58307 10.5822C9.58821 10.6188 9.58291 10.6562 9.56782 10.6897C9.54249 10.7442 9.50284 10.79 9.45354 10.8216C9.35305 10.8827 9.24418 10.9272 9.13079 10.9535L9.05041 10.9799C9.02645 10.9856 9.00354 10.9954 8.9826 11.0089C8.96263 11.0268 8.94528 11.0477 8.93111 11.0709L8.91478 11.0947C8.81335 11.2192 8.6885 11.3202 8.54808 11.3915C8.53843 11.4001 8.52667 11.4056 8.51417 11.4074Z" fill="#231F20"/>
<path d="M10.5562 8.00222C10.4147 8.20187 10.3201 8.43374 10.2799 8.67902C10.1782 9.15001 10.1166 9.55371 10.2121 9.56559C10.3075 9.57746 10.506 9.1289 10.506 9.1289C10.506 9.1289 10.5687 10.1632 10.732 10.1672C10.8953 10.1711 10.8827 9.99436 10.8827 9.99436C10.8827 9.99436 10.9857 10.2134 11.0661 10.1263C11.0891 10.0959 11.1047 10.0601 11.1115 10.0219C11.1183 9.9837 11.116 9.94435 11.105 9.90728C11.105 9.90728 11.2117 10.1078 11.272 10.03C11.2897 10.0017 11.3013 9.96966 11.306 9.93618C11.3108 9.90271 11.3086 9.86855 11.2996 9.83604C11.2996 9.83604 11.439 10.0194 11.4792 9.87958C11.5194 9.73973 11.4127 8.68166 11.2871 8.27004C11.2244 8.04454 11.135 7.82823 11.0208 7.62622L10.5562 8.00222Z" fill="white"/>
<path d="M10.7358 10.2331C10.6102 10.2331 10.516 9.93887 10.4658 9.36762C10.3666 9.54968 10.2799 9.64071 10.2146 9.63147C10.2006 9.62987 10.1871 9.62516 10.175 9.61766C10.1629 9.61015 10.1524 9.60002 10.1443 9.58794C10.0991 9.52065 10.0777 9.36234 10.2272 8.66443C10.2698 8.40826 10.3696 8.16636 10.5185 7.95861L10.5261 7.95069L10.9882 7.57337C11.0023 7.56251 11.0199 7.55778 11.0372 7.56018C11.0543 7.56404 11.0695 7.57437 11.0799 7.58921C11.1972 7.79614 11.2892 8.01776 11.3537 8.24885C11.468 8.63541 11.5973 9.73438 11.5483 9.90457C11.5439 9.92816 11.533 9.94987 11.5169 9.967C11.5008 9.98412 11.4803 9.9959 11.4579 10.0009C11.4286 10.0064 11.3983 10.0008 11.3725 9.98505C11.3648 10.0187 11.3502 10.0502 11.3298 10.0774C11.3192 10.0918 11.3055 10.1031 11.2897 10.1105C11.2739 10.1179 11.2566 10.121 11.2394 10.1196C11.2111 10.1172 11.184 10.1062 11.1615 10.088C11.1507 10.1216 11.1322 10.152 11.1075 10.1763C11.0948 10.1908 11.0788 10.2016 11.061 10.2078C11.0432 10.214 11.0242 10.2155 11.0058 10.212C10.9657 10.202 10.93 10.1783 10.9041 10.1447C10.8986 10.1532 10.8923 10.1612 10.8852 10.1684C10.8661 10.1897 10.8429 10.2064 10.8171 10.2176C10.7914 10.2287 10.7636 10.234 10.7358 10.2331ZM10.5072 9.06286H10.5185C10.5322 9.06553 10.5446 9.07298 10.5537 9.084C10.5629 9.09502 10.5682 9.10896 10.5688 9.12355C10.5989 9.61037 10.678 10.0576 10.7421 10.1025C10.7622 10.1016 10.7814 10.0932 10.7961 10.0787C10.813 10.0553 10.8215 10.0263 10.8199 9.99692C10.8195 9.98168 10.8239 9.96673 10.8326 9.95451C10.8413 9.94228 10.8536 9.93351 10.8677 9.92964C10.8815 9.92567 10.8963 9.92693 10.9094 9.9332C10.9224 9.93946 10.933 9.95034 10.9392 9.96394C10.9584 10.0112 10.9891 10.0522 11.0284 10.0827C11.0724 10.0325 11.0447 9.93227 11.0447 9.93095C11.0408 9.91562 11.0423 9.8993 11.0488 9.885C11.0554 9.8707 11.0667 9.85939 11.0806 9.85313C11.0945 9.84687 11.1101 9.84609 11.1245 9.85094C11.1389 9.85578 11.1512 9.86593 11.159 9.8795C11.1787 9.91636 11.2032 9.95012 11.2319 9.97977C11.2471 9.94129 11.2497 9.89862 11.2394 9.85839C11.236 9.84389 11.2373 9.82859 11.2432 9.81501C11.2492 9.80142 11.2593 9.79034 11.272 9.7836C11.2847 9.77686 11.2992 9.77484 11.3131 9.77788C11.327 9.78092 11.3396 9.78884 11.3487 9.80034C11.3687 9.82557 11.3919 9.84777 11.4177 9.86631C11.4153 9.33225 11.3504 8.80054 11.2243 8.28316C11.1679 8.08718 11.093 7.89759 11.0008 7.71718L10.6002 8.04436C10.4691 8.23554 10.3803 8.45504 10.3402 8.68686C10.2146 9.2502 10.2146 9.42698 10.2309 9.47844C10.3185 9.35891 10.3918 9.22866 10.4495 9.09056C10.456 9.08107 10.4647 9.07352 10.4749 9.06866C10.485 9.0638 10.4961 9.0618 10.5072 9.06286Z" fill="#231F20"/>
<path d="M6.25613 2.63914C6.25613 2.63914 5.04801 0.959674 4.60344 0.868643C4.15887 0.777611 0.416457 5.84634 0.42776 6.4862C0.439063 7.12606 3.12406 8.44931 3.12406 8.44931L6.25613 2.63914Z" fill="#231F20"/>
<path d="M3.12419 8.51536C3.11548 8.51717 3.10652 8.51717 3.09781 8.51536C2.8165 8.37287 0.376398 7.14989 0.361328 6.4876C0.361328 5.88864 3.31633 1.83576 4.28082 0.984818C4.48427 0.805394 4.5659 0.79484 4.61487 0.804075C5.07075 0.896425 6.18091 2.42549 6.30524 2.59964C6.31232 2.61027 6.31611 2.62294 6.31611 2.63592C6.31611 2.64889 6.31232 2.66156 6.30524 2.6722L3.16563 8.4771C3.16195 8.48637 3.1563 8.49463 3.14912 8.50126C3.14194 8.50789 3.13341 8.51272 3.12419 8.51536ZM4.59352 0.933366C4.58473 0.933366 4.51441 0.941281 4.2871 1.15765C3.17693 2.20781 0.486913 5.99814 0.486913 6.48628C0.486913 6.97442 2.32421 7.97708 3.0953 8.36364L6.18091 2.64449C5.82928 2.16031 4.92507 1.00197 4.59101 0.929408L4.59352 0.933366Z" fill="#231F20"/>
<path d="M3.68636 3.88719C3.68636 3.88719 4.88192 2.47686 5.73589 2.08899C6.58987 1.70112 7.35719 1.68133 7.88715 2.14572C8.41712 2.61011 9.78097 3.92413 10.0397 4.52045C10.2984 5.11678 11.3169 7.74745 11.3169 7.74745L10.1025 8.34113C10.1025 8.34113 8.90816 5.41889 8.81774 5.17482C8.72731 4.93075 7.14872 3.874 7.09346 3.81727C7.0382 3.76054 6.71671 5.19725 6.17042 5.78038C5.62412 6.36351 3.76547 7.80154 3.76547 7.80154C3.76547 7.80154 5.03513 9.43219 5.25616 9.65911C5.47719 9.88603 7.99893 10.4032 7.99893 10.4032L7.66738 11.7436C7.66738 11.7436 4.98239 11.3069 4.5667 11.1222C4.15102 10.9375 1.84906 9.419 1.74231 7.98756C1.63556 6.55613 3.68636 3.88719 3.68636 3.88719Z" fill="#0064FF"/>
<path d="M6.54108 4.4215C6.69432 4.62737 6.821 4.85361 6.91783 5.09434C7.06307 5.39005 7.12328 5.72375 7.09114 6.05479C7.03839 6.38065 6.80229 6.69201 6.48959 6.72631C6.61517 7.11418 6.37405 7.55351 6.02995 7.74217C5.68585 7.93082 5.26765 7.90708 4.89969 7.78966C4.44439 7.636 4.03578 7.35879 3.71516 6.98606C3.39453 6.61333 3.17325 6.15828 3.07369 5.66691C2.91671 4.87534 3.3437 3.87531 4.14116 3.64179C4.97002 3.40036 6.00106 3.72227 6.54108 4.4215Z" fill="white"/>
<path d="M5.45089 7.94536C5.2584 7.94376 5.06717 7.91264 4.88325 7.85301C4.41744 7.69486 3.99938 7.41088 3.67097 7.02952C3.34255 6.64816 3.11532 6.18281 3.01204 5.68013C2.85631 4.88855 3.27451 3.82652 4.12346 3.57849C4.97241 3.33046 6.04365 3.67216 6.58994 4.38062C6.74937 4.59234 6.88075 4.82578 6.98051 5.07457C7.08474 5.32128 7.21786 5.69332 7.15758 6.07196C7.1086 6.37936 6.89385 6.7105 6.57236 6.7857C6.65901 7.20523 6.39277 7.62741 6.07002 7.80683C5.87731 7.90483 5.66488 7.95236 5.45089 7.94536ZM4.71622 3.62335C4.52753 3.62269 4.33959 3.64842 4.15737 3.69987C3.37498 3.92942 2.99069 4.91098 3.13511 5.64847C3.23368 6.12768 3.45026 6.57132 3.76321 6.93503C4.07615 7.29874 4.47449 7.56979 4.91841 7.72108C5.33033 7.85301 5.71713 7.83586 6.00597 7.67754C6.29481 7.51923 6.5485 7.11288 6.43421 6.74084C6.43104 6.73167 6.43006 6.72181 6.43137 6.71215C6.43269 6.70248 6.43625 6.69331 6.44175 6.68543C6.44661 6.67712 6.45321 6.67007 6.46104 6.66481C6.46887 6.65956 6.47773 6.65623 6.48696 6.65509C6.78334 6.62211 6.9893 6.31339 7.03325 6.03766C7.07721 5.76193 7.02195 5.48355 6.86497 5.11415C6.7678 4.87768 6.6411 4.65585 6.48822 4.4545C6.08886 3.9413 5.39061 3.62335 4.71622 3.62335Z" fill="#231F20"/>
<path d="M3.95873 3.51262C3.76948 3.50459 3.58167 3.55015 3.41494 3.64455C3.29045 3.69382 3.18105 3.77773 3.09847 3.8873C3.04728 3.97469 3.0171 4.07385 3.01056 4.17623C2.97895 4.3951 3.01879 4.61876 3.12359 4.81081C3.17648 4.90499 3.25351 4.98165 3.34589 5.03204C3.43826 5.08243 3.54227 5.10451 3.64602 5.09578C3.73475 5.07904 3.81986 5.04551 3.89719 4.99683C4.09178 4.891 4.25476 4.73075 4.36813 4.53376C4.554 4.1604 4.41209 3.56672 3.95873 3.51262Z" fill="white"/>
<path d="M3.58519 5.15909C3.48032 5.15533 3.37801 5.12401 3.28763 5.06801C3.19724 5.01201 3.12166 4.9331 3.06778 4.8385C2.95553 4.63478 2.91133 4.39749 2.9422 4.16434C2.95077 4.05159 2.98478 3.9426 3.04141 3.84639C3.13028 3.72684 3.24896 3.63551 3.38426 3.58253C3.56099 3.48258 3.76017 3.43472 3.96069 3.44401C4.05795 3.45533 4.1509 3.49237 4.23084 3.55166C4.31078 3.61096 4.37511 3.69057 4.41782 3.78307C4.47573 3.90284 4.50591 4.03528 4.50591 4.16962C4.50591 4.30396 4.47573 4.4364 4.41782 4.55617C4.30031 4.76444 4.12924 4.93363 3.92427 5.04431C3.84065 5.09766 3.74819 5.13392 3.65175 5.15118C3.62981 5.15574 3.60755 5.15839 3.58519 5.15909ZM3.89036 3.57594C3.73382 3.58675 3.58114 3.63168 3.44203 3.70787C3.32824 3.75066 3.22757 3.82496 3.15067 3.92291C3.10451 4.00283 3.07777 4.09344 3.07281 4.18677C3.04327 4.38918 3.07861 4.59617 3.17328 4.77518C3.22062 4.85781 3.28861 4.92524 3.36986 4.97013C3.45112 5.01502 3.54253 5.03566 3.63417 5.0298C3.71499 5.01428 3.79244 4.98343 3.86273 4.93877C4.04733 4.83993 4.20181 4.68863 4.30856 4.50208C4.35691 4.40144 4.3821 4.29027 4.3821 4.17754C4.3821 4.0648 4.35691 3.95363 4.30856 3.85299C4.27479 3.78045 4.22397 3.71815 4.1609 3.67198C4.09784 3.62581 4.02461 3.59729 3.94813 3.58913C3.92916 3.5831 3.90988 3.57825 3.89036 3.57462V3.57594Z" fill="#231F20"/>
</svg>
