<svg width="100" height="123" viewBox="0 0 100 123" fill="none" xmlns="http://www.w3.org/2000/svg">
<g clip-path="url(#clip0)">
<path d="M1.1443 122C0.804015 121.842 0.51507 121.587 0.312108 121.264C0.109145 120.941 0.000778436 120.565 0 120.18L0 2C0 1.46957 0.204338 0.960859 0.568063 0.585786C0.931787 0.210714 1.4251 0 1.93949 0L98.0605 0C98.5749 0 99.0682 0.210714 99.4319 0.585786C99.7957 0.960859 100 1.46957 100 2V109.73C100.005 109.833 100.005 109.937 100 110.04C99.7285 113.967 98.4807 117.03 96.2568 119.23C94.0264 121.41 90.8941 122.63 86.8309 122.87H86.5787H2.74438C2.42995 122.866 2.12097 122.785 1.84282 122.634C1.56467 122.482 1.32527 122.265 1.1443 122ZM44.0458 39.08C46.441 44.22 53.685 44.4 55.9736 39.08C55.4017 38.4605 54.8826 37.7914 54.422 37.08L54.199 36.74C53.0133 37.7232 51.531 38.2469 50.0097 38.22C48.3544 38.2162 46.7653 37.5493 45.578 36.36L45.3743 36.16C45.2095 36.64 44.9961 37.21 44.7731 37.74C44.5723 38.2017 44.3423 38.6494 44.0846 39.08H44.0458ZM56.6524 38.54C59.2029 40.4 65.3801 40.85 67.7948 42.22C68.6004 42.656 69.3076 43.2626 69.8701 44C71.0725 45.63 73.5163 51.56 69.5403 51.87H62.0636L63.0334 41.25C60.8178 40.977 58.667 40.2998 56.6815 39.25C55.3142 45.46 46.0144 46.35 43.3379 39.42C41.3769 40.4361 39.2669 41.1118 37.0927 41.42L38.4891 51.9H30.4597C26.4837 51.59 28.9372 45.66 30.1299 44.03C30.6943 43.2801 31.4045 42.6602 32.2149 42.21C34.5908 40.84 40.768 40.39 43.3379 38.55C43.5612 38.1728 43.7557 37.7783 43.9197 37.37C44.2106 36.68 44.4822 35.92 44.6567 35.37C43.9458 34.4789 43.2976 33.5365 42.7172 32.55L40.7777 29.36C40.1623 28.5101 39.7804 27.5048 39.6722 26.45C39.6593 26.1055 39.7258 25.7628 39.8662 25.45C40.0157 25.1263 40.2468 24.85 40.5353 24.65C40.6832 24.5469 40.8428 24.463 41.0105 24.4C40.8741 22.4933 40.8449 20.5801 40.9232 18.67C40.9664 18.2301 41.0476 17.7951 41.1656 17.37C41.7036 15.5405 42.8823 13.9828 44.4725 13C45.3256 12.443 46.2536 12.0185 47.2265 11.74C47.8375 11.56 47.1393 10.13 47.7793 10.06C50.8631 9.73 55.4209 12.06 57.5737 14.44C58.7577 15.792 59.4441 17.5297 59.5132 19.35L59.3871 24.55C59.6395 24.6158 59.8693 24.7525 60.0507 24.9449C60.2322 25.1374 60.3583 25.378 60.415 25.64C60.5231 26.5885 60.3363 27.5479 59.8817 28.38V28.45L57.6028 32.25C56.8538 33.646 55.9419 34.9423 54.8875 36.11L55.1784 36.55C55.6033 37.2333 56.0869 37.8759 56.6233 38.47C56.6233 38.47 56.6233 38.52 56.6233 38.54H56.6524ZM42.1063 25.32C41.7665 25.3176 41.4321 25.4072 41.1365 25.58C41.0158 25.662 40.9186 25.7759 40.8553 25.91C40.7841 26.08 40.7542 26.2654 40.768 26.45C40.8756 27.2972 41.1966 28.1005 41.699 28.78L43.6385 32C44.3557 33.2915 45.2326 34.4814 46.2471 35.54C47.2474 36.5336 48.582 37.0891 49.9709 37.09C50.7002 37.1039 51.4248 36.9679 52.1025 36.6897C52.7802 36.4116 53.3973 35.9969 53.9178 35.47C54.9706 34.3374 55.8738 33.0664 56.604 31.69L58.815 28C59.1508 27.3923 59.3122 26.6987 59.2804 26C59.2223 25.78 58.9895 25.67 58.5725 25.64H58.3107H58.0004C57.9459 25.6503 57.89 25.6503 57.8355 25.64C57.6356 25.6597 57.4342 25.6597 57.2343 25.64L57.981 22.22C52.4147 23.12 48.2836 18.86 42.3681 21.37L42.7948 25.37C42.5754 25.3902 42.3548 25.3902 42.1354 25.37L42.1063 25.32ZM68.2894 108.18C67.775 108.18 67.2817 107.969 66.9179 107.594C66.5542 107.219 66.3499 106.71 66.3499 106.18C66.3499 105.65 66.5542 105.141 66.9179 104.766C67.2817 104.391 67.775 104.18 68.2894 104.18H84.5132C85.0276 104.18 85.5209 104.391 85.8846 104.766C86.2483 105.141 86.4527 105.65 86.4527 106.18C86.4527 106.71 86.2483 107.219 85.8846 107.594C85.5209 107.969 85.0276 108.18 84.5132 108.18H68.2894ZM16.3111 93.62C15.7967 93.62 15.3034 93.4093 14.9397 93.0342C14.5759 92.6591 14.3716 92.1504 14.3716 91.62C14.3716 91.0896 14.5759 90.5809 14.9397 90.2058C15.3034 89.8307 15.7967 89.62 16.3111 89.62H84.678C85.1924 89.62 85.6857 89.8307 86.0495 90.2058C86.4132 90.5809 86.6175 91.0896 86.6175 91.62C86.6175 92.1504 86.4132 92.6591 86.0495 93.0342C85.6857 93.4093 85.1924 93.62 84.678 93.62H16.3111ZM16.6214 79.06C16.107 79.06 15.6137 78.8493 15.25 78.4742C14.8863 78.0991 14.6819 77.5904 14.6819 77.06C14.6819 76.5296 14.8863 76.0209 15.25 75.6458C15.6137 75.2707 16.107 75.06 16.6214 75.06H84.5035C85.0179 75.06 85.5112 75.2707 85.8749 75.6458C86.2386 76.0209 86.443 76.5296 86.443 77.06C86.443 77.5904 86.2386 78.0991 85.8749 78.4742C85.5112 78.8493 85.0179 79.06 84.5035 79.06H16.6214ZM16.3111 64.5C15.7967 64.5 15.3034 64.2893 14.9397 63.9142C14.5759 63.5391 14.3716 63.0304 14.3716 62.5C14.3716 61.9696 14.5759 61.4609 14.9397 61.0858C15.3034 60.7107 15.7967 60.5 16.3111 60.5H45.578C46.0924 60.5 46.5857 60.7107 46.9494 61.0858C47.3131 61.4609 47.5175 61.9696 47.5175 62.5C47.5175 63.0304 47.3131 63.5391 46.9494 63.9142C46.5857 64.2893 46.0924 64.5 45.578 64.5H16.3111ZM52.9868 64.5C52.4724 64.5 51.9791 64.2893 51.6154 63.9142C51.2517 63.5391 51.0473 63.0304 51.0473 62.5C51.0473 61.9696 51.2517 61.4609 51.6154 61.0858C51.9791 60.7107 52.4724 60.5 52.9868 60.5H84.5035C85.0179 60.5 85.5112 60.7107 85.8749 61.0858C86.2386 61.4609 86.443 61.9696 86.443 62.5C86.443 63.0304 86.2386 63.5391 85.8749 63.9142C85.5112 64.2893 85.0179 64.5 84.5035 64.5H52.9868ZM96.1307 109.68V4H3.87898V118.9H86.5981C89.711 118.72 92.0384 117.9 93.5803 116.35C95.1222 114.8 95.9465 112.63 96.1404 109.69L96.1307 109.68Z" fill="#1B39CA"/>
</g>
<defs>
<clipPath id="clip0">
<rect width="100" height="122.89" fill="white"/>
</clipPath>
</defs>
</svg>
