<svg width="100%" viewBox="0 0 33 24" fill="none" xmlns="http://www.w3.org/2000/svg">
<path d="M12.8141 21.2786C8.5042 21.2786 5.20294 21.2621 5.1048 21.2125C5.09149 21.2055 5.08135 21.1937 5.07646 21.1795C5.07156 21.1653 5.07228 21.1498 5.07846 21.1361C5.08464 21.1224 5.09582 21.1116 5.10973 21.1058C5.12363 21.1001 5.1392 21.0998 5.15328 21.1051C5.58722 21.2055 23.5136 21.1464 32.9397 21.1051C32.9474 21.105 32.9552 21.1063 32.9624 21.1092C32.9696 21.112 32.9762 21.1162 32.9818 21.1216C32.9874 21.127 32.9919 21.1334 32.995 21.1405C32.9981 21.1476 32.9998 21.1552 33 21.163C33 21.1787 32.9938 21.1939 32.9827 21.2051C32.9717 21.2164 32.9566 21.2229 32.9409 21.2232C31.1424 21.2279 20.4133 21.2786 12.8141 21.2786Z" fill="#D1D3D4"/>
<path d="M8.543 16.9941L30.9648 16.9941L30.9648 0.0579948L8.543 0.0579948L8.543 16.9941Z" fill="white"/>
<path d="M30.9655 17.053H8.54252C8.52684 17.053 8.5118 17.0467 8.50071 17.0357C8.48963 17.0246 8.4834 17.0096 8.4834 16.994V0.0589986C8.4834 0.0433512 8.48963 0.0283446 8.50071 0.0172803C8.5118 0.00621586 8.52684 0 8.54252 0H30.9655C30.9812 0 30.9963 0.00621586 31.0074 0.0172803C31.0184 0.0283446 31.0247 0.0433512 31.0247 0.0589986V16.994C31.0247 17.0096 31.0184 17.0246 31.0074 17.0357C30.9963 17.0467 30.9812 17.053 30.9655 17.053ZM8.60164 16.935H30.9064V0.117997H8.60164V16.935Z" fill="#231F20"/>
<path d="M14.5302 8.75195H13.3076V14.7367H14.5302V8.75195Z" fill="#0064FF"/>
<path d="M16.6376 10.7837H15.415V14.7365H16.6376V10.7837Z" fill="#E6E7E8"/>
<path d="M18.748 9.62744H17.5254V14.7367H18.748V9.62744Z" fill="#E6E7E8"/>
<path d="M19.6966 14.7495H12.439C12.4233 14.7495 12.4083 14.7433 12.3972 14.7323C12.3861 14.7212 12.3799 14.7062 12.3799 14.6906C12.3799 14.6749 12.3861 14.6599 12.3972 14.6489C12.4083 14.6378 12.4233 14.6316 12.439 14.6316H19.6966C19.7123 14.6316 19.7273 14.6378 19.7384 14.6489C19.7495 14.6599 19.7557 14.6749 19.7557 14.6906C19.7554 14.7061 19.7491 14.7209 19.738 14.7319C19.727 14.7429 19.7122 14.7492 19.6966 14.7495Z" fill="#E6E7E8"/>
<path d="M6.33496 17.6193L10.3705 8.14648L18.8045 10.4156L13.7793 21.6949L6.33496 17.6193Z" fill="white"/>
<path d="M13.7784 21.7541C13.7684 21.7525 13.7591 21.7485 13.7512 21.7423L6.30204 17.6714C6.28929 17.6644 6.27959 17.6529 6.27479 17.6392C6.26999 17.6255 6.27043 17.6104 6.27603 17.597L10.3116 8.12304C10.3173 8.11011 10.3275 8.09965 10.3403 8.09359C10.3531 8.08752 10.3677 8.08625 10.3813 8.09001L18.8154 10.3591C18.8236 10.361 18.8313 10.3648 18.8378 10.3701C18.8444 10.3754 18.8497 10.3821 18.8532 10.3898C18.857 10.3975 18.8589 10.406 18.8589 10.4145C18.8589 10.4231 18.857 10.4316 18.8532 10.4393L13.828 21.7187C13.8246 21.7262 13.8198 21.7329 13.8136 21.7383C13.8075 21.7438 13.8003 21.748 13.7925 21.7505C13.788 21.7524 13.7832 21.7536 13.7784 21.7541ZM6.40964 17.5935L13.7512 21.6125L18.7172 10.4547L10.3991 8.21272L6.40964 17.5935Z" fill="#231F20"/>
<path d="M8.53164 18.188C8.5235 18.1902 8.51494 18.1902 8.50681 18.188C8.49975 18.1849 8.4934 18.1803 8.48813 18.1746C8.48287 18.169 8.47879 18.1623 8.47615 18.1551C8.4735 18.1478 8.47234 18.1401 8.47273 18.1324C8.47312 18.1247 8.47506 18.1171 8.47843 18.1101L12.5163 9.32641C12.5228 9.31219 12.5346 9.3011 12.5492 9.29557C12.5639 9.29004 12.5801 9.29052 12.5944 9.29691C12.6087 9.30359 12.6198 9.31561 12.6253 9.3304C12.6309 9.34519 12.6304 9.36155 12.6239 9.37597L8.58603 18.1597C8.58024 18.1688 8.57217 18.1762 8.56262 18.1811C8.55308 18.1861 8.54239 18.1885 8.53164 18.188Z" fill="#E6E7E8"/>
<path d="M16.7909 12.6955H16.7732L10.2109 10.6895C10.2033 10.6873 10.1962 10.6837 10.1901 10.6788C10.1839 10.6738 10.1788 10.6677 10.1751 10.6608C10.1713 10.6539 10.169 10.6463 10.1682 10.6384C10.1675 10.6306 10.1683 10.6227 10.1707 10.6152C10.1756 10.6003 10.1861 10.5879 10.2 10.5806C10.2139 10.5733 10.2301 10.5718 10.2452 10.5762L16.8075 12.5822C16.8225 12.5866 16.8352 12.5967 16.8428 12.6104C16.8503 12.6242 16.8521 12.6403 16.8477 12.6553C16.8435 12.667 16.8358 12.6772 16.8257 12.6844C16.8155 12.6916 16.8034 12.6954 16.7909 12.6955Z" fill="#E6E7E8"/>
<path d="M13.4116 20.5361C13.4046 20.5378 13.3973 20.5378 13.3903 20.5361L6.88711 17.9956C6.87956 17.9928 6.87269 17.9884 6.86699 17.9827C6.86128 17.977 6.85685 17.9701 6.85401 17.9626C6.84814 17.9478 6.84814 17.9314 6.85401 17.9166L10.9558 8.8745C10.9617 8.86152 10.9722 8.85114 10.9852 8.84528C10.9983 8.83943 11.013 8.83849 11.0267 8.84264L17.5961 10.7459C17.6042 10.7483 17.6116 10.7523 17.6179 10.7578C17.6243 10.7633 17.6293 10.7701 17.6328 10.7778C17.636 10.7854 17.6376 10.7937 17.6376 10.802C17.6376 10.8103 17.636 10.8185 17.6328 10.8262L13.4601 20.5019C13.4555 20.5112 13.4487 20.5192 13.4402 20.5252C13.4318 20.5312 13.4219 20.535 13.4116 20.5361ZM6.99235 17.9036L13.3773 20.4016L17.5015 10.8356L11.0444 8.96536L6.99235 17.9036Z" fill="#E6E7E8"/>
<path d="M8.33496 11.1082C8.33496 11.1082 8.72279 9.58841 9.34946 9.33C9.97614 9.07158 11.0805 8.99253 10.7683 9.29696C10.4562 9.60139 9.57767 9.77839 9.57767 9.77839C9.57767 9.77839 9.92529 11.7383 9.12599 11.9543C8.32669 12.1702 8.33496 11.1082 8.33496 11.1082Z" fill="white"/>
<path d="M8.92614 12.0429C8.80557 12.0451 8.68772 12.0069 8.59153 11.9343C8.27583 11.6912 8.27583 11.1319 8.27583 11.1083C8.27525 11.1036 8.27525 11.0988 8.27583 11.0941C8.29238 11.0316 8.67902 9.54363 9.3258 9.27695C9.80585 9.07872 10.7293 8.94066 10.8629 9.14244C10.8842 9.17548 10.9067 9.24509 10.8097 9.34067C10.533 9.61207 9.84723 9.78081 9.64504 9.82565C9.69825 10.1596 9.91345 11.8033 9.14134 12.0134C9.07115 12.0322 8.99884 12.0421 8.92614 12.0429ZM8.39407 11.1154C8.39407 11.1779 8.4118 11.6464 8.66483 11.8411C8.72938 11.8855 8.80365 11.9138 8.88141 11.9236C8.95917 11.9335 9.03816 11.9246 9.11178 11.8977C9.8496 11.6983 9.52444 9.80795 9.52089 9.78907C9.5184 9.77395 9.52178 9.75845 9.53035 9.74573C9.53892 9.73301 9.55203 9.72403 9.567 9.72063C9.57646 9.72063 10.4337 9.54363 10.7281 9.25571C10.7636 9.22031 10.7648 9.20497 10.7648 9.20379C10.7127 9.11294 9.93709 9.15187 9.37191 9.38551C8.80672 9.61915 8.42363 11.0045 8.39407 11.1154Z" fill="#231F20"/>
<path d="M3.56791 8.10282C2.79226 7.91521 2.34058 7.04085 2.10173 6.34939C1.83096 5.55764 1.52709 4.91337 1.80613 4.0579C1.86998 3.86085 1.97876 3.65317 2.17386 3.58591C2.22271 3.57633 2.26926 3.5575 2.31102 3.53046C2.34329 3.49499 2.36607 3.45197 2.37723 3.40538C2.7828 2.29149 4.09171 2.19119 5.08375 2.29267C5.65839 2.35167 6.41158 2.57114 6.62087 3.14579C7.00397 4.20776 6.79232 5.38772 6.24368 6.35057C5.72816 7.25561 4.72785 8.38365 3.56791 8.10282Z" fill="white"/>
<path d="M3.92529 8.20442C3.80026 8.20425 3.67566 8.1896 3.55402 8.16076C2.74762 7.96488 2.28885 7.07873 2.04646 6.36957C2.01571 6.27872 1.98379 6.18904 1.95305 6.10172C1.70829 5.41262 1.49664 4.81556 1.75086 4.04268C1.84072 3.76657 1.97669 3.59548 2.15524 3.5353L2.19426 3.5235C2.22205 3.51727 2.24849 3.50608 2.2723 3.49046C2.29441 3.46498 2.31021 3.43467 2.31841 3.40196V3.39016C2.73461 2.24678 4.05299 2.1335 5.08641 2.23852C5.48015 2.27982 6.4237 2.44737 6.67201 3.13057C7.035 4.1359 6.89666 5.32176 6.29127 6.38491C5.76865 7.30292 4.89722 8.20442 3.92529 8.20442ZM4.5094 2.3223C3.65097 2.3223 2.75117 2.55829 2.4331 3.42674V3.43854C2.42282 3.48767 2.39789 3.53255 2.3616 3.56729C2.32531 3.60204 2.27934 3.62502 2.22973 3.63324C2.21909 3.63324 2.20726 3.63324 2.19662 3.64386C2.05592 3.69106 1.94477 3.83619 1.86673 4.07572C1.63025 4.81438 1.83008 5.39256 2.06774 6.06278L2.16233 6.33063C2.39881 7.01265 2.83157 7.86459 3.58121 8.04512C4.63473 8.30117 5.62085 7.32298 6.19077 6.32237C6.78197 5.28991 6.9144 4.13944 6.56323 3.16715C6.33857 2.54649 5.44822 2.39074 5.07577 2.35298C4.88763 2.33306 4.69859 2.32282 4.5094 2.3223Z" fill="#231F20"/>
<path d="M6.91309 5.7395C6.91309 5.7395 7.7857 6.71534 7.66982 6.96077C7.55395 7.20621 7.04078 7.12951 7.04078 7.12951" fill="white"/>
<path d="M7.2155 7.19907C7.15421 7.1992 7.09298 7.19526 7.03222 7.18727C7.01654 7.18492 7.00244 7.17645 6.99302 7.16373C6.98359 7.15101 6.97962 7.13507 6.98197 7.11942C6.98432 7.10377 6.99281 7.0897 7.00556 7.08029C7.01831 7.07089 7.03428 7.06692 7.04996 7.06927C7.18002 7.08933 7.53711 7.10231 7.61633 6.93475C7.67782 6.80495 7.2758 6.22674 6.86905 5.77716C6.86351 5.77167 6.85911 5.76515 6.85611 5.75796C6.85311 5.75077 6.85156 5.74306 6.85156 5.73527C6.85156 5.72748 6.85311 5.71977 6.85611 5.71258C6.85911 5.70539 6.86351 5.69886 6.86905 5.69338C6.8801 5.68257 6.89496 5.67651 6.91043 5.67651C6.92591 5.67651 6.94077 5.68257 6.95182 5.69338C7.10198 5.86212 7.84454 6.71291 7.7192 6.97959C7.6388 7.16603 7.39049 7.19907 7.2155 7.19907Z" fill="#231F20"/>
<path d="M6.55165 4.33415C7.06126 4.63858 7.04352 5.44214 7.11328 5.95307C7.21261 6.67049 7.29498 7.39066 7.36041 8.11359C7.40179 8.57142 6.22294 8.75195 5.99592 8.64576L6.44168 10.4157L3.82504 9.82572L3.60156 7.74072C3.60156 7.74072 4.38194 7.63334 4.70829 6.63981C5.03463 5.64627 4.80761 4.22559 4.80761 4.22559C4.80761 4.22559 6.05504 4.03562 6.55165 4.33415Z" fill="white"/>
<path d="M6.44257 10.4746H6.42956L3.81291 9.88461C3.80079 9.88177 3.78986 9.87525 3.7816 9.86595C3.77334 9.85666 3.76817 9.84504 3.76679 9.8327L3.54332 7.74769C3.54164 7.73239 3.54601 7.71705 3.55551 7.70492C3.56501 7.6928 3.57888 7.68486 3.59416 7.68279C3.62491 7.68279 4.34262 7.5648 4.65832 6.62082C4.97639 5.65207 4.75883 4.24791 4.75646 4.23375C4.7552 4.22594 4.75549 4.21797 4.75731 4.21027C4.75914 4.20258 4.76247 4.19532 4.76711 4.18891C4.7766 4.17634 4.79057 4.16789 4.80612 4.16531C4.85697 4.15823 6.07957 3.97651 6.58918 4.28331C7.0385 4.55234 7.0988 5.16946 7.14846 5.66623C7.15792 5.76535 7.16738 5.85856 7.1792 5.9447C7.27734 6.65976 7.36011 7.3878 7.42632 8.10758C7.42894 8.17951 7.4114 8.25075 7.37569 8.31328C7.33997 8.37581 7.28749 8.42717 7.22413 8.46157C6.9309 8.66807 6.35862 8.76128 6.08312 8.72589L6.50523 10.4014C6.50752 10.4112 6.50731 10.4214 6.50462 10.4311C6.50194 10.4408 6.49686 10.4497 6.48986 10.4569C6.48394 10.4634 6.47657 10.4683 6.46835 10.4714C6.46012 10.4745 6.45129 10.4756 6.44257 10.4746ZM3.87912 9.77724L6.36216 10.3365L5.94005 8.65981C5.93741 8.64898 5.93789 8.63762 5.94145 8.62706C5.94501 8.61649 5.9515 8.60715 5.96016 8.60011C5.96882 8.59307 5.9793 8.58863 5.99039 8.58729C6.00148 8.58595 6.01272 8.58777 6.02281 8.59255C6.17061 8.66099 6.83749 8.58547 7.15201 8.36599C7.19737 8.34226 7.23541 8.30666 7.26207 8.26302C7.28873 8.21937 7.303 8.16932 7.30335 8.1182C7.23832 7.40078 7.15555 6.67392 7.05741 5.96004C7.04441 5.8739 7.03495 5.77833 7.02549 5.67803C6.97938 5.20604 6.92144 4.61606 6.52297 4.38006C6.11031 4.13227 5.12656 4.23847 4.87707 4.27033C4.91609 4.5547 5.05916 5.76181 4.76592 6.65386C4.47978 7.52586 3.85902 7.73707 3.66747 7.78309L3.87912 9.77724Z" fill="#231F20"/>
<path d="M7.26551 7.58241C7.26551 7.58241 6.55607 7.62135 6.33496 6.67383L7.26551 7.58241Z" fill="white"/>
<path d="M7.2593 7.6391C7.17062 7.6391 6.49311 7.60842 6.27791 6.68568C6.27613 6.67793 6.27589 6.66991 6.27721 6.66207C6.27853 6.65423 6.28139 6.64673 6.28561 6.63999C6.28984 6.63325 6.29535 6.62741 6.30184 6.6228C6.30833 6.61818 6.31567 6.61489 6.32343 6.61311C6.3312 6.61133 6.33924 6.61109 6.34709 6.61241C6.35495 6.61373 6.36247 6.61658 6.36922 6.6208C6.37597 6.62502 6.38183 6.63052 6.38645 6.637C6.39107 6.64347 6.39437 6.65079 6.39615 6.65854C6.60307 7.54706 7.25812 7.52228 7.2664 7.5211C7.27416 7.52079 7.28191 7.522 7.28921 7.52468C7.2965 7.52736 7.30319 7.53144 7.30891 7.5367C7.31462 7.54196 7.31923 7.54829 7.32249 7.55534C7.32574 7.56238 7.32758 7.56999 7.32788 7.57774C7.32836 7.58543 7.32729 7.59314 7.32474 7.60042C7.32219 7.60769 7.31821 7.61438 7.31304 7.6201C7.30786 7.62581 7.30159 7.63044 7.29459 7.6337C7.2876 7.63697 7.28002 7.6388 7.27231 7.6391H7.2593Z" fill="#231F20"/>
<path d="M5.60067 6.40245C5.554 6.22613 5.45949 6.06608 5.32754 5.93991C5.23967 5.8295 5.1361 5.7325 5.02012 5.652C4.96147 5.61204 4.89456 5.58578 4.82435 5.57516C4.75414 5.56453 4.68244 5.56983 4.61456 5.59064C4.55672 5.61445 4.50459 5.65021 4.4616 5.69556C4.4186 5.74091 4.3857 5.79483 4.36507 5.85377C4.32535 5.97219 4.31243 6.09792 4.32724 6.22192C4.35457 6.49361 4.4531 6.75332 4.61292 6.97495C4.77274 7.19658 4.98821 7.37232 5.23768 7.48448L5.19156 7.4479" fill="white"/>
<path d="M5.23856 7.53893C5.23078 7.5407 5.2227 7.5407 5.21491 7.53893C4.95638 7.42171 4.73306 7.23906 4.56713 7.00909C4.4012 6.77913 4.29842 6.50985 4.269 6.228C4.253 6.09472 4.26756 5.95955 4.31156 5.83271C4.33475 5.76575 4.37209 5.70455 4.42105 5.65324C4.47001 5.60194 4.52945 5.56174 4.59534 5.53536C4.67151 5.5115 4.75208 5.50505 4.83109 5.51649C4.91009 5.52793 4.98551 5.55696 5.05174 5.60144C5.1728 5.68543 5.28111 5.78637 5.37336 5.90115C5.51268 6.03546 5.61176 6.20584 5.6595 6.39319C5.66074 6.40094 5.66044 6.40886 5.65862 6.41649C5.65679 6.42412 5.65348 6.43132 5.64887 6.43767C5.64426 6.44403 5.63844 6.44942 5.63174 6.45353C5.62504 6.45764 5.6176 6.46039 5.60984 6.46163C5.60207 6.46287 5.59414 6.46257 5.58649 6.46075C5.57884 6.45893 5.57163 6.45563 5.56526 6.45102C5.55889 6.44642 5.5535 6.44061 5.54938 6.43393C5.54526 6.42725 5.5425 6.41982 5.54126 6.41207C5.49589 6.24696 5.40638 6.09727 5.28231 5.97903C5.19981 5.86975 5.1009 5.77383 4.98908 5.69465C4.93798 5.6593 4.87957 5.63585 4.81818 5.62605C4.75678 5.61625 4.69396 5.62034 4.63436 5.63802C4.58422 5.65867 4.53908 5.68978 4.50196 5.72926C4.46485 5.76874 4.43662 5.81568 4.41916 5.86693C4.38212 5.97697 4.3704 6.09393 4.38487 6.20912C4.41013 6.45439 4.49551 6.68969 4.63346 6.89424C4.77142 7.09879 4.95771 7.2663 5.1759 7.382C5.18491 7.38011 5.19422 7.38018 5.2032 7.38222C5.21218 7.38425 5.22061 7.3882 5.22792 7.3938L5.27285 7.43038C5.28416 7.43925 5.29185 7.45193 5.29446 7.46605C5.29707 7.48017 5.29443 7.49476 5.28704 7.50707C5.28221 7.51596 5.27526 7.52351 5.26681 7.52907C5.25835 7.53463 5.24865 7.53802 5.23856 7.53893Z" fill="#231F20"/>
<path d="M5.99666 8.64437C5.99666 8.64437 5.35698 8.54408 5.01172 8.1665C5.01172 8.1665 5.17607 9.11044 6.15983 9.29569L5.99666 8.64437Z" fill="#231F20"/>
<path d="M6.15918 9.35247H6.14854C5.1364 9.16721 4.95431 8.18547 4.95195 8.17249C4.94988 8.15973 4.95198 8.14664 4.95794 8.13516C4.9639 8.12369 4.97341 8.11443 4.98505 8.10877C4.99635 8.1032 5.00915 8.10145 5.02152 8.1038C5.0339 8.10614 5.04517 8.11244 5.05363 8.12175C5.38116 8.47574 5.99955 8.58076 5.99955 8.58194C6.01104 8.58366 6.02176 8.58872 6.03038 8.59648C6.039 8.60425 6.04514 8.61437 6.04803 8.6256L6.21239 9.27695C6.21462 9.28647 6.21449 9.29638 6.21202 9.30584C6.20954 9.3153 6.2048 9.32401 6.1982 9.33123C6.19341 9.33716 6.18751 9.34208 6.18081 9.34573C6.17411 9.34937 6.16676 9.35166 6.15918 9.35247ZM5.11985 8.34948C5.19292 8.56287 5.31862 8.75447 5.48537 8.90665C5.65212 9.05883 5.85456 9.1667 6.07405 9.22031L5.94753 8.69758C5.64996 8.64163 5.36779 8.52295 5.11985 8.34948Z" fill="#231F20"/>
<path d="M6.53366 5.30436C6.53704 5.16104 6.49427 5.04379 6.43813 5.04247C6.38199 5.04114 6.33373 5.15626 6.33035 5.29958C6.32696 5.4429 6.36973 5.56015 6.42587 5.56147C6.48202 5.56279 6.53027 5.44768 6.53366 5.30436Z" fill="#231F20"/>
<path d="M14.7976 15.5604C15.5969 14.6093 16.492 13.3999 15.9185 12.0877C15.8629 11.9627 15.7636 11.827 15.6276 11.8364C15.5698 11.8457 15.5148 11.8679 15.4668 11.9013L14.9702 12.2034C14.9856 12.0677 14.8141 11.9674 14.6817 12.0087C14.5537 12.0595 14.447 12.1523 14.379 12.2718C13.867 12.9999 13.5348 13.6878 13.5643 14.5881" fill="white"/>
<path d="M14.7959 15.6193C14.782 15.619 14.7686 15.614 14.758 15.6051C14.752 15.6002 14.7471 15.5942 14.7435 15.5873C14.7399 15.5805 14.7377 15.573 14.737 15.5653C14.7363 15.5576 14.7372 15.5498 14.7396 15.5425C14.742 15.5351 14.7459 15.5283 14.7509 15.5225C15.5786 14.5372 16.4181 13.3796 15.8636 12.1112C15.8399 12.0581 15.7571 11.887 15.6271 11.8952C15.579 11.9042 15.5334 11.9236 15.4935 11.9519L14.9969 12.2539C14.9875 12.2599 14.9766 12.2631 14.9655 12.2631C14.9544 12.2631 14.9435 12.2599 14.9342 12.2539C14.925 12.2481 14.9176 12.2398 14.9128 12.23C14.908 12.2203 14.906 12.2093 14.907 12.1985C14.9083 12.1811 14.9052 12.1636 14.898 12.1478C14.8907 12.1319 14.8796 12.1181 14.8656 12.1076C14.8427 12.0884 14.8156 12.0747 14.7865 12.0675C14.7574 12.0604 14.727 12.06 14.6977 12.0663C14.5837 12.1128 14.4884 12.1958 14.427 12.3023C13.9906 12.9218 13.5922 13.6263 13.6229 14.582C13.6232 14.5898 13.622 14.5975 13.6193 14.6048C13.6167 14.6121 13.6126 14.6188 13.6073 14.6245C13.602 14.6302 13.5957 14.6348 13.5886 14.638C13.5816 14.6413 13.5739 14.6431 13.5662 14.6434C13.5506 14.6434 13.5357 14.6376 13.5243 14.6271C13.5129 14.6166 13.5059 14.6022 13.5047 14.5868C13.4728 13.5956 13.883 12.8699 14.3324 12.2351C14.4073 12.103 14.5261 12.0012 14.6682 11.9471C14.7168 11.9354 14.7675 11.9352 14.8162 11.9467C14.8649 11.9582 14.9102 11.981 14.9484 12.0132C14.9779 12.0376 15.001 12.0688 15.0158 12.1041L15.4379 11.848C15.4935 11.809 15.5575 11.7836 15.6247 11.7737C15.7619 11.7631 15.8896 11.8681 15.9794 12.0604C16.6085 13.5024 15.4639 14.8629 14.8491 15.6004C14.8425 15.6077 14.8342 15.6133 14.8249 15.6166C14.8156 15.6199 14.8056 15.6208 14.7959 15.6193Z" fill="#231F20"/>
<path d="M14.3789 13.0694L15.2373 10.4146L15.5045 10.4901L14.9642 13.1154C14.9642 13.1154 14.5799 13.4824 14.3789 13.0694Z" fill="#231F20"/>
<path d="M14.6414 13.3209C14.6237 13.3226 14.6059 13.3226 14.5882 13.3209C14.5297 13.3083 14.4752 13.2816 14.4295 13.2431C14.3837 13.2047 14.3481 13.1556 14.3257 13.1002C14.3198 13.0859 14.3198 13.0698 14.3257 13.0554L15.1853 10.3969C15.1874 10.3895 15.1909 10.3826 15.1956 10.3766C15.2004 10.3706 15.2063 10.3657 15.2131 10.362C15.2198 10.3584 15.2272 10.3562 15.2348 10.3555C15.2425 10.3548 15.2502 10.3556 15.2575 10.3579L15.5247 10.4335C15.5391 10.4374 15.5514 10.4467 15.5591 10.4594C15.5668 10.4722 15.5693 10.4874 15.5661 10.5019L15.0222 13.1286C15.0195 13.1397 15.0138 13.15 15.0056 13.1581C14.9062 13.2519 14.7778 13.3093 14.6414 13.3209ZM14.4428 13.0637C14.4576 13.0979 14.4803 13.1282 14.5091 13.152C14.5378 13.1757 14.5719 13.1924 14.6083 13.2005C14.7207 13.2018 14.8292 13.1595 14.911 13.0825L15.436 10.5326L15.2764 10.4866L14.4428 13.0637Z" fill="#231F20"/>
<path d="M13.3119 13.998L11.0807 18.0842C11.0807 18.0842 10.4257 11.1047 8.86843 10.0958C7.31121 9.08693 4.54913 9.03384 2.20325 10.169C0.332689 11.0705 -0.266788 19.9238 0.104486 23.6018H9.47264L9.38278 21.9781C9.38278 21.9781 9.95979 23.6443 11.6471 23.2407C13.3344 22.8372 15.3042 14.9266 15.3042 14.9266L13.3119 13.998Z" fill="#0064FF"/>
<path d="M9.38316 22.0313C9.37329 22.0312 9.3636 22.0287 9.35494 22.0239C9.34628 22.0192 9.33892 22.0124 9.3335 22.0042C8.26934 20.4171 7.64858 15.7657 7.62256 15.5674C7.62055 15.5519 7.62477 15.5363 7.6343 15.5239C7.64383 15.5115 7.65789 15.5034 7.6734 15.5013C7.68887 15.4996 7.70439 15.504 7.71673 15.5134C7.72907 15.5229 7.73727 15.5367 7.73962 15.5521C7.73962 15.6005 8.38639 20.3746 9.43282 21.9393C9.44138 21.9523 9.44444 21.9682 9.44134 21.9834C9.43824 21.9987 9.42923 22.0121 9.41627 22.0207C9.40658 22.0276 9.39502 22.0313 9.38316 22.0313Z" fill="#231F20"/>
<path d="M20.9453 6.22212C20.9453 7.24108 21.3509 8.2183 22.0729 8.93882C22.7949 9.65933 23.7742 10.0641 24.7952 10.0641C25.8163 10.0641 26.7955 9.65933 27.5175 8.93882C28.2395 8.2183 28.6451 7.24108 28.6451 6.22212H24.7952V2.38013C23.7742 2.38013 22.7949 2.78491 22.0729 3.50542C21.3509 4.22593 20.9453 5.20316 20.9453 6.22212Z" fill="#0064FF"/>
<path d="M25.417 1.8125V5.65555H29.2681C29.2681 4.63631 28.8623 3.65882 28.1401 2.9381C27.4179 2.21739 26.4384 1.8125 25.417 1.8125Z" fill="#E6E7E8"/>
<path d="M30.2174 16.1208H27.7344V18.299H30.2174V16.1208Z" fill="#0064FF"/>
<path d="M29.0883 15.8955H28.7998V16.3332H29.0883V15.8955Z" fill="#E6E7E8"/>
<path d="M28.9461 16.8228H28.1929C28.1773 16.8225 28.1625 16.8162 28.1514 16.8052C28.1404 16.7942 28.1341 16.7794 28.1338 16.7638C28.1338 16.7482 28.14 16.7332 28.1511 16.7221C28.1622 16.711 28.1772 16.7048 28.1929 16.7048H28.9461C28.9618 16.7048 28.9768 16.711 28.9879 16.7221C28.999 16.7332 29.0052 16.7482 29.0052 16.7638C29.0049 16.7794 28.9986 16.7942 28.9876 16.8052C28.9765 16.8162 28.9617 16.8225 28.9461 16.8228Z" fill="white"/>
<path d="M29.5231 17.2901H28.1929C28.1773 17.2898 28.1625 17.2835 28.1514 17.2725C28.1404 17.2615 28.1341 17.2467 28.1338 17.2311C28.1338 17.2155 28.14 17.2005 28.1511 17.1894C28.1622 17.1783 28.1772 17.1721 28.1929 17.1721H29.5231C29.5388 17.1721 29.5538 17.1783 29.5649 17.1894C29.576 17.2005 29.5822 17.2155 29.5822 17.2311C29.5819 17.2467 29.5756 17.2615 29.5646 17.2725C29.5536 17.2835 29.5387 17.2898 29.5231 17.2901Z" fill="white"/>
<path d="M29.8324 16.8373H29.2779C29.2622 16.8373 29.2472 16.8311 29.2361 16.82C29.225 16.8089 29.2188 16.7938 29.2188 16.7781C29.2188 16.7625 29.225 16.7474 29.2361 16.7363C29.2472 16.7252 29.2622 16.719 29.2779 16.719H29.8324C29.8481 16.719 29.8631 16.7252 29.8742 16.7363C29.8853 16.7474 29.8915 16.7625 29.8915 16.7781C29.8915 16.7938 29.8853 16.8089 29.8742 16.82C29.8631 16.8311 29.8481 16.8373 29.8324 16.8373Z" fill="white"/>
<path d="M19.244 2.86302H17.9316C17.9243 2.86318 17.9171 2.86188 17.9104 2.85922C17.9036 2.85655 17.8975 2.85257 17.8923 2.8475C17.8871 2.84243 17.883 2.83637 17.8802 2.82969C17.8774 2.82301 17.876 2.81583 17.876 2.80858C17.8763 2.79404 17.8823 2.7802 17.8927 2.77002C17.9031 2.75984 17.917 2.75415 17.9316 2.75415H19.244C19.2584 2.75445 19.272 2.76028 19.2822 2.77043C19.2923 2.78057 19.2981 2.79424 19.2984 2.80858C19.2984 2.81573 19.297 2.82281 19.2943 2.82942C19.2915 2.83602 19.2875 2.84202 19.2825 2.84708C19.2774 2.85213 19.2714 2.85614 19.2648 2.85887C19.2582 2.86161 19.2512 2.86302 19.244 2.86302Z" fill="#D1D3D4"/>
<path d="M19.7385 2.86302H19.489C19.4818 2.86318 19.4746 2.86188 19.468 2.8592C19.4613 2.85652 19.4552 2.85252 19.4502 2.84743C19.4451 2.84235 19.4411 2.83628 19.4384 2.8296C19.4357 2.82293 19.4344 2.81578 19.4346 2.80858C19.4346 2.79415 19.4403 2.7803 19.4505 2.77009C19.4607 2.75988 19.4745 2.75415 19.489 2.75415H19.7385C19.7528 2.75445 19.7665 2.76028 19.7766 2.77043C19.7867 2.78057 19.7925 2.79424 19.7929 2.80858C19.7929 2.82302 19.7871 2.83687 19.7769 2.84707C19.7667 2.85728 19.7529 2.86302 19.7385 2.86302Z" fill="#D1D3D4"/>
<path d="M19.8552 3.64512H17.9196C17.9053 3.64481 17.8916 3.63899 17.8815 3.62886C17.8714 3.61873 17.8655 3.60508 17.8652 3.59075C17.8652 3.57634 17.871 3.56251 17.8812 3.55231C17.8914 3.54212 17.9052 3.53639 17.9196 3.53639H19.8552C19.8624 3.53623 19.8695 3.53753 19.8762 3.5402C19.8829 3.54287 19.8889 3.54687 19.894 3.55195C19.8991 3.55703 19.9031 3.56309 19.9058 3.56976C19.9085 3.57643 19.9098 3.58357 19.9096 3.59075C19.9096 3.60517 19.9039 3.619 19.8937 3.62919C19.8835 3.63939 19.8696 3.64512 19.8552 3.64512Z" fill="#D1D3D4"/>
<path d="M18.5552 4.43221H17.9274C17.9142 4.43027 17.9021 4.42365 17.8934 4.41356C17.8847 4.40346 17.8799 4.39057 17.8799 4.37724C17.8799 4.3639 17.8847 4.35101 17.8934 4.34092C17.9021 4.33083 17.9142 4.32421 17.9274 4.32227H18.5552C18.5684 4.32421 18.5805 4.33083 18.5892 4.34092C18.5979 4.35101 18.6027 4.3639 18.6027 4.37724C18.6027 4.39057 18.5979 4.40346 18.5892 4.41356C18.5805 4.42365 18.5684 4.43027 18.5552 4.43221Z" fill="#D1D3D4"/>
<path d="M20.0616 4.4039H18.9431C18.9287 4.4039 18.9148 4.39818 18.9046 4.38798C18.8944 4.37779 18.8887 4.36396 18.8887 4.34954C18.8885 4.34236 18.8898 4.33522 18.8925 4.32855C18.8952 4.32188 18.8992 4.31582 18.9043 4.31074C18.9093 4.30566 18.9154 4.30166 18.9221 4.29899C18.9287 4.29631 18.9359 4.29502 18.9431 4.29518H20.0616C20.0761 4.29518 20.0899 4.30091 20.1001 4.3111C20.1103 4.3213 20.116 4.33512 20.116 4.34954C20.1157 4.36387 20.1099 4.37752 20.0998 4.38765C20.0896 4.39778 20.076 4.4036 20.0616 4.4039Z" fill="#D1D3D4"/>
<path d="M19.244 2.86302H17.9316C17.9243 2.86318 17.9171 2.86188 17.9104 2.85922C17.9036 2.85655 17.8975 2.85257 17.8923 2.8475C17.8871 2.84243 17.883 2.83637 17.8802 2.82969C17.8774 2.82301 17.876 2.81583 17.876 2.80858C17.8763 2.79404 17.8823 2.7802 17.8927 2.77002C17.9031 2.75984 17.917 2.75415 17.9316 2.75415H19.244C19.2584 2.75445 19.272 2.76028 19.2822 2.77043C19.2923 2.78057 19.2981 2.79424 19.2984 2.80858C19.2984 2.81573 19.297 2.82281 19.2943 2.82942C19.2915 2.83602 19.2875 2.84202 19.2825 2.84708C19.2774 2.85213 19.2714 2.85614 19.2648 2.85887C19.2582 2.86161 19.2512 2.86302 19.244 2.86302Z" stroke="#E6E7E8" stroke-width="1.015" stroke-linecap="round" stroke-linejoin="round"/>
<path d="M19.7385 2.86302H19.489C19.4818 2.86318 19.4746 2.86188 19.468 2.8592C19.4613 2.85652 19.4552 2.85252 19.4502 2.84743C19.4451 2.84235 19.4411 2.83628 19.4384 2.8296C19.4357 2.82293 19.4344 2.81578 19.4346 2.80858C19.4346 2.79415 19.4403 2.7803 19.4505 2.77009C19.4607 2.75988 19.4745 2.75415 19.489 2.75415H19.7385C19.7528 2.75445 19.7665 2.76028 19.7766 2.77043C19.7867 2.78057 19.7925 2.79424 19.7929 2.80858C19.7929 2.82302 19.7871 2.83687 19.7769 2.84707C19.7667 2.85728 19.7529 2.86302 19.7385 2.86302Z" stroke="#E6E7E8" stroke-width="1.015" stroke-linecap="round" stroke-linejoin="round"/>
<path d="M19.8552 3.64512H17.9196C17.9053 3.64481 17.8916 3.63899 17.8815 3.62886C17.8714 3.61873 17.8655 3.60508 17.8652 3.59075C17.8652 3.57634 17.871 3.56251 17.8812 3.55231C17.8914 3.54212 17.9052 3.53639 17.9196 3.53639H19.8552C19.8624 3.53623 19.8695 3.53753 19.8762 3.5402C19.8829 3.54287 19.8889 3.54687 19.894 3.55195C19.8991 3.55703 19.9031 3.56309 19.9058 3.56976C19.9085 3.57643 19.9098 3.58357 19.9096 3.59075C19.9096 3.60517 19.9039 3.619 19.8937 3.62919C19.8835 3.63939 19.8696 3.64512 19.8552 3.64512Z" stroke="#E6E7E8" stroke-width="1.015" stroke-linecap="round" stroke-linejoin="round"/>
<path d="M18.5552 4.43221H17.9274C17.9142 4.43027 17.9021 4.42365 17.8934 4.41356C17.8847 4.40346 17.8799 4.39057 17.8799 4.37724C17.8799 4.3639 17.8847 4.35101 17.8934 4.34092C17.9021 4.33083 17.9142 4.32421 17.9274 4.32227H18.5552C18.5684 4.32421 18.5805 4.33083 18.5892 4.34092C18.5979 4.35101 18.6027 4.3639 18.6027 4.37724C18.6027 4.39057 18.5979 4.40346 18.5892 4.41356C18.5805 4.42365 18.5684 4.43027 18.5552 4.43221V4.43221Z" stroke="#E6E7E8" stroke-width="1.015" stroke-linecap="round" stroke-linejoin="round"/>
<path d="M20.0616 4.4039H18.9431C18.9287 4.4039 18.9148 4.39818 18.9046 4.38798C18.8944 4.37779 18.8887 4.36396 18.8887 4.34954C18.8885 4.34236 18.8898 4.33522 18.8925 4.32855C18.8952 4.32188 18.8992 4.31582 18.9043 4.31074C18.9093 4.30566 18.9154 4.30166 18.9221 4.29899C18.9287 4.29631 18.9359 4.29502 18.9431 4.29518H20.0616C20.0761 4.29518 20.0899 4.30091 20.1001 4.3111C20.1103 4.3213 20.116 4.33512 20.116 4.34954C20.1157 4.36387 20.1099 4.37752 20.0998 4.38765C20.0896 4.39778 20.076 4.4036 20.0616 4.4039V4.4039Z" stroke="#E6E7E8" stroke-width="1.015" stroke-linecap="round" stroke-linejoin="round"/>
<path d="M27.6697 11.7396H21.2847C21.269 11.7396 21.254 11.7334 21.2429 11.7223C21.2318 11.7113 21.2256 11.6962 21.2256 11.6806C21.2256 11.6649 21.2318 11.6499 21.2429 11.6389C21.254 11.6278 21.269 11.6216 21.2847 11.6216H27.6697C27.6853 11.6216 27.7004 11.6278 27.7115 11.6389C27.7226 11.6499 27.7288 11.6649 27.7288 11.6806C27.7288 11.6962 27.7226 11.7113 27.7115 11.7223C27.7004 11.7334 27.6853 11.7396 27.6697 11.7396Z" fill="#D1D3D4"/>
<path d="M26.294 13.1531H21.3824C21.3667 13.1531 21.3516 13.1469 21.3406 13.1358C21.3295 13.1248 21.3232 13.1098 21.3232 13.0941C21.3232 13.0785 21.3295 13.0635 21.3406 13.0524C21.3516 13.0414 21.3667 13.0352 21.3824 13.0352H26.294C26.3097 13.0352 26.3248 13.0414 26.3358 13.0524C26.3469 13.0635 26.3532 13.0785 26.3532 13.0941C26.3532 13.1098 26.3469 13.1248 26.3358 13.1358C26.3248 13.1469 26.3097 13.1531 26.294 13.1531Z" fill="#D1D3D4"/>
<path d="M26.9811 14.516H21.2867C21.2711 14.5157 21.2562 14.5094 21.2452 14.4984C21.2342 14.4873 21.2278 14.4725 21.2275 14.457C21.2275 14.4413 21.2338 14.4263 21.2449 14.4152C21.2559 14.4042 21.271 14.3979 21.2867 14.3979H26.9811C26.9968 14.3979 27.0118 14.4042 27.0229 14.4152C27.034 14.4263 27.0402 14.4413 27.0402 14.457C27.0402 14.4726 27.034 14.4876 27.0229 14.4987C27.0118 14.5098 26.9968 14.516 26.9811 14.516Z" fill="#D1D3D4"/>
<path d="M27.8889 13.0862H26.982C26.9663 13.0862 26.9513 13.08 26.9402 13.0689C26.9291 13.0578 26.9229 13.0428 26.9229 13.0271C26.9229 13.0114 26.9291 12.9964 26.9402 12.9853C26.9513 12.9742 26.9663 12.968 26.982 12.968H27.8889C27.9046 12.968 27.9196 12.9742 27.9307 12.9853C27.9418 12.9964 27.948 13.0114 27.948 13.0271C27.948 13.0428 27.9418 13.0578 27.9307 13.0689C27.9196 13.08 27.9046 13.0862 27.8889 13.0862Z" fill="#D1D3D4"/>
<path d="M17.9345 7.26375H12.3003C12.2847 7.26375 12.2696 7.25754 12.2585 7.24647C12.2474 7.23541 12.2412 7.2204 12.2412 7.20476V2.59342C12.2412 2.57778 12.2474 2.56277 12.2585 2.5517C12.2696 2.54064 12.2847 2.53442 12.3003 2.53442C12.316 2.53442 12.331 2.54064 12.3421 2.5517C12.3532 2.56277 12.3595 2.57778 12.3595 2.59342V7.14576H17.9345C17.9502 7.14576 17.9652 7.15197 17.9763 7.16304C17.9874 7.1741 17.9936 7.18911 17.9936 7.20476C17.9936 7.2204 17.9874 7.23541 17.9763 7.24647C17.9652 7.25754 17.9502 7.26375 17.9345 7.26375Z" fill="#E6E7E8"/>
<path d="M12.3012 7.2639C12.2862 7.26357 12.2719 7.25768 12.261 7.24738C12.2502 7.23635 12.2441 7.22152 12.2441 7.20608C12.2441 7.19063 12.2502 7.17581 12.261 7.16478L14.6258 4.6338C14.6322 4.6274 14.6399 4.62251 14.6483 4.61947C14.6568 4.61643 14.6658 4.61532 14.6748 4.61622C14.6838 4.61713 14.6924 4.62003 14.7001 4.6247C14.7078 4.62937 14.7143 4.63571 14.7192 4.64323L15.2407 5.47628L16.8795 3.67922C16.8849 3.67372 16.8913 3.66936 16.8984 3.66638C16.9055 3.6634 16.9132 3.66187 16.9209 3.66187C16.9286 3.66187 16.9362 3.6634 16.9433 3.66638C16.9504 3.66936 16.9569 3.67372 16.9623 3.67922C16.9678 3.6847 16.9722 3.69123 16.9752 3.69842C16.9782 3.70561 16.9797 3.71332 16.9797 3.72111C16.9797 3.7289 16.9782 3.73661 16.9752 3.7438C16.9722 3.75099 16.9678 3.75751 16.9623 3.76299L15.2714 5.61787C15.2652 5.62474 15.2575 5.63011 15.2489 5.63358C15.2403 5.63706 15.231 5.63854 15.2218 5.63793C15.2128 5.63695 15.2041 5.63388 15.1965 5.62896C15.1889 5.62404 15.1826 5.61741 15.178 5.60961L14.6554 4.77539L12.3414 7.25328C12.3296 7.26119 12.3155 7.26493 12.3012 7.2639Z" fill="#E6E7E8"/>
</svg>
