<svg width="100%" viewBox="0 0 31 31" fill="none" xmlns="http://www.w3.org/2000/svg">
<path d="M5.22974 26.5007L3.42853 28.5157C3.42853 28.5157 -0.0572217 26.6475 0.0708262 26.2793C0.198874 25.9111 2.4639 26.4668 2.4639 26.4668L3.58788 25.0754" fill="white"/>
<path d="M3.42971 28.5835C3.41713 28.5837 3.40476 28.5804 3.39414 28.574C2.33134 28.0047 -0.12718 26.6378 0.00513655 26.2574C0.137453 25.877 1.84476 26.2465 2.43805 26.3933L3.53357 25.0346C3.54532 25.0207 3.56224 25.0116 3.5808 25.0094C3.59936 25.0071 3.61812 25.0117 3.63317 25.0223C3.64804 25.0334 3.65774 25.0496 3.66014 25.0674C3.66254 25.0852 3.65745 25.1032 3.64597 25.1175L2.52199 26.5088C2.51352 26.5193 2.50199 26.5272 2.48884 26.5316C2.47569 26.5359 2.4615 26.5365 2.44801 26.5332C1.38521 26.2724 0.204323 26.1175 0.138876 26.3022C0.107575 26.5128 1.8035 27.5658 3.41122 28.4313L5.17686 26.4558C5.18955 26.4443 5.20622 26.4377 5.22369 26.4372C5.24116 26.4367 5.25819 26.4424 5.27156 26.4532C5.28493 26.4639 5.29368 26.479 5.29616 26.4955C5.29863 26.512 5.29466 26.5288 5.28499 26.5427L3.48235 28.5577C3.47632 28.5656 3.46841 28.5721 3.45926 28.5766C3.45012 28.5811 3.43999 28.5835 3.42971 28.5835Z" fill="#231F20"/>
<path d="M11.0269 7.37375C10.838 7.19732 10.5999 7.07657 10.3411 7.02591C10.1192 6.99466 9.99682 7.08434 9.81186 7.16178C9.73788 7.19304 9.72934 7.29766 9.65109 7.32891C9.57284 7.36016 9.41207 7.28271 9.32244 7.28C9.08318 7.2672 8.84407 7.30753 8.62388 7.39782C8.40368 7.48811 8.20839 7.62591 8.05334 7.80039C7.86136 8.05701 7.71166 8.34019 7.60944 8.64009C7.07733 9.92273 6.26209 11.2108 4.9375 11.7652C6.13404 12.5804 7.59663 13.0981 9.06349 13.0166C9.78017 12.9759 10.4789 12.7862 11.1108 12.4608C11.6074 12.204 12.5094 11.6728 12.599 11.0831C12.683 10.5301 12.4084 9.68224 12.2263 9.16048C11.9997 8.47377 11.5857 7.85706 11.0269 7.37375Z" fill="white"/>
<path d="M8.76263 13.09C7.46366 13.09 6.10351 12.6443 4.89701 11.8182C4.88703 11.811 4.87917 11.8015 4.87418 11.7905C4.8692 11.7796 4.86726 11.7676 4.86856 11.7557C4.86978 11.744 4.87424 11.7328 4.88149 11.7232C4.88874 11.7137 4.89851 11.7061 4.90982 11.7014C6.01103 11.2421 6.87322 10.2312 7.54476 8.61435L7.57464 8.54098C7.67478 8.2602 7.81867 7.99545 8.00146 7.75564C8.16322 7.57306 8.36723 7.42891 8.59736 7.33458C8.8275 7.24026 9.07745 7.19834 9.32747 7.21215C9.37584 7.21589 9.42359 7.22501 9.46974 7.23932C9.51949 7.25628 9.57201 7.26456 9.62482 7.26378C9.64047 7.26378 9.6547 7.23389 9.67035 7.20943C9.69229 7.1621 9.73041 7.12329 9.77848 7.09938C9.81405 7.08443 9.84677 7.06812 9.87807 7.05318C10.0186 6.97111 10.1839 6.93621 10.3476 6.95399C10.6201 7.00905 10.8707 7.13672 11.0703 7.32221C11.6377 7.81421 12.0584 8.44103 12.2896 9.13882C12.4917 9.71492 12.7492 10.5424 12.6652 11.094C12.577 11.6674 11.7888 12.181 11.1415 12.5207C10.5002 12.849 9.79199 13.0405 9.06568 13.0818C8.96609 13.0873 8.86507 13.09 8.76263 13.09ZM5.08055 11.7815C6.33115 12.609 7.73967 13.0248 9.06426 12.9514C9.76977 12.913 10.4579 12.7275 11.0803 12.4079C11.9553 11.9555 12.4703 11.4853 12.5315 11.0804C12.6112 10.5587 12.3594 9.75025 12.163 9.18909C11.9395 8.51375 11.5326 7.90708 10.9836 7.43091C10.8048 7.26285 10.5798 7.14651 10.3348 7.0953C10.1991 7.08092 10.0625 7.11163 9.94779 7.18226C9.91506 7.1972 9.88092 7.21351 9.84393 7.22845C9.82439 7.24304 9.80919 7.26224 9.79982 7.28416C9.77517 7.33532 9.7316 7.37597 9.67747 7.3983C9.59768 7.41218 9.51543 7.40466 9.43987 7.37656C9.4022 7.36578 9.36365 7.35805 9.32462 7.35346C9.09614 7.33914 8.8673 7.37575 8.65619 7.46041C8.44507 7.54506 8.25746 7.67544 8.10817 7.84124C7.9355 8.06995 7.80022 8.32238 7.70695 8.5899L7.67565 8.66327C7.01265 10.2611 6.16326 11.2802 5.08055 11.7815Z" fill="#231F20"/>
<path d="M8.55622 11.7041C8.7924 11.4663 7.93732 11.6511 7.85765 13.211C7.79647 14.4012 8.19911 16.3455 8.19911 16.3455L5.52148 18.4842L7.17615 18.9352C7.17615 18.9352 10.1938 16.8401 10.1924 16.6866C10.191 16.533 8.55622 11.7041 8.55622 11.7041Z" fill="white"/>
<path d="M7.17476 18.9978C7.16867 18.9991 7.16236 18.9991 7.15626 18.9978L5.5016 18.5467C5.49028 18.5433 5.4801 18.5372 5.4721 18.5288C5.4641 18.5204 5.45856 18.5102 5.45607 18.4991C5.45406 18.4881 5.45511 18.4768 5.4591 18.4663C5.4631 18.4559 5.4699 18.4465 5.47884 18.4394L8.12659 16.3252C8.07252 16.0534 7.7339 14.3061 7.79081 13.2109C7.84915 12.0818 8.31723 11.6131 8.53492 11.5642C8.5555 11.5569 8.57803 11.5564 8.59892 11.5628C8.61981 11.5692 8.63784 11.5821 8.65016 11.5995C8.65958 11.6195 8.66245 11.6417 8.65838 11.6633C8.65432 11.6849 8.64352 11.7048 8.6274 11.7204C8.92475 12.5968 10.2493 16.5371 10.2565 16.6866C10.2636 16.836 8.60179 18.0209 7.21318 18.9856C7.20205 18.9934 7.1886 18.9977 7.17476 18.9978ZM5.65526 18.4543L7.16196 18.8619C8.26175 18.0983 9.99751 16.8564 10.1241 16.673C10.08 16.4434 9.1282 13.6023 8.49223 11.7177C8.32577 11.8359 7.9715 12.2408 7.92313 13.2123C7.86337 14.3822 8.26032 16.3129 8.26459 16.3374C8.2666 16.3484 8.26555 16.3597 8.26156 16.3702C8.25757 16.3807 8.25076 16.39 8.24183 16.3972L5.65526 18.4543Z" fill="#231F20"/>
<path d="M15.5362 30.0239C24.0767 30.0239 31.0001 29.6036 31.0001 29.0851C31.0001 28.5666 24.0767 28.1462 15.5362 28.1462C6.9957 28.1462 0.0722656 28.5666 0.0722656 29.0851C0.0722656 29.6036 6.9957 30.0239 15.5362 30.0239Z" fill="#D1D3D4"/>
<path d="M13.27 10.4119C13.1718 10.3385 8.81962 10.5967 8.0684 11.9839C7.31719 13.3712 10.0204 17.5547 10.0204 17.5547L15.5251 15.9799C15.5251 15.9799 15.9177 12.3902 13.27 10.4119Z" fill="#0064FF"/>
<path d="M30.6549 22.6418C31.3662 25.7669 29.0045 28.04 29.0045 28.04H12.3739C12.3739 28.04 10.015 25.7764 10.7221 22.6418C11.4292 19.5072 16.4416 17.7993 17.9653 16.5139C19.4891 15.2285 18.9456 13.0437 16.5497 11.3725C14.1538 9.70121 10.9099 8.6414 11.0009 5.03125C11.055 2.7214 12.9615 1.21729 12.9615 1.21729H28.4226C28.4226 1.21729 30.3291 2.71189 30.3831 5.03125C30.4685 8.6414 27.2246 9.70121 24.8273 11.3725C22.4299 13.0437 21.8864 15.2285 23.4116 16.5139C24.9368 17.7993 29.9478 19.514 30.6549 22.6418Z" fill="white"/>
<path d="M29.0039 28.1026H12.3733C12.3556 28.1024 12.3388 28.0955 12.3264 28.0835C12.3036 28.0604 9.95178 25.7533 10.6589 22.6282C11.1711 20.3646 13.9398 18.8156 15.9615 17.6852C16.7838 17.2259 17.4924 16.8292 17.9221 16.4623C18.1983 16.2404 18.417 15.9605 18.5609 15.6443C18.7048 15.3282 18.7701 14.9845 18.7515 14.6402C18.6989 13.5533 17.8822 12.3725 16.5107 11.4173C16.0397 11.0885 15.5247 10.7774 15.0267 10.4757C12.978 9.23794 10.8609 7.95665 10.9292 5.02451C10.9833 2.71467 12.894 1.17931 12.914 1.16436C12.9254 1.15476 12.94 1.14945 12.9552 1.14941H28.422C28.4371 1.14968 28.4517 1.15497 28.4632 1.16436C28.4817 1.17931 30.3925 2.70924 30.448 5.02451C30.5163 7.95665 28.3978 9.23658 26.349 10.4757C25.8525 10.7774 25.3374 11.0885 24.8651 11.4173C23.495 12.3685 22.6783 13.5478 22.6257 14.6402C22.6069 14.9844 22.6718 15.3281 22.8155 15.6442C22.9592 15.9603 23.1776 16.2404 23.4537 16.4623C23.8805 16.8237 24.5919 17.2205 25.4143 17.6852C27.436 18.8156 30.2061 20.3646 30.7183 22.6282C31.4297 25.7533 29.0736 28.0632 29.0494 28.0835C29.0436 28.0896 29.0366 28.0944 29.0288 28.0977C29.0209 28.1009 29.0124 28.1026 29.0039 28.1026ZM12.4003 27.9776H28.9754C29.1931 27.7561 31.2518 25.5658 30.5917 22.654C30.0909 20.4434 27.3492 18.9121 25.3488 17.7925C24.5222 17.3305 23.8066 16.9311 23.3684 16.5601C23.0764 16.3259 22.8454 16.03 22.6938 15.6959C22.5422 15.3617 22.4741 14.9985 22.4948 14.6348C22.5503 13.5044 23.3854 12.2951 24.7883 11.3168C25.2649 10.9853 25.7842 10.6728 26.2807 10.3657C28.2982 9.14283 30.384 7.88328 30.3171 5.0218C30.2673 2.8818 28.5884 1.4266 28.3978 1.26898H12.9794C12.7888 1.4266 11.1099 2.8818 11.0587 5.0218C10.9918 7.88328 13.079 9.14554 15.0965 10.3657C15.5958 10.6673 16.1123 10.9798 16.5875 11.3168C17.9903 12.2951 18.8269 13.5044 18.881 14.6348C18.9011 14.9975 18.8328 15.3596 18.6814 15.6928C18.5301 16.0259 18.2999 16.321 18.0088 16.5547C17.5692 16.9256 16.855 17.3251 16.0284 17.7871C14.0266 18.9067 11.2863 20.438 10.7855 22.6486C10.1268 25.5658 12.1827 27.7561 12.4003 27.9776Z" fill="#231F20"/>
<path d="M15.7694 9.70538C16.283 10.0165 16.8152 10.3372 17.3188 10.6891C18.5089 11.4814 19.4055 12.6135 19.8798 13.9229C20.3379 15.1784 20.2098 16.5154 20.4944 17.813C20.498 17.8628 20.5137 17.9112 20.5401 17.9543C20.5665 17.9975 20.6029 18.0342 20.6466 18.0617C20.712 18.0873 20.7841 18.0931 20.8531 18.0783C20.9221 18.0635 20.9846 18.0287 21.0322 17.9788C21.1085 17.8837 21.154 17.7694 21.1631 17.65C21.3424 16.6092 21.3338 15.6268 21.4021 14.5724C21.4903 13.2245 22.4507 11.8087 24.0513 10.6945C24.5564 10.3426 25.087 10.022 25.6021 9.71082C26.7602 9.00971 31.2931 5.91449 28.2797 4.98783C27.6352 4.79081 26.9167 4.8438 26.2295 4.90087L15.4564 5.78677C14.8318 5.8384 14.1944 5.89275 13.6239 6.09928C13.0534 6.30581 12.5526 6.69441 12.4516 7.18628C12.2666 8.11294 14.9272 9.19993 15.7694 9.70538Z" fill="#0064FF"/>
<path d="M29.0168 22.3796C28.3864 21.9166 27.6045 21.6821 26.8101 21.7179C25.7089 21.7559 24.6376 22.0997 23.5378 22.0494C22.2274 21.9896 20.9896 21.37 19.6864 21.4978C18.1569 21.6418 17.0472 22.7491 15.5604 23.0779C14.7708 23.2519 13.9114 23.1961 13.1417 23.4231C12.234 23.6948 11.837 24.4244 11.9423 25.1445C11.975 25.3687 12.6167 27.1296 12.9767 27.1296H28.3951C29.1875 27.1296 29.7851 23.8959 29.7054 23.4475C29.6195 23.0234 29.3747 22.6437 29.0168 22.3796Z" fill="#0064FF"/>
<path d="M28.7031 0.0612793H12.6715C12.3368 0.0612793 12.0654 0.320096 12.0654 0.639364C12.0654 0.958631 12.3368 1.21745 12.6715 1.21745H28.7031C29.0379 1.21745 29.3092 0.958631 29.3092 0.639364C29.3092 0.320096 29.0379 0.0612793 28.7031 0.0612793Z" fill="#231F20"/>
<path d="M28.7055 1.27719H12.6697C12.4923 1.27719 12.3222 1.20991 12.1968 1.09015C12.0714 0.970388 12.001 0.80796 12.001 0.638594C12.001 0.469228 12.0714 0.306799 12.1968 0.18704C12.3222 0.0672803 12.4923 7.13823e-09 12.6697 0H28.7055C28.8829 7.13823e-09 29.053 0.0672803 29.1784 0.18704C29.3038 0.306799 29.3742 0.469228 29.3742 0.638594C29.3742 0.80796 29.3038 0.970388 29.1784 1.09015C29.053 1.20991 28.8829 1.27719 28.7055 1.27719ZM12.6697 0.120925C12.5961 0.117325 12.5224 0.128063 12.4533 0.152486C12.3842 0.17691 12.321 0.21451 12.2675 0.262997C12.2141 0.311484 12.1715 0.369845 12.1425 0.434532C12.1134 0.499219 12.0984 0.568878 12.0984 0.639273C12.0984 0.709668 12.1134 0.779328 12.1425 0.844014C12.1715 0.908701 12.2141 0.967063 12.2675 1.01555C12.321 1.06404 12.3842 1.10164 12.4533 1.12606C12.5224 1.15048 12.5961 1.16122 12.6697 1.15762H28.7055C28.8447 1.15082 28.9758 1.09324 29.0718 0.996772C29.1677 0.900309 29.2212 0.772332 29.2212 0.639273C29.2212 0.506214 29.1677 0.378237 29.0718 0.281774C28.9758 0.185311 28.8447 0.127731 28.7055 0.120925H12.6697Z" fill="#231F20"/>
<path d="M29.0134 28.0403H12.3629C12.0282 28.0403 11.7568 28.2991 11.7568 28.6184C11.7568 28.9377 12.0282 29.1965 12.3629 29.1965H29.0134C29.3482 29.1965 29.6195 28.9377 29.6195 28.6184C29.6195 28.2991 29.3482 28.0403 29.0134 28.0403Z" fill="#231F20"/>
<path d="M29.0141 29.2573H12.3679C12.1906 29.2573 12.0205 29.1901 11.8951 29.0703C11.7697 28.9506 11.6992 28.7881 11.6992 28.6188C11.6992 28.4494 11.7697 28.287 11.8951 28.1673C12.0205 28.0475 12.1906 27.9802 12.3679 27.9802H29.0141C29.1915 27.9802 29.3616 28.0475 29.487 28.1673C29.6124 28.287 29.6828 28.4494 29.6828 28.6188C29.6828 28.7881 29.6124 28.9506 29.487 29.0703C29.3616 29.1901 29.1915 29.2573 29.0141 29.2573ZM12.3679 28.0998C12.2238 28.0998 12.0855 28.1545 11.9836 28.2518C11.8817 28.3491 11.8244 28.4811 11.8244 28.6188C11.8244 28.7564 11.8817 28.8884 11.9836 28.9858C12.0855 29.0831 12.2238 29.1378 12.3679 29.1378H29.0141C29.1583 29.1378 29.2965 29.0831 29.3985 28.9858C29.5004 28.8884 29.5576 28.7564 29.5576 28.6188C29.5576 28.4811 29.5004 28.3491 29.3985 28.2518C29.2965 28.1545 29.1583 28.0998 29.0141 28.0998H12.3679Z" fill="#231F20"/>
<path d="M20.443 18.5754C19.982 18.5754 19.9805 20.0319 20.443 20.0319C20.9054 20.0319 20.9054 18.5754 20.443 18.5754Z" fill="#0064FF"/>
<path d="M21.2491 20.0288C21.0628 20.0288 21.0628 20.5438 21.2491 20.5438C21.4355 20.5438 21.4369 20.0288 21.2491 20.0288Z" fill="#0064FF"/>
<path d="M20.1105 8.34957C17.9928 8.33224 15.8885 8.02802 13.8603 7.44602C13.8522 7.44372 13.8446 7.43986 13.838 7.43466C13.8315 7.42946 13.8261 7.42304 13.8222 7.41579C13.8184 7.40854 13.8161 7.40061 13.8156 7.39249C13.815 7.38437 13.8162 7.37624 13.8191 7.36858C13.8246 7.35293 13.8364 7.34001 13.8518 7.33263C13.8673 7.32524 13.8852 7.324 13.9016 7.32917C13.9898 7.35771 22.8251 10.0955 27.56 5.86448C27.5728 5.85364 27.5894 5.84798 27.6065 5.84869C27.6235 5.84941 27.6396 5.85645 27.6513 5.86832C27.6629 5.88019 27.6693 5.89594 27.669 5.91222C27.6687 5.92851 27.6618 5.94404 27.6497 5.95551C25.5611 7.82103 22.6914 8.34957 20.1105 8.34957Z" fill="#231F20"/>
<path d="M18.1169 24.7763C16.4546 24.7763 14.801 24.5475 13.207 24.0969C13.1982 24.0948 13.19 24.091 13.1828 24.0858C13.1757 24.0805 13.1697 24.0739 13.1654 24.0664C13.161 24.0588 13.1583 24.0505 13.1575 24.0419C13.1567 24.0333 13.1577 24.0246 13.1606 24.0164C13.1634 24.0083 13.168 24.0007 13.1741 23.9943C13.1802 23.9879 13.1875 23.9828 13.1958 23.9792C13.204 23.9757 13.2129 23.9738 13.222 23.9737C13.231 23.9736 13.2399 23.9753 13.2483 23.9787C13.2952 23.995 18.097 25.4964 22.4364 23.9787L27.5825 22.1783C27.5908 22.1744 27.5998 22.1723 27.609 22.1719C27.6182 22.1716 27.6274 22.1731 27.636 22.1764C27.6445 22.1797 27.6522 22.1847 27.6586 22.191C27.665 22.1973 27.6699 22.2049 27.6731 22.2132C27.6762 22.2215 27.6774 22.2303 27.6768 22.2391C27.6761 22.2478 27.6734 22.2564 27.6691 22.2641C27.6647 22.2719 27.6586 22.2786 27.6513 22.284C27.644 22.2893 27.6356 22.2932 27.6266 22.2952L22.4862 24.0928C21.0826 24.562 19.6039 24.7933 18.1169 24.7763Z" fill="#231F20"/>
<path d="M24.5405 22.4896H24.5248C23.0423 22.1404 20.4543 21.5466 20.4273 21.5385C20.4118 21.5334 20.3988 21.523 20.3909 21.5093C20.383 21.4955 20.3808 21.4795 20.3847 21.4643C20.3887 21.449 20.3984 21.4358 20.4121 21.4271C20.4258 21.4185 20.4424 21.4151 20.4586 21.4175C20.4842 21.4243 23.0722 22.0168 24.5561 22.3687C24.5645 22.3704 24.5725 22.3738 24.5795 22.3785C24.5865 22.3833 24.5924 22.3893 24.5969 22.3963C24.6014 22.4032 24.6044 22.411 24.6057 22.4191C24.607 22.4272 24.6066 22.4355 24.6045 22.4434C24.6007 22.4568 24.5924 22.4686 24.5808 22.477C24.5692 22.4854 24.555 22.4898 24.5405 22.4896Z" fill="#231F20"/>
<path d="M11.1141 10.6471L11.4214 11.5656C11.4214 11.5656 11.437 12.0235 10.7456 12.0765C10.0541 12.1295 9.81509 11.7382 9.81509 11.7382L9.30859 10.0058C9.30859 10.0058 10.1366 9.18244 9.65859 8.2395C9.86223 8.42792 10.1216 8.55193 10.4016 8.59471C10.6816 8.63749 10.9686 8.59697 11.2236 8.47863C11.3865 8.92785 11.5205 9.38613 11.6248 9.85093C11.7116 10.3496 11.1141 10.6471 11.1141 10.6471Z" fill="white"/>
<path d="M10.618 12.1484C9.99198 12.1484 9.76434 11.7884 9.75438 11.7721C9.75382 11.7666 9.75382 11.7612 9.75438 11.7558L9.24646 10.0247C9.24341 10.0133 9.24337 10.0014 9.24635 9.99004C9.24933 9.97865 9.25523 9.96816 9.26353 9.95949C9.27206 9.95134 10.0517 9.15648 9.60215 8.27057C9.59518 8.25606 9.59378 8.23966 9.59821 8.22427C9.60264 8.20887 9.6126 8.19545 9.62635 8.18637C9.64011 8.17729 9.65677 8.17313 9.67342 8.17461C9.69006 8.17609 9.70563 8.18313 9.71739 8.19448C9.91038 8.37382 10.1568 8.49167 10.4228 8.53181C10.6888 8.57196 10.9612 8.53244 11.2027 8.41868C11.2117 8.41468 11.2214 8.4126 11.2312 8.4126C11.241 8.4126 11.2508 8.41468 11.2597 8.41868C11.2693 8.42187 11.2779 8.42725 11.2849 8.43435C11.2918 8.44145 11.2968 8.45006 11.2995 8.45944C11.465 8.91179 11.6 9.3738 11.7036 9.84264C11.7818 10.2965 11.3593 10.59 11.207 10.6796L11.4916 11.5465C11.4923 11.5524 11.4923 11.5583 11.4916 11.5642C11.4916 11.5642 11.5001 12.0873 10.7503 12.1444C10.7048 12.1471 10.6607 12.1484 10.618 12.1484ZM9.88101 11.7096C9.91515 11.7585 10.1471 12.0533 10.7347 12.0085C11.3223 11.9636 11.3436 11.6348 11.345 11.5764L11.042 10.6688C11.0366 10.6535 11.0372 10.637 11.0434 10.622C11.0497 10.6071 11.0613 10.5948 11.0761 10.5872C11.0761 10.5872 11.6267 10.306 11.5499 9.86302C11.4539 9.42577 11.3294 8.99467 11.1771 8.57221C10.9571 8.66279 10.7166 8.69883 10.4781 8.67697C10.2396 8.65512 10.0107 8.57609 9.81271 8.44721C10.0475 9.21898 9.51251 9.87797 9.38589 10.0234L9.88101 11.7096Z" fill="#231F20"/>
<path d="M9.59495 9.86169C9.54318 9.78523 9.46752 9.72627 9.37869 9.6932C9.29431 9.6666 9.20573 9.65419 9.11691 9.65651C9.06857 9.65181 9.01976 9.65834 8.97463 9.67553C8.94398 9.6899 8.91683 9.71027 8.89496 9.73532C8.83622 9.78855 8.80023 9.86068 8.79395 9.93778C8.79528 10.0003 8.81288 10.0614 8.84516 10.1158C8.87479 10.1771 8.91308 10.2343 8.95898 10.2856C9.00561 10.3364 9.06233 10.3777 9.12583 10.4073C9.18934 10.437 9.25837 10.4542 9.32892 10.4581C9.39948 10.4621 9.47014 10.4525 9.53681 10.4302C9.60348 10.4078 9.66484 10.373 9.71731 10.3278" fill="white"/>
<path d="M9.35792 10.5274H9.32377C9.24252 10.5238 9.16286 10.5047 9.08953 10.471C9.0162 10.4374 8.95071 10.3901 8.89695 10.3318C8.84717 10.2758 8.80553 10.2136 8.77317 10.147C8.73644 10.0827 8.71644 10.0109 8.71484 9.93771C8.72188 9.84414 8.76437 9.75623 8.83435 9.69041C8.86309 9.65902 8.89787 9.63319 8.93679 9.61432C8.99243 9.59361 9.05227 9.58524 9.11179 9.58986C9.2084 9.5874 9.30472 9.60119 9.39633 9.63062C9.49979 9.6689 9.58759 9.73799 9.64673 9.82765C9.65189 9.83517 9.65541 9.84361 9.65706 9.85247C9.65871 9.86132 9.65846 9.87041 9.65633 9.87917C9.6542 9.88793 9.65024 9.89619 9.64468 9.90345C9.63912 9.91071 9.63207 9.91681 9.62397 9.9214C9.60785 9.93063 9.5886 9.93352 9.57029 9.92946C9.55198 9.92541 9.53603 9.91472 9.5258 9.89966C9.48274 9.83728 9.41993 9.78967 9.34654 9.76378C9.26928 9.74044 9.18853 9.72942 9.10752 9.73117C9.07003 9.72717 9.03209 9.73135 8.99654 9.7434C8.97449 9.75495 8.95474 9.77013 8.93821 9.78824C8.89282 9.83073 8.86418 9.88689 8.85712 9.94722C8.85912 9.9984 8.87427 10.0483 8.90122 10.0926C8.92789 10.1484 8.96235 10.2005 9.00366 10.2475C9.08628 10.3355 9.20169 10.3892 9.3252 10.397C9.38619 10.4003 9.44727 10.392 9.5049 10.3727C9.56253 10.3533 9.61557 10.3232 9.66096 10.2842C9.66758 10.2778 9.67544 10.2728 9.68411 10.2693C9.69278 10.2659 9.70208 10.2641 9.71147 10.2641C9.72086 10.2641 9.73016 10.2659 9.73883 10.2693C9.7475 10.2728 9.75536 10.2778 9.76198 10.2842C9.7686 10.2904 9.77386 10.2978 9.77746 10.306C9.78105 10.3141 9.7829 10.3229 9.7829 10.3318C9.7829 10.3406 9.78105 10.3494 9.77746 10.3575C9.77386 10.3657 9.7686 10.3731 9.76198 10.3793C9.65097 10.4745 9.5071 10.5272 9.35792 10.5274Z" fill="#231F20"/>
<path d="M10.5693 9.17944C10.5693 9.17944 11.0829 9.53546 11.036 9.64553C10.989 9.75559 10.7514 9.78141 10.7514 9.78141" fill="white"/>
<path d="M10.7468 9.8464C10.728 9.8473 10.7095 9.841 10.6955 9.8289C10.6815 9.8168 10.6731 9.79988 10.6721 9.78187C10.6712 9.76385 10.6778 9.74621 10.6905 9.73284C10.7031 9.71946 10.7209 9.71144 10.7397 9.71054C10.8237 9.70239 10.9503 9.66571 10.9702 9.61952C10.845 9.46941 10.6956 9.33918 10.5277 9.23368C10.5128 9.2231 10.5028 9.20737 10.4999 9.18986C10.497 9.17234 10.5014 9.15442 10.5121 9.13994C10.5175 9.13255 10.5243 9.12628 10.5323 9.1215C10.5403 9.11672 10.5492 9.11353 10.5585 9.11214C10.5678 9.11074 10.5773 9.11116 10.5865 9.11337C10.5956 9.11558 10.6042 9.11954 10.6117 9.125C10.9816 9.38177 11.1466 9.56517 11.1025 9.66842C11.0413 9.80428 10.8023 9.83825 10.7554 9.84232L10.7468 9.8464Z" fill="#231F20"/>
<path d="M10.2575 9.18603C10.2979 9.16145 10.3013 9.09734 10.265 9.04285C10.2287 8.98835 10.1664 8.9641 10.126 8.98869C10.0855 9.01327 10.0822 9.07738 10.1185 9.13187C10.1548 9.18637 10.217 9.21062 10.2575 9.18603Z" fill="#231F20"/>
<path d="M10.8053 8.99462C10.8458 8.97004 10.8492 8.90594 10.8128 8.85145C10.7765 8.79696 10.7143 8.77271 10.6738 8.79729C10.6334 8.82187 10.63 8.88597 10.6663 8.94046C10.7027 8.99495 10.7649 9.0192 10.8053 8.99462Z" fill="#231F20"/>
<path d="M11.1912 9.87915C11.1912 9.87915 10.5025 10.5762 10.1426 9.87915H11.1912Z" fill="white"/>
<path d="M10.5726 10.2597C10.5485 10.2617 10.5242 10.2617 10.5001 10.2597C10.4041 10.2424 10.3145 10.2018 10.2397 10.1418C10.165 10.0819 10.1076 10.0046 10.0732 9.91733C10.0653 9.90106 10.0642 9.88248 10.0703 9.8655C10.0764 9.84852 10.0892 9.83446 10.106 9.82629C10.1144 9.82235 10.1235 9.82003 10.1328 9.81947C10.1422 9.81891 10.1515 9.82011 10.1604 9.82302C10.1693 9.82592 10.1774 9.83046 10.1844 9.83639C10.1915 9.84231 10.1972 9.8495 10.2013 9.85754C10.2259 9.92446 10.2677 9.9844 10.3229 10.0319C10.3781 10.0793 10.4449 10.1128 10.5171 10.1293C10.8017 10.1714 11.1318 9.84803 11.1346 9.84531C11.1412 9.83895 11.1491 9.83389 11.1577 9.83044C11.1664 9.827 11.1757 9.82522 11.1851 9.82522C11.1945 9.82522 11.2038 9.827 11.2125 9.83044C11.2211 9.83389 11.229 9.83895 11.2356 9.84531C11.2487 9.85824 11.2561 9.87554 11.2561 9.89355C11.2561 9.91156 11.2487 9.92885 11.2356 9.94178C11.2285 9.94314 10.9112 10.2597 10.5726 10.2597Z" fill="#231F20"/>
<path d="M11.1133 10.647C11.1133 10.647 10.6111 10.7829 10.3379 10.7244C10.3379 10.7244 10.7007 11.2177 11.2883 11.2027L11.1133 10.647Z" fill="#231F20"/>
<path d="M11.2633 11.2706C10.6601 11.2706 10.2958 10.7842 10.2802 10.7625C10.272 10.7511 10.2676 10.7377 10.2676 10.7239C10.2676 10.7101 10.2719 10.6967 10.2801 10.6853C10.2883 10.674 10.2999 10.6653 10.3134 10.6604C10.3269 10.6555 10.3416 10.6546 10.3556 10.6579C10.6074 10.7176 11.0898 10.5845 11.094 10.5832C11.1119 10.5781 11.1313 10.5799 11.1478 10.5883C11.1643 10.5967 11.1767 10.6109 11.1822 10.628L11.3572 11.1823C11.3606 11.1923 11.3615 11.2029 11.3598 11.2133C11.3581 11.2237 11.3538 11.2336 11.3473 11.2421C11.3409 11.2505 11.3326 11.2574 11.3229 11.2624C11.3133 11.2673 11.3027 11.2701 11.2918 11.2706H11.2633ZM10.5093 10.8087C10.6916 10.9885 10.9333 11.1027 11.1936 11.132L11.067 10.7244C10.8854 10.7714 10.6987 10.7978 10.5107 10.8032L10.5093 10.8087Z" fill="#231F20"/>
<path d="M15.5244 15.9856C15.5244 15.9856 15.5244 18.6378 15.2014 19.7574C14.2823 22.9314 7.57116 28.0022 7.57116 28.0022L6.08438 26.5918L10.172 20.9694L5.23073 26.4953L3.58887 25.07L10.0197 17.5549L15.5244 15.9856Z" fill="#231F20"/>
<path d="M7.57136 28.0698C7.55285 28.0696 7.53508 28.0628 7.52156 28.0508L6.03478 26.6458C6.02288 26.6346 6.0155 26.6198 6.01394 26.6039C6.01238 26.5879 6.01673 26.572 6.02624 26.5589L9.3057 22.0466L5.28499 26.5439C5.27897 26.5511 5.27142 26.5571 5.26283 26.5613C5.25425 26.5655 5.24483 26.5679 5.23519 26.5684C5.22583 26.5691 5.21644 26.5678 5.20761 26.5648C5.19879 26.5617 5.19073 26.5569 5.18397 26.5507L3.54211 25.1254C3.5295 25.1128 3.52246 25.096 3.52246 25.0786C3.52246 25.0611 3.5295 25.0443 3.54211 25.0317L9.96586 17.5166C9.9747 17.5062 9.9866 17.4986 10 17.4948L15.5046 15.9201C15.5153 15.9174 15.5264 15.917 15.5372 15.9189C15.548 15.9208 15.5583 15.9249 15.5673 15.9309C15.5759 15.9374 15.583 15.9456 15.5879 15.955C15.5928 15.9644 15.5955 15.9748 15.5957 15.9853C15.5957 16.094 15.5957 18.6593 15.2699 19.7761C14.8857 21.1036 13.4801 22.9012 11.0913 25.1186C9.31708 26.7668 7.63253 28.0426 7.61546 28.0548C7.60289 28.0643 7.58738 28.0696 7.57136 28.0698ZM6.17705 26.5915L7.57562 27.9135C8.18741 27.4434 14.2725 22.7151 15.1333 19.7408C15.4179 18.7584 15.4492 16.5532 15.4534 16.0722L10.0612 17.6239L3.68723 25.0738L5.22523 26.4094L10.1181 20.9365C10.1297 20.9232 10.1464 20.9147 10.1644 20.913C10.1825 20.9112 10.2006 20.9162 10.2148 20.927C10.2293 20.9373 10.239 20.9526 10.2416 20.9697C10.2443 20.9867 10.2398 21.0041 10.2291 21.018L6.17705 26.5915Z" fill="#231F20"/>
<path d="M6.08501 26.5916L5.01795 27.7234C5.01795 27.7234 3.26938 27.1622 3.34621 27.4788C3.42304 27.7954 5.69944 29.5618 5.81469 29.5985C5.92993 29.6352 7.57179 27.9965 7.57179 27.9965" fill="white"/>
<path d="M5.81373 29.6718H5.79381C5.65153 29.627 3.36231 27.8471 3.27837 27.4979C3.27172 27.4753 3.2718 27.4514 3.27858 27.4288C3.28537 27.4063 3.29859 27.386 3.31679 27.3702C3.5117 27.2017 4.59727 27.5237 4.99706 27.6419L6.03283 26.5441C6.04578 26.532 6.06309 26.525 6.08122 26.5247C6.09936 26.5243 6.11695 26.5306 6.13039 26.5422C6.14384 26.5539 6.15213 26.5699 6.15356 26.5872C6.155 26.6045 6.14947 26.6216 6.13811 26.6351L5.07105 27.7656C5.06178 27.7754 5.04971 27.7824 5.03632 27.7858C5.02292 27.7892 5.00878 27.7888 4.99564 27.7846C4.22166 27.5359 3.49605 27.3906 3.41211 27.4639C3.48325 27.7357 5.56617 29.3661 5.82368 29.5237C5.99015 29.434 6.80823 28.6582 7.52103 27.9476C7.52753 27.9413 7.53527 27.9363 7.54382 27.9328C7.55238 27.9294 7.56156 27.9276 7.57083 27.9276C7.58011 27.9276 7.58929 27.9294 7.59784 27.9328C7.60639 27.9363 7.61414 27.9413 7.62063 27.9476C7.62729 27.9539 7.63259 27.9614 7.6362 27.9697C7.63981 27.978 7.64167 27.9869 7.64167 27.9959C7.64167 28.0048 7.63981 28.0137 7.6362 28.022C7.63259 28.0303 7.62729 28.0378 7.62063 28.0441C6.13242 29.5386 5.88629 29.6718 5.81373 29.6718Z" fill="#231F20"/>
<path d="M7.74357 27.1229C7.73431 27.123 7.72515 27.1211 7.71677 27.1173C7.70839 27.1136 7.70101 27.108 7.6952 27.1011C7.68969 27.0952 7.6855 27.0883 7.68287 27.0809C7.68023 27.0734 7.67922 27.0654 7.67989 27.0576C7.68055 27.0497 7.68288 27.042 7.68673 27.035C7.69059 27.028 7.69589 27.0219 7.70231 27.0169C7.7578 26.9721 13.2311 22.51 14.3195 19.9923C15.398 17.499 14.8303 16.5044 14.8246 16.4949C14.8163 16.4811 14.8141 16.4646 14.8185 16.4492C14.8229 16.4338 14.8336 16.4207 14.8481 16.4127C14.8626 16.4048 14.8799 16.4027 14.896 16.4069C14.9121 16.4111 14.9259 16.4213 14.9342 16.4351C14.9584 16.4759 15.5431 17.48 14.4362 20.0385C13.3293 22.597 7.8389 27.0631 7.78341 27.1039C7.7731 27.1148 7.75888 27.1215 7.74357 27.1229Z" fill="white"/>
<path d="M10.5693 18.8318C10.5535 18.8315 10.5383 18.8257 10.5266 18.8155C10.5207 18.8101 10.5159 18.8035 10.5127 18.7963C10.5095 18.7891 10.5078 18.7813 10.5078 18.7734C10.5078 18.7655 10.5095 18.7578 10.5127 18.7505C10.5159 18.7433 10.5207 18.7367 10.5266 18.7313L11.9038 17.2965C11.9126 17.2876 11.9239 17.2815 11.9363 17.2788C11.9487 17.2762 11.9617 17.2771 11.9735 17.2815C11.9853 17.2859 11.9954 17.2935 12.0025 17.3035C12.0096 17.3134 12.0134 17.3252 12.0134 17.3372V18.4052C12.0134 18.421 12.0068 18.4363 11.995 18.4475C11.9833 18.4587 11.9674 18.465 11.9508 18.465C11.9342 18.465 11.9182 18.4587 11.9065 18.4475C11.8948 18.4363 11.8882 18.421 11.8882 18.4052V17.488L10.6191 18.8087C10.613 18.8158 10.6054 18.8215 10.5968 18.8254C10.5882 18.8294 10.5788 18.8316 10.5693 18.8318Z" fill="white"/>
<path d="M9.20808 19.5398L11.0392 17.5601H6.49773L4.06055 19.8672L9.20808 19.5398Z" fill="white"/>
<path d="M4.05967 19.9339C4.04707 19.934 4.03473 19.9305 4.02413 19.924C4.01353 19.9175 4.00512 19.9082 3.99991 19.8972C3.99452 19.8858 3.99285 19.8731 3.99514 19.8607C3.99742 19.8484 4.00355 19.8369 4.01272 19.8279L6.45132 17.5182C6.46368 17.5071 6.4799 17.5008 6.49685 17.5005H11.0383C11.0509 17.5003 11.0633 17.5037 11.074 17.5102C11.0846 17.5167 11.093 17.5261 11.098 17.5372C11.1027 17.5481 11.1043 17.5601 11.1025 17.5718C11.1008 17.5835 11.0958 17.5945 11.0881 17.6038L9.25415 19.582C9.24276 19.594 9.22695 19.6013 9.21004 19.6024L4.06394 19.9339H4.05967ZM6.52388 17.6241L4.22898 19.7981L9.1759 19.4842L10.8946 17.6241H6.52388Z" fill="#231F20"/>
<path d="M12.5996 11.0831C12.5996 11.0831 13.7179 15.37 13.4077 15.5059C13.0976 15.6417 9.22197 16.8239 9.00714 16.9135C8.7923 17.0032 8.27016 17.3646 8.17483 17.5603C8.07951 17.756 7.99272 18.5318 8.17483 18.4815C8.44114 18.4221 8.70341 18.3472 8.96019 18.2573C9.10246 18.1867 9.30876 17.7777 9.30876 17.7777C9.30876 17.7777 9.28316 18.1731 9.47807 18.0888C9.67299 18.0046 10.0201 17.5603 10.0201 17.5603C10.0201 17.5603 14.9073 17.4013 15.3825 16.4651C15.8577 15.529 15.5973 13.5071 14.8134 11.9622C14.0295 10.4173 12.6693 10.1374 12.5996 11.0831Z" fill="white"/>
<path d="M8.15937 18.5467C8.14209 18.5464 8.12509 18.5425 8.10959 18.5352C8.09409 18.528 8.08048 18.5175 8.06973 18.5046C7.93742 18.3565 8.03559 17.6988 8.11669 17.5331C8.22055 17.3198 8.75266 16.9543 8.98172 16.8537C9.07847 16.8129 9.85956 16.5684 10.7659 16.2844C11.9041 15.9271 13.2101 15.5208 13.3809 15.4447C13.5231 15.283 13.0608 13.105 12.5358 11.0968C12.5351 11.09 12.5351 11.0832 12.5358 11.0764C12.5599 10.7517 12.7335 10.5329 13.0124 10.4854C13.5246 10.3916 14.3256 10.8577 14.8719 11.9324C15.6672 13.4977 15.9233 15.5425 15.441 16.4896C14.9587 17.4366 10.5112 17.601 10.0545 17.6173C9.97338 17.7192 9.69025 18.063 9.50529 18.1431C9.48075 18.1556 9.45314 18.1616 9.42536 18.1604C9.39757 18.1592 9.37063 18.1509 9.34737 18.1363C9.30134 18.0998 9.27055 18.0487 9.26058 17.9923C9.19714 18.1167 9.10466 18.2254 8.99026 18.3103C8.79291 18.3849 8.58979 18.4449 8.38274 18.4896C8.30733 18.5086 8.24046 18.5249 8.19351 18.5385C8.18253 18.5426 8.17106 18.5453 8.15937 18.5467ZM12.6652 11.0737C12.6937 11.1838 12.9569 12.2028 13.1831 13.2259C13.6754 15.4501 13.5203 15.5194 13.4364 15.5561C13.2585 15.6349 11.9553 16.0426 10.8057 16.4013C9.94065 16.673 9.12399 16.9271 9.03436 16.9651C8.81383 17.0589 8.32299 17.4121 8.23335 17.5806C8.14372 17.7491 8.09107 18.3565 8.16933 18.4203C8.22782 18.3977 8.28828 18.3799 8.35002 18.3673C8.5474 18.3236 8.74136 18.2669 8.9305 18.1975C9.02013 18.1526 9.17379 17.8958 9.2492 17.745C9.25592 17.7324 9.26695 17.7223 9.28047 17.7164C9.29399 17.7106 9.3092 17.7093 9.3236 17.7127C9.33799 17.7162 9.35073 17.7243 9.3597 17.7356C9.36867 17.7469 9.37336 17.7607 9.37298 17.7749C9.36043 17.8632 9.37736 17.9531 9.42135 18.0317C9.42846 18.0317 9.44127 18.0317 9.45265 18.0317C9.59493 17.9679 9.87948 17.6418 9.96911 17.5208C9.97485 17.5134 9.98234 17.5072 9.99099 17.503C9.99963 17.4988 10.0092 17.4965 10.0189 17.4964C10.0303 17.4964 11.2524 17.4556 12.5158 17.3007C14.6044 17.0453 15.1963 16.6893 15.3244 16.4366C15.7896 15.5194 15.5335 13.5235 14.7553 11.9868C14.2431 10.9813 13.4876 10.5261 13.038 10.609C12.8189 10.6498 12.688 10.8155 12.6695 11.0791L12.6652 11.0737Z" fill="#231F20"/>
<path d="M9.2068 19.5398C9.03323 19.302 6.77105 15.7354 6.77105 15.7354L1.44141 16.2354L4.05928 19.87L9.2068 19.5398Z" fill="white"/>
<path d="M4.05974 19.9337C4.04911 19.9336 4.03867 19.9311 4.02926 19.9264C4.01986 19.9216 4.01177 19.9148 4.00567 19.9065L1.38922 16.2652C1.38374 16.2558 1.38086 16.2453 1.38086 16.2346C1.38086 16.2239 1.38374 16.2134 1.38922 16.204C1.39399 16.1941 1.40133 16.1856 1.41055 16.1792C1.41976 16.1727 1.43054 16.1687 1.44186 16.1674L6.77008 15.6687C6.78229 15.6672 6.79468 15.6691 6.80578 15.6742C6.81689 15.6792 6.82622 15.6872 6.83269 15.6972C6.85545 15.7339 9.09629 19.2679 9.2656 19.5016C9.27149 19.5111 9.27459 19.5219 9.27459 19.5329C9.27459 19.5439 9.27149 19.5547 9.2656 19.5641C9.26063 19.574 9.25302 19.5825 9.24353 19.5887C9.23404 19.5949 9.223 19.5986 9.21153 19.5995L4.064 19.9337H4.05974ZM1.55853 16.2842L4.09104 19.8033L9.09202 19.4853C8.71357 18.9147 6.95789 16.1565 6.73594 15.7978L1.55853 16.2842Z" fill="#231F20"/>
<path d="M5.91177 18.0007C5.83107 17.8357 5.70828 17.6928 5.55466 17.5849C5.45971 17.5108 5.34482 17.4637 5.22315 17.4491C5.16247 17.4435 5.10131 17.4531 5.04568 17.4769C4.99006 17.5007 4.94188 17.5379 4.90588 17.5849C4.85768 17.6646 4.83913 17.7575 4.85323 17.8485C4.86271 17.956 4.89649 18.0603 4.95225 18.1541C5.00801 18.248 5.08441 18.3291 5.1762 18.392C5.50201 18.6013 6.15079 18.4858 5.91177 18.0007Z" fill="white"/>
<path d="M5.5437 18.5522C5.40092 18.5537 5.26083 18.515 5.14105 18.4407C5.04124 18.3739 4.95803 18.2869 4.89731 18.1859C4.83658 18.085 4.79982 17.9725 4.78963 17.8565C4.77288 17.7516 4.79502 17.6444 4.85223 17.5535C4.89483 17.4975 4.95205 17.4531 5.0182 17.4247C5.08434 17.3963 5.15711 17.385 5.22926 17.3918C5.36281 17.4055 5.48958 17.4549 5.59492 17.5345C5.75623 17.6488 5.88529 17.7996 5.97053 17.9733C6.09858 18.2342 5.9876 18.381 5.90935 18.4421C5.80446 18.5181 5.67524 18.557 5.5437 18.5522ZM5.19512 17.5141C5.14987 17.5129 5.10496 17.522 5.06413 17.5406C5.02331 17.5593 4.98773 17.587 4.96036 17.6214C4.92039 17.6891 4.90536 17.7675 4.91768 17.8443C4.92658 17.9422 4.95765 18.0372 5.00874 18.1226C5.05984 18.208 5.12974 18.2818 5.21361 18.3388C5.30405 18.3959 5.40968 18.4271 5.51806 18.4288C5.62644 18.4305 5.73307 18.4026 5.82541 18.3484C5.91362 18.2763 5.92216 18.1676 5.85386 18.0263C5.77719 17.8712 5.66131 17.7367 5.51667 17.635C5.4317 17.5686 5.32843 17.5271 5.2193 17.5155L5.19512 17.5141Z" fill="#231F20"/>
<path d="M5.23633 17.8008C5.29774 17.8827 5.35472 17.9675 5.40705 18.0549L5.52087 17.8008" fill="white"/>
<path d="M5.41348 18.1172C5.40216 18.1171 5.39107 18.1142 5.38132 18.1087C5.37157 18.1032 5.36352 18.0953 5.35799 18.0859C5.29681 17.9881 5.21571 17.8726 5.20148 17.8481C5.19421 17.842 5.18841 17.8345 5.18448 17.826C5.18054 17.8176 5.17858 17.8084 5.17872 17.7992C5.17872 17.783 5.18546 17.7674 5.19747 17.7559C5.20948 17.7445 5.22576 17.738 5.24274 17.738C5.27974 17.738 5.2897 17.738 5.40352 17.9188L5.46755 17.7829C5.47416 17.7676 5.48687 17.7554 5.50287 17.749C5.51888 17.7427 5.53688 17.7426 5.55291 17.7489C5.56869 17.7555 5.58111 17.7677 5.5875 17.783C5.59389 17.7982 5.59373 17.8153 5.58706 17.8304L5.47324 18.0859C5.4683 18.0963 5.46057 18.1053 5.45083 18.112C5.44109 18.1187 5.42968 18.1228 5.41775 18.1239L5.41348 18.1172Z" fill="#231F20"/>
</svg>
