<svg xmlns="http://www.w3.org/2000/svg" viewBox="0 0 122.89 73.31"><title>Asset 1</title><g id="Layer_2" data-name="Layer 2"><g id="Layer_1-2" data-name="Layer 1"><path d="M70,14.08a6.47,6.47,0,0,1,3.58,1.07V13.38a6.59,6.59,0,0,1,6.57-6.57h0A6.54,6.54,0,0,1,83.89,8V6.56A6.56,6.56,0,0,1,97,6.57V8a6.57,6.57,0,0,1,10.25,5.43V40.83a11.22,11.22,0,0,1,.13,1.64h0v1.84l.16-.15c1.13-1.06,2.23-2.17,2.65-2.58,2.8-2.8,5.82-3.4,8.21-2.64a6.19,6.19,0,0,1,2.75,1.76,6.61,6.61,0,0,1,1.53,2.93c.63,2.65-.22,6-3.52,8.95l0,.05h0c-3.89,3.92-14.64,16.47-21,19-7,2.81-20.52,2.13-27.44-2.37.62-.61,1.38-1.34,2.2-2.12C79.1,70.77,91.16,71.2,97,68.87c5.65-2.25,17.08-15.43,20-18.33,0,0,.09-.1.15-.15l1,1.12-1-1.11c2.39-2.12,3.05-4.37,2.64-6.08a3.75,3.75,0,0,0-.83-1.61,3.35,3.35,0,0,0-1.45-.94c-1.42-.45-3.3,0-5.2,1.9-.43.43-1.59,1.59-2.72,2.65a19.43,19.43,0,0,1-2.87,2.36,1.49,1.49,0,0,1-.82.25h0l-1.18-.58-.35-5.88c0-11-.08-18-.08-29a3.58,3.58,0,0,0-7.16,0V36H94V6.57a3.58,3.58,0,0,0-7.16,0V36H83.7V13.38a3.58,3.58,0,0,0-7.16,0V32.83a15.59,15.59,0,0,0-3-1V20.65a3.58,3.58,0,0,0-7.16,0V31.94a13.27,13.27,0,0,0-3,1.06V20.65A6.59,6.59,0,0,1,70,14.08ZM61.05,42.64c2.49-2.59,4.23-4.83,8.06-5.27,7.19-.83,13.8,6.53,10.17,13.78a32.45,32.45,0,0,1-5.46,6.93c-2.55,2.64-5.38,5.23-7.36,7.2l-5.4,5.36L56.6,66.35c-5.37-5.17-14.12-11.68-14.41-19.74-.2-5.65,4.25-9.27,9.38-9.2,4.57.06,6.49,2.33,9.48,5.23ZM52.9,14.08a6.47,6.47,0,0,0-3.58,1.07V13.38a6.59,6.59,0,0,0-6.57-6.57h0A6.54,6.54,0,0,0,39,8V6.56a6.56,6.56,0,0,0-13.12,0V8a6.57,6.57,0,0,0-10.25,5.43V40.83a11.22,11.22,0,0,0-.13,1.64h0v1.84l-.16-.15C14.2,43.1,13.1,42,12.68,41.58c-2.8-2.8-5.82-3.4-8.21-2.64A6.19,6.19,0,0,0,1.72,40.7,6.61,6.61,0,0,0,.19,43.63c-.63,2.65.22,6,3.52,8.95l0,.05h0c3.89,3.92,14.64,16.47,21,19,6.85,2.73,19.77,2.17,26.85-2l-1.68-1.54-.62-.57c-6.37,3.27-17.78,3.6-23.43,1.35s-17.1-15.43-20-18.33c0,0-.09-.1-.15-.15l-1,1.12,1-1.11C3.35,48.28,2.69,46,3.1,44.32a3.75,3.75,0,0,1,.83-1.61,3.35,3.35,0,0,1,1.45-.94c1.42-.45,3.3,0,5.2,1.91.43.43,1.59,1.59,2.72,2.65a19.43,19.43,0,0,0,2.87,2.36,1.49,1.49,0,0,0,.82.25h0l1.18-.58.35-5.88c0-11,.08-18,.08-29a3.58,3.58,0,0,1,7.16,0V36h3.09V6.57a3.58,3.58,0,0,1,7.16,0V36h3.16V13.38a3.58,3.58,0,0,1,7.16,0v19a15.65,15.65,0,0,1,3-.68V20.65a3.58,3.58,0,0,1,7.16,0c0,4.21,0,8,0,11.63a12.57,12.57,0,0,1,3,1.34v-13a6.59,6.59,0,0,0-6.58-6.57Z"/></g></g></svg>