<svg xmlns="http://www.w3.org/2000/svg" viewBox="0 0 122.88 122.8"><title>Asset 1</title><g id="Layer_2" data-name="Layer 2"><g id="Layer_1-2" data-name="Layer 1"><path d="M85,4.57A61.45,61.45,0,1,1,0,61.35,62.43,62.43,0,0,1,38.24,4.17C52.4-1.63,70.85-1.27,85,4.57ZM52,59.71A10.52,10.52,0,0,1,54.7,57.6V30.87a4.94,4.94,0,0,1,9.87,0V57.6a10.48,10.48,0,0,1,4.25,4.25H89.1a4.93,4.93,0,1,1,0,9.86H68.83A10.42,10.42,0,1,1,52,59.71ZM97.91,25.84C72.46.39,29.53,7.58,14.64,39.64a51.58,51.58,0,1,0,93.21-.84c-2.52-5.15-5.88-8.9-9.94-13Z"/></g></g></svg>