<svg width="122" height="123" viewBox="0 0 122 123" fill="none" xmlns="http://www.w3.org/2000/svg">
<path d="M53.6248 4.65981e-07C63.2939 -0.00127395 72.7835 2.61154 81.0892 7.56191C89.395 12.5123 96.2079 19.616 100.807 28.1214C105.406 36.6267 107.62 46.2172 107.215 55.8778C106.809 65.5384 103.8 74.9097 98.5048 83L121.715 108.29L105.715 122.92L83.3248 98.26C76.3576 102.896 68.402 105.837 60.0945 106.848C51.787 107.858 43.3583 106.91 35.4828 104.079C27.6074 101.249 20.5039 96.6137 14.7407 90.5457C8.97753 84.4776 4.71472 77.1447 2.29339 69.1339C-0.127953 61.1232 -0.640593 52.6568 0.796485 44.4124C2.23356 36.168 5.58046 28.3744 10.5694 21.6552C15.5583 14.9361 22.0506 9.47801 29.527 5.7177C37.0033 1.95738 45.2561 -0.000747742 53.6248 4.65981e-07ZM62.4048 30.7H48.2948C48.2555 30.7 48.2167 30.708 48.1806 30.7234C48.1445 30.7389 48.1119 30.7616 48.0848 30.79C48.04 30.8509 48.0155 30.9244 48.0148 31V34.17H62.7048V31C62.7043 30.9584 62.6951 30.9174 62.6779 30.8795C62.6607 30.8416 62.6358 30.8077 62.6048 30.78C62.5488 30.7244 62.4737 30.6922 62.3948 30.69L62.4048 30.7ZM28.4048 34.28H44.0148V29.82C44.0174 29.171 44.2764 28.5494 44.7353 28.0905C45.1942 27.6316 45.8158 27.3726 46.4648 27.37H64.2648C64.912 27.3753 65.5311 27.6354 65.9879 28.094C66.4446 28.5526 66.7022 29.1728 66.7048 29.82V34.28H82.2748C82.7262 34.2749 83.1741 34.3608 83.5916 34.5326C84.0091 34.7044 84.3877 34.9586 84.7048 35.28C85.0244 35.5984 85.2774 35.9773 85.449 36.3945C85.6207 36.8117 85.7077 37.2589 85.7048 37.71V46.63C81.9557 49.1955 77.9869 51.4242 73.8448 53.29C69.4093 55.2955 64.7733 56.824 60.0148 57.85V54.63C60.0161 54.3145 59.9549 54.0018 59.8348 53.71C59.7147 53.4182 59.5379 53.1531 59.3148 52.93C59.0917 52.7069 58.8266 52.5301 58.5348 52.41C58.243 52.2899 57.9303 52.2287 57.6148 52.23H53.1048C52.4683 52.2317 51.8579 52.483 51.4048 52.93C50.9587 53.3829 50.7106 53.9943 50.7148 54.63V57.78C46.0476 56.7686 41.4994 55.2704 37.1448 53.31C32.9044 51.383 28.8449 49.0805 25.0148 46.43V37.73C25.0226 36.8174 25.3886 35.9445 26.0339 35.2991C26.6792 34.6538 27.5522 34.2878 28.4648 34.28H28.4048ZM85.7248 50.44V73.64C85.717 74.5526 85.351 75.4256 84.7057 76.0709C84.0603 76.7162 83.1874 77.0822 82.2748 77.09H28.4148C27.9633 77.0951 27.5155 77.0092 27.098 76.8374C26.6805 76.6656 26.3019 76.4114 25.9848 76.09C25.6666 75.7706 25.4145 75.3915 25.2429 74.9746C25.0713 74.5576 24.9836 74.1109 24.9848 73.66V50.23C28.4093 52.4558 31.9999 54.4149 35.7248 56.09C40.4203 58.1987 45.3283 59.7979 50.3648 60.86C50.4844 60.8742 50.6052 60.8742 50.7248 60.86V64.05C50.7248 64.3647 50.7869 64.6763 50.9077 64.9669C51.0284 65.2575 51.2054 65.5215 51.4283 65.7435C51.6513 65.9656 51.916 66.1414 52.2071 66.2609C52.4982 66.3805 52.8101 66.4413 53.1248 66.44H57.6048C58.2413 66.4383 58.8517 66.187 59.3048 65.74C59.7479 65.3038 60.0027 64.7116 60.0148 64.09V60.87C60.2426 60.915 60.477 60.915 60.7048 60.87C65.7425 59.8123 70.651 58.213 75.3448 56.1C78.9534 54.4776 82.4363 52.589 85.7648 50.45L85.7248 50.44ZM87.2948 19.94C79.5003 12.1778 69.256 7.35755 58.3067 6.30011C47.3573 5.24268 36.3799 8.01346 27.244 14.1406C18.1081 20.2677 11.3786 29.3723 8.20158 39.9038C5.02453 50.4353 5.59639 61.7425 9.81978 71.8997C14.0432 82.057 21.6569 90.4362 31.3644 95.6103C41.0718 100.784 52.2727 102.434 63.0595 100.277C73.8463 98.1201 83.552 92.2908 90.5236 83.7818C97.4952 75.2729 101.302 64.6103 101.295 53.61C101.294 47.3523 100.056 41.1565 97.6537 35.3784C95.2511 29.6003 91.7308 24.3537 87.2948 19.94Z" fill="#1B39CA"/>
</svg>
