<svg  width="100%" viewBox="0 0 27 24" fill="none" xmlns="http://www.w3.org/2000/svg">
<g clip-path="url(#clip0)">
<path d="M24.7852 8.4375H17.3684C17.3918 8.20624 17.4046 7.97205 17.4046 7.73529C17.4046 3.47003 13.5006 0 8.7022 0C7.17373 0 5.67018 0.357422 4.35409 1.03345C4.10195 1.1629 4.01564 1.44965 4.16128 1.67377C4.30712 1.89807 4.62971 1.97461 4.88184 1.84515C6.03767 1.25134 7.35871 0.9375 8.7022 0.9375C12.9191 0.9375 16.3499 3.98694 16.3499 7.73529C16.3499 11.4836 12.9191 14.5333 8.7022 14.5333C6.93704 14.5333 5.27879 14.0134 3.90667 13.0302C3.76907 12.9316 3.58676 12.9022 3.42073 12.9474L2.021 13.2728L2.56936 12.2016C2.64825 12.0478 2.62766 11.8683 2.5158 11.7316C1.55999 10.5646 1.05469 9.18274 1.05469 7.73529C1.05469 6.53796 1.40961 5.36078 2.08115 4.33118C2.2272 4.10706 2.1413 3.82031 1.88937 3.69049C1.63744 3.56067 1.31486 3.63684 1.1686 3.86096C0.40416 5.0332 0 6.37299 0 7.73529C0 9.28967 0.512306 10.7781 1.4846 12.0571L0.601707 13.7814C0.51725 13.946 0.547119 14.139 0.678131 14.2775C0.809143 14.4159 1.01802 14.4749 1.21495 14.4291L3.4576 13.908C4.96095 14.9174 6.81262 15.4708 8.7022 15.4708C9.11357 15.4708 9.51794 15.4446 9.91406 15.3953V19.5C9.91406 20.5854 10.9076 21.4688 12.1287 21.4688H19.5871L22.9219 23.894C23.0179 23.9639 23.1364 23.9998 23.2559 23.9998C23.3327 23.9998 23.4097 23.985 23.4816 23.9548C23.6658 23.8771 23.7832 23.7123 23.7832 23.5311V21.4688H24.7852C26.0065 21.4688 27 20.5854 27 19.5V10.4062C27 9.32062 26.0065 8.4375 24.7852 8.4375ZM25.9453 19.5C25.9453 20.0685 25.425 20.5312 24.7852 20.5312H23.2559C22.9646 20.5312 22.7285 20.7411 22.7285 21V22.5419L20.1239 20.6477C19.9804 20.5312 19.8547 20.5312 19.5723 20.5312H12.1287C11.4891 20.5312 10.9688 20.0685 10.9688 19.5V15.204C14.0881 14.4553 16.5184 12.2005 17.2071 9.375H24.7852C25.425 9.375 25.9453 9.83752 25.9453 10.4062V19.5Z" fill="black"/>
<path d="M21.0814 16.3409C21.2602 16.2661 21.3842 16.1047 21.3842 15.9172C21.3842 15.6585 21.1481 15.4485 20.8568 15.4485H20.641L18.9403 12.0032C18.856 11.8327 18.6665 11.7227 18.4572 11.7227C18.2479 11.7227 18.0584 11.8327 17.9744 12.0032L16.2737 15.4485H16.0578C15.7665 15.4485 15.5305 15.6585 15.5305 15.9172C15.5305 16.1047 15.6545 16.2661 15.8333 16.3409L15.1998 17.6241C15.0828 17.8613 15.2042 18.1378 15.4707 18.2418C15.7375 18.3458 16.0485 18.2379 16.1655 18.0008L16.9627 16.386H19.9519L20.7491 18.0008C20.8358 18.1766 21.0293 18.2813 21.2324 18.2813C21.303 18.2813 21.3749 18.2687 21.4439 18.2418C21.7105 18.1378 21.832 17.8613 21.7148 17.6241L21.0814 16.3409ZM17.4254 15.4485L18.4572 13.3582L19.489 15.4485H17.4254Z" fill="#0064FF"/>
<path d="M2.92188 3.06567C3.06051 3.06567 3.19646 3.0155 3.29472 2.92834C3.39278 2.84119 3.44922 2.72034 3.44922 2.59692C3.44922 2.47369 3.39278 2.35284 3.29472 2.2655C3.19646 2.17834 3.06051 2.12817 2.92188 2.12817C2.78262 2.12817 2.64708 2.17834 2.54903 2.2655C2.45097 2.35284 2.39453 2.47369 2.39453 2.59692C2.39453 2.72034 2.45097 2.84119 2.54903 2.92834C2.64708 3.01569 2.78304 3.06567 2.92188 3.06567Z" fill="black"/>
<path d="M5.55423 10.5881C5.2988 10.7126 5.20527 10.9976 5.34535 11.2246C5.44134 11.3801 5.622 11.4681 5.80822 11.4681C5.89391 11.4681 5.98084 11.4495 6.06138 11.4103C7.2374 10.837 8.14213 9.94525 8.67132 8.89368C9.20073 9.94525 10.1052 10.837 11.2813 11.4103C11.3618 11.4495 11.4487 11.4681 11.5344 11.4681C11.7206 11.4681 11.9013 11.3801 11.9973 11.2246C12.1374 10.9976 12.0439 10.7126 11.7884 10.5881C10.4118 9.91705 9.48521 8.71771 9.25511 7.36255H11.5964C11.8877 7.36255 12.1238 7.15271 12.1238 6.8938C12.1238 6.63489 11.8877 6.42505 11.5964 6.42505H9.19867V4.47168C9.19867 4.21277 8.9626 4.00293 8.67132 4.00293C8.38005 4.00293 8.14398 4.21277 8.14398 4.47168V6.42505H6.23895C5.94768 6.42505 5.71161 6.63489 5.71161 6.8938C5.71161 7.15271 5.94768 7.36255 6.23895 7.36255H8.08754C7.85744 8.71771 6.93088 9.91724 5.55423 10.5881Z" fill="#0064FF"/>
</g>
<defs>
<clipPath id="clip0">
<rect width="27" height="24" fill="white"/>
</clipPath>
</defs>
</svg>
