<svg width="123" height="95" viewBox="0 0 123 95" fill="none" xmlns="http://www.w3.org/2000/svg">
<g clip-path="url(#clip0)">
<path fill-rule="evenodd" clip-rule="evenodd" d="M3.12 0H104.28C105.108 -4.22783e-06 105.903 0.32839 106.49 0.913217C107.076 1.49805 107.407 2.29161 107.41 3.12V11.12H100.78V8.64C100.78 8.27586 100.708 7.91532 100.568 7.57915C100.428 7.24298 100.223 6.93783 99.9646 6.68128C99.7061 6.42473 99.3995 6.22185 99.0623 6.08432C98.7252 5.9468 98.3641 5.87736 98 5.88H9.4C8.668 5.88 7.96599 6.17078 7.44839 6.68839C6.93078 7.20599 6.64 7.908 6.64 8.64V61.19C6.63471 61.5563 6.70212 61.92 6.83833 62.26C6.97453 62.6001 7.17684 62.9097 7.43352 63.171C7.69021 63.4324 7.99618 63.6402 8.33373 63.7825C8.67127 63.9248 9.03369 63.9987 9.4 64H77.31V77H3.12C2.29161 76.9974 1.49805 76.6664 0.913217 76.0797C0.32839 75.493 -4.22783e-06 74.6984 0 73.87L0 3.12C0 2.29252 0.328713 1.49894 0.913827 0.913827C1.49894 0.328713 2.29252 0 3.12 0V0ZM90.52 21.33H119C120.036 21.3326 121.029 21.7454 121.762 22.4781C122.495 23.2108 122.907 24.2038 122.91 25.24V82.38C122.907 83.4162 122.495 84.4092 121.762 85.1419C121.029 85.8746 120.036 86.2874 119 86.29H90.52C89.4838 86.2874 88.4908 85.8746 87.7581 85.1419C87.0254 84.4092 86.6126 83.4162 86.61 82.38V25.23C86.6153 24.1956 87.0292 23.2051 87.7616 22.4746C88.4941 21.744 89.4855 21.3326 90.52 21.33ZM114.35 37.5H117.18V39.12H114.35V37.5ZM104.74 70.11C105.581 70.11 106.402 70.3593 107.101 70.8263C107.8 71.2933 108.345 71.957 108.666 72.7336C108.988 73.5102 109.072 74.3647 108.908 75.1891C108.744 76.0135 108.34 76.7708 107.745 77.3652C107.151 77.9596 106.394 78.3643 105.569 78.5283C104.745 78.6923 103.89 78.6082 103.114 78.2865C102.337 77.9648 101.673 77.4201 101.206 76.7212C100.739 76.0223 100.49 75.2006 100.49 74.36C100.49 73.2328 100.938 72.1518 101.735 71.3548C102.532 70.5578 103.613 70.11 104.74 70.11ZM91.9 33.8H117.59C117.805 33.8 118.011 33.8853 118.163 34.0372C118.315 34.1891 118.4 34.3952 118.4 34.61V39C118.4 39.2148 118.315 39.4209 118.163 39.5728C118.011 39.7247 117.805 39.81 117.59 39.81H91.9C91.6852 39.81 91.4791 39.7247 91.3272 39.5728C91.1753 39.4209 91.09 39.2148 91.09 39V34.61C91.09 34.3952 91.1753 34.1891 91.3272 34.0372C91.4791 33.8853 91.6852 33.8 91.9 33.8ZM67.9 81.31C67.97 86.21 70 90.61 75.47 94.06H33.22C37.6 90.89 39.55 87.06 39.53 81.31H67.9ZM53.71 66.47C54.5011 66.47 55.2745 66.7046 55.9323 67.1441C56.5901 67.5836 57.1028 68.2084 57.4055 68.9393C57.7083 69.6702 57.7875 70.4744 57.6331 71.2504C57.4788 72.0263 57.0978 72.739 56.5384 73.2984C55.979 73.8578 55.2663 74.2388 54.4904 74.3931C53.7144 74.5475 52.9102 74.4683 52.1793 74.1655C51.4484 73.8628 50.8236 73.3501 50.3841 72.6923C49.9446 72.0345 49.71 71.2611 49.71 70.47C49.71 69.4091 50.1314 68.3917 50.8816 67.6416C51.6317 66.8914 52.6491 66.47 53.71 66.47Z" fill="#1B39CA"/>
</g>
<defs>
<clipPath id="clip0">
<rect width="122.89" height="94.06" fill="white"/>
</clipPath>
</defs>
</svg>
