<svg width="100" height="123" viewBox="0 0 100 123" fill="none" xmlns="http://www.w3.org/2000/svg">
<g clip-path="url(#clip0)">
<path fill-rule="evenodd" clip-rule="evenodd" d="M14.3694 104.36H0L0.059448 106.23C0.0688801 109.725 0.819084 113.162 2.24204 116.23C3.8079 119.313 6.26532 121.628 9.16348 122.75L9.68153 122.86H91.1253L90.879 122.56C92.8804 122.3 94.7834 121.401 96.3822 119.96C98.7091 117.72 100.025 114.06 99.7792 108.11L100 -0.00010819H26.7516C18.0722 -0.430108 14.2081 5.30989 14.3779 14.3899V104.39L14.3694 104.36ZM83.2272 58.5199H73.6306V56.7299C73.7006 55.4734 73.5886 54.2121 73.2994 52.9999C73.1705 52.6944 72.9635 52.4443 72.7076 52.2846C72.4516 52.1249 72.1596 52.0638 71.8726 52.1099C71.6162 52.0928 71.3604 52.1537 71.1299 52.2868C70.8993 52.4199 70.7018 52.6207 70.5563 52.8699C70.2249 53.5672 70.0715 54.3624 70.1146 55.1599C70.0565 55.7924 70.1062 56.4322 70.2608 57.0418C70.4154 57.6514 70.6717 58.2185 71.0149 58.7099C72.6433 60.2024 74.3796 61.5241 76.2038 62.6599C77.9482 63.7786 79.6176 65.0523 81.1974 66.4699C82.1738 67.5025 82.9401 68.7808 83.4395 70.2099C84.095 72.1134 84.4074 74.1567 84.3567 76.2099C84.3567 80.0499 83.5329 83.0699 81.8853 85.2699C80.2378 87.4599 77.7495 88.8099 74.4543 89.3299V93.3299H70.0127V89.2499C67.5252 89.0069 65.1673 87.8409 63.2781 85.9199C61.3588 83.9732 60.3992 80.6032 60.3992 75.8099V73.6899H70.0127V76.3299C69.9335 78.1374 70.0333 79.9496 70.31 81.7299C70.417 82.0639 70.6175 82.3449 70.8784 82.5267C71.1394 82.7085 71.4451 82.7802 71.7452 82.7299C72.0194 82.7558 72.2948 82.7028 72.5478 82.5757C72.8007 82.4485 73.0237 82.2509 73.1974 81.9999C73.5503 81.352 73.7171 80.5878 73.673 79.8199C73.7407 78.0726 73.5861 76.3233 73.2144 74.6299C72.92 73.5899 71.8896 72.4532 70.1231 71.2199C68.0762 69.8214 66.0919 68.2994 64.1783 66.6599C63.0139 65.5593 62.0664 64.174 61.4013 62.5999C60.6084 60.7399 60.212 58.6806 60.2463 56.5999C60.1783 55.2028 60.3602 53.8045 60.78 52.4953C61.1999 51.1862 61.8484 49.9954 62.6836 48.9999C64.3142 47.1599 66.7544 46.0266 70.0042 45.5999V42.1899H74.4459V45.6399C77.4183 46.0699 79.6348 47.1799 81.1125 48.9899C82.6618 51.0443 83.4586 53.7366 83.3291 56.4799C83.3291 57.1478 83.3007 57.8153 83.2442 58.4799L83.2272 58.5199ZM29.4098 64.2699C29.0021 64.2699 28.6111 64.0792 28.3228 63.7398C28.0346 63.4003 27.8726 62.9399 27.8726 62.4599C27.8726 61.9799 28.0346 61.5195 28.3228 61.18C28.6111 60.8406 29.0021 60.6499 29.4098 60.6499H45.758C46.1656 60.6499 46.5566 60.8406 46.8449 61.18C47.1332 61.5195 47.2951 61.9799 47.2951 62.4599C47.2951 62.9399 47.1332 63.4003 46.8449 63.7398C46.5566 64.0792 46.1656 64.2699 45.758 64.2699H29.4098ZM29.4098 27.2699C29.0043 27.2699 28.6155 27.0802 28.3288 26.7427C28.0422 26.4051 27.8811 25.9473 27.8811 25.4699C27.8811 24.9925 28.0422 24.5347 28.3288 24.1971C28.6155 23.8595 29.0043 23.6699 29.4098 23.6699H83.6603C84.0657 23.6699 84.4545 23.8595 84.7412 24.1971C85.0279 24.5347 85.189 24.9925 85.189 25.4699C85.189 25.9473 85.0279 26.4051 84.7412 26.7427C84.4545 27.0802 84.0657 27.2699 83.6603 27.2699H29.4098ZM29.4098 45.7499C29.0043 45.7499 28.6155 45.5603 28.3288 45.2227C28.0422 44.8851 27.8811 44.4273 27.8811 43.9499C27.8811 43.4725 28.0422 43.0147 28.3288 42.6771C28.6155 42.3395 29.0043 42.1499 29.4098 42.1499H54.4883C54.8937 42.1499 55.2826 42.3395 55.5692 42.6771C55.8559 43.0147 56.017 43.4725 56.017 43.9499C56.017 44.4273 55.8559 44.8851 55.5692 45.2227C55.2826 45.5603 54.8937 45.7499 54.4883 45.7499H29.4098ZM82.5648 114.14C82.8532 115.948 83.4295 117.675 84.2633 119.23H9.93631C7.80966 118.362 6.00732 116.646 4.84076 114.38C3.92898 112.41 3.37922 110.236 3.22718 108H82.6752C82.2868 110.037 82.2493 112.145 82.5648 114.2V114.14ZM88.1359 119.21C86.8487 117.61 85.9663 115.618 85.5881 113.46C85.2807 111.181 85.4707 108.848 86.1401 106.68L86.7941 104.32H17.4352V14.3199C17.4352 7.24989 19.8641 2.99989 26.5223 3.59989H96.7473V108.18C96.9257 112.87 96.034 115.62 94.4374 117.18C92.8408 118.74 90.7176 119.18 88.1274 119.27L88.1359 119.21Z" fill="#1B39CA"/>
</g>
<defs>
<clipPath id="clip0">
<rect width="100" height="122.87" fill="white"/>
</clipPath>
</defs>
</svg>
