<svg xmlns="http://www.w3.org/2000/svg" viewBox="0 0 114.6 123"><defs><style>.cls-1{fill-rule:evenodd;}</style></defs><title>Asset 1</title><g id="Layer_2" data-name="Layer 2"><g id="Layer_1-2" data-name="Layer 1"><path class="cls-1" d="M105.4,76.3l3.8,3.8a2.54,2.54,0,0,1,0,3.6l-3.1,3.1a22.29,22.29,0,0,1,1.9,5.1h4a2.65,2.65,0,0,1,2.6,2.6v5.4a2.65,2.65,0,0,1-2.6,2.6h-4.3a21.61,21.61,0,0,1-2.2,4.9l2.8,2.8a2.53,2.53,0,0,1,0,3.6l-3.8,3.8a2.53,2.53,0,0,1-3.6,0l-3.1-3.1a22.29,22.29,0,0,1-5.1,1.9v4a2.65,2.65,0,0,1-2.6,2.6H84.7a2.65,2.65,0,0,1-2.6-2.6V116a21.61,21.61,0,0,1-4.9-2.2l-2.8,2.8a2.53,2.53,0,0,1-3.6,0L67,112.8a2.54,2.54,0,0,1,0-3.6l3.1-3.1a22.29,22.29,0,0,1-1.9-5.1h-4a2.65,2.65,0,0,1-2.6-2.6V93a2.65,2.65,0,0,1,2.6-2.6h4.3a21.61,21.61,0,0,1,2.2-4.9L68,82.8a2.54,2.54,0,0,1,0-3.6l3.8-3.8a2.54,2.54,0,0,1,3.6,0l3.1,3.1a22.29,22.29,0,0,1,5.1-1.9v-4A2.65,2.65,0,0,1,86.2,70h5.4a2.65,2.65,0,0,1,2.6,2.6v4.3a21.61,21.61,0,0,1,4.9,2.2l2.8-2.8a2.41,2.41,0,0,1,3.5,0Zm-64,5.9a2.81,2.81,0,0,1-2.5-3,2.74,2.74,0,0,1,2.5-3H53.8a2.81,2.81,0,0,1,2.5,3,2.74,2.74,0,0,1-2.5,3Zm3.7,30.1a3,3,0,1,1,0,6H7.1a7.12,7.12,0,0,1-5-2.1,6.94,6.94,0,0,1-2.1-5V7.1a6.94,6.94,0,0,1,2.1-5A6.94,6.94,0,0,1,7.1,0H93.8a7.12,7.12,0,0,1,5,2.1,6.94,6.94,0,0,1,2.1,5V55.4a3,3,0,1,1-6,0V7.1a1,1,0,0,0-1-1H7.1a.91.91,0,0,0-.7.3.78.78,0,0,0-.3.7V111.4a1,1,0,0,0,1,1h38v-.1ZM18.8,74.1H29.5a.94.94,0,0,1,1,1v9.2a.94.94,0,0,1-1,1H18.8a.94.94,0,0,1-1-1V75.1a.94.94,0,0,1,1-1Zm0-52.9H29.5a.94.94,0,0,1,1,1v9.2a.94.94,0,0,1-1,1H18.8a.94.94,0,0,1-1-1V22.2a.94.94,0,0,1,1-1Zm22.6,8.1a2.81,2.81,0,0,1-2.5-3,2.74,2.74,0,0,1,2.5-3H76.1a2.81,2.81,0,0,1,2.5,3,2.74,2.74,0,0,1-2.5,3ZM21.9,57.4a1.73,1.73,0,0,1-2.3-.3l-.2-.2-3.2-3.3a1.81,1.81,0,0,1,.3-2.6,2.13,2.13,0,0,1,2.8-.1L21,52.7l5.6-4.5a1.76,1.76,0,0,1,2.5.6,2,2,0,0,1-.2,2.8l-7,5.8Zm17.8-2.6a2.81,2.81,0,0,1-2.5-3,2.74,2.74,0,0,1,2.5-3H74.4a2.81,2.81,0,0,1,2.5,3,2.74,2.74,0,0,1-2.5,3ZM88.1,85.9A10.6,10.6,0,1,1,77.5,96.5,10.61,10.61,0,0,1,88.1,85.9Z"/></g></g></svg>