<svg width="100%" xmlns="http://www.w3.org/2000/svg" viewBox="0 0 122.88 98.95"><defs><style>.cls-1{fill-rule:evenodd;}</style></defs><title>Asset 1</title><g id="Layer_2" data-name="Layer 2"><g id="Layer_1-2" data-name="Layer 1"><path class="cls-1" d="M26.76,23C22,23,16.68,22.18,12.2,24v-.12a14.36,14.36,0,0,0-3,1.86l0,0a18.13,18.13,0,0,0-2.59,2.53h0l-.27.33h0l-.13.16v0a3.92,3.92,0,0,0-.27.33h0l-.11.15,0,0h0l-.11.15,0,.05-.1.14v0l-.12.16,0,0L5.23,30l0,0a1.3,1.3,0,0,0-.1.15h0l0,0L5,30.34l0,.06-.11.16h0c0,.05-.07.11-.11.17l0,0-.09.14,0,0-.1.17,0,.05-.07.12,0,.07a1.4,1.4,0,0,1-.1.16l0,0-.08.14,0,.06L4,31.93H4l-.1.18,0,0-.08.15,0,0-.11.17,0,.07-.07.14,0,0L3.49,33l0,0-.07.14,0,0-.09.19A25.4,25.4,0,0,0,.85,43.5,75.77,75.77,0,0,0,0,55a2.56,2.56,0,0,0,.05.27h0l.06.25h0l.06.23v0A1.87,1.87,0,0,0,.25,56v0c0,.07,0,.13.07.2v0a1.42,1.42,0,0,0,.08.18l0,0,.08.17c1.69,3.32,6.41,2.42,8-.28v0a.31.31,0,0,0,0-.1.36.36,0,0,0,0-.09l0-.07.05-.11,0-.05.06-.14v0a.75.75,0,0,0,0-.16h0a1.21,1.21,0,0,0,.05-.18h0a1.16,1.16,0,0,0,0-.18H9L9,55l.91-11.84a13.22,13.22,0,0,1,1-4.7,7.86,7.86,0,0,1,1.23-2l.07,3.17h0L12.58,58,6.64,93.54c.07,7,9.44,6.92,10.46,1.18L22.48,63l5.26,31.21c2.21,7.79,11.33,4.88,10.46-1L36.64,81.26,32.54,57.8l.32-18.62V39l4,5.58a5,5,0,0,0,3.23,2l9.51,1.83V63.73H41.41a1.91,1.91,0,0,0,0,3.82H79.85v8.54a1.9,1.9,0,0,0-.64.4h0L67.26,87.8a1.9,1.9,0,1,0,2.61,2.75l9.95-9.44v8.61a1.91,1.91,0,1,0,3.82,0V81.48l9.58,9.08a1.9,1.9,0,1,0,2.61-2.75L83.91,76.48l-.27-.2V67.54H121a1.91,1.91,0,0,0,0-3.82h-8.34V16.49h8.14a1.91,1.91,0,1,0,0-3.82H83.37V7.11a1.91,1.91,0,0,0-3.82,0v5.56H41.42a1.91,1.91,0,0,0,0,3.82h8.24V38.23l-5.78-1.11-8.1-11.19A5,5,0,0,0,32.85,24a16.76,16.76,0,0,0-6.09-1Zm28,16.25L66.36,27a1.24,1.24,0,0,1,1.79,1.71L57,40.44a5,5,0,0,1-3.49,8.67V63.74h55.37V16.49H53.47V39l1,.19.27.05ZM22.49,0A10.62,10.62,0,1,1,11.87,10.62,10.62,10.62,0,0,1,22.49,0Z"/></g></g></svg>