<svg width="100%" viewBox="0 0 39 29" fill="none" xmlns="http://www.w3.org/2000/svg">
<path d="M0.585938 26.487V28.1337H33.6604L37.948 22.4181V20.4441L0.585938 26.487Z" fill="white"/>
<path d="M33.6612 28.197H0.586761C0.570745 28.197 0.555384 28.1904 0.544059 28.1785C0.532734 28.1666 0.526372 28.1506 0.526372 28.1338V26.4871C0.526195 26.472 0.531253 26.4572 0.540617 26.4456C0.549982 26.434 0.563028 26.4263 0.577367 26.4239L37.9394 20.3825C37.9483 20.3812 37.9573 20.3818 37.9659 20.3845C37.9745 20.3872 37.9824 20.3918 37.9891 20.398C37.9958 20.4038 38.0012 20.4111 38.0049 20.4193C38.0087 20.4276 38.0106 20.4366 38.0106 20.4457V22.4197C38.0108 22.4341 38.006 22.4481 37.9971 22.4591L33.7095 28.1745C33.7036 28.1818 33.6961 28.1876 33.6878 28.1915C33.6794 28.1953 33.6703 28.1972 33.6612 28.197ZM0.648492 28.0692H33.633L37.8898 22.3958V20.5202L0.648492 26.5419V28.0692Z" fill="#231F20"/>
<path d="M7.61507 11.2344C7.36208 11.243 7.11112 11.1843 6.88561 11.064C6.6601 10.9436 6.46739 10.7654 6.32543 10.5459C6.14161 10.2166 6.02636 9.85034 5.98725 9.47112C5.85976 8.61547 5.74167 7.77528 5.86379 6.91542C5.88823 6.67012 5.95651 6.43181 6.06509 6.21292C6.11975 6.10317 6.19781 6.00807 6.29323 5.93497C6.38864 5.86188 6.49884 5.81276 6.6153 5.79142C6.70762 5.42944 6.92652 5.11702 7.22858 4.91611C7.68176 4.59573 8.23559 4.4709 8.77454 4.56767C8.6642 4.56856 8.55584 4.53691 8.46186 4.47635C8.41593 4.44489 8.38315 4.3963 8.37019 4.34046C8.35723 4.28461 8.36506 4.2257 8.39208 4.17568C8.45784 4.08295 8.58801 4.08716 8.69671 4.10402C9.25778 4.18955 9.79699 4.3911 10.2829 4.69693C10.2534 4.4904 10.4695 4.31758 10.6694 4.3232C10.8695 4.34948 11.057 4.43976 11.2062 4.58172C11.4882 4.78299 11.7287 5.04146 11.9134 5.34183C12.1174 5.71415 12.0879 6.29582 11.943 6.68781C11.9032 6.81557 11.8244 6.92613 11.7188 7.00253C11.641 7.06295 11.5363 7.08543 11.4598 7.14303C11.3042 7.25824 11.3458 7.1894 11.2787 7.39453C11.1337 7.8371 11.0559 8.2572 10.8305 8.67308C10.6069 9.07012 10.351 9.44619 10.0655 9.79708C9.64529 10.3488 9.10131 10.7832 8.48199 11.0616C8.20652 11.1777 7.91204 11.2364 7.61507 11.2344Z" fill="white"/>
<path d="M7.6314 11.3048H7.61396C7.35032 11.3132 7.08896 11.2514 6.85429 11.1254C6.61961 10.9994 6.41927 10.8131 6.27198 10.584C6.08279 10.2462 5.96388 9.87036 5.92306 9.48109C5.80497 8.6971 5.67077 7.80773 5.7996 6.90572C5.82472 6.65071 5.89527 6.4029 6.00761 6.17511C6.06446 6.06362 6.14326 5.96602 6.2388 5.88876C6.33434 5.8115 6.44444 5.75634 6.56184 5.72691C6.66612 5.36708 6.88983 5.05813 7.19258 4.85581C7.53805 4.61295 7.94155 4.47619 8.35742 4.461C8.32796 4.41937 8.30779 4.37136 8.29837 4.3205C8.29335 4.28847 8.29445 4.25571 8.30159 4.22412C8.30873 4.19253 8.32177 4.16273 8.33997 4.13645C8.43928 3.99595 8.64057 4.02686 8.70767 4.03669C9.24099 4.12036 9.75503 4.30611 10.2241 4.58464C10.2389 4.52534 10.2675 4.47079 10.3073 4.42588C10.3532 4.37197 10.4098 4.32911 10.473 4.30024C10.5362 4.27138 10.6047 4.2572 10.6737 4.25868C10.8877 4.28506 11.0886 4.38085 11.248 4.53266C11.5387 4.7376 11.7858 5.00305 11.9741 5.31244C12.1915 5.71146 12.1552 6.32123 12.0063 6.71745C11.962 6.85656 11.8752 6.97655 11.7593 7.05886C11.7129 7.09246 11.6629 7.12028 11.6104 7.14176C11.5709 7.15715 11.5331 7.17693 11.4977 7.20077L11.4238 7.25275C11.3863 7.27804 11.3863 7.27804 11.3661 7.34127L11.342 7.41714C11.3004 7.5464 11.2628 7.67285 11.2266 7.7993C11.148 8.11484 11.035 8.41986 10.8897 8.70834C10.6633 9.10857 10.4047 9.48789 10.1168 9.84218C9.68928 10.401 9.13592 10.8398 8.50638 11.1193C8.22873 11.2392 7.9317 11.3021 7.6314 11.3048ZM8.41646 4.6015C8.00656 4.60372 7.60643 4.73277 7.26638 4.97243C6.97672 5.16284 6.76744 5.46186 6.68128 5.80841C6.67837 5.82286 6.67126 5.83601 6.66093 5.84607C6.6506 5.85613 6.63755 5.86261 6.62358 5.86461C6.51799 5.88356 6.41796 5.92761 6.33118 5.99337C6.24441 6.05914 6.17319 6.14486 6.12302 6.24396C6.01889 6.45902 5.95382 6.69247 5.93111 6.93241C5.80631 7.81195 5.93782 8.69008 6.05458 9.46142C6.09286 9.83086 6.20438 10.1878 6.38202 10.5096C6.51827 10.7187 6.70272 10.8885 6.9183 11.0032C7.13388 11.1179 7.37361 11.1738 7.6153 11.1657C7.90401 11.1649 8.1898 11.1052 8.45672 10.9901C9.0654 10.7199 9.60035 10.2955 10.0134 9.75507C10.2961 9.40669 10.5502 9.03398 10.773 8.6409C10.9126 8.36087 11.022 8.06539 11.0991 7.75996C11.1353 7.6321 11.1729 7.50425 11.2158 7.37218L11.2387 7.29912C11.2695 7.20077 11.2776 7.18531 11.3514 7.13614L11.4212 7.08696C11.4633 7.05775 11.5083 7.03326 11.5554 7.0139C11.5982 6.99646 11.6391 6.97433 11.6775 6.94787C11.7729 6.88057 11.8438 6.78157 11.8788 6.66686C12.013 6.30016 12.0506 5.74096 11.8546 5.38128C11.6751 5.08839 11.4404 4.83691 11.1648 4.64225C11.0263 4.50993 10.8527 4.42469 10.667 4.39778C10.6166 4.39595 10.5665 4.4057 10.5201 4.42633C10.4737 4.44696 10.4323 4.47798 10.3986 4.5172C10.3776 4.54018 10.3617 4.56768 10.352 4.59778C10.3422 4.62788 10.3389 4.65984 10.3422 4.69142C10.3446 4.70469 10.3432 4.71839 10.3382 4.73082C10.3332 4.74325 10.3248 4.75387 10.314 4.76135C10.3033 4.76884 10.2907 4.77286 10.2778 4.77292C10.265 4.77297 10.2523 4.76906 10.2416 4.76168C9.7629 4.4601 9.23205 4.26051 8.67949 4.17438C8.55335 4.15471 8.47417 4.17438 8.43928 4.21934C8.42431 4.24237 8.41854 4.2706 8.42317 4.29802C8.4314 4.3474 8.45732 4.39162 8.49564 4.42166C8.52988 4.44725 8.56867 4.4654 8.60971 4.47505C8.66607 4.47505 8.72378 4.4891 8.78014 4.50034C8.79794 4.50277 8.81408 4.51249 8.82503 4.52738C8.83598 4.54226 8.84083 4.56109 8.83852 4.57973C8.8362 4.59836 8.82692 4.61526 8.8127 4.62673C8.79848 4.63819 8.78049 4.64327 8.76269 4.64084C8.70405 4.63666 8.64576 4.62821 8.58824 4.61555C8.53858 4.60431 8.47685 4.6015 8.41646 4.6015Z" fill="#231F20"/>
<path d="M11.6544 8.70117C11.6544 8.70117 12.4368 9.90523 12.2811 10.1595C12.1254 10.4138 11.5967 10.2537 11.5967 10.2537" fill="white"/>
<path d="M11.9299 10.3731C11.811 10.3716 11.6929 10.3542 11.5783 10.3211C11.5614 10.3156 11.5472 10.3035 11.5387 10.2872C11.5302 10.271 11.528 10.2519 11.5327 10.234C11.535 10.2251 11.539 10.2167 11.5444 10.2094C11.5499 10.2021 11.5568 10.196 11.5645 10.1916C11.5723 10.1871 11.5809 10.1843 11.5897 10.1834C11.5985 10.1825 11.6074 10.1835 11.6159 10.1863C11.7501 10.2256 12.1204 10.293 12.2251 10.1216C12.307 9.98114 11.9634 9.30112 11.5998 8.74054C11.5948 8.73288 11.5914 8.72428 11.5896 8.71523C11.5879 8.70618 11.5878 8.69685 11.5895 8.68778C11.5912 8.67872 11.5945 8.67009 11.5994 8.66238C11.6043 8.65468 11.6106 8.64806 11.6179 8.64289C11.6252 8.63772 11.6334 8.63412 11.642 8.63227C11.6507 8.63043 11.6596 8.63039 11.6683 8.63215C11.6769 8.63391 11.6852 8.63744 11.6925 8.64254C11.6999 8.64764 11.7062 8.6542 11.7111 8.66186C11.9004 8.95269 12.5056 9.92634 12.3379 10.1975C12.2892 10.26 12.2264 10.3088 12.1551 10.3395C12.0839 10.3701 12.0065 10.3817 11.9299 10.3731Z" fill="#231F20"/>
<path d="M11.4721 7.0979C11.9646 7.50816 11.8344 8.39192 11.8371 8.96516C11.8371 9.77351 11.8237 10.5805 11.7969 11.386C11.7767 11.8974 10.5126 11.9255 10.2871 11.7752L10.5247 13.124L7.61523 12.7952V11.2343C7.61523 11.2343 8.78813 11.0853 9.2699 10.0358C9.75167 8.98624 9.73288 7.02906 9.73288 7.02906C9.73288 7.02906 10.9903 6.69747 11.4721 7.0979Z" fill="white"/>
<path d="M10.5244 13.1945H10.5177L7.60692 12.8643C7.59067 12.8626 7.57562 12.8545 7.5647 12.8418C7.55379 12.8291 7.54779 12.8126 7.54787 12.7955V11.2345C7.54745 11.2172 7.5533 11.2003 7.56424 11.1873C7.57519 11.1742 7.59043 11.166 7.60692 11.1643C7.61766 11.1643 8.74895 11.0069 9.20924 10.0065C9.66954 9.00619 9.66552 7.05606 9.66552 7.03077C9.66513 7.0149 9.67 6.99938 9.67929 6.98683C9.68859 6.97428 9.70173 6.96549 9.71651 6.96193C9.76885 6.94788 11.0115 6.62613 11.5134 7.04342C11.9496 7.4059 11.9281 8.09857 11.916 8.65494C11.916 8.76453 11.916 8.86991 11.916 8.96545C11.916 9.77051 11.9066 10.5854 11.8758 11.3891C11.868 11.4701 11.8387 11.5472 11.7913 11.6118C11.7439 11.6763 11.6802 11.7257 11.6074 11.7544C11.2759 11.937 10.668 11.9581 10.3821 11.8836L10.5915 13.1144C10.593 13.1252 10.5922 13.1362 10.5892 13.1466C10.5862 13.1571 10.581 13.1667 10.574 13.1748C10.5674 13.1814 10.5596 13.1865 10.5511 13.1899C10.5426 13.1933 10.5335 13.1948 10.5244 13.1945ZM7.68207 12.7322L10.4425 13.0441L10.2211 11.7881C10.2185 11.7748 10.2198 11.7609 10.2248 11.7484C10.2298 11.7358 10.2384 11.7252 10.2493 11.7178C10.2604 11.7106 10.2731 11.7068 10.2862 11.7068C10.2992 11.7068 10.312 11.7106 10.3231 11.7178C10.468 11.8148 11.1779 11.8288 11.5309 11.6307C11.6543 11.5633 11.7187 11.4804 11.7228 11.3848C11.7536 10.584 11.7671 9.77051 11.763 8.96825C11.763 8.86991 11.763 8.76313 11.763 8.65073C11.7791 8.12667 11.7993 7.47334 11.4155 7.15441C11.0129 6.82424 10.0225 7.03218 9.7863 7.08697C9.7863 7.42136 9.75812 9.10454 9.3166 10.0684C8.87509 11.0322 7.91826 11.25 7.66865 11.2963L7.68207 12.7322Z" fill="#231F20"/>
<path d="M10.1837 9.23778C10.1599 9.03604 10.0827 8.84528 9.96091 8.68702C9.88434 8.55207 9.78889 8.42989 9.67775 8.32454C9.62137 8.27258 9.55473 8.23431 9.48258 8.21245C9.41043 8.19059 9.33456 8.18569 9.2604 8.19809C9.19628 8.21615 9.1365 8.24812 9.08495 8.29193C9.03339 8.33574 8.99121 8.39041 8.96114 8.45239C8.90322 8.57781 8.87208 8.71493 8.86988 8.85422C8.8612 9.15782 8.92891 9.45847 9.06623 9.72603C9.20355 9.99359 9.40565 10.2186 9.65225 10.3786L9.60931 10.3309" fill="white"/>
<path d="M9.65139 10.4447C9.63831 10.4492 9.6242 10.4492 9.61113 10.4447C9.35489 10.2774 9.1449 10.0429 9.002 9.76438C8.8591 9.48586 8.78828 9.17306 8.79655 8.85702C8.79853 8.70729 8.83246 8.55992 8.89585 8.42568C8.93013 8.35446 8.97849 8.29169 9.03772 8.24154C9.09696 8.1914 9.16571 8.15503 9.2394 8.13484C9.32337 8.11921 9.40963 8.12374 9.49169 8.14807C9.57375 8.17241 9.64946 8.21593 9.71312 8.27535C9.83035 8.38458 9.93084 8.51206 10.011 8.6533C10.1399 8.82228 10.2208 9.02578 10.2445 9.2406C10.2449 9.25899 10.2384 9.2768 10.2263 9.2902C10.2143 9.3036 10.1977 9.31152 10.1801 9.31225C10.1625 9.31231 10.1455 9.30538 10.1326 9.29288C10.1196 9.28037 10.1117 9.2632 10.1103 9.24481C10.0855 9.05671 10.0127 8.87908 9.89965 8.73057C9.82711 8.60161 9.73665 8.48465 9.63126 8.38353C9.58308 8.33795 9.5258 8.3042 9.46357 8.28476C9.40135 8.26531 9.33577 8.26065 9.27161 8.27113C9.21673 8.28674 9.16564 8.31434 9.12169 8.35212C9.07774 8.3899 9.04194 8.437 9.01663 8.49031C8.96288 8.60593 8.93446 8.73266 8.93343 8.86124C8.92726 9.13498 8.98518 9.40615 9.10215 9.65106C9.21911 9.89597 9.39155 10.1072 9.60442 10.2663C9.61452 10.2651 9.62475 10.2664 9.6343 10.27C9.64384 10.2737 9.65245 10.2796 9.65944 10.2873L9.70238 10.3351C9.71304 10.3477 9.71893 10.3639 9.71893 10.3808C9.71893 10.3976 9.71304 10.4138 9.70238 10.4264C9.69565 10.4332 9.6876 10.4383 9.6788 10.4414C9.67 10.4446 9.66065 10.4457 9.65139 10.4447Z" fill="#231F20"/>
<path d="M11.4384 8.3649C11.4983 8.36068 11.5385 8.22861 11.5283 8.06991C11.5181 7.91122 11.4613 7.78599 11.4014 7.79021C11.3415 7.79443 11.3012 7.9265 11.3114 8.0852C11.3216 8.24389 11.3785 8.36912 11.4384 8.3649Z" fill="#231F20"/>
<path d="M6.97949 13.3951L7.18481 12.2908L10.9236 12.5296L11.1584 13.3263C11.1584 13.3263 9.10518 14.4391 6.97949 13.3951Z" fill="white"/>
<path d="M8.92061 13.9107C8.24103 13.9148 7.56892 13.7622 6.95192 13.4639C6.9383 13.4573 6.9272 13.4461 6.92039 13.4321C6.91358 13.4181 6.91145 13.4021 6.91435 13.3867L7.11967 12.2809C7.12232 12.264 7.131 12.2488 7.14396 12.2384C7.15692 12.2279 7.17318 12.223 7.18945 12.2247L10.9282 12.4635C10.9419 12.4641 10.9551 12.4692 10.966 12.478C10.9768 12.4868 10.9847 12.4989 10.9886 12.5127L11.2221 13.3108C11.227 13.3265 11.2262 13.3436 11.2201 13.3588C11.2139 13.374 11.2027 13.3864 11.1886 13.3937C10.4763 13.7329 9.70311 13.9092 8.92061 13.9107ZM7.06197 13.3586C8.94074 14.2452 10.7605 13.4499 11.0879 13.2939L10.8853 12.5998L7.25119 12.368L7.06197 13.3586Z" fill="#231F20"/>
<path d="M11.8164 10.748C11.8164 10.748 11.607 11.1697 10.9521 10.748H11.8164Z" fill="white"/>
<path d="M11.4676 11.0067C11.2704 10.9944 11.0801 10.9259 10.9174 10.8086C10.9047 10.7976 10.8962 10.7821 10.8935 10.7651C10.8908 10.748 10.8941 10.7305 10.9028 10.7158C10.9114 10.7011 10.9249 10.6901 10.9406 10.685C10.9564 10.6798 10.9734 10.6808 10.9885 10.6878C11.2193 10.8381 11.422 10.8943 11.5736 10.8522C11.65 10.8319 11.7158 10.7816 11.7575 10.7116C11.7657 10.6951 11.7798 10.6826 11.7968 10.6769C11.8138 10.6712 11.8322 10.6729 11.8481 10.6814C11.8639 10.69 11.8758 10.7048 11.8813 10.7226C11.8867 10.7404 11.8851 10.7597 11.8769 10.7763C11.8164 10.8786 11.7201 10.9522 11.6085 10.9814C11.5629 10.9965 11.5155 11.005 11.4676 11.0067Z" fill="#231F20"/>
<path d="M34.1146 25.3588H0.0605469L4.61791 20.1238L38.2184 19.8259L34.1146 25.3588Z" fill="white"/>
<path d="M34.1147 25.4222H0.060586C0.0488133 25.4225 0.0372316 25.419 0.0273963 25.4122C0.017561 25.4055 0.00994246 25.3957 0.00556428 25.3842C0.000526468 25.373 -0.00114386 25.3604 0.000771637 25.3481C0.00268714 25.3358 0.00809951 25.3244 0.0163004 25.3154L4.57903 20.0818C4.5845 20.0751 4.5913 20.0698 4.59895 20.0662C4.6066 20.0625 4.61492 20.0607 4.62332 20.0607L38.2238 19.7615C38.2352 19.7616 38.2463 19.7649 38.2559 19.7711C38.2656 19.7773 38.2735 19.7861 38.2788 19.7966C38.2835 19.8077 38.2853 19.8199 38.2841 19.8319C38.283 19.844 38.2788 19.8556 38.2721 19.8654L34.1697 25.3983C34.1632 25.4068 34.1547 25.4135 34.1451 25.4176C34.1355 25.4218 34.125 25.4234 34.1147 25.4222ZM0.200151 25.2943H34.0838L38.0923 19.8907L4.64613 20.1886L0.200151 25.2943Z" fill="#231F20"/>
<path d="M24.177 24.3414L26.7845 20.6646H14.6611L11.0283 24.5184L24.177 24.3414Z" fill="white"/>
<path d="M11.0291 24.5889C11.0159 24.5892 11.003 24.5853 10.992 24.5778C10.981 24.5702 10.9724 24.5594 10.9673 24.5468C10.9621 24.5339 10.9606 24.5198 10.963 24.506C10.9654 24.4923 10.9716 24.4796 10.9807 24.4695L14.6148 20.6156C14.6208 20.6088 14.6281 20.6035 14.6362 20.5998C14.6443 20.5962 14.653 20.5944 14.6618 20.5945H26.7893C26.8017 20.5945 26.8139 20.5981 26.8245 20.605C26.8351 20.6118 26.8437 20.6217 26.8493 20.6333C26.8549 20.645 26.8572 20.6581 26.8561 20.671C26.855 20.684 26.8504 20.6964 26.8429 20.7069L24.2315 24.3824C24.2254 24.3911 24.2176 24.3983 24.2085 24.4034C24.1994 24.4085 24.1894 24.4114 24.1791 24.4119L11.0277 24.5889H11.0291ZM14.69 20.735L11.1914 24.447L24.1442 24.2714L26.6551 20.735H14.69Z" fill="#231F20"/>
<path d="M25.7393 21.2451L23.9304 23.7601H12.2471L14.9793 21.3505L25.7393 21.2451Z" fill="white"/>
<path d="M23.93 23.8303H12.2468C12.2328 23.8305 12.2191 23.8262 12.2076 23.8178C12.1961 23.8095 12.1874 23.7976 12.1827 23.7839C12.1779 23.7701 12.1774 23.7551 12.1812 23.741C12.185 23.7269 12.1929 23.7144 12.2038 23.7053L14.9348 21.2957C14.9471 21.2858 14.9622 21.2804 14.9777 21.2802L25.7377 21.1749C25.7502 21.1744 25.7626 21.1777 25.7733 21.1844C25.784 21.1912 25.7926 21.201 25.7981 21.2128C25.8046 21.224 25.808 21.2369 25.808 21.25C25.808 21.2632 25.8046 21.276 25.7981 21.2873L23.9891 23.8022C23.9822 23.8117 23.9733 23.8192 23.9629 23.8241C23.9526 23.829 23.9413 23.8311 23.93 23.8303ZM12.4306 23.6898H23.8965L25.6035 21.3168L15.0019 21.4193L12.4306 23.6898Z" fill="#D1D3D4"/>
<path d="M34.1133 25.3589H0.0605469V26.4871H34.1133V25.3589Z" fill="white"/>
<path d="M34.1145 26.5516H0.0603892C0.0442508 26.5512 0.0288917 26.5442 0.0176036 26.5321C0.0063154 26.5201 -3.81304e-06 26.5038 1.72616e-09 26.4869V25.363C-3.81304e-06 25.3461 0.0063154 25.3298 0.0176036 25.3178C0.0288917 25.3057 0.0442508 25.2987 0.0603892 25.2983H34.1145C34.1306 25.2987 34.146 25.3057 34.1573 25.3178C34.1686 25.3298 34.1749 25.3461 34.1749 25.363V26.4869C34.1749 26.5038 34.1686 26.5201 34.1573 26.5321C34.146 26.5442 34.1306 26.5512 34.1145 26.5516ZM0.12212 26.4223H34.0527V25.422H0.12212V26.4223Z" fill="#231F20"/>
<path d="M20.9085 23.1375C21.3741 23.2597 21.9821 22.775 22.2276 22.4181C22.2618 22.359 22.3105 22.3104 22.3685 22.2776C22.4082 22.2636 22.4502 22.2578 22.492 22.2607C22.7567 22.2564 23.0205 22.2258 23.2797 22.1694C23.532 22.1132 23.8165 22.0036 23.9024 21.7479C23.9883 21.4922 23.8514 21.2126 23.6555 21.0454C23.21 20.6519 22.5672 20.673 21.9941 20.5634C21.7606 20.496 21.5177 20.4713 21.2762 20.4904C21.0513 20.5417 20.8544 20.6828 20.7273 20.8838C20.5873 21.0504 20.4277 21.1977 20.2522 21.3222C19.9973 21.532 19.7459 21.7446 19.498 21.9601C19.9006 22.3155 20.3032 22.8031 20.7568 23.0841C20.8048 23.109 20.8558 23.127 20.9085 23.1375Z" fill="white"/>
<path d="M21.064 23.2302C21.0056 23.2305 20.9474 23.2229 20.8909 23.2077C20.8319 23.1924 20.7754 23.1683 20.7231 23.1361C20.4134 22.9239 20.1264 22.6776 19.8669 22.4013C19.7247 22.2608 19.5985 22.1287 19.455 22.0093C19.4474 22.0027 19.4412 21.9944 19.437 21.9851C19.4328 21.9757 19.4307 21.9655 19.4307 21.9552C19.4307 21.9449 19.4328 21.9347 19.437 21.9253C19.4412 21.916 19.4474 21.9077 19.455 21.9011C19.7059 21.6834 19.9595 21.4684 20.2105 21.2633L20.3084 21.1846C20.4439 21.0859 20.5666 20.9693 20.6735 20.8376C20.8106 20.6216 21.023 20.4703 21.2653 20.4161C21.4703 20.3924 21.6778 20.4086 21.8772 20.4639L22.0114 20.4892C22.1456 20.5144 22.2892 20.5341 22.4274 20.5524C22.881 20.6114 23.3494 20.6732 23.7036 20.9865C23.913 21.1691 24.0767 21.4839 23.972 21.7733C23.8875 22.0023 23.6687 22.1526 23.301 22.2341C23.0361 22.292 22.7665 22.3231 22.4959 22.3268C22.4624 22.3242 22.4287 22.3281 22.3966 22.3381C22.3543 22.3644 22.3192 22.4017 22.2946 22.4462L22.2838 22.4617C22.0476 22.7961 21.5296 23.2302 21.064 23.2302ZM20.9298 23.0714C21.3485 23.1824 21.9336 22.7314 22.1792 22.3802L22.1885 22.3662C22.2265 22.2993 22.2819 22.2452 22.3482 22.2102C22.3952 22.1929 22.4448 22.1852 22.4945 22.1877C22.7557 22.1839 23.0159 22.1538 23.2715 22.0978C23.5909 22.0276 23.7788 21.9053 23.8445 21.7241C23.9277 21.5007 23.7895 21.2464 23.6177 21.0947C23.293 20.8137 22.8448 20.7505 22.41 20.6929C22.2758 20.6746 22.1255 20.6549 21.9873 20.6282L21.8531 20.603C21.6684 20.5522 21.4764 20.5379 21.2867 20.5608C21.0778 20.6084 20.8951 20.7401 20.7781 20.9275C20.6643 21.0696 20.533 21.1952 20.3876 21.3012L20.2923 21.3785C20.0629 21.5653 19.8307 21.762 19.6012 21.9601C19.7207 22.0683 19.8401 22.1877 19.9568 22.3029C20.2097 22.5719 20.489 22.8121 20.7902 23.0194C20.8321 23.0449 20.8773 23.0638 20.9244 23.0756L20.9298 23.0714Z" fill="#231F20"/>
<path d="M2.35719 27.2317C2.35719 27.2317 1.81235 15.1684 4.75397 13.5358C5.6692 13.0272 13.0528 12.6802 14.796 14.2158C16.5392 15.7515 16.6842 21.9938 16.6842 21.9938L19.9264 21.1902L21.2241 23.6517C21.2241 23.6517 16.448 25.9503 15.5341 26.3957C13.972 27.1558 2.35719 27.2317 2.35719 27.2317Z" fill="#0064FF"/>
<path d="M12.2473 22.0235C12.2385 22.0226 12.2299 22.0199 12.2221 22.0155C12.2142 22.0111 12.2073 22.0052 12.2017 21.998C12.1961 21.9908 12.1919 21.9825 12.1893 21.9736C12.1868 21.9647 12.186 21.9554 12.1869 21.9462L12.7841 15.0925C12.7857 15.0739 12.7943 15.0567 12.808 15.0447C12.8217 15.0327 12.8394 15.0269 12.8572 15.0286C12.875 15.0303 12.8914 15.0393 12.9029 15.0537C12.9143 15.068 12.9199 15.0865 12.9183 15.1052L12.3144 21.9658C12.3115 21.9822 12.3032 21.997 12.2909 22.0075C12.2786 22.0181 12.2632 22.0237 12.2473 22.0235Z" fill="#231F20"/>
<path d="M10.3784 15.5549H3.67919C3.19069 15.5549 2.70781 15.6641 2.2629 15.8753C1.81799 16.0865 1.42132 16.3948 1.09946 16.7795C0.777599 17.1642 0.537976 17.6165 0.396642 18.1061C0.255307 18.5957 0.215524 19.1112 0.279956 19.6182L1.36159 28.1339H14.98L13.7722 18.6712C13.6627 17.8097 13.2584 17.0189 12.6342 16.4458C12.0101 15.8727 11.2085 15.5562 10.3784 15.5549Z" fill="#231F20"/>
<path d="M17.4032 24.1111C17.8353 24.1111 17.8353 23.4087 17.4032 23.4087C16.9711 23.4087 16.9711 24.1111 17.4032 24.1111Z" fill="#0064FF"/>
<path d="M17.4994 24.1111C17.9315 24.1111 17.9329 23.4087 17.4994 23.4087C17.0659 23.4087 17.0673 24.1111 17.4994 24.1111Z" fill="#0064FF"/>
<path d="M34.1143 26.487L38.218 20.8221V19.8259L34.1143 25.3588V26.487Z" fill="white"/>
<path d="M34.1145 26.5515H34.0943C34.0821 26.5476 34.0714 26.5395 34.0639 26.5286C34.0564 26.5177 34.0525 26.5045 34.0527 26.4911V25.3671C34.0525 25.3527 34.0573 25.3387 34.0662 25.3278L38.1699 19.7948C38.1773 19.7841 38.1879 19.776 38.1999 19.772C38.212 19.7679 38.225 19.7681 38.237 19.7724C38.2493 19.7768 38.2599 19.7851 38.2674 19.7962C38.2748 19.8073 38.2788 19.8206 38.2786 19.8342V20.8303C38.2787 20.8445 38.2745 20.8583 38.2666 20.8697L34.1695 26.5262C34.1631 26.5349 34.1547 26.5418 34.1451 26.5462C34.1354 26.5506 34.1249 26.5524 34.1145 26.5515ZM34.1749 25.3798V26.2958L38.1565 20.8008V20.0126L34.1749 25.3798Z" fill="#231F20"/>
<path d="M33.6613 28.1968C33.6452 28.1968 33.6297 28.1902 33.6182 28.1784C33.6066 28.1666 33.6 28.1505 33.5996 28.1336V26.487C33.6 26.47 33.6066 26.4537 33.6181 26.4417C33.6296 26.4296 33.6451 26.4227 33.6613 26.4224C33.6775 26.4227 33.6928 26.4297 33.7041 26.4418C33.7154 26.4539 33.7217 26.4701 33.7217 26.487V28.1336C33.7217 28.1504 33.7154 28.1665 33.704 28.1783C33.6927 28.1902 33.6773 28.1968 33.6613 28.1968Z" fill="#231F20"/>
<path d="M16.5693 1.99365H38.1081V14.0583C38.1081 14.1906 38.0579 14.3175 37.9686 14.411C37.8793 14.5045 37.7581 14.5571 37.6317 14.5571H17.0457C16.9194 14.5571 16.7982 14.5045 16.7089 14.411C16.6195 14.3175 16.5693 14.1906 16.5693 14.0583V1.99365Z" fill="white"/>
<path d="M37.6312 14.6219H17.0466C16.9042 14.6219 16.7677 14.5627 16.667 14.4573C16.5663 14.3519 16.5098 14.209 16.5098 14.0599V1.99383C16.5098 1.97669 16.5163 1.96025 16.5278 1.94813C16.5394 1.93601 16.5551 1.9292 16.5715 1.9292H38.1103C38.1265 1.92956 38.1421 1.93648 38.1536 1.94853C38.1651 1.96057 38.1717 1.9768 38.172 1.99383V14.0585C38.1722 14.1328 38.1583 14.2064 38.1312 14.275C38.104 14.3436 38.0641 14.4059 38.0138 14.4583C37.9636 14.5107 37.9038 14.5521 37.8382 14.5802C37.7725 14.6083 37.7021 14.6225 37.6312 14.6219ZM16.6305 2.05846V14.0585C16.6309 14.1738 16.6749 14.2842 16.7529 14.3656C16.8308 14.447 16.9365 14.4927 17.0466 14.4927H37.6312C37.7413 14.4927 37.8469 14.447 37.9249 14.3656C38.0029 14.2842 38.0469 14.1738 38.0472 14.0585V2.05846H16.6305Z" fill="#231F20"/>
<path d="M17.0457 0.0617676H37.6304C37.7567 0.0617676 37.8779 0.114315 37.9673 0.20785C38.0566 0.301385 38.1068 0.428246 38.1068 0.560524V2.02729H16.5693V0.561929C16.5692 0.496313 16.5814 0.431305 16.6052 0.370631C16.6291 0.309957 16.6641 0.254809 16.7084 0.208346C16.7527 0.161884 16.8052 0.12502 16.8631 0.0998673C16.921 0.0747147 16.9831 0.0617673 17.0457 0.0617676Z" fill="white"/>
<path d="M38.1083 2.09068H16.5695C16.5615 2.09086 16.5535 2.08937 16.546 2.08627C16.5385 2.08318 16.5317 2.07855 16.526 2.07266C16.5202 2.06677 16.5157 2.05974 16.5125 2.05197C16.5094 2.04421 16.5078 2.03587 16.5078 2.02745V0.56201C16.5078 0.412955 16.5644 0.270006 16.665 0.164609C16.7657 0.0592117 16.9022 0 17.0446 0H37.6306C37.7729 0 37.9095 0.0592117 38.0102 0.164609C38.1108 0.270006 38.1674 0.412955 38.1674 0.56201V2.02745C38.167 2.04387 38.1608 2.05955 38.1498 2.07129C38.1388 2.08303 38.124 2.08997 38.1083 2.09068ZM16.6366 1.96282H38.0466V0.557795C38.0466 0.442278 38.0028 0.331492 37.9247 0.249809C37.8467 0.168126 37.7409 0.122237 37.6306 0.122237H17.0459C16.9356 0.122237 16.8298 0.168126 16.7518 0.249809C16.6738 0.331492 16.6299 0.442278 16.6299 0.557795L16.6366 1.96282Z" fill="#231F20"/>
<path d="M27.8486 3.573H17.6025V10.5994H27.8486V3.573Z" fill="white"/>
<path d="M27.8469 10.6711H17.6023C17.5845 10.6711 17.5674 10.6637 17.5548 10.6505C17.5422 10.6373 17.5352 10.6195 17.5352 10.6008V3.57587C17.5352 3.55723 17.5422 3.53937 17.5548 3.52619C17.5674 3.51302 17.5845 3.50562 17.6023 3.50562H27.8469C27.8647 3.50562 27.8818 3.51302 27.8944 3.52619C27.907 3.53937 27.914 3.55723 27.914 3.57587V10.6008C27.914 10.6195 27.907 10.6373 27.8944 10.6505C27.8818 10.6637 27.8647 10.6711 27.8469 10.6711ZM17.6694 10.5306H27.7798V3.64611H17.6694V10.5306Z" fill="#D1D3D4"/>
<path d="M18.82 6.53052C19.0253 6.53052 19.1917 6.35629 19.1917 6.14136C19.1917 5.92643 19.0253 5.7522 18.82 5.7522C18.6147 5.7522 18.4482 5.92643 18.4482 6.14136C18.4482 6.35629 18.6147 6.53052 18.82 6.53052Z" fill="white"/>
<path d="M18.8207 6.59925C18.7338 6.59925 18.6489 6.57227 18.5767 6.52172C18.5045 6.47118 18.4483 6.39935 18.4151 6.31532C18.3819 6.23129 18.3733 6.13884 18.3904 6.04969C18.4074 5.96053 18.4493 5.87868 18.5108 5.81448C18.5723 5.75029 18.6507 5.70664 18.7359 5.68908C18.8211 5.67151 18.9094 5.68081 18.9895 5.7158C19.0697 5.75078 19.1381 5.80989 19.1862 5.88562C19.2343 5.96136 19.2598 6.05032 19.2595 6.14124C19.2591 6.26284 19.2128 6.37933 19.1305 6.46519C19.0482 6.55104 18.9368 6.59925 18.8207 6.59925ZM18.8207 5.82232C18.7604 5.82232 18.7015 5.84102 18.6514 5.87607C18.6013 5.91111 18.5623 5.96092 18.5392 6.01919C18.5162 6.07747 18.5101 6.14159 18.5219 6.20346C18.5336 6.26532 18.5627 6.32215 18.6053 6.36675C18.6479 6.41135 18.7021 6.44173 18.7612 6.45403C18.8203 6.46634 18.8816 6.46002 18.9372 6.43588C18.9929 6.41175 19.0405 6.37087 19.074 6.31842C19.1074 6.26598 19.1253 6.20432 19.1253 6.14124C19.1253 6.05666 19.0932 5.97554 19.0361 5.91573C18.9789 5.85592 18.9015 5.82232 18.8207 5.82232Z" fill="#D1D3D4"/>
<path d="M26.6545 6.2117H19.9714C19.9537 6.21134 19.9368 6.20381 19.9243 6.1907C19.9118 6.17759 19.9046 6.15991 19.9043 6.14137C19.9043 6.12272 19.9114 6.10483 19.924 6.09164C19.9365 6.07845 19.9536 6.07104 19.9714 6.07104H26.6545C26.6723 6.07104 26.6894 6.07845 26.7019 6.09164C26.7145 6.10483 26.7216 6.12272 26.7216 6.14137C26.7216 6.16002 26.7145 6.17791 26.7019 6.1911C26.6894 6.20429 26.6723 6.2117 26.6545 6.2117Z" fill="#D1D3D4"/>
<path d="M18.82 7.90755C19.0253 7.90755 19.1917 7.7333 19.1917 7.51835C19.1917 7.3034 19.0253 7.12915 18.82 7.12915C18.6147 7.12915 18.4482 7.3034 18.4482 7.51835C18.4482 7.7333 18.6147 7.90755 18.82 7.90755Z" fill="white"/>
<path d="M18.8207 7.9762C18.7338 7.9762 18.6489 7.94922 18.5767 7.89868C18.5045 7.84813 18.4483 7.7763 18.4151 7.69227C18.3819 7.60824 18.3733 7.5158 18.3904 7.42664C18.4074 7.33749 18.4493 7.25563 18.5108 7.19144C18.5723 7.12724 18.6507 7.0836 18.7359 7.06603C18.8211 7.04846 18.9094 7.05776 18.9895 7.09275C19.0697 7.12774 19.1381 7.18684 19.1862 7.26257C19.2343 7.33831 19.2598 7.42727 19.2595 7.51819C19.2591 7.63979 19.2128 7.75629 19.1305 7.84214C19.0482 7.92799 18.9368 7.9762 18.8207 7.9762ZM18.8207 7.19927C18.7604 7.19927 18.7015 7.21798 18.6514 7.25302C18.6013 7.28806 18.5623 7.33787 18.5392 7.39615C18.5162 7.45442 18.5101 7.51855 18.5219 7.58041C18.5336 7.64227 18.5627 7.6991 18.6053 7.7437C18.6479 7.7883 18.7021 7.81868 18.7612 7.83098C18.8203 7.84329 18.8816 7.83697 18.9372 7.81284C18.9929 7.7887 19.0405 7.74782 19.074 7.69537C19.1074 7.64293 19.1253 7.58127 19.1253 7.51819C19.1253 7.43361 19.0932 7.35249 19.0361 7.29268C18.9789 7.23287 18.9015 7.19927 18.8207 7.19927Z" fill="#D1D3D4"/>
<path d="M25.0587 7.58848H19.9753C19.9575 7.58848 19.9404 7.58107 19.9279 7.56787C19.9153 7.55468 19.9082 7.53678 19.9082 7.51812C19.9082 7.49946 19.9153 7.48156 19.9279 7.46836C19.9404 7.45517 19.9575 7.44775 19.9753 7.44775H25.0587C25.0765 7.44775 25.0936 7.45517 25.1062 7.46836C25.1187 7.48156 25.1258 7.49946 25.1258 7.51812C25.1258 7.53678 25.1187 7.55468 25.1062 7.56787C25.0936 7.58107 25.0765 7.58848 25.0587 7.58848Z" fill="#D1D3D4"/>
<path d="M18.82 9.28426C19.0253 9.28426 19.1917 9.11001 19.1917 8.89506C19.1917 8.68011 19.0253 8.50586 18.82 8.50586C18.6147 8.50586 18.4482 8.68011 18.4482 8.89506C18.4482 9.11001 18.6147 9.28426 18.82 9.28426Z" fill="white"/>
<path d="M18.8207 9.35437C18.7339 9.35437 18.649 9.32743 18.5769 9.27695C18.5047 9.22647 18.4485 9.15472 18.4152 9.07077C18.382 8.98682 18.3733 8.89445 18.3903 8.80533C18.4072 8.71622 18.449 8.63436 18.5104 8.57011C18.5717 8.50586 18.6499 8.4621 18.7351 8.44437C18.8202 8.42665 18.9084 8.43575 18.9886 8.47052C19.0688 8.50529 19.1373 8.56417 19.1855 8.63972C19.2338 8.71527 19.2595 8.8041 19.2595 8.89496C19.2591 9.01669 19.2128 9.13333 19.1306 9.21941C19.0484 9.30548 18.9369 9.354 18.8207 9.35437ZM18.8207 8.57604C18.7604 8.57604 18.7015 8.59475 18.6514 8.62979C18.6013 8.66483 18.5623 8.71464 18.5392 8.77292C18.5162 8.83119 18.5101 8.89532 18.5219 8.95718C18.5336 9.01904 18.5627 9.07587 18.6053 9.12047C18.6479 9.16507 18.7021 9.19545 18.7612 9.20775C18.8203 9.22006 18.8816 9.21374 18.9372 9.18961C18.9929 9.16547 19.0405 9.12459 19.074 9.07214C19.1074 9.0197 19.1253 8.95804 19.1253 8.89496C19.1253 8.81038 19.0932 8.72926 19.0361 8.66945C18.9789 8.60964 18.9015 8.57604 18.8207 8.57604Z" fill="#D1D3D4"/>
<path d="M25.9404 8.96551H19.9753C19.9575 8.96551 19.9404 8.95809 19.9279 8.94489C19.9153 8.93168 19.9082 8.91378 19.9082 8.89511C19.9082 8.87644 19.9153 8.85853 19.9279 8.84533C19.9404 8.83212 19.9575 8.82471 19.9753 8.82471H25.9404C25.9582 8.82471 25.9752 8.83212 25.9878 8.84533C26.0004 8.85853 26.0075 8.87644 26.0075 8.89511C26.0075 8.91378 26.0004 8.93168 25.9878 8.94489C25.9752 8.95809 25.9582 8.96551 25.9404 8.96551Z" fill="#D1D3D4"/>
<path d="M21.9817 4.56763H18.4482V5.14085H21.9817V4.56763Z" fill="#D1D3D4"/>
<path d="M25.1422 10.2313C25.008 10.0557 24.8523 9.83092 24.7141 9.65811C24.655 8.81511 24.4739 8.33882 24.3705 8.27841C24.2229 8.1927 24.0538 8.32758 23.8981 8.39502C23.8703 8.40931 23.8389 8.41422 23.8082 8.40907C23.7849 8.39994 23.7639 8.38555 23.7465 8.36692C23.3869 8.03394 23.0675 7.40591 22.8313 7.33706C22.6729 7.2907 22.4595 7.62649 22.791 8.00865C22.9762 8.22221 23.3479 8.61701 23.3546 8.6423C23.3614 8.66759 23.1923 9.19587 23.1681 9.4038C23.1238 9.78456 24.1974 11.0083 24.4188 11.2963L25.1422 10.2313Z" fill="white"/>
<path d="M24.419 11.3663C24.409 11.3664 24.3991 11.3642 24.3901 11.3598C24.381 11.3555 24.373 11.349 24.3666 11.341C24.3291 11.2918 24.2687 11.2174 24.1922 11.1246C23.6446 10.4559 23.0636 9.71964 23.1025 9.39509C23.1327 9.22041 23.1744 9.04812 23.2273 8.87946C23.2515 8.79656 23.2769 8.70383 23.2863 8.66168C23.2488 8.61672 23.1414 8.4987 23.0448 8.39333C22.9482 8.28795 22.822 8.14886 22.7415 8.05613C22.5093 7.78918 22.5174 7.53909 22.6073 7.39297C22.6296 7.34697 22.6657 7.30993 22.7101 7.28758C22.7545 7.26523 22.8047 7.25882 22.8529 7.26933C23.0072 7.31288 23.1696 7.53347 23.3588 7.78918C23.4891 7.97746 23.6351 8.1533 23.795 8.31465C23.8051 8.32546 23.8169 8.33448 23.8298 8.34134C23.8462 8.34098 23.8623 8.33666 23.8768 8.3287C23.909 8.31465 23.9426 8.29779 23.9775 8.27952C24.1117 8.21068 24.2606 8.13902 24.4069 8.2163C24.5532 8.29357 24.7249 8.81061 24.7826 9.62972C24.8551 9.72105 24.9316 9.82502 25.0068 9.92899C25.0819 10.033 25.141 10.1074 25.1987 10.1861C25.2077 10.1984 25.2126 10.2135 25.2126 10.229C25.2126 10.2445 25.2077 10.2595 25.1987 10.2718L24.4753 11.3368C24.4696 11.3458 24.4618 11.3533 24.4527 11.3584C24.4436 11.3636 24.4334 11.3663 24.423 11.3663H24.419ZM22.8019 7.4028C22.784 7.40558 22.767 7.41276 22.7523 7.42375C22.7376 7.43475 22.7256 7.44924 22.7173 7.46603C22.661 7.56438 22.6583 7.74703 22.8408 7.96199C22.9213 8.05472 23.0367 8.18117 23.1428 8.29638C23.4111 8.59143 23.4111 8.59705 23.4192 8.62234C23.4272 8.64763 23.4192 8.68276 23.3561 8.9188C23.3062 9.08042 23.2659 9.24512 23.2353 9.41195C23.2018 9.69295 23.9667 10.6343 24.2942 11.0333L24.4149 11.1808L25.0578 10.2339C25.0054 10.165 24.9504 10.0934 24.8967 10.0147C24.8175 9.90651 24.737 9.79692 24.6619 9.70278C24.6524 9.69153 24.6471 9.67705 24.6471 9.66204C24.5881 8.81904 24.4042 8.37787 24.3371 8.33994C24.27 8.302 24.1466 8.33994 24.0325 8.40597C23.9962 8.42424 23.96 8.44391 23.9238 8.45936C23.8822 8.48101 23.8348 8.48696 23.7896 8.47622C23.7551 8.46514 23.7238 8.44535 23.6983 8.41862C23.5324 8.25188 23.381 8.06991 23.2461 7.87488C23.0864 7.65992 22.9227 7.43652 22.8099 7.40421L22.8019 7.4028Z" fill="#231F20"/>
<path d="M25.0439 9.79985C25.0439 9.79985 27.3776 11.9875 27.6178 11.9509C28.0204 11.4072 29.4523 9.15495 29.4523 9.15495C29.816 8.65336 30.864 8.26558 32.363 8.48055C32.363 8.48055 35.6885 8.5522 36.3326 9.65935C36.703 10.2972 37.0184 11.9959 37.2237 14.5066H26.1295C25.225 13.0749 23.6885 11.1655 23.6885 11.1655L25.0439 9.79985Z" fill="#0064FF"/>
<path d="M31.8379 9.00065L31.9117 13.7523L33.9085 8.74072L31.8379 9.00065Z" fill="#231F20"/>
<path d="M31.9105 13.8167H31.897C31.8819 13.8135 31.8683 13.8049 31.8585 13.7923C31.8487 13.7798 31.8434 13.7641 31.8434 13.7479L31.7696 8.99617C31.7691 8.97882 31.775 8.96195 31.7859 8.94892C31.7969 8.9359 31.8121 8.92768 31.8286 8.92592L33.9006 8.67161C33.9121 8.66984 33.9237 8.67139 33.9344 8.6761C33.945 8.68081 33.9543 8.68849 33.961 8.69831C33.9684 8.70809 33.9732 8.71975 33.9748 8.7321C33.9765 8.74444 33.9749 8.75703 33.9704 8.76856L31.9735 13.7802C31.9674 13.7919 31.9583 13.8016 31.9471 13.8081C31.9359 13.8146 31.9232 13.8176 31.9105 13.8167ZM31.9038 9.05799L31.9722 13.4135L33.8 8.82335L31.9038 9.05799Z" fill="#231F20"/>
<path d="M30.7569 3.80185L30.7663 3.78359C30.973 3.42391 31.4373 3.06283 31.8117 2.89283C32.6921 2.48819 33.8019 2.7158 34.5158 3.37333C34.7844 3.60774 34.9728 3.92732 35.0526 4.28376C35.1358 4.62096 35.3331 4.96518 35.3948 5.3094C35.4405 5.56511 35.3519 5.82643 35.3599 6.08776C35.3774 6.64975 35.8296 7.08389 36.2886 7.37191C35.6176 8.01399 34.6621 8.2149 33.7536 8.2711C32.1635 8.37159 30.5709 8.12273 29.0781 7.54051C29.3075 7.35237 29.4934 7.11233 29.6216 6.83836C29.7499 6.5644 29.8174 6.26361 29.8189 5.9585C29.8189 5.77164 29.7974 5.56932 29.8981 5.41618C29.9987 5.26304 30.1477 5.2237 30.2685 5.11973C30.655 4.79096 30.5342 4.21351 30.7569 3.80185Z" fill="white"/>
<path d="M33.0783 8.36244C31.7064 8.36225 30.3454 8.10628 29.0591 7.60654C29.0479 7.60197 29.038 7.59437 29.0304 7.5845C29.0229 7.57463 29.018 7.56284 29.0162 7.55034C29.0147 7.53797 29.0162 7.52541 29.0207 7.51385C29.0252 7.50229 29.0324 7.49212 29.0417 7.48431C29.2628 7.30263 29.4419 7.0711 29.5658 6.80692C29.6896 6.54274 29.755 6.25273 29.7569 5.95846V5.87837C29.7365 5.70469 29.7689 5.52867 29.8495 5.37538C29.916 5.28714 29.9998 5.2148 30.0951 5.16322C30.1417 5.13376 30.1865 5.10139 30.2293 5.06628C30.4373 4.88643 30.483 4.6237 30.5313 4.3441C30.5558 4.14347 30.6116 3.9484 30.6963 3.76664L30.754 3.80176L30.699 3.76242V3.74697C30.9151 3.37042 31.4036 3.0009 31.7726 2.82809C32.6516 2.42344 33.7936 2.62576 34.5478 3.32125C34.8279 3.56425 35.0255 3.89538 35.1114 4.26542C35.153 4.41989 35.2051 4.57107 35.2671 4.71783C35.3478 4.90369 35.4103 5.09764 35.4536 5.2967C35.4736 5.45368 35.47 5.61297 35.4429 5.76878C35.4268 5.8733 35.4192 5.97905 35.4201 6.08491C35.4362 6.64692 35.9166 7.06842 36.3165 7.31149C36.3257 7.31686 36.3335 7.32457 36.3391 7.33389C36.3448 7.34322 36.3481 7.35387 36.3487 7.36488C36.3499 7.3758 36.3486 7.38685 36.3449 7.39711C36.3411 7.40738 36.3351 7.41656 36.3273 7.42389C35.7516 7.97466 34.933 8.2669 33.7507 8.34137C33.536 8.35542 33.3065 8.36244 33.0783 8.36244ZM29.2161 7.51943C30.6696 8.06442 32.2137 8.29481 33.7547 8.19665C34.8591 8.1264 35.6335 7.86507 36.1823 7.37752C35.7717 7.10495 35.3154 6.67502 35.298 6.08491C35.2972 5.97154 35.3053 5.85829 35.3221 5.7463C35.3467 5.60728 35.3508 5.46512 35.3342 5.3248C35.2917 5.13565 35.2319 4.95121 35.1557 4.77403C35.0909 4.6214 35.0367 4.4641 34.9933 4.30335C34.9149 3.96031 34.7316 3.65346 34.4713 3.42943C33.7547 2.76908 32.6717 2.57659 31.8384 2.96016C31.4868 3.12314 31.0251 3.47158 30.8238 3.82284L30.8171 3.83548L30.7567 3.80457L30.8144 3.8411C30.7369 4.00882 30.6861 4.1887 30.6641 4.3736C30.6145 4.66444 30.5608 4.96652 30.3152 5.17868C30.2672 5.21855 30.2166 5.25471 30.1636 5.28686C30.0849 5.3297 30.0151 5.38843 29.9582 5.45968C29.8948 5.58956 29.8709 5.73666 29.8898 5.88118V5.96408C29.887 6.25772 29.8257 6.54751 29.7096 6.81487C29.5936 7.08223 29.4255 7.32126 29.2161 7.51662V7.51943Z" fill="#231F20"/>
<path d="M31.3763 6.02898C31.3444 5.91535 31.2899 5.81003 31.2166 5.71988C31.1797 5.67515 31.1302 5.64374 31.0753 5.63012C31.0204 5.6165 30.9627 5.62136 30.9106 5.64401C30.8726 5.6656 30.8403 5.69686 30.8169 5.73492C30.7934 5.77298 30.7795 5.81661 30.7764 5.86179C30.7713 5.95106 30.7856 6.04038 30.818 6.12312C30.8651 6.28216 30.9485 6.42682 31.0609 6.54462C31.1167 6.60294 31.1834 6.64863 31.2569 6.67884C31.3303 6.70905 31.4088 6.72315 31.4877 6.72025" fill="white"/>
<path d="M31.4601 6.79173C31.2946 6.78738 31.1368 6.7176 31.0185 6.59644C30.8994 6.47103 30.8102 6.31796 30.7582 6.14966C30.7238 6.05664 30.7087 5.95702 30.7139 5.85743C30.7169 5.7999 30.7335 5.74406 30.7623 5.69498C30.7912 5.64591 30.8313 5.60515 30.879 5.57643C30.9442 5.54796 31.0162 5.54132 31.0852 5.55742C31.1541 5.57352 31.2166 5.61157 31.2641 5.66635C31.3443 5.76302 31.4038 5.87656 31.4386 5.99933C31.4418 6.00799 31.4434 6.01724 31.4432 6.02654C31.4429 6.03585 31.441 6.04501 31.4374 6.05351C31.4337 6.062 31.4285 6.06966 31.4221 6.07604C31.4156 6.08241 31.408 6.08738 31.3997 6.09065C31.3827 6.09666 31.3642 6.09563 31.348 6.08779C31.3318 6.07995 31.319 6.06589 31.3124 6.0485C31.2834 5.94555 31.2345 5.84991 31.1688 5.76751C31.1408 5.73446 31.104 5.71092 31.0631 5.69991C31.0222 5.68889 30.9791 5.69091 30.9394 5.70569C30.9129 5.72309 30.8907 5.74679 30.8746 5.77486C30.8585 5.80294 30.849 5.8346 30.8468 5.86726C30.844 5.94654 30.8572 6.02555 30.8857 6.09908C30.9299 6.24627 31.0072 6.38021 31.1111 6.48966C31.1596 6.542 31.2179 6.58335 31.2823 6.61114C31.3467 6.63894 31.4159 6.65258 31.4855 6.65123C31.5031 6.65043 31.5202 6.65668 31.5334 6.6687C31.5466 6.68072 31.555 6.6976 31.5567 6.71586C31.5574 6.72509 31.5564 6.73438 31.5537 6.7432C31.551 6.75202 31.5466 6.76019 31.5409 6.76724C31.5351 6.77429 31.5281 6.78009 31.5203 6.78429C31.5124 6.78849 31.5038 6.79102 31.4949 6.79173H31.4601Z" fill="#231F20"/>
<path d="M31.9702 7.60241L31.836 9.00739C31.836 9.00739 31.9004 9.80401 32.7351 9.64525C32.9818 9.59608 33.215 9.49 33.4176 9.3347C33.6203 9.17941 33.7873 8.97881 33.9067 8.74747L34.0355 6.30842C34.0355 6.20445 33.6799 5.77734 33.7765 4.88939C33.4902 4.8585 33.2131 4.76561 32.9629 4.61661C32.7127 4.46762 32.4948 4.26579 32.3231 4.02393C32.3231 4.02393 31.9353 4.5255 31.7729 4.68005C31.6431 4.79505 31.5277 4.92676 31.4294 5.07204C31.1717 5.47948 31.1449 6.04148 31.2066 6.50652C31.2563 6.8943 31.5059 7.61084 31.9702 7.60241Z" fill="white"/>
<path d="M32.5282 9.72952C32.3615 9.7351 32.1979 9.68164 32.0639 9.57778C31.8995 9.43429 31.7942 9.23 31.77 9.00736L31.8975 7.6684C31.4506 7.60939 31.1956 6.94483 31.1379 6.51631C31.091 6.17349 31.0601 5.52439 31.3714 5.03264C31.4724 4.88237 31.5915 4.74637 31.7257 4.62801C31.8827 4.47767 32.2625 3.98452 32.2625 3.98031C32.2696 3.97199 32.2783 3.96533 32.288 3.96073C32.2977 3.95613 32.3082 3.95371 32.3189 3.95361C32.3293 3.95452 32.3395 3.9579 32.3486 3.96349C32.3576 3.96909 32.3654 3.97676 32.3712 3.98593C32.5384 4.21962 32.7498 4.41471 32.9923 4.55902C33.2347 4.70334 33.503 4.79378 33.7803 4.82471C33.7982 4.82722 33.8145 4.83676 33.8259 4.8514C33.8368 4.86623 33.842 4.88474 33.8407 4.90338C33.7835 5.32983 33.8543 5.76432 34.0433 6.1468C34.0736 6.19856 34.0928 6.25655 34.0997 6.3168L33.9735 8.75024C33.9754 8.75903 33.9754 8.76815 33.9735 8.77694C33.8503 9.01873 33.6766 9.22839 33.4655 9.39037C33.2543 9.55235 33.011 9.6625 32.7537 9.71266C32.6792 9.72594 32.6037 9.73158 32.5282 9.72952ZM31.9042 9.00736C31.9129 9.10567 31.9427 9.20066 31.9914 9.28523C32.0401 9.3698 32.1064 9.44178 32.1853 9.4958C32.2643 9.54983 32.3539 9.58449 32.4474 9.59723C32.5409 9.60996 32.636 9.60043 32.7255 9.56935C32.9588 9.5223 33.1794 9.42248 33.3721 9.27688C33.5647 9.13127 33.7246 8.94339 33.8407 8.72636C33.8514 8.52404 33.9641 6.32523 33.9655 6.30837C33.9531 6.27379 33.9388 6.24001 33.9225 6.20721C33.7334 5.82156 33.656 5.38646 33.6998 4.95537C33.157 4.87914 32.6625 4.58863 32.3175 4.14329C32.2035 4.28379 31.9445 4.61255 31.8156 4.73619C31.6913 4.84448 31.5804 4.96861 31.4855 5.1057C31.1997 5.55951 31.2292 6.16928 31.2735 6.49243C31.3177 6.81557 31.5419 7.5279 31.9646 7.5279H31.974C31.9831 7.52767 31.9922 7.52957 32.0005 7.53345C32.0089 7.53734 32.0163 7.54312 32.0223 7.55038C32.0291 7.55747 32.0342 7.56612 32.0372 7.57563C32.0402 7.58514 32.0411 7.59525 32.0397 7.60518L31.9055 9.01017L31.9042 9.00736Z" fill="#231F20"/>
<path d="M32.5283 5.19873C32.5283 5.19873 32.0384 5.82957 32.1256 5.95602C32.2129 6.08247 32.5108 6.0333 32.5108 6.0333" fill="white"/>
<path d="M32.3904 6.1132C32.3334 6.11918 32.2758 6.11196 32.2218 6.09205C32.1677 6.07214 32.1185 6.04003 32.0777 5.99799C31.9744 5.85749 32.2387 5.46129 32.4803 5.155C32.4913 5.14053 32.5074 5.13122 32.525 5.12912C32.5426 5.12701 32.5603 5.13227 32.5742 5.14376C32.5879 5.1558 32.5966 5.17299 32.5983 5.19163C32.6001 5.21028 32.5948 5.2289 32.5836 5.24352C32.3568 5.53575 32.173 5.85047 32.1891 5.91931C32.2374 5.98394 32.4253 5.97832 32.5071 5.96427C32.5159 5.96279 32.5249 5.96315 32.5336 5.96532C32.5423 5.96748 32.5505 5.97142 32.5577 5.9769C32.5649 5.98238 32.5711 5.98929 32.5757 5.99725C32.5804 6.00521 32.5835 6.01405 32.5849 6.02328C32.5864 6.0325 32.586 6.04193 32.5839 6.05102C32.5819 6.0601 32.5781 6.06868 32.5729 6.07624C32.5677 6.08381 32.561 6.09022 32.5534 6.09512C32.5458 6.10001 32.5374 6.10329 32.5286 6.10477C32.4827 6.11065 32.4366 6.11346 32.3904 6.1132Z" fill="#231F20"/>
<path d="M31.9871 5.36711C31.9973 5.28712 31.9728 5.21769 31.9324 5.21203C31.892 5.20637 31.851 5.26663 31.8408 5.34662C31.8306 5.42661 31.855 5.49604 31.8954 5.5017C31.9358 5.50736 31.9769 5.4471 31.9871 5.36711Z" fill="#231F20"/>
<path d="M33.2137 5.32519C33.2146 5.2445 33.1823 5.17868 33.1415 5.17818C33.1008 5.17768 33.067 5.24269 33.0661 5.32338C33.0652 5.40407 33.0975 5.46989 33.1383 5.47039C33.179 5.47089 33.2128 5.40588 33.2137 5.32519Z" fill="#231F20"/>
<path d="M33.6465 5.7731C33.6761 5.65318 33.7271 5.54021 33.7968 5.44011C33.8363 5.3826 33.8883 5.33578 33.9485 5.30352C34.0087 5.27127 34.0754 5.25451 34.143 5.25464C34.1846 5.25672 34.2253 5.26852 34.262 5.28919C34.2986 5.30985 34.3304 5.33886 34.355 5.37407C34.385 5.42475 34.4033 5.48196 34.4087 5.54127C34.453 5.85319 34.3537 6.25784 34.0746 6.41802C34.0274 6.44939 33.9727 6.46606 33.9169 6.46606C33.861 6.46606 33.8063 6.44939 33.7592 6.41802" fill="white"/>
<path d="M33.9013 6.53892C33.8366 6.54036 33.7733 6.5191 33.7215 6.47851C33.7139 6.47313 33.7075 6.46618 33.7025 6.45809C33.6976 6.45 33.6943 6.44094 33.6929 6.43147C33.6914 6.422 33.6919 6.41232 33.6941 6.40303C33.6964 6.39374 33.7004 6.38503 33.706 6.37743C33.7116 6.36984 33.7187 6.36353 33.7267 6.35889C33.7347 6.35425 33.7435 6.35138 33.7526 6.35045C33.7618 6.34952 33.771 6.35056 33.7797 6.35349C33.7884 6.35643 33.7965 6.3612 33.8033 6.36752C33.8407 6.38921 33.883 6.39965 33.9256 6.39766C33.9683 6.39568 34.0096 6.38135 34.0449 6.35628C34.2972 6.21579 34.3871 5.84207 34.3468 5.55125C34.3424 5.50171 34.3278 5.45377 34.3039 5.41075C34.2852 5.38452 34.2612 5.36297 34.2336 5.34767C34.2059 5.33236 34.1754 5.32367 34.1442 5.32224C34.0871 5.32249 34.0309 5.33703 33.9802 5.36465C33.9296 5.39226 33.8859 5.43216 33.853 5.481C33.7908 5.57469 33.7453 5.67942 33.7188 5.79009C33.7135 5.80776 33.7019 5.82261 33.6864 5.83152C33.6709 5.84042 33.6527 5.8427 33.6356 5.83786C33.627 5.83528 33.619 5.83093 33.612 5.82506C33.605 5.81919 33.5992 5.81192 33.595 5.80367C33.5907 5.79542 33.5881 5.78636 33.5872 5.77703C33.5864 5.76771 33.5873 5.75829 33.59 5.74934C33.6221 5.62118 33.6772 5.50057 33.7524 5.3939C33.7985 5.32763 33.8591 5.27391 33.9291 5.23724C33.9992 5.20058 34.0766 5.18203 34.1549 5.18315C34.2076 5.18445 34.2593 5.19859 34.3059 5.22444C34.3525 5.25029 34.3927 5.28714 34.4233 5.33208C34.4584 5.39137 34.4803 5.45808 34.4877 5.52736C34.5347 5.86736 34.4233 6.30149 34.1187 6.4771C34.0526 6.51704 33.9777 6.53834 33.9013 6.53892Z" fill="#231F20"/>
<path d="M29.4476 14.1203C29.4303 14.1199 29.4137 14.1126 29.4015 14.0997C29.3892 14.0869 29.3822 14.0696 29.3818 14.0515C29.3818 13.9475 29.8877 11.1207 29.9884 10.5545C29.9918 10.5359 30.0021 10.5194 30.0171 10.5087C30.032 10.4981 30.0504 10.4941 30.0682 10.4976C30.086 10.5011 30.1018 10.5119 30.1119 10.5276C30.1221 10.5433 30.126 10.5626 30.1226 10.5812C29.8837 11.9201 29.5241 13.9531 29.5187 14.0529C29.5184 14.0622 29.5163 14.0714 29.5125 14.0799C29.5087 14.0884 29.5033 14.096 29.4967 14.1022C29.4901 14.1085 29.4823 14.1134 29.4739 14.1165C29.4655 14.1196 29.4565 14.1209 29.4476 14.1203Z" fill="#231F20"/>
<path d="M34.8298 14.3423C34.812 14.3423 34.7949 14.3349 34.7823 14.3218C34.7698 14.3086 34.7627 14.2907 34.7627 14.2721V10.4308C34.7627 10.4122 34.7698 10.3943 34.7823 10.3812C34.7949 10.368 34.812 10.3606 34.8298 10.3606C34.8476 10.3606 34.8646 10.368 34.8772 10.3812C34.8898 10.3943 34.8969 10.4122 34.8969 10.4308V14.2721C34.8969 14.2907 34.8898 14.3086 34.8772 14.3218C34.8646 14.3349 34.8476 14.3423 34.8298 14.3423Z" fill="#231F20"/>
<path d="M33.0022 6.21436L31.9111 6.32254C31.9111 6.32254 31.9111 7.1374 32.3728 7.08401C32.8344 7.03062 32.9619 6.71732 33.0022 6.21436Z" fill="white"/>
<path d="M32.3296 7.15724C32.2369 7.15828 32.1473 7.12266 32.0786 7.05748C31.8478 6.84251 31.8438 6.34373 31.8438 6.32265C31.8434 6.30509 31.8494 6.28803 31.8606 6.27496C31.8719 6.2619 31.8874 6.25383 31.9042 6.2524L32.9952 6.14562C33.005 6.14458 33.0149 6.14581 33.0241 6.14921C33.0334 6.15261 33.0419 6.1581 33.0489 6.16529C33.0557 6.17242 33.0611 6.18099 33.0646 6.19043C33.068 6.19988 33.0695 6.20998 33.069 6.22009C33.0381 6.66689 32.9348 7.0898 32.3806 7.15443L32.3296 7.15724ZM31.9807 6.38588C31.9887 6.51795 32.0236 6.81863 32.1685 6.94789C32.1948 6.97275 32.226 6.99119 32.2599 7.00188C32.2937 7.01257 32.3295 7.01525 32.3645 7.00971C32.7241 6.96897 32.8811 6.77086 32.9281 6.28893L31.9807 6.38588Z" fill="#231F20"/>
<path d="M31.9702 7.60244C32.4074 7.61197 32.8418 7.52732 33.2464 7.35376C33.2464 7.35376 32.4936 8.30495 31.9111 8.6576L31.9702 7.60244Z" fill="#231F20"/>
<path d="M31.911 8.72773C31.9018 8.72774 31.8927 8.7258 31.8843 8.722C31.8759 8.71821 31.8683 8.71266 31.862 8.70568C31.8558 8.69871 31.8509 8.69046 31.8478 8.68144C31.8446 8.67243 31.8433 8.66284 31.8439 8.65326L31.9043 7.59813C31.904 7.58877 31.9057 7.57946 31.9092 7.57084C31.9127 7.56222 31.9179 7.5545 31.9246 7.54822C31.9312 7.54194 31.9391 7.53725 31.9476 7.53446C31.9562 7.53168 31.9652 7.53087 31.974 7.5321C32.4005 7.53948 32.8241 7.45681 33.2194 7.28904C33.2332 7.28182 33.2489 7.27988 33.2639 7.28356C33.2789 7.28723 33.2921 7.29629 33.3014 7.30916C33.3107 7.32203 33.3153 7.33789 33.3146 7.35398C33.3138 7.37007 33.3077 7.38537 33.2972 7.39722C33.2664 7.43656 32.531 8.36384 31.9445 8.71789C31.9342 8.72374 31.9227 8.7271 31.911 8.72773ZM32.0344 7.674L31.9848 8.52541C32.3649 8.23 32.7127 7.89171 33.0221 7.51664C32.7018 7.61843 32.3692 7.67142 32.0344 7.674Z" fill="#231F20"/>
<path d="M31.3885 11.8499C31.3794 11.8499 31.3704 11.8479 31.3621 11.844C31.3537 11.8402 31.3463 11.8345 31.3402 11.8274L30.4666 10.8664C30.4601 10.859 30.4551 10.8503 30.4521 10.8407C30.4491 10.8312 30.448 10.8211 30.4491 10.8111C30.4501 10.8011 30.4531 10.7915 30.458 10.7829C30.4629 10.7742 30.4695 10.7668 30.4773 10.761L31.2731 10.1906L30.476 9.571C30.4674 9.56449 30.4604 9.55594 30.4556 9.54605C30.4508 9.53615 30.4482 9.52521 30.4482 9.5141C30.4482 9.503 30.4508 9.49205 30.4556 9.48216C30.4604 9.47226 30.4674 9.46371 30.476 9.4572L31.4543 8.75472C31.4615 8.74888 31.4697 8.74463 31.4786 8.74224C31.4874 8.73985 31.4966 8.73936 31.5056 8.7408C31.5146 8.74224 31.5232 8.74559 31.5309 8.75063C31.5386 8.75568 31.5453 8.76232 31.5505 8.77014C31.5557 8.77797 31.5593 8.78682 31.5611 8.79616C31.563 8.8055 31.5629 8.81513 31.5611 8.82447C31.5593 8.8338 31.5556 8.84265 31.5504 8.85046C31.5452 8.85828 31.5385 8.8649 31.5308 8.86993L30.629 9.52042L31.4274 10.1414C31.4363 10.1477 31.4435 10.1564 31.4482 10.1665C31.4529 10.1766 31.455 10.1878 31.4543 10.199C31.4543 10.2102 31.4516 10.2213 31.4465 10.2311C31.4413 10.241 31.4338 10.2493 31.4248 10.2552L30.6196 10.8341L31.4382 11.7346C31.4445 11.7412 31.4495 11.7489 31.4529 11.7575C31.4563 11.7661 31.458 11.7752 31.458 11.7845C31.458 11.7938 31.4563 11.803 31.4529 11.8115C31.4495 11.8201 31.4445 11.8279 31.4382 11.8344C31.4241 11.846 31.4064 11.8516 31.3885 11.8499Z" fill="#231F20"/>
<path d="M33.0574 11.9143C33.0457 11.9141 33.0342 11.9108 33.0241 11.9046C33.014 11.8985 33.0056 11.8897 32.9997 11.8792C32.9951 11.8713 32.9921 11.8625 32.9909 11.8534C32.9897 11.8443 32.9902 11.835 32.9924 11.8261C32.9947 11.8172 32.9986 11.8088 33.004 11.8015C33.0094 11.7942 33.0161 11.7882 33.0238 11.7836L34.2893 10.9926L33.5968 10.1637C33.5898 10.1557 33.5846 10.146 33.5818 10.1355C33.579 10.125 33.5787 10.1139 33.5807 10.1033C33.5828 10.0924 33.5873 10.0821 33.5938 10.0733C33.6003 10.0646 33.6087 10.0575 33.6183 10.0527L34.4839 9.63118L33.9833 9.06918C33.977 9.06265 33.9721 9.05488 33.9686 9.04632C33.9652 9.03776 33.9635 9.02858 33.9635 9.01931C33.9635 9.01003 33.9652 9.00085 33.9686 8.99229C33.9721 8.98373 33.977 8.97596 33.9833 8.96943C33.9961 8.95647 34.0132 8.94922 34.031 8.94922C34.0488 8.94922 34.0658 8.95647 34.0786 8.96943L34.6409 9.6087C34.6481 9.61693 34.6533 9.62683 34.6561 9.63758C34.6589 9.64833 34.6592 9.65962 34.657 9.67052C34.6552 9.68135 34.6508 9.69151 34.6442 9.7001C34.6376 9.70869 34.6291 9.71542 34.6194 9.7197L33.7525 10.1412L34.4396 10.9575C34.4462 10.9653 34.4511 10.9745 34.4538 10.9844C34.4566 10.9944 34.4573 11.0049 34.4557 11.0151C34.4542 11.0253 34.4505 11.035 34.445 11.0435C34.4394 11.052 34.4321 11.0591 34.4235 11.0643L33.0963 11.9045C33.0843 11.9112 33.0709 11.9146 33.0574 11.9143Z" fill="#231F20"/>
<path d="M24.1462 9.66782C24.13 9.66775 24.1144 9.66179 24.1019 9.65096C23.9891 9.55212 23.9167 9.4119 23.8993 9.25897C23.8484 9.31737 23.784 9.361 23.7123 9.38562C23.6406 9.41023 23.564 9.41501 23.49 9.39947C23.4572 9.39486 23.4264 9.38068 23.401 9.35857C23.3756 9.33645 23.3567 9.30729 23.3464 9.27443C23.2685 9.01731 23.749 8.45532 23.8483 8.34573C23.8545 8.33915 23.862 8.33392 23.8701 8.33035C23.8783 8.32679 23.8871 8.32495 23.8959 8.32495C23.9048 8.32495 23.9136 8.32679 23.9217 8.33035C23.9299 8.33392 23.9373 8.33915 23.9436 8.34573C23.9499 8.35226 23.9549 8.36003 23.9583 8.36859C23.9617 8.37715 23.9634 8.38633 23.9634 8.39561C23.9634 8.40488 23.9617 8.41406 23.9583 8.42262C23.9549 8.43118 23.9499 8.43895 23.9436 8.44548C23.6886 8.72648 23.4363 9.11707 23.4725 9.23649C23.4725 9.24352 23.4792 9.25897 23.5155 9.266C23.7087 9.31096 23.8496 9.1255 23.9261 8.985C23.944 8.92846 23.9688 8.87462 23.9999 8.82483C24.0092 8.81081 24.023 8.80079 24.0388 8.79666C24.0547 8.79252 24.0714 8.79455 24.0858 8.80235C24.1004 8.80995 24.1118 8.82283 24.118 8.8386C24.1242 8.85436 24.1247 8.87194 24.1194 8.88806C24.1004 8.94042 24.0775 8.99115 24.0509 9.03979C24.021 9.12855 24.0178 9.22479 24.0418 9.31551C24.0658 9.40622 24.1158 9.48703 24.1851 9.547C24.1975 9.56036 24.2045 9.57825 24.2045 9.59687C24.2045 9.61549 24.1975 9.63338 24.1851 9.64675C24.1747 9.65805 24.1611 9.66545 24.1462 9.66782Z" fill="#231F20"/>
<path d="M18.4909 1.32235C18.6369 1.32235 18.7553 1.19844 18.7553 1.04558C18.7553 0.892716 18.6369 0.768799 18.4909 0.768799C18.3449 0.768799 18.2266 0.892716 18.2266 1.04558C18.2266 1.19844 18.3449 1.32235 18.4909 1.32235Z" fill="#D1D3D4"/>
<path d="M19.738 1.32235C19.884 1.32235 20.0024 1.19844 20.0024 1.04558C20.0024 0.892716 19.884 0.768799 19.738 0.768799C19.592 0.768799 19.4736 0.892716 19.4736 1.04558C19.4736 1.19844 19.592 1.32235 19.738 1.32235Z" fill="#D1D3D4"/>
<path d="M20.9851 1.32235C21.1311 1.32235 21.2494 1.19844 21.2494 1.04558C21.2494 0.892716 21.1311 0.768799 20.9851 0.768799C20.8391 0.768799 20.7207 0.892716 20.7207 1.04558C20.7207 1.19844 20.8391 1.32235 20.9851 1.32235Z" fill="#D1D3D4"/>
</svg>
