<svg width="100" height="123" viewBox="0 0 100 123" fill="none" xmlns="http://www.w3.org/2000/svg">
<g clip-path="url(#clip0)">
<path fill-rule="evenodd" clip-rule="evenodd" d="M41.0945 19.2099C40.6269 19.1996 40.1655 19.3173 39.762 19.5499C39.5917 19.6557 39.4571 19.8089 39.3754 19.9899C39.2787 20.2104 39.2369 20.4504 39.2534 20.6899C39.3987 21.7814 39.8337 22.8161 40.5147 23.6899L43.1696 27.8399C44.1484 29.5185 45.3451 31.0648 46.7297 32.4399C48.0939 33.7346 49.9196 34.4525 51.8157 34.4399C52.8095 34.4586 53.7971 34.2825 54.721 33.922C55.6449 33.5614 56.4864 33.0236 57.1966 32.3399C58.6344 30.865 59.869 29.2108 60.8687 27.4199L63.8592 22.5799C64.3204 21.7986 64.5396 20.9019 64.4899 19.9999C64.4187 19.7099 64.083 19.5599 63.5236 19.5399C63.4017 19.5299 63.2792 19.5299 63.1574 19.5399H62.7403C62.6627 19.5499 62.584 19.5499 62.5064 19.5399C62.2323 19.5643 61.9565 19.5643 61.6824 19.5399L62.6996 15.0899C55.1012 16.2699 49.4762 10.7199 41.3997 13.9799L41.9795 19.2299C41.6768 19.2252 41.3747 19.2052 41.0742 19.1699L41.0945 19.2099ZM50.4933 88.9999C51.9157 88.9999 53.3061 89.4146 54.4887 90.1914C55.6714 90.9683 56.5931 92.0725 57.1375 93.3643C57.6818 94.6562 57.8242 96.0778 57.5467 97.4492C57.2692 98.8207 56.5843 100.08 55.5785 101.069C54.5728 102.058 53.2914 102.731 51.8963 103.004C50.5013 103.277 49.0553 103.137 47.7413 102.602C46.4272 102.067 45.304 101.16 44.5138 99.9978C43.7236 98.8351 43.3018 97.4682 43.3018 96.0699C43.3018 94.1948 44.0595 92.3966 45.4082 91.0707C46.7568 89.7448 48.586 88.9999 50.4933 88.9999ZM11.1891 59.1099C11.0605 59.1202 10.9312 59.1202 10.8026 59.1099C10.6739 59.1198 10.5447 59.1198 10.416 59.1099H5.14698C5.09027 59.0955 5.03077 59.0955 4.97406 59.1099C4.91746 59.1659 4.88472 59.241 4.88251 59.3199V70.9999C4.86787 71.0557 4.86787 71.1142 4.88251 71.1699C4.93947 71.2256 5.01586 71.2578 5.09613 71.2599H11.6163H11.952H12.2877H88.8516H89.1873H89.5128H94.8327C94.8722 71.2629 94.9119 71.2575 94.9491 71.244C94.9863 71.2305 95.02 71.2092 95.048 71.1816C95.0761 71.1541 95.0977 71.1209 95.1114 71.0844C95.1252 71.0478 95.1307 71.0088 95.1277 70.9699V59.4099C95.1277 59.3707 95.1195 59.3318 95.1038 59.2957C95.0881 59.2596 95.065 59.227 95.0361 59.1999C94.9792 59.1443 94.9028 59.1121 94.8225 59.1099H11.1891ZM8.35113 54.3399V35.8199C8.35176 35.2299 8.57254 34.6606 8.97162 34.2199L15.8885 25.6699C14.9505 24.2018 14.5722 22.4544 14.8208 20.7381C15.0693 19.0217 15.9287 17.4475 17.2461 16.2951C18.5636 15.1427 20.2539 14.4866 22.0168 14.4435C23.7797 14.4003 25.5011 14.9728 26.8753 16.0594C28.2494 17.1459 29.1874 18.6761 29.5225 20.3782C29.8576 22.0803 29.5683 23.844 28.7058 25.3562C27.8433 26.8684 26.4635 28.031 24.8115 28.6377C23.1596 29.2444 21.3424 29.2558 19.6826 28.6699L13.2031 36.6699V54.3699H23.5073C23.4331 54.1149 23.3821 53.8538 23.3547 53.5899C23.4462 46.2899 22.3375 44.9299 30.1292 40.6499C32.9875 39.0799 40.3723 38.5499 43.5968 36.4699C44.1318 35.3318 44.5872 34.159 44.9598 32.9599V32.8599C43.8168 31.5597 42.7954 30.1607 41.9083 28.6799L39.2534 24.4999C38.4101 23.3948 37.8896 22.0844 37.7479 20.7099C37.727 20.2425 37.8176 19.7768 38.0124 19.3499C38.2158 18.9385 38.5331 18.5919 38.9279 18.3499C39.1269 18.2092 39.342 18.0917 39.5687 17.9999C39.3846 15.5175 39.3438 13.0269 39.4466 10.5399C39.5058 9.96848 39.6147 9.40308 39.7721 8.84992C40.7385 5.43992 43.729 2.97992 47.1366 1.84992C48.8251 1.24992 48.1538 -0.0900761 49.8423 -7.61128e-05C53.7992 0.209924 59.9125 2.71992 62.2622 5.37992C65.5478 9.10992 64.7035 13.6999 64.5916 18.2499C64.9358 18.3369 65.2489 18.5154 65.4965 18.7659C65.7441 19.0165 65.9167 19.3292 65.9953 19.6699C66.1397 20.9017 65.8871 22.1469 65.2731 23.2299V23.3099L62.2215 28.2099C61.1573 30.1185 59.8367 31.8776 58.2952 33.4399L58.2138 33.5099L58.7021 34.2099C59.231 34.9699 59.821 35.8299 60.3804 36.4999C63.666 38.4999 70.8982 39.0499 73.7158 40.5999C80.9073 44.5399 79.1273 46.5999 79.646 53.5399C79.6187 53.8038 79.5676 54.0649 79.4934 54.3199H94.8428C96.209 54.3252 97.5176 54.861 98.4836 55.8107C99.4496 56.7604 99.9946 58.0469 100 59.3899V70.9999C100.001 71.6641 99.8678 72.3219 99.6076 72.9349C99.3474 73.5478 98.9656 74.1037 98.4844 74.5699C98.0039 75.0333 97.4345 75.3984 96.8094 75.6438C96.1843 75.8893 95.5159 76.0103 94.8428 75.9999H91.6082V119C91.6096 119.504 91.5086 120.003 91.3113 120.469C91.1139 120.934 90.8241 121.356 90.4588 121.71C89.7278 122.43 88.7368 122.836 87.7022 122.84H13.5083C12.9939 122.841 12.4844 122.742 12.0093 122.548C11.5343 122.354 11.1034 122.069 10.7415 121.71C10.6723 121.647 10.6109 121.577 10.5584 121.5C9.91899 120.809 9.55737 119.914 9.54125 118.98V75.9999H5.14698C4.47016 75.9991 3.80013 75.8671 3.17527 75.6115C2.5504 75.3558 1.98297 74.9815 1.50544 74.5099L1.34269 74.3299C0.487115 73.4242 0.0080267 72.236 0 70.9999L0 59.4099C0.000790039 58.7445 0.135063 58.0858 0.395133 57.4715C0.655203 56.8572 1.03596 56.2994 1.51561 55.8299L1.69871 55.6599C2.63876 54.8099 3.86974 54.3386 5.14698 54.3399H8.35113ZM14.4543 76.0299V118.13H86.7765V75.9999L14.4543 76.0299ZM46.4347 41.0799C46.1031 40.7793 45.8384 40.4144 45.6574 40.0082C45.4763 39.6021 45.3829 39.1634 45.3829 38.7199C45.3829 38.2765 45.4763 37.8378 45.6574 37.4316C45.8384 37.0254 46.1031 36.6605 46.4347 36.3599C48.0944 36.7779 49.6627 37.4895 51.063 38.4599C51.3848 38.3296 51.7331 38.2748 52.0802 38.2999C53.5551 37.2999 55.4267 36.8599 57.0746 36.0899C59.0377 37.9699 58.8241 39.6899 56.9016 41.2999C55.8422 41.0538 54.8174 40.681 53.8501 40.1899C53.8221 40.4692 53.75 40.7425 53.6365 40.9999L55.7726 50.9999C57.6972 46.8615 58.9632 42.4567 59.526 37.9399C58.7594 37.0435 58.0494 36.1018 57.4001 35.1199L56.9627 34.4899C55.465 35.4941 53.6894 36.0212 51.8767 35.9999C49.8295 36.007 47.8465 35.2981 46.2822 33.9999C45.899 35.3016 45.3523 36.5512 44.6547 37.7199C44.6121 37.7803 44.5606 37.8342 44.5021 37.8799C45.2598 42.3959 46.5819 46.8026 48.4386 50.9999L50.5747 40.9999C50.3046 40.6071 50.1594 40.1441 50.1577 39.6699C49.0038 40.3375 47.746 40.8138 46.4347 41.0799Z" fill="#1B39CA"/>
</g>
<defs>
<clipPath id="clip0">
<rect width="100" height="122.89" fill="white"/>
</clipPath>
</defs>
</svg>
