<svg width="100%" viewBox="0 0 38 25" fill="none" xmlns="http://www.w3.org/2000/svg">
<path d="M37.4052 20.07H0.0603699C0.0443588 20.07 0.0290034 20.0634 0.0176819 20.0518C0.00636033 20.0402 0 20.0244 0 20.0079C0.000309103 19.9915 0.00676886 19.9759 0.0180241 19.9643C0.0292793 19.9528 0.0444556 19.9461 0.0603699 19.9458H37.4052C37.4211 19.9461 37.4363 19.9528 37.4475 19.9643C37.4588 19.9759 37.4652 19.9915 37.4655 20.0079C37.4655 20.0244 37.4592 20.0402 37.4479 20.0518C37.4365 20.0634 37.4212 20.07 37.4052 20.07Z" fill="#D1D3D4"/>
<path d="M3.02843 6.69568C1.22579 8.04541 0.984309 10.8591 0.938427 12.9725C0.892546 14.9592 1.32359 16.8565 1.72686 18.7948C2.12047 20.6909 3.61643 21.7253 5.40218 22.1474C8.05845 22.7795 10.9562 22.8527 13.6523 22.5473C16.3484 22.2418 16.4185 19.5101 16.148 17.2738C16.0732 16.6529 15.6494 16.2692 15.1918 15.934C14.6256 15.5451 14.1316 15.0552 13.7332 14.4874C12.4546 12.5838 12.3809 10.3215 11.5285 8.25029C10.8548 6.61 9.3552 5.46764 7.61534 5.52475C5.87548 5.58187 4.22738 5.79917 3.02843 6.69568Z" fill="white"/>
<path d="M10.5899 22.7882C8.84048 22.7982 7.0956 22.6049 5.3884 22.2121C2.76714 21.5912 1.91834 20.0155 1.6672 18.8073L1.58269 18.4001C1.19753 16.5623 0.834101 14.8277 0.877567 12.9714C0.977781 8.69124 2.06082 7.34276 2.99293 6.64492L3.02794 6.69583L2.99293 6.64492C4.2619 5.69627 6.04039 5.51498 7.61363 5.46283C9.31123 5.40943 10.8736 6.49095 11.5835 8.2256C11.8956 9.03348 12.1506 9.86342 12.3466 10.709C12.6726 11.9817 13.0107 13.2967 13.7834 14.4539C14.1251 14.9655 14.5562 15.3939 15.2323 15.8856C15.6959 16.2246 16.1354 16.6306 16.2127 17.2676C16.4614 19.3152 16.2574 20.7332 15.5885 21.6036C15.149 22.1761 14.5018 22.515 13.6639 22.6107C12.6431 22.7274 11.6169 22.7867 10.5899 22.7882ZM3.06416 6.74798C1.33276 8.04307 1.05022 10.7574 0.998307 12.9763C0.956048 14.8178 1.31706 16.5462 1.6998 18.3765L1.78553 18.7837C2.02701 19.9571 2.85649 21.4819 5.41617 22.0929C7.89375 22.6839 10.7396 22.8217 13.6446 22.4914C14.4487 22.4008 15.0693 22.0767 15.4883 21.5316C16.1354 20.6885 16.3334 19.2966 16.092 17.2875C16.0195 16.6952 15.6018 16.314 15.1611 15.9912C14.4789 15.4945 14.0382 15.0537 13.688 14.5297C12.9032 13.355 12.564 12.0277 12.2392 10.745C12.0437 9.90471 11.7903 9.07979 11.4809 8.27651C10.7879 6.58905 9.2738 5.53112 7.62571 5.58948C6.07179 5.64163 4.31502 5.81919 3.07261 6.74798H3.06416Z" fill="#231F20"/>
<path d="M7.76121 17.1879C7.43848 17.1877 7.11601 17.169 6.79529 17.132C6.17996 17.0603 5.57321 16.9251 4.98419 16.7285C4.18248 16.4615 3.64398 16.156 3.2395 15.7413C2.62494 15.1093 2.39432 14.2513 2.30136 13.6515C2.0961 12.2558 2.30136 10.7136 2.44987 9.91894C2.54681 9.37411 2.75853 8.8577 3.07015 8.40595C3.38176 7.95419 3.78574 7.57805 4.25372 7.30391C4.9033 6.91525 5.67845 6.66443 6.62142 6.53777C7.61149 6.40491 8.32385 6.51418 8.86356 6.88048C9.74496 7.47899 9.9961 8.63005 10.1772 9.75752L10.4851 11.671C10.56 12.1466 10.6638 12.7972 11.0272 13.1039C11.1554 13.2037 11.2934 13.2894 11.4389 13.3597C11.6937 13.4913 11.9557 13.6292 12.1042 13.9284C12.2865 14.3009 12.3638 14.9218 12.1767 15.3303C11.969 15.7798 11.5452 16.0753 11.2458 16.2579C10.1867 16.8844 8.9829 17.2057 7.76121 17.1879ZM7.38329 6.60731C7.13774 6.6092 6.89256 6.62704 6.64919 6.6607C5.72191 6.78487 4.95884 7.03321 4.32737 7.40573C3.87417 7.67063 3.48296 8.03452 3.18131 8.47174C2.87966 8.90897 2.67491 9.4089 2.58147 9.93632C2.43296 10.7285 2.2277 12.2546 2.43296 13.6329C2.51869 14.219 2.74568 15.0447 3.3373 15.6531C3.72729 16.0542 4.25009 16.3497 5.02766 16.6105C5.60665 16.8048 6.20336 16.9379 6.80857 17.0078C8.44459 17.1978 9.95988 16.9011 11.1902 16.1511C11.4764 15.976 11.8796 15.6954 12.0728 15.2819C12.2443 14.9094 12.1718 14.3332 12.0028 13.9893C11.8724 13.726 11.6406 13.6043 11.3906 13.4752C11.2373 13.4014 11.092 13.3111 10.9572 13.2057C10.5575 12.8692 10.4501 12.19 10.3716 11.6958L10.0637 9.78235C9.88743 8.6822 9.64354 7.5597 8.80319 6.98975C8.43493 6.73148 7.97129 6.60731 7.38329 6.60731Z" fill="#D1D3D4"/>
<path d="M3.31544 15.2471C3.30335 15.2472 3.29152 15.2435 3.28143 15.2367C3.27134 15.2298 3.26343 15.2201 3.25869 15.2086C3.25575 15.2011 3.25429 15.193 3.2544 15.1848C3.25451 15.1766 3.25618 15.1686 3.25932 15.1611C3.26246 15.1536 3.26701 15.1468 3.2727 15.1411C3.27839 15.1354 3.28512 15.1309 3.2925 15.1279C4.06765 14.7977 4.58441 14.8796 4.60615 14.8796C4.61407 14.8808 4.62169 14.8837 4.62856 14.8879C4.63543 14.8922 4.64142 14.8978 4.64618 14.9044C4.65095 14.911 4.65439 14.9185 4.65633 14.9265C4.65826 14.9345 4.65865 14.9429 4.65746 14.951C4.65627 14.9592 4.65353 14.967 4.6494 14.9741C4.64527 14.9811 4.63982 14.9873 4.63337 14.9922C4.62693 14.9971 4.61961 15.0006 4.61183 15.0026C4.60405 15.0046 4.59596 15.005 4.58803 15.0038C4.58803 15.0038 4.07972 14.9293 3.33838 15.2446C3.33101 15.2472 3.32317 15.2481 3.31544 15.2471Z" fill="#D1D3D4"/>
<path d="M34.4373 6.69568C36.2423 8.04541 36.4778 10.8591 36.5273 12.9725C36.5732 14.9592 36.1421 16.8565 35.7388 18.7948C35.3452 20.6909 33.8493 21.7253 32.0635 22.1474C29.4073 22.7795 26.5095 22.8527 23.8134 22.5473C21.1173 22.2418 21.0472 19.5101 21.3177 17.2738C21.3926 16.6529 21.8164 16.2692 22.274 15.934C22.8401 15.5451 23.3341 15.0552 23.7325 14.4874C25.0111 12.5838 25.0848 10.3215 25.9372 8.25029C26.6109 6.61 28.1105 5.46764 29.8504 5.52475C31.5902 5.58187 33.2383 5.79917 34.4373 6.69568Z" fill="white"/>
<path d="M26.8755 22.7879C25.8493 22.7871 24.8239 22.7286 23.8039 22.6128C22.9659 22.5172 22.3188 22.1782 21.8793 21.6058C21.2104 20.7366 21.0063 19.3174 21.2551 17.2698C21.3323 16.6291 21.7718 16.2268 22.2355 15.8878C22.9056 15.3911 23.3366 14.9677 23.6843 14.4561C24.4571 13.2988 24.7951 11.9839 25.1211 10.7111C25.3172 9.86556 25.5722 9.03561 25.8842 8.22773C26.5978 6.48935 28.1602 5.4128 29.8541 5.46495C31.4238 5.5171 33.2059 5.69839 34.4749 6.64705C36.2497 7.97442 36.5371 10.7248 36.5902 12.9797C36.6337 14.8361 36.2703 16.5707 35.8851 18.4084L35.8006 18.8157C35.5494 20.0239 34.7006 21.5946 32.0794 22.2204C30.3711 22.6105 28.6254 22.8009 26.8755 22.7879ZM29.7201 5.58415C28.1203 5.58415 26.6642 6.62842 25.9881 8.27367C25.6787 9.07695 25.4253 9.90187 25.2298 10.7422C24.9014 12.0248 24.5621 13.3497 23.7809 14.5269C23.4308 15.0509 22.9901 15.4879 22.3079 15.9884C21.8672 16.3112 21.4494 16.6924 21.377 17.2847C21.1355 19.2975 21.3287 20.6857 21.9807 21.5288C22.3997 22.0739 23.0203 22.398 23.8244 22.4887C26.7294 22.8189 29.5752 22.6811 32.0528 22.0901C34.6125 21.4792 35.4335 19.9543 35.6835 18.7809L35.7692 18.3737C36.1519 16.5434 36.5129 14.8149 36.4707 12.9735C36.3717 8.75173 35.3152 7.42559 34.4048 6.74514C33.1624 5.81635 31.4057 5.63879 29.8517 5.58663L29.7201 5.58415Z" fill="#231F20"/>
<path d="M29.7044 17.1879C28.4794 17.2075 27.2721 16.8861 26.2101 16.2578C25.9107 16.0753 25.4857 15.7798 25.2792 15.3303C25.0921 14.923 25.1694 14.2984 25.3517 13.9284C25.5002 13.6292 25.7622 13.4913 26.017 13.3597C26.1625 13.2894 26.3005 13.2037 26.4287 13.1039C26.7909 12.7972 26.896 12.1466 26.9708 11.671L27.2787 9.75752C27.4598 8.63005 27.7109 7.47899 28.5923 6.88048C29.1321 6.51418 29.8444 6.40491 30.8345 6.53777C31.7775 6.66194 32.5526 6.91029 33.2022 7.30391C33.6702 7.57805 34.0742 7.95419 34.3858 8.40594C34.6974 8.8577 34.9091 9.37411 35.006 9.91894C35.1497 10.7136 35.3598 12.2558 35.1546 13.6515C35.0664 14.2562 34.831 15.1093 34.2164 15.7413C33.8119 16.156 33.2734 16.4615 32.4717 16.7285C31.8827 16.9251 31.2759 17.0603 30.6606 17.132C30.3431 17.1686 30.0239 17.1873 29.7044 17.1879ZM30.0823 6.60731C29.4919 6.60731 29.0282 6.73148 28.6563 6.97982C27.8112 7.54976 27.5697 8.67227 27.3958 9.77242L27.0879 11.6859C27.0094 12.1826 26.902 12.8593 26.5023 13.1958C26.3675 13.3011 26.2222 13.3914 26.0689 13.4653C25.8274 13.5894 25.5859 13.7136 25.4567 13.9793C25.2877 14.3233 25.2153 14.8994 25.3867 15.2719C25.5799 15.6904 25.9832 15.971 26.2693 16.1411C27.4997 16.8861 29.0137 17.1879 30.651 16.9979C31.2562 16.9279 31.8529 16.7948 32.4319 16.6006C33.2155 16.3398 33.7383 16.0443 34.1222 15.6432C34.7139 15.0348 34.9409 14.209 35.0266 13.6229C35.2294 12.2447 35.0266 10.7186 34.8781 9.9326C34.7846 9.40518 34.5799 8.90524 34.2782 8.46802C33.9766 8.03079 33.5854 7.66691 33.1322 7.402C32.4971 7.02204 31.7376 6.78115 30.8103 6.65698C30.5689 6.62477 30.3257 6.60819 30.0823 6.60731Z" fill="#D1D3D4"/>
<path d="M34.1498 15.2474C34.1423 15.2492 34.1344 15.2492 34.1269 15.2474C33.3855 14.932 32.8833 15.0065 32.8772 15.0065C32.8693 15.0077 32.8612 15.0073 32.8534 15.0053C32.8457 15.0033 32.8383 14.9998 32.8319 14.9949C32.8254 14.99 32.82 14.9838 32.8159 14.9767C32.8117 14.9697 32.809 14.9618 32.8078 14.9537C32.8066 14.9455 32.807 14.9372 32.8089 14.9292C32.8109 14.9212 32.8143 14.9137 32.8191 14.9071C32.8238 14.9004 32.8298 14.8948 32.8367 14.8906C32.8436 14.8863 32.8512 14.8835 32.8591 14.8823C32.8809 14.8823 33.3976 14.8016 34.1728 15.1307C34.1801 15.1337 34.1869 15.1382 34.1926 15.1438C34.1983 15.1495 34.2028 15.1563 34.2059 15.1638C34.2091 15.1713 34.2108 15.1794 34.2109 15.1875C34.211 15.1957 34.2095 15.2038 34.2066 15.2114C34.2015 15.2224 34.1934 15.2316 34.1834 15.238C34.1733 15.2444 34.1616 15.2476 34.1498 15.2474Z" fill="#D1D3D4"/>
<path d="M25.3488 8.0045L21.6059 5.89361C21.6059 5.89361 21.3898 5.25786 21.1579 5.06292C20.9261 4.86797 21.0698 5.5596 21.0698 5.5596C21.0698 5.5596 19.79 4.71897 19.6584 4.9462C19.5267 5.17343 19.3082 6.09973 19.7453 6.45859C20.1304 6.77273 20.8476 6.8522 20.8476 6.8522C22.8471 8.50987 25.6688 10.3414 25.6688 10.3414" fill="white"/>
<path d="M25.668 10.401C25.6569 10.4008 25.646 10.3973 25.6366 10.3911C25.6077 10.3725 22.8005 8.54716 20.8216 6.9143C20.7008 6.89939 20.0718 6.80751 19.7071 6.5095C19.2495 6.13698 19.4524 5.17837 19.6057 4.91637C19.6153 4.90008 19.6281 4.88603 19.6433 4.87512C19.6584 4.86422 19.6757 4.8567 19.6938 4.85304C19.9353 4.79344 20.6827 5.24418 20.9845 5.43417C20.9568 5.25412 20.9447 5.04302 21.0328 4.98715C21.0654 4.96728 21.1186 4.9561 21.1946 5.01943C21.4156 5.20197 21.6088 5.73218 21.651 5.85014L25.377 7.96107C25.3911 7.96897 25.4016 7.98231 25.4061 7.99814C25.4107 8.01398 25.4089 8.03101 25.4012 8.0455C25.3935 8.05999 25.3805 8.07075 25.3651 8.07541C25.3497 8.08006 25.3332 8.07824 25.3191 8.07034L21.5762 5.95941C21.5695 5.95611 21.5636 5.95143 21.5589 5.94566C21.5541 5.93988 21.5505 5.93315 21.5484 5.92589C21.5484 5.92589 21.3395 5.30503 21.1222 5.1287L21.098 5.11132C21.0817 5.26201 21.0931 5.41452 21.1318 5.56082C21.1347 5.57283 21.1339 5.58545 21.1296 5.59698C21.1253 5.60851 21.1176 5.61842 21.1077 5.62539C21.0976 5.63203 21.0859 5.63555 21.0739 5.63555C21.0619 5.63555 21.0502 5.63203 21.0401 5.62539C20.6284 5.3547 19.9051 4.9412 19.7252 4.98591C19.718 4.98591 19.7132 4.98591 19.7132 4.98591C19.5779 5.21687 19.3896 6.09352 19.7856 6.41761C20.1478 6.7181 20.8493 6.79882 20.8566 6.79882C20.868 6.80043 20.8789 6.80514 20.888 6.81247C22.862 8.44906 25.6765 10.2794 25.7042 10.2967C25.7176 10.3057 25.7271 10.3196 25.7307 10.3356C25.7343 10.3516 25.7318 10.3683 25.7236 10.3824C25.7165 10.3899 25.7077 10.3955 25.698 10.3988C25.6884 10.402 25.6781 10.4028 25.668 10.401Z" fill="#231F20"/>
<path d="M24.4207 19.9607C24.4207 19.9607 24.6924 23.1494 24.5813 23.3555C24.4702 23.5616 21.8103 23.9764 21.762 23.6846C21.7137 23.3928 23.0636 22.8154 23.0636 22.8154L22.7666 20.2078" fill="white"/>
<path d="M22.1632 23.8447C22.076 23.8467 21.9887 23.8408 21.9024 23.8273C21.824 23.8137 21.7177 23.7851 21.702 23.6957C21.6525 23.3915 22.6317 22.9395 22.9987 22.7818L22.7066 20.2213C22.7056 20.2132 22.7062 20.2049 22.7084 20.197C22.7105 20.1891 22.7142 20.1817 22.7191 20.1753C22.724 20.1688 22.7302 20.1634 22.7371 20.1594C22.7441 20.1554 22.7518 20.1528 22.7597 20.1518C22.7676 20.1508 22.7756 20.1515 22.7833 20.1537C22.791 20.1559 22.7982 20.1596 22.8045 20.1647C22.8108 20.1698 22.816 20.1761 22.8199 20.1832C22.8238 20.1904 22.8263 20.1983 22.8273 20.2064L23.1243 22.8141C23.1258 22.8276 23.1229 22.8412 23.1162 22.8528C23.1094 22.8645 23.0991 22.8736 23.0869 22.8786C22.459 23.1444 21.7962 23.5243 21.8215 23.6746C21.8215 23.6746 21.8566 23.7143 22.1149 23.7218C22.8901 23.7478 24.4295 23.4461 24.5297 23.3232C24.6022 23.1667 24.4645 21.1812 24.3607 19.9705C24.36 19.9624 24.3608 19.9541 24.3632 19.9463C24.3656 19.9385 24.3694 19.9313 24.3745 19.925C24.3796 19.9187 24.3859 19.9135 24.3929 19.9097C24.4 19.9059 24.4077 19.9036 24.4156 19.9028C24.4235 19.9021 24.4315 19.903 24.4391 19.9054C24.4467 19.9079 24.4538 19.9118 24.4599 19.9171C24.466 19.9223 24.4711 19.9288 24.4747 19.936C24.4784 19.9433 24.4807 19.9512 24.4814 19.9593C24.5273 20.4945 24.7495 23.1779 24.6348 23.389C24.5201 23.6001 22.9082 23.8447 22.1632 23.8447Z" fill="#231F20"/>
<path d="M28.3549 20.7976C28.3549 20.7976 28.728 23.615 28.5348 23.6957C28.3417 23.7764 25.7156 23.9043 25.7578 23.6671C25.8001 23.43 27.0956 22.978 27.0956 22.978L26.6272 20.2314" fill="white"/>
<path d="M26.7962 23.8683C26.2855 23.8683 25.8388 23.8373 25.7349 23.7516C25.7209 23.7409 25.71 23.7265 25.7034 23.7098C25.6968 23.6932 25.6947 23.675 25.6975 23.6572C25.7385 23.4089 26.6634 23.0637 27.0256 22.9371L26.5644 20.2414C26.562 20.2253 26.5658 20.2088 26.575 20.1956C26.5843 20.1823 26.5983 20.1734 26.6139 20.1706C26.6217 20.169 26.6297 20.169 26.6375 20.1707C26.6453 20.1723 26.6526 20.1756 26.6592 20.1802C26.6657 20.1848 26.6713 20.1908 26.6755 20.1977C26.6798 20.2045 26.6826 20.2122 26.6839 20.2203L27.1536 22.9669C27.1561 22.9818 27.1533 22.9971 27.1458 23.0101C27.1383 23.023 27.1265 23.0328 27.1126 23.0376C26.5294 23.24 25.8895 23.5343 25.8206 23.6585C25.8931 23.7007 26.2384 23.7541 27.1488 23.733C27.6011 23.7311 28.0528 23.6992 28.5011 23.6374C28.5844 23.4809 28.4612 22.0828 28.291 20.8026C28.2889 20.7862 28.2932 20.7696 28.3029 20.7563C28.3126 20.7431 28.3269 20.7343 28.3429 20.7319C28.3508 20.7306 28.3588 20.7311 28.3665 20.7331C28.3742 20.7352 28.3814 20.7388 28.3877 20.7438C28.394 20.7488 28.3993 20.755 28.4032 20.7621C28.4071 20.7693 28.4096 20.7771 28.4105 20.7853C28.5844 22.0927 28.7498 23.6672 28.5542 23.7491C28.4407 23.8025 27.5472 23.8683 26.7962 23.8683Z" fill="#231F20"/>
<path d="M25.4611 15.1491C25.3971 15.3751 24.8369 21.2955 24.8369 21.2955H22.5779C22.5779 21.2955 21.5383 15.3502 21.88 13.8825C22.1142 12.8718 23.1816 12.3776 24.2682 12.7054C25.8849 12.6396 27.5463 12.4272 27.5463 12.4272L25.4611 15.1491Z" fill="#231F20"/>
<path d="M24.8378 21.3579H22.5788C22.5647 21.358 22.5509 21.353 22.54 21.3437C22.5292 21.3343 22.522 21.3213 22.5196 21.3069C22.4774 21.0586 21.4813 15.3318 21.8218 13.8678C21.8731 13.6464 21.9681 13.4382 22.1008 13.256C22.2335 13.0738 22.4011 12.9216 22.5933 12.8086C22.8488 12.6667 23.1294 12.5788 23.4185 12.5502C23.7076 12.5216 23.9993 12.5529 24.2764 12.6423C25.869 12.5777 27.5231 12.3678 27.5364 12.3666C27.5483 12.3648 27.5605 12.3668 27.5713 12.3724C27.5821 12.3779 27.591 12.3867 27.5968 12.3976C27.6025 12.4083 27.6051 12.4206 27.604 12.4327C27.6029 12.4449 27.5983 12.4565 27.5907 12.4659L25.514 15.1766C25.4536 15.4734 25.0479 19.6815 24.8946 21.302C24.8932 21.3167 24.8867 21.3305 24.8763 21.3407C24.8659 21.351 24.8522 21.357 24.8378 21.3579ZM22.6295 21.2337H24.7835C24.8439 20.593 25.3425 15.3517 25.4041 15.1319C25.4065 15.1243 25.4102 15.1171 25.415 15.1108L27.4096 12.5032C26.9689 12.5553 25.5985 12.7105 24.2704 12.7639H24.2511C23.9884 12.6774 23.7114 12.6463 23.4368 12.6723C23.1621 12.6983 22.8954 12.781 22.6525 12.9154C22.4738 13.0188 22.3181 13.1592 22.1953 13.3279C22.0724 13.4966 21.9851 13.6898 21.9389 13.8951C21.6213 15.2635 22.5293 20.655 22.6295 21.2337Z" fill="#231F20"/>
<path d="M32.4356 13.2542C32.4356 13.2542 33.1468 14.4686 32.0481 15.8357C30.9493 17.2028 27.8222 15.7649 27.8222 15.7649L28.6034 21.1142L26.3093 21.0906C26.3093 21.0906 23.9187 13.808 24.1939 13.0543C24.4692 12.3006 26.4276 11.9529 26.4276 11.9529L32.4356 13.2542Z" fill="#231F20"/>
<path d="M28.5997 21.1765L26.3056 21.1529C26.2931 21.1528 26.2809 21.1487 26.2707 21.1411C26.2605 21.1336 26.2529 21.1229 26.2489 21.1107C26.1511 20.8127 23.8534 13.7983 24.1335 13.0322C24.4136 12.2661 26.3322 11.9072 26.4143 11.8923C26.4219 11.891 26.4296 11.891 26.4372 11.8923L32.4477 13.1936C32.4559 13.1955 32.4638 13.1991 32.4706 13.2042C32.4775 13.2094 32.4832 13.2159 32.4875 13.2234C32.4948 13.2358 33.2119 14.4899 32.0939 15.8757C31.6303 16.4531 30.7356 16.6207 29.5089 16.3724C28.9564 16.2541 28.4157 16.0841 27.8934 15.8645L28.6588 21.1045C28.6603 21.1133 28.6599 21.1223 28.6576 21.1309C28.6553 21.1394 28.6512 21.1474 28.6456 21.1542C28.6399 21.161 28.6328 21.1665 28.6249 21.1703C28.617 21.1742 28.6084 21.1763 28.5997 21.1765ZM26.3491 21.0275L28.5297 21.0511L27.7581 15.7726C27.7565 15.7616 27.7578 15.7503 27.7619 15.74C27.766 15.7297 27.7727 15.7206 27.7814 15.7139C27.79 15.7072 27.8003 15.703 27.8111 15.7017C27.8219 15.7005 27.8328 15.7022 27.8427 15.7068C27.874 15.7217 30.9445 17.1099 32.0009 15.795C32.5539 15.1071 32.6288 14.4626 32.5938 14.0429C32.5744 13.7875 32.5071 13.5383 32.3957 13.3091L26.424 12.0165C26.2646 12.0463 24.4921 12.389 24.2506 13.0756C24.0285 13.6729 25.6766 18.9775 26.3491 21.0275Z" fill="#231F20"/>
<path d="M24.9897 17.0017C24.9777 17.0019 24.966 16.9982 24.9561 16.9914C24.9462 16.9845 24.9385 16.9747 24.9342 16.9633C24.8822 16.8279 23.6676 13.6342 24.0491 12.8333C24.0676 12.7887 24.0954 12.7489 24.1304 12.7165C24.1654 12.6841 24.2069 12.66 24.252 12.6458C24.2596 12.6435 24.2676 12.6428 24.2754 12.6437C24.2833 12.6446 24.291 12.647 24.2979 12.651C24.3049 12.6549 24.311 12.6602 24.316 12.6665C24.3209 12.6729 24.3246 12.6802 24.3268 12.688C24.331 12.7038 24.329 12.7207 24.3214 12.735C24.3137 12.7494 24.301 12.7601 24.2858 12.765C24.2569 12.7747 24.2304 12.7909 24.2083 12.8124C24.1862 12.8338 24.1689 12.8601 24.1578 12.8892C23.7956 13.6417 25.0332 16.8863 25.0464 16.9186C25.0494 16.9262 25.0508 16.9344 25.0506 16.9426C25.0504 16.9508 25.0486 16.9589 25.0453 16.9664C25.0421 16.9739 25.0374 16.9807 25.0316 16.9863C25.0258 16.992 25.0189 16.9964 25.0114 16.9993L24.9897 17.0017Z" fill="white"/>
<path d="M27.8185 15.827C27.8074 15.8273 27.7965 15.8242 27.7871 15.8183C27.7569 15.7997 27.0445 15.3527 26.8429 15.036C26.8384 15.0293 26.8353 15.0217 26.8337 15.0137C26.8321 15.0058 26.8321 14.9975 26.8337 14.9895C26.8353 14.9815 26.8384 14.9739 26.8429 14.9672C26.8474 14.9605 26.8531 14.9548 26.8598 14.9504C26.8731 14.9414 26.8893 14.9382 26.9049 14.9414C26.9205 14.9447 26.9343 14.9541 26.9431 14.9678C27.1303 15.262 27.8426 15.7128 27.8499 15.7128C27.8635 15.7215 27.8732 15.7353 27.877 15.7513C27.8809 15.7673 27.8785 15.7842 27.8704 15.7985C27.8647 15.8072 27.8569 15.8144 27.8479 15.8194C27.8388 15.8244 27.8287 15.827 27.8185 15.827Z" fill="white"/>
<path d="M32.4355 13.2545C32.4355 13.2545 34.9577 6.86347 33.0947 5.39701C31.2317 3.93056 28.5766 4.5837 28.2144 5.95454C27.8522 7.32538 26.4238 11.9532 26.4238 11.9532C26.4238 11.9532 30.9999 13.3563 32.4355 13.2545Z" fill="#0064FF"/>
<path d="M29.7987 6.09329L29.3628 10.6045L31.7667 5.77417L29.7987 6.09329Z" fill="#231F20"/>
<path d="M29.3583 10.6665C29.3523 10.6677 29.3462 10.6677 29.3402 10.6665C29.3266 10.6627 29.3147 10.6539 29.307 10.6418C29.2992 10.6297 29.296 10.6151 29.2979 10.6007L29.735 6.08961C29.7362 6.07581 29.7418 6.06282 29.751 6.05269C29.7602 6.04257 29.7724 6.0359 29.7857 6.03373L31.7526 5.71586C31.7637 5.71374 31.7752 5.71495 31.7857 5.71936C31.7962 5.72376 31.8052 5.73116 31.8117 5.74069C31.8174 5.75047 31.8203 5.76162 31.8203 5.77298C31.8203 5.78434 31.8174 5.79549 31.8117 5.80526L29.4066 10.6355C29.4016 10.6443 29.3946 10.6518 29.3862 10.6572C29.3778 10.6626 29.3682 10.6658 29.3583 10.6665ZM29.8497 6.14673L29.4488 10.2841L31.6548 5.85493L29.8497 6.14673Z" fill="#231F20"/>
<path d="M28.3803 5.4043L25.2314 7.69523L25.5188 10.6045L28.8935 9.13809C28.8935 9.13809 29.4525 5.9196 28.3803 5.4043Z" fill="#0064FF"/>
<path d="M29.5991 5.47039C29.8254 5.39214 30.0656 5.36545 30.303 5.39217C30.6736 5.45922 31.0129 5.64051 31.3896 5.69763C31.8049 5.73612 32.2228 5.73612 32.6381 5.69763C32.7588 5.69142 32.6381 5.85905 32.7395 5.78703C33.08 5.53124 33.0631 5.02462 33.0619 4.64466C33.0723 3.76463 32.9654 2.88728 32.7443 2.03707C32.6236 1.59502 32.1467 -0.0229296 31.45 0.671186C31.607 0.513489 30.8463 0.145943 30.7376 0.1149C29.75 -0.166968 28.8541 0.725821 28.6331 1.65462C28.4726 2.32887 28.4605 2.99815 28.1502 3.63142C28.0125 3.91081 27.8339 4.18647 27.8218 4.50062C27.8248 4.68997 27.879 4.87473 27.9781 5.03433C28.0772 5.19393 28.2175 5.3221 28.3832 5.40458C28.7197 5.56358 29.099 5.59908 29.4578 5.50516L29.5991 5.47039Z" fill="white"/>
<path d="M32.7045 5.86625C32.6931 5.86603 32.682 5.86305 32.6719 5.85756C32.6583 5.84808 32.6476 5.83464 32.6414 5.81895C32.6352 5.80325 32.6336 5.78601 32.6369 5.7694V5.76071L32.4473 5.7694C32.0924 5.79964 31.7355 5.79631 31.3812 5.75947C31.1804 5.72433 30.9832 5.67029 30.792 5.59805C30.6288 5.53687 30.4613 5.48871 30.2909 5.45401C30.0738 5.42836 29.8539 5.45123 29.6462 5.52106L29.6112 5.52975L29.4675 5.56576C29.095 5.66135 28.702 5.62369 28.3531 5.45898C28.1768 5.37184 28.0277 5.23582 27.9225 5.06624C27.8174 4.89666 27.7603 4.70026 27.7578 4.49914C27.7863 4.23367 27.8743 3.97863 28.015 3.75412C28.0416 3.70321 28.0681 3.6523 28.0935 3.60139C28.3011 3.18169 28.3736 2.75082 28.4557 2.29512C28.4907 2.0803 28.5281 1.85928 28.5764 1.63826C28.7195 1.05163 29.0795 0.545552 29.5798 0.227685C29.7539 0.117715 29.948 0.0455598 30.1503 0.0156633C30.3525 -0.0142333 30.5586 -0.00123883 30.7558 0.0538464C30.8246 0.0737136 31.3873 0.327021 31.5092 0.539352C31.5632 0.494194 31.6266 0.462509 31.6944 0.446782C31.7623 0.431055 31.8328 0.431714 31.9004 0.448708C32.323 0.565428 32.6248 1.36384 32.8047 2.01325C33.0286 2.86972 33.1363 3.7539 33.1247 4.64069V4.68788C33.1247 5.06039 33.1247 5.57073 32.777 5.83397C32.7567 5.85224 32.7314 5.86353 32.7045 5.86625ZM32.6429 5.63033C32.6584 5.62949 32.6739 5.63192 32.6885 5.63747C32.703 5.64302 32.7163 5.65158 32.7275 5.66262C32.7362 5.67195 32.7432 5.6829 32.748 5.6949C33.0064 5.45898 33.004 5.03183 33.0027 4.6854V4.63945C33.0141 3.76362 32.9081 2.89035 32.6876 2.0443C32.4461 1.1751 32.1552 0.644897 31.869 0.56667C31.7995 0.55321 31.7277 0.559639 31.6615 0.585257C31.5953 0.610876 31.5372 0.654699 31.4935 0.711948C31.482 0.723475 31.4665 0.729819 31.4504 0.729587C31.4343 0.729354 31.419 0.722562 31.4078 0.710707C31.3966 0.698851 31.3904 0.682903 31.3906 0.666369C31.3909 0.649836 31.3975 0.634072 31.409 0.622546C31.4307 0.529418 30.891 0.218993 30.722 0.170566C30.5398 0.119279 30.3493 0.107143 30.1623 0.134915C29.9753 0.162688 29.796 0.229773 29.6353 0.331988C29.1627 0.632512 28.823 1.11108 28.6887 1.66558C28.6368 1.88163 28.6006 2.10141 28.568 2.31374C28.4943 2.75952 28.4171 3.21894 28.2058 3.65602C28.1804 3.70693 28.1526 3.75784 28.1261 3.80999C27.9964 4.01774 27.9138 4.25286 27.8846 4.4979C27.8873 4.67555 27.9382 4.84888 28.0317 4.99831C28.1251 5.14774 28.2574 5.26731 28.4134 5.3435C28.7378 5.49524 29.1027 5.52896 29.4482 5.43911L29.5882 5.40434L29.6232 5.39565C29.8471 5.32134 30.0839 5.29762 30.3175 5.32611C30.4939 5.36259 30.6674 5.41239 30.8367 5.47512C31.0208 5.54493 31.2108 5.5973 31.4042 5.63157C31.7509 5.6674 32.1001 5.67031 32.4473 5.64026L32.6405 5.63033H32.6429Z" fill="#231F20"/>
<path d="M29.0085 2.01576C29.0085 2.01576 28.6789 3.05753 28.8757 3.83607C28.925 4.05357 29.0348 4.25159 29.1918 4.40594C29.3487 4.56029 29.546 4.6643 29.7595 4.70525L29.7981 6.09222C29.7981 6.09222 29.8126 6.80246 30.6542 6.66712C30.8982 6.62796 31.1286 6.52526 31.3232 6.36879C31.5178 6.21231 31.6703 6.00726 31.7662 5.7731L31.7903 3.21895C31.7903 3.21895 30.8159 2.68006 30.8727 1.76245C30.8727 1.76369 29.7498 2.36467 29.0085 2.01576Z" fill="white"/>
<path d="M30.4531 6.74781C30.2786 6.75605 30.1071 6.69916 29.9701 6.58763C29.9017 6.52461 29.8461 6.44827 29.8065 6.36302C29.7669 6.27777 29.7442 6.1853 29.7395 6.09095L29.7009 4.76109C29.4866 4.70891 29.2906 4.59669 29.1346 4.43691C28.9786 4.27713 28.8687 4.07602 28.8171 3.8559C28.6191 3.06866 28.9378 2.04302 28.9523 1.99335C28.9549 1.98515 28.9592 1.97761 28.9648 1.97119C28.9704 1.96478 28.9773 1.95964 28.9849 1.9561C28.9927 1.95272 29.0012 1.95098 29.0097 1.95098C29.0182 1.95098 29.0266 1.95272 29.0344 1.9561C29.7407 2.28887 30.8346 1.70776 30.8455 1.70776C30.8549 1.70232 30.8655 1.69946 30.8763 1.69946C30.8871 1.69946 30.8977 1.70232 30.9071 1.70776C30.9159 1.71385 30.923 1.72222 30.9277 1.73203C30.9323 1.74184 30.9344 1.75274 30.9336 1.76364C30.8793 2.63282 31.8102 3.15682 31.8187 3.16179C31.8284 3.16698 31.8366 3.17482 31.8424 3.18444C31.8481 3.19407 31.8512 3.20513 31.8513 3.21642L31.8271 5.77184C31.8283 5.77841 31.8283 5.78514 31.8271 5.7917C31.7287 6.03699 31.5702 6.25191 31.3671 6.41553C31.164 6.57916 30.9232 6.68594 30.668 6.72546C30.5971 6.73896 30.5252 6.74644 30.4531 6.74781ZM29.0477 2.10014C28.9813 2.3373 28.7724 3.17793 28.9342 3.81989C28.9793 4.02613 29.0823 4.21422 29.2304 4.36079C29.3785 4.50737 29.5652 4.60598 29.7673 4.64438C29.7816 4.64615 29.7949 4.65313 29.8046 4.66406C29.8143 4.675 29.82 4.68915 29.8204 4.70398L29.8591 6.09095C29.8685 6.24516 29.9361 6.38949 30.0474 6.49326C30.1839 6.61743 30.3855 6.64848 30.6511 6.6075C30.8826 6.56936 31.1011 6.47192 31.2863 6.32414C31.4716 6.17637 31.6177 5.98301 31.7112 5.7619L31.7342 3.25616C31.5675 3.15558 30.8286 2.66387 30.8153 1.86297C30.534 1.99583 29.6864 2.35096 29.0477 2.10014Z" fill="#231F20"/>
<path d="M31.3174 3.05514C31.3174 3.05514 31.7074 2.0791 32.194 2.67267C32.6806 3.26624 32.0153 3.9517 31.5975 3.90699" fill="white"/>
<path d="M31.6373 3.97173H31.5914C31.5835 3.97096 31.5758 3.96857 31.5688 3.96471C31.5617 3.96085 31.5555 3.95559 31.5504 3.94924C31.5454 3.94289 31.5416 3.93557 31.5393 3.92771C31.537 3.91985 31.5363 3.9116 31.5371 3.90344C31.5379 3.89527 31.5402 3.88734 31.5439 3.88009C31.5477 3.87285 31.5528 3.86645 31.559 3.86126C31.5652 3.85606 31.5723 3.85217 31.5799 3.84982C31.5876 3.84747 31.5956 3.8467 31.6035 3.84756C31.8136 3.86991 32.0961 3.67993 32.2277 3.4229C32.2892 3.3115 32.3146 3.18287 32.3003 3.05563C32.286 2.92839 32.2327 2.80914 32.1481 2.71513C32.115 2.66193 32.0689 2.61857 32.0145 2.58938C31.96 2.56019 31.8991 2.54618 31.8378 2.54874C31.618 2.58351 31.4285 2.94485 31.3741 3.08143C31.368 3.09675 31.3563 3.10895 31.3415 3.11535C31.3266 3.12175 31.3099 3.12184 31.295 3.11558C31.2801 3.10932 31.2683 3.09724 31.2621 3.08199C31.2558 3.06673 31.2557 3.04956 31.2618 3.03425C31.2715 3.01066 31.4876 2.47921 31.8196 2.42582C31.9657 2.40222 32.107 2.473 32.241 2.63566C32.3406 2.74888 32.4032 2.89128 32.42 3.04292C32.4369 3.19456 32.4073 3.34783 32.3352 3.48126C32.1879 3.76809 31.8933 3.97173 31.6373 3.97173Z" fill="#231F20"/>
<path d="M29.5557 3.86571C29.4902 3.86767 29.4251 3.85496 29.3649 3.82846C29.3502 3.82123 29.3374 3.81065 29.3273 3.79752C29.3173 3.78439 29.3103 3.76906 29.3069 3.75272C29.2623 3.57517 29.587 3.08596 29.6885 2.93945C29.6929 2.93278 29.6986 2.92709 29.7053 2.92271C29.7119 2.91834 29.7193 2.91537 29.7271 2.91399C29.7348 2.9126 29.7428 2.91282 29.7505 2.91463C29.7581 2.91645 29.7654 2.91982 29.7718 2.92455C29.7783 2.92925 29.7839 2.93524 29.7881 2.94217C29.7924 2.94909 29.7953 2.95682 29.7966 2.9649C29.798 2.97298 29.7978 2.98126 29.796 2.98925C29.7942 2.99724 29.7909 3.00479 29.7863 3.01146C29.5689 3.32684 29.3987 3.6596 29.424 3.72292C29.5503 3.7507 29.6815 3.74385 29.8044 3.70306C29.8123 3.70069 29.8206 3.69996 29.8288 3.70089C29.837 3.70183 29.845 3.70442 29.8522 3.70851C29.8594 3.7126 29.8658 3.71812 29.871 3.72475C29.8761 3.73137 29.8799 3.73898 29.8822 3.74713C29.8845 3.75529 29.8853 3.76383 29.8844 3.77226C29.8834 3.7807 29.8809 3.78887 29.8769 3.79631C29.873 3.80374 29.8676 3.8103 29.8612 3.8156C29.8547 3.82091 29.8473 3.82486 29.8394 3.82722C29.747 3.85346 29.6515 3.86641 29.5557 3.86571Z" fill="#231F20"/>
<path d="M29.7598 4.70665C29.7598 4.70665 30.4842 4.77868 30.8935 4.65698C30.8935 4.65698 30.4721 5.76343 29.7875 5.7746L29.7598 4.70665Z" fill="#231F20"/>
<path d="M29.7879 5.83999C29.7721 5.84 29.7569 5.83363 29.7456 5.82225C29.7343 5.81087 29.7278 5.7954 29.7275 5.77915L29.6997 4.70751C29.6995 4.6987 29.7011 4.68995 29.7044 4.68183C29.7078 4.67371 29.7127 4.66642 29.719 4.66043C29.7253 4.65444 29.7328 4.64989 29.7409 4.64709C29.749 4.64429 29.7576 4.6433 29.7661 4.64418C29.7734 4.64418 30.4821 4.71372 30.8769 4.59699C30.8877 4.59353 30.8993 4.59333 30.9102 4.59641C30.9211 4.59949 30.9309 4.60573 30.9385 4.61438C30.9462 4.6229 30.9514 4.63347 30.9535 4.64489C30.9557 4.6563 30.9547 4.6681 30.9506 4.67895C30.9325 4.72614 30.5063 5.82385 29.7891 5.83999H29.7879ZM29.8217 4.77332L29.8458 5.71085C30.3288 5.65125 30.6693 5.00926 30.79 4.746C30.4693 4.79306 30.1444 4.80222 29.8217 4.77332Z" fill="#231F20"/>
<path d="M30.3119 2.81807C30.3145 2.7125 30.2691 2.62568 30.2104 2.62414C30.1518 2.6226 30.1021 2.70693 30.0995 2.81251C30.0968 2.91808 30.1423 3.00491 30.2009 3.00645C30.2596 3.00798 30.3093 2.92365 30.3119 2.81807Z" fill="#231F20"/>
<path d="M29.3348 2.79363C29.3375 2.68804 29.292 2.6012 29.2334 2.59966C29.1747 2.59812 29.125 2.68247 29.1224 2.78806C29.1198 2.89365 29.1652 2.98049 29.2239 2.98203C29.2825 2.98357 29.3322 2.89922 29.3348 2.79363Z" fill="#231F20"/>
<path d="M33.0487 4.14038C33.1006 4.95616 33.1694 6.4561 31.9089 6.08608C31.6477 6.00565 31.4262 5.8258 31.2895 5.5832C31.048 5.13869 31.6976 4.4955 32.0055 4.20619" fill="white"/>
<path d="M32.2674 6.20648C32.1402 6.20458 32.0138 6.18452 31.8919 6.14688C31.6126 6.06396 31.3758 5.87245 31.2315 5.61294C30.9815 5.16096 31.5273 4.56742 31.9559 4.16014C31.9674 4.14869 31.9828 4.14228 31.9988 4.14228C32.0148 4.14228 32.0301 4.14869 32.0416 4.16014C32.0473 4.16591 32.0518 4.17278 32.0548 4.18034C32.0579 4.18791 32.0595 4.19602 32.0595 4.20422C32.0595 4.21242 32.0579 4.22053 32.0548 4.2281C32.0518 4.23566 32.0473 4.24253 32.0416 4.2483C31.8098 4.46684 31.1059 5.12992 31.3377 5.54837C31.4668 5.77943 31.678 5.94994 31.9269 6.02395C32.2433 6.11708 32.492 6.091 32.6659 5.94696C33.0824 5.60053 33.0196 4.61585 32.9894 4.14275C32.9889 4.1346 32.9899 4.12642 32.9924 4.11867C32.9949 4.11091 32.9989 4.10375 33.0041 4.09758C33.0094 4.09141 33.0157 4.08636 33.0228 4.08271C33.0299 4.07907 33.0377 4.07689 33.0456 4.07632C33.0535 4.07575 33.0615 4.07679 33.069 4.07939C33.0766 4.08198 33.0835 4.08607 33.0895 4.09144C33.0955 4.0968 33.1004 4.10332 33.104 4.11063C33.1075 4.11795 33.1096 4.12591 33.1102 4.13406C33.144 4.66676 33.208 5.6564 32.7407 6.04382C32.6067 6.15397 32.4389 6.21162 32.2674 6.20648Z" fill="#231F20"/>
<path d="M30.3018 4.14908C30.3018 4.2149 30.1943 4.27326 30.0603 4.27326C29.9263 4.27326 29.9806 4.21862 29.9806 4.14908C29.9806 4.07954 29.9275 4.0249 30.0603 4.0249C30.1931 4.0249 30.3018 4.08327 30.3018 4.14908Z" fill="#231F20"/>
<path d="M33.3146 5.73218C33.3146 5.73218 32.2002 6.68953 32.1953 7.49911C32.1905 8.3087 33.0405 12.0934 33.0405 12.0934L35.3623 10.7623C35.3623 10.7623 34.4568 6.05999 33.3146 5.73218Z" fill="#0064FF"/>
<path d="M26.5508 11.603H26.5339C26.5263 11.6006 26.5192 11.5967 26.513 11.5914C26.5069 11.5862 26.5018 11.5797 26.4981 11.5725C26.4944 11.5652 26.4921 11.5572 26.4914 11.549C26.4907 11.5409 26.4916 11.5326 26.4941 11.5248L28.1579 5.93718C28.1594 5.92857 28.1627 5.92038 28.1675 5.91316C28.1723 5.90594 28.1786 5.89985 28.1858 5.89529C28.1931 5.89074 28.2012 5.88781 28.2097 5.88672C28.2181 5.88562 28.2267 5.88638 28.2349 5.88894C28.243 5.89149 28.2505 5.89579 28.257 5.90156C28.2634 5.90732 28.2685 5.91441 28.2721 5.92237C28.2757 5.93033 28.2775 5.93897 28.2776 5.94773C28.2777 5.95649 28.276 5.96517 28.2726 5.97319L26.6088 11.5608C26.6047 11.5732 26.5969 11.584 26.5865 11.5916C26.5761 11.5992 26.5636 11.6032 26.5508 11.603Z" fill="#231F20"/>
<path d="M33.0633 11.8972C33.0495 11.8975 33.036 11.8928 33.0252 11.884C33.0144 11.8751 33.0069 11.8627 33.0041 11.8488C32.0636 7.53389 32.1215 7.48298 32.159 7.45194C32.1704 7.44049 32.1858 7.43408 32.2018 7.43408C32.2178 7.43408 32.2332 7.44049 32.2447 7.45194C32.2516 7.46016 32.2563 7.47014 32.2582 7.48084C32.2601 7.49154 32.2592 7.50257 32.2555 7.51279C32.2555 7.71518 32.7711 10.1886 33.1261 11.8152C33.1278 11.8232 33.1281 11.8315 33.1267 11.8396C33.1254 11.8477 33.1225 11.8554 33.1182 11.8623C33.114 11.8693 33.1084 11.8752 33.1019 11.8799C33.0953 11.8847 33.088 11.888 33.0802 11.8897L33.0633 11.8972Z" fill="#231F20"/>
<path d="M29.823 11.8351L25.4944 13.5127L23.5723 12.0934L27.3563 10.9187L29.823 11.8351Z" fill="white"/>
<path d="M25.4945 13.577C25.4816 13.5771 25.469 13.5732 25.4583 13.5658L23.5373 12.1453C23.528 12.1387 23.5206 12.1294 23.5161 12.1187C23.5116 12.1079 23.5102 12.096 23.512 12.0845C23.5141 12.0732 23.5192 12.0628 23.5266 12.0542C23.534 12.0457 23.5436 12.0394 23.5542 12.036L27.3382 10.8627C27.3508 10.8589 27.3642 10.8589 27.3768 10.8627L29.8411 11.7765C29.8525 11.7813 29.8624 11.7893 29.8694 11.7997C29.8765 11.81 29.8805 11.8223 29.881 11.8349C29.881 11.8476 29.8772 11.8601 29.87 11.8705C29.8629 11.881 29.8528 11.8889 29.8411 11.8932L25.515 13.577C25.5083 13.5782 25.5013 13.5782 25.4945 13.577ZM23.7064 12.118L25.503 13.4453L29.648 11.8386L27.3539 10.9868L23.7064 12.118Z" fill="#231F20"/>
<path d="M35.0917 10.9199C35.0917 10.9199 35.5746 13.4319 34.2598 13.6716C32.9449 13.9112 28.585 13.0333 28.585 13.0333C28.585 13.0333 27.0709 13.3078 27.1675 12.9092C27.2641 12.5106 28.2095 12.3342 28.2095 12.3342C28.2095 12.3342 27.4295 11.9456 27.8135 11.9468C28.2221 11.9718 28.6291 12.0186 29.033 12.0871L33.0657 11.5346" fill="white"/>
<path d="M33.6632 13.7759C32.0115 13.7759 28.8469 13.1551 28.5922 13.0967C28.364 13.1377 27.3655 13.3003 27.1554 13.0669C27.1353 13.0451 27.1212 13.0182 27.1144 12.989C27.1076 12.9598 27.1084 12.9293 27.1167 12.9005C27.1976 12.5764 27.7506 12.3927 28.0392 12.3182C27.6287 12.0947 27.648 12.0065 27.6564 11.9717C27.6746 11.891 27.7772 11.891 27.8206 11.891C28.2296 11.9153 28.6371 11.9618 29.0413 12.0301L33.0656 11.4788C33.0816 11.4767 33.0978 11.4811 33.1106 11.4913C33.1233 11.5014 33.1317 11.5163 33.1338 11.5328C33.1359 11.5493 33.1315 11.5659 33.1217 11.5791C33.1118 11.5922 33.0973 11.6008 33.0813 11.603L29.0486 12.1543C29.0426 12.1555 29.0364 12.1555 29.0305 12.1543C28.6306 12.0867 28.2276 12.0403 27.8231 12.0152H27.805C27.9427 12.1206 28.0908 12.2109 28.2469 12.2846C28.2581 12.2906 28.2672 12.3 28.2731 12.3114C28.2789 12.3229 28.2812 12.336 28.2797 12.3488C28.2781 12.3617 28.2727 12.3738 28.2642 12.3834C28.2558 12.393 28.2447 12.3997 28.2324 12.4026C27.98 12.451 27.3087 12.6423 27.2375 12.9316C27.2339 12.9401 27.2329 12.9495 27.2346 12.9586C27.2364 12.9676 27.2407 12.976 27.2471 12.9825C27.3775 13.1277 28.137 13.0532 28.5849 12.9725H28.6079C28.6513 12.9812 32.9702 13.8417 34.2549 13.6108C34.3703 13.5906 34.4805 13.5463 34.5787 13.4808C34.6769 13.4152 34.761 13.3297 34.826 13.2296C35.3186 12.4933 35.0505 10.9945 35.0385 10.9325C35.0369 10.9233 35.0373 10.9139 35.0396 10.9049C35.0418 10.8959 35.046 10.8875 35.0517 10.8803C35.0589 10.871 35.0685 10.8641 35.0795 10.8603C35.0904 10.8566 35.1022 10.8562 35.1133 10.8592C35.1244 10.862 35.1344 10.8681 35.1421 10.8767C35.1499 10.8853 35.155 10.8961 35.1568 10.9076L35.0976 10.92L35.158 10.9089C35.1882 11.0728 35.4381 12.5355 34.925 13.3003C34.8512 13.4143 34.7555 13.5114 34.6438 13.5857C34.532 13.66 34.4067 13.71 34.2754 13.7324C34.0729 13.7649 33.8681 13.7795 33.6632 13.7759Z" fill="#231F20"/>
<path d="M18.2981 21.6284C18.4234 21.7523 18.5835 21.8323 18.7557 21.8569C18.9573 21.8569 21.1439 21.4422 21.2345 21.7501C21.325 22.058 21.1463 22.212 20.6235 22.4653C19.9232 22.8043 17.5725 23.6002 17.5725 23.6002L17.0581 22.3585L18.2981 21.6284Z" fill="white"/>
<path d="M17.5725 23.6573C17.5616 23.6575 17.5509 23.6543 17.5418 23.6481C17.5327 23.6419 17.5257 23.633 17.5218 23.6225L17.0074 22.3808C17.0021 22.3681 17.0015 22.3539 17.0057 22.3409C17.01 22.3278 17.0187 22.3168 17.0304 22.31L18.2704 21.5799C18.2813 21.5734 18.2942 21.5709 18.3067 21.573C18.3192 21.575 18.3307 21.5814 18.3392 21.591C18.454 21.7038 18.5999 21.7771 18.7569 21.8009C18.9043 21.7906 19.051 21.7719 19.1964 21.745C20.4992 21.5575 21.2176 21.4967 21.2876 21.7338C21.3915 22.0877 21.1741 22.2616 20.6465 22.5174C19.9523 22.8551 17.6135 23.6473 17.5894 23.656L17.5725 23.6573ZM17.1282 22.382L17.6039 23.5306C17.9419 23.4151 19.9655 22.721 20.5994 22.4131C21.1367 22.1523 21.2562 22.0194 21.1814 21.7649C21.1271 21.5799 19.6854 21.7872 19.2121 21.8555C18.9465 21.894 18.8052 21.9102 18.7545 21.9126C18.5819 21.8906 18.4198 21.8153 18.2897 21.6966L17.1282 22.382Z" fill="#231F20"/>
<path d="M11.5023 22.9611C11.5023 22.9611 13.8458 23.7892 13.9461 23.9469C14.0463 24.1046 13.8688 24.2896 13.2446 24.3467C12.6203 24.4039 9.94957 24.2549 9.94957 24.2549C9.94957 24.2549 9.91576 23.5099 10.0836 23.1374C10.2514 22.7649 11.5023 22.9611 11.5023 22.9611Z" fill="white"/>
<path d="M12.7984 24.4159C11.8421 24.4159 10.0371 24.3166 9.94652 24.3116C9.93271 24.3108 9.91969 24.3047 9.9099 24.2947C9.90012 24.2846 9.89425 24.2712 9.89339 24.257C9.89339 24.226 9.862 23.4946 10.0322 23.1097C10.2121 22.7036 11.3773 22.8837 11.5101 22.9048H11.5185C12.0727 23.101 13.8887 23.7516 13.9913 23.9143C14.0109 23.9425 14.0228 23.9755 14.0258 24.01C14.0288 24.0445 14.0227 24.0792 14.0082 24.1105C13.937 24.2607 13.6737 24.3588 13.2487 24.3998C13.1461 24.4122 12.9891 24.4159 12.7984 24.4159ZM10.0021 24.2011C10.3739 24.221 12.674 24.3414 13.2391 24.2893C13.7848 24.2396 13.8899 24.1043 13.908 24.0633C13.9147 24.0497 13.9175 24.0344 13.916 24.0192C13.9145 24.004 13.9088 23.9896 13.8995 23.9776C13.8066 23.8659 12.3734 23.3295 11.4847 23.0166C11.0163 22.9396 10.2375 22.911 10.1288 23.1569C9.99844 23.4611 9.99844 24.0285 10.0021 24.2011Z" fill="#231F20"/>
<path d="M5.42359 15.1095C5.42359 15.1095 3.51107 10.1936 3.7115 7.7686C3.91193 5.34355 5.45136 5.19579 5.99106 5.16102C6.53077 5.12625 9.36453 4.7376 10.3993 6.04263C11.434 7.34766 11.1684 13.6332 11.1684 13.6332L5.42359 15.1095Z" fill="#0064FF"/>
<path d="M8.79922 6.28098L8.7642 11.2069L6.73096 5.95068L8.79922 6.28098Z" fill="#231F20"/>
<path d="M8.76455 11.2687C8.75246 11.2688 8.74064 11.2651 8.73054 11.2583C8.72045 11.2514 8.71254 11.2417 8.7078 11.2303L6.67455 5.97304C6.67099 5.96269 6.67002 5.95158 6.6717 5.94074C6.67339 5.92989 6.67769 5.91966 6.68421 5.91096C6.69082 5.9023 6.69958 5.89566 6.70958 5.89172C6.71957 5.88778 6.73041 5.88671 6.74095 5.88861L8.80922 6.22013C8.82352 6.22221 8.83663 6.22949 8.84615 6.24066C8.85568 6.25182 8.861 6.26612 8.86114 6.28098L8.82492 11.2079C8.82459 11.2222 8.81949 11.2359 8.81047 11.2468C8.80146 11.2576 8.78907 11.2649 8.77542 11.2675L8.76455 11.2687ZM6.83272 6.02768L8.71143 10.8888L8.74402 6.33437L6.83272 6.02768Z" fill="#231F20"/>
<path d="M11.2855 12.3877C11.2855 12.3877 13.623 13.0309 15.713 14.4911C16.6717 15.1604 18.4623 21.7265 18.4623 21.7265C18.4623 21.7265 18.2618 22.8639 16.9844 22.6864L11.4014 15.2473C11.4014 15.2473 10.2037 12.3591 11.2855 12.3877Z" fill="#231F20"/>
<path d="M17.245 22.766C17.1549 22.7658 17.065 22.7591 16.9758 22.7461C16.9601 22.7436 16.9459 22.7352 16.9359 22.7225L11.3541 15.2835C11.3506 15.2794 11.3478 15.2748 11.3457 15.2698C11.3107 15.1842 10.4727 13.1478 10.8893 12.517C10.9329 12.4515 10.9927 12.3992 11.0625 12.3654C11.1324 12.3316 11.2097 12.3175 11.2865 12.3245H11.301C11.324 12.3307 13.6723 12.9876 15.7467 14.4354C16.7126 15.1109 18.4464 21.4374 18.5237 21.7068C18.5255 21.7158 18.5255 21.7251 18.5237 21.7341C18.4616 22.0328 18.2997 22.2997 18.0661 22.4882C17.8324 22.6768 17.5419 22.7751 17.245 22.766ZM17.0168 22.6269C18.1385 22.7697 18.3727 21.8571 18.3993 21.7279C18.3051 21.384 16.5882 15.1755 15.679 14.541C13.6772 13.1428 11.4193 12.4884 11.2769 12.4487H11.2696C11.2153 12.4446 11.1609 12.4552 11.1118 12.4793C11.0626 12.5035 11.0205 12.5405 10.9895 12.5865C10.6213 13.1453 11.3988 15.0799 11.4544 15.214L17.0168 22.6269Z" fill="#231F20"/>
<path d="M5.4238 15.1097C5.4238 15.1097 9.85254 13.257 10.9875 13.0857C10.9875 13.0857 12.6114 13.7065 13.4458 15.2885C14.2801 16.8704 11.5018 22.9609 11.5018 22.9609C11.0447 23.239 10.505 23.3369 9.98293 23.2366L9.94671 16.8617C9.94671 16.8617 4.59673 17.4068 5.4238 15.1097Z" fill="#231F20"/>
<path d="M10.3869 23.3384C10.2471 23.3383 10.1076 23.3245 9.97032 23.2974C9.95668 23.2946 9.94442 23.287 9.93562 23.2759C9.92682 23.2648 9.92202 23.2509 9.92202 23.2366L9.8858 16.93C9.37628 16.9759 6.26965 17.2069 5.46673 16.1365C5.25181 15.8522 5.22525 15.4995 5.36652 15.0885C5.36941 15.0804 5.37391 15.073 5.37973 15.0668C5.38555 15.0606 5.39257 15.0558 5.40032 15.0525C5.58143 14.9768 9.84837 13.1899 10.9785 13.0235C10.9884 13.0211 10.9988 13.0211 11.0087 13.0235C11.0244 13.0298 12.6628 13.673 13.4983 15.2586C14.3338 16.8443 11.6691 22.7374 11.5556 22.987C11.5512 22.9978 11.5436 23.0069 11.5339 23.0131C11.1875 23.227 10.7909 23.3395 10.3869 23.3384ZM10.0391 23.1845C10.5253 23.264 11.0233 23.1702 11.4506 22.9187C11.6088 22.5661 14.1793 16.812 13.3885 15.3182C12.6157 13.8555 11.1379 13.2148 10.9737 13.149C9.87855 13.3253 5.82291 15.0115 5.46552 15.1568C5.34478 15.5144 5.37376 15.8174 5.55608 16.0608C6.37228 17.1485 9.9027 16.8058 9.93409 16.8058C9.94232 16.805 9.95063 16.8059 9.95851 16.8084C9.96639 16.811 9.97369 16.8152 9.97997 16.8207C9.98634 16.8264 9.99145 16.8335 9.99499 16.8414C9.99853 16.8493 10.0004 16.8579 10.0005 16.8666L10.0391 23.1845Z" fill="#231F20"/>
<path d="M13.3458 17.9122H13.335C13.3192 17.9091 13.3053 17.8999 13.296 17.8865C13.2868 17.873 13.283 17.8564 13.2855 17.8401C13.4412 16.9287 13.6018 15.4908 13.4062 15.2648C12.7627 14.5347 11.1641 13.3178 11.1484 13.3054C11.1357 13.2957 11.1273 13.2814 11.1248 13.2654C11.1223 13.2493 11.126 13.233 11.1351 13.2197C11.1447 13.2066 11.1589 13.1979 11.1747 13.1953C11.1904 13.1928 11.2066 13.1966 11.2196 13.2061C11.2353 13.2185 12.8436 14.4478 13.4956 15.1816C13.7986 15.5243 13.4497 17.6241 13.4086 17.8625C13.406 17.8773 13.3981 17.8905 13.3865 17.8997C13.3749 17.9089 13.3604 17.9133 13.3458 17.9122Z" fill="white"/>
<path d="M10.4015 6.04248C10.4015 6.04248 11.1682 7.55737 11.6197 8.33593C12.0713 9.11448 13.0517 10.2308 13.0517 10.2308C13.0517 10.2308 16.5242 11.5011 16.5471 11.5694C16.5701 11.6376 16.2175 12.8384 16.2175 12.8384C16.2175 12.8384 12.5748 12.5689 11.9711 12.2759C11.3674 11.9828 10.1455 10.5375 10.1455 10.5375L10.4015 6.04248Z" fill="#0064FF"/>
<path d="M8.01183 6.82495L7.75586 7.23968L8.03598 7.41103L8.06375 9.39775L8.76404 11.2069L8.79906 9.53309L8.21588 7.35391L8.38975 7.14407L8.01183 6.82495Z" fill="white"/>
<path d="M8.76435 11.2687C8.75226 11.2687 8.74043 11.2651 8.73034 11.2582C8.72025 11.2514 8.71234 11.2417 8.7076 11.2302L8.00852 9.42107C8.00796 9.41363 8.00796 9.40616 8.00852 9.39872L7.98196 7.44554L7.72961 7.29281C7.71582 7.28364 7.7059 7.26945 7.70184 7.25308C7.69992 7.24505 7.69968 7.23669 7.70113 7.22855C7.70259 7.22042 7.70571 7.2127 7.71029 7.2059L7.96626 6.79117C7.97081 6.78375 7.9768 6.77737 7.98387 6.77246C7.99094 6.76754 7.99892 6.76419 8.00731 6.76261C8.01584 6.76136 8.02453 6.76192 8.03284 6.76427C8.04115 6.76662 8.0489 6.77071 8.05561 6.77627L8.43352 7.09539C8.43968 7.10065 8.44476 7.10712 8.44846 7.11442C8.45216 7.12172 8.45442 7.1297 8.45509 7.13791C8.45577 7.14611 8.45485 7.15437 8.45239 7.1622C8.44993 7.17004 8.44598 7.1773 8.44077 7.18355L8.2838 7.36856L8.85852 9.51668C8.85911 9.52288 8.85911 9.52911 8.85852 9.53531L8.8223 11.2079C8.82197 11.2221 8.81687 11.2359 8.80785 11.2467C8.79884 11.2576 8.78646 11.2649 8.7728 11.2675L8.76435 11.2687ZM8.12443 9.38631L8.71122 10.8999L8.7402 9.54152L8.15824 7.36856C8.15593 7.35872 8.15581 7.34847 8.1579 7.33857C8.15999 7.32868 8.16423 7.31941 8.17031 7.31144L8.30433 7.15002L8.02663 6.91534L7.84069 7.21707L8.06768 7.35614C8.07649 7.36151 8.08379 7.36914 8.08886 7.37828C8.09394 7.38742 8.09663 7.39776 8.09666 7.40829L8.12443 9.38631Z" fill="#231F20"/>
<path d="M6.60397 1.19392C6.67362 1.1666 6.74616 1.14784 6.82009 1.13804C7.1147 1.10328 7.11953 1.16909 7.34652 0.972898C7.69281 0.692721 8.11409 0.528085 8.55392 0.501053C9.3991 0.443935 10.0137 0.87977 9.82048 1.83339C9.72759 2.2111 9.55897 2.56467 9.32545 2.87145C8.84249 3.5519 8.1748 4.16778 7.36101 4.23732C7.11953 4.25594 6.66675 4.23732 6.49168 4.03492C6.24296 3.74487 6.07099 3.39388 5.99233 3.01571C5.91367 2.63754 5.93095 2.24492 6.04253 1.87561C6.08707 1.71746 6.16131 1.56981 6.26107 1.44102C6.35372 1.33073 6.47154 1.24583 6.60397 1.19392Z" fill="white"/>
<path d="M7.21328 4.29814C6.99836 4.29814 6.61803 4.26834 6.44417 4.06966C6.18914 3.77228 6.01294 3.41233 5.93258 3.02452C5.85221 2.63672 5.87039 2.23415 5.98535 1.85568C6.03222 1.68999 6.11061 1.53551 6.21597 1.40121C6.36995 1.21834 6.58575 1.1025 6.81967 1.07712C6.88057 1.06936 6.94183 1.0648 7.00319 1.06346C7.12393 1.06346 7.16136 1.06346 7.31349 0.92563C7.66746 0.635568 8.10038 0.465895 8.55228 0.440118C9.05094 0.406591 9.45542 0.540697 9.69086 0.812634C9.90095 1.06098 9.96736 1.41611 9.88163 1.83954C9.78922 2.22649 9.61711 2.58854 9.37694 2.90121C8.96038 3.49475 8.27458 4.21743 7.36783 4.28697C7.34488 4.29442 7.28934 4.29814 7.21328 4.29814ZM8.69596 0.558081C8.65008 0.558081 8.60299 0.558081 8.5547 0.558081C8.12754 0.586166 7.71892 0.747763 7.38352 1.02124C7.33506 1.07558 7.2758 1.11857 7.20976 1.14728C7.14372 1.17599 7.07244 1.18975 7.00078 1.18763C6.9561 1.18763 6.90056 1.18763 6.8257 1.20005C6.75664 1.20875 6.68891 1.22626 6.62407 1.2522C6.50138 1.3 6.39224 1.37854 6.30652 1.48068C6.21144 1.60325 6.14049 1.7437 6.09764 1.89417C5.98996 2.25266 5.97394 2.63364 6.05114 3.00035C6.12833 3.36706 6.29613 3.70712 6.53834 3.98771C6.67599 4.14541 7.05994 4.19384 7.35817 4.169C8.21783 4.10319 8.87707 3.40659 9.27793 2.8354C9.5074 2.53651 9.67207 2.19061 9.76089 1.82091C9.83816 1.43598 9.78142 1.1181 9.59668 0.899554C9.41195 0.681012 9.09078 0.558081 8.69596 0.558081Z" fill="#231F20"/>
<path d="M8.80043 4.96962V6.28086C8.80043 6.28086 8.501 7.00229 7.66669 6.78499C6.83238 6.56769 6.73096 5.94933 6.73096 5.94933L6.76839 3.51932C6.76839 3.51932 7.39261 3.18654 7.22599 1.79956C7.90779 2.11081 8.65852 2.22747 9.3993 2.1373C9.3993 2.1373 9.65527 3.65342 9.56592 4.32146C9.47537 4.97211 8.8113 4.96093 8.80043 4.96962Z" fill="white"/>
<path d="M7.9679 6.88814C7.86151 6.88715 7.75566 6.87255 7.65277 6.84468C6.79069 6.61869 6.67599 5.98668 6.67236 5.9606L6.70859 3.52194C6.70892 3.5107 6.71211 3.49975 6.71783 3.49017C6.72354 3.48058 6.7316 3.4727 6.74119 3.4673C6.74119 3.4673 7.32557 3.13081 7.1674 1.8109C7.16565 1.79969 7.16711 1.7882 7.17162 1.77783C7.17612 1.76747 7.18346 1.75868 7.19275 1.75254C7.20203 1.74673 7.21268 1.74365 7.22354 1.74365C7.2344 1.74365 7.24505 1.74673 7.25433 1.75254C7.92503 2.05616 8.66226 2.1706 9.39022 2.08407C9.40546 2.08254 9.42071 2.08691 9.43299 2.09633C9.44527 2.10574 9.4537 2.11952 9.45663 2.13498C9.46629 2.19706 9.7126 3.66846 9.62204 4.33896C9.57012 4.73506 9.29966 4.97967 8.86138 5.03058V6.28592C8.86264 6.29373 8.86264 6.3017 8.86138 6.30951C8.77991 6.48219 8.65302 6.62794 8.49509 6.73021C8.33717 6.83248 8.15453 6.8872 7.9679 6.88814ZM6.82933 3.55795L6.7919 5.95067C6.7919 5.96308 6.89935 6.51936 7.68296 6.72423C8.4074 6.91545 8.69959 6.35173 8.74064 6.26729V4.96974C8.74054 4.96051 8.74243 4.95138 8.74619 4.943C8.74995 4.93463 8.75548 4.92722 8.76237 4.92131C8.77872 4.90993 8.79819 4.90427 8.81791 4.90517C9.21998 4.86792 9.45663 4.66428 9.50251 4.31661C9.57978 3.73923 9.39143 2.49134 9.34675 2.20575C8.64873 2.2807 7.94352 2.17661 7.29417 1.90278C7.40888 3.06872 6.95731 3.46854 6.82933 3.55795Z" fill="#231F20"/>
<path d="M7.26251 3.48732C7.23544 3.36861 7.17142 3.26223 7.0802 3.18434C6.99251 3.11593 6.8941 3.06343 6.78921 3.02912C6.73368 3.00426 6.67347 2.99238 6.61293 2.99435C6.57031 3.00059 6.52929 3.01536 6.49219 3.03781C6.40133 3.08194 6.32891 3.15818 6.28814 3.25263C6.26356 3.33294 6.25859 3.41823 6.27365 3.50098C6.28314 3.59067 6.30384 3.67874 6.33523 3.76299C6.36804 3.84698 6.41681 3.9234 6.47869 3.98776C6.54058 4.05213 6.61432 4.10315 6.69562 4.13784C6.77691 4.17253 6.86411 4.1902 6.95213 4.18979C7.04014 4.18939 7.12719 4.17094 7.20818 4.13551" fill="white"/>
<path d="M6.94664 4.2431C6.80369 4.24282 6.66401 4.19904 6.5452 4.11729C6.42639 4.03553 6.33375 3.91946 6.27895 3.78367C6.24471 3.69454 6.22276 3.60092 6.21375 3.50553C6.19728 3.41362 6.20308 3.31894 6.23066 3.22988C6.27667 3.12132 6.35889 3.03325 6.46248 2.98154C6.50575 2.95496 6.5538 2.93765 6.60374 2.93063C6.67371 2.92749 6.74346 2.94065 6.80779 2.96912C6.91913 3.00588 7.02363 3.06171 7.11688 3.13427C7.21761 3.22115 7.28833 3.33918 7.31851 3.47077C7.32048 3.47868 7.32088 3.48692 7.31968 3.495C7.31848 3.50307 7.31572 3.51082 7.31155 3.51777C7.30738 3.52472 7.30189 3.53074 7.29541 3.53546C7.28894 3.54019 7.2816 3.54352 7.27384 3.54527C7.25831 3.549 7.24198 3.54627 7.22841 3.53766C7.21483 3.52905 7.20512 3.51527 7.2014 3.49933C7.17693 3.394 7.12021 3.29955 7.03961 3.22988C6.95675 3.1664 6.8641 3.11771 6.76553 3.08584C6.71896 3.06393 6.66824 3.0529 6.61702 3.05356C6.58278 3.05943 6.54998 3.07208 6.52043 3.09081C6.443 3.1282 6.38036 3.19174 6.34294 3.27085C6.32393 3.3412 6.32063 3.41506 6.33329 3.48691C6.34103 3.5721 6.36054 3.65572 6.39124 3.73525C6.42172 3.81082 6.46642 3.87946 6.52279 3.93721C6.57915 3.99496 6.64605 4.04068 6.71965 4.07175C6.86872 4.13381 7.03542 4.13381 7.18449 4.07175C7.19167 4.0683 7.19946 4.06641 7.20738 4.06618C7.2153 4.06595 7.22317 4.06739 7.23053 4.07042C7.23788 4.07344 7.24456 4.07799 7.25014 4.08377C7.25572 4.08955 7.26009 4.09645 7.26297 4.10403C7.26617 4.11153 7.26789 4.1196 7.26805 4.12779C7.2682 4.13597 7.26677 4.14411 7.26386 4.15172C7.26094 4.15934 7.25658 4.16629 7.25104 4.17217C7.24551 4.17805 7.23889 4.18274 7.23158 4.18598C7.14132 4.2246 7.04439 4.24403 6.94664 4.2431Z" fill="#231F20"/>
<path d="M8.75124 3.01294C8.75124 3.01294 9.20523 3.676 9.10381 3.7952C9.00239 3.9144 8.70898 3.84362 8.70898 3.84362" fill="white"/>
<path d="M8.88797 3.92659C8.8234 3.92605 8.75905 3.91856 8.69599 3.90424C8.68807 3.90245 8.68056 3.89907 8.6739 3.89429C8.66724 3.88951 8.66157 3.88343 8.6572 3.8764C8.65282 3.86937 8.64984 3.86152 8.64842 3.8533C8.64699 3.84508 8.64716 3.83665 8.6489 3.8285C8.65065 3.82035 8.65394 3.81263 8.65858 3.80578C8.66323 3.79894 8.66914 3.7931 8.67598 3.7886C8.68282 3.78411 8.69045 3.78104 8.69844 3.77958C8.70643 3.77811 8.71463 3.77828 8.72256 3.78008C8.82277 3.80367 9.00267 3.81608 9.05822 3.75028C9.08357 3.68944 8.91695 3.35916 8.69599 3.04502C8.68784 3.0315 8.68504 3.01528 8.68817 2.9997C8.6913 2.98413 8.70013 2.97038 8.71283 2.9613C8.72553 2.95222 8.74114 2.9485 8.75643 2.95091C8.77172 2.95332 8.78552 2.96167 8.795 2.97424C8.9749 3.23623 9.25865 3.69564 9.14394 3.83223C9.10967 3.86489 9.06932 3.89009 9.02533 3.90631C8.98134 3.92252 8.93462 3.92942 8.88797 3.92659Z" fill="#231F20"/>
<path d="M8.49972 2.87565C8.50489 2.78939 8.46053 2.71639 8.40063 2.71259C8.34073 2.70878 8.28798 2.77563 8.2828 2.86189C8.27763 2.94814 8.322 3.02115 8.3819 3.02495C8.44179 3.02875 8.49455 2.96191 8.49972 2.87565Z" fill="#231F20"/>
<path d="M9.33335 3.02723C9.39322 3.0229 9.43698 2.94951 9.43108 2.86331C9.42519 2.77711 9.37189 2.71074 9.31202 2.71507C9.25215 2.71939 9.20839 2.79278 9.21428 2.87898C9.22017 2.96518 9.27348 3.03155 9.33335 3.02723Z" fill="#231F20"/>
<path d="M8.77347 4.32413C8.52233 4.32413 8.19271 4.2844 7.97537 4.10436C7.96286 4.0939 7.95483 4.0788 7.95302 4.06231C7.95122 4.04583 7.95577 4.02927 7.96572 4.0162C7.97064 4.00982 7.97676 4.00452 7.98371 4.00061C7.99066 3.99671 7.9983 3.99428 8.00619 3.99347C8.01407 3.99266 8.02203 3.99348 8.02959 3.99589C8.03716 3.99831 8.04418 4.00226 8.05023 4.00751C8.39434 4.29185 9.10188 4.17637 9.10912 4.17513C9.12514 4.1725 9.14151 4.17651 9.15464 4.18629C9.16777 4.19607 9.17659 4.21082 9.17915 4.22728C9.18172 4.24375 9.17781 4.26058 9.1683 4.27409C9.15879 4.2876 9.14445 4.29666 9.12844 4.2993C9.01089 4.31674 8.89223 4.32504 8.77347 4.32413Z" fill="#231F20"/>
<path d="M9.59096 3.70321C9.47218 3.70359 9.35477 3.67718 9.24699 3.62585C9.13921 3.57452 9.04368 3.49951 8.96713 3.40611C8.89058 3.31271 8.83488 3.20319 8.80394 3.08526C8.77299 2.96732 8.76757 2.84385 8.78804 2.72353C8.82574 2.50556 8.94589 2.31184 9.12217 2.18478C9.29845 2.05772 9.51651 2.00766 9.7286 2.04557C9.93004 2.07979 10.1115 2.19085 10.2369 2.3566C10.3622 2.52236 10.4222 2.73061 10.4048 2.93981C10.3874 3.14902 10.294 3.3438 10.1431 3.4853C9.9923 3.6268 9.79513 3.70461 9.59096 3.70321ZM8.90757 2.74588C8.88375 2.88444 8.90048 3.02716 8.95565 3.15594C9.01082 3.28471 9.10195 3.39372 9.21746 3.46915C9.33297 3.54457 9.46767 3.58301 9.60446 3.57959C9.74125 3.57616 9.87397 3.53103 9.98578 3.44991C10.0603 3.39613 10.1239 3.32777 10.1727 3.24872C10.2216 3.16968 10.2548 3.08152 10.2705 2.98926C10.2862 2.89701 10.284 2.80248 10.2642 2.71108C10.2444 2.61967 10.2072 2.53319 10.1548 2.45656C10.0761 2.34155 9.966 2.2531 9.83843 2.2024C9.71086 2.15171 9.57154 2.14103 9.43807 2.17172C9.3046 2.20242 9.18298 2.2731 9.08855 2.37485C8.99413 2.4766 8.93115 2.60485 8.90757 2.74339V2.74588Z" fill="#231F20"/>
<path d="M8.01348 3.64376C7.96613 3.64395 7.91885 3.63979 7.87221 3.63135C7.76412 3.61591 7.66016 3.57825 7.56653 3.5206C7.47291 3.46295 7.39153 3.38649 7.32726 3.29579C7.26299 3.2051 7.21714 3.10201 7.19245 2.9927C7.16777 2.88338 7.16474 2.77007 7.18356 2.65953C7.20238 2.54899 7.24266 2.44347 7.302 2.34929C7.36134 2.2551 7.43852 2.17417 7.52893 2.11133C7.61934 2.04848 7.72114 2.00501 7.82824 1.9835C7.93535 1.962 8.04557 1.9629 8.15233 1.98615C8.31044 2.01476 8.45677 2.09088 8.57285 2.20493C8.68893 2.31897 8.76956 2.46583 8.80457 2.62695C8.83957 2.78807 8.82738 2.95625 8.76953 3.11026C8.71168 3.26426 8.61077 3.3972 8.47953 3.49228C8.34294 3.59069 8.18025 3.64357 8.01348 3.64376ZM8.01348 2.0979C7.88738 2.09847 7.76383 2.13448 7.65619 2.20202C7.54855 2.26956 7.4609 2.36607 7.40272 2.48113C7.34455 2.59618 7.31806 2.72539 7.32611 2.85481C7.33416 2.98422 7.37646 3.10891 7.44842 3.21539C7.5006 3.29223 7.56705 3.35769 7.64394 3.408C7.72083 3.45831 7.80664 3.49247 7.89643 3.50851C7.98622 3.52456 8.07821 3.52217 8.1671 3.50148C8.25598 3.48079 8.34001 3.44222 8.41433 3.38798C8.48889 3.3342 8.55241 3.26584 8.60126 3.1868C8.65011 3.10776 8.68334 3.0196 8.69903 2.92735C8.71473 2.83509 8.7126 2.74057 8.69275 2.64916C8.6729 2.55776 8.63573 2.47128 8.58337 2.39466C8.51983 2.30063 8.43492 2.22399 8.33602 2.17141C8.23712 2.11882 8.12723 2.09188 8.01589 2.09294L8.01348 2.0979Z" fill="#231F20"/>
<path d="M8.80104 4.96969C8.80104 4.96969 8.00779 5.15842 7.54053 4.88525C7.54053 4.88525 8.05729 5.98412 8.80104 5.86989V4.96969Z" fill="#231F20"/>
<path d="M8.68969 5.93959C7.97733 5.93959 7.50645 4.95497 7.48231 4.91152C7.47618 4.89976 7.47416 4.8862 7.47658 4.8731C7.479 4.85999 7.4857 4.84814 7.49559 4.8395C7.5047 4.83033 7.51651 4.82451 7.52917 4.82294C7.54183 4.82137 7.55464 4.82413 7.56562 4.83081C8.00752 5.09031 8.773 4.91152 8.78266 4.91027C8.7915 4.90803 8.80072 4.90786 8.80963 4.9098C8.81854 4.91174 8.82691 4.91572 8.83411 4.92145C8.84131 4.92718 8.84715 4.93452 8.85121 4.9429C8.85526 4.95129 8.85742 4.96051 8.85752 4.96987V5.86881C8.85737 5.88366 8.85205 5.89797 8.84253 5.90913C8.833 5.92029 8.8199 5.92758 8.8056 5.92965C8.76724 5.93582 8.72851 5.93914 8.68969 5.93959ZM7.68152 5.01705C7.84814 5.29766 8.24296 5.85019 8.7404 5.81294V5.04685C8.55567 5.08162 8.0691 5.15239 7.68152 5.01705Z" fill="#231F20"/>
<path d="M4.48594 5.7545C3.83757 5.87867 1.21148 12.117 2.11099 12.8323C3.51399 13.9498 8.39549 12.8198 8.39549 12.8198L7.99826 10.8828C7.99826 10.8828 4.85903 10.9734 4.81436 10.3103C4.76968 9.64727 6.63994 6.58521 6.39484 6.12081C6.14974 5.65641 4.48594 5.7545 4.48594 5.7545Z" fill="#0064FF"/>
<path d="M6.01545 13.4592C6.00752 13.46 5.99953 13.4591 5.99193 13.4566C5.98433 13.4542 5.97728 13.4502 5.97117 13.445C5.96506 13.4397 5.96001 13.4333 5.95632 13.4261C5.95262 13.4188 5.95036 13.4109 5.94964 13.4027C5.94893 13.3946 5.94978 13.3864 5.95216 13.3785C5.95453 13.3707 5.95838 13.3635 5.96348 13.3572C5.96858 13.3509 5.97484 13.3457 5.98189 13.3419C5.98894 13.3381 5.99665 13.3358 6.00458 13.3351L7.48123 13.0743L7.52711 11.3049L4.75009 11.0106C4.74139 11.01 4.73294 11.0073 4.7254 11.0028C4.71786 10.9983 4.71144 10.992 4.70663 10.9845C4.7015 10.977 4.69807 10.9685 4.69661 10.9594C4.69514 10.9504 4.69568 10.9412 4.69818 10.9324L5.93455 6.57278C5.93903 6.55697 5.94944 6.54364 5.96348 6.53572C5.97752 6.52781 5.99404 6.52595 6.00941 6.53056C6.0246 6.53545 6.03736 6.54619 6.04501 6.56055C6.05267 6.5749 6.05462 6.59174 6.05046 6.60755L4.84306 10.8964L7.59714 11.1882C7.61229 11.1897 7.62631 11.1971 7.63639 11.2089C7.64646 11.2206 7.65185 11.2358 7.65147 11.2515L7.60317 13.1289C7.60279 13.1434 7.59752 13.1572 7.58826 13.1681C7.579 13.179 7.56634 13.1862 7.55246 13.1885L6.02752 13.4592H6.01545Z" fill="#231F20"/>
<path d="M7.65495 11.5297C8.17695 11.5621 8.70084 11.5359 9.21732 11.4515C9.59868 11.3563 9.99004 11.31 10.3825 11.3137C10.9003 11.3394 11.4096 11.4592 11.8869 11.6676C11.9066 11.6741 11.9242 11.6861 11.9376 11.7023C11.9835 11.7681 11.8736 11.8265 11.7951 11.8352C11.5875 11.8401 11.3803 11.8129 11.1805 11.7545C11.6743 11.9429 12.1413 12.1985 12.5691 12.5144C12.6186 12.5504 12.6717 12.6063 12.6475 12.6634C12.6234 12.7205 12.5268 12.7093 12.4604 12.6795L11.3375 12.1518C11.6285 12.2707 11.8982 12.4386 12.1356 12.6485C12.1694 12.6795 12.2056 12.7193 12.196 12.7652C12.1803 12.8422 12.068 12.8273 11.998 12.7925C11.6567 12.6177 11.3307 12.4129 11.0236 12.1804L11.7166 12.7255C11.7251 12.7838 11.6659 12.8335 11.608 12.836C11.5507 12.8318 11.4956 12.8117 11.4486 12.7776L10.6759 12.3182L11.1588 12.6659C11.2349 12.7205 11.3206 12.8087 11.2796 12.8956C11.2385 12.9825 11.0876 12.9664 10.9874 12.9204C10.5895 12.7427 10.1736 12.6111 9.74737 12.528C9.59825 12.4776 9.44383 12.4455 9.28735 12.4324C9.04856 12.463 8.81296 12.5158 8.58344 12.5901C8.2345 12.6708 7.88556 12.754 7.53662 12.8385" fill="white"/>
<path d="M11.1609 13.0224C11.0941 13.019 11.0285 13.0025 10.9677 12.974C10.5738 12.7973 10.1619 12.6665 9.73976 12.5841C9.68663 12.5741 9.63472 12.558 9.5828 12.5431C9.48957 12.5098 9.39172 12.4921 9.29302 12.4909C9.13184 12.505 8.97269 12.5375 8.81851 12.5878C8.74366 12.6089 8.67001 12.63 8.59877 12.6462C8.24983 12.7281 7.90089 12.8101 7.55195 12.8945C7.53774 12.8975 7.52292 12.8949 7.51057 12.887C7.49822 12.8791 7.48926 12.8667 7.48555 12.8523C7.48376 12.845 7.48341 12.8375 7.48452 12.8301C7.48563 12.8227 7.48817 12.8156 7.492 12.8092C7.49583 12.8028 7.50087 12.7973 7.50681 12.793C7.51276 12.7886 7.51949 12.7856 7.5266 12.784C7.87554 12.6996 8.22568 12.6176 8.57462 12.5357C8.64344 12.5195 8.71589 12.4996 8.78954 12.4785C8.95187 12.4252 9.11957 12.3911 9.2894 12.3767C9.39938 12.3795 9.50838 12.3988 9.61298 12.4338C9.66249 12.4487 9.71078 12.4636 9.76149 12.4736C10.1919 12.557 10.6119 12.6899 11.0136 12.8697C11.0713 12.9025 11.1382 12.9139 11.2031 12.902C11.2096 12.8999 11.2156 12.8964 11.2206 12.8916C11.2256 12.8869 11.2295 12.8811 11.2321 12.8746C11.2575 12.815 11.1572 12.7368 11.1259 12.7132L10.6429 12.3668C10.6311 12.3582 10.6229 12.3454 10.62 12.3309C10.6171 12.3163 10.6197 12.3012 10.6272 12.2886C10.6351 12.2763 10.6473 12.2677 10.6612 12.2644C10.6752 12.2612 10.6898 12.2636 10.7021 12.2712L11.4748 12.7306C11.5127 12.7596 11.558 12.7769 11.6052 12.7803C11.6145 12.7797 11.6235 12.7772 11.6318 12.7729C11.6401 12.7687 11.6475 12.7627 11.6535 12.7554L10.9858 12.2302C10.979 12.2261 10.9732 12.2206 10.9687 12.2141C10.9641 12.2075 10.961 12.2 10.9595 12.1921C10.9579 12.1842 10.9581 12.1761 10.9598 12.1682C10.9615 12.1604 10.9649 12.153 10.9696 12.1466C10.9743 12.1402 10.9803 12.1348 10.9871 12.1309C10.994 12.127 11.0016 12.1247 11.0094 12.124C11.0172 12.1234 11.025 12.1244 11.0324 12.1271C11.0398 12.1298 11.0465 12.134 11.0522 12.1395C11.3565 12.3703 11.6797 12.5735 12.0181 12.7467C12.0525 12.7668 12.093 12.773 12.1316 12.7641C12.1389 12.7517 12.1316 12.7343 12.0942 12.6971C11.9318 12.5521 11.7535 12.4271 11.5629 12.3246L11.3094 12.2004C11.2976 12.1934 11.2886 12.1822 11.2843 12.169C11.28 12.1557 11.2806 12.1412 11.2859 12.1283C11.2913 12.1155 11.3011 12.1051 11.3134 12.0991C11.3258 12.0932 11.3398 12.0921 11.3528 12.0961C11.441 12.1321 11.5267 12.1731 11.6112 12.2203L12.4781 12.6288C12.5107 12.6467 12.5479 12.6532 12.5844 12.6474C12.5989 12.6251 12.5735 12.5903 12.5325 12.5605C12.1084 12.2475 11.6455 11.9944 11.156 11.808C11.1427 11.803 11.1318 11.7927 11.1257 11.7795C11.1196 11.7662 11.1188 11.7511 11.1234 11.7372C11.1279 11.7233 11.1374 11.7116 11.15 11.7047C11.1626 11.6977 11.1773 11.6961 11.1911 11.7C11.3848 11.7575 11.586 11.7839 11.7875 11.7782C11.8064 11.7782 11.8251 11.7741 11.8423 11.7662C11.8596 11.7583 11.8751 11.7467 11.8877 11.7323L11.86 11.7199C11.389 11.5135 10.8862 11.395 10.3749 11.3697C10.0349 11.3638 9.69545 11.4009 9.36426 11.4802L9.22179 11.5075C8.70287 11.5919 8.17663 11.6186 7.65217 11.587C7.64487 11.5867 7.63771 11.5849 7.63109 11.5817C7.62447 11.5785 7.61852 11.5741 7.61359 11.5685C7.60865 11.563 7.60483 11.5565 7.60233 11.5494C7.59984 11.5424 7.59872 11.5349 7.59904 11.5274C7.59903 11.5199 7.60051 11.5125 7.6034 11.5056C7.6063 11.4987 7.61054 11.4925 7.61586 11.4874C7.62118 11.4823 7.62748 11.4783 7.63435 11.4758C7.64122 11.4733 7.64852 11.4722 7.65579 11.4728C8.17335 11.5043 8.6927 11.4785 9.20488 11.3958L9.34735 11.3685C9.68683 11.2872 10.0348 11.2496 10.3833 11.2567C10.9078 11.2829 11.4237 11.4044 11.907 11.6156C11.9361 11.6257 11.9616 11.6442 11.9807 11.6689C11.9924 11.6852 11.9996 11.7045 12.0013 11.7247C12.003 11.7448 11.9992 11.7651 11.9903 11.7832C11.9685 11.816 11.9394 11.8429 11.9053 11.8617C11.8713 11.8805 11.8334 11.8906 11.7948 11.8912C11.7416 11.8912 11.6885 11.8912 11.6366 11.8912C11.9755 12.0525 12.2989 12.2463 12.6025 12.4698C12.6943 12.5369 12.7293 12.6164 12.6991 12.6871C12.6926 12.7029 12.6831 12.717 12.671 12.7288C12.659 12.7405 12.6447 12.7496 12.6291 12.7554C12.5649 12.7721 12.4971 12.7642 12.4383 12.7331L12.169 12.6089C12.1954 12.6278 12.2165 12.6534 12.2302 12.6833C12.244 12.7131 12.2499 12.7461 12.2475 12.779C12.2437 12.7975 12.2358 12.8148 12.2245 12.8296C12.2132 12.8444 12.1988 12.8564 12.1823 12.8647C12.1477 12.877 12.111 12.8815 12.0746 12.8781C12.0382 12.8747 12.0029 12.8633 11.971 12.8448C11.9034 12.8113 11.837 12.7753 11.7694 12.738C11.7698 12.7717 11.7582 12.8044 11.7368 12.8299C11.7207 12.8492 11.701 12.8649 11.6787 12.8761C11.6565 12.8872 11.6323 12.8934 11.6076 12.8945C11.5397 12.8921 11.4739 12.8697 11.418 12.8299L11.3251 12.7741C11.3358 12.7969 11.3413 12.8219 11.3413 12.8473C11.3413 12.8727 11.3358 12.8977 11.3251 12.9206C11.3168 12.9408 11.3047 12.959 11.2893 12.9742C11.2739 12.9893 11.2557 13.0011 11.2357 13.0087C11.2117 13.0175 11.1864 13.0221 11.1609 13.0224Z" fill="#231F20"/>
<path d="M9.74023 6.82593C9.74023 6.82593 10.315 9.23611 10.8269 10.9509L9.74023 6.82593Z" fill="white"/>
<path d="M10.8316 11.0067C10.8199 11.0067 10.8086 11.0028 10.7993 10.9956C10.7899 10.9885 10.783 10.9784 10.7797 10.967C10.2677 9.27204 9.69301 6.86934 9.68577 6.83954C9.68397 6.8322 9.68361 6.82457 9.6847 6.81708C9.6858 6.8096 9.68833 6.80241 9.69215 6.79594C9.69597 6.78947 9.701 6.78385 9.70695 6.77939C9.7129 6.77494 9.71966 6.77175 9.72682 6.77C9.74106 6.76664 9.75602 6.76919 9.76845 6.77709C9.78088 6.78499 9.78978 6.79761 9.79322 6.81222C9.79926 6.83581 10.374 9.241 10.8799 10.9334C10.8841 10.9478 10.8826 10.9632 10.8758 10.9764C10.8691 10.9897 10.8575 10.9996 10.8437 11.0042C10.8398 11.0057 10.8357 11.0065 10.8316 11.0067Z" fill="#231F20"/>
<path d="M16.6331 13.8591L16.6029 14.1969L9.21729 15.307L9.29094 14.9531L16.6331 13.8591Z" fill="white"/>
<path d="M9.21741 15.3689C9.20905 15.3689 9.2008 15.367 9.19313 15.3636C9.18546 15.3602 9.17852 15.3553 9.17274 15.3491C9.16611 15.3419 9.16131 15.3332 9.15878 15.3236C9.15625 15.3141 9.15607 15.3041 9.15825 15.2944L9.2319 14.9393C9.23495 14.9271 9.24135 14.916 9.25034 14.9074C9.25933 14.8988 9.27053 14.8931 9.28261 14.8909L16.6248 13.7981C16.6337 13.7969 16.6427 13.7978 16.6513 13.8006C16.6598 13.8034 16.6677 13.808 16.6743 13.8143C16.6809 13.8208 16.686 13.8288 16.6893 13.8376C16.6927 13.8464 16.6941 13.8558 16.6936 13.8652L16.6634 14.2017C16.6622 14.2155 16.6566 14.2285 16.6474 14.2386C16.6382 14.2487 16.626 14.2554 16.6127 14.2576L9.22586 15.3751L9.21741 15.3689ZM9.33815 15.0076L9.29106 15.2323L16.5439 14.1421L16.562 13.9322L9.33815 15.0076Z" fill="#231F20"/>
<path d="M16.6336 13.8589C16.6336 13.8589 14.9517 12.3763 14.8962 12.39C14.8406 12.4036 7.28955 13.3349 7.28955 13.3349L9.29504 14.9491L16.6336 13.8589Z" fill="white"/>
<path d="M9.29064 15.0152C9.27737 15.0152 9.26452 15.0104 9.25442 15.0015L7.24772 13.3873C7.23832 13.3798 7.23131 13.3695 7.2276 13.3578C7.22388 13.3461 7.22363 13.3335 7.22686 13.3217C7.23009 13.3099 7.23667 13.2993 7.24576 13.2913C7.25485 13.2833 7.26604 13.2783 7.27791 13.2768C7.35277 13.2681 14.7638 12.3543 14.8845 12.3332C14.9183 12.3257 14.9678 12.3121 16.6727 13.8157C16.6815 13.8235 16.688 13.8337 16.6914 13.8451C16.6948 13.8566 16.695 13.8687 16.692 13.8803C16.6886 13.8917 16.6821 13.902 16.6734 13.9098C16.6646 13.9177 16.6539 13.923 16.6425 13.925L9.30151 15.0177L9.29064 15.0152ZM7.43729 13.3787L9.30754 14.8873L16.4928 13.8182C15.8891 13.2905 15.0173 12.5331 14.8869 12.4524C14.4933 12.5095 8.9248 13.1949 7.43729 13.3787Z" fill="#231F20"/>
<path d="M9.2169 15.3067L7.25488 13.6714L7.28507 13.335L9.29055 14.9528L9.2169 15.3067Z" fill="white"/>
<path d="M9.21731 15.3689C9.20331 15.3689 9.18971 15.3641 9.17867 15.3552L7.21785 13.72C7.21022 13.7135 7.20417 13.7054 7.20018 13.6961C7.19619 13.6868 7.19439 13.6767 7.19491 13.6666L7.2251 13.3288C7.22636 13.3178 7.23042 13.3073 7.23687 13.2984C7.24331 13.2895 7.25192 13.2825 7.26182 13.2781C7.27173 13.2737 7.28258 13.2721 7.2933 13.2734C7.30402 13.2746 7.31423 13.2788 7.3229 13.2854L9.32839 14.8995C9.33721 14.9068 9.34391 14.9165 9.34774 14.9274C9.35158 14.9384 9.3524 14.9502 9.35012 14.9616L9.27647 15.3167C9.2741 15.3271 9.26919 15.3366 9.26222 15.3444C9.25524 15.3523 9.24643 15.3581 9.23663 15.3614C9.23071 15.3652 9.22415 15.3677 9.21731 15.3689ZM7.31807 13.6442L9.17867 15.1913L9.22455 14.974L7.33497 13.453L7.31807 13.6442Z" fill="#231F20"/>
<path d="M16.6332 13.8593L18.0519 8.96826L10.2666 10.3329L9.29102 14.9532L16.6332 13.8593Z" fill="white"/>
<path d="M9.29111 15.0151C9.28294 15.015 9.27487 15.0132 9.2674 15.0098C9.25993 15.0063 9.25321 15.0014 9.24765 14.9952C9.24104 14.9878 9.23619 14.9789 9.23347 14.9692C9.23075 14.9595 9.23023 14.9493 9.23195 14.9394L10.2075 10.3202C10.2098 10.308 10.2157 10.2969 10.2243 10.2882C10.2329 10.2796 10.2439 10.2738 10.2558 10.2718L18.0423 8.9059C18.0524 8.90389 18.0628 8.90461 18.0726 8.908C18.0823 8.91138 18.091 8.91731 18.0978 8.92521C18.1046 8.9331 18.1093 8.94268 18.1115 8.95301C18.1136 8.96334 18.1131 8.97406 18.11 8.98412L16.6913 13.8765C16.6875 13.8876 16.681 13.8975 16.6723 13.9051C16.6636 13.9128 16.653 13.9179 16.6418 13.9199L9.30077 15.0126L9.29111 15.0151ZM10.3174 10.3873L9.36959 14.8785L16.5862 13.8032L17.9663 9.04621L10.3174 10.3873Z" fill="#231F20"/>
<path d="M20.8072 6.51704C20.7925 6.51712 20.7783 6.51156 20.7673 6.50146C20.7564 6.49136 20.7495 6.47744 20.748 6.4624C20.707 6.05137 21.0052 5.54597 21.0185 5.52486C21.0226 5.51782 21.028 5.51168 21.0344 5.5068C21.0408 5.50192 21.0481 5.49839 21.0558 5.49643C21.0636 5.49447 21.0716 5.4941 21.0795 5.49536C21.0874 5.49662 21.095 5.49947 21.1018 5.50375C21.1152 5.51268 21.1247 5.5266 21.1283 5.54258C21.1319 5.55856 21.1293 5.57536 21.1211 5.58943C21.1211 5.58943 20.8313 6.08614 20.8675 6.44874C20.8684 6.4569 20.8676 6.46515 20.8653 6.47301C20.8631 6.48087 20.8593 6.48819 20.8542 6.49454C20.8492 6.50089 20.843 6.50615 20.8359 6.51001C20.8289 6.51387 20.8212 6.51626 20.8132 6.51704H20.8072Z" fill="#231F20"/>
<path d="M25.7444 13.047C25.7329 13.0468 25.7216 13.0434 25.7118 13.0371L24.3632 12.1456C24.3495 12.1367 24.3399 12.1226 24.3364 12.1064C24.3329 12.0902 24.3358 12.0733 24.3444 12.0593C24.3531 12.0453 24.3668 12.0354 24.3825 12.0318C24.3983 12.0282 24.4147 12.0311 24.4284 12.04L25.777 12.9315C25.7905 12.9407 25.8 12.9549 25.8034 12.9712C25.8068 12.9875 25.8038 13.0044 25.7951 13.0185C25.7894 13.027 25.7819 13.034 25.7731 13.039C25.7643 13.0439 25.7545 13.0467 25.7444 13.047Z" fill="#D1D3D4"/>
<path d="M26.2317 12.8231C26.2202 12.8234 26.2089 12.8204 26.1991 12.8144L24.918 11.9626C24.9046 11.9536 24.8952 11.9394 24.8919 11.9232C24.8886 11.907 24.8917 11.8902 24.9005 11.8763C24.9093 11.8625 24.9231 11.8528 24.9389 11.8495C24.9546 11.8461 24.971 11.8493 24.9844 11.8583L26.2643 12.7039C26.2778 12.713 26.2873 12.7273 26.2907 12.7435C26.2941 12.7598 26.2911 12.7768 26.2824 12.7908C26.2772 12.8001 26.2699 12.8079 26.261 12.8135C26.2522 12.8192 26.2421 12.8225 26.2317 12.8231Z" fill="#D1D3D4"/>
<path d="M26.7018 12.6584C26.6902 12.658 26.679 12.6546 26.6692 12.6485L25.3736 11.7942C25.3602 11.7851 25.3508 11.7709 25.3475 11.7548C25.3442 11.7386 25.3473 11.7217 25.3561 11.7079C25.3649 11.694 25.3787 11.6844 25.3944 11.681C25.4102 11.6776 25.4266 11.6808 25.44 11.6899L26.7307 12.5442C26.7442 12.5531 26.7536 12.5671 26.757 12.5832C26.7604 12.5992 26.7575 12.616 26.7488 12.6298C26.7439 12.6382 26.737 12.6452 26.7288 12.6502C26.7206 12.6552 26.7113 12.658 26.7018 12.6584Z" fill="#D1D3D4"/>
<path d="M27.2918 12.4946C27.2812 12.4948 27.2707 12.4918 27.2616 12.4859L25.8719 11.6441C25.8642 11.6405 25.8574 11.6353 25.8517 11.6288C25.8461 11.6223 25.8419 11.6147 25.8393 11.6064C25.8367 11.5981 25.8359 11.5894 25.8368 11.5808C25.8377 11.5721 25.8404 11.5638 25.8446 11.5563C25.8488 11.5488 25.8546 11.5423 25.8614 11.5372C25.8683 11.5321 25.8761 11.5285 25.8843 11.5267C25.8926 11.5249 25.9012 11.5249 25.9094 11.5268C25.9177 11.5286 25.9255 11.5322 25.9323 11.5373L27.322 12.3791C27.3333 12.3861 27.3422 12.3966 27.3471 12.4091C27.3521 12.4217 27.3529 12.4356 27.3495 12.4487C27.3461 12.4617 27.3386 12.4733 27.3282 12.4816C27.3178 12.4899 27.305 12.4945 27.2918 12.4946Z" fill="#D1D3D4"/>
<path d="M27.7137 12.3468C27.7027 12.347 27.6918 12.344 27.6823 12.3381L26.2926 11.4962C26.279 11.4875 26.2693 11.4736 26.2655 11.4577C26.2616 11.4417 26.264 11.4248 26.2721 11.4105C26.276 11.4034 26.2812 11.3972 26.2875 11.3922C26.2938 11.3872 26.301 11.3836 26.3087 11.3817C26.3164 11.3797 26.3244 11.3794 26.3322 11.3807C26.3401 11.382 26.3475 11.385 26.3542 11.3894L27.7439 12.2313C27.7552 12.2382 27.7641 12.2488 27.769 12.2613C27.774 12.2739 27.7748 12.2877 27.7714 12.3008C27.768 12.3139 27.7605 12.3255 27.7501 12.3338C27.7397 12.3421 27.7269 12.3467 27.7137 12.3468Z" fill="#D1D3D4"/>
</svg>
