<svg id="Layer_1" data-name="Layer 1" xmlns="http://www.w3.org/2000/svg" viewBox="0 0 382 382"><defs><style>.cls-1{fill:#343b46;}.cls-2{fill:#fff;}.cls-3{fill:#d61f26;}.cls-4{fill:none;}</style></defs><path class="cls-1" d="M384,191.06A191,191,0,0,1,274.83,363.67q-3.69,1.74-7.45,3.34l-.37.15c-.91.38-1.83.77-2.74,1.13-2,.82-4.08,1.59-6.13,2.33L255,371.75h0c-5.06,1.74-10.23,3.26-15.47,4.57-2.93.74-5.9,1.41-8.88,2l-.48.09c-1,.19-1.94.38-2.91.55h0l-9.25,1.43h0a192.57,192.57,0,0,1-74.46-4.89q-4-1.06-7.86-2.29l-2.29-.74-.18-.06c-2.44-.8-4.83-1.65-7.21-2.55l-2.34-.9A191,191,0,0,1,2.13,191.06C2.13,85.62,87.61.13,193.06.13S384,85.62,384,191.06Z"/><path class="cls-2" d="M136.33,328.09A147.56,147.56,0,0,1,118.26,62.65l0,0L116.82,60l0,0a150.56,150.56,0,0,0,18.31,270.79Zm113.3,1.64c2-.85,4-1.73,5.85-2.62a150.58,150.58,0,0,0,9-267.46L263,62.21A147.58,147.58,0,0,1,254.2,324.4c-1.87.88-3.81,1.74-5.74,2.57l-.26.11Z"/><path class="cls-3" d="M131.08,59.9a15.29,15.29,0,0,1-2.44.83l2.2,4.82-3,1.38L120.1,50,122.41,49l1,1.47a5.87,5.87,0,0,1,3.25-3.79c3.41-1.56,6.12.37,7.61,3.64C136,54.05,135.39,57.93,131.08,59.9Zm-4-10.53c-1.1.51-1.72,1.47-2.22,3.18l2.53,5.54a5.78,5.78,0,0,0,2.51-.55c2.07-.95,2.48-2.87,1.3-5.46C130.26,49.93,128.92,48.55,127.12,49.37Z"/><path class="cls-3" d="M145.31,54.42c-4.2,1.4-7.24-.35-8.56-4.31-1.38-4.15.07-7.67,4.37-9.1s7.23.4,8.57,4.41S149.61,53,145.31,54.42Zm-3.56-10.86c-2.17.72-2.6,2.78-1.81,5.14.86,2.58,2.4,3.92,4.71,3.15,2.16-.72,2.62-2.7,1.83-5.06C145.61,44.16,144.08,42.78,141.75,43.56Z"/><path class="cls-3" d="M169.85,34.42a113.57,113.57,0,0,1-1.27,13.83l-3.64.73-3.63-7.18-.66-1.34h0l-.07,1.5-.49,8-3.73.75A110.12,110.12,0,0,1,150,38.39l3.36-.67c1,2.61,2.23,5.1,3.43,7.5.3.58.64,1.22.95,1.85h0l.1-2,.5-8.31,3.3-.66,3.78,7.49.86,1.8h0c.07-.73.09-1.44.14-2.11.19-2.74.3-5.48.26-8.2Z"/><path class="cls-3" d="M185.11,40.71l-8.78.69c.18,2.32,1.24,3.62,4,3.4a16.9,16.9,0,0,0,4.32-.91l.52,2.38A17.87,17.87,0,0,1,180,47.43c-4.47.35-6.77-1.71-7.13-6.36-.35-4.39,1.76-7.31,6-7.64,4-.31,5.9,1.93,6.2,5.73C185.06,39.49,185.09,40.19,185.11,40.71Zm-3.4-1.89c-.08-2-1-3.17-2.86-3-2,.15-2.77,1.85-2.69,3.46Z"/><path class="cls-3" d="M196,36.36a7.63,7.63,0,0,0-1.37-.2c-.86,0-1.65.7-2.92,2.26l-.13,8.24-3.32-.06.22-13.32,2.59,0,.28,2.23c1.32-1.77,2.14-2.56,3.51-2.53a6,6,0,0,1,1.58.2Z"/><path class="cls-3" d="M209.64,41.74,200.87,41c-.2,2.33.64,3.77,3.38,4a16.88,16.88,0,0,0,4.41-.2l.14,2.43a18.35,18.35,0,0,1-5.28.31c-4.47-.37-6.4-2.77-6-7.42.36-4.38,2.92-6.93,7.12-6.58,4,.33,5.51,2.85,5.2,6.65C209.8,40.54,209.71,41.23,209.64,41.74Zm-3-2.41c.24-1.95-.51-3.29-2.34-3.44-2-.17-3,1.38-3.22,3Z"/><path class="cls-3" d="M221.05,49.74l.06-1.76a5.88,5.88,0,0,1-4.84,1.24c-3.69-.69-4.82-3.83-4.16-7.37.76-4.07,3.47-6.91,8.11-6.05a11.94,11.94,0,0,1,2.47.73l1.13-6,3.26.61-3.56,19.1Zm1.11-10.36a5.78,5.78,0,0,0-2.37-1c-2.22-.41-3.65.93-4.17,3.73-.44,2.32-.13,4.22,1.78,4.58,1.2.22,2.28-.21,3.64-1.33Z"/><path class="cls-3" d="M238.32,54.83a19.91,19.91,0,0,1-4.94-2.66l6.23-17.73,3.13,1.1-2.48,7a5.56,5.56,0,0,1,4.43-.25c3.48,1.22,4.08,4.5,2.89,7.88C246.15,54.29,243,56.49,238.32,54.83Zm4.82-10.19c-1.15-.41-2.33-.16-3.85.73l-2,5.77a6.42,6.42,0,0,0,2.15,1.3c2.17.77,3.82-.33,4.77-3C245,47.2,245,45.27,243.14,44.64Z"/><path class="cls-3" d="M263.08,50.6a68.76,68.76,0,0,1-9.49,10.27c-3.79,3.1-5.92,3.45-7.92,2.52a6.08,6.08,0,0,1-1.51-1l1.09-2.18,1.44.67c.87.4,1.74.06,3.68-1.46a80.62,80.62,0,0,1,1.43-14L255,46.83c-.59,2.93-1,5.77-1.27,8.58-.07.57-.15,1.19-.21,1.73l0,0,1.2-1.3a77.73,77.73,0,0,0,5.43-6.63Z"/><path class="cls-2" d="M91.53,183.31H84.09l4.84-24.86h7.52c6.51,0,9.86,3.31,9.86,8.94C106.31,173.91,102.93,183.31,91.53,183.31Zm4.38-22h-4l-3.74,19.08H92c8.4,0,10.79-7.72,10.79-12.57C102.75,164,100.68,161.34,95.91,161.34Z"/><path class="cls-2" d="M112.11,175.33a12.06,12.06,0,0,0-.14,1.82c0,2.71,1.1,3.95,4.27,3.95a16.18,16.18,0,0,0,5.38-1v2.64a20.53,20.53,0,0,1-6.2,1c-4.84,0-6.87-2.14-6.87-6.13,0-5.91,2.89-12.89,10.26-12.89,4,0,5.73,1.92,5.73,4.38C124.54,171.91,122.83,175.08,112.11,175.33Zm6.41-8.08c-2.88,0-5,2.28-5.91,5.63,7.2,0,8.55-1.82,8.55-3.53C121.16,168.14,120.27,167.25,118.52,167.25Z"/><path class="cls-2" d="M130.81,178.86c-.25,1.24,0,2,1.07,2h1.38l-.49,2.49a10.07,10.07,0,0,1-2.25.28c-2.24,0-3.74-1-3.17-4l4.49-23h3.28Z"/><path class="cls-2" d="M140.6,183.31h-3.35l3.06-15.6h-3l.5-2.56h6.3Zm2.7-21.62a2.06,2.06,0,0,1-2.13-2.06,2.26,2.26,0,0,1,2.31-2.39,2.08,2.08,0,0,1,2.18,2.07A2.29,2.29,0,0,1,143.3,161.69Z"/><path class="cls-2" d="M163.53,165.15a188.57,188.57,0,0,1-9.61,18.16h-3.46a119.82,119.82,0,0,1-2.71-18.16h3.32c.32,4.16.74,8.19,1.39,12.07.14.89.28,1.78.39,2.6h.07c.43-.82.92-1.82,1.35-2.6,2.14-3.95,4.13-8.05,5.88-12.07Z"/><path class="cls-2" d="M167.27,175.33a11,11,0,0,0-.15,1.82c0,2.71,1.11,3.95,4.28,3.95a16.22,16.22,0,0,0,5.38-1v2.64a20.53,20.53,0,0,1-6.2,1c-4.84,0-6.87-2.14-6.87-6.13,0-5.91,2.88-12.89,10.25-12.89,4,0,5.74,1.92,5.74,4.38C179.7,171.91,178,175.08,167.27,175.33Zm6.41-8.08c-2.89,0-5,2.28-5.91,5.63,7.19,0,8.54-1.82,8.54-3.53C176.31,168.14,175.42,167.25,173.68,167.25Z"/><path class="cls-2" d="M194.29,168.17a5.34,5.34,0,0,0-1.6-.32c-1.89,0-5.34,4-6,7.41l-1.6,8.05h-3.28l3.53-18.16h2.53l-.39,4.13c1.74-2.64,3.81-4.56,5.7-4.56a6.53,6.53,0,0,1,2.24.32Z"/><path class="cls-2" d="M212.67,165.15a132.16,132.16,0,0,1-9.44,18.16c-3.95,6-6.3,7.8-9,7.8a7.3,7.3,0,0,1-2.1-.36l.57-2.49h1.92c1.28,0,2.56-1.1,5.2-4.95a107.48,107.48,0,0,1-2.92-18.16h3.31a113.61,113.61,0,0,0,1.57,12.1c.14.86.25,1.86.39,2.68h.07c.43-.86.93-1.78,1.39-2.64,2.06-3.88,4-8.12,5.66-12.14Z"/><path class="cls-2" d="M240.55,183.31h-3.49l2.21-11.43H228.48l-2.21,11.43h-3.53l4.85-24.86h3.52l-2,10.4h10.79l2-10.4h3.49Z"/><path class="cls-2" d="M250.45,175.33a11,11,0,0,0-.15,1.82c0,2.71,1.11,3.95,4.28,3.95a16.12,16.12,0,0,0,5.37-1v2.64a20.47,20.47,0,0,1-6.19,1c-4.85,0-6.88-2.14-6.88-6.13,0-5.91,2.89-12.89,10.26-12.89,3.95,0,5.73,1.92,5.73,4.38C262.87,171.91,261.17,175.08,250.45,175.33Zm6.41-8.08c-2.89,0-5,2.28-5.92,5.63,7.2,0,8.55-1.82,8.55-3.53C259.49,168.14,258.6,167.25,256.86,167.25Z"/><path class="cls-2" d="M277.47,168.17a5.4,5.4,0,0,0-1.6-.32c-1.89,0-5.34,4-6,7.41l-1.6,8.05H265l3.53-18.16H271l-.4,4.13c1.75-2.64,3.82-4.56,5.7-4.56a6.63,6.63,0,0,1,2.25.32Z"/><path class="cls-2" d="M285.27,183.74c-4.88,0-7-2.74-7-7,0-6.27,3.95-12,10.68-12,4.85,0,7,2.78,7,7C295.92,178,292,183.74,285.27,183.74Zm3.2-16.31c-4.13,0-6.69,4.13-6.69,9.08,0,2.6.93,4.52,3.92,4.52,4.13,0,6.66-4.1,6.66-8.94C292.36,169.31,291.39,167.43,288.47,167.43Z"/><path class="cls-2" d="M91.85,202.39H86.19l-3.63,18.66H74.9l3.63-18.66H72.87l1.21-6.19h19Z"/><path class="cls-2" d="M95.73,214.14a5.23,5.23,0,0,0-.07.68c0,1.14.79,1.53,2.85,1.53a21.67,21.67,0,0,0,6-1v5.23a24.69,24.69,0,0,1-7.48,1.1c-5.77,0-8.55-1.56-8.55-6.8s2.39-13.14,11.58-13.14c5.84,0,7.58,2.64,7.58,5.41C107.66,210.76,104.57,213.82,95.73,214.14Zm3.81-7.47c-1.67,0-2.63,1.38-3,3,3.31,0,4.31-1,4.31-1.89A1.18,1.18,0,0,0,99.54,206.67Z"/><path class="cls-2" d="M122.19,208.23a5.47,5.47,0,0,0-2.31-.53c-3.1,0-3.92,3.74-3.92,5.55,0,1.43.64,2.28,2.21,2.28a8.47,8.47,0,0,0,3.06-.64l.21,5.52a14.29,14.29,0,0,1-5.59,1.21c-4.88,0-7.44-2.42-7.44-7,0-7,4-12.79,11.11-12.79a12.33,12.33,0,0,1,5,.93Z"/><path class="cls-2" d="M143.84,209.87l-2.17,11.18H134.4l2-10.36a7.23,7.23,0,0,0,.18-1.57c0-1-.28-1.39-.92-1.39-1.39,0-3.17,2.53-3.67,5.06l-1.6,8.26h-7.27l5.2-26.71h7.26l-1.35,7a13.33,13.33,0,0,1-.6,2.17,7.2,7.2,0,0,1,4.91-1.78c3.46,0,5.52,2,5.52,5.7A11.71,11.71,0,0,1,143.84,209.87Z"/><path class="cls-2" d="M169.8,221.05c0-1.24,0-2.84-.11-4.31h-7.41c-.74,1.57-1.35,3-1.92,4.31h-7.55c3.77-8,7.66-15.74,12.71-24.85h9.62c1.32,8.36,2.49,17,3.06,24.85Zm-.43-10.11c-.07-1.21-.18-2.35-.25-3.49-.11-1.35-.21-2.67-.36-4.1h0c-.78,1.5-1.5,2.89-2.17,4.31L165,210.94Z"/><path class="cls-2" d="M194,208.23a5.52,5.52,0,0,0-2.32-.53c-3.1,0-3.92,3.74-3.92,5.55,0,1.43.64,2.28,2.21,2.28a8.43,8.43,0,0,0,3.06-.64l.22,5.52a14.32,14.32,0,0,1-5.59,1.21c-4.88,0-7.45-2.42-7.45-7,0-7,4-12.79,11.11-12.79a12.34,12.34,0,0,1,5,.93Z"/><path class="cls-2" d="M213,221.05h-5.45l-.18-2.2a7,7,0,0,1-5.8,2.84c-4.27,0-6.23-2.77-6.23-6.9,0-6.09,3.24-12.93,12.18-12.93a27.61,27.61,0,0,1,8.94,1.53Zm-6.23-13.32c-2.81,0-3.74,3.57-3.74,5.88,0,1.28.18,2.1,1.07,2.1,1.39,0,3.17-2.53,3.67-5.06l.49-2.52A3,3,0,0,0,206.76,207.73Z"/><path class="cls-2" d="M234.57,221.05h-5.45l-.18-2.2a7,7,0,0,1-5.8,2.84c-4.28,0-6.24-2.77-6.24-6.9,0-6.09,3.25-12.93,12.18-12.93A11.08,11.08,0,0,1,231,202l1.53-7.7h7.23Zm-8.9-5.34c1.38,0,3.16-2.53,3.66-5.06l.5-2.52a3,3,0,0,0-1.49-.4c-2.82,0-3.74,3.57-3.74,5.88C224.6,214.89,224.78,215.71,225.67,215.71Z"/><path class="cls-2" d="M245.75,214.14a3.92,3.92,0,0,0-.07.68c0,1.14.78,1.53,2.85,1.53a21.6,21.6,0,0,0,6-1v5.23a24.62,24.62,0,0,1-7.47,1.1c-5.77,0-8.55-1.56-8.55-6.8s2.38-13.14,11.57-13.14c5.84,0,7.59,2.64,7.59,5.41C257.68,210.76,254.58,213.82,245.75,214.14Zm3.81-7.47c-1.68,0-2.64,1.38-3,3,3.31,0,4.31-1,4.31-1.89A1.17,1.17,0,0,0,249.56,206.67Z"/><path class="cls-2" d="M289.55,209.87l-2.17,11.18h-7.27l2-10.36a7.93,7.93,0,0,0,.18-1.57c0-1-.28-1.39-.93-1.39-1.39,0-3.13,2.53-3.63,5.06l-1.6,8.26h-7.27l2-10.36a7.23,7.23,0,0,0,.18-1.57c0-1-.28-1.39-.92-1.39-1.39,0-3.14,2.53-3.64,5.06l-1.6,8.26h-7.27l3.64-18.66h5.45l.17,2.21a7.44,7.44,0,0,1,6-2.85c2.56,0,4.34,1,5.13,3a7.5,7.5,0,0,1,6.09-3c3.59,0,5.62,2,5.62,5.7A11.54,11.54,0,0,1,289.55,209.87Z"/><path class="cls-2" d="M311.09,202.39c-3.2,8.34-6,14.43-8.9,18.63-4.13,6.16-7.77,7.58-11.51,7.58a7.26,7.26,0,0,1-2.85-.57l1.14-5.37h2.5c1.24,0,1.78-.5,2.6-1.61a72.39,72.39,0,0,1-2-18.66h7.3a84.19,84.19,0,0,0,.08,9c0,.82.1,1.6.17,2.39h0c.32-.75.68-1.5,1-2.32a94.19,94.19,0,0,0,3.17-9.08Z"/><path class="cls-3" d="M179.3,93.63A16.64,16.64,0,0,0,160.88,98l-17.56,18.8c-.23.26-.12.57.17.61l4.67.29c.38,0,.42.35.23.57L137,130.59a.29.29,0,0,0,.32.46l16.32-5.15a.35.35,0,0,1,.47.46l-2.19,3.86a.28.28,0,0,0,0,.13.4.4,0,0,0,.41.37l23.52-5.25a16.6,16.6,0,0,0,3.52-31.84Zm2.61,17s0,0,0,0l-5.26,2.14-.16.07-1.28,5.86a.31.31,0,0,1-.51.08l-3.83-4.53,0,0-21.6,9.27-.06,0a.15.15,0,0,1-.15-.15.17.17,0,0,1,.06-.12l18.68-14-2.37-5.4a.32.32,0,0,1,.39-.43l5.73,1.41,4.43-4h0a.31.31,0,0,1,.51.19l.43,5.94,5.13,3A.31.31,0,0,1,181.91,110.61Z"/><path class="cls-2" d="M220.39,113.64a14,14,0,0,0-1.6-4.79,8.54,8.54,0,0,0-3.75-3.63,10,10,0,0,0-4.41-.88c-3.45,0-6.89,0-10.33,0-.23,0-.29.06-.29.29q0,6.6,0,13.2t0,13.2c0,.19,0,.26.25.26h10.59a9,9,0,0,0,2.41-.34,8.44,8.44,0,0,0,5.08-4,17,17,0,0,0,2.24-7.49A23.89,23.89,0,0,0,220.39,113.64Zm-5,5.82a10.7,10.7,0,0,1-1.48,4.83,4.68,4.68,0,0,1-4.18,2.28h-4.49c-.23,0-.28-.07-.28-.29q0-4.25,0-8.48c0-2.84,0-5.67,0-8.51,0-.21,0-.28.27-.28h4.69a6.74,6.74,0,0,1,2.14.33,4,4,0,0,1,2.49,2.34,12.3,12.3,0,0,1,.84,3.63A21.11,21.11,0,0,1,215.39,119.46Z"/><path class="cls-2" d="M223.35,112.08q0-5.34,0-10.68a12.27,12.27,0,0,1,.55-3.76,7.2,7.2,0,0,1,5.57-5.11,11.51,11.51,0,0,1,2.62-.3H236c.2,0,.25,0,.25.24,0,1.52,0,3,0,4.54,0,.19,0,.24-.24.24-1.15,0-2.31,0-3.47,0a4.06,4.06,0,0,0-4.2,4.19q0,10.29,0,20.58a4.05,4.05,0,0,0,2.94,4,5.8,5.8,0,0,0,1.55.16c1.07,0,2.13,0,3.2,0,.17,0,.22,0,.22.23q0,2.29,0,4.59c0,.15,0,.22-.21.22-1.67-.06-3.36,0-5-.09a8.21,8.21,0,0,1-5.15-2.11,7.73,7.73,0,0,1-2.14-3.85,12.94,12.94,0,0,1-.37-3.16C223.35,118.71,223.35,115.4,223.35,112.08Z"/><path class="cls-2" d="M240.1,117.73q0-6.54,0-13.07c0-.25,0-.34.32-.33q2.22,0,4.44,0c.21,0,.26,0,.26.26q0,13.17,0,26.35c0,.23-.07.26-.28.26h-4.47c-.22,0-.27,0-.27-.27Q240.11,124.33,240.1,117.73Z"/><path class="cls-2" d="M234.64,327.28a20,20,0,1,0-18.19,6.24,20.22,20.22,0,0,0,3.46.3,19.74,19.74,0,0,0,7.9-1.66l27.13,39.59h0l3.19-1.13c2.05-.74,4.09-1.51,6.13-2.33Zm-3.38-11.44a11.56,11.56,0,1,1-11.41-13.55,11.27,11.27,0,0,1,2,.18,11.54,11.54,0,0,1,9.41,13.37Z"/><path class="cls-2" d="M184.88,319.48a20,20,0,1,0-6.83,4.88l39.88,56h0l9.25-1.43Zm-8.11-4a11.56,11.56,0,1,1,2.8-16.1A11.56,11.56,0,0,1,176.77,315.5Z"/><path class="cls-2" d="M173.9,337.55a20,20,0,0,0-34.38,19.88L123.59,369l2.34.9c2.38.9,4.77,1.75,7.21,2.55l11.36-8.22A19.89,19.89,0,0,0,154.56,369a20.53,20.53,0,0,0,3.21.26,20,20,0,0,0,16.13-31.66Zm-4.76,13.52a11.55,11.55,0,1,1-11.44-13.39,11.66,11.66,0,0,1,1.86.15,11.55,11.55,0,0,1,9.58,13.24Z"/><line class="cls-4" x1="271" y1="57" x2="264" y2="68"/></svg>