<svg width="507" height="382" viewBox="0 0 507 382" fill="none" xmlns="http://www.w3.org/2000/svg">
<g clip-path="url(#clip0)">
<path opacity="0.18" d="M308.881 16.7833C330.109 27.7906 347.727 44.4424 364.217 62.003C386.559 85.8095 415.034 102.474 441.037 121.75C470.549 143.611 498.832 171.667 505.477 207.812C508.306 223.171 506.949 239.106 503.531 254.363C499.627 272.312 492.593 289.434 482.751 304.945C462.521 336.278 430.039 358.804 394.408 369.978C358.776 381.152 320.327 381.497 283.735 374.227C264.62 370.452 245.735 364.628 226.248 364.129C211.486 363.745 196.801 366.433 182.218 368.378C137.303 374.368 89.4573 372.909 49.7156 351.15C24.9027 337.43 3.22667 314.007 0.345913 285.746C-2.95735 253.364 17.9249 225.462 39.0761 203.396C56.3421 185.464 71.3875 165.52 83.8878 143.995C89.4188 134.562 95.1035 127.087 98.4964 116.374C101.748 106.135 103.759 95.5242 107.587 85.4512C111.967 73.9922 118.691 63.5734 127.33 54.861C141.336 40.7819 159.62 31.8224 177.519 23.1573C188.017 18.0376 198.542 12.9947 209.604 9.35976C235.156 1.03891 262.638 0.708486 288.383 8.41261C295.46 10.562 302.323 13.3643 308.881 16.7833Z" fill="#0064FF"/>
<path d="M253.071 333.18C255.045 333.671 256.881 334.608 258.436 335.919C262.481 339.759 260.51 347.106 256.028 350.446C251.547 353.787 245.632 354.286 240.063 354.785C221.563 356.371 203.163 358.96 184.944 362.542C167.212 366.036 149.223 370.464 131.017 369.799C124.615 369.568 108.867 369.261 104.245 364.065C98.304 357.384 110.992 349.64 116.28 345.979C138.046 330.864 163.575 334.294 188.734 330.492C210.052 327.267 232.317 326.486 253.071 333.18Z" fill="url(#paint0_linear)"/>
<path d="M343.079 296.779C340.121 297.701 337.112 299.185 335.512 301.835C334.732 303.402 334.114 305.045 333.668 306.737C332.613 309.691 330.919 312.376 328.705 314.6C326.492 316.824 323.815 318.531 320.865 319.6C319.175 320.202 317.28 320.675 316.23 322.16C315.729 322.958 315.473 323.886 315.496 324.829C315.519 325.771 315.819 326.686 316.358 327.459C317.466 328.981 318.972 330.167 320.711 330.889C326.946 333.807 334.206 333.807 340.966 332.476C347.726 331.145 354.166 328.636 360.734 326.499C369.227 323.821 377.956 321.957 386.802 320.931C393.806 320.125 400.886 319.831 407.646 317.68C414.406 315.53 420.782 311.166 423.368 304.612C414.995 296.024 401.603 294.987 389.683 295.909C374.434 297.061 358.02 292.146 343.079 296.779Z" fill="url(#paint1_linear)"/>
<path d="M46.2968 284.466C43.3392 285.401 40.3304 286.873 38.73 289.522C37.946 291.089 37.3239 292.731 36.8735 294.424C35.825 297.382 34.1326 300.07 31.9185 302.295C29.7043 304.519 27.0237 306.225 24.0701 307.287C22.3929 307.889 20.498 308.363 19.4353 309.847C18.9402 310.648 18.6886 311.575 18.7114 312.516C18.7341 313.457 19.0301 314.371 19.5634 315.146C20.666 316.678 22.1796 317.867 23.9293 318.576C30.1645 321.495 37.424 321.495 44.1842 320.163C50.9444 318.832 57.3845 316.324 63.9526 314.186C72.4456 311.508 81.1741 309.644 90.0202 308.619C97.0108 307.812 104.104 307.518 110.864 305.38C117.624 303.243 124 298.853 126.587 292.3C118.213 283.711 104.821 282.675 92.901 283.596C77.6394 284.71 61.2255 279.743 46.2968 284.466Z" fill="url(#paint2_linear)"/>
<path d="M169.99 267.264C162.18 268.672 154.165 270.208 147.431 274.406C145.113 275.84 142.86 277.849 142.527 280.524C142.156 283.506 144.409 286.297 147.136 287.551C149.96 288.606 152.977 289.042 155.983 288.831L191.141 289.048L217.171 289.202C220.32 289.202 223.944 288.741 227.042 289.202C232.714 290.149 237.63 292.914 243.686 293.195C251.484 293.567 259.255 292.12 266.873 290.636C271.636 289.714 276.514 288.741 280.675 286.22C282.352 285.209 284.03 283.66 283.902 281.689C283.725 280.508 283.141 279.426 282.25 278.63C276.322 272.512 266.604 273.011 258.295 271.13C249.461 269.12 241.484 264.026 232.535 262.541C228.427 262.004 224.277 261.85 220.141 262.081C212.753 262.26 205.289 261.274 198.004 262.413C188.632 263.988 179.324 265.703 169.99 267.264Z" fill="url(#paint3_linear)"/>
<path d="M217.683 255.105C211.127 253.62 212.408 262.925 210.679 266.368C209.6 268.133 208.233 269.703 206.633 271.014C205.024 272.34 203.972 274.222 203.689 276.288C203.648 276.674 203.728 277.063 203.919 277.401C204.236 277.811 204.691 278.093 205.199 278.195C208.942 279.284 212.96 278.885 216.415 277.081C218.029 276.31 219.369 275.064 220.256 273.51C220.972 271.843 221.309 270.037 221.242 268.224C221.434 264.346 223.15 256.308 217.683 255.105Z" fill="#FDB9A9"/>
<path d="M211.832 274.227C211.832 274.227 193.177 275.021 201.077 280.883C208.977 286.745 220.794 279.462 221.972 278.067C223.15 276.672 222.19 274.445 222.19 274.445L211.832 274.227Z" fill="#0064FF"/>
<path d="M221.165 276.787C219.501 278.809 210.731 281.535 206.864 281.254C202.997 280.972 199.502 279.167 199.873 276.659C200.245 274.15 207.107 268.327 208.4 268.339C209.694 268.352 210.705 271.334 213.304 271.949C214.459 272.143 215.645 272.038 216.747 271.643C217.85 271.249 218.834 270.579 219.603 269.696C219.839 269.372 220.18 269.141 220.567 269.04C220.955 268.94 221.365 268.977 221.729 269.146C222.259 270.37 222.486 271.705 222.387 273.036C222.289 274.366 221.87 275.653 221.165 276.787Z" fill="white"/>
<path d="M240.165 258.778C233.61 257.255 234.89 266.547 233.162 269.99C232.086 271.761 230.718 273.336 229.116 274.649C227.515 275.982 226.466 277.861 226.171 279.923C226.13 280.309 226.211 280.698 226.401 281.036C226.719 281.446 227.173 281.728 227.682 281.83C231.425 282.912 235.441 282.513 238.898 280.716C240.505 279.935 241.843 278.692 242.739 277.145C243.454 275.478 243.791 273.672 243.724 271.859C243.916 267.943 245.632 259.943 240.165 258.778Z" fill="#FDB9A9"/>
<path d="M234.365 277.824C234.365 277.824 215.711 278.604 223.611 284.479C231.51 290.354 243.315 283.046 244.454 281.715C245.594 280.383 244.672 278.08 244.672 278.08L234.365 277.824Z" fill="#0064FF"/>
<path d="M243.648 280.358C241.983 282.393 233.226 285.106 229.346 284.838C225.467 284.569 221.985 282.751 222.356 280.243C222.727 277.734 229.59 271.898 230.883 271.923C232.176 271.949 233.2 274.918 235.787 275.52C236.944 275.714 238.131 275.609 239.236 275.214C240.341 274.82 241.326 274.15 242.099 273.267C242.332 272.944 242.671 272.713 243.056 272.613C243.441 272.512 243.85 272.549 244.211 272.717C244.742 273.941 244.968 275.276 244.87 276.607C244.772 277.937 244.352 279.225 243.648 280.358Z" fill="white"/>
<path d="M223.265 174.201L232.035 266.355L244.659 264.794C249.652 242.306 248.423 174.995 248.423 174.995L223.265 174.201Z" fill="#473F47"/>
<path d="M232.035 171.705L223.265 263.86L210.551 262.336C203.33 203.998 209.271 167.622 209.271 167.622L232.035 171.705Z" fill="#473F47"/>
<path d="M210.449 138.363C210.295 136.674 209.847 134.997 209.668 133.244C209.258 129.761 209.322 126.239 209.86 122.774C210.455 119.091 211.567 115.51 213.163 112.138C214.622 109.207 217.247 107.965 220.217 106.506C222.692 105.164 225.376 104.251 228.156 103.805C230.124 103.627 232.109 103.739 234.045 104.138C239.999 105.264 247.847 108.336 251.97 113.098C255.03 116.617 255.388 121.673 255.478 126.345C255.606 132.778 255.474 139.212 255.081 145.646C255.081 146.58 254.979 147.515 254.902 148.449C254.351 155.501 253.775 162.823 251.765 169.644C251.138 171.782 250.485 173.932 248.487 175.084C243.827 177.785 236.695 176.364 231.664 175.596C224.993 174.649 218.131 173.663 212.215 170.476C210.98 169.94 209.98 168.977 209.399 167.763C208.887 166.317 209.514 164.742 209.962 163.27C211.959 156.679 210.41 149.754 210.41 143.035C210.41 141.819 210.564 140.577 210.564 139.362C210.551 138.978 210.449 138.67 210.449 138.363Z" fill="white"/>
<path opacity="0.1" d="M226.658 112.33C227.321 111.071 228.111 109.883 229.014 108.784C229.128 108.635 229.277 108.516 229.449 108.439C229.604 108.4 229.767 108.4 229.923 108.439L235.633 109.347C235.9 109.36 236.158 109.449 236.376 109.603C236.556 109.76 236.689 109.964 236.76 110.192C237.111 111.567 236.918 113.025 236.222 114.262C234.558 117.46 232.59 120.49 230.345 123.311C229.062 125.037 227.968 126.895 227.08 128.853C226.658 129.839 226.517 130.952 226.107 131.938C225.698 132.924 224.827 132.412 224.097 132.245L215.288 130.389L210.884 129.468C210.244 129.34 209.745 129.34 210.077 128.585C210.194 128.362 210.354 128.165 210.548 128.005C210.741 127.845 210.964 127.724 211.204 127.65C211.897 127.475 212.604 127.364 213.317 127.317C214.778 126.957 216.148 126.294 217.337 125.372C218.278 124.765 219.172 124.089 220.013 123.35C223.188 120.444 224.635 116.144 226.658 112.33Z" fill="#020202"/>
<path d="M217.068 106.711C217.666 105.904 218.465 105.268 219.386 104.868C221.473 104.151 223.547 105.904 225.698 106.404C227.311 106.762 229.321 106.557 230.281 107.914C230.566 108.491 230.714 109.126 230.714 109.77C230.714 110.413 230.566 111.048 230.281 111.626C228.474 117.411 226.249 123.057 223.624 128.521C222.574 130.709 221.204 132.667 220.09 134.767C218.809 137.083 218.541 139.528 216.735 141.601C214.93 143.675 211.614 145.134 208.938 144.072C207.599 143.483 206.463 142.512 205.673 141.281C202.332 136.456 204.662 131.311 206.505 126.473C207.837 123.068 216.402 107.453 217.068 106.711Z" fill="white"/>
<path opacity="0.1" d="M245.863 175.852C243.622 176.262 240.959 177.874 238.642 177.439C236.069 176.209 233.291 175.467 230.448 175.251C226.607 174.803 222.599 173.062 218.925 171.884C217.373 171.53 215.935 170.795 214.738 169.747C212.497 167.417 213.163 163.68 213.624 160.48C214.288 155.802 214.189 151.047 213.33 146.401C212.994 144.213 212.423 142.067 211.627 140.001C210.922 138.389 209.821 137.339 210.09 135.419C210.321 133.73 211.486 131.746 213.381 131.58C214.384 131.615 215.361 131.915 216.21 132.45C218.616 133.742 221.207 134.653 223.892 135.151C227.158 135.554 230.472 135.022 233.448 133.617C236.424 132.213 238.939 129.993 240.703 127.215C242.457 124.45 244.198 111.69 249.102 113.456C250.687 114.131 252.104 115.144 253.257 116.424C254.409 117.704 255.267 119.22 255.773 120.867C256.732 124.19 257.13 127.651 256.951 131.106C256.848 140.065 255.068 149.217 253.929 158.112C253.481 161.479 252.956 173.983 248.5 175.084C247.591 175.263 246.733 175.673 245.863 175.852Z" fill="#020202"/>
<path d="M214.072 125.986C213.253 125.476 212.32 125.178 211.357 125.117C210.393 125.057 209.43 125.237 208.554 125.641C207.691 126.074 206.964 126.735 206.449 127.551C205.935 128.368 205.653 129.309 205.635 130.274C205.719 131.588 206.162 132.854 206.915 133.935C207.323 134.645 207.877 135.26 208.541 135.739C209.592 136.367 210.823 136.624 212.036 136.469C213.134 136.429 214.208 136.136 215.173 135.611C216.607 134.805 218.464 132.501 217.99 130.696C217.178 128.774 215.814 127.135 214.072 125.986Z" fill="#FDB9A9"/>
<path d="M253.571 114.915C258.974 123.874 260.856 134.408 262.635 144.699C262.946 145.955 263.003 147.26 262.802 148.539C262.466 149.672 261.839 150.697 260.983 151.512C260.127 152.328 259.072 152.904 257.924 153.185C255.626 153.723 253.25 153.849 250.907 153.556C245.876 153.236 239.909 152.801 235.646 149.882C234.174 148.884 232.88 147.643 231.382 146.683C229.92 145.826 228.402 145.069 226.837 144.417C223.853 143.033 221.007 141.37 218.336 139.451C217.417 138.887 216.651 138.104 216.108 137.173C215.237 135.432 215.916 133.333 216.594 131.541C216.72 131.074 217 130.664 217.388 130.376C217.922 130.159 218.519 130.159 219.053 130.376C226.254 132.519 233.595 134.161 241.023 135.291C243.059 135.611 242.163 133.371 241.894 132.207C241.446 130.576 241.087 128.923 240.818 127.253C240.555 124.85 240.884 122.419 241.777 120.173C242.669 117.926 244.099 115.932 245.94 114.365C246.887 113.483 248.087 112.919 249.371 112.752C250.185 112.794 250.98 113.008 251.704 113.381C252.428 113.754 253.064 114.277 253.571 114.915Z" fill="white"/>
<path d="M226.248 93.9499C226.054 93.0592 225.917 92.1572 225.838 91.2492C225.403 87.4095 225.032 83.4161 226.914 80.1139C227.693 78.7259 228.827 77.5703 230.201 76.7661C231.575 75.9618 233.138 75.5379 234.73 75.5379C236.322 75.5379 237.885 75.9618 239.259 76.7661C240.633 77.5703 241.768 78.7259 242.547 80.1139C243.646 82.1827 244.122 84.5256 243.917 86.8591C243.708 89.1812 243.279 91.4784 242.636 93.7195C242.022 96.1001 240.46 97.5592 239.563 99.7479C239.258 100.69 239.115 101.676 239.141 102.666C239.27 104.144 239.27 105.63 239.141 107.107C237.682 108.066 236.013 108.659 234.276 108.835C233.461 108.822 232.654 108.684 231.881 108.426C231.445 108.339 231.06 108.087 230.806 107.722C230.691 107.402 230.665 107.057 230.729 106.723C230.729 106.404 230.806 106.096 230.806 105.776C230.985 104.18 230.959 102.567 230.729 100.977C230.21 99.7343 229.354 98.6616 228.258 97.8792C227.196 96.8098 226.494 95.4365 226.248 93.9499Z" fill="#FDB9A9"/>
<path opacity="0.1" d="M227.196 95.6905C228.926 95.4734 230.638 95.1268 232.317 94.6538C232.893 94.4874 233.597 94.3466 234.033 94.7562C234.228 94.9824 234.361 95.2561 234.417 95.5498C234.625 96.1233 234.721 96.7318 234.698 97.3417C234.597 97.851 234.455 98.3517 234.276 98.8392C234.194 99.0827 234.164 99.3407 234.188 99.5965C234.212 99.8523 234.29 100.1 234.417 100.324C234.826 100.887 235.697 101.066 235.889 101.745C236.081 102.423 235.582 102.692 235.428 103.165C235.261 103.734 235.146 104.317 235.082 104.906C235.07 105.586 234.966 106.262 234.775 106.915C234.636 107.251 234.422 107.551 234.149 107.79C233.876 108.03 233.551 108.204 233.2 108.298C232.846 108.384 232.477 108.39 232.12 108.315C231.763 108.24 231.428 108.085 231.139 107.863C230.397 107.066 229.945 106.042 229.859 104.957L229.167 101.514C228.964 100.316 228.656 99.1382 228.246 97.9944C227.831 97.2007 227.352 96.4429 226.812 95.7289L227.196 95.6905Z" fill="#020202"/>
<path d="M118.2 161.735C118.2 161.735 118.994 164.947 111.376 167.353C103.758 169.76 100.941 161.735 100.941 161.735C100.941 161.735 115.384 156.116 118.2 161.735Z" fill="#2F3554"/>
<path d="M79.0223 242.92L79.9057 239.528L82.2103 230.786C82.2773 230.371 82.4642 229.984 82.748 229.673C83.0937 229.378 84.1692 232.693 84.6301 232.655C87.1444 232.512 89.6666 232.697 92.1329 233.205C92.7987 233.333 90.0972 270.912 89.8667 274.598C89.3162 283.046 89.7643 299.749 91.0062 299.646C88.5352 299.851 83.4778 300.133 82.4152 299.019C80.4947 297.099 83.7851 284.722 80.2002 270.195C79.3185 266.624 78.8291 262.967 78.7406 259.29C78.5998 253.953 77.7035 248.117 79.0223 242.92Z" fill="#EFAC88"/>
<path d="M96.6912 284.722C96.9712 284.216 97.2027 283.685 97.3825 283.135C97.9715 281.254 97.5234 279.295 97.6514 277.401C97.7282 276.4 97.7282 275.394 97.6514 274.393C97.4466 271.833 97.1137 269.274 96.7936 266.714C96.243 262.4 95.2316 257.908 95.2316 253.543C95.2316 250.177 97.9459 239.605 97.9459 239.605L95.2316 225.82H109.008C109.008 225.82 110.775 237.34 110.288 238.619C109.285 241.234 108.693 243.989 108.534 246.785C108.534 251.739 107.868 256.756 107.484 261.697C107.049 267.098 106.622 272.499 106.204 277.9C106.05 279.846 105.884 281.74 105.73 283.724C105.613 286.583 106.142 289.431 107.28 292.056C107.715 293.247 108.201 294.718 107.369 295.691C106.537 296.664 104.719 296.331 103.528 295.691C101.836 294.555 100.045 293.574 98.1763 292.76C97.4343 292.591 96.725 292.301 96.0766 291.903C94.7963 290.93 94.7963 288.984 95.3852 287.487C95.7684 286.542 96.2044 285.619 96.6912 284.722Z" fill="#EFAC88"/>
<path d="M105.563 123.465C105.563 123.465 104.001 119.344 107.548 123.465C111.095 127.586 116.792 151.956 116.792 151.956C116.792 151.956 108.816 159.277 106.549 157.831C104.283 156.384 105.563 123.465 105.563 123.465Z" fill="#2F3554"/>
<path d="M102.145 84.5936C106.613 86.4367 107.702 93.0539 107.382 97.2393C106.985 102.474 102.593 107.709 104.104 112.969C105.089 115.665 105.55 118.523 105.461 121.391C105.179 124.246 103.413 127.164 100.634 127.791C99.9703 127.877 99.3203 128.049 98.701 128.303C97.9078 128.874 97.2947 129.66 96.9341 130.568C94.3468 135.803 89.7885 139.798 84.2588 141.678C78.7405 143.355 72.2108 142.062 68.3058 137.838C64.4008 133.615 63.7862 126.434 67.4992 122.031C68.5619 120.751 69.9958 119.587 70.0599 117.948C70.0219 117.192 69.9061 116.441 69.7142 115.709C69.5088 114.289 69.7542 112.842 70.4158 111.57C71.0773 110.297 72.1217 109.265 73.4015 108.618C75.4757 107.619 78.1132 107.671 79.7136 106.058C81.5061 104.202 81.0707 101.245 80.9939 98.6728C80.1873 85.2208 90.3404 79.7427 102.145 84.5936Z" fill="#8B2F0C"/>
<path d="M73.0303 196.996C71.9548 207.492 73.8241 218.23 75.7062 228.7C76.1415 231.158 76.6793 233.82 78.5101 235.509C79.9491 236.663 81.6591 237.429 83.4778 237.736C95.4201 240.502 107.945 239.195 119.058 234.025L116.229 207.914C115.486 200.964 114.68 193.835 112.183 187.282C111.722 186.066 104.501 173.983 106.217 172.947C102.811 175.046 98.8547 174.739 94.9496 175.647C90.3286 176.732 85.8815 178.455 81.7366 180.767C79.6127 181.703 77.7709 183.179 76.394 185.047C75.0172 186.915 74.1533 189.111 73.8881 191.416C73.5004 193.259 73.214 195.122 73.0303 196.996Z" fill="#0064FF"/>
<path d="M73.0303 196.996C71.9548 207.492 73.8241 218.23 75.7062 228.7C76.1415 231.158 76.6793 233.82 78.5101 235.509C79.9491 236.663 81.6591 237.429 83.4778 237.736C95.4201 240.502 107.945 239.195 119.058 234.025L116.229 207.914C115.486 200.964 114.68 193.835 112.183 187.282C111.722 186.066 104.501 173.983 106.217 172.947C102.811 175.046 98.8547 174.739 94.9496 175.647C90.3286 176.732 85.8815 178.455 81.7366 180.767C79.6127 181.703 77.7709 183.179 76.394 185.047C75.0172 186.915 74.1533 189.111 73.8881 191.416C73.5004 193.259 73.214 195.122 73.0303 196.996Z" fill="url(#paint4_linear)"/>
<path d="M101.915 112.33C101.915 112.33 98.4449 116.732 98.4321 119.433C98.3955 121.222 98.1506 123 97.7023 124.732C97.7023 124.732 97.1518 127.957 95.3593 126.703C93.5668 125.449 87.2676 117.001 87.2676 117.001L94.143 107.837L101.915 112.33Z" fill="#EFAC88"/>
<path d="M112.593 190.11C112.593 190.11 111.184 174.431 108.572 168.147C107.847 165.87 107.672 163.453 108.06 161.095C108.585 155.54 110.275 150.215 111.184 144.724C111.461 142.268 111.279 139.781 110.646 137.39C109.69 132.629 108.572 127.902 107.292 123.209C107.179 122.605 106.92 122.038 106.537 121.558C106.1 121.161 105.579 120.868 105.013 120.7L98.1632 118.14C98.8802 120.342 99.5587 122.799 98.5729 124.898C98.3317 125.511 97.8769 126.016 97.2925 126.319C96.0122 126.844 94.7319 125.999 93.7076 125.039C92.1571 123.532 90.9592 121.701 90.1995 119.676C89.8153 118.62 89.5449 117.526 89.3929 116.413C89.2904 115.619 89.5209 114.467 88.9191 113.917C87.9461 115.632 85.936 116.477 84.4124 117.667C82.8888 118.857 80.9299 120.227 79.0862 121.507C77.549 122.341 76.2963 123.616 75.4884 125.167C75.0917 126.477 75.0917 127.876 75.4884 129.186C75.8085 130.645 76.3078 132.066 76.5767 133.538C76.833 135.41 76.9869 137.294 77.0376 139.182C77.3447 141.991 77.8452 144.775 78.5356 147.515C78.7955 149.189 78.9537 150.877 79.0094 152.57C79.0094 152.57 81.57 162.093 81.0579 164.422C80.5458 166.752 75.7573 175.75 75.4884 179.692C75.2196 183.634 77.0248 191.915 77.0248 191.915C77.0248 191.915 81.4548 192.21 86.3713 192.402C92.1584 192.619 102.657 190.174 103.438 189.394C104.462 188.37 105.026 181.061 104.936 176.185C107.266 183.762 109.097 190.11 109.097 190.11H112.593Z" fill="#2F3554"/>
<path d="M78.5101 199.697C79.4704 199.979 79.7904 200.836 80.5074 201.911C81.4674 203.406 82.352 204.948 83.1577 206.532C83.268 206.642 83.3299 206.792 83.3299 206.948C83.3299 207.104 83.268 207.253 83.1577 207.364C83.0631 207.452 82.9413 207.507 82.812 207.517C81.9922 207.813 81.1093 207.888 80.2514 207.735C79.9221 209.785 80.2351 211.886 81.1476 213.751C81.3652 214.199 81.5957 214.8 81.2372 215.159C81.0709 215.286 80.8704 215.362 80.6611 215.376C78.8298 215.494 77.0064 215.047 75.4373 214.096C74.5264 213.696 73.694 213.137 72.979 212.445C72.0076 211.292 71.2959 209.943 70.8921 208.49C70.8921 207.566 70.9821 206.645 71.161 205.738C71.161 205.316 71.5963 199.799 71.7243 199.799L77.6651 199.569C77.9515 199.57 78.2361 199.614 78.5101 199.697Z" fill="#FDC099"/>
<path d="M78.5486 197.508L79.0223 199.902L70.7642 201.335V198.584L78.5486 197.508Z" fill="white"/>
<path d="M78.5484 166.035C78.5484 166.035 85.1165 150.241 84.2203 144.673C83.324 139.106 79.547 126.114 76.7559 126.23C73.9648 126.345 73.0813 130.069 73.0813 133.525C73.0813 136.981 67.4735 168.147 67.115 171.027C66.7565 173.907 70.2774 200.465 70.2774 200.465L79.6239 198.404L78.5484 166.035Z" fill="#2F3554"/>
<path d="M103.681 88.9838C103.832 89.0717 103.962 89.1893 104.065 89.3293C104.731 90.4802 105.166 91.7497 105.346 93.0667C107.151 99.4663 109.609 105.559 106.088 111.907C105.835 112.43 105.473 112.893 105.026 113.264C104.566 113.581 104.041 113.791 103.489 113.878C100.896 114.413 98.1974 113.985 95.8969 112.675C94.5791 112.046 93.2968 111.346 92.0559 110.576C91.5194 110.198 91.0805 109.698 90.7756 109.117C90.4939 108.515 90.033 107.927 90.225 107.223C90.3659 106.736 90.6476 106.314 90.75 105.815C90.8544 105.035 90.7111 104.243 90.3403 103.549C90.2525 103.4 90.196 103.235 90.174 103.063C90.152 102.892 90.165 102.717 90.2122 102.551C90.4427 102.001 91.2109 102.039 91.7999 101.898C92.2804 101.716 92.7164 101.434 93.0786 101.07C93.4408 100.705 93.7207 100.268 93.8996 99.7863C94.4661 98.6418 94.8958 97.4347 95.1799 96.1897C95.3578 95.1148 95.6674 94.066 96.1018 93.0667C96.9574 91.6941 98.1941 90.6001 99.6611 89.9181C100.673 89.3293 102.567 88.2926 103.681 88.9838Z" fill="#FDC099"/>
<path d="M106.537 98.2888L107.113 97.7896C107.113 97.7896 107.279 98.148 107.484 98.1096C107.666 98.0604 107.842 97.9917 108.009 97.9048C108.009 97.9048 107.689 98.3656 107.471 98.404C107.169 98.4424 106.864 98.4424 106.562 98.404L106.537 98.2888Z" fill="#8A3C1F"/>
<path d="M107.036 97.828L107.279 97.3928C107.279 97.3928 107.471 97.572 107.599 97.4952C107.698 97.4243 107.788 97.3427 107.868 97.2521C107.868 97.2521 107.792 97.6104 107.663 97.6872C107.469 97.7662 107.268 97.8262 107.062 97.8664L107.036 97.828Z" fill="#8A3C1F"/>
<path d="M135.165 139.272H111.21L90.6733 165.229L113.271 164.32L135.165 139.272Z" fill="#0064FF"/>
<path d="M120.928 160.506C120.957 160.255 121.004 160.007 121.069 159.764C121.371 158.156 121.327 156.502 120.941 154.913C120.553 153.309 119.569 151.913 118.188 151.009C118.083 150.945 117.972 150.893 117.855 150.855C117.671 150.855 117.495 150.925 117.361 151.051C117.228 151.178 117.148 151.35 117.138 151.534C117.135 151.902 117.218 152.266 117.381 152.596C117.804 153.65 118.1 154.749 118.265 155.873L117.061 154.503C116.73 154.054 116.289 153.697 115.781 153.466C115.517 153.364 115.224 153.368 114.964 153.478C114.703 153.588 114.496 153.795 114.385 154.055C114.324 154.372 114.369 154.7 114.513 154.989L115.64 158.253C115.117 157.208 114.28 156.353 113.246 155.809C113.04 156.091 112.929 156.432 112.929 156.781C112.929 157.131 113.04 157.472 113.246 157.754C113.653 158.341 114.001 158.967 114.283 159.623C114.014 159.305 113.77 158.967 113.553 158.612C113.284 158.292 112.772 158.087 112.465 158.368C112.158 158.65 112.26 159.047 112.35 159.392C113.12 161.84 113.425 164.41 113.246 166.969L114.68 166.649C115.814 166.272 116.888 165.734 117.868 165.05C118.682 164.566 119.379 163.907 119.909 163.122C120.438 162.336 120.786 161.442 120.928 160.506Z" fill="#EFAC88"/>
<path d="M270.369 158.368C270.804 157.997 271.482 157.716 271.918 158.087C272.052 158.237 272.152 158.414 272.211 158.606C272.271 158.798 272.289 159.001 272.263 159.2V161.491C276.168 160.301 279.113 157.165 281.981 154.273C282.583 153.658 283.466 152.993 284.209 153.428C284.477 153.626 284.678 153.901 284.786 154.217C284.893 154.533 284.902 154.874 284.811 155.194C284.591 155.811 284.44 156.451 284.363 157.101C284.363 158.151 285.118 159.06 285.22 160.096C285.336 161.376 284.465 162.528 284.35 163.808V165.088C284.156 165.868 283.774 166.589 283.236 167.187C281.947 169.131 280.236 170.759 278.23 171.948C276.856 172.546 275.403 172.938 273.915 173.113L269.267 173.907C268.814 174.022 268.338 174.022 267.885 173.907C266.489 173.433 266.054 171.155 266.105 169.9C266.309 168.73 266.745 167.612 267.385 166.611C268.346 163.949 268.051 160.314 270.369 158.368Z" fill="#A67C52"/>
<path d="M132.835 144.264C132.527 143.777 131.964 143.316 131.439 143.534C131.267 143.638 131.119 143.778 131.004 143.943C130.889 144.109 130.811 144.296 130.773 144.494L130.069 146.67C126.689 144.379 124.807 140.513 122.938 136.891C122.541 136.123 121.901 135.24 121.056 135.432C120.75 135.548 120.488 135.755 120.305 136.025C120.121 136.296 120.026 136.616 120.031 136.942C120.049 137.594 120.002 138.246 119.891 138.888C119.583 139.886 118.61 140.539 118.175 141.448C117.688 142.625 118.175 144.008 117.906 145.288C117.816 145.697 117.637 146.094 117.573 146.567C117.522 147.369 117.676 148.171 118.021 148.897C118.666 151.139 119.813 153.205 121.376 154.938C122.51 155.912 123.777 156.718 125.14 157.332L129.352 159.469C129.743 159.7 130.18 159.84 130.633 159.879C132.105 159.879 133.193 157.805 133.526 156.589C133.68 155.418 133.615 154.229 133.334 153.082C133.104 150.202 134.448 146.862 132.835 144.264Z" fill="#A67C52"/>
<path d="M172.832 352.507C172.851 352.61 172.886 352.709 172.935 352.801C173.511 354.286 175.342 354.785 176.929 354.965C178.408 355.139 179.897 355.212 181.385 355.182C182.092 355.2 182.797 355.1 183.472 354.888C184.103 354.616 184.693 354.259 185.226 353.825L189.502 350.651C190.71 349.83 191.807 348.858 192.767 347.759C193.732 346.647 194.236 345.21 194.176 343.74C194.135 343.009 193.866 342.31 193.406 341.74C192.947 341.171 192.32 340.76 191.615 340.565C190.719 340.476 189.815 340.501 188.926 340.642C187.095 340.732 184.535 339.977 183.805 338.082C183.612 337.275 183.163 336.552 182.524 336.022C181.902 335.743 181.209 335.662 180.54 335.791C179.049 335.851 177.577 336.141 176.174 336.649C175.472 336.901 174.836 337.308 174.313 337.84C173.79 338.372 173.393 339.015 173.152 339.721C172.986 340.377 172.921 341.054 172.96 341.73C173.037 343.116 173.037 344.504 172.96 345.89C172.753 347.631 172.655 349.384 172.666 351.138C172.676 351.598 172.732 352.057 172.832 352.507Z" fill="#262836"/>
<path d="M214.392 353.045C211.512 354.363 208.548 355.492 205.52 356.424C204.305 356.948 202.945 357.025 201.679 356.641C201.174 356.389 200.731 356.029 200.382 355.587C200.032 355.144 199.784 354.63 199.656 354.081C199.386 352.998 199.273 351.882 199.323 350.766C199.323 348.91 200.091 347.477 200.386 345.711C200.654 344.175 200.872 342.626 201.09 341.09C201.397 338.889 201.679 336.687 201.96 334.473L209.642 336.124C210.449 336.29 211.217 339.401 211.691 340.053C212.057 340.534 212.524 340.929 213.06 341.21C213.595 341.491 214.185 341.651 214.789 341.679C216.07 341.743 217.44 341.141 218.758 341.359C219.607 341.568 220.365 342.049 220.915 342.728C221.465 343.408 221.778 344.248 221.806 345.122C221.794 345.995 221.604 346.856 221.248 347.653C220.891 348.45 220.375 349.165 219.731 349.755C218.432 350.922 216.948 351.865 215.34 352.545L214.392 353.045Z" fill="#262836"/>
<path d="M214.456 344.456C212.438 345.605 210.342 346.61 208.183 347.464L207.965 347.554C204.406 348.936 200.424 343.356 200.424 343.356C200.424 343.356 195.392 312.279 195.622 299.403C195.776 290.559 193.689 277.952 190.501 255.079C189.707 278.438 185.751 288.703 186.763 297.074C188.299 309.809 186.468 341.436 186.468 341.436C186.468 341.436 183.101 347.592 179.401 346.76H179.183C176.96 346.252 174.777 345.58 172.653 344.751C172.653 344.751 168.351 301.233 168.351 289.714C168.351 278.195 168.825 267.955 168.825 267.955L166.584 231.567L176.174 217.654L176.955 217.322L177.698 216.592L188.325 208.797C188.325 208.797 188.325 210.615 188.133 213.725L196.378 218.154L197.184 218.755L197.991 218.96L211.831 221.379C211.831 221.379 215.468 277.158 216.633 288.575C217.798 299.992 214.456 344.456 214.456 344.456Z" fill="#0064FF"/>
<path d="M214.456 344.456C212.438 345.605 210.342 346.61 208.183 347.464L207.965 347.554C204.406 348.936 200.424 343.356 200.424 343.356C200.424 343.356 195.392 312.279 195.622 299.403C195.776 290.559 193.689 277.952 190.501 255.079C189.707 278.438 185.751 288.703 186.763 297.074C188.299 309.809 186.468 341.436 186.468 341.436C186.468 341.436 183.101 347.592 179.401 346.76H179.183C176.96 346.252 174.777 345.58 172.653 344.751C172.653 344.751 168.351 301.233 168.351 289.714C168.351 278.195 168.825 267.955 168.825 267.955L166.584 231.567L176.174 217.654L176.955 217.322L177.698 216.592L188.325 208.797C188.325 208.797 188.325 210.615 188.133 213.725L196.378 218.154L197.184 218.755L197.991 218.96L211.831 221.379C211.831 221.379 215.468 277.158 216.633 288.575C217.798 299.992 214.456 344.456 214.456 344.456Z" fill="url(#paint5_linear)"/>
<path d="M202.985 124.31C203.855 125.18 205.161 126.076 204.803 127.228C204.611 127.842 203.958 128.201 203.522 128.636C202.897 129.267 202.404 130.017 202.072 130.841C201.74 131.665 201.576 132.547 201.589 133.435C201.642 135.171 201.396 136.903 200.859 138.555C200.559 139.384 199.983 140.084 199.228 140.539C198.473 140.993 197.584 141.174 196.711 141.051C195.699 140.769 194.688 139.899 193.715 140.309C192.972 140.629 192.742 141.589 192.358 142.229C191.806 143.054 191.033 143.707 190.127 144.114C189.222 144.522 188.22 144.666 187.236 144.532C185.277 144.249 183.389 143.602 181.667 142.625C180.93 142.342 180.293 141.848 179.836 141.205C179.539 140.587 179.467 139.886 179.631 139.221C179.99 137.186 181.398 135.509 182.538 133.755C184.65 130.514 185.918 126.796 186.225 122.94C186.43 120.252 186.225 117.296 187.953 115.261C190.296 112.432 195.956 112.458 198.862 114.531C202.204 116.668 200.309 121.532 202.985 124.31Z" fill="#A67C52"/>
<path d="M199.514 112.138C199.171 112.805 198.653 113.366 198.016 113.763C196.736 114.518 195.635 115.401 194.393 116.233C193.219 117.022 192.394 118.232 192.088 119.612C191.564 122.172 192.946 124.847 192.088 127.292C191.794 127.778 190.975 127.484 190.642 126.997C190.309 126.511 190.142 125.897 189.643 125.602C188.798 125.116 187.761 125.935 187.402 126.882C187.027 127.939 187.074 129.101 187.535 130.124C187.995 131.147 188.833 131.953 189.873 132.373C189.758 133.154 188.734 133.474 187.94 133.359C187.152 133.142 186.337 133.038 185.52 133.051C183.689 133.397 182.96 136.008 181.167 136.277C180.536 136.232 179.923 136.043 179.375 135.726C178.827 135.409 178.359 134.971 178.005 134.447L175.777 131.887C175.423 131.43 175.033 131.002 174.612 130.607C174.113 130.21 173.332 130.184 172.871 129.711C172.41 129.237 172.871 128.149 172.423 127.561C172.2 127.357 171.939 127.2 171.654 127.1C171.013 126.777 170.502 126.243 170.208 125.588C169.915 124.933 169.856 124.197 170.041 123.503C170.092 123.328 170.092 123.141 170.041 122.966C169.964 122.735 169.683 122.62 169.452 122.505C168.771 122.078 168.266 121.42 168.031 120.651C167.796 119.882 167.846 119.054 168.172 118.32C168.53 117.464 169.057 116.689 169.721 116.041C169.966 115.689 170.304 115.41 170.697 115.236C171.09 115.063 171.523 115 171.949 115.056L172.294 111.856C172.324 111.205 172.481 110.566 172.755 109.974C173.485 108.695 175.162 108.362 176.596 108.195L175.982 105.533C175.91 105.37 175.872 105.193 175.872 105.015C175.872 104.836 175.91 104.66 175.982 104.496C176.176 104.26 176.449 104.101 176.75 104.048C177.613 103.82 178.497 103.674 179.388 103.613C179.054 102.875 178.8 102.102 178.632 101.309C178.594 101.158 178.594 101 178.632 100.849C178.708 100.705 178.826 100.588 178.97 100.513C179.114 100.437 179.277 100.407 179.439 100.426C179.764 100.49 180.099 100.49 180.425 100.426C180.425 100.426 179.938 98.1992 179.912 97.9944C179.835 97.6455 179.828 97.2847 179.892 96.9331C179.956 96.5815 180.089 96.2461 180.284 95.9465C180.544 95.6368 180.88 95.3997 181.259 95.2584C181.639 95.1171 182.048 95.0763 182.448 95.1402C183.244 95.2837 184.01 95.5607 184.714 95.9593C184.637 95.1018 185.738 94.6794 186.621 94.6026C188.267 94.5079 189.91 94.8315 191.396 95.5432C192.883 96.255 194.165 97.3316 195.123 98.6728C195.273 98.9124 195.454 99.1318 195.661 99.3255C196.053 99.5826 196.486 99.7729 196.941 99.8887C197.632 100.196 198.247 100.653 198.74 101.226C199.234 101.799 199.595 102.475 199.796 103.204C200.168 104.657 200.319 106.159 200.244 107.658C200.285 108.806 200.177 109.955 199.924 111.075C199.827 111.443 199.689 111.8 199.514 112.138Z" fill="#2F3554"/>
<path d="M187.364 139.835C189.398 140.692 191.374 141.679 193.279 142.792C193.867 143.103 194.378 143.54 194.777 144.072C194.984 144.367 195.112 144.71 195.148 145.069C195.184 145.427 195.127 145.789 194.982 146.12C194.444 147.041 193.241 146.695 192.306 146.375C187.991 144.66 183.344 144.507 178.914 144.52C178.609 144.564 178.297 144.525 178.013 144.405C177.728 144.286 177.482 144.091 177.301 143.841C177.193 143.544 177.153 143.227 177.184 142.912C177.215 142.598 177.316 142.294 177.48 142.024C179.823 137.378 183.587 138.12 187.364 139.835Z" fill="white"/>
<path d="M271.047 175.865C270.166 178.064 268.861 180.069 267.206 181.765C265.631 183.544 263.992 185.26 262.29 186.885C258.28 190.776 254.043 194.426 249.601 197.816C246.439 200.26 243.059 202.666 239.115 203.434C237.546 203.806 235.902 203.704 234.391 203.14C233.14 202.5 232.02 201.632 231.088 200.58C229.948 199.454 216.889 184.428 216.671 184.428C215.934 184.824 215.365 185.474 215.071 186.258C213.178 190.157 212.011 194.369 211.627 198.686C211.473 200.62 211.473 202.563 211.627 204.497C212.139 211.063 214.443 217.834 212.164 224.028C211.72 225.346 210.97 226.539 209.975 227.51C209.012 228.342 207.906 228.993 206.71 229.43C204.608 230.3 202.413 230.927 200.168 231.298C198.899 231.529 197.615 231.67 196.327 231.721C191.551 231.9 186.788 230.966 182.013 231.209C177.941 231.414 173.921 232.489 169.849 232.322C169.099 232.381 168.346 232.274 167.642 232.008C166.939 231.743 166.302 231.326 165.778 230.786C165.317 230.079 165.032 229.271 164.946 228.431C163.358 219.731 162.539 210.908 162.5 202.065C162.5 197.982 161.834 183.058 160.464 180.306C160.298 179.973 160.119 179.807 159.94 179.858C155.382 181.138 145.6 183.698 140.965 184.517C140.295 184.679 139.6 184.714 138.916 184.62C138.213 184.44 137.557 184.108 136.996 183.647C131.26 179.436 128.034 173.164 125.998 166.56C125.601 165.28 125.242 164 124.91 162.72C124.735 162.379 124.63 162.007 124.6 161.625C124.57 161.244 124.616 160.86 124.735 160.496C124.854 160.132 125.044 159.795 125.294 159.504C125.543 159.214 125.848 158.976 126.19 158.804C126.267 158.758 126.349 158.719 126.433 158.688L135.024 153.159L141.426 161.325C142.706 162.912 144.166 164.627 146.202 164.858C148.993 165.139 151.092 162.605 152.808 160.442C158.37 153.457 165.503 147.883 173.626 144.174C174.818 143.601 176.073 143.172 177.365 142.894L177.685 142.817C177.87 142.765 178.058 142.727 178.248 142.702C179.918 142.55 181.601 142.649 183.242 142.996C194.144 144.837 204.93 147.311 215.544 150.407C216.815 150.597 218.023 151.082 219.07 151.825C220.118 152.568 220.976 153.546 221.575 154.682C224.558 159.175 227.464 163.718 230.46 168.211C233.021 172.051 235.582 176.914 239.423 179.73C247.73 176.365 255.57 171.947 262.75 166.585C263.762 165.83 265.042 165.011 266.207 165.51C266.58 165.693 266.915 165.945 267.193 166.253C269.946 169.005 272.43 171.692 271.047 175.865Z" fill="white"/>
<path d="M333.182 145.774C332.043 146.745 330.67 147.402 329.2 147.681C327.855 147.735 326.515 147.499 325.269 146.99L306.218 140.59C304.781 141.709 303.822 143.33 303.532 145.128C303.242 146.925 303.644 148.766 304.656 150.279C306.269 152.519 309.047 153.581 311.646 154.516L324.706 159.213C327.272 160.273 329.974 160.966 332.734 161.274C336.575 161.53 340.326 160.301 343.975 159.085C347.88 157.805 352.156 156.18 354.025 152.506C355.895 148.833 354.538 143.995 355.088 139.707C355.459 136.917 356.689 134.242 356.637 131.426C356.573 129.02 354.653 125.398 351.785 125.897C349.314 126.332 347.662 130.632 346.356 132.437C342.68 137.537 338.236 142.036 333.182 145.774Z" fill="white"/>
<path d="M303.836 139.553C303.625 139.046 303.321 138.581 302.94 138.184C302.744 137.99 302.496 137.856 302.225 137.799C301.955 137.743 301.674 137.765 301.416 137.864C301.166 138.019 300.964 138.242 300.835 138.507C300.706 138.772 300.655 139.068 300.687 139.362C300.713 139.563 300.668 139.767 300.559 139.937C300.475 139.999 300.377 140.038 300.274 140.052C300.171 140.065 300.066 140.052 299.97 140.014C297.806 139.592 295.617 139.272 293.414 139.054C293.232 139.029 293.046 139.029 292.864 139.054C292.505 139.18 292.208 139.439 292.034 139.777C291.86 140.115 291.823 140.507 291.929 140.872C292.169 141.596 292.529 142.275 292.992 142.881C294.106 144.712 294.528 147.131 296.321 148.321C297.413 148.951 298.678 149.216 299.931 149.076C301.212 149.012 302.428 148.782 303.683 148.833C304.518 149.014 305.389 148.92 306.167 148.564C306.454 148.346 306.684 148.06 306.833 147.732C306.983 147.403 307.049 147.043 307.024 146.683C306.895 145.551 306.486 144.468 305.834 143.534C305.142 142.229 304.476 140.897 303.836 139.553Z" fill="#FDB9A9"/>
<path d="M356.97 282.943C349.672 281.292 351.106 291.647 349.186 295.486C347.973 297.427 346.45 299.156 344.679 300.606C343.027 302.219 341.478 304.19 341.389 306.481C341.337 306.924 341.427 307.372 341.645 307.761C342.015 308.206 342.525 308.513 343.091 308.631C347.266 309.833 351.744 309.375 355.587 307.351C357.388 306.49 358.883 305.102 359.877 303.371C360.675 301.514 361.051 299.503 360.978 297.483C361.144 293.234 363.052 284.3 356.97 282.943Z" fill="#FDB9A9"/>
<path d="M350.518 304.241C350.518 304.241 329.751 305.124 338.546 311.652C347.342 318.179 360.466 310.052 361.746 308.567C363.027 307.083 361.989 304.536 361.989 304.536L350.518 304.241Z" fill="#0064FF"/>
<path d="M360.85 307.108C358.993 309.361 349.237 312.394 344.922 312.087C340.608 311.78 336.728 309.758 337.151 306.967C337.573 304.177 345.204 297.688 346.638 297.701C348.072 297.714 349.199 301.041 352.092 301.733C353.385 301.94 354.709 301.814 355.94 301.366C357.17 300.918 358.265 300.163 359.121 299.173C359.382 298.814 359.76 298.557 360.189 298.445C360.619 298.333 361.074 298.373 361.477 298.558C362.476 300.03 362.706 304.856 360.85 307.108Z" fill="white"/>
<path d="M382.001 287.026C374.703 285.337 376.137 295.678 374.217 299.518C373.016 301.487 371.492 303.239 369.71 304.702C368.058 306.315 366.522 308.286 366.432 310.577C366.375 311.018 366.461 311.467 366.675 311.857C367.044 312.31 367.561 312.619 368.135 312.727C372.306 313.923 376.777 313.465 380.618 311.447C382.419 310.586 383.914 309.197 384.907 307.467C385.706 305.61 386.082 303.599 386.009 301.579C386.175 297.266 388.083 288.306 382.001 287.026Z" fill="#FDB9A9"/>
<path d="M375.548 308.235C375.548 308.235 354.781 309.105 363.577 315.633C372.373 322.16 385.509 314.058 386.777 312.561C388.044 311.063 387.02 308.516 387.02 308.516L375.548 308.235Z" fill="#0064FF"/>
<path d="M385.88 311.05C384.024 313.329 374.267 316.349 369.953 316.042C365.638 315.735 361.758 313.725 362.181 310.922C362.604 308.119 370.234 301.63 371.668 301.643C373.102 301.656 374.229 304.984 377.123 305.662C378.415 305.869 379.74 305.743 380.97 305.295C382.2 304.847 383.295 304.092 384.152 303.102C384.413 302.743 384.79 302.486 385.22 302.374C385.649 302.262 386.104 302.302 386.507 302.488C387.506 304.011 387.737 308.785 385.88 311.05Z" fill="white"/>
<path d="M363.193 192.875L372.949 295.512L387.033 293.771C392.589 268.736 391.232 193.797 391.232 193.797L363.193 192.875Z" fill="#473F47"/>
<path d="M372.949 190.098L363.193 292.735L349.109 290.994C341.069 226.051 347.688 185.618 347.688 185.618L372.949 190.098Z" fill="#473F47"/>
<path d="M348.917 152.98C348.75 151.098 348.251 149.23 348.046 147.31C347.587 143.436 347.66 139.517 348.264 135.663C348.926 131.559 350.163 127.569 351.938 123.81C353.564 120.559 356.496 119.177 359.787 117.552C362.545 116.056 365.536 115.039 368.634 114.544C370.825 114.343 373.033 114.463 375.189 114.902C381.809 116.182 390.553 119.587 395.073 124.809C398.479 128.738 398.914 134.357 398.991 139.554C399.136 146.73 398.986 153.897 398.543 161.056C398.543 162.093 398.415 163.13 398.338 164.166C397.723 172.025 397.057 180.178 394.842 187.768C394.138 190.149 393.396 192.542 391.194 193.822C386.072 196.843 378.07 195.179 372.475 194.398C365.036 193.336 357.405 192.235 350.812 188.639C349.441 188.035 348.33 186.964 347.675 185.618C347.099 184.005 347.803 182.252 348.302 180.613C350.53 173.279 348.802 165.574 348.802 158.087C348.802 156.73 348.981 155.348 348.981 153.991C348.968 153.658 348.917 153.313 348.917 152.98Z" fill="white"/>
<path opacity="0.1" d="M369.71 187.435C369.659 186.65 369.851 185.868 370.26 185.196C371.105 184.159 372.718 184.376 374.011 184.696L382.372 186.77C385.534 187.551 390.387 190.61 391.206 193.797C394.42 191.544 395.252 187.755 395.854 183.877C396.456 179.999 396.481 172.435 397.134 168.518C393.046 171.459 388.174 173.117 383.14 173.279C378.39 173.407 372.424 173.279 370.695 168.16C368.711 162.17 368.019 155.885 366.701 149.742C366.704 149.6 366.675 149.459 366.616 149.33C366.557 149.201 366.469 149.087 366.359 148.996C366.249 148.906 366.12 148.843 365.982 148.81C365.844 148.777 365.7 148.776 365.561 148.807L347.508 148.999C347.227 148.986 346.946 149.039 346.689 149.153C346.164 149.473 346.164 150.228 346.254 150.83C346.925 154.908 348.972 158.634 352.054 161.389C353.526 162.669 354.486 163.514 354.768 165.421C355.114 167.673 355.024 170.067 355.254 172.358C355.649 177.173 356.705 181.91 358.391 186.437C360.978 192.875 369.223 197.905 369.71 187.435Z" fill="#020202"/>
<path d="M364.78 192.645H337.906L334.564 150.868H361.451L364.78 192.645Z" fill="#0064FF"/>
<path d="M363.219 104.24C363.233 102.268 363.357 100.298 363.59 98.34C363.769 96.6377 364.038 94.9226 364.371 93.2203C364.388 92.7268 364.511 92.2428 364.732 91.8011C364.953 91.3594 365.267 90.9704 365.651 90.6605C368.288 89.0338 371.336 88.1986 374.434 88.2542C376.285 87.9632 378.175 88.4185 379.69 89.5201C381.205 90.6217 382.22 92.2794 382.513 94.1291C382.575 94.4927 382.605 94.861 382.603 95.2298C383.064 99.5431 381.95 103.844 381.323 108.131C380.834 111.452 380.658 114.812 380.798 118.166C379.175 119.245 377.309 119.904 375.369 120.086C374.463 120.085 373.563 119.933 372.706 119.638C372.465 119.593 372.236 119.501 372.032 119.367C371.828 119.233 371.652 119.06 371.515 118.857C371.383 118.501 371.352 118.116 371.425 117.744C371.474 117.396 371.504 117.045 371.515 116.694C371.656 114.732 371.617 112.761 371.4 110.806C371.406 110.724 371.394 110.642 371.365 110.564C371.337 110.487 371.292 110.417 371.233 110.358C371.1 110.32 370.958 110.32 370.824 110.358H370.273C369.297 110.435 368.317 110.435 367.341 110.358C366.172 110.231 365.088 109.691 364.281 108.835C363.355 107.495 362.975 105.851 363.219 104.24Z" fill="#FDB9A9"/>
<path d="M367.2 91.5948C366.52 91.8764 365.756 91.8764 365.075 91.5948C364.361 91.2131 363.77 90.6359 363.372 89.9309C362.573 88.7288 362.281 87.2598 362.559 85.8434C362.837 84.4269 363.663 83.1775 364.857 82.3665C365.778 81.7188 366.817 81.2606 367.917 81.0189C369.016 80.7772 370.152 80.7567 371.259 80.9586C371.842 80.5875 372.496 80.3432 373.18 80.2419C375.821 79.4379 378.615 79.2669 381.335 79.7427C382.878 80.1909 384.327 80.9151 385.612 81.8802C386.856 82.7021 387.916 83.7744 388.723 85.0288C389.502 86.6373 389.992 88.3703 390.17 90.1485C390.587 92.0497 390.814 93.9876 390.848 95.9337C390.845 96.7835 390.684 97.6253 390.374 98.4168C389.989 99.2915 389.437 100.083 388.748 100.746C387.739 101.76 386.587 102.622 385.33 103.306C384.459 103.792 383.448 104.292 383.153 105.252C383.066 105.698 383.023 106.153 383.025 106.608C382.974 107.278 382.704 107.912 382.257 108.413C381.95 108.746 381.425 109.552 380.977 109.693C380.529 109.834 380.145 109.271 380.017 108.81C379.469 106.87 379.604 104.8 380.401 102.948C380.965 102.045 381.295 101.015 381.361 99.9527C381.258 98.916 379.837 98.084 379.159 98.6728C378.48 99.2615 378.352 100.797 377.507 100.503C378.467 97.508 377.225 93.7451 374.345 92.5675C372.805 92.1031 371.203 91.8787 369.595 91.902C368.827 91.7466 368.047 91.6609 367.264 91.646L367.2 91.5948Z" fill="#DD8049"/>
<path d="M370.299 110.282C372.575 109.851 374.801 109.191 376.944 108.311C377.136 115.235 371.502 116.668 371.502 116.668C371.643 114.707 371.605 112.736 371.387 110.781C371.393 110.615 371.333 110.454 371.221 110.333C371.087 110.294 370.945 110.294 370.811 110.333H370.299V110.282Z" fill="#DE9F93"/>
<path d="M403.587 149.422L406.788 163.424C407.12 164.588 407.262 165.798 407.211 167.008C406.98 169.273 405.431 171.142 403.946 172.857C402.119 175.277 399.824 177.305 397.198 178.822C395.377 179.626 393.442 180.144 391.463 180.357C386.232 181.15 380.937 181.446 375.65 181.241C375.232 181.25 374.817 181.167 374.434 180.997C374.053 180.752 373.736 180.419 373.512 180.025C371.662 177.232 370.072 174.276 368.762 171.193C372.998 168.341 377.649 166.161 382.551 164.73C383.54 164.545 384.463 164.104 385.227 163.45C385.725 162.826 386.056 162.086 386.188 161.299C388.274 152.34 383.46 142.357 387.314 133.999C389.504 129.237 394.177 124.13 397.557 130.492C400.745 136.29 402.128 143.048 403.587 149.422Z" fill="white"/>
<path d="M365.088 171.296C364.511 170.861 363.898 170.476 363.257 170.144C362.932 169.981 362.571 169.904 362.208 169.92C361.845 169.936 361.492 170.043 361.183 170.233C360.901 170.438 360.683 170.771 360.338 170.886C360.11 170.937 359.874 170.937 359.646 170.886L355.37 170.451C355.032 170.367 354.679 170.363 354.339 170.438C353.999 170.514 353.682 170.667 353.411 170.886C352.86 171.513 353.193 172.499 353.565 173.254C354.662 175.48 355.884 177.642 357.226 179.73C357.47 180.157 357.777 180.546 358.135 180.882C358.628 181.253 359.196 181.511 359.8 181.637C362.004 182.147 364.305 182.05 366.458 181.356C368.596 180.655 370.591 179.575 372.347 178.169C372.599 177.983 372.819 177.758 373 177.503C373.177 177.189 373.282 176.839 373.307 176.479C373.512 174.828 372.987 172.166 370.836 172.281C368.864 172.629 366.832 172.28 365.088 171.296Z" fill="#FDB9A9"/>
<path d="M95.321 287.858C95.4092 287.716 95.5388 287.604 95.6923 287.538C96.0508 287.423 96.3837 287.743 96.627 288.025C98.842 290.584 102.158 291.864 105.333 293.016C105.525 293.08 105.769 293.144 105.922 293.016C106.076 292.888 106.076 292.747 106.14 292.619C106.257 292.461 106.426 292.347 106.617 292.298C106.808 292.249 107.011 292.268 107.19 292.351C107.538 292.537 107.854 292.779 108.124 293.067C109.405 294.245 111.236 294.719 112.644 295.768C113.019 295.999 113.303 296.352 113.451 296.766C113.499 296.995 113.489 297.232 113.422 297.455C113.355 297.679 113.233 297.882 113.066 298.046C112.717 298.393 112.27 298.625 111.786 298.712C110.906 298.893 110.002 298.928 109.11 298.814C104.68 298.482 100.267 298.012 95.8716 297.406C95.5285 297.382 95.1936 297.291 94.8857 297.138C94.547 296.865 94.2834 296.51 94.1199 296.107C93.9563 295.704 93.8982 295.266 93.9511 294.834C94.0004 293.691 94.133 292.553 94.348 291.429C94.3209 290.17 94.6589 288.93 95.321 287.858Z" fill="#262836"/>
<path d="M82.7994 295.806C83.3073 296.101 83.8687 296.293 84.451 296.37C85.4565 296.619 86.5025 296.658 87.5238 296.485C88.0321 296.39 88.5025 296.152 88.8792 295.798C89.2559 295.444 89.5232 294.989 89.6492 294.488C89.6492 294.181 89.8796 293.746 90.1485 293.887C90.2085 293.93 90.2568 293.987 90.2894 294.053C90.9966 295.423 91.3736 296.94 91.3904 298.482C91.5339 299.305 91.4633 300.151 91.1856 300.939C90.961 301.373 90.6399 301.75 90.2471 302.04C89.8543 302.331 89.4001 302.528 88.9194 302.616C87.9675 302.795 86.9905 302.795 86.0386 302.616C85.2192 302.488 84.4126 302.334 83.6188 302.129C83.2644 302.08 82.929 301.938 82.6458 301.72C82.4065 301.491 82.2226 301.211 82.108 300.901C81.4544 299.377 81.2116 297.709 81.4038 296.062C81.4386 295.713 81.4985 295.367 81.5831 295.026C81.5831 294.872 81.6855 294.194 81.9032 294.271C82.1208 294.347 82.0696 294.437 82.0696 294.591C82.0735 294.752 82.1038 294.912 82.1592 295.064C82.2958 295.369 82.5183 295.627 82.7994 295.806Z" fill="#262836"/>
<path d="M223.943 76.7733C223.729 75.816 223.889 74.8131 224.391 73.9703C224.809 73.4844 225.355 73.1253 225.966 72.9335C226.603 72.6927 227.264 72.5211 227.938 72.4216C228.273 72.3917 228.6 72.296 228.898 72.14C229.14 71.935 229.347 71.6931 229.513 71.4232C230.01 70.8743 230.63 70.4503 231.321 70.1857C232.013 69.921 232.758 69.8232 233.495 69.9001C234.967 69.9001 236.414 70.3353 237.886 70.3993C239.359 70.4633 241.138 70.1945 242.47 71.0136C243.488 71.7754 244.186 72.8886 244.429 74.1366C244.945 74.0637 245.471 74.1871 245.901 74.4822C246.708 75.2246 245.901 76.7349 246.605 77.618C246.938 78.0404 247.527 78.2196 247.886 78.6676C248.115 79.0946 248.183 79.5897 248.078 80.0627C248.044 80.5836 247.971 81.1013 247.86 81.6114C247.501 83.0193 246.58 84.1712 246.144 85.592C245.927 86.3343 245.875 87.1151 245.696 87.8574C245.195 89.5018 244.392 91.0384 243.328 92.3883C244.067 89.0227 244.15 85.5459 243.571 82.149C243.582 81.9924 243.545 81.8361 243.465 81.7011C243.385 81.566 243.266 81.4588 243.123 81.3938C242.918 81.3454 242.703 81.3775 242.521 81.4834C239.112 82.8298 235.347 82.9787 231.843 81.9058C230.847 81.4628 229.753 81.2863 228.668 81.3938C228.231 81.5242 227.804 81.6824 227.387 81.8674C226.95 82.0337 226.467 82.0337 226.03 81.8674C225.94 82.0553 225.892 82.2606 225.889 82.4689C225.057 82.277 225.108 81.0738 224.878 80.4083C224.451 79.2291 224.138 78.0119 223.943 76.7733Z" fill="#2F3554"/>
<path d="M246.055 88.971C246.142 89.1019 246.199 89.2505 246.221 89.4061C246.398 90.2854 246.238 91.1988 245.773 91.966C245.322 92.7426 244.649 93.3666 243.84 93.7579C243.631 93.8794 243.397 93.9537 243.156 93.9759C242.915 93.998 242.672 93.9672 242.444 93.8859C242.222 93.7336 242.038 93.5318 241.907 93.2964C241.776 93.0609 241.701 92.7983 241.689 92.5291C241.567 91.9836 241.566 91.4181 241.685 90.8721C241.805 90.326 242.042 89.8126 242.38 89.3677C242.671 89.0747 243.019 88.8441 243.402 88.6901C243.785 88.536 244.195 88.4617 244.608 88.4718C244.871 88.4448 245.137 88.4756 245.387 88.5618C245.637 88.648 245.865 88.7876 246.055 88.971Z" fill="#FDB9A9"/>
<path d="M233.328 101.13C233.392 101.655 232.982 102.116 232.931 102.641C232.88 103.165 232.931 103.792 232.931 104.368C232.905 105.096 232.664 105.799 232.24 106.391C231.731 106.904 231.087 107.263 230.383 107.427C228.942 107.966 227.416 108.244 225.877 108.247C225.24 108.211 224.607 108.129 223.982 108.003C222.97 107.837 220.345 107.927 220.141 106.544C220.203 105.786 220.412 105.047 220.755 104.368C220.87 103.997 220.973 103.626 221.075 103.255C221.178 102.884 221.319 102.333 221.421 101.873C221.907 99.6711 222.24 97.2137 223.982 95.7162C224.417 95.3194 225.147 95.0378 225.544 95.473C225.941 95.9081 225.8 96.5353 226.261 96.6505C226.422 96.6638 226.585 96.6374 226.734 96.5737C228.447 95.7956 230.324 95.4485 232.201 95.5626C232.554 95.5813 232.895 95.6885 233.195 95.8742C233.495 96.0598 233.743 96.318 233.917 96.6249C234.416 97.9048 232.778 99.1847 233.174 100.465C233.251 100.68 233.303 100.903 233.328 101.13Z" fill="#FDB9A9"/>
<path d="M229.538 150.33C229.195 149.985 228.818 149.677 228.412 149.409C228.668 154.157 229.449 159.124 232.355 162.886C233.112 163.748 233.818 164.655 234.468 165.6C235.748 167.75 235.85 170.54 237.489 172.435C238.929 173.815 240.764 174.71 242.739 174.995C244.46 175.594 246.344 175.521 248.014 174.79C249.341 173.794 250.322 172.406 250.817 170.822C251.931 168.173 253.98 164.346 252.29 161.479C251.086 159.444 247.297 157.831 244.992 157.831C241.828 157.026 238.736 155.96 235.748 154.644C234.254 154.131 232.853 153.379 231.6 152.417C230.857 151.79 230.243 151.009 229.538 150.33Z" fill="white"/>
<path opacity="0.1" d="M161.655 169.939C160.76 172.837 160.374 175.868 160.516 178.898C160.52 179.359 160.473 179.818 160.375 180.268C160.208 179.935 160.029 179.769 159.85 179.82C155.292 181.1 145.51 183.66 140.875 184.479C140.205 184.641 139.51 184.675 138.827 184.581C138.123 184.401 137.468 184.069 136.906 183.608C131.17 179.397 127.944 173.126 125.908 166.522C126.052 165.378 126.305 164.251 126.664 163.155C129.391 164.627 130.812 167.648 132.515 170.246C134.155 172.772 136.177 175.03 138.507 176.94C138.97 177.369 139.52 177.692 140.12 177.887C140.83 178.024 141.562 177.993 142.258 177.798C149.223 176.479 156.598 174.892 161.655 169.939Z" fill="#020202"/>
<path opacity="0.1" d="M262.289 186.911C258.28 190.802 254.043 194.452 249.601 197.841C246.439 200.286 243.059 202.692 239.115 203.46C237.546 203.832 235.902 203.729 234.391 203.166C233.14 202.525 232.02 201.657 231.088 200.606C229.948 199.479 216.889 184.453 216.671 184.453C215.933 184.849 215.365 185.5 215.071 186.283C213.178 190.183 212.011 194.394 211.627 198.712C211.473 200.645 211.473 202.588 211.627 204.522C212.139 211.088 214.443 217.859 212.164 224.054C211.72 225.371 210.97 226.564 209.975 227.535C209.008 228.355 207.902 228.997 206.71 229.43C204.137 230.451 201.508 231.327 198.836 232.054C197.541 232.441 196.174 232.524 194.841 232.297C194.073 232.143 192.14 230.774 191.602 230.838C193.557 230.556 195.394 229.734 196.907 228.466C198.42 227.197 199.549 225.532 200.168 223.657C201.077 220.701 200.628 217.526 200.641 214.429C200.753 210.836 201.182 207.26 201.922 203.742L204.661 188.754C205.583 183.634 207.453 176.364 212.779 174.06C213.841 173.599 215.007 174.355 215.928 175.071C222.1 179.909 228.386 184.863 232.816 191.352C234.096 193.157 235.262 195.192 237.284 196.011C239.307 196.83 241.958 196.1 244.147 195.217C247.413 193.9 250.59 192.373 253.66 190.648C255.965 189.368 259.012 186.463 261.88 186.808C262.019 186.829 262.157 186.863 262.289 186.911Z" fill="#020202"/>
</g>
<defs>
<linearGradient id="paint0_linear" x1="181.667" y1="269.709" x2="181.667" y2="383.584" gradientUnits="userSpaceOnUse">
<stop offset="0.01"/>
<stop offset="0.08" stop-opacity="0.69"/>
<stop offset="0.21" stop-opacity="0.32"/>
<stop offset="1" stop-opacity="0"/>
</linearGradient>
<linearGradient id="paint1_linear" x1="32033.6" y1="4090.92" x2="32167.5" y2="1053.07" gradientUnits="userSpaceOnUse">
<stop offset="0.01"/>
<stop offset="0.08" stop-opacity="0.69"/>
<stop offset="0.21" stop-opacity="0.32"/>
<stop offset="1" stop-opacity="0"/>
</linearGradient>
<linearGradient id="paint2_linear" x1="6731.87" y1="4456.11" x2="6866.01" y2="1414.46" gradientUnits="userSpaceOnUse">
<stop offset="0.01"/>
<stop offset="0.08" stop-opacity="0.69"/>
<stop offset="0.21" stop-opacity="0.32"/>
<stop offset="1" stop-opacity="0"/>
</linearGradient>
<linearGradient id="paint3_linear" x1="-222113" y1="-5064.63" x2="-222201" y2="288.207" gradientUnits="userSpaceOnUse">
<stop offset="0.01"/>
<stop offset="0.08" stop-opacity="0.69"/>
<stop offset="0.21" stop-opacity="0.32"/>
<stop offset="1" stop-opacity="0"/>
</linearGradient>
<linearGradient id="paint4_linear" x1="2474.24" y1="9410.1" x2="4855.04" y2="9529.14" gradientUnits="userSpaceOnUse">
<stop offset="0.01"/>
<stop offset="0.08" stop-opacity="0.69"/>
<stop offset="0.21" stop-opacity="0.32"/>
<stop offset="1" stop-opacity="0"/>
</linearGradient>
<linearGradient id="paint5_linear" x1="6204.48" y1="19527.9" x2="17545.6" y2="13781.6" gradientUnits="userSpaceOnUse">
<stop offset="0.01"/>
<stop offset="0.08" stop-opacity="0.69"/>
<stop offset="0.21" stop-opacity="0.32"/>
<stop offset="1" stop-opacity="0"/>
</linearGradient>
<clipPath id="clip0">
<rect width="507" height="382" fill="white"/>
</clipPath>
</defs>
</svg>
