<svg width="1440" height="1034" viewBox="0 0 1440 1034" fill="none" xmlns="http://www.w3.org/2000/svg">
<path d="M 0 108 C 83 153 169.19 180.967 277.5 172 C 393.654 162.384 453.536 136.695 566.5 108 C 708.102 72.0301 779.477 25.9655 925 13.0001 C 1069.82 0.0972 1157 -12.4999 1293.5 32.0001 C 1356.01 52.3794 1440 108 1440 108 V 962 L 1342.5 912.5 C 1342.5 912.5 1183.55 860.118 1080.5 857.5 C 959.918 854.437 901.082 863.547 784.5 894.5 C 700.218 916.877 649.741 950.517 566.5 976.5 C 455.243 1011.23 393.782 1024.58 277.5 1032.5 C 168.791 1039.91 52 1006 0 962 V 155 Z" fill="#CDDFFF" fill-opacity="0.32"/>
</svg>
