<svg width="49" height="41" viewBox="0 0 49 41" fill="none" xmlns="http://www.w3.org/2000/svg">
<path d="M15.66 0.119992C5.86 7.11999 0.68 16.36 0.68 26.16V26.72C0.68 35.12 5.3 40.44 11.74 40.44C17.06 40.44 21.54 36.24 21.54 30.5C21.54 24.9 17.62 21.26 12.3 21.26C11.18 21.26 9.92 21.54 8.94 21.96C9.92 15.52 14.82 9.91999 21.12 5.15999L15.66 0.119992ZM42.96 0.119992C33.16 7.11999 27.98 16.36 27.98 26.16V26.72C27.98 35.12 32.6 40.44 39.04 40.44C44.36 40.44 48.84 36.24 48.84 30.5C48.84 24.9 44.92 21.26 39.6 21.26C38.48 21.26 37.22 21.54 36.24 21.96C37.22 15.52 42.12 9.91999 48.42 5.15999L42.96 0.119992Z" fill="#CDDFFF"/>
</svg>
