<?xml version="1.0" standalone="no"?>
<!DOCTYPE svg PUBLIC "-//W3C//DTD SVG 20010904//EN"
 "http://www.w3.org/TR/2001/REC-SVG-20010904/DTD/svg10.dtd">
<svg version="1.0" xmlns="http://www.w3.org/2000/svg"
 width="904.000000pt" height="904.000000pt" viewBox="0 0 904.000000 904.000000"
 preserveAspectRatio="xMidYMid meet">
<metadata>
Created by potrace 1.11, written by Peter Selinger 2001-2013
</metadata>
<g transform="translate(0.000000,904.000000) scale(0.100000,-0.100000)"
fill="#000000" stroke="none">
<path d="M6125 8414 c-402 -52 -732 -202 -974 -443 -257 -256 -409 -611 -463
-1081 -19 -167 -19 -4572 0 -4735 108 -916 601 -1422 1487 -1525 50 -6 314
-14 588 -17 l497 -6 0 511 0 512 -416 0 c-438 0 -506 5 -626 46 -119 40 -195
89 -293 188 -120 122 -176 220 -222 387 -17 60 -18 194 -18 2274 0 2126 1
2213 19 2280 76 287 281 503 556 586 72 22 92 23 538 27 l462 3 0 505 0 504
-512 -1 c-376 -1 -542 -5 -623 -15z"/>
<path d="M0 3305 l0 -2706 1158 4 c1028 3 1169 5 1262 20 524 85 904 330 1200
775 273 409 436 912 502 1552 20 193 17 768 -5 952 -73 607 -198 978 -461
1368 -92 137 -304 351 -434 439 -194 131 -418 219 -663 260 -222 37 -338 41
-1461 41 l-1098 0 0 -2705z m2250 1732 c391 -86 578 -259 709 -654 90 -268
121 -498 128 -928 6 -373 -6 -531 -57 -786 -115 -572 -372 -935 -755 -1066
-138 -47 -220 -53 -767 -53 l-508 0 0 1756 0 1755 588 -4 c497 -3 598 -6 662
-20z"/>
<path d="M8020 3315 l0 -2695 510 0 510 0 0 2695 0 2695 -510 0 -510 0 0
-2695z"/>
</g>
</svg>
