<svg width="100%" viewBox="0 0 98 85" fill="none" xmlns="http://www.w3.org/2000/svg">
<path d="M53.0689 82.4259C64.9569 82.4259 74.5939 81.5046 74.5939 80.3681C74.5939 79.2316 64.9569 78.3103 53.0689 78.3103C41.181 78.3103 31.5439 79.2316 31.5439 80.3681C31.5439 81.5046 41.181 82.4259 53.0689 82.4259Z" fill="#D1D3D4"/>
<path d="M46.3675 73.7375H59.77L61.375 67.3018H44.7588L46.3675 73.7375Z" fill="white"/>
<path d="M59.7703 73.925H46.3753C46.3333 73.9247 46.2925 73.9106 46.2593 73.8849C46.2261 73.8591 46.2023 73.8232 46.1916 73.7825L44.5866 67.3469C44.5789 67.3193 44.578 67.2902 44.5839 67.2622C44.5898 67.2342 44.6023 67.2079 44.6203 67.1857C44.6376 67.1634 44.6598 67.1454 44.6851 67.133C44.7105 67.1207 44.7383 67.1143 44.7666 67.1145H61.3753C61.4041 67.1143 61.4325 67.1206 61.4584 67.133C61.4844 67.1453 61.5073 67.1633 61.5253 67.1857C61.5426 67.2084 61.5546 67.2346 61.5604 67.2625C61.5663 67.2904 61.5658 67.3192 61.5591 67.3469L59.9503 73.7825C59.9409 73.8232 59.918 73.8594 59.8853 73.8853C59.8526 73.9112 59.812 73.9252 59.7703 73.925ZM46.5141 73.5501H59.6391L61.1391 67.4893H45.0141L46.5141 73.5501Z" fill="#231F20"/>
<path d="M68.0911 47.2153C68.0911 47.2153 75.1111 51.6044 77.5524 58.9171C79.9936 66.2299 74.4286 80.3569 74.4286 80.3569L61.6523 66.511L68.0911 47.2153Z" fill="white"/>
<path d="M74.4288 80.5555C74.4031 80.5552 74.3777 80.5493 74.3544 80.5383C74.3311 80.5273 74.3105 80.5115 74.2938 80.4918L61.5138 66.6497C61.492 66.6243 61.4768 66.5939 61.4696 66.5612C61.4624 66.5285 61.4634 66.4945 61.4726 66.4623L67.9113 47.159C67.9206 47.1317 67.9358 47.1067 67.9559 47.086C67.9761 47.0653 68.0005 47.0492 68.0276 47.0391C68.0528 47.0271 68.0803 47.0209 68.1082 47.0209C68.1361 47.0209 68.1636 47.0271 68.1888 47.0391C68.2601 47.0841 75.3138 51.5369 77.7288 58.8384C78.7526 61.9045 78.5351 66.4698 77.0876 72.4107C76.4206 75.1265 75.5916 77.8 74.6051 80.4168C74.5939 80.4465 74.5753 80.4728 74.551 80.4932C74.5267 80.5136 74.4975 80.5273 74.4663 80.533L74.4288 80.5555ZM61.8663 66.4885L74.3613 80.027C75.1113 78.003 79.5738 65.5852 77.3613 58.9884C75.2051 52.5152 69.3401 48.3022 68.1776 47.5189L61.8663 66.4885Z" fill="#231F20"/>
<path d="M37.7194 47.2153C37.7194 47.2153 30.6956 51.6044 28.2581 58.9171C25.8206 66.2299 31.3744 80.3569 31.3744 80.3569L44.1544 66.511L37.7194 47.2153Z" fill="white"/>
<path d="M31.3748 80.5555H31.341C31.3099 80.5498 31.2807 80.536 31.2564 80.5157C31.232 80.4953 31.2134 80.469 31.2023 80.4393C30.2157 77.8225 29.3868 75.149 28.7198 72.4332C27.2685 66.4923 27.0548 61.9382 28.0786 58.8609C30.5085 51.5707 37.5473 47.1066 37.6185 47.0616C37.6437 47.0496 37.6713 47.0434 37.6992 47.0434C37.7271 47.0434 37.7546 47.0496 37.7798 47.0616C37.8069 47.0717 37.8313 47.0877 37.8514 47.1085C37.8715 47.1292 37.8868 47.1542 37.896 47.1815L44.331 66.4848C44.3418 66.5165 44.344 66.5506 44.3374 66.5835C44.3308 66.6164 44.3157 66.647 44.2935 66.6722L31.5135 80.5143C31.4945 80.5304 31.4724 80.5423 31.4485 80.5494C31.4246 80.5565 31.3995 80.5586 31.3748 80.5555ZM37.6148 47.5076C36.456 48.291 30.591 52.504 28.431 58.9771C26.2298 65.5739 30.681 77.9917 31.431 80.0158L43.9448 66.4885L37.6148 47.5076Z" fill="#231F20"/>
<path d="M41.5891 69.7382C38.0941 61.3872 35.9004 49.2805 35.9004 35.8095C35.9004 15.3968 47.1504 4.76687 51.4441 1.4647C51.9085 1.10575 52.479 0.911011 53.066 0.911011C53.653 0.911011 54.2235 1.10575 54.6879 1.4647C58.9704 4.76687 70.2354 15.3968 70.2354 35.8095C70.2354 49.2805 68.0379 61.3872 64.5466 69.7382C64.5466 69.7382 61.0666 71.4924 53.0679 71.4924C45.0691 71.4924 41.5891 69.7382 41.5891 69.7382Z" fill="white"/>
<path d="M53.0689 71.6798C45.1151 71.6798 41.6501 69.9781 41.5039 69.9069C41.4644 69.8875 41.4337 69.854 41.4176 69.8132C37.7914 61.1436 35.7139 48.7483 35.7139 35.8095C35.7139 15.5504 46.6339 4.93927 51.3289 1.32601C51.8274 0.943339 52.4384 0.735901 53.067 0.735901C53.6956 0.735901 54.3066 0.943339 54.8051 1.32601C59.5001 4.95052 70.4239 15.5692 70.4239 35.8095C70.4239 48.7483 68.3426 61.1436 64.7201 69.8132C64.7025 69.8543 64.6705 69.8876 64.6301 69.9069C64.4876 69.9781 61.0189 71.6798 53.0689 71.6798ZM41.7364 69.5995C42.2314 69.8244 45.7789 71.3049 53.0689 71.3049C60.3589 71.3049 63.9064 69.8244 64.4014 69.5995C67.9901 60.9786 70.0489 48.6695 70.0489 35.8095C70.0489 15.7191 59.2264 5.20165 54.5764 1.61462C54.1461 1.28453 53.6188 1.10561 53.0764 1.10561C52.5339 1.10561 52.0067 1.28453 51.5764 1.61462C46.9226 5.20165 36.1039 15.7154 36.1039 35.8095C36.0889 48.6695 38.1439 60.9786 41.7364 69.5995Z" fill="#231F20"/>
<path d="M54.6886 1.4647C59.939 5.64754 64.0451 11.0901 66.6249 17.2859H39.5049C42.0857 11.0897 46.1932 5.64708 51.4449 1.4647C51.9093 1.10575 52.4797 0.911011 53.0668 0.911011C53.6538 0.911011 54.2242 1.10575 54.6886 1.4647Z" fill="white"/>
<path d="M66.6252 17.4733H39.5052C39.4738 17.4732 39.443 17.4653 39.4155 17.4502C39.3879 17.4352 39.3646 17.4135 39.3477 17.3871C39.3329 17.36 39.3252 17.3298 39.3252 17.299C39.3252 17.2682 39.3329 17.2379 39.3477 17.2109C43.0002 8.61627 48.434 3.56369 51.3477 1.31477C51.8462 0.932107 52.4572 0.72467 53.0858 0.72467C53.7144 0.72467 54.3254 0.932107 54.824 1.31477C57.7377 3.56369 63.1715 8.61627 66.824 17.2109C66.8387 17.2379 66.8465 17.2682 66.8465 17.299C66.8465 17.3298 66.8387 17.36 66.824 17.3871C66.8038 17.4202 66.7739 17.4463 66.7383 17.4618C66.7027 17.4772 66.6632 17.4812 66.6252 17.4733ZM39.7827 17.0984H66.3402C62.7215 8.73996 57.4227 3.81482 54.569 1.61463C54.1387 1.28454 53.6114 1.10562 53.069 1.10562C52.5265 1.10562 51.9993 1.28454 51.569 1.61463C48.704 3.81482 43.4052 8.73996 39.7902 17.0984H39.7827Z" fill="#231F20"/>
<path d="M48.2012 40.1462H56.5937V47.2678C56.5937 47.6057 56.4593 47.9299 56.2202 48.1689C55.9811 48.4079 55.6568 48.5421 55.3187 48.5421H49.4762C49.138 48.5421 48.8137 48.4079 48.5746 48.1689C48.3355 47.9299 48.2012 47.6057 48.2012 47.2678V40.1462Z" fill="white"/>
<path d="M55.3149 48.722H49.4762C49.088 48.721 48.716 48.5662 48.4418 48.2915C48.1676 48.0167 48.0137 47.6445 48.0137 47.2565V40.1349C48.0137 40.0852 48.0334 40.0375 48.0686 40.0024C48.1038 39.9672 48.1514 39.9475 48.2012 39.9475H56.5937C56.6434 39.9475 56.6911 39.9672 56.7263 40.0024C56.7614 40.0375 56.7812 40.0852 56.7812 40.1349V47.2565C56.7812 47.6452 56.6267 48.0179 56.3517 48.2928C56.0767 48.5676 55.7038 48.722 55.3149 48.722ZM48.3887 40.3336V47.2565C48.3887 47.5451 48.5031 47.822 48.707 48.0264C48.9108 48.2309 49.1874 48.3462 49.4762 48.3472H55.3149C55.604 48.3462 55.881 48.231 56.0855 48.0266C56.2899 47.8223 56.4052 47.5455 56.4062 47.2565V40.3336H48.3887Z" fill="#231F20"/>
<path d="M52.3977 42.9273C58.1802 42.9273 62.8677 38.242 62.8677 32.4623C62.8677 26.6827 58.1802 21.9974 52.3977 21.9974C46.6153 21.9974 41.9277 26.6827 41.9277 32.4623C41.9277 38.242 46.6153 42.9273 52.3977 42.9273Z" fill="white"/>
<path d="M52.3974 43.1147C50.2887 43.1155 48.2271 42.4911 46.4733 41.3207C44.7196 40.1502 43.3525 38.4862 42.545 36.5391C41.7375 34.592 41.5259 32.4493 41.9368 30.382C42.3478 28.3146 43.3629 26.4155 44.8537 24.9249C46.3446 23.4342 48.2442 22.419 50.3124 22.0075C52.3806 21.596 54.5244 21.8068 56.4727 22.6132C58.421 23.4197 60.0863 24.7855 61.2579 26.538C62.4296 28.2904 63.0549 30.3508 63.0549 32.4586C63.052 35.2832 61.9283 37.9913 59.9304 39.989C57.9324 41.9867 55.2234 43.1108 52.3974 43.1147ZM52.3974 22.181C50.3627 22.1803 48.3734 22.7827 46.6813 23.9122C44.9891 25.0416 43.6701 26.6473 42.8911 28.5261C42.1121 30.4049 41.9081 32.4725 42.3049 34.4672C42.7017 36.4619 43.6814 38.2942 45.1202 39.7323C46.559 41.1704 48.3922 42.1497 50.3879 42.5463C52.3835 42.9429 54.4521 42.739 56.3318 41.9603C58.2115 41.1817 59.818 39.8633 60.9479 38.172C62.0779 36.4807 62.6807 34.4924 62.6799 32.4586C62.676 29.734 61.5914 27.1222 59.6639 25.1956C57.7364 23.2691 55.1233 22.185 52.3974 22.181Z" fill="#231F20"/>
<path d="M52.3968 38.9205C55.9652 38.9205 58.858 36.0291 58.858 32.4623C58.858 28.8956 55.9652 26.0042 52.3968 26.0042C48.8283 26.0042 45.9355 28.8956 45.9355 32.4623C45.9355 36.0291 48.8283 38.9205 52.3968 38.9205Z" fill="#231F20"/>
<path d="M52.3976 39.1042C51.0825 39.1049 49.7966 38.7158 48.7028 37.986C47.6089 37.2562 46.7561 36.2186 46.2523 35.0043C45.7485 33.7901 45.6163 32.4538 45.8724 31.1644C46.1285 29.8751 46.7615 28.6906 47.6912 27.7608C48.6209 26.831 49.8056 26.1977 51.0954 25.941C52.3852 25.6843 53.7223 25.8157 54.9374 26.3185C56.1525 26.8214 57.1911 27.6732 57.9218 28.7661C58.6526 29.8591 59.0426 31.1441 59.0426 32.4586C59.0406 34.2198 58.34 35.9085 57.0944 37.1542C55.8487 38.3999 54.1597 39.1012 52.3976 39.1042ZM52.3976 26.1916C51.1565 26.1909 49.943 26.5581 48.9107 27.2469C47.8784 27.9356 47.0737 28.9149 46.5984 30.0609C46.1231 31.2069 45.9985 32.468 46.2405 33.6848C46.4824 34.9015 47.08 36.0192 47.9577 36.8964C48.8353 37.7736 49.9535 38.3709 51.1708 38.6128C52.3882 38.8546 53.6499 38.7301 54.7965 38.255C55.943 37.78 56.9228 36.9756 57.6119 35.9438C58.301 34.9121 58.6684 33.6991 58.6676 32.4586C58.6656 30.7971 58.0044 29.2042 56.829 28.0294C55.6536 26.8545 54.0599 26.1936 52.3976 26.1916Z" fill="#231F20"/>
<path d="M47.2708 32.05H47.2446C47.2204 32.0468 47.197 32.0388 47.1759 32.0265C47.1548 32.0141 47.1364 31.9977 47.1217 31.9782C47.107 31.9586 47.0964 31.9363 47.0905 31.9126C47.0845 31.8889 47.0834 31.8643 47.0871 31.8401C47.8108 26.87 52.3746 27.1324 52.4083 27.1324C52.4581 27.1359 52.5044 27.159 52.5371 27.1966C52.5698 27.2342 52.5862 27.2832 52.5827 27.3329C52.5792 27.3826 52.5561 27.4289 52.5185 27.4616C52.4809 27.4943 52.4318 27.5107 52.3821 27.5072C52.2096 27.5072 48.1296 27.2823 47.4546 31.9039C47.4452 31.9455 47.4219 31.9827 47.3884 32.0093C47.355 32.0358 47.3135 32.0502 47.2708 32.05Z" fill="white"/>
<path d="M54.6732 28.1144C54.6309 28.1139 54.5901 28.0994 54.5569 28.0732C54.2686 27.8661 53.9361 27.7288 53.5857 27.6721C53.5365 27.6656 53.4919 27.6399 53.4616 27.6005C53.4314 27.5612 53.418 27.5114 53.4244 27.4622C53.4319 27.4135 53.4579 27.3695 53.497 27.3395C53.5361 27.3094 53.5854 27.2957 53.6344 27.3011C54.0504 27.3665 54.445 27.5297 54.7857 27.7771C54.8249 27.8075 54.8504 27.8521 54.8568 27.9013C54.8631 27.9505 54.8497 28.0002 54.8194 28.0395C54.8023 28.0622 54.7803 28.0808 54.755 28.0938C54.7296 28.1068 54.7016 28.1139 54.6732 28.1144Z" fill="white"/>
<path d="M42.8573 66.8333C42.8181 66.8336 42.7799 66.8214 42.7482 66.7985C42.7165 66.7756 42.693 66.7431 42.681 66.7059C40.8602 60.9418 39.3913 55.0726 38.2823 49.1306C38.2735 49.0819 38.2843 49.0317 38.3124 48.991C38.3405 48.9503 38.3836 48.9223 38.4323 48.9132C38.4564 48.9083 38.4813 48.9084 38.5055 48.9133C38.5296 48.9183 38.5525 48.9281 38.5728 48.942C38.5931 48.956 38.6104 48.974 38.6236 48.9948C38.6368 49.0156 38.6457 49.0388 38.6498 49.0631C39.7559 54.9871 41.2198 60.8388 43.0335 66.586C43.0491 66.6327 43.0456 66.6837 43.0238 66.7279C43.0021 66.772 42.9638 66.8059 42.9173 66.8221L42.8573 66.8333Z" fill="white"/>
<path d="M48.2012 46.2482C48.2012 46.0758 56.5937 46.2482 56.5937 46.2482H48.2012Z" fill="white"/>
<path d="M56.5932 46.4506C53.6157 46.3907 48.7932 46.3269 48.302 46.4244C48.2622 46.4542 48.2122 46.467 48.1629 46.46C48.1137 46.453 48.0693 46.4267 48.0395 46.3869C48.0096 46.3471 47.9968 46.2972 48.0038 46.248C48.0109 46.1988 48.0372 46.1544 48.0769 46.1245C48.1482 46.0533 48.2982 45.9071 56.6007 46.0758C56.6504 46.0758 56.6981 46.0956 56.7333 46.1307C56.7684 46.1658 56.7882 46.2135 56.7882 46.2632C56.7882 46.3129 56.7684 46.3606 56.7333 46.3957C56.6981 46.4309 56.6504 46.4506 56.6007 46.4506H56.5932Z" fill="#231F20"/>
<path d="M48.2012 44.3741C48.2012 44.2017 56.5937 44.3741 56.5937 44.3741H48.2012Z" fill="white"/>
<path d="M56.5932 44.5653C53.6157 44.5053 48.7932 44.4453 48.302 44.5391C48.2622 44.5689 48.2122 44.5817 48.1629 44.5746C48.1137 44.5676 48.0693 44.5413 48.0395 44.5016C48.0096 44.4618 47.9968 44.4118 48.0038 44.3626C48.0109 44.3134 48.0372 44.269 48.0769 44.2392C48.1482 44.168 48.2982 44.0218 56.6007 44.1905C56.6498 44.1933 56.696 44.2146 56.7301 44.25C56.7642 44.2855 56.7836 44.3325 56.7844 44.3816C56.7825 44.431 56.7615 44.4777 56.7258 44.512C56.6902 44.5462 56.6426 44.5653 56.5932 44.5653Z" fill="#231F20"/>
<path d="M49 48.4409H55.6488C55.6488 48.8157 55.4998 49.1751 55.2347 49.4401C54.9695 49.7051 54.61 49.854 54.235 49.854H50.4138C50.0388 49.854 49.6792 49.7051 49.4141 49.4401C49.1489 49.1751 49 48.8157 49 48.4409Z" fill="#231F20"/>
<path d="M54.25 50.0414H50.4138C49.9891 50.0414 49.5818 49.8728 49.2815 49.5726C48.9812 49.2725 48.8125 48.8654 48.8125 48.4409C48.8125 48.3912 48.8323 48.3435 48.8674 48.3084C48.9026 48.2732 48.9503 48.2535 49 48.2535H55.6487C55.6985 48.2535 55.7462 48.2732 55.7813 48.3084C55.8165 48.3435 55.8363 48.3912 55.8363 48.4409C55.8363 48.8628 55.6696 49.2676 55.3726 49.5673C55.0755 49.8671 54.6721 50.0374 54.25 50.0414ZM49.2175 48.6283C49.2622 48.9174 49.4089 49.1809 49.6311 49.3713C49.8532 49.5617 50.1361 49.6664 50.4287 49.6666H54.25C54.5426 49.6664 54.8256 49.5617 55.0477 49.3713C55.2698 49.1809 55.4165 48.9174 55.4612 48.6283H49.2175Z" fill="#231F20"/>
<path d="M42.0654 63.0364C42.0654 63.0364 46.9854 63.7149 48.7367 63.49L49.0217 67.3881C49.0217 67.3881 43.6517 67.3169 42.2942 66.6385L42.0654 63.0364Z" fill="white"/>
<path d="M49.022 67.5792C48.8007 67.5792 43.592 67.5005 42.212 66.8296C42.1809 66.8152 42.1543 66.7926 42.1351 66.7642C42.1159 66.7358 42.1049 66.7027 42.1032 66.6684L41.8782 63.0589C41.8766 63.0305 41.8812 63.0021 41.8915 62.9755C41.9019 62.949 41.9178 62.9251 41.9382 62.9052C41.9592 62.8859 41.9842 62.8715 42.0115 62.863C42.0387 62.8546 42.0675 62.8524 42.0957 62.8565C42.1482 62.8565 47.0082 63.5274 48.7182 63.3063C48.7444 63.3033 48.7709 63.3058 48.7961 63.3135C48.8212 63.3213 48.8445 63.3341 48.8645 63.3513C48.8848 63.3678 48.9016 63.3883 48.9139 63.4115C48.9261 63.4347 48.9336 63.4601 48.9357 63.4862L49.217 67.3843C49.219 67.411 49.2153 67.4378 49.2063 67.463C49.1972 67.4882 49.183 67.5112 49.1645 67.5305C49.1452 67.5477 49.1226 67.5608 49.0981 67.5692C49.0737 67.5775 49.0478 67.581 49.022 67.5792ZM42.4782 66.5185C43.7607 67.0507 47.837 67.1669 48.812 67.1894L48.5607 63.6998C46.8882 63.8423 43.2432 63.3887 42.2757 63.2576L42.4782 66.5185Z" fill="#D1D3D4"/>
<path d="M5.05778 67.7742C5.49552 68.5531 6.17838 69.1658 7.00028 69.5171C7.69778 69.8094 8.50028 69.7307 9.22403 69.8919C11.2978 70.3079 13.3978 70.0156 15.4115 69.4309C17.4253 68.8461 19.6153 67.8491 20.6615 65.96C21.061 65.2104 21.2614 64.3709 21.2437 63.5217C21.226 62.6726 20.9907 61.8422 20.5603 61.1099C20.234 60.5701 19.8103 60.1016 19.4615 59.5768C18.9426 58.7217 18.5427 57.7999 18.2728 56.8369C17.7328 55.1352 17.3165 53.2424 16.3978 51.6944C16.2008 51.3991 15.9474 51.1457 15.6519 50.9488C15.3565 50.752 15.025 50.6155 14.6765 50.5474C14.474 50.4949 12.4828 50.5774 12.5765 50.7011C12.164 50.1539 11.3053 50.3263 10.7015 50.6299C8.93137 51.5157 7.5834 53.0651 6.95153 54.9403C6.40778 56.5745 6.44903 58.3474 6.05153 60.0229C5.74028 61.331 5.17028 62.5604 4.83278 63.861C4.49528 65.1617 4.41653 66.5935 5.05778 67.7742Z" fill="white"/>
<path d="M11.2527 70.263C10.5628 70.2644 9.87449 70.1978 9.19768 70.0643C8.92382 70.0133 8.64703 69.9795 8.36893 69.9631C7.88099 69.9499 7.39843 69.8575 6.94018 69.6895C6.07342 69.3258 5.35287 68.6834 4.89268 67.8641C4.31143 66.7959 4.23268 65.4278 4.65268 63.801C4.81768 63.1788 5.02768 62.5679 5.24143 61.9719C5.48925 61.3156 5.70082 60.6462 5.87518 59.9666C6.03243 59.2504 6.14887 58.5258 6.22393 57.7964C6.30961 56.8047 6.49428 55.8241 6.77518 54.8691C7.41871 52.9492 8.79476 51.3609 10.6039 50.4499C11.2377 50.1351 12.1039 49.9627 12.6214 50.4499C13.3162 50.3451 14.0196 50.3087 14.7214 50.3412C15.0941 50.4148 15.4484 50.5622 15.7633 50.7746C16.0782 50.987 16.3474 51.2602 16.5552 51.5782C17.2269 52.8358 17.7407 54.1715 18.0852 55.555C18.2052 55.9598 18.3214 56.3646 18.4602 56.7582C18.7252 57.7051 19.1175 58.6117 19.6264 59.4531C19.7764 59.678 19.9489 59.9029 20.1102 60.1166C20.3321 60.3963 20.5387 60.6878 20.7289 60.9899C21.1774 61.75 21.4226 62.6127 21.441 63.495C21.4594 64.3772 21.2503 65.2493 20.8339 66.0275C19.9527 67.6355 18.2089 68.8012 15.4864 69.5883C14.1142 70.012 12.6887 70.2391 11.2527 70.263ZM11.7589 50.5174C11.4146 50.5323 11.0778 50.6232 10.7727 50.7835C9.05165 51.6507 7.74294 53.1622 7.13143 54.989C6.85793 55.9197 6.67706 56.8752 6.59143 57.8414C6.51454 58.5844 6.39686 59.3227 6.23893 60.0528C6.06141 60.7458 5.84736 61.429 5.59768 62.0994C5.38768 62.6841 5.17393 63.2875 5.01643 63.8948C4.74268 64.948 4.55893 66.4585 5.22268 67.6879C5.64529 68.4338 6.30528 69.0169 7.09768 69.3446C7.52069 69.4958 7.9649 69.5793 8.41393 69.592C8.70585 69.6087 8.99642 69.6438 9.28393 69.697C11.0802 70.0718 13.0752 69.9069 15.3814 69.2397C18.0064 68.49 19.6752 67.3656 20.5077 65.8663C20.8932 65.1459 21.0864 64.3384 21.0686 63.5217C21.0509 62.7049 20.8228 61.9065 20.4064 61.2035C20.2244 60.9131 20.0266 60.6328 19.8139 60.3639C19.6452 60.1428 19.4727 59.9142 19.3152 59.678C18.7861 58.8076 18.3773 57.8695 18.1002 56.8894C17.9764 56.492 17.8564 56.0872 17.7252 55.6787C17.3868 54.3252 16.883 53.0185 16.2252 51.788C16.0419 51.5128 15.8056 51.2769 15.53 51.0941C15.2544 50.9114 14.9451 50.7854 14.6202 50.7236C13.9798 50.7027 13.3389 50.7353 12.7039 50.821C12.6982 50.8315 12.6889 50.8395 12.6777 50.8435C12.6384 50.8737 12.5887 50.8872 12.5395 50.8808C12.4903 50.8745 12.4456 50.849 12.4152 50.8098C12.337 50.7123 12.2367 50.6349 12.1226 50.584C12.0084 50.5331 11.8837 50.5103 11.7589 50.5174Z" fill="#231F20"/>
<path d="M21.3547 80.6642C21.7297 80.6642 24.486 80.9641 25.776 81.605C27.066 82.246 27.3472 82.2947 27.0847 83.1605C26.8222 84.0264 24.5497 84.24 22.8172 83.9102C21.7025 83.6823 20.6273 83.2921 19.626 82.752L21.3547 80.6642Z" fill="white"/>
<path d="M24.4111 84.225C23.8667 84.2257 23.3233 84.1781 22.7874 84.0826C21.6527 83.8505 20.5585 83.4527 19.5399 82.9019C19.5184 82.8892 19.4999 82.872 19.4857 82.8515C19.4715 82.8309 19.4619 82.8076 19.4576 82.783C19.4534 82.7584 19.4545 82.7332 19.4609 82.709C19.4673 82.6849 19.4789 82.6625 19.4949 82.6433L21.2236 80.5555C21.2384 80.5356 21.2576 80.5195 21.2797 80.5084C21.3019 80.4973 21.3264 80.4917 21.3511 80.4918C21.7524 80.4918 24.5311 80.7954 25.8511 81.4513L26.1436 81.5938C27.1824 82.1035 27.5311 82.276 27.2499 83.213C27.0324 83.9402 25.7274 84.225 24.4111 84.225ZM19.8924 82.7033C20.8267 83.1833 21.8221 83.5338 22.8511 83.7453C24.7036 84.0938 26.7211 83.7827 26.9236 83.1118C27.1261 82.4409 27.0361 82.4146 25.9936 81.9011L25.7011 81.7587C24.5161 81.1702 22.0111 80.8591 21.4336 80.8366L19.8924 82.7033Z" fill="#231F20"/>
<path d="M21.7256 80.6567C21.9695 80.715 22.1824 80.8633 22.3215 81.0718C22.4606 81.2804 22.5156 81.5338 22.4756 81.7812C22.3519 82.6995 20.4094 82.737 20.2969 82.7407C20.1844 82.7445 21.7256 80.6567 21.7256 80.6567Z" fill="white"/>
<path d="M20.2932 82.9132C20.2606 82.9127 20.2287 82.9034 20.201 82.8862C20.1732 82.8691 20.1507 82.8447 20.1357 82.8157C20.0757 82.7032 20.0457 82.6395 21.587 80.5668C21.6066 80.5396 21.6338 80.5188 21.6651 80.5068C21.6964 80.4948 21.7305 80.4922 21.7632 80.4993C22.0495 80.5658 22.2997 80.739 22.4627 80.9834C22.6257 81.2278 22.6894 81.5252 22.6407 81.8149C22.5057 82.8269 20.6645 82.9169 20.297 82.9394L20.2932 82.9132ZM21.7932 80.8554C21.3132 81.5076 20.8182 82.201 20.5857 82.5571C21.2945 82.5008 22.2357 82.291 22.3032 81.7587C22.3395 81.5716 22.3077 81.3777 22.2135 81.2121C22.1193 81.0464 21.9689 80.9199 21.7895 80.8554H21.7932Z" fill="#231F20"/>
<path d="M7.31455 82.7595C7.25455 82.7895 6.72955 83.4754 4.4233 83.7527C2.11704 84.0301 1.26205 84.5211 0.748295 83.3105C0.234545 82.0998 0.587045 81.3201 1.7233 80.9753C2.85955 80.6305 5.9908 80.3419 6.5983 80.9191C7.2058 81.4963 7.31455 82.7595 7.31455 82.7595Z" fill="white"/>
<path d="M1.88471 84.2588C1.60079 84.282 1.31746 84.2073 1.08201 84.047C0.846565 83.8867 0.673242 83.6505 0.590964 83.3779C0.45559 83.1236 0.37558 82.8435 0.356191 82.556C0.336802 82.2685 0.378472 81.9802 0.478463 81.71C0.601998 81.4833 0.772685 81.2858 0.979033 81.1306C1.18538 80.9754 1.4226 80.8663 1.67471 80.8104C2.79971 80.4731 6.02846 80.1432 6.72221 80.8104C7.41596 81.4776 7.47221 82.707 7.47221 82.7632C7.47457 82.7928 7.46925 82.8225 7.45676 82.8494C7.44428 82.8763 7.42506 82.8996 7.40096 82.9169C6.69596 83.5541 5.40221 83.8202 4.43096 83.9364C3.93596 83.9964 3.51221 84.0638 3.13721 84.1238C2.72371 84.2003 2.30502 84.2454 1.88471 84.2588ZM4.88471 80.7579C3.83454 80.7551 2.78798 80.881 1.76846 81.1328C1.5638 81.1783 1.37095 81.2662 1.20237 81.3908C1.03379 81.5154 0.893212 81.6739 0.789713 81.8562C0.710371 82.0831 0.679717 82.3242 0.699745 82.5638C0.719774 82.8034 0.790036 83.0361 0.905962 83.2467C1.24346 84.0339 1.65596 83.9964 3.09221 83.7715C3.46721 83.7115 3.90221 83.6403 4.40471 83.5803C5.30846 83.4716 6.50846 83.2318 7.13471 82.6883C7.10096 82.4071 6.95846 81.4888 6.48596 81.0466C6.26846 80.8404 5.63846 80.7579 4.88846 80.7579H4.88471Z" fill="#231F20"/>
<path d="M8.04921 82.2647C8.04921 82.2647 7.00296 83.138 6.30546 83.0368C5.60796 82.9356 4.64421 82.5533 5.03421 81.7999C5.42421 81.0465 7.91796 80.5967 7.91796 80.5967L8.04921 82.2647Z" fill="white"/>
<path d="M6.42263 83.213C6.37521 83.2167 6.32756 83.2167 6.28013 83.213C6.01763 83.1718 5.12888 83.0031 4.85138 82.4634C4.79222 82.3462 4.76392 82.2158 4.76917 82.0847C4.77442 81.9535 4.81304 81.8258 4.88138 81.7137C5.29763 80.9079 7.62638 80.4656 7.88138 80.4206C7.90484 80.4169 7.9288 80.418 7.95183 80.4238C7.97486 80.4296 7.99648 80.44 8.01539 80.4543C8.03431 80.4687 8.05012 80.4867 8.06189 80.5073C8.07366 80.5279 8.08114 80.5507 8.08388 80.5743L8.21138 82.246C8.21448 82.2729 8.21058 82.3001 8.20007 82.3251C8.18956 82.35 8.17279 82.3718 8.15138 82.3884C8.12513 82.4334 7.16888 83.213 6.42263 83.213ZM7.75013 80.7992C6.97763 80.9566 5.43639 81.3651 5.17014 81.8787C5.13059 81.9414 5.10746 82.0131 5.10287 82.0871C5.09828 82.1611 5.11239 82.2351 5.14389 82.3022C5.30514 82.6133 5.89388 82.8007 6.31763 82.8644C6.74138 82.9282 7.53263 82.4446 7.85513 82.1898L7.75013 80.7992Z" fill="#231F20"/>
<path d="M20.6119 74.937C20.6119 74.937 19.5094 79.2324 15.4857 80.057C11.4619 80.8816 9.38065 80.6605 7.95565 77.9468C6.53066 75.2331 7.4719 73.5689 7.4719 73.5689L20.1694 73.3177L20.6119 74.937Z" fill="#231F20"/>
<path d="M12.1557 80.668C10.1719 80.668 8.80692 79.9745 7.78692 78.0442C6.33192 75.2706 7.26942 73.5464 7.31067 73.4902C7.32593 73.4614 7.34856 73.4373 7.37623 73.4201C7.40391 73.403 7.43563 73.3936 7.46817 73.3927L20.1657 73.1416C20.2073 73.1431 20.2474 73.1571 20.2809 73.1819C20.3144 73.2066 20.3396 73.2409 20.3532 73.2803L20.7919 74.8995C20.7994 74.9303 20.7994 74.9624 20.7919 74.9932C20.7919 75.0382 19.6144 79.4161 15.5419 80.2407C14.4299 80.4934 13.2957 80.6365 12.1557 80.668ZM7.59192 73.7563C7.43442 74.1311 6.95067 75.6304 8.12067 77.8568C9.53442 80.5518 11.6119 80.6567 15.4482 79.8733C19.0857 79.1237 20.2819 75.3755 20.4169 74.937L20.0419 73.5089L7.59192 73.7563Z" fill="#231F20"/>
<path d="M6.51591 74.9744C6.51591 74.9744 4.43466 68.2539 4.70841 64.0447C4.98216 59.8354 7.74966 59.5206 8.68341 59.4419C9.61716 59.3632 14.6834 58.5873 16.5809 60.8137C18.4784 63.0402 21.8047 73.4677 21.8047 73.4677L6.51591 74.9744Z" fill="#0064FF"/>
<path d="M14.0309 59.4531L13.7009 61.7021C13.4778 62.0398 13.1389 62.2844 12.7481 62.39C12.3573 62.4956 11.9413 62.4549 11.5784 62.2755C10.1571 61.6871 10.1309 60.6038 10.1309 60.6038L10.8059 56.4471C11.8609 55.3677 12.5956 54.017 12.9284 52.5452C12.9284 52.5452 14.1809 54.7304 15.9959 55.2214C15.9305 56.2118 15.7812 57.1949 15.5496 58.16C15.2496 59.247 14.0534 59.4419 14.0309 59.4531Z" fill="white"/>
<path d="M12.3471 62.6316C12.0564 62.6277 11.7694 62.5652 11.5034 62.448C10.0034 61.822 9.94711 60.6563 9.94336 60.6076L10.6184 56.4171C10.6269 56.3756 10.6479 56.3377 10.6784 56.3084C11.7035 55.2524 12.4183 53.935 12.7446 52.5002C12.7536 52.4638 12.7734 52.431 12.8016 52.4062C12.8298 52.3814 12.8648 52.3658 12.9021 52.3615C12.9388 52.3563 12.9761 52.3621 13.0095 52.3781C13.0428 52.3941 13.0707 52.4197 13.0896 52.4515C13.0896 52.474 14.3271 54.5767 16.0446 55.0377C16.0865 55.0496 16.123 55.0754 16.1483 55.1108C16.1735 55.1463 16.1859 55.1892 16.1834 55.2327C16.1176 56.2371 15.9657 57.234 15.7296 58.2125C15.6186 58.5578 15.4189 58.868 15.1504 59.112C14.8819 59.356 14.5541 59.5253 14.1996 59.6031L13.8884 61.732C13.8853 61.7563 13.8762 61.7795 13.8621 61.7995C13.6949 62.0495 13.47 62.2557 13.2063 62.4005C12.9426 62.5453 12.6479 62.6246 12.3471 62.6316ZM10.9784 56.5408L10.3184 60.6338C10.3184 60.6338 10.3709 61.5746 11.6496 62.1031C11.9662 62.2639 12.3302 62.305 12.6747 62.219C13.0192 62.1329 13.321 61.9254 13.5246 61.6346L13.8434 59.4269C13.8489 59.3992 13.8601 59.3729 13.8762 59.3497C13.8923 59.3265 13.9131 59.3068 13.9371 59.292L14.0121 59.2657C14.3213 59.2117 14.6104 59.0757 14.8492 58.872C15.0879 58.6683 15.2676 58.4043 15.3696 58.1075C15.5886 57.204 15.7316 56.2837 15.7971 55.3563C14.4471 54.9216 13.4346 53.6397 12.9996 53.0062C12.6301 54.3339 11.9354 55.5487 10.9784 56.5408Z" fill="#231F20"/>
<path d="M11.6801 56.5108C11.662 56.3009 11.5765 56.1023 11.4364 55.9448C11.2982 55.8049 11.1371 55.6895 10.9601 55.6038C10.8677 55.5473 10.764 55.5114 10.6564 55.4988C10.5804 55.4989 10.5051 55.5142 10.4351 55.5438C10.2645 55.5963 10.1183 55.708 10.0226 55.8586C9.96003 55.9894 9.93042 56.1336 9.93638 56.2784C9.92927 56.4345 9.94314 56.5908 9.97763 56.7432C10.0161 56.895 10.0842 57.0376 10.1781 57.1629C10.2721 57.2882 10.3899 57.3936 10.5249 57.4731C10.6599 57.5526 10.8092 57.6045 10.9644 57.6259C11.1196 57.6473 11.2774 57.6378 11.4289 57.5978" fill="white"/>
<path d="M11.1248 57.8227C10.819 57.8242 10.5216 57.723 10.2802 57.5354C10.0388 57.3479 9.86742 57.0847 9.7935 56.7882C9.75411 56.62 9.73771 56.4472 9.74475 56.2747C9.74001 56.0997 9.7773 55.9262 9.8535 55.7686C9.97177 55.5752 10.1574 55.4324 10.3748 55.3676C10.4677 55.3302 10.567 55.3112 10.6673 55.3114C10.7999 55.3268 10.9277 55.3702 11.0423 55.4388C11.2369 55.5337 11.4143 55.6604 11.5673 55.8136C11.736 56.0005 11.8387 56.2375 11.8598 56.4883C11.8617 56.5129 11.8588 56.5377 11.8512 56.5612C11.8436 56.5847 11.8315 56.6064 11.8154 56.6252C11.7994 56.644 11.7799 56.6595 11.7579 56.6707C11.7359 56.6819 11.7119 56.6887 11.6873 56.6907C11.6626 56.6927 11.6379 56.6898 11.6144 56.6822C11.5909 56.6746 11.5691 56.6624 11.5503 56.6464C11.5315 56.6304 11.516 56.6109 11.5048 56.5889C11.4935 56.5669 11.4867 56.5429 11.4848 56.5183C11.4693 56.3496 11.3996 56.1905 11.286 56.0648C11.162 55.9398 11.0174 55.8371 10.8585 55.7612C10.7909 55.7193 10.7157 55.6913 10.6373 55.6787C10.5852 55.6769 10.5335 55.6885 10.4873 55.7124C10.3598 55.7495 10.2495 55.8305 10.176 55.9411C10.1295 56.0459 10.1077 56.16 10.1123 56.2747C10.1053 56.4144 10.1179 56.5544 10.1498 56.6907C10.2181 56.9475 10.3835 57.1679 10.611 57.3054C10.8383 57.4355 11.1074 57.4718 11.361 57.4066C11.4092 57.3951 11.46 57.4027 11.5026 57.4279C11.5453 57.4531 11.5765 57.4938 11.5898 57.5415C11.5965 57.5652 11.5985 57.5899 11.5955 57.6143C11.5926 57.6387 11.5848 57.6623 11.5725 57.6836C11.5603 57.7049 11.5439 57.7236 11.5243 57.7385C11.5047 57.7533 11.4823 57.7641 11.4585 57.7702C11.3498 57.8012 11.2377 57.8188 11.1248 57.8227Z" fill="#231F20"/>
<path d="M13.7119 55.8699C13.7119 55.8699 14.3494 57.1218 14.1394 57.3017C13.9294 57.4816 13.4307 57.3017 13.4307 57.3017" fill="white"/>
<path d="M13.8772 57.5641C13.701 57.5601 13.527 57.5246 13.3634 57.4591C13.3388 57.4516 13.3159 57.4391 13.2963 57.4224C13.2766 57.4056 13.2607 57.385 13.2494 57.3618C13.2381 57.3387 13.2317 57.3134 13.2306 57.2877C13.2296 57.2619 13.2338 57.2362 13.2431 57.2121C13.2524 57.1881 13.2666 57.1662 13.2847 57.1479C13.3029 57.1296 13.3246 57.1152 13.3486 57.1057C13.3726 57.0961 13.3982 57.0916 13.424 57.0925C13.4498 57.0933 13.4751 57.0995 13.4984 57.1105C13.654 57.1786 13.8257 57.2007 13.9934 57.1742C13.9111 56.7469 13.7604 56.3355 13.5472 55.9561C13.5339 55.934 13.5253 55.9094 13.5219 55.8839C13.5186 55.8583 13.5205 55.8323 13.5277 55.8076C13.5348 55.7828 13.547 55.7598 13.5634 55.7399C13.5799 55.7201 13.6002 55.7038 13.6232 55.6922C13.6463 55.6806 13.6714 55.6738 13.6972 55.6723C13.7229 55.6709 13.7487 55.6747 13.7729 55.6837C13.797 55.6926 13.8191 55.7064 13.8377 55.7243C13.8563 55.7421 13.871 55.7636 13.8809 55.7874C14.5822 57.1705 14.3422 57.3766 14.2559 57.4441C14.1479 57.5276 14.0137 57.5701 13.8772 57.5641Z" fill="#231F20"/>
<path d="M12.9236 55.5902C12.9359 55.4395 12.8589 55.3104 12.7515 55.3016C12.6442 55.2929 12.5472 55.4079 12.5349 55.5585C12.5227 55.7091 12.5997 55.8383 12.707 55.847C12.8144 55.8558 12.9114 55.7408 12.9236 55.5902Z" fill="#231F20"/>
<path d="M14.9288 55.8613C14.94 55.7106 14.8621 55.5819 14.7547 55.5739C14.6473 55.5659 14.5511 55.6816 14.5399 55.8323C14.5286 55.983 14.6066 56.1116 14.714 56.1196C14.8214 56.1276 14.9176 56.012 14.9288 55.8613Z" fill="#231F20"/>
<path d="M13.5479 58.5648C13.2881 58.5677 13.0313 58.5099 12.7978 58.3961C12.5786 58.2687 12.3927 58.0912 12.2552 57.8781C12.1177 57.6651 12.0325 57.4227 12.0066 57.1705C12.0024 57.1459 12.0031 57.1207 12.0087 57.0963C12.0142 57.072 12.0245 57.049 12.039 57.0286C12.0534 57.0083 12.0717 56.991 12.0929 56.9777C12.114 56.9644 12.1376 56.9554 12.1622 56.9512C12.1868 56.947 12.2121 56.9477 12.2364 56.9533C12.2608 56.9588 12.2838 56.9691 12.3041 56.9836C12.3245 56.998 12.3418 57.0163 12.3551 57.0375C12.3684 57.0586 12.3774 57.0821 12.3816 57.1068C12.3991 57.3016 12.4621 57.4897 12.5657 57.6557C12.6693 57.8217 12.8105 57.9611 12.9779 58.0626C13.6079 58.3924 14.5191 57.9838 14.5266 57.9801C14.5725 57.9606 14.6242 57.9595 14.6709 57.9769C14.7176 57.9944 14.7559 58.029 14.7779 58.0738C14.7972 58.1192 14.7982 58.1702 14.7807 58.2163C14.7632 58.2624 14.7286 58.3 14.6841 58.3212C14.3251 58.4764 13.939 58.5592 13.5479 58.5648Z" fill="#231F20"/>
<path d="M14.0312 59.4531C14.0312 59.4531 12.5837 59.5731 11.8262 58.9809C11.8262 58.9809 12.4637 61.0012 13.8062 60.9974L14.0312 59.4531Z" fill="#231F20"/>
<path d="M13.798 61.1848C12.343 61.1848 11.6755 59.127 11.6455 59.0371C11.635 58.9986 11.6366 58.9579 11.65 58.9204C11.6634 58.8828 11.688 58.8503 11.7205 58.8272C11.7526 58.8037 11.7914 58.7911 11.8311 58.7911C11.8709 58.7911 11.9097 58.8037 11.9418 58.8272C12.6318 59.3669 14.0005 59.262 14.0155 59.2582C14.0434 59.2569 14.0711 59.2616 14.097 59.272C14.1229 59.2823 14.1463 59.2981 14.1655 59.3182C14.1858 59.3377 14.2009 59.362 14.2095 59.3888C14.218 59.4157 14.2196 59.4442 14.2143 59.4719L13.9893 61.0161C13.9854 61.0635 13.9634 61.1076 13.9277 61.139C13.892 61.1705 13.8455 61.1869 13.798 61.1848ZM12.2005 59.4044C12.448 59.9254 12.9318 60.6975 13.6443 60.7987L13.813 59.6518C13.2649 59.6694 12.7182 59.5855 12.2005 59.4044Z" fill="#231F20"/>
<path d="M6.00983 60.5251C4.85858 60.7538 1.30358 72.1146 2.93108 73.3177C5.47358 75.1918 13.2286 72.6318 13.2286 72.6318L12.4523 69.2884C12.4523 69.2884 6.85358 69.5545 6.75233 68.4076C6.65108 67.2606 9.87983 61.8745 9.42608 61.0874C8.97233 60.3002 6.00983 60.5251 6.00983 60.5251Z" fill="#0064FF"/>
<path d="M11.8743 70.4241C12.8059 70.4614 13.7387 70.3985 14.6568 70.2367C15.3348 70.0565 16.0328 69.962 16.7343 69.9556C17.6579 69.9808 18.5695 70.1699 19.4268 70.5141C19.4631 70.5249 19.4956 70.5457 19.5206 70.5741C19.6031 70.6865 19.4118 70.8027 19.2693 70.8064C18.8993 70.8239 18.5288 70.7847 18.1706 70.6903C19.0576 71.0008 19.8999 71.4267 20.6756 71.9571C20.7656 72.0171 20.8631 72.1146 20.8218 72.2158C20.7806 72.317 20.6043 72.2982 20.4881 72.2495L18.4631 71.3612C18.9854 71.5596 19.4718 71.8419 19.9031 72.197C19.9631 72.2495 20.0306 72.317 20.0156 72.3957C19.9893 72.5344 19.7868 72.5119 19.6631 72.4519C19.0467 72.1616 18.457 71.818 17.9006 71.4249L19.1568 72.347C19.1568 72.4482 19.0706 72.5344 18.9693 72.5419C18.8665 72.5366 18.7669 72.5042 18.6806 72.4482L17.2856 71.676L18.1593 72.2645C18.2981 72.3545 18.4518 72.5044 18.3881 72.6581C18.3243 72.8117 18.0506 72.7855 17.8706 72.7105C17.1541 72.4161 16.407 72.2024 15.6431 72.0733C15.3764 71.9906 15.1006 71.9402 14.8218 71.9234C14.3964 71.9869 13.9773 72.0872 13.5693 72.2233C12.9506 72.3732 12.3281 72.5306 11.6943 72.688" fill="white"/>
<path d="M18.1671 72.9617C18.038 72.9586 17.9106 72.9306 17.7921 72.8792C17.0875 72.5902 16.353 72.3803 15.6021 72.2533C15.5046 72.2533 15.4109 72.2083 15.3171 72.1858C15.1561 72.1332 14.9878 72.1066 14.8184 72.1071C14.5369 72.1343 14.2598 72.196 13.9934 72.2908C13.8584 72.3282 13.7271 72.3695 13.5996 72.3995L11.7546 72.8605C11.7327 72.8667 11.7098 72.8683 11.6872 72.8654C11.6646 72.8625 11.6428 72.855 11.6232 72.8434C11.6036 72.8319 11.5865 72.8165 11.573 72.7982C11.5595 72.7798 11.5498 72.759 11.5446 72.7368C11.5343 72.6931 11.5415 72.6471 11.5646 72.6086C11.5877 72.5701 11.625 72.5421 11.6684 72.5306L13.5434 72.0621C13.6671 72.0321 13.7909 71.9946 13.9184 71.9572C14.2108 71.8566 14.5142 71.7912 14.8221 71.7623C15.0267 71.7579 15.2307 71.787 15.4259 71.8485C15.5119 71.8754 15.5996 71.8967 15.6884 71.9122C16.4602 72.044 17.2148 72.2615 17.9384 72.5606C18.0267 72.604 18.1257 72.6209 18.2234 72.6094C18.2234 72.5794 18.2009 72.5044 18.0621 72.4107L17.1921 71.826C17.16 71.7997 17.1384 71.7628 17.1313 71.7219C17.1242 71.681 17.1321 71.639 17.1535 71.6035C17.1749 71.5679 17.2084 71.5413 17.2479 71.5285C17.2874 71.5157 17.3301 71.5175 17.3684 71.5336L18.7634 72.3058C18.7994 72.3263 18.837 72.3439 18.8759 72.3582L17.7996 71.5711C17.7638 71.5436 17.7399 71.5033 17.7329 71.4586C17.7259 71.414 17.7364 71.3684 17.7621 71.3312C17.7891 71.2946 17.8294 71.2701 17.8744 71.2631C17.9193 71.2561 17.9653 71.2671 18.0021 71.2937C18.5497 71.6798 19.1293 72.0184 19.7346 72.3058H19.7684C19.4825 72.0736 19.1719 71.8737 18.8421 71.7098L18.3959 71.5149C18.3754 71.5063 18.3569 71.4937 18.3413 71.478C18.3257 71.4622 18.3133 71.4435 18.305 71.423C18.2966 71.4024 18.2924 71.3804 18.2926 71.3583C18.2927 71.3361 18.2972 71.3142 18.3059 71.2937C18.3226 71.2526 18.3546 71.2196 18.3951 71.2014C18.4356 71.1833 18.4815 71.1814 18.5234 71.1963C18.6809 71.2562 18.8384 71.3237 18.9884 71.3987L20.5521 72.0771H20.5821C19.8206 71.5535 18.9919 71.1349 18.1184 70.8327C18.0746 70.8193 18.038 70.789 18.0165 70.7486C17.9951 70.7082 17.9906 70.6609 18.004 70.6172C18.0174 70.5734 18.0477 70.5368 18.0881 70.5154C18.1286 70.4939 18.1759 70.4894 18.2196 70.5029C18.5607 70.5926 18.9134 70.6305 19.2659 70.6153C18.4488 70.3049 17.5858 70.1326 16.7121 70.1055C16.1125 70.1048 15.5152 70.1804 14.9346 70.3304L14.6796 70.3829C13.7555 70.5591 12.8151 70.6358 11.8746 70.6116C11.8523 70.6116 11.8302 70.6071 11.8097 70.5983C11.7892 70.5896 11.7706 70.5768 11.7552 70.5606C11.7398 70.5445 11.7278 70.5254 11.72 70.5046C11.7121 70.4837 11.7086 70.4614 11.7096 70.4391C11.7106 70.3941 11.7292 70.3512 11.7615 70.3196C11.7937 70.2881 11.837 70.2705 11.8821 70.2705C12.8012 70.3047 13.7213 70.2418 14.6271 70.0831L14.8821 70.0306C15.4951 69.8758 16.1249 69.7977 16.7571 69.7982C17.7027 69.8241 18.636 70.0183 19.5134 70.3717C19.578 70.3946 19.635 70.4348 19.6784 70.4879C19.7081 70.5256 19.7264 70.5711 19.7311 70.619C19.7357 70.6668 19.7265 70.715 19.7046 70.7577C19.6657 70.824 19.6113 70.8799 19.5459 70.9204C19.4806 70.9609 19.4063 70.9848 19.3296 70.9901C19.8366 71.2338 20.3242 71.5157 20.7884 71.8335C21.0696 72.0246 21.0246 72.2083 20.9946 72.2945C20.9803 72.331 20.9586 72.3642 20.9308 72.3919C20.9031 72.4196 20.8699 72.4414 20.8334 72.4557C20.7013 72.4941 20.5596 72.482 20.4359 72.4219L20.1959 72.317C20.2054 72.3627 20.2054 72.4099 20.1959 72.4557C20.1877 72.499 20.1695 72.5398 20.1428 72.575C20.1161 72.6101 20.0817 72.6385 20.0421 72.6581C19.9708 72.6857 19.8944 72.6977 19.818 72.6932C19.7416 72.6886 19.6672 72.6677 19.5996 72.6318C19.5096 72.5906 19.4159 72.5456 19.3259 72.4969C19.3138 72.5328 19.2947 72.5659 19.2696 72.5944C19.2359 72.6371 19.1933 72.672 19.1447 72.6966C19.0961 72.7212 19.0428 72.7349 18.9884 72.7368C18.8554 72.7343 18.7257 72.6954 18.6134 72.6243H18.5909C18.5906 72.6718 18.5817 72.7188 18.5646 72.763C18.5467 72.8074 18.5197 72.8476 18.4855 72.8812C18.4514 72.9147 18.4106 72.9408 18.3659 72.9579C18.3008 72.9745 18.2328 72.9758 18.1671 72.9617Z" fill="#231F20"/>
<path d="M16 61.777C16.315 62.0844 17.1925 66.9908 17.5225 69.3109L16 61.777Z" fill="white"/>
<path d="M17.5188 69.4871C17.4776 69.4874 17.4378 69.4728 17.4067 69.4459C17.3757 69.419 17.3555 69.3816 17.35 69.3409C16.975 66.7771 16.1425 62.2193 15.8762 61.9045C15.8598 61.8887 15.8467 61.8698 15.8378 61.8489C15.8288 61.8279 15.8242 61.8054 15.8242 61.7826C15.8242 61.7599 15.8288 61.7373 15.8378 61.7164C15.8467 61.6955 15.8598 61.6766 15.8762 61.6608C15.9086 61.6285 15.9524 61.6104 15.9981 61.6104C16.0438 61.6104 16.0877 61.6285 16.12 61.6608C16.5363 62.0656 17.4888 67.8491 17.6913 69.2922C17.695 69.3143 17.6942 69.3371 17.6891 69.3589C17.6839 69.3808 17.6744 69.4015 17.6611 69.4196C17.6478 69.4378 17.631 69.4531 17.6117 69.4647C17.5924 69.4763 17.571 69.4839 17.5488 69.4871H17.5188Z" fill="#231F20"/>
<path d="M9.00981 73.91C8.96659 73.91 8.92469 73.895 8.8912 73.8677C8.85772 73.8404 8.83471 73.8024 8.82606 73.76C8.82118 73.7356 8.82119 73.7105 8.82611 73.6862C8.83103 73.6618 8.84075 73.6386 8.85471 73.6181C8.86867 73.5975 8.8866 73.5799 8.90743 73.5663C8.92826 73.5527 8.95159 73.5434 8.97606 73.5389L11.5336 73.0479L11.5561 70.1168L6.68106 69.712C6.65339 69.7089 6.62668 69.7 6.60275 69.6858C6.57882 69.6715 6.55821 69.6524 6.54231 69.6295C6.52716 69.6073 6.51697 69.582 6.51244 69.5555C6.50791 69.529 6.50915 69.5018 6.51606 69.4758L8.55981 61.8707C8.57298 61.8232 8.60438 61.7827 8.64721 61.7582C8.69004 61.7336 8.74083 61.7269 8.78856 61.7396C8.81267 61.7451 8.83537 61.7556 8.85524 61.7704C8.87511 61.7851 8.89172 61.8038 8.90404 61.8253C8.91636 61.8467 8.92412 61.8705 8.92683 61.8951C8.92955 61.9197 8.92716 61.9446 8.91981 61.9682L6.93606 69.3559L11.7661 69.757C11.8131 69.7607 11.8571 69.7821 11.8891 69.8169C11.921 69.8516 11.9387 69.8972 11.9386 69.9444L11.9161 73.2015C11.9159 73.2453 11.9004 73.2876 11.8724 73.3211C11.8443 73.3547 11.8054 73.3773 11.7623 73.3852L9.05481 73.9062L9.00981 73.91Z" fill="#231F20"/>
<path d="M24.0922 74.6971L26.451 68.3889L16.8172 68.58L14.6572 75.7766L24.0922 74.6971Z" fill="white"/>
<path d="M14.6574 75.9602C14.6301 75.9602 14.6032 75.9542 14.5786 75.9425C14.5539 75.9309 14.5322 75.9139 14.5149 75.8927C14.4953 75.8691 14.4816 75.8411 14.4751 75.8111C14.4685 75.7811 14.4693 75.75 14.4774 75.7203L16.6374 68.5275C16.6491 68.4895 16.6723 68.4561 16.7039 68.4319C16.7355 68.4077 16.7739 68.394 16.8137 68.3926L26.4474 68.2014C26.478 68.2013 26.5082 68.2083 26.5356 68.222C26.5629 68.2357 26.5867 68.2556 26.6049 68.2802C26.6213 68.3061 26.6318 68.3353 26.6357 68.3657C26.6396 68.3962 26.6368 68.4271 26.6274 68.4563L24.2687 74.7645C24.2555 74.7968 24.234 74.8249 24.2063 74.846C24.1786 74.8671 24.1457 74.8804 24.1112 74.8845L14.6799 75.9602H14.6574ZM16.9599 68.7637L14.9199 75.5554L23.9574 74.5247L26.1774 68.58L16.9599 68.7637Z" fill="#231F20"/>
<path d="M23.5779 74.7571C23.5779 74.7571 26.2029 76.8786 25.2654 78.8239C24.3279 80.7692 7.65918 82.9806 7.65918 82.9806L6.90918 80.4393C6.90918 80.4393 20.0042 73.7638 23.5779 74.7571Z" fill="#231F20"/>
<path d="M7.66002 83.1793C7.61945 83.1793 7.57998 83.1661 7.54752 83.1418C7.51507 83.1175 7.49138 83.0833 7.48002 83.0443L6.73002 80.5031C6.718 80.461 6.72075 80.4162 6.73781 80.3759C6.75487 80.3357 6.78521 80.3025 6.82377 80.2819C7.36377 80.0083 20.0275 73.5764 23.6313 74.5771C23.6558 74.5838 23.6787 74.5953 23.6988 74.6109C23.8113 74.7008 26.4175 76.8598 25.4388 78.9026C24.4975 80.8854 9.40752 82.9469 7.68627 83.1755L7.66002 83.1793ZM7.13127 80.5555L7.79502 82.8045C14.4588 81.9086 24.4563 80.1095 25.0975 78.7639C25.8963 77.0809 23.77 75.1844 23.4888 74.9445C20.17 74.0749 8.53752 79.8396 7.13127 80.5443V80.5555Z" fill="#231F20"/>
<path d="M6.03944 73.7825C6.03944 73.7825 19.0069 79.03 22.2244 80.4056L20.3494 83.2955C20.3494 83.2955 8.37569 83.0631 4.94069 80.0533C1.50569 77.0435 1.74944 72.0396 6.03944 73.7825Z" fill="#231F20"/>
<path d="M20.3532 83.4829C19.8619 83.4829 8.2707 83.213 4.82445 80.1957C2.57445 78.2092 1.91445 75.4505 2.7357 74.1161C3.32445 73.1641 4.5582 72.9917 6.1107 73.6064C6.2382 73.6589 19.1157 78.8539 22.2957 80.2332C22.321 80.2438 22.3437 80.2597 22.3625 80.2797C22.3812 80.2997 22.3955 80.3235 22.4044 80.3494C22.412 80.3757 22.4139 80.4034 22.41 80.4305C22.4061 80.4576 22.3966 80.4836 22.3819 80.5068L20.5069 83.3967C20.4904 83.4225 20.4677 83.4439 20.4408 83.459C20.414 83.474 20.3839 83.4822 20.3532 83.4829ZM4.44945 73.6101C4.17497 73.591 3.90042 73.6464 3.65485 73.7704C3.40928 73.8945 3.20183 74.0826 3.05445 74.3148C2.30445 75.5142 2.9457 78.063 5.0682 79.9146C8.24445 82.6958 19.0707 83.0743 20.2519 83.1043L21.9469 80.4806C18.4557 78.9813 6.0957 73.9999 5.9682 73.9475C5.48814 73.7391 4.9726 73.6246 4.44945 73.6101Z" fill="#231F20"/>
<path d="M24.1378 72.1783C24.1525 72.2534 24.1846 72.324 24.2315 72.3844L24.4828 72.7593C24.4735 72.7204 24.4558 72.6841 24.4309 72.6528C24.4061 72.6215 24.3747 72.5961 24.339 72.5782C24.3032 72.5604 24.264 72.5505 24.2241 72.5494C24.1841 72.5483 24.1444 72.556 24.1078 72.5718C24.037 72.6109 23.9782 72.6685 23.9379 72.7386C23.8976 72.8086 23.8772 72.8884 23.879 72.9692C23.8842 73.1326 23.9225 73.2932 23.9915 73.4414C24.1678 73.9062 24.5765 74.5884 25.1615 74.2361C25.559 73.9962 25.6715 73.1528 25.7278 72.7368C25.8365 71.9084 25.5853 70.8627 24.5203 71.0088C24.5489 71.4195 24.702 71.8117 24.959 72.1333C24.7865 71.9496 24.089 71.691 24.1378 72.1783Z" fill="white"/>
<path d="M24.8425 74.5022C24.7671 74.5029 24.6922 74.4902 24.6212 74.4647C24.4318 74.3648 24.2643 74.2282 24.1284 74.0628C23.9925 73.8974 23.8911 73.7065 23.83 73.5014C23.7543 73.3324 23.7123 73.1504 23.7062 72.9654C23.7036 72.8514 23.7337 72.7389 23.7928 72.6413C23.8519 72.5437 23.9377 72.465 24.04 72.4144C23.9966 72.3493 23.9696 72.2748 23.9612 72.197C23.941 72.113 23.9505 72.0245 23.9881 71.9466C24.0257 71.8687 24.089 71.8062 24.1675 71.7697C24.2803 71.7235 24.4047 71.7131 24.5237 71.7397C24.4209 71.5113 24.36 71.2663 24.3437 71.0163C24.3394 70.9737 24.3519 70.9311 24.3785 70.8976C24.4051 70.864 24.4437 70.8421 24.4862 70.8364C24.6631 70.7988 24.8465 70.8044 25.0208 70.8527C25.1951 70.9009 25.3552 70.9905 25.4875 71.1138C25.8925 71.5111 25.96 72.2383 25.8887 72.7555C25.8175 73.2728 25.705 74.1011 25.2437 74.3822C25.1227 74.4565 24.9844 74.4979 24.8425 74.5022ZM24.2162 72.7218H24.1787C24.1371 72.7471 24.1031 72.783 24.08 72.8258C24.0569 72.8686 24.0457 72.9168 24.0475 72.9654C24.0574 73.1064 24.0916 73.2446 24.1487 73.374C24.2382 73.6906 24.4482 73.9597 24.7337 74.1236C24.7909 74.1423 24.8518 74.147 24.9112 74.1372C24.9706 74.1274 25.0268 74.1034 25.075 74.0674C25.3975 73.8762 25.5062 73.0554 25.555 72.7068C25.6033 72.4704 25.6015 72.2266 25.5499 71.991C25.4982 71.7554 25.3977 71.5332 25.255 71.3387C25.182 71.2712 25.0964 71.2189 25.003 71.1848C24.9097 71.1507 24.8105 71.1355 24.7112 71.14C24.7621 71.4519 24.8911 71.7459 25.0862 71.9946C25.1117 72.03 25.1235 72.0735 25.1194 72.1169C25.1153 72.1604 25.0955 72.2008 25.0637 72.2308C25.0319 72.2597 24.9905 72.2758 24.9475 72.2758C24.9044 72.2758 24.863 72.2597 24.8312 72.2308C24.6869 72.1106 24.5008 72.0527 24.3137 72.0696C24.295 72.0696 24.3137 72.1296 24.3137 72.152C24.3273 72.1975 24.3503 72.2397 24.3812 72.2757L24.505 72.4632C24.5486 72.4938 24.5853 72.5333 24.6124 72.5792C24.6396 72.6251 24.6567 72.6763 24.6625 72.7293C24.6658 72.7674 24.6566 72.8056 24.6363 72.8381C24.616 72.8705 24.5857 72.8955 24.55 72.9092C24.5135 72.9223 24.4737 72.9228 24.437 72.9105C24.4003 72.8983 24.3687 72.874 24.3475 72.8417L24.265 72.718L24.2162 72.7218Z" fill="#231F20"/>
<path d="M20.5001 79.9183C20.4765 79.9219 20.4525 79.9219 20.4289 79.9183C20.1476 79.8059 13.4539 77.2159 11.9389 76.2901C11.9138 76.2786 11.8915 76.2619 11.8733 76.2411C11.8552 76.2204 11.8417 76.196 11.8336 76.1696C11.8256 76.1432 11.8233 76.1155 11.8268 76.0881C11.8303 76.0608 11.8396 76.0345 11.854 76.011C11.8684 75.9875 11.8877 75.9673 11.9105 75.9518C11.9333 75.9363 11.9591 75.9258 11.9863 75.921C12.0134 75.9162 12.0413 75.9172 12.0681 75.924C12.0948 75.9307 12.1198 75.9431 12.1414 75.9602C13.6414 76.871 20.5002 79.5285 20.5714 79.5547C20.6183 79.5747 20.6557 79.6119 20.6759 79.6586C20.6962 79.7053 20.6977 79.7581 20.6802 79.8059C20.665 79.8406 20.6397 79.8699 20.6076 79.89C20.5755 79.9101 20.538 79.9199 20.5001 79.9183Z" fill="white"/>
<path d="M93.5382 83.6291C93.4149 83.6294 93.2949 83.5892 93.1967 83.5147C93.0984 83.4402 93.0274 83.3355 92.9945 83.2168L74.657 17.4133C74.6172 17.2691 74.6364 17.1151 74.7102 16.9851C74.7841 16.855 74.9066 16.7596 75.0508 16.7199C75.195 16.6801 75.3491 16.6992 75.4792 16.773C75.6093 16.8468 75.7047 16.9693 75.7445 17.1134L94.0782 82.9169C94.1202 83.0585 94.1043 83.211 94.034 83.341C93.9637 83.471 93.8448 83.5678 93.7032 83.6103C93.6492 83.6232 93.5938 83.6295 93.5382 83.6291Z" fill="#231F20"/>
<path d="M80.3009 83.629C80.1779 83.6298 80.0581 83.5898 79.9604 83.5151C79.8626 83.4405 79.7925 83.3355 79.7609 83.2167L61.4234 17.4133C61.3886 17.2713 61.4105 17.1213 61.4844 16.9951C61.5584 16.869 61.6787 16.7766 61.8197 16.7376C61.9607 16.6986 62.1113 16.716 62.2397 16.7862C62.368 16.8563 62.464 16.9737 62.5072 17.1134L80.8446 82.9169C80.8838 83.061 80.8644 83.2148 80.7907 83.3447C80.7169 83.4745 80.5948 83.57 80.4509 83.6103C80.4017 83.622 80.3514 83.6283 80.3009 83.629Z" fill="#231F20"/>
<path d="M76.3294 22.7133H63.3281C63.1789 22.7133 63.0359 22.654 62.9304 22.5486C62.8249 22.4432 62.7656 22.3001 62.7656 22.151C62.7656 22.0019 62.8249 21.8589 62.9304 21.7535C63.0359 21.648 63.1789 21.5888 63.3281 21.5888H76.3294C76.4785 21.5888 76.6216 21.648 76.7271 21.7535C76.8326 21.8589 76.8919 22.0019 76.8919 22.151C76.8919 22.3001 76.8326 22.4432 76.7271 22.5486C76.6216 22.654 76.4785 22.7133 76.3294 22.7133Z" fill="#231F20"/>
<path d="M78.2942 29.7561H65.293C65.1438 29.7561 65.0007 29.6969 64.8952 29.5915C64.7897 29.486 64.7305 29.343 64.7305 29.1939C64.7305 29.0448 64.7897 28.9018 64.8952 28.7964C65.0007 28.6909 65.1438 28.6317 65.293 28.6317H78.2942C78.4434 28.6317 78.5865 28.6909 78.692 28.7964C78.7975 28.9018 78.8567 29.0448 78.8567 29.1939C78.8567 29.343 78.7975 29.486 78.692 29.5915C78.5865 29.6969 78.4434 29.7561 78.2942 29.7561Z" fill="#231F20"/>
<path d="M80.26 36.8177H67.2588C67.1096 36.8177 66.9665 36.7585 66.861 36.6531C66.7555 36.5476 66.6963 36.4046 66.6963 36.2555C66.6963 36.1064 66.7555 35.9634 66.861 35.858C66.9665 35.7525 67.1096 35.6933 67.2588 35.6933H80.26C80.4092 35.6933 80.5523 35.7525 80.6578 35.858C80.7633 35.9634 80.8225 36.1064 80.8225 36.2555C80.8225 36.4046 80.7633 36.5476 80.6578 36.6531C80.5523 36.7585 80.4092 36.8177 80.26 36.8177Z" fill="#231F20"/>
<path d="M82.2249 43.8719H69.2236C69.0744 43.8719 68.9314 43.8126 68.8259 43.7072C68.7204 43.6017 68.6611 43.4587 68.6611 43.3096C68.6611 43.1605 68.7204 43.0175 68.8259 42.9121C68.9314 42.8066 69.0744 42.7474 69.2236 42.7474H82.2249C82.3741 42.7474 82.5172 42.8066 82.6227 42.9121C82.7281 43.0175 82.7874 43.1605 82.7874 43.3096C82.7874 43.4587 82.7281 43.6017 82.6227 43.7072C82.5172 43.8126 82.3741 43.8719 82.2249 43.8719Z" fill="#231F20"/>
<path d="M84.1897 50.9222H71.1885C71.0393 50.9222 70.8962 50.863 70.7907 50.7576C70.6852 50.6521 70.626 50.5091 70.626 50.36C70.626 50.2109 70.6852 50.0679 70.7907 49.9624C70.8962 49.857 71.0393 49.7978 71.1885 49.7978H84.1897C84.3389 49.7978 84.482 49.857 84.5875 49.9624C84.693 50.0679 84.7522 50.2109 84.7522 50.36C84.7522 50.5091 84.693 50.6521 84.5875 50.7576C84.482 50.863 84.3389 50.9222 84.1897 50.9222Z" fill="#231F20"/>
<path d="M86.1546 57.9763H73.1533C73.0041 57.9763 72.8611 57.9171 72.7556 57.8117C72.6501 57.7062 72.5908 57.5632 72.5908 57.4141C72.5908 57.265 72.6501 57.122 72.7556 57.0165C72.8611 56.9111 73.0041 56.8519 73.1533 56.8519H86.1546C86.3038 56.8519 86.4468 56.9111 86.5523 57.0165C86.6578 57.122 86.7171 57.265 86.7171 57.4141C86.7171 57.5632 86.6578 57.7062 86.5523 57.8117C86.4468 57.9171 86.3038 57.9763 86.1546 57.9763Z" fill="#231F20"/>
<path d="M88.1194 65.0305H75.1182C74.969 65.0305 74.8259 64.9712 74.7204 64.8658C74.6149 64.7604 74.5557 64.6173 74.5557 64.4682C74.5557 64.3191 74.6149 64.1761 74.7204 64.0707C74.8259 63.9652 74.969 63.906 75.1182 63.906H88.1194C88.2686 63.906 88.4117 63.9652 88.5172 64.0707C88.6226 64.1761 88.6819 64.3191 88.6819 64.4682C88.6819 64.6173 88.6226 64.7604 88.5172 64.8658C88.4117 64.9712 88.2686 65.0305 88.1194 65.0305Z" fill="#231F20"/>
<path d="M90.0852 72.0808H77.084C76.9348 72.0808 76.7917 72.0216 76.6862 71.9161C76.5807 71.8107 76.5215 71.6677 76.5215 71.5186C76.5215 71.3695 76.5807 71.2265 76.6862 71.121C76.7917 71.0156 76.9348 70.9564 77.084 70.9564H90.0852C90.2344 70.9564 90.3775 71.0156 90.483 71.121C90.5885 71.2265 90.6477 71.3695 90.6477 71.5186C90.6477 71.6677 90.5885 71.8107 90.483 71.9161C90.3775 72.0216 90.2344 72.0808 90.0852 72.0808Z" fill="#231F20"/>
<path d="M92.0501 79.135H79.0488C78.8996 79.135 78.7566 79.0757 78.6511 78.9703C78.5456 78.8648 78.4863 78.7218 78.4863 78.5727C78.4863 78.4236 78.5456 78.2806 78.6511 78.1752C78.7566 78.0697 78.8996 78.0105 79.0488 78.0105H92.0501C92.1993 78.0105 92.3424 78.0697 92.4478 78.1752C92.5533 78.2806 92.6126 78.4236 92.6126 78.5727C92.6126 78.7218 92.5533 78.8648 92.4478 78.9703C92.3424 79.0757 92.1993 79.135 92.0501 79.135Z" fill="#231F20"/>
<path d="M84.0582 25.4232C84.0582 25.4232 81.8344 22.4734 82.7419 20.5206C82.7419 20.5206 81.9094 20.2619 82.7007 19.2462C83.3151 18.5228 84.1586 18.0312 85.0911 17.8533C86.0237 17.6753 86.9891 17.8216 87.8269 18.2679L87.0769 18.6427C87.7187 18.4428 88.41 18.4727 89.0322 18.7272C89.6543 18.9816 90.1682 19.4448 90.4857 20.0371L89.6532 20.3407L89.1656 24.415L84.0582 25.4232Z" fill="white"/>
<path d="M84.0586 25.5956C84.032 25.5955 84.0059 25.589 83.9824 25.5766C83.9588 25.5642 83.9387 25.5463 83.9236 25.5244C83.8298 25.4045 81.7561 22.6158 82.5211 20.603C82.3803 20.517 82.2741 20.3844 82.2211 20.2282C82.1874 20.0332 82.2012 19.833 82.2613 19.6445C82.3213 19.456 82.4259 19.2846 82.5661 19.145C83.2068 18.3937 84.0842 17.8828 85.054 17.6961C86.0238 17.5095 87.0283 17.6582 87.9023 18.118C87.9313 18.1309 87.9559 18.152 87.9732 18.1786C87.9905 18.2052 87.9997 18.2362 87.9998 18.2679C88 18.2981 87.9923 18.3278 87.9773 18.3541C88.5269 18.3505 89.0669 18.4978 89.5385 18.7801C90.01 19.0623 90.3948 19.4686 90.6511 19.9546C90.6612 19.977 90.6665 20.0012 90.6665 20.0258C90.6665 20.0504 90.6612 20.0747 90.6511 20.097C90.6421 20.121 90.628 20.1427 90.6099 20.1608C90.5918 20.1789 90.57 20.193 90.5461 20.202L89.8148 20.4681L89.3386 24.4412C89.3339 24.4765 89.3185 24.5095 89.2943 24.5357C89.2701 24.5619 89.2384 24.5799 89.2036 24.5874L84.0773 25.5956H84.0586ZM85.8398 17.9643C85.2686 17.9613 84.7037 18.084 84.1852 18.3236C83.6668 18.5633 83.2074 18.9141 82.8398 19.3511C82.5923 19.6697 82.4911 19.9321 82.5473 20.1195C82.5689 20.1744 82.6017 20.2241 82.6437 20.2654C82.6857 20.3067 82.7359 20.3387 82.7911 20.3594C82.8144 20.3663 82.8359 20.3783 82.8541 20.3945C82.8722 20.4107 82.8866 20.4307 82.8961 20.4531C82.9055 20.475 82.9103 20.4986 82.9103 20.5224C82.9103 20.5463 82.9055 20.5699 82.8961 20.5918C82.1273 22.2522 83.7848 24.741 84.1336 25.2321L89.0311 24.2725L89.4998 20.3182C89.5033 20.2867 89.5157 20.2569 89.5357 20.2323C89.5556 20.2077 89.5822 20.1894 89.6123 20.1795L90.2461 19.9471C89.9286 19.4438 89.4528 19.0603 88.8935 18.8567C88.3341 18.6532 87.723 18.6412 87.1561 18.8226C87.1147 18.8377 87.0691 18.8364 87.0287 18.819C86.9883 18.8016 86.956 18.7693 86.9386 18.7289C86.9224 18.6894 86.9215 18.6452 86.9361 18.6051C86.9506 18.5649 86.9796 18.5316 87.0173 18.5115L87.4298 18.2979C86.926 18.0862 86.3863 17.973 85.8398 17.9643Z" fill="#231F20"/>
<path d="M92.1557 60.9568L92.215 60.9659C92.5979 61.0245 92.9557 60.7618 93.0144 60.3792L94.4539 50.9871C94.5126 50.6044 94.2498 50.2467 93.867 50.1881L93.8077 50.179C93.4249 50.1204 93.067 50.3831 93.0083 50.7657L91.5688 60.1578C91.5101 60.5405 91.7729 60.8982 92.1557 60.9568Z" fill="white"/>
<path d="M92.3277 61.1436H92.1926H92.1289C91.9013 61.1085 91.6969 60.9846 91.5605 60.7991C91.4242 60.6136 91.3669 60.3817 91.4014 60.1541L92.8414 50.7461C92.8587 50.6337 92.8981 50.5258 92.9573 50.4286C93.0165 50.3315 93.0944 50.247 93.1864 50.1801C93.3727 50.0425 93.6061 49.9846 93.8352 50.0189H93.8989C94.1265 50.054 94.3309 50.1779 94.4673 50.3634C94.6036 50.5489 94.6609 50.7809 94.6264 51.0084L93.1864 60.4089C93.1696 60.522 93.1304 60.6306 93.0712 60.7284C93.0119 60.8263 92.9338 60.9113 92.8414 60.9787C92.6917 61.0862 92.512 61.1439 92.3277 61.1436ZM92.1814 60.7688H92.2452C92.3838 60.7893 92.5249 60.7543 92.6379 60.6715C92.7509 60.5888 92.8267 60.4648 92.8489 60.3265L94.2889 50.9297C94.2998 50.861 94.2968 50.7907 94.28 50.7231C94.2633 50.6555 94.2332 50.5919 94.1914 50.5362C94.1085 50.4236 93.9845 50.3482 93.8464 50.3263H93.7827C93.7141 50.3153 93.644 50.3179 93.5765 50.334C93.5089 50.3501 93.4452 50.3793 93.3889 50.42C93.3331 50.4607 93.2861 50.5122 93.2506 50.5714C93.2152 50.6307 93.1921 50.6964 93.1827 50.7648L91.7501 60.1803C91.7296 60.3188 91.7646 60.4599 91.8474 60.5729C91.9302 60.6858 92.0543 60.7616 92.1926 60.7838L92.1814 60.7688Z" fill="#231F20"/>
<path d="M93.5385 45.6897C93.5385 45.6897 91.836 51.938 92.5673 51.6231C93.3923 51.2483 93.8385 49.3742 93.8385 49.3742C93.8385 49.3742 94.4573 50.4275 94.4573 50.9934C94.4573 51.5594 93.6698 53.5122 94.2923 53.6397C94.9148 53.7671 96.441 50.4912 96.2685 49.734C96.1015 49.1226 95.8755 48.5289 95.5935 47.9611L95.8748 46.2107" fill="white"/>
<path d="M94.3297 53.8008C94.3061 53.8048 94.282 53.8048 94.2584 53.8008C94.2011 53.7923 94.1466 53.7706 94.0991 53.7374C94.0516 53.7042 94.0124 53.6605 93.9847 53.6097C93.7784 53.2873 93.9097 52.6539 94.1234 51.7993C94.2006 51.5334 94.2546 51.2612 94.2847 50.986C94.2271 50.5787 94.0935 50.1858 93.8909 49.8278C93.6997 50.4312 93.2834 51.507 92.6347 51.7881C92.5884 51.8093 92.5372 51.817 92.4868 51.8104C92.4363 51.8038 92.3888 51.783 92.3497 51.7506C91.8997 51.3758 92.7959 47.7625 93.3734 45.6523C93.379 45.6304 93.389 45.61 93.4027 45.5921C93.4164 45.5741 93.4335 45.5592 93.4531 45.548C93.4727 45.5368 93.4943 45.5297 93.5167 45.527C93.539 45.5243 93.5617 45.5261 93.5834 45.5323C93.627 45.5446 93.6639 45.5735 93.6864 45.6127C93.7088 45.652 93.7149 45.6985 93.7034 45.7422C93.0322 48.201 92.4472 50.9147 92.5784 51.4395C93.1559 51.1134 93.5722 49.8203 93.7034 49.333C93.7106 49.2997 93.7277 49.2693 93.7524 49.2459C93.7772 49.2225 93.8085 49.2071 93.8422 49.2018C93.8764 49.1967 93.9114 49.2019 93.9427 49.2165C93.974 49.2312 94.0004 49.2547 94.0184 49.2843C94.0447 49.3292 94.6597 50.3825 94.6597 50.986C94.6307 51.2893 94.5729 51.5893 94.4872 51.8818C94.3559 52.4065 94.1572 53.2011 94.3034 53.4298C94.3088 53.4395 94.3163 53.448 94.3254 53.4545C94.3345 53.4609 94.3449 53.4653 94.3559 53.4673C94.3559 53.4673 94.4272 53.4673 94.5884 53.3061C95.3159 52.5564 96.2497 50.3075 96.1334 49.7678C95.9674 49.1709 95.7451 48.5911 95.4697 48.0361C95.459 48.0019 95.459 47.9653 95.4697 47.9312L95.7546 46.177C95.7629 46.1332 95.7878 46.0942 95.8242 46.0684C95.8605 46.0425 95.9055 46.0317 95.9497 46.0383C95.9719 46.0415 95.9933 46.0491 96.0126 46.0607C96.0319 46.0723 96.0487 46.0876 96.062 46.1058C96.0753 46.1239 96.0848 46.1446 96.0899 46.1665C96.0951 46.1883 96.0959 46.2111 96.0921 46.2332L95.8184 47.9312C96.0973 48.4955 96.3208 49.0854 96.4859 49.6928C96.6472 50.4087 95.5521 52.8338 94.8509 53.546C94.7872 53.6232 94.7078 53.6859 94.6179 53.7298C94.528 53.7738 94.4297 53.798 94.3297 53.8008Z" fill="#231F20"/>
<path d="M78.3356 53.6322L79.6969 57.0056C79.6969 57.0056 75.7106 58.5648 74.6306 58.7935C73.5506 59.0221 73.5056 58.5311 74.9681 57.193C76.0931 56.1472 76.5319 56.0085 76.5319 56.0085L75.8044 54.7004L78.3356 53.6322Z" fill="white"/>
<path d="M74.2035 59.0259C74.1102 59.0379 74.0154 59.0236 73.9299 58.9845C73.8444 58.9454 73.7716 58.8831 73.7197 58.8047C73.6072 58.5873 73.6335 58.1975 74.8447 57.0731C75.2814 56.6444 75.7658 56.2671 76.2885 55.9486L75.6472 54.8016C75.6285 54.756 75.6285 54.7048 75.6472 54.6592C75.6546 54.6366 75.6668 54.6158 75.683 54.5983C75.6992 54.5809 75.719 54.5671 75.741 54.558L78.2722 53.486C78.3147 53.4712 78.361 53.4712 78.4035 53.486C78.4247 53.4943 78.444 53.5069 78.4602 53.5231C78.4763 53.5392 78.4889 53.5585 78.4972 53.5797L79.8622 56.9531C79.8791 56.9952 79.8791 57.0422 79.8622 57.0843C79.8431 57.1257 79.8099 57.1589 79.7685 57.178C79.6035 57.2417 75.756 58.7448 74.676 58.9734C74.5207 59.007 74.3623 59.0246 74.2035 59.0259ZM76.0485 54.7904L76.6822 55.9149C76.6932 55.9377 76.6989 55.9626 76.6989 55.988C76.6989 56.0133 76.6932 56.0382 76.6822 56.061C76.6728 56.0849 76.6581 56.1064 76.6393 56.1239C76.6205 56.1415 76.598 56.1545 76.5735 56.1622C76.5735 56.1622 76.1422 56.3197 75.0735 57.3092C73.9222 58.3699 74.0085 58.6286 74.0122 58.6323C74.016 58.6361 74.0985 58.7185 74.586 58.6323C75.516 58.4337 78.711 57.208 79.461 56.9119L78.2497 53.8608L76.0485 54.7904Z" fill="#231F20"/>
<path d="M84.8836 67.568C84.9339 68.2416 84.8821 68.9189 84.7299 69.577C84.445 70.4497 84.318 71.3661 84.3549 72.2832C84.4486 73.0066 85.2211 73.8762 85.9861 73.5239C86.7511 73.1716 87.0511 70.9714 87.0248 70.3792C86.9557 69.3972 86.9783 68.4109 87.0923 67.4331L84.8836 67.568Z" fill="white"/>
<path d="M85.6033 73.775C85.4109 73.7727 85.2224 73.721 85.0558 73.6251C84.8199 73.4838 84.618 73.2923 84.4644 73.0643C84.3108 72.8363 84.2093 72.5773 84.167 72.3057C84.047 71.3799 84.4408 69.9444 84.5645 69.5283C84.7106 68.8896 84.7611 68.2328 84.7145 67.5793C84.7126 67.5569 84.7153 67.5344 84.7224 67.5132C84.7295 67.4919 84.7408 67.4723 84.7558 67.4556C84.7703 67.4375 84.7885 67.4229 84.8092 67.4125C84.8299 67.4022 84.8526 67.3964 84.8758 67.3956L87.062 67.2644C87.0883 67.262 87.1148 67.2662 87.1391 67.2767C87.1633 67.2871 87.1845 67.3035 87.2008 67.3244C87.218 67.3442 87.2303 67.3677 87.2368 67.393C87.2433 67.4184 87.2438 67.4449 87.2383 67.4706C87.1285 68.4123 87.1071 69.3622 87.1745 70.3079V70.3717C87.1933 70.8327 86.9495 73.254 86.0495 73.6776C85.9096 73.7421 85.7573 73.7753 85.6033 73.775ZM85.067 67.7254C85.1035 68.3639 85.0454 69.0043 84.8945 69.6258C84.6168 70.4717 84.4898 71.3597 84.5195 72.2495C84.5523 72.4685 84.6331 72.6776 84.7563 72.8616C84.8795 73.0457 85.042 73.2002 85.232 73.314C85.3316 73.3762 85.4452 73.4126 85.5624 73.4198C85.6796 73.427 85.7968 73.4048 85.9033 73.3552C86.5408 73.0591 86.8745 71.0164 86.8483 70.3567V70.2967C86.7881 69.4028 86.7969 68.5056 86.8745 67.613L85.067 67.7254Z" fill="#231F20"/>
<path d="M90.9172 38.7106C90.516 38.4594 81.5122 40.431 81.5122 40.431C81.5122 40.431 70.5997 42.4025 70.8884 45.1387C71.1772 47.8749 75.6247 55.2439 75.6247 55.2439L78.981 54.3256L76.026 47.204H82.6972C82.6972 47.204 84.9997 63.4899 84.3435 68.3139L87.6135 68.8236L90.9172 38.7106Z" fill="#231F20"/>
<path d="M87.6248 68.9886H87.5985L84.3323 68.4788C84.311 68.476 84.2905 68.4691 84.272 68.4583C84.2534 68.4475 84.2372 68.4332 84.2243 68.4161C84.2114 68.399 84.202 68.3795 84.1967 68.3587C84.1914 68.3379 84.1903 68.3163 84.1935 68.2951C84.7898 63.7711 82.791 48.9994 82.5698 47.3839H76.2773L79.1385 54.2619C79.1477 54.2838 79.1524 54.3074 79.1524 54.3312C79.1524 54.355 79.1477 54.3786 79.1385 54.4006C79.1158 54.4416 79.0782 54.4725 79.0335 54.4868L75.6773 55.4013C75.6425 55.4111 75.6055 55.4094 75.5718 55.3966C75.538 55.3838 75.5093 55.3605 75.4898 55.3301C75.3098 55.0265 71.0198 47.9012 70.731 45.165C70.4273 42.3089 81.0323 40.3598 81.486 40.2923C84.2048 39.6964 90.591 38.332 91.0072 38.5944C91.0332 38.611 91.054 38.6346 91.0673 38.6624C91.0805 38.6902 91.0857 38.7212 91.0823 38.7518L87.7823 68.8611C87.7749 68.906 87.7524 68.947 87.7185 68.9773C87.6889 68.9897 87.6564 68.9936 87.6248 68.9886ZM84.5385 68.1752L87.4785 68.6325L90.7448 38.8493C89.8335 38.8493 84.7448 39.895 81.5573 40.5922C78.5573 41.1357 70.8398 43.0023 71.0573 45.12C71.3235 47.6088 75.1635 54.1157 75.711 55.0415L78.7635 54.2094L75.8798 47.2715C75.8679 47.2476 75.8617 47.2213 75.8617 47.1946C75.8617 47.168 75.8679 47.1417 75.8798 47.1178C75.8953 47.0952 75.9159 47.0766 75.9401 47.0635C75.9642 47.0505 75.9911 47.0434 76.0185 47.0428H82.6935C82.7328 47.0441 82.7704 47.059 82.7998 47.085C82.8292 47.111 82.8487 47.1465 82.8548 47.1853C82.9598 47.8524 85.0972 63.1901 84.5273 68.1752H84.5385Z" fill="#231F20"/>
<path d="M90.602 47.129L78.1445 40.7571C78.1445 40.7571 81.4558 29.7524 82.9783 28.1257C84.5008 26.499 90.677 27.3273 91.5808 28.924C92.4845 30.5208 91.427 41.0195 90.602 47.129Z" fill="#0064FF"/>
<path d="M84.9579 26.4652L84.8079 28.5829C84.8297 28.7456 84.887 28.9014 84.9755 29.0396C85.0641 29.1778 85.1818 29.2949 85.3204 29.3828C85.4591 29.4707 85.6153 29.5271 85.7781 29.5483C85.9409 29.5694 86.1064 29.5546 86.2629 29.505C86.6506 29.4181 87.0141 29.2463 87.3274 29.0019C87.6406 28.7575 87.8956 28.4467 88.0741 28.0919C88.0741 28.0919 88.4004 23.0094 88.5091 21.6675C87.5656 21.5546 86.6561 21.2456 85.8391 20.7604C85.718 20.6659 85.5842 20.5889 85.4416 20.5318C85.1791 20.4906 85.2129 20.6405 85.0929 20.8654C84.8845 21.2732 84.5451 21.5993 84.1291 21.7912C84.0766 21.8099 84.03 21.8423 83.9941 21.8849C83.9746 21.9205 83.9643 21.9605 83.9641 22.0011C83.8291 23.2118 83.5891 24.4187 83.7541 25.6369C83.8966 26.6451 84.9579 26.4652 84.9579 26.4652Z" fill="white"/>
<path d="M85.8883 29.7187C85.6271 29.7254 85.3707 29.6479 85.1571 29.4975C84.8763 29.2777 84.691 28.9582 84.6396 28.6054L84.7746 26.6489C84.5075 26.6522 84.2458 26.5737 84.0246 26.424C83.9075 26.3333 83.8094 26.2204 83.736 26.0918C83.6627 25.9631 83.6155 25.8213 83.5971 25.6743C83.504 24.7065 83.5431 23.7305 83.7134 22.7732C83.7471 22.5146 83.7809 22.256 83.8071 21.9974C83.8132 21.9329 83.8323 21.8705 83.8634 21.8137C83.9134 21.7396 83.9855 21.6831 84.0696 21.6525C84.4522 21.4755 84.7649 21.1761 84.9584 20.8017C84.9798 20.7592 84.9986 20.7153 85.0146 20.6705C85.0241 20.6194 85.0442 20.5709 85.0735 20.5281C85.1028 20.4852 85.1406 20.4488 85.1847 20.4213C85.2288 20.3939 85.2781 20.3758 85.3295 20.3684C85.3809 20.3609 85.4333 20.3643 85.4834 20.3781C85.6108 20.4115 85.7296 20.4715 85.8321 20.5543L85.9371 20.6255C86.7281 21.0983 87.6096 21.3997 88.5246 21.5101C88.5696 21.5144 88.6112 21.5359 88.6408 21.5701C88.6558 21.5868 88.6671 21.6064 88.6742 21.6277C88.6813 21.6489 88.684 21.6714 88.6821 21.6937C88.5734 23.0244 88.2471 28.0657 88.2433 28.1182C88.2485 28.1366 88.2485 28.156 88.2433 28.1744C88.0551 28.5535 87.7837 28.8852 87.4493 29.1448C87.1149 29.4044 86.7262 29.5852 86.3121 29.6737C86.1728 29.7035 86.0308 29.7186 85.8883 29.7187ZM84.9809 28.5942C85.0297 28.8399 85.1622 29.0611 85.3559 29.2201C85.4836 29.3001 85.627 29.3518 85.7764 29.3719C85.9258 29.3919 86.0778 29.3798 86.2221 29.3363C86.5789 29.2559 86.9139 29.099 87.204 28.8763C87.4941 28.6537 87.7323 28.3707 87.9021 28.047C87.9283 27.6272 88.2096 23.2942 88.3221 21.8212C87.4142 21.6825 86.5412 21.3721 85.7496 20.9066L85.6109 20.8167C85.5499 20.7685 85.4831 20.7283 85.4121 20.6967C85.3885 20.6933 85.3645 20.6933 85.3409 20.6967C85.3328 20.7249 85.3228 20.7524 85.3108 20.7792C85.2921 20.8279 85.2696 20.8841 85.2396 20.9441C85.0126 21.3852 84.6442 21.7376 84.1934 21.9449C84.1705 21.9545 84.1491 21.9671 84.1296 21.9824C84.131 21.9948 84.131 22.0074 84.1296 22.0198C84.0996 22.2822 84.0659 22.5408 84.0321 22.8032C83.8673 23.7296 83.8294 24.6741 83.9196 25.6106C83.927 25.7158 83.9566 25.8183 84.0064 25.9113C84.0561 26.0043 84.1249 26.0858 84.2084 26.1504C84.4219 26.2833 84.6756 26.3364 84.9246 26.3003C84.9499 26.2956 84.976 26.2968 85.0007 26.304C85.0255 26.3112 85.0482 26.324 85.0671 26.3415C85.0867 26.3586 85.1021 26.38 85.1119 26.4041C85.1216 26.4282 85.1256 26.4543 85.1233 26.4802L84.9996 28.5942H84.9809Z" fill="#231F20"/>
<path d="M84.9023 27.5072C85.4252 27.5484 85.9442 27.3889 86.3536 27.0612C86.5198 26.9238 86.6544 26.7523 86.7482 26.5582C86.842 26.3642 86.8929 26.1522 86.8974 25.9367C86.3036 26.2671 85.638 26.4472 84.9586 26.4615L84.9023 27.5072Z" fill="#231F20"/>
<path d="M85.0561 27.6796C84.9586 27.6796 84.8949 27.6796 84.8874 27.6796C84.8453 27.6749 84.8065 27.6546 84.7787 27.6227C84.7509 27.5907 84.7362 27.5495 84.7374 27.5072L84.7936 26.4652C84.7965 26.4225 84.8155 26.3824 84.8469 26.3532C84.8782 26.3239 84.9195 26.3077 84.9624 26.3078C85.6111 26.2903 86.2462 26.1181 86.8149 25.8055C86.8388 25.7916 86.866 25.7838 86.8937 25.7831C86.9215 25.7824 86.949 25.7887 86.9736 25.8014C86.9983 25.8141 87.0194 25.8328 87.0349 25.8558C87.0504 25.8788 87.0599 25.9054 87.0624 25.933C87.0602 26.1734 87.0054 26.4104 86.9017 26.6273C86.798 26.8442 86.6481 27.0358 86.4624 27.1886C86.0684 27.5167 85.5688 27.6911 85.0561 27.6796ZM85.1124 26.6301L85.0786 27.346C85.5024 27.3521 85.9144 27.2073 86.2411 26.9375C86.4575 26.7485 86.615 26.5013 86.6949 26.2253C86.2003 26.4662 85.6619 26.6039 85.1124 26.6301Z" fill="#231F20"/>
<path d="M86.0009 23.1331C86.0009 23.1331 85.251 24.1113 85.4085 24.295C85.5659 24.4787 86.0197 24.3962 86.0197 24.3962" fill="white"/>
<path d="M85.784 24.5836C85.6913 24.592 85.5979 24.5799 85.5104 24.5482C85.4229 24.5165 85.3435 24.4658 85.2778 24.3999C85.2215 24.3287 85.0453 24.1113 85.8703 23.0319C85.8991 23.0029 85.9375 22.9854 85.9783 22.9826C86.019 22.9798 86.0595 22.9919 86.092 23.0166C86.1245 23.0414 86.147 23.0771 86.1552 23.1171C86.1634 23.1571 86.1567 23.1987 86.1365 23.2343C85.8912 23.5254 85.6948 23.8546 85.5553 24.2088C85.6952 24.2574 85.8461 24.2652 85.9903 24.2313C86.0115 24.227 86.0334 24.2269 86.0546 24.2312C86.0758 24.2355 86.0959 24.2441 86.1138 24.2563C86.1316 24.2685 86.1468 24.2843 86.1584 24.3025C86.1701 24.3207 86.1779 24.3411 86.1815 24.3625C86.1859 24.3839 86.1859 24.406 86.1817 24.4274C86.1774 24.4488 86.1689 24.4692 86.1567 24.4874C86.1445 24.5055 86.1288 24.521 86.1105 24.533C86.0923 24.5451 86.0718 24.5533 86.0503 24.5574C85.9626 24.5745 85.8734 24.5833 85.784 24.5836Z" fill="#231F20"/>
<path d="M85.2412 22.7731C85.2537 22.6516 85.2121 22.5478 85.1482 22.5412C85.0843 22.5346 85.0224 22.6278 85.0099 22.7493C84.9974 22.8708 85.0391 22.9746 85.103 22.9812C85.1668 22.9877 85.2287 22.8946 85.2412 22.7731Z" fill="#231F20"/>
<path d="M87.2075 22.8287C87.2116 22.7066 87.1629 22.6059 87.0987 22.6038C87.0345 22.6016 86.9792 22.6988 86.9751 22.8209C86.9711 22.943 87.0198 23.0437 87.084 23.0458C87.1481 23.0479 87.2034 22.9507 87.2075 22.8287Z" fill="#231F20"/>
<path d="M88.0521 23.6391C88.2996 23.3355 88.6859 22.7807 89.1434 22.9869C89.2651 23.044 89.3698 23.1318 89.4471 23.2418C89.5964 23.4707 89.6737 23.7391 89.6691 24.0123C89.6644 24.2855 89.578 24.5511 89.4209 24.7748C89.1771 25.1833 88.4646 25.783 88.0371 25.2246" fill="white"/>
<path d="M88.4648 25.6331C88.3537 25.6321 88.2444 25.6048 88.146 25.5533C88.0475 25.5018 87.9627 25.4277 87.8986 25.337C87.8771 25.3005 87.8698 25.2574 87.8781 25.2159C87.8864 25.1744 87.9097 25.1374 87.9435 25.1119C87.9773 25.0865 88.0193 25.0743 88.0615 25.0778C88.1037 25.0813 88.1432 25.1002 88.1723 25.1309C88.2054 25.1837 88.2521 25.2265 88.3076 25.2549C88.363 25.2833 88.4251 25.2961 88.4873 25.292C88.6817 25.2375 88.8612 25.14 89.0128 25.0068C89.1643 24.8735 89.284 24.7079 89.3628 24.5222C89.4417 24.3365 89.4777 24.1354 89.4683 23.9339C89.459 23.7324 89.4044 23.5355 89.3086 23.358C89.2498 23.2707 89.1698 23.1998 89.0761 23.1518C88.7986 23.0281 88.5248 23.3317 88.2473 23.6803L88.1873 23.7553C88.1748 23.7766 88.1578 23.7949 88.1375 23.8091C88.1172 23.8232 88.0941 23.8329 88.0697 23.8373C88.0454 23.8418 88.0204 23.8409 87.9964 23.8349C87.9724 23.8288 87.95 23.8177 87.9307 23.8022C87.9114 23.7867 87.8957 23.7672 87.8846 23.7451C87.8735 23.723 87.8672 23.6988 87.8663 23.6741C87.8654 23.6494 87.8698 23.6248 87.8793 23.6019C87.8887 23.579 87.903 23.5585 87.9211 23.5416L87.9773 23.4667C88.2361 23.1406 88.6711 22.6008 89.2148 22.8407C89.3655 22.9089 89.495 23.0164 89.5898 23.1518C89.7643 23.4055 89.8577 23.7061 89.8577 24.0139C89.8577 24.3217 89.7643 24.6223 89.5898 24.876C89.4769 25.0688 89.3242 25.2354 89.1418 25.3646C88.9595 25.4939 88.7517 25.5828 88.5323 25.6256L88.4648 25.6331Z" fill="#231F20"/>
<path d="M85.8329 25.5881C85.6469 25.5821 85.4642 25.5369 85.2969 25.4555C85.1295 25.3741 84.9812 25.2584 84.8616 25.1158C84.8428 25.1007 84.8275 25.0817 84.8167 25.0602C84.8059 25.0386 84.7998 25.015 84.7989 24.9909C84.798 24.9668 84.8023 24.9428 84.8115 24.9205C84.8207 24.8982 84.8345 24.8781 84.8521 24.8616C84.8697 24.8451 84.8906 24.8325 84.9135 24.8248C84.9363 24.8171 84.9606 24.8143 84.9846 24.8168C85.0086 24.8192 85.0318 24.8267 85.0526 24.8389C85.0735 24.851 85.0914 24.8675 85.1054 24.8872C85.197 25.0045 85.3142 25.0992 85.4481 25.1642C85.582 25.2292 85.729 25.2626 85.8779 25.262C86.2902 25.1882 86.6596 24.9621 86.9129 24.6286C86.9261 24.6113 86.9426 24.5968 86.9615 24.5859C86.9804 24.575 87.0012 24.5679 87.0229 24.5651C87.0445 24.5624 87.0664 24.5639 87.0875 24.5696C87.1085 24.5754 87.1282 24.5852 87.1454 24.5986C87.1631 24.6115 87.1781 24.6279 87.1892 24.6468C87.2004 24.6656 87.2077 24.6866 87.2105 24.7083C87.2133 24.7301 87.2116 24.7522 87.2056 24.7733C87.1995 24.7944 87.1893 24.814 87.1754 24.831C86.8606 25.2369 86.4011 25.5055 85.8929 25.5806L85.8329 25.5881Z" fill="#231F20"/>
<path d="M91.5805 28.9128C91.5805 28.9128 95.3718 31.4166 97.2318 37.1813C98.1355 39.985 96.298 47.4889 96.298 47.4889L92.8143 46.0758C92.8143 46.0758 93.7443 40.3111 93.5643 39.5427C93.3843 38.7743 88.6143 33.4706 88.6143 33.4706L91.5805 28.9128Z" fill="#0064FF"/>
<path d="M72.2761 29.7037C72.2761 29.7037 69.0886 26.7613 68.7924 26.8363C68.4961 26.9113 67.1199 27.8108 67.1499 28.0732C67.1799 28.3356 67.1986 28.6054 67.1986 28.6054C67.433 28.5419 67.6766 28.5191 67.9186 28.538C68.1878 28.8227 68.4383 29.1244 68.6686 29.4413C68.8449 29.6662 67.8586 29.8948 67.8586 29.8948C68.2483 30.0272 68.6485 30.1262 69.0549 30.1909C69.558 30.3131 70.047 30.4877 70.5136 30.7119L72.2761 29.7037Z" fill="white"/>
<path d="M70.4947 30.8806C70.4686 30.8797 70.4431 30.8733 70.4197 30.8618C69.9729 30.6437 69.5039 30.474 69.0209 30.3558C68.6005 30.2919 68.1865 30.1916 67.7834 30.056C67.7483 30.0433 67.718 30.0197 67.6971 29.9887C67.6762 29.9578 67.6657 29.9209 67.6672 29.8836C67.6693 29.8467 67.6832 29.8116 67.7069 29.7833C67.7305 29.7549 67.7626 29.7349 67.7984 29.7261C68.032 29.6771 68.2579 29.5964 68.4697 29.4863L68.4172 29.415C68.2897 29.2464 67.9109 28.7441 67.8247 28.6654C67.6262 28.681 67.4294 28.7123 67.2359 28.7591C67.2116 28.7639 67.1866 28.7636 67.1624 28.7581C67.1383 28.7526 67.1156 28.7421 67.0958 28.7273C67.0759 28.7124 67.0595 28.6936 67.0474 28.6719C67.0354 28.6503 67.0281 28.6263 67.0259 28.6017C67.0259 28.6017 67.0259 28.3356 66.9809 28.0807C66.9247 27.6309 68.5447 26.7088 68.7509 26.6564C68.8484 26.6339 69.1259 26.5589 72.3922 29.5612C72.4123 29.5795 72.4279 29.6023 72.4376 29.6277C72.4473 29.6531 72.4508 29.6805 72.4479 29.7075C72.4449 29.7346 72.4357 29.7606 72.4208 29.7833C72.4059 29.8061 72.3858 29.8251 72.3622 29.8386L70.5772 30.8806C70.5501 30.8873 70.5218 30.8873 70.4947 30.8806ZM68.4284 29.8873C68.6305 29.948 68.8376 29.9906 69.0472 30.0148C69.5442 30.1245 70.0264 30.2931 70.4834 30.517L71.9834 29.6662C70.6072 28.403 69.1034 27.1174 68.8034 27.0087C68.4809 27.1174 67.3859 27.8745 67.3034 28.0769C67.3034 28.1856 67.3297 28.2981 67.3372 28.3918C67.8434 28.2981 67.9559 28.3655 67.9934 28.3918C68.2505 28.6395 68.4794 28.9147 68.6759 29.2126L68.7697 29.3363C68.797 29.3707 68.8154 29.4112 68.8232 29.4544C68.8311 29.4975 68.8281 29.542 68.8147 29.5837C68.7285 29.7305 68.5909 29.8401 68.4284 29.8911V29.8873Z" fill="#231F20"/>
<path d="M83.4738 27.8558C83.4738 27.8558 77.5038 31.5852 76.615 31.3754C75.7263 31.1655 71.6988 28.9165 71.6988 28.9165L69.9775 30.8806C69.9775 30.8806 74.1325 35.5696 76.1463 35.0561C78.16 34.5426 83.4213 31.5178 83.4213 31.5178L83.4738 27.8558Z" fill="#0064FF"/>
<path d="M83.1024 28.7741C83.1024 28.7741 80.0311 35.2285 78.7861 38.6881L83.1024 28.7741Z" fill="white"/>
<path d="M78.7856 38.8605C78.767 38.8641 78.7479 38.8641 78.7293 38.8605C78.6868 38.8452 78.652 38.8139 78.6324 38.7732C78.6128 38.7326 78.6099 38.6859 78.6243 38.6431C79.8581 35.2135 82.9143 28.7778 82.9481 28.7104C82.9711 28.6754 83.0061 28.65 83.0466 28.639C83.087 28.6279 83.13 28.6319 83.1677 28.6503C83.2054 28.6687 83.2351 28.7001 83.2512 28.7388C83.2674 28.7774 83.2689 28.8206 83.2556 28.8603C83.2256 28.924 80.1768 35.3447 78.9468 38.7556C78.9334 38.7871 78.9109 38.8139 78.8822 38.8326C78.8535 38.8513 78.8198 38.861 78.7856 38.8605Z" fill="#231F20"/>
<path d="M93.5457 39.5427C93.5457 39.5427 90.0807 34.9661 88.5957 33.4706L93.5457 39.5427Z" fill="white"/>
<path d="M93.5463 39.7151C93.5193 39.7147 93.4927 39.708 93.4686 39.6957C93.4446 39.6833 93.4237 39.6656 93.4076 39.6439C93.3738 39.5989 89.9351 35.0598 88.4763 33.5943C88.4461 33.5616 88.4298 33.5184 88.4307 33.4739C88.4316 33.4294 88.4497 33.387 88.4812 33.3555C88.5127 33.324 88.5551 33.306 88.5997 33.3051C88.6442 33.3041 88.6873 33.3205 88.7201 33.3507C90.1938 34.8499 93.5388 39.2503 93.6813 39.4377C93.7084 39.4741 93.72 39.5197 93.7137 39.5646C93.7074 39.6095 93.6836 39.6501 93.6476 39.6776C93.6195 39.7019 93.5835 39.7153 93.5463 39.7151Z" fill="#231F20"/>
<path d="M36.4114 81.0803C35.5382 81.1113 34.6787 80.8573 33.9626 80.3569C33.0514 79.6784 32.4889 78.524 32.2901 76.916C31.9789 74.386 31.0901 72.5531 29.6651 71.4699C28.5473 70.6595 27.1679 70.2934 25.7951 70.4429C25.771 70.4471 25.7462 70.4465 25.7223 70.4411C25.6983 70.4356 25.6757 70.4254 25.6558 70.4111C25.6359 70.3968 25.6191 70.3786 25.6063 70.3577C25.5935 70.3367 25.585 70.3134 25.5814 70.2892C25.5737 70.2401 25.5855 70.1899 25.6142 70.1493C25.6429 70.1088 25.6863 70.0809 25.7351 70.0718C27.2045 69.9012 28.6838 70.2936 29.8751 71.17C31.4051 72.317 32.3464 74.236 32.6689 76.8748C32.8564 78.3741 33.3664 79.446 34.1914 80.0608C35.4289 80.9791 37.1201 80.6904 38.0276 80.5368C38.1964 80.5068 38.3426 80.4805 38.4551 80.4693C41.7664 80.0945 42.4526 73.5276 43.0076 68.2464C43.1389 66.9945 43.2626 65.8138 43.4126 64.7868C43.4163 64.7622 43.4248 64.7386 43.4377 64.7173C43.4505 64.6959 43.4674 64.6773 43.4874 64.6625C43.5075 64.6478 43.5302 64.637 43.5544 64.631C43.5785 64.625 43.6036 64.6238 43.6283 64.6275C43.6529 64.6312 43.6765 64.6397 43.6979 64.6526C43.7192 64.6654 43.7378 64.6823 43.7526 64.7023C43.7674 64.7223 43.7781 64.745 43.7841 64.7692C43.7901 64.7933 43.7913 64.8184 43.7876 64.8431C43.6376 65.8626 43.5139 67.0395 43.3826 68.2839C42.8164 73.7 42.1114 80.4393 38.5076 80.8404L38.1026 80.9041C37.5452 81.0128 36.9793 81.0718 36.4114 81.0803Z" fill="#231F20"/>
<path d="M31.8434 15.869H1.88086V38.7293H31.8434V15.869Z" fill="white"/>
<path d="M31.8432 38.9243H1.8807C1.82998 38.9243 1.78134 38.9041 1.74547 38.8683C1.7096 38.8324 1.68945 38.7838 1.68945 38.7331V15.8878C1.68945 15.8627 1.6944 15.8378 1.70401 15.8146C1.71362 15.7914 1.72771 15.7704 1.74547 15.7526C1.76323 15.7349 1.78431 15.7208 1.80752 15.7112C1.83072 15.7016 1.85559 15.6966 1.8807 15.6966H31.8432C31.8686 15.6961 31.8939 15.7007 31.9175 15.7101C31.9412 15.7195 31.9627 15.7335 31.9809 15.7513C31.999 15.7691 32.0134 15.7903 32.0233 15.8138C32.0331 15.8372 32.0382 15.8624 32.0382 15.8878V38.7518C32.0335 38.7999 32.0108 38.8444 31.9746 38.8763C31.9384 38.9083 31.8915 38.9254 31.8432 38.9243ZM2.07571 38.5494H31.652V16.0602H2.07571V38.5494Z" fill="#D1D3D4"/>
<path d="M46.247 66.1512C46.6881 66.1512 47.0457 65.7937 47.0457 65.3528C47.0457 64.9119 46.6881 64.5544 46.247 64.5544C45.8059 64.5544 45.4482 64.9119 45.4482 65.3528C45.4482 65.7937 45.8059 66.1512 46.247 66.1512Z" fill="#0064FF"/>
<path d="M28.1874 34.7975H6.30992C6.28449 34.798 6.25922 34.7934 6.23558 34.784C6.21194 34.7746 6.19042 34.7606 6.17226 34.7428C6.1541 34.725 6.13968 34.7038 6.12983 34.6803C6.11999 34.6569 6.11492 34.6317 6.11492 34.6063V19.07C6.10663 19.041 6.10519 19.0105 6.11071 18.9808C6.11624 18.9511 6.12857 18.9232 6.14675 18.8991C6.16492 18.875 6.18844 18.8555 6.21546 18.842C6.24247 18.8286 6.27224 18.8216 6.30242 18.8216C6.3326 18.8216 6.36237 18.8286 6.38939 18.842C6.4164 18.8555 6.43992 18.875 6.4581 18.8991C6.47627 18.9232 6.48861 18.9511 6.49413 18.9808C6.49965 19.0105 6.49821 19.041 6.48992 19.07V34.4114H28.1874C28.2282 34.423 28.264 34.4476 28.2895 34.4814C28.315 34.5153 28.3288 34.5565 28.3288 34.5988C28.3288 34.6412 28.315 34.6824 28.2895 34.7162C28.264 34.75 28.2282 34.7746 28.1874 34.7862V34.7975Z" fill="#D1D3D4"/>
<path d="M6.30965 34.7975C6.27988 34.8027 6.24942 34.8027 6.21965 34.7975C6.17398 34.7735 6.13967 34.7325 6.12421 34.6833C6.10875 34.6341 6.1134 34.5808 6.13715 34.5351C6.24965 34.254 9.2834 28.4068 12.2497 29.3813C13.015 29.6656 13.717 30.0973 14.3159 30.652C15.4709 31.619 16.1684 32.2037 18.7671 29.8049C20.7546 27.9682 21.7034 25.7868 22.4647 24.0326C23.2259 22.2785 23.8521 20.8354 25.1909 20.3744C25.2155 20.366 25.2416 20.3626 25.2675 20.3643C25.2935 20.366 25.3188 20.3727 25.3422 20.3842C25.3655 20.3957 25.3863 20.4117 25.4035 20.4312C25.4206 20.4507 25.4338 20.4735 25.4421 20.4981C25.4505 20.5227 25.454 20.5487 25.4523 20.5746C25.4506 20.6006 25.4438 20.6259 25.4323 20.6493C25.4208 20.6726 25.4048 20.6934 25.3853 20.7106C25.3658 20.7277 25.343 20.7408 25.3184 20.7492C24.1409 21.1578 23.5596 22.4996 22.8209 24.1975C22.0446 25.9854 21.0771 28.2081 19.0296 30.0972C16.3184 32.6048 15.3771 32.0575 14.0684 30.9593C13.5052 30.4369 12.8453 30.0295 12.1259 29.7599C9.5009 28.8678 6.52715 34.6325 6.5009 34.6888C6.48409 34.7244 6.45671 34.7539 6.42248 34.7734C6.38825 34.7928 6.34885 34.8012 6.30965 34.7975Z" fill="#D1D3D4"/>
<path d="M39.715 41.8179H24.8125V52.444H39.715V41.8179Z" fill="white"/>
<path d="M39.7149 52.6202H24.8124C24.7617 52.6202 24.713 52.6 24.6771 52.5642C24.6413 52.5283 24.6211 52.4797 24.6211 52.429V41.8179C24.6206 41.7924 24.6252 41.7672 24.6346 41.7436C24.644 41.7199 24.658 41.6984 24.6758 41.6803C24.6936 41.6621 24.7149 41.6477 24.7383 41.6378C24.7618 41.628 24.7869 41.6229 24.8124 41.6229H39.7149C39.7666 41.6229 39.8162 41.6435 39.8528 41.68C39.8893 41.7166 39.9099 41.7662 39.9099 41.8179V52.444C39.9061 52.4927 39.8837 52.5381 39.8475 52.5709C39.8112 52.6036 39.7638 52.6213 39.7149 52.6202ZM24.9999 52.2454H39.5161V42.009H24.9999V52.2454Z" fill="#D1D3D4"/>
<path d="M30.2796 50.6936C29.798 50.7157 29.3169 50.64 28.8654 50.471C28.4139 50.302 28.0014 50.0433 27.6528 49.7105C27.3042 49.3776 27.0267 48.9776 26.8371 48.5346C26.6475 48.0915 26.5498 47.6147 26.5498 47.1328C26.5498 46.6509 26.6475 46.1741 26.8371 45.731C27.0267 45.288 27.3042 44.888 27.6528 44.5552C28.0014 44.2223 28.4139 43.9636 28.8654 43.7946C29.3169 43.6257 29.798 43.5499 30.2796 43.572C31.0006 43.571 31.7047 43.7907 32.2971 44.2017C32.3181 44.2157 32.3361 44.2337 32.3501 44.2546C32.3641 44.2756 32.3738 44.2991 32.3787 44.3239C32.3836 44.3486 32.3835 44.374 32.3785 44.3988C32.3735 44.4235 32.3637 44.4469 32.3496 44.4678L30.6471 46.9454H33.6471C33.6725 46.9449 33.6978 46.9495 33.7214 46.9589C33.745 46.9682 33.7666 46.9822 33.7847 47C33.8029 47.0178 33.8173 47.0391 33.8271 47.0625C33.837 47.086 33.8421 47.1111 33.8421 47.1366C33.8391 48.0797 33.4627 48.9833 32.7951 49.6498C32.1276 50.3164 31.2231 50.6916 30.2796 50.6936ZM30.2796 43.9468C29.6589 43.9465 29.0516 44.1278 28.5328 44.4683C28.0139 44.8088 27.6061 45.2936 27.3596 45.863C27.1131 46.4324 27.0387 47.0614 27.1455 47.6726C27.2524 48.2837 27.5359 48.8502 27.961 49.3023C28.3861 49.7543 28.9343 50.0721 29.538 50.2165C30.1416 50.3609 30.7744 50.3256 31.3582 50.1148C31.942 49.9041 32.4513 49.5272 32.8234 49.0306C33.1955 48.534 33.414 47.9395 33.4521 47.3202H30.2796C30.244 47.3201 30.2091 47.3103 30.1787 47.2918C30.1482 47.2733 30.1235 47.2468 30.1071 47.2153C30.0888 47.1853 30.0792 47.151 30.0792 47.1159C30.0792 47.0809 30.0888 47.0466 30.1071 47.0166L31.9071 44.3929C31.4149 44.1003 30.8522 43.9474 30.2796 43.9506V43.9468Z" fill="#D1D3D4"/>
<path d="M33.6513 43.9468L31.8926 46.2482H34.8588C34.8558 45.7962 34.7446 45.3514 34.5346 44.951C34.3245 44.5507 34.0217 44.2063 33.6513 43.9468Z" fill="#D1D3D4"/>
<path d="M38.2225 48.1448H34.8475C34.8067 48.1332 34.7709 48.1086 34.7454 48.0748C34.7199 48.041 34.7061 47.9998 34.7061 47.9574C34.7061 47.9151 34.7199 47.8739 34.7454 47.84C34.7709 47.8062 34.8067 47.7816 34.8475 47.77H38.2225C38.2515 47.7617 38.2821 47.7603 38.3117 47.7658C38.3414 47.7713 38.3694 47.7837 38.3935 47.8018C38.4176 47.82 38.4371 47.8435 38.4506 47.8705C38.4641 47.8975 38.4711 47.9273 38.4711 47.9574C38.4711 47.9876 38.4641 48.0174 38.4506 48.0444C38.4371 48.0714 38.4176 48.0949 38.3935 48.113C38.3694 48.1312 38.3414 48.1435 38.3117 48.1491C38.2821 48.1546 38.2515 48.1531 38.2225 48.1448Z" fill="#D1D3D4"/>
<path d="M37.0782 49.4979H34.8582C34.8175 49.4863 34.7816 49.4617 34.7561 49.4279C34.7306 49.3941 34.7168 49.3529 34.7168 49.3105C34.7168 49.2682 34.7306 49.227 34.7561 49.1931C34.7816 49.1593 34.8175 49.1347 34.8582 49.1231H37.0782C37.1073 49.1148 37.1378 49.1134 37.1675 49.1189C37.1972 49.1244 37.2251 49.1368 37.2492 49.1549C37.2733 49.1731 37.2929 49.1966 37.3063 49.2236C37.3198 49.2506 37.3268 49.2804 37.3268 49.3105C37.3268 49.3407 37.3198 49.3704 37.3063 49.3974C37.2929 49.4244 37.2733 49.4479 37.2492 49.4661C37.2251 49.4843 37.1972 49.4966 37.1675 49.5021C37.1378 49.5076 37.1073 49.5062 37.0782 49.4979Z" fill="#D1D3D4"/>
</svg>
