<svg width="100%" viewBox="0 0 150 111" fill="none" xmlns="http://www.w3.org/2000/svg">
<path d="M35.8771 34.5723C39.9654 34.5723 43.2796 31.3183 43.2796 27.3043C43.2796 23.2903 39.9654 20.0363 35.8771 20.0363C31.7888 20.0363 28.4746 23.2903 28.4746 27.3043C28.4746 31.3183 31.7888 34.5723 35.8771 34.5723Z" fill="white"/>
<path d="M35.877 34.7564C34.3756 34.7571 32.9078 34.3207 31.6592 33.5023C30.4105 32.6839 29.4371 31.5203 28.862 30.1586C28.287 28.797 28.1362 27.2985 28.4286 25.8527C28.721 24.4069 29.4436 23.0787 30.5049 22.0362C31.5663 20.9936 32.9187 20.2835 34.3911 19.9957C35.8635 19.7078 37.3898 19.8552 38.7769 20.4191C40.164 20.983 41.3496 21.9382 42.1838 23.1638C43.018 24.3893 43.4632 25.8303 43.4632 27.3043C43.4612 29.2795 42.6614 31.1733 41.2393 32.5703C39.8171 33.9673 37.8887 34.7535 35.877 34.7564ZM35.877 20.2241C34.4496 20.2233 33.0542 20.6383 31.8671 21.4164C30.68 22.1945 29.7547 23.3008 29.2081 24.5954C28.6616 25.8899 28.5184 27.3146 28.7967 28.6891C29.0749 30.0636 29.7622 31.3261 30.7714 32.3171C31.7807 33.308 33.0666 33.9827 34.4665 34.2559C35.8665 34.5292 37.3175 34.3886 38.636 33.8519C39.9545 33.3153 41.0813 32.4068 41.8738 31.2413C42.6663 30.0758 43.0889 28.7057 43.0882 27.3043C43.0852 25.4274 42.3245 23.6282 40.9728 22.301C39.6211 20.9739 37.7886 20.227 35.877 20.2241Z" fill="#D1D3D4"/>
<path d="M87.7169 42.3484L112.246 50.7836L99.3644 54.0273L84.2744 46.7041L87.7169 42.3484Z" fill="#231F20"/>
<path d="M99.3755 54.1893C99.3521 54.1948 99.3276 54.1948 99.3042 54.1893L84.2142 46.8661C84.1919 46.8553 84.1722 46.8398 84.1566 46.8207C84.1411 46.8016 84.13 46.7794 84.1242 46.7556C84.1188 46.7321 84.1187 46.7078 84.1239 46.6842C84.1291 46.6607 84.1394 46.6386 84.1542 46.6194L87.5855 42.2453C87.6073 42.2185 87.637 42.1989 87.6705 42.1891C87.704 42.1792 87.7397 42.1796 87.773 42.1901L112.302 50.6252C112.335 50.6371 112.364 50.6593 112.384 50.6885C112.403 50.7177 112.413 50.7523 112.41 50.7872C112.409 50.8217 112.396 50.8547 112.374 50.8812C112.351 50.9078 112.321 50.9265 112.287 50.9345L99.4055 54.1819L99.3755 54.1893ZM84.5292 46.6635L99.3755 53.8542L111.668 50.7578L87.7767 42.5399L84.5292 46.6635Z" fill="#231F20"/>
<path d="M58.9803 70.4116C58.9803 70.4116 45.9753 74.2812 39.499 70.4116C39.499 70.4116 44.449 76.4793 51.184 75.8018C57.919 75.1244 58.9803 70.4116 58.9803 70.4116Z" fill="#D1D3D4"/>
<path d="M63.5144 67.0574C63.5144 67.0574 53.6032 76.4866 42.3494 74.0051C26.7232 70.5809 14.6857 52.3373 25.1482 29.4545C25.1482 29.4545 14.2732 44.9625 19.8982 62.2599C27.6082 85.938 46.2307 84.9586 65.1907 80.1243" fill="#D1D3D4"/>
<path d="M90.4616 24.4582C90.4616 24.4582 87.6303 37.1128 87.7166 42.3484C87.7166 42.6061 88.5603 43.2504 88.5791 43.4529C88.9878 48.1252 73.6391 44.1893 73.6391 44.1893C73.6391 44.1893 73.0691 34.2814 74.2129 30.7358C75.3566 27.1902 76.5829 26.4133 76.5829 26.4133C76.5829 26.4133 86.8503 22.4516 88.6541 23.0076C90.4578 23.5635 90.4616 24.4582 90.4616 24.4582Z" fill="#0064FF"/>
<path d="M84.953 29.8595L104.479 19.8044L102.923 14.878L82.043 25.2682L84.953 29.8595Z" fill="#0064FF"/>
<path d="M57.1245 70.5552C57.1245 70.5552 56.8357 72.606 58.5082 76.726C60.1807 80.846 61.827 82.1346 61.827 82.1346L67.7745 81.3982L61.9432 67.039L57.1245 70.5552Z" fill="#231F20"/>
<path d="M61.8268 82.2966C61.7903 82.2969 61.7547 82.2853 61.7256 82.2635C61.6581 82.2083 60.0231 80.8975 58.3506 76.7849C56.6781 72.6722 56.9443 70.6178 56.9556 70.5257C56.9588 70.5043 56.9665 70.4838 56.9781 70.4655C56.9897 70.4471 57.005 70.4313 57.0231 70.4189L61.8418 66.9212C61.8619 66.9063 61.8852 66.8962 61.91 66.8917C61.9347 66.8872 61.9602 66.8885 61.9843 66.8954C62.009 66.9016 62.0317 66.9135 62.0507 66.9301C62.0696 66.9468 62.0842 66.9677 62.0931 66.9911L67.9243 81.3504C67.9353 81.3728 67.941 81.3973 67.941 81.4222C67.941 81.447 67.9353 81.4716 67.9243 81.494C67.9115 81.5149 67.8941 81.5327 67.8733 81.5461C67.8526 81.5595 67.829 81.5681 67.8043 81.5713L61.8568 82.2893L61.8268 82.2966ZM57.2818 70.6435C57.2518 71.0117 57.1881 73.0441 58.6618 76.6634C60.1356 80.2827 61.5943 81.7112 61.8793 81.9653L67.5418 81.2841L61.8756 67.3115L57.2818 70.6435Z" fill="#231F20"/>
<path d="M86.7227 80.1243C86.7227 80.1243 85.0652 84.8113 79.7627 89.2074C74.4602 93.6036 61.1064 96.203 61.1064 96.203L68.4264 81.1773L86.7227 80.1243Z" fill="white"/>
<path d="M61.1252 96.3687C61.097 96.3688 61.0692 96.3626 61.0438 96.3504C61.0184 96.3383 60.9963 96.3206 60.979 96.2987C60.9573 96.2714 60.9437 96.2387 60.9397 96.2043C60.9357 96.1698 60.9415 96.135 60.9565 96.1036L68.2502 81.0816C68.2648 81.0522 68.2871 81.0272 68.3148 81.0091C68.3425 80.991 68.3745 80.9804 68.4077 80.9785L86.704 79.9402C86.7351 79.9377 86.7663 79.9432 86.7945 79.9561C86.8228 79.969 86.8472 79.9889 86.8653 80.0139C86.8836 80.0377 86.8959 80.0655 86.9012 80.095C86.9064 80.1244 86.9044 80.1547 86.8953 80.1832C86.8765 80.2311 85.159 84.9696 79.8753 89.3474C74.5915 93.7251 61.2715 96.3429 61.1252 96.3687ZM68.569 81.3356L61.444 95.9305C63.6302 95.474 74.944 92.985 79.6465 89.0639C84.1465 85.3378 86.0215 81.3614 86.4453 80.3195L68.569 81.3356Z" fill="#231F20"/>
<path d="M76.5972 55.1944C76.5972 55.1944 72.1197 53.6333 65.1897 54.0273C58.2597 54.4212 46.751 60.8461 46.751 60.8461L62.5947 66.8033L76.5972 55.1944Z" fill="white"/>
<path d="M62.5952 66.9875C62.5728 66.9909 62.5501 66.9909 62.5277 66.9875L46.684 61.0228C46.6512 61.0096 46.6227 60.9879 46.6016 60.96C46.5805 60.9321 46.5674 60.8991 46.564 60.8645C46.5614 60.8299 46.5689 60.7953 46.5854 60.7647C46.602 60.7341 46.6271 60.7087 46.6577 60.6915C46.774 60.6252 58.2827 54.2372 65.179 53.8469C72.0752 53.4566 76.6165 55.0067 76.6577 55.0214C76.6895 55.0318 76.7178 55.0503 76.7398 55.0751C76.7618 55.0999 76.7766 55.13 76.7827 55.1624C76.7888 55.1947 76.786 55.228 76.7746 55.2589C76.7632 55.2898 76.7435 55.3171 76.7177 55.338L62.7152 66.947C62.6805 66.9725 62.6386 66.9867 62.5952 66.9875ZM47.194 60.8166L62.569 66.5898L76.2265 55.2681C75.1015 54.933 70.9765 53.88 65.2127 54.2114C59.0627 54.5612 49.1702 59.7489 47.194 60.8166Z" fill="#231F20"/>
<path d="M58.9919 65.6141C64.8157 60.0103 74.2094 54.2408 85.4782 49.8263C102.556 43.14 115.204 48.9095 119.393 51.3395C119.849 51.6037 120.202 52.0086 120.398 52.4909C120.594 52.9732 120.622 53.5057 120.477 54.0052C119.142 58.6001 114.004 71.3283 96.9269 78.0146C85.6582 82.4328 74.8019 84.5904 66.6494 84.4579C66.6494 84.4579 64.0244 82.1788 61.3507 75.6214C58.6769 69.064 58.9919 65.6141 58.9919 65.6141Z" fill="white"/>
<path d="M67.3506 84.6493H66.6456C66.6003 84.6498 66.5563 84.6341 66.5219 84.6052C66.4131 84.5094 63.8294 82.2193 61.1781 75.6877C58.5269 69.1561 58.7931 65.7467 58.8044 65.6031C58.8091 65.5598 58.8289 65.5194 58.8606 65.4889C64.9056 59.6716 74.5806 53.9021 85.4106 49.6569C102.364 43.0296 114.889 48.5119 119.491 51.1812C119.981 51.4664 120.361 51.9027 120.572 52.4222C120.783 52.9417 120.813 53.5151 120.657 54.0531C119.191 59.1009 113.952 71.5493 96.9981 78.1877C86.4681 82.3114 75.7169 84.6493 67.3506 84.6493ZM66.7243 84.2812C75.1168 84.3916 86.1081 82.072 96.8594 77.8489C113.659 71.2695 118.846 58.9499 120.297 53.9573C120.43 53.4973 120.404 53.0071 120.223 52.5629C120.043 52.1188 119.718 51.7456 119.299 51.5015C114.747 48.8616 102.346 43.4235 85.5494 50.003C74.7981 54.2114 65.1906 59.944 59.1756 65.6988C59.1531 66.2032 59.1081 69.5942 61.5269 75.5478C63.9456 81.5014 66.3531 83.924 66.7243 84.2775V84.2812Z" fill="#231F20"/>
<path d="M120.477 54.0052C118.727 59.6859 115.543 64.8405 111.222 68.9904C111.222 68.9904 107.581 66.5456 104.416 58.7474C101.251 50.9492 102.166 46.7188 102.166 46.7188C108.21 46.8078 114.132 48.3974 119.382 51.3395C119.839 51.6021 120.195 52.0063 120.393 52.4887C120.591 52.9712 120.621 53.5045 120.477 54.0052Z" fill="white"/>
<path d="M111.222 69.1745C111.184 69.1738 111.148 69.1623 111.117 69.1413C110.967 69.0382 107.393 66.564 104.239 58.8321C101.086 51.1002 101.956 46.8697 101.989 46.682C101.999 46.6407 102.022 46.6037 102.055 46.577C102.089 46.5503 102.13 46.5354 102.173 46.5347C108.251 46.6183 114.207 48.2172 119.483 51.1812C119.973 51.4663 120.353 51.9027 120.564 52.4222C120.775 52.9417 120.805 53.5151 120.649 54.0531C118.907 59.7661 115.716 64.9513 111.376 69.1229C111.355 69.1421 111.331 69.1566 111.305 69.1655C111.278 69.1744 111.25 69.1775 111.222 69.1745ZM102.334 46.9066C102.214 47.7203 101.809 51.8366 104.584 58.6885C107.359 65.5405 110.543 68.2614 111.203 68.7547C115.449 64.6502 118.575 59.5628 120.293 53.961C120.426 53.501 120.4 53.0107 120.22 52.5666C120.039 52.1225 119.714 51.7493 119.296 51.5052C114.125 48.5971 108.292 47.0155 102.334 46.9066Z" fill="#231F20"/>
<path d="M61.5975 64.8262C61.5707 64.8259 61.5441 64.8203 61.5196 64.8095C61.4951 64.7987 61.4731 64.7831 61.455 64.7636C61.4389 64.7454 61.4267 64.7241 61.4191 64.7012C61.4116 64.6783 61.4087 64.6541 61.4108 64.6301C61.4129 64.606 61.4199 64.5827 61.4314 64.5613C61.4428 64.54 61.4585 64.5211 61.4775 64.5059C65.6923 61.1205 70.113 57.99 74.715 55.1318C74.7575 55.1068 74.8083 55.099 74.8565 55.11C74.9048 55.121 74.9468 55.1499 74.9738 55.1907C74.9868 55.211 74.9955 55.2336 74.9996 55.2572C75.0036 55.2808 75.0028 55.305 74.9972 55.3283C74.9916 55.3516 74.9814 55.3735 74.967 55.3929C74.9527 55.4123 74.9346 55.4287 74.9138 55.4411C70.3284 58.291 65.9216 61.409 61.7175 64.7783C61.6848 64.808 61.6421 64.8251 61.5975 64.8262Z" fill="white"/>
<path d="M75.9824 83.9572C75.9353 83.9575 75.8897 83.9404 75.8549 83.9093C75.8024 83.8614 70.7361 79.1229 68.2199 72.9226C65.7036 66.7224 66.0561 59.8594 66.0599 59.7931C66.0603 59.7684 66.0659 59.7441 66.0763 59.7216C66.0867 59.6992 66.1016 59.679 66.1202 59.6624C66.1389 59.6459 66.1608 59.6332 66.1846 59.6253C66.2084 59.6174 66.2336 59.6143 66.2586 59.6164C66.308 59.6201 66.354 59.6426 66.3869 59.679C66.4198 59.7154 66.437 59.7629 66.4349 59.8115C66.4349 59.8778 66.0861 66.6708 68.5686 72.7864C71.0511 78.902 76.0686 83.5927 76.1136 83.6405C76.1312 83.6576 76.1451 83.678 76.1547 83.7004C76.1642 83.7229 76.1691 83.7469 76.1691 83.7712C76.1691 83.7955 76.1642 83.8196 76.1547 83.842C76.1451 83.8645 76.1312 83.8848 76.1136 83.9019C76.0788 83.9363 76.0317 83.9561 75.9824 83.9572Z" fill="#231F20"/>
<path d="M118.875 50.883C118.875 50.883 126.082 49.0421 126.51 50.0951C126.937 51.1481 120.42 54.6827 120.42 54.6827" fill="#231F20"/>
<path d="M120.421 54.8446C120.385 54.8437 120.35 54.8313 120.322 54.8093C120.294 54.7874 120.274 54.757 120.265 54.7229C120.256 54.6887 120.259 54.6527 120.273 54.6202C120.287 54.5877 120.311 54.5605 120.342 54.5427C123.417 52.8712 126.593 50.7209 126.342 50.1539C126.091 49.5869 122.3 50.1723 118.902 51.0413C118.881 51.0466 118.859 51.0478 118.837 51.0447C118.816 51.0417 118.795 51.0345 118.776 51.0235C118.757 51.0126 118.741 50.9981 118.728 50.981C118.714 50.9638 118.705 50.9442 118.7 50.9235C118.694 50.9027 118.693 50.881 118.696 50.8598C118.699 50.8385 118.706 50.8181 118.718 50.7996C118.729 50.7812 118.743 50.765 118.761 50.7522C118.778 50.7393 118.798 50.7299 118.82 50.7246C120.545 50.2865 126.203 48.9389 126.65 50.0361C127.096 51.1333 122.045 53.9794 120.485 54.8225C120.465 54.8334 120.443 54.8408 120.421 54.8446Z" fill="#231F20"/>
<path d="M119.516 55.3491C118.529 54.0925 117.919 52.5904 117.754 51.0118C117.743 50.7633 117.829 50.52 117.993 50.3304C118.157 50.1407 118.387 50.0186 118.639 49.9883C118.746 49.9642 118.857 49.9616 118.966 49.9809C119.074 50.0002 119.177 50.0408 119.269 50.1003C119.361 50.1599 119.439 50.2371 119.5 50.3273C119.56 50.4175 119.602 50.5189 119.621 50.6252C119.761 51.9846 120.281 53.2795 121.125 54.366C121.186 54.456 121.228 54.5573 121.248 54.6637C121.268 54.7701 121.265 54.8794 121.241 54.9849C121.216 55.0903 121.17 55.1897 121.105 55.2771C121.04 55.3644 120.957 55.4377 120.863 55.4927C120.66 55.6378 120.41 55.7035 120.161 55.6769C119.912 55.6504 119.682 55.5334 119.516 55.3491Z" fill="white"/>
<path d="M120.263 55.8682C120.091 55.8711 119.921 55.8355 119.766 55.764C119.611 55.6925 119.474 55.5871 119.366 55.4558C118.363 54.174 117.74 52.645 117.566 51.0376C117.549 50.7403 117.648 50.4477 117.843 50.2198C118.039 49.9919 118.315 49.8458 118.616 49.8115C118.765 49.7887 118.917 49.7955 119.064 49.8316C119.21 49.8677 119.347 49.9322 119.468 50.0214C119.563 50.0921 119.642 50.1812 119.701 50.2831C119.759 50.3851 119.796 50.4977 119.809 50.6142C119.951 51.9412 120.463 53.204 121.29 54.2629C121.363 54.3556 121.415 54.4619 121.444 54.5752C121.473 54.6886 121.478 54.8066 121.459 54.922C121.435 55.0697 121.381 55.2112 121.3 55.3378C121.218 55.4643 121.112 55.5734 120.986 55.6583C120.774 55.8015 120.52 55.8749 120.263 55.8682ZM118.789 50.1576H118.665C118.461 50.1815 118.274 50.2793 118.14 50.432C118.006 50.5846 117.935 50.781 117.941 50.9824C118.107 52.5258 118.703 53.9946 119.663 55.2276C119.8 55.3772 119.989 55.4712 120.193 55.4909C120.397 55.5107 120.601 55.4548 120.765 55.3343C120.849 55.2794 120.921 55.2084 120.977 55.1255C121.032 55.0426 121.07 54.9496 121.088 54.852C121.098 54.7876 121.094 54.7219 121.078 54.6587C121.062 54.5955 121.034 54.5361 120.994 54.4838C120.124 53.3703 119.584 52.0427 119.434 50.6473C119.426 50.5804 119.405 50.5157 119.371 50.4569C119.338 50.3981 119.293 50.3464 119.239 50.3049C119.11 50.2089 118.951 50.1583 118.789 50.1613V50.1576Z" fill="#231F20"/>
<path d="M77.4715 80.8349C77.4218 80.8379 77.3729 80.8213 77.3357 80.7888C77.2984 80.7564 77.2758 80.7107 77.2728 80.6619C77.2698 80.6131 77.2867 80.5651 77.3198 80.5285C77.3528 80.4919 77.3993 80.4697 77.449 80.4667C77.6178 80.4483 94.3428 78.4785 107.659 67.8858C107.697 67.8553 107.747 67.8409 107.796 67.8457C107.845 67.8505 107.89 67.8742 107.922 67.9116C107.952 67.9502 107.966 67.9988 107.961 68.0474C107.956 68.096 107.933 68.1409 107.895 68.173C94.4928 78.8504 77.6628 80.8128 77.494 80.8312L77.4715 80.8349Z" fill="#D1D3D4"/>
<path d="M85.2453 22.1718C85.5783 22.0334 85.846 21.7771 85.9953 21.4538C86.6143 20.518 86.9498 19.4289 86.9628 18.3132C86.9298 16.6789 86.2495 15.1215 85.0663 13.9716C83.8831 12.8216 82.2901 12.1694 80.6253 12.1534L81.9528 13.2138C80.8152 13.1699 79.684 13.4011 78.6586 13.8871C77.6333 14.3731 76.7454 15.099 76.0728 16.001C76.5223 15.8721 77.0026 15.8942 77.4378 16.0636C76.7594 16.237 76.0919 16.4496 75.4391 16.7005C75.3355 16.7282 75.2436 16.7876 75.1766 16.8699C75.122 16.9854 75.114 17.117 75.1541 17.2381C75.6341 19.4288 77.3066 21.4501 79.5378 21.9141C79.9128 21.9914 80.2878 22.0245 80.6891 22.0724C81.5403 22.1792 82.3803 22.3559 83.2391 22.4001C83.7781 22.4377 84.3199 22.3993 84.8478 22.2859C84.9826 22.256 85.1154 22.2179 85.2453 22.1718Z" fill="white"/>
<path d="M83.6254 22.5878H83.2054C82.6447 22.5487 82.0864 22.4811 81.5329 22.3853C81.2366 22.3411 80.9404 22.297 80.6441 22.2601L80.3666 22.227C80.0741 22.1902 79.7741 22.157 79.4779 22.0944C77.3066 21.6453 75.4954 19.716 74.9779 17.308C74.9496 17.2254 74.9391 17.138 74.9468 17.0512C74.9545 16.9644 74.9804 16.8801 75.0229 16.8036C75.1079 16.6919 75.2277 16.6104 75.3641 16.5717C75.8066 16.3986 76.2566 16.2477 76.7104 16.1114C76.5075 16.1058 76.3049 16.1319 76.1104 16.1887C76.0764 16.1985 76.0401 16.1977 76.0066 16.1865C75.973 16.1753 75.9438 16.1542 75.9229 16.1262C75.9026 16.0968 75.8917 16.0622 75.8917 16.0267C75.8917 15.9913 75.9026 15.9566 75.9229 15.9273C76.5648 15.0712 77.396 14.369 78.354 13.8735C79.312 13.378 80.3719 13.1021 81.4541 13.0665L80.5054 12.3081C80.4784 12.2855 80.459 12.2556 80.4497 12.2221C80.4403 12.1886 80.4414 12.1531 80.4529 12.1203C80.4658 12.0876 80.4884 12.0596 80.5179 12.0399C80.5474 12.0202 80.5822 12.0097 80.6179 12.0098C82.3244 12.0265 83.9577 12.693 85.1735 13.8688C86.3893 15.0447 87.0927 16.6381 87.1354 18.3132C87.1269 19.4655 86.7821 20.5912 86.1416 21.5569C85.9735 21.912 85.6767 22.1929 85.3091 22.3448C85.1707 22.3999 85.0277 22.4431 84.8816 22.4737C84.4689 22.56 84.0472 22.5983 83.6254 22.5878ZM76.6579 15.7359C76.9443 15.7368 77.2279 15.7905 77.4941 15.8942C77.5276 15.9083 77.5559 15.9321 77.5753 15.9623C77.5947 15.9925 77.6043 16.0278 77.6029 16.0636C77.5997 16.0984 77.5858 16.1315 77.563 16.1585C77.5402 16.1854 77.5097 16.205 77.4754 16.2145C76.8014 16.385 76.1388 16.5965 75.4916 16.8478C75.4488 16.8491 75.4071 16.8621 75.3713 16.8852C75.3354 16.9083 75.3068 16.9408 75.2886 16.9789C75.2703 17.017 75.2632 17.0593 75.2679 17.1011C75.2726 17.143 75.2891 17.1827 75.3154 17.216C75.8179 19.5135 77.5241 21.3397 79.5641 21.7631C79.8454 21.822 80.1379 21.8551 80.4191 21.8883L80.7041 21.9214C81.0004 21.9582 81.3004 22.0061 81.6004 22.0503C82.1427 22.1444 82.6897 22.2107 83.2391 22.2491C83.762 22.2877 84.2878 22.2493 84.7991 22.135C84.9271 22.1071 85.0525 22.0689 85.1741 22.0208C85.4728 21.8985 85.712 21.6677 85.8416 21.3765C86.448 20.4645 86.7782 19.4022 86.7941 18.3132C86.7619 16.8101 86.1672 15.3712 85.1235 14.2711C84.0798 13.171 82.6602 12.4866 81.1354 12.3486L82.0541 13.0849C82.0818 13.1077 82.1017 13.1383 82.1111 13.1725C82.1205 13.2068 82.1189 13.243 82.1066 13.2764C82.0955 13.3107 82.0726 13.3401 82.0418 13.3596C82.011 13.3791 81.9743 13.3874 81.9379 13.3832C80.9036 13.3479 79.8746 13.5432 78.9283 13.9546C77.9819 14.3659 77.1429 14.9825 76.4741 15.758L76.6579 15.7359Z" fill="#231F20"/>
<path d="M80.6738 25.4781C80.6738 25.4781 80.7413 29.3294 82.5863 29.4509C84.4313 29.5724 84.4613 26.0451 84.4613 26.0451" fill="#231F20"/>
<path d="M82.677 29.6165H82.5758C80.5995 29.4877 80.5095 25.6475 80.5058 25.4855C80.5022 25.4619 80.5038 25.4378 80.5105 25.4149C80.5172 25.392 80.5289 25.3708 80.5448 25.3528C80.5606 25.3347 80.5802 25.3202 80.6023 25.3102C80.6244 25.3003 80.6484 25.2952 80.6727 25.2952C80.6969 25.2952 80.7209 25.3003 80.743 25.3102C80.7651 25.3202 80.7847 25.3347 80.8005 25.3528C80.8164 25.3708 80.8281 25.392 80.8348 25.4149C80.8415 25.4378 80.8431 25.4619 80.8395 25.4855C80.8395 25.5223 80.9258 29.1857 82.5983 29.2962C82.7436 29.3092 82.89 29.291 83.0273 29.2426C83.1646 29.1943 83.2895 29.1171 83.3933 29.0164C84.2708 28.2211 84.312 26.0709 84.312 26.0488C84.3148 26.0071 84.3331 25.9678 84.3636 25.9386C84.3941 25.9093 84.4345 25.8922 84.477 25.8905C84.5208 25.8905 84.5628 25.9076 84.5937 25.9379C84.6246 25.9683 84.642 26.0095 84.642 26.0525C84.642 26.1482 84.6008 28.3647 83.6183 29.2557C83.3635 29.4904 83.0264 29.6197 82.677 29.6165Z" fill="#231F20"/>
<path d="M84.3039 23.6151L84.4764 26.0451C84.4764 26.0451 84.3152 27.4148 82.7814 27.0944C82.3299 26.9957 81.9064 26.7994 81.5418 26.5198C81.1773 26.2402 80.8808 25.8844 80.6739 25.4781C80.6739 25.4781 80.2989 19.6608 80.1602 18.1144C81.2618 17.9853 82.3235 17.6303 83.2764 17.0724C83.4179 16.9659 83.573 16.878 83.7377 16.811C84.0452 16.7668 84.0077 16.9362 84.1427 17.1792C84.3891 17.6442 84.7844 18.0168 85.2677 18.2396C85.3295 18.2597 85.3841 18.2967 85.4252 18.3463C85.4484 18.3869 85.4613 18.4324 85.4627 18.4789C85.6202 19.867 85.9089 21.2476 85.7064 22.6431C85.5414 23.836 84.3039 23.6151 84.3039 23.6151Z" fill="white"/>
<path d="M83.22 27.3117C83.0611 27.312 82.9026 27.2947 82.7475 27.2601C82.2683 27.1582 81.8187 26.9513 81.4323 26.6548C81.046 26.3584 80.7328 25.98 80.5163 25.5481C80.5129 25.5286 80.5129 25.5086 80.5163 25.4892C80.5163 25.4302 80.1413 19.6571 80.0063 18.1254C80.0031 18.08 80.0179 18.0352 80.0475 18.0002C80.0618 17.9835 80.0796 17.9699 80.0996 17.9604C80.1197 17.9509 80.1415 17.9456 80.1638 17.945C81.2406 17.8172 82.2781 17.4685 83.2088 16.9215L83.3363 16.8405C83.4453 16.7485 83.5732 16.6807 83.7113 16.6416C83.7665 16.6275 83.8241 16.6246 83.8805 16.633C83.9369 16.6414 83.9909 16.6611 84.0394 16.6907C84.0878 16.7203 84.1296 16.7593 84.1621 16.8053C84.1947 16.8513 84.2174 16.9034 84.2288 16.9583C84.2469 17.0116 84.2695 17.0633 84.2963 17.1129C84.5219 17.546 84.889 17.8921 85.3388 18.096C85.4323 18.1292 85.5134 18.1896 85.5713 18.269C85.6072 18.3309 85.6278 18.4003 85.6313 18.4715C85.665 18.7698 85.7063 19.068 85.7438 19.3625C85.9435 20.4558 85.9877 21.571 85.875 22.6762C85.8593 22.8448 85.8083 23.0084 85.725 23.1567C85.6418 23.305 85.5281 23.4347 85.3913 23.5378C85.1234 23.7104 84.8078 23.7978 84.4875 23.7881L84.645 26.0193C84.621 26.2223 84.5563 26.4185 84.4546 26.5967C84.3529 26.7749 84.2162 26.9316 84.0525 27.0576C83.8099 27.2277 83.5181 27.3167 83.22 27.3117ZM80.8425 25.4376C81.0416 25.8127 81.3215 26.1408 81.6628 26.3989C82.0041 26.6571 82.3986 26.8391 82.8188 26.9324C82.9782 26.9891 83.1486 27.0096 83.3172 26.9925C83.4858 26.9754 83.6483 26.921 83.7926 26.8336C83.9368 26.7461 84.0591 26.6278 84.1502 26.4874C84.2413 26.3471 84.2989 26.1883 84.3188 26.023L84.1463 23.6298C84.1441 23.6047 84.1478 23.5794 84.1568 23.5559C84.1659 23.5323 84.1802 23.511 84.1988 23.4936C84.2182 23.4759 84.2414 23.4627 84.2668 23.4551C84.2921 23.4474 84.3188 23.4455 84.345 23.4494C84.6419 23.4926 84.9448 23.4313 85.2 23.2764C85.2991 23.1989 85.3811 23.1026 85.4411 22.9931C85.501 22.8836 85.5377 22.7632 85.5488 22.6394C85.6515 21.5646 85.6074 20.4811 85.4175 19.4178C85.3763 19.1195 85.3388 18.8213 85.305 18.5194C85.305 18.5194 85.305 18.4678 85.305 18.4568L85.2263 18.4163C84.6989 18.1832 84.2669 17.7824 84 17.2786C83.9679 17.2176 83.9391 17.1549 83.9138 17.0908C83.9008 17.0527 83.8845 17.0157 83.865 16.9804C83.8339 16.9771 83.8024 16.9771 83.7713 16.9804C83.6821 17.0161 83.5987 17.0645 83.5238 17.124C83.4638 17.1608 83.4113 17.2013 83.3663 17.2234C82.4452 17.7604 81.4261 18.1156 80.3663 18.269C80.4788 19.9406 80.8125 24.9811 80.8425 25.4376Z" fill="#231F20"/>
<path d="M84.3748 24.8117C83.7664 24.859 83.1626 24.6759 82.6873 24.2999C82.4926 24.1438 82.3348 23.9481 82.2248 23.7262C82.1147 23.5044 82.055 23.2617 82.0498 23.015C82.7382 23.3935 83.511 23.5997 84.2998 23.6151L84.3748 24.8117Z" fill="#231F20"/>
<path d="M84.1879 24.9811C83.5962 24.9926 83.0204 24.7924 82.5679 24.4178C82.3552 24.2455 82.1832 24.0297 82.0641 23.7856C81.9449 23.5414 81.8814 23.2746 81.8779 23.0039C81.881 22.9764 81.8908 22.9499 81.9065 22.9269C81.9221 22.9038 81.9432 22.8848 81.9679 22.8714C81.9926 22.8578 82.0203 22.8507 82.0486 22.8507C82.0768 22.8507 82.1045 22.8578 82.1292 22.8714C82.7909 23.2418 83.5353 23.4466 84.2967 23.4678C84.3399 23.4677 84.3817 23.4835 84.4136 23.5121C84.4456 23.5408 84.4654 23.5801 84.4692 23.6225L84.5329 24.8154C84.5361 24.8568 84.5225 24.8978 84.4951 24.9295C84.4678 24.9612 84.4288 24.981 84.3867 24.9848C84.3204 24.9891 84.254 24.9879 84.1879 24.9811ZM82.2379 23.2948C82.3254 23.6377 82.5178 23.9461 82.7892 24.1784C83.1844 24.4978 83.6837 24.6664 84.1954 24.6534L84.1467 23.7808C83.4831 23.7497 82.8333 23.5842 82.2379 23.2948Z" fill="#231F20"/>
<path d="M83.925 19.3036C83.925 19.3036 84.795 20.4082 84.6188 20.6365C84.4425 20.8647 83.9062 20.7506 83.9062 20.7506" fill="white"/>
<path d="M84.1798 20.9384C84.0778 20.9393 83.976 20.9294 83.8761 20.9089C83.8547 20.9051 83.8342 20.8971 83.816 20.8855C83.7977 20.8738 83.7819 20.8588 83.7695 20.8412C83.7572 20.8236 83.7485 20.8038 83.7439 20.7828C83.7393 20.7619 83.739 20.7403 83.743 20.7193C83.7469 20.6983 83.755 20.6782 83.7669 20.6603C83.7787 20.6423 83.794 20.6268 83.812 20.6147C83.8299 20.6025 83.8501 20.594 83.8714 20.5895C83.8927 20.585 83.9147 20.5847 83.9361 20.5886C84.1198 20.6254 84.4161 20.6254 84.4911 20.5334C84.3171 20.1292 84.0819 19.7531 83.7936 19.4178C83.7802 19.4009 83.7703 19.3816 83.7646 19.3609C83.7589 19.3403 83.7573 19.3187 83.7601 19.2975C83.7629 19.2763 83.77 19.2558 83.7809 19.2373C83.7917 19.2187 83.8063 19.2025 83.8236 19.1895C83.841 19.1765 83.8609 19.1671 83.8821 19.1618C83.9032 19.1564 83.9253 19.1552 83.9469 19.1583C83.9685 19.1614 83.9893 19.1687 84.0081 19.1797C84.0268 19.1908 84.0431 19.2053 84.0561 19.2226C84.6861 20.029 84.9186 20.5444 84.7498 20.7543C84.6729 20.8218 84.5825 20.8731 84.4844 20.9047C84.3863 20.9364 84.2826 20.9479 84.1798 20.9384Z" fill="#231F20"/>
<path d="M83.8168 22.2013H83.7493C82.9206 22.1571 82.2981 21.3692 82.2718 21.336C82.2585 21.3191 82.2488 21.2998 82.2431 21.2791C82.2374 21.2585 82.2359 21.237 82.2387 21.2158C82.2415 21.1946 82.2485 21.1741 82.2593 21.1556C82.2701 21.1371 82.2846 21.1208 82.3018 21.1077C82.3191 21.0947 82.3387 21.0851 82.3598 21.0795C82.3808 21.0739 82.4027 21.0725 82.4243 21.0752C82.4459 21.0779 82.4667 21.0848 82.4856 21.0954C82.5045 21.1061 82.521 21.1203 82.5343 21.1372C82.5343 21.1372 83.0931 21.8404 83.7643 21.8736C83.9414 21.8757 84.1166 21.838 84.2765 21.7634C84.4364 21.6887 84.5768 21.579 84.6868 21.4428C84.7182 21.4135 84.7598 21.3972 84.8031 21.3972C84.8463 21.3972 84.888 21.4135 84.9193 21.4428C84.9351 21.4579 84.9476 21.4759 84.9562 21.4958C84.9647 21.5158 84.9691 21.5372 84.9691 21.5588C84.9691 21.5804 84.9647 21.6018 84.9562 21.6217C84.9476 21.6416 84.9351 21.6597 84.9193 21.6747C84.7837 21.8338 84.6154 21.9629 84.4254 22.0536C84.2354 22.1444 84.028 22.1947 83.8168 22.2013Z" fill="#231F20"/>
<path d="M85.0469 56.4389L82.3057 67.3888C82.3057 67.3888 95.9594 62.9006 96.4507 61.4352C96.9419 59.9698 89.3894 61.6561 89.3894 61.6561L89.9257 58.5265L85.0469 56.4389Z" fill="white"/>
<path d="M82.3056 67.5728C82.2773 67.5725 82.2495 67.5659 82.2241 67.5536C82.1988 67.5412 82.1767 67.5234 82.1594 67.5014C82.142 67.4795 82.13 67.4539 82.1242 67.4268C82.1183 67.3996 82.1188 67.3715 82.1256 67.3445L84.8631 56.3947C84.8695 56.3684 84.8818 56.3438 84.899 56.3227C84.9161 56.3016 84.9379 56.2844 84.9626 56.2725C84.9873 56.2605 85.0143 56.2541 85.0419 56.2535C85.0694 56.253 85.0967 56.2585 85.1219 56.2695L89.9969 58.3571C90.0348 58.3741 90.0662 58.4026 90.0864 58.4383C90.1067 58.4741 90.1147 58.5153 90.1094 58.5559L89.6256 61.4167C91.1256 61.0927 95.7831 60.1649 96.5369 60.9823C96.6007 61.0491 96.6436 61.1326 96.6602 61.2227C96.6768 61.3129 96.6666 61.4058 96.6306 61.4904C96.1244 63.0036 83.7756 67.1015 82.3806 67.5618C82.3569 67.5715 82.3311 67.5753 82.3056 67.5728ZM85.1744 56.6966L82.5719 67.1052C87.8219 65.3637 95.9406 62.3593 96.2744 61.3762C96.3006 61.2879 96.2744 61.2547 96.2556 61.229C95.7419 60.673 91.7969 61.3063 89.4306 61.8365C89.4006 61.8426 89.3696 61.8415 89.3402 61.8331C89.3108 61.8248 89.2839 61.8095 89.2619 61.7886C89.2392 61.7677 89.2223 61.7416 89.2124 61.7127C89.2026 61.6838 89.2003 61.653 89.2056 61.6229L89.7194 58.6369L85.1744 56.6966Z" fill="#231F20"/>
<path d="M73.6397 44.193C73.6397 44.193 71.746 51.9249 75.4847 52.9742C79.2235 54.0236 85.4785 49.8262 85.4785 49.8262L83.4535 57.0095C83.4535 57.0095 82.096 60.2533 84.0648 60.1097C85.8385 57.8527 88.261 57.2562 89.926 58.5265C92.5323 55.6878 97.1073 46.7703 94.1523 43.7107C91.1973 40.651 73.6397 44.193 73.6397 44.193Z" fill="#231F20"/>
<path d="M83.9406 60.2864C83.7744 60.2976 83.6079 60.2681 83.4561 60.2006C83.3043 60.1331 83.1718 60.0298 83.0706 59.8998C82.4369 59.0456 83.2656 57.0464 83.2994 56.9543L85.2006 50.2092C83.7869 51.0965 78.7244 54.0604 75.4506 53.1547C71.6031 52.0759 73.4106 44.4986 73.4894 44.1783C73.4966 44.1482 73.5124 44.1208 73.535 44.0992C73.5576 44.0777 73.586 44.063 73.6169 44.0568C74.3406 43.9095 91.3019 40.5296 94.2831 43.6223C97.2644 46.7151 92.7831 55.7025 90.0606 58.6554C90.033 58.6865 89.9944 58.7061 89.9526 58.7102C89.9108 58.7143 89.8689 58.7026 89.8356 58.6775C89.5201 58.4357 89.1584 58.2584 88.772 58.1559C88.3856 58.0535 87.9822 58.028 87.5856 58.081C86.3856 58.2319 85.1931 58.9941 84.2106 60.2312C84.197 60.2493 84.1796 60.2643 84.1595 60.2751C84.1394 60.2859 84.1172 60.2923 84.0944 60.2938L83.9406 60.2864ZM85.4781 49.6753C85.5134 49.6756 85.5477 49.6872 85.5756 49.7084C85.6033 49.7272 85.6243 49.7539 85.6357 49.7849C85.6472 49.816 85.6484 49.8497 85.6394 49.8815L83.6256 57.0538C83.4006 57.6023 82.9169 59.1082 83.3556 59.701C83.4311 59.7929 83.5294 59.8642 83.641 59.908C83.7527 59.9519 83.8739 59.9668 83.9931 59.9514C85.0131 58.6811 86.2656 57.8969 87.5331 57.7423C88.3727 57.6248 89.2263 57.8277 89.9181 58.3093C92.5056 55.3896 96.8369 46.7188 94.0431 43.8248C91.2494 40.9309 75.2444 44.0494 73.7931 44.3366C73.5906 45.2387 72.2256 51.8918 75.5444 52.8049C79.1594 53.8174 85.3394 49.7195 85.3994 49.679C85.4241 49.6681 85.4511 49.663 85.4781 49.6643V49.6753Z" fill="#231F20"/>
<path d="M82.3057 67.3888C82.3057 67.3888 83.8057 68.832 88.0807 67.3888C92.3557 65.9455 97.7557 62.0758 96.4507 61.4352C95.1457 60.7945 83.7532 65.3674 82.3057 67.3888Z" fill="#231F20"/>
<path d="M84.6796 68.1951C82.9433 68.1951 82.2346 67.5434 82.1933 67.5029C82.1647 67.4763 82.1466 67.4405 82.1425 67.402C82.1384 67.3635 82.1484 67.3248 82.1708 67.293C83.5958 65.3085 94.9996 60.5368 96.5258 61.2879C96.6187 61.3293 96.6963 61.3978 96.748 61.4842C96.7997 61.5705 96.8229 61.6704 96.8146 61.7702C96.7246 63.0441 91.8608 66.2805 88.1371 67.5434C87.0289 67.9456 85.8607 68.1658 84.6796 68.1951ZM82.5421 67.3593C82.9658 67.6354 84.5671 68.4049 88.0283 67.2341C91.7783 65.9638 96.4133 62.7864 96.4846 61.7481C96.4884 61.712 96.4798 61.6757 96.46 61.645C96.4403 61.6143 96.4107 61.5909 96.3758 61.5787C95.2508 61.0228 84.3233 65.3085 82.5421 67.3593Z" fill="#231F20"/>
<path d="M89.9999 60.9602C89.0134 61.3201 88.0567 61.7546 87.1387 62.2599L87.2924 60.5663C87.2924 60.5663 89.5087 59.5096 89.9999 59.5722V60.9602Z" fill="white"/>
<path d="M87.1469 62.444C87.1138 62.4442 87.0813 62.4353 87.0531 62.4182C87.0223 62.4006 86.9973 62.3744 86.9813 62.3431C86.9653 62.3117 86.959 62.2764 86.9631 62.2415L87.1169 60.5515C87.119 60.5204 87.1295 60.4904 87.1473 60.4645C87.1651 60.4386 87.1895 60.4178 87.2181 60.4043C87.5931 60.2239 89.5169 59.3292 90.0344 59.3881C90.0798 59.3935 90.1214 59.4154 90.1513 59.4495C90.1811 59.4835 90.1969 59.5273 90.1956 59.5722V60.9602C90.1954 60.9975 90.1838 61.0339 90.1625 61.0647C90.1411 61.0955 90.1109 61.1194 90.0756 61.1333C89.1024 61.4888 88.1584 61.9171 87.2519 62.4146C87.2203 62.4336 87.184 62.4438 87.1469 62.444ZM87.4806 60.6878L87.3681 61.9138C88.1642 61.5089 88.983 61.1488 89.8206 60.835V59.7673C89.015 60.007 88.232 60.315 87.4806 60.6878Z" fill="#231F20"/>
<path d="M78.2366 25.8021C78.2366 25.8021 64.6954 31.1997 63.5479 32.7167C62.4004 34.2336 60.4316 43.4309 60.4316 43.4309L64.5229 42.8528C64.5229 42.8528 68.2241 37.1459 69.3716 35.9383C70.5191 34.7306 77.0029 33.0407 77.0029 33.0407L78.2366 25.8021Z" fill="#0064FF"/>
<path d="M66.7504 40.2498L63.9979 44.8742C63.9979 44.8742 66.3379 46.7151 65.7679 47.017C65.1979 47.3189 64.6429 47.5583 64.6429 47.5583C64.6429 47.5583 64.5829 49.0715 63.8929 49.2519C63.2029 49.4323 59.3517 49.0973 59.5242 47.8013C60.1242 43.3315 60.8704 38.2468 60.8217 38.8286L66.7504 40.2498Z" fill="white"/>
<path d="M63.3523 49.4802C62.3211 49.4802 60.4686 49.2261 59.7148 48.5781C59.5897 48.4863 59.4912 48.3639 59.4294 48.223C59.3675 48.0822 59.3444 47.9279 59.3623 47.7755C59.6136 45.8793 59.9248 43.6555 60.2098 41.6783C60.4611 39.9515 60.5848 39.1857 60.6561 38.8506C60.6542 38.8372 60.6542 38.8236 60.6561 38.8101C60.654 38.8186 60.654 38.8274 60.6561 38.8359C60.7198 38.5856 60.7686 38.5892 60.8586 38.6003C60.8852 38.6022 60.911 38.6098 60.9344 38.6225C60.9577 38.6352 60.9779 38.6528 60.9936 38.6739L66.7873 40.0693C66.8153 40.0767 66.8413 40.0901 66.8634 40.1086C66.8854 40.1271 66.903 40.1501 66.9148 40.1761C66.9277 40.2019 66.9345 40.2302 66.9345 40.259C66.9345 40.2877 66.9277 40.316 66.9148 40.3418L64.2373 44.8226C64.7998 45.2755 66.0861 46.369 66.0373 46.8955C66.0322 46.9533 66.0123 47.0088 65.9795 47.0571C65.9467 47.1053 65.9022 47.1447 65.8498 47.1717C65.4298 47.3926 65.0211 47.5877 64.8336 47.6724C64.8036 48.0664 64.6573 49.2372 63.9673 49.4213C63.7654 49.4643 63.559 49.4841 63.3523 49.4802ZM60.9823 39.0531C60.8248 40.0215 60.2323 44.0016 59.7336 47.8233C59.7261 47.9158 59.7433 48.0085 59.7834 48.0924C59.8235 48.1764 59.8852 48.2486 59.9623 48.302C60.7948 49.0163 63.3373 49.2114 63.8661 49.0715C64.3123 48.9537 64.4511 47.908 64.4661 47.5509C64.4677 47.5173 64.4787 47.4847 64.4979 47.4568C64.5171 47.4289 64.5437 47.4067 64.5748 47.3926C64.5748 47.3926 65.1148 47.1496 65.6736 46.855C65.6961 46.6599 64.8598 45.791 63.8773 45.0141C63.8417 44.987 63.8175 44.9481 63.8092 44.9047C63.8009 44.8612 63.8091 44.8163 63.8323 44.7784L66.4573 40.3602L60.9823 39.0531Z" fill="#231F20"/>
<path d="M103.241 21.2366C103.241 21.0526 101.393 14.8781 101.393 14.8781L105.394 13.5011C105.394 13.5011 105.334 12.0504 106.193 11.5055C107.051 10.9606 108.225 11.5055 108.225 11.5055C108.225 11.5055 111.731 8.60786 112.163 9.21168C112.594 9.81551 111.3 11.1447 109.331 12.5254C109.331 12.5254 110.378 15.4267 109.208 16.3324C108.523 16.8707 107.692 17.1998 106.819 17.2786L103.241 21.2366Z" fill="white"/>
<path d="M103.241 21.4207C103.219 21.4242 103.196 21.4242 103.174 21.4207C103.14 21.4084 103.11 21.3864 103.089 21.3576C103.067 21.3287 103.055 21.2943 103.054 21.2587C103.013 21.001 101.929 17.3449 101.213 14.9406C101.2 14.8947 101.206 14.846 101.228 14.8038C101.25 14.7616 101.287 14.729 101.333 14.7123L105.206 13.3795C105.206 12.9856 105.308 11.8589 106.091 11.3619C106.875 10.8648 107.861 11.1741 108.191 11.3029C108.863 10.7543 111.24 8.85082 112.039 8.9576C112.094 8.96337 112.147 8.98046 112.195 9.00774C112.243 9.03501 112.284 9.07187 112.316 9.11592C112.939 9.98852 110.906 11.649 109.553 12.6137C109.748 13.2138 110.449 15.6255 109.324 16.4944C108.629 17.0384 107.792 17.3791 106.909 17.4774L103.38 21.3692C103.362 21.3866 103.34 21.4001 103.316 21.409C103.292 21.4178 103.267 21.4218 103.241 21.4207ZM101.625 14.9995C102.199 16.9288 103.058 19.8191 103.335 20.8611L106.68 17.1792C106.714 17.1427 106.761 17.1204 106.811 17.1166C107.645 17.0378 108.437 16.7231 109.091 16.2109C109.965 15.5334 109.433 13.3832 109.155 12.61C109.142 12.5726 109.141 12.5319 109.153 12.4941C109.166 12.4563 109.19 12.4233 109.223 12.4001C111.51 10.7875 112.268 9.69397 112.009 9.32946C111.743 9.17114 110.036 10.2647 108.345 11.6638C108.318 11.6859 108.284 11.6998 108.249 11.7037C108.214 11.7076 108.178 11.7014 108.146 11.6859C108.146 11.6859 107.055 11.1962 106.294 11.6859C105.533 12.1755 105.581 13.5047 105.581 13.5268C105.583 13.5663 105.571 13.6052 105.548 13.6377C105.525 13.6702 105.492 13.6946 105.454 13.7072L101.625 14.9995Z" fill="#231F20"/>
<path d="M87.882 39.4692H87.8482C87.8035 39.4603 87.7642 39.4344 87.7389 39.3971C87.7136 39.3599 87.7044 39.3143 87.7132 39.2704C88.812 33.9611 89.8545 24.414 89.802 23.9501C89.7964 23.9293 89.795 23.9076 89.798 23.8863C89.8011 23.865 89.8084 23.8445 89.8195 23.826C89.8307 23.8075 89.8455 23.7914 89.8631 23.7785C89.8807 23.7657 89.9007 23.7565 89.922 23.7513C89.9672 23.7401 90.0151 23.7471 90.0552 23.7705C90.0953 23.794 90.1242 23.8321 90.1357 23.8765C90.2295 24.2189 89.1495 34.0237 88.0507 39.3403C88.0409 39.377 88.019 39.4095 87.9885 39.4327C87.958 39.456 87.9206 39.4688 87.882 39.4692Z" fill="#231F20"/>
<path d="M70.5905 35.0657C70.5506 35.0646 70.5123 35.0499 70.4821 35.0242C70.452 34.9984 70.4319 34.9632 70.4253 34.9245C70.4186 34.8859 70.4259 34.8461 70.4457 34.8121C70.4656 34.7781 70.4969 34.7519 70.5343 34.738L78.1805 32.2712C78.2226 32.261 78.2671 32.2667 78.3051 32.2873C78.343 32.3078 78.3717 32.3416 78.3854 32.382C78.3992 32.4224 78.3969 32.4664 78.3791 32.5052C78.3612 32.544 78.3292 32.5748 78.2892 32.5915L70.643 35.0583C70.6262 35.0642 70.6083 35.0667 70.5905 35.0657Z" fill="#231F20"/>
<path d="M108.296 15.3678C108.264 15.3713 108.231 15.3713 108.199 15.3678C107.909 15.306 107.64 15.1719 107.418 14.9784C107.196 14.785 107.028 14.5387 106.931 14.2632C106.905 14.5056 106.807 14.7352 106.651 14.9246C106.495 15.114 106.286 15.2551 106.05 15.3309C106.029 15.3379 106.006 15.3405 105.983 15.3385C105.961 15.3366 105.939 15.3301 105.919 15.3195C105.899 15.3089 105.882 15.2944 105.868 15.2769C105.854 15.2594 105.844 15.2393 105.838 15.2178C105.833 15.1963 105.831 15.1739 105.835 15.152C105.839 15.1301 105.847 15.1091 105.859 15.0903C105.871 15.0716 105.887 15.0555 105.905 15.0431C105.924 15.0306 105.945 15.0221 105.967 15.018C106.804 14.8044 106.658 13.3722 106.654 13.3575C106.649 13.3146 106.662 13.2718 106.69 13.2382C106.717 13.2045 106.757 13.1826 106.8 13.177C106.843 13.1737 106.886 13.1861 106.919 13.212C106.953 13.2379 106.976 13.2753 106.984 13.317C106.984 13.317 107.216 14.8633 108.248 15.0143C108.282 15.0232 108.318 15.0225 108.352 15.012C108.386 15.0016 108.416 14.982 108.439 14.9554C108.814 14.5504 108.401 12.6469 108.064 11.546C108.051 11.505 108.055 11.4606 108.075 11.4226C108.096 11.3847 108.131 11.3562 108.173 11.3435C108.193 11.3373 108.215 11.3352 108.237 11.3374C108.259 11.3397 108.28 11.3461 108.299 11.3564C108.318 11.3666 108.335 11.3806 108.349 11.3973C108.363 11.4141 108.373 11.4333 108.379 11.4539C108.473 11.7632 109.279 14.4951 108.683 15.1689C108.638 15.2286 108.58 15.2775 108.513 15.312C108.446 15.3464 108.372 15.3655 108.296 15.3678Z" fill="#231F20"/>
<path d="M23.7304 65.5846C23.1679 64.4801 17.6779 55.2055 16.8341 49.2629C16.8341 49.2629 16.7366 60.8424 21.6416 66.8033C26.5466 72.7643 23.7304 65.5846 23.7304 65.5846Z" fill="#D1D3D4"/>
<path d="M81.3158 18.836L79.4258 19.635V20.04L81.9795 19.3036L81.3158 18.836Z" fill="#231F20"/>
<path d="M79.4258 20.202C79.3892 20.2023 79.3536 20.1906 79.3245 20.1689C79.3043 20.1538 79.288 20.1343 79.277 20.1119C79.2659 20.0895 79.2603 20.0649 79.2608 20.04V19.635C79.2601 19.6032 79.2691 19.572 79.2864 19.5451C79.3037 19.5183 79.3287 19.4971 79.3583 19.4841L81.2333 18.6851C81.2595 18.6743 81.2881 18.6703 81.3163 18.6735C81.3446 18.6767 81.3715 18.687 81.3945 18.7035L82.0583 19.1748C82.0828 19.1928 82.1018 19.2171 82.113 19.2451C82.1243 19.273 82.1274 19.3035 82.122 19.3331C82.1174 19.3633 82.1039 19.3915 82.0833 19.4144C82.0626 19.4373 82.0357 19.4538 82.0057 19.462L79.452 20.1983L79.4258 20.202ZM79.5908 19.7418V19.8228L81.6083 19.2411L81.297 19.0201L79.5908 19.7418Z" fill="#231F20"/>
<path d="M80.6962 20.3787C80.4112 20.0326 79.9462 19.3994 79.425 19.6424C79.2829 19.708 79.1612 19.8096 79.0725 19.9369C78.8973 20.1981 78.8064 20.5051 78.8117 20.8177C78.8171 21.1304 78.9184 21.4343 79.1025 21.6895C79.3837 22.1608 80.2275 22.8456 80.715 22.2013" fill="white"/>
<path d="M80.2161 22.6247H80.1674C79.9147 22.5751 79.6757 22.4733 79.4662 22.326C79.2567 22.1788 79.0815 21.9894 78.9524 21.7705C78.7531 21.4841 78.6465 21.1453 78.6465 20.7985C78.6465 20.4516 78.7531 20.1128 78.9524 19.8265C79.0588 19.6767 79.2037 19.5573 79.3724 19.4804C79.9874 19.2116 80.4974 19.8228 80.7786 20.1873L80.8461 20.272C80.8747 20.3069 80.8883 20.3514 80.8841 20.3961C80.8799 20.4407 80.8582 20.482 80.8236 20.5113C80.8059 20.5254 80.7856 20.536 80.7637 20.5423C80.7419 20.5487 80.7189 20.5507 80.6963 20.5483C80.6736 20.5459 80.6517 20.5391 80.6317 20.5283C80.6117 20.5176 80.5941 20.503 80.5799 20.4855L80.5086 20.3971C80.1786 19.9885 79.8524 19.6387 79.5111 19.786C79.3966 19.8418 79.2985 19.9254 79.2261 20.029C79.0721 20.2643 78.9936 20.5397 79.001 20.8194C79.0083 21.0991 79.1011 21.3702 79.2674 21.5974C79.3664 21.7698 79.5009 21.9201 79.6623 22.0386C79.8237 22.1572 80.0085 22.2414 80.2049 22.2859C80.2789 22.2862 80.3519 22.2685 80.4173 22.2345C80.4827 22.2005 80.5385 22.1511 80.5799 22.0908C80.608 22.056 80.6488 22.0334 80.6937 22.0279C80.7386 22.0223 80.7839 22.0344 80.8199 22.0613C80.8379 22.0747 80.8529 22.0914 80.8642 22.1106C80.8755 22.1298 80.8827 22.151 80.8855 22.1729C80.8883 22.1949 80.8866 22.2172 80.8805 22.2385C80.8744 22.2598 80.864 22.2797 80.8499 22.297C80.7784 22.3971 80.6836 22.4791 80.5734 22.5361C80.4631 22.593 80.3407 22.6234 80.2161 22.6247Z" fill="#231F20"/>
<path d="M82.5511 19.5812C83.1813 19.5154 83.6504 19.0769 83.5989 18.6017C83.5475 18.1265 82.9949 17.7947 82.3647 17.8604C81.7345 17.9262 81.2654 18.3648 81.3168 18.84C81.3683 19.3151 81.9209 19.647 82.5511 19.5812Z" fill="white"/>
<path d="M82.3955 19.7565C82.1112 19.7809 81.8277 19.7027 81.5978 19.5367C81.368 19.3707 81.2076 19.1282 81.1467 18.8545C81.083 18.2875 81.623 17.7499 82.3467 17.6873C82.6733 17.6502 83.0033 17.7173 83.288 17.8788C83.4184 17.9501 83.5298 18.0506 83.6132 18.1721C83.6966 18.2937 83.7496 18.4329 83.768 18.5783C83.8317 19.1453 83.2917 19.6829 82.568 19.7455C82.5108 19.7528 82.4531 19.7565 82.3955 19.7565ZM82.523 18.015H82.3805C81.848 18.0702 81.4467 18.4274 81.488 18.8103C81.5292 19.1932 81.9942 19.4583 82.5342 19.4031C83.0742 19.3478 83.4717 18.9907 83.4305 18.6078C83.415 18.5137 83.378 18.4244 83.3221 18.3466C83.2662 18.2687 83.193 18.2044 83.108 18.1586C82.9299 18.0593 82.7276 18.0097 82.523 18.015Z" fill="#231F20"/>
<path d="M84.8987 19.4707C85.5289 19.4049 85.9981 18.9664 85.9466 18.4912C85.8951 18.016 85.3425 17.6841 84.7124 17.7499C84.0822 17.8157 83.613 18.2543 83.6645 18.7295C83.7159 19.2046 84.2685 19.5365 84.8987 19.4707Z" fill="white"/>
<path d="M84.7504 19.646C84.4661 19.6704 84.1826 19.5923 83.9527 19.4262C83.7229 19.2602 83.5625 19.0177 83.5016 18.744C83.4416 18.177 83.9816 17.6394 84.7016 17.5768C85.4216 17.5142 86.0666 17.9008 86.1266 18.4678C86.1866 19.0348 85.6504 19.5724 84.9266 19.6313L84.7504 19.646ZM84.8816 17.9045H84.7391C84.2029 17.9597 83.8016 18.3169 83.8429 18.6998C83.8841 19.0827 84.3566 19.3478 84.8891 19.2926C85.4216 19.2373 85.8266 18.8802 85.7854 18.4973C85.7319 18.3072 85.6102 18.1424 85.4427 18.0335C85.2752 17.9245 85.0733 17.8787 84.8741 17.9045H84.8816Z" fill="#231F20"/>
<path d="M37.7707 58.6885C38.7255 58.6885 39.4995 57.9286 39.4995 56.9912C39.4995 56.0537 38.7255 55.2938 37.7707 55.2938C36.816 55.2938 36.042 56.0537 36.042 56.9912C36.042 57.9286 36.816 58.6885 37.7707 58.6885Z" fill="white"/>
<path d="M37.7704 58.8726C37.3905 58.8734 37.019 58.7634 36.7027 58.5567C36.3865 58.35 36.1398 58.0559 35.9939 57.7115C35.848 57.3671 35.8095 56.9879 35.8831 56.622C35.9568 56.2561 36.1393 55.9199 36.4077 55.6559C36.6761 55.3919 37.0182 55.2119 37.3907 55.1389C37.7633 55.0659 38.1495 55.103 38.5006 55.2456C38.8516 55.3881 39.1517 55.6297 39.3628 55.9398C39.574 56.2499 39.6867 56.6145 39.6867 56.9875C39.6867 57.4869 39.4849 57.9658 39.1257 58.3192C38.7664 58.6726 38.279 58.8717 37.7704 58.8726ZM37.7704 55.4743C37.4645 55.4736 37.1653 55.562 36.9107 55.7284C36.656 55.8948 36.4574 56.1317 36.34 56.409C36.2226 56.6863 36.1917 56.9916 36.2512 57.2862C36.3107 57.5808 36.4579 57.8515 36.6742 58.0638C36.8905 58.2762 37.1661 58.4208 37.4662 58.4792C37.7662 58.5376 38.0772 58.5072 38.3597 58.392C38.6421 58.2767 38.8834 58.0817 39.0529 57.8317C39.2223 57.5817 39.3124 57.2879 39.3117 56.9875C39.3107 56.5865 39.148 56.2022 38.8592 55.9186C38.5703 55.635 38.1789 55.4753 37.7704 55.4743Z" fill="#D1D3D4"/>
<path d="M102.919 36.9545C103.397 36.9545 103.785 36.5737 103.785 36.104C103.785 35.6343 103.397 35.2535 102.919 35.2535C102.441 35.2535 102.053 35.6343 102.053 36.104C102.053 36.5737 102.441 36.9545 102.919 36.9545Z" fill="white"/>
<path d="M102.919 37.1386C102.71 37.1393 102.506 37.0792 102.332 36.966C102.159 36.8528 102.023 36.6914 101.943 36.5024C101.862 36.3135 101.841 36.1053 101.881 35.9044C101.921 35.7035 102.021 35.5188 102.169 35.3737C102.316 35.2286 102.504 35.1297 102.708 35.0895C102.913 35.0493 103.125 35.0696 103.317 35.1478C103.51 35.226 103.675 35.3586 103.791 35.5288C103.907 35.699 103.969 35.8992 103.969 36.104C103.969 36.3777 103.858 36.6403 103.662 36.8342C103.465 37.0282 103.198 37.1376 102.919 37.1386ZM102.919 35.4375C102.784 35.4368 102.653 35.4753 102.541 35.5481C102.429 35.6208 102.341 35.7247 102.289 35.8464C102.237 35.9681 102.223 36.1022 102.249 36.2317C102.275 36.3612 102.339 36.4803 102.434 36.5739C102.529 36.6674 102.65 36.7313 102.781 36.7573C102.913 36.7833 103.05 36.7703 103.174 36.72C103.298 36.6697 103.404 36.5843 103.479 36.4746C103.554 36.3649 103.594 36.2359 103.594 36.104C103.594 35.9279 103.523 35.7589 103.396 35.634C103.27 35.5092 103.098 35.4385 102.919 35.4375Z" fill="#D1D3D4"/>
<path d="M115.178 34.1305C116.133 34.1305 116.907 33.3706 116.907 32.4331C116.907 31.4957 116.133 30.7358 115.178 30.7358C114.223 30.7358 113.449 31.4957 113.449 32.4331C113.449 33.3706 114.223 34.1305 115.178 34.1305Z" fill="#D1D3D4"/>
<path d="M118.043 95.4814C123.422 95.4814 127.782 91.2004 127.782 85.9196C127.782 80.6388 123.422 76.3578 118.043 76.3578C112.665 76.3578 108.305 80.6388 108.305 85.9196C108.305 91.2004 112.665 95.4814 118.043 95.4814Z" fill="white"/>
<path d="M118.047 95.6654C116.197 95.6654 114.384 95.1579 112.813 94.2002C111.241 93.2425 109.973 91.8726 109.152 90.2452C108.331 88.6178 107.99 86.7975 108.166 84.9896C108.343 83.1818 109.03 81.4583 110.151 80.0137C111.272 78.569 112.782 77.4606 114.51 76.8134C116.239 76.1662 118.117 76.0061 119.933 76.3511C121.749 76.696 123.431 77.5323 124.788 78.7657C126.146 79.999 127.126 81.5803 127.617 83.3312C128.022 84.7779 128.082 86.297 127.791 87.77C127.501 89.2431 126.868 90.6304 125.941 91.824C125.015 93.0175 123.821 93.9851 122.452 94.6514C121.083 95.3177 119.575 95.6647 118.047 95.6654ZM118.047 76.5382C116.048 76.5376 114.099 77.1529 112.474 78.2972C110.85 79.4416 109.632 81.0574 108.992 82.9171C108.352 84.7769 108.323 86.7868 108.908 88.6639C109.492 90.541 110.662 92.1907 112.252 93.3807C113.842 94.5706 115.773 95.2409 117.771 95.2971C119.77 95.3533 121.736 94.7925 123.392 93.6939C125.049 92.5952 126.313 91.0139 127.007 89.1727C127.7 87.3316 127.788 85.3232 127.257 83.4306C126.7 81.4509 125.497 79.7051 123.833 78.4603C122.169 77.2155 120.135 76.5404 118.043 76.5382H118.047Z" fill="#D1D3D4"/>
<path d="M106.317 91.1515C104.577 91.1515 103.002 90.9048 102.762 90.0469C102.376 88.6368 106.017 86.7958 108.233 85.8165C108.279 85.7969 108.331 85.796 108.377 85.814C108.423 85.832 108.461 85.8673 108.481 85.9122C108.5 85.9571 108.501 86.0079 108.483 86.0535C108.465 86.0991 108.429 86.1357 108.383 86.1552C104.228 87.9704 102.942 89.3032 103.133 89.9475C103.324 90.5918 105.117 91.0963 109.628 90.5661C115.849 89.743 121.93 88.1034 127.707 85.6913C131.858 83.8835 133.144 82.547 132.957 81.899C132.769 81.2509 130.977 80.7539 126.462 81.2841C126.412 81.2899 126.362 81.2762 126.323 81.2458C126.283 81.2154 126.258 81.1709 126.252 81.1221C126.246 81.0733 126.26 81.0241 126.291 80.9854C126.322 80.9468 126.367 80.9218 126.417 80.9159C128.824 80.6324 132.919 80.3747 133.317 81.7995C133.714 83.2244 130.066 85.0617 127.853 86.0226C122.04 88.4591 115.918 90.1137 109.654 90.9416C108.547 91.0746 107.432 91.1446 106.317 91.1515Z" fill="#D1D3D4"/>
<path d="M98.25 83.4048C98.2003 83.4048 98.1526 83.3854 98.1174 83.3509C98.0823 83.3164 98.0625 83.2696 98.0625 83.2207V81.0521C98.0625 81.0033 98.0823 80.9565 98.1174 80.922C98.1526 80.8874 98.2003 80.868 98.25 80.868C98.2997 80.868 98.3474 80.8874 98.3826 80.922C98.4177 80.9565 98.4375 81.0033 98.4375 81.0521V83.2207C98.4375 83.2696 98.4177 83.3164 98.3826 83.3509C98.3474 83.3854 98.2997 83.4048 98.25 83.4048Z" fill="#D1D3D4"/>
<path d="M99.3757 82.3187H97.167C97.1173 82.3187 97.0696 82.2993 97.0344 82.2648C96.9992 82.2303 96.9795 82.1835 96.9795 82.1347C96.9805 82.0861 97.0005 82.0398 97.0355 82.0055C97.0704 81.9712 97.1176 81.9515 97.167 81.9506H99.3757C99.4255 81.9506 99.4731 81.97 99.5083 82.0045C99.5435 82.039 99.5632 82.0858 99.5632 82.1347C99.5632 82.1835 99.5435 82.2303 99.5083 82.2648C99.4731 82.2993 99.4255 82.3187 99.3757 82.3187Z" fill="#D1D3D4"/>
<path d="M123.811 39.4839C123.761 39.4839 123.713 39.4645 123.678 39.43C123.643 39.3955 123.623 39.3486 123.623 39.2998V37.1312C123.623 37.0824 123.643 37.0356 123.678 37.001C123.713 36.9665 123.761 36.9471 123.811 36.9471C123.86 36.9471 123.908 36.9665 123.943 37.001C123.978 37.0356 123.998 37.0824 123.998 37.1312V39.2998C123.998 39.3486 123.978 39.3955 123.943 39.43C123.908 39.4645 123.86 39.4839 123.811 39.4839Z" fill="#D1D3D4"/>
<path d="M124.917 38.4014H122.708C122.658 38.4014 122.611 38.382 122.575 38.3475C122.54 38.313 122.521 38.2662 122.521 38.2174C122.521 38.1685 122.54 38.1217 122.575 38.0872C122.611 38.0527 122.658 38.0333 122.708 38.0333H124.917C124.966 38.0333 125.014 38.0527 125.049 38.0872C125.085 38.1217 125.104 38.1685 125.104 38.2174C125.103 38.2659 125.083 38.3122 125.048 38.3465C125.013 38.3808 124.966 38.4005 124.917 38.4014Z" fill="#D1D3D4"/>
<path d="M30.6787 87.0204C30.629 87.0204 30.5813 87.001 30.5461 86.9665C30.511 86.932 30.4912 86.8852 30.4912 86.8363V84.6677C30.4912 84.6189 30.511 84.5721 30.5461 84.5375C30.5813 84.503 30.629 84.4836 30.6787 84.4836C30.7284 84.4836 30.7761 84.503 30.8113 84.5375C30.8465 84.5721 30.8662 84.6189 30.8662 84.6677V86.8363C30.8662 86.8852 30.8465 86.932 30.8113 86.9665C30.7761 87.001 30.7284 87.0204 30.6787 87.0204Z" fill="#D1D3D4"/>
<path d="M31.782 85.938H29.5732C29.5238 85.9371 29.4767 85.9174 29.4417 85.883C29.4068 85.8487 29.3867 85.8024 29.3857 85.7539C29.3857 85.7051 29.4055 85.6582 29.4407 85.6237C29.4758 85.5892 29.5235 85.5698 29.5732 85.5698H31.782C31.8317 85.5698 31.8794 85.5892 31.9146 85.6237C31.9497 85.6582 31.9695 85.7051 31.9695 85.7539C31.9695 85.8027 31.9497 85.8496 31.9146 85.8841C31.8794 85.9186 31.8317 85.938 31.782 85.938Z" fill="#D1D3D4"/>
<path d="M52.9424 40.5701C52.8927 40.5701 52.845 40.5507 52.8098 40.5161C52.7746 40.4816 52.7549 40.4348 52.7549 40.386V38.2174C52.7549 38.1685 52.7746 38.1217 52.8098 38.0872C52.845 38.0527 52.8927 38.0333 52.9424 38.0333C52.9921 38.0333 53.0398 38.0527 53.075 38.0872C53.1101 38.1217 53.1299 38.1685 53.1299 38.2174V40.4044C53.1252 40.4499 53.1034 40.4922 53.0688 40.5228C53.0341 40.5534 52.989 40.5703 52.9424 40.5701Z" fill="#D1D3D4"/>
<path d="M54.0447 39.4839H51.8359C51.7862 39.4839 51.7385 39.4645 51.7034 39.43C51.6682 39.3955 51.6484 39.3487 51.6484 39.2998C51.6484 39.251 51.6682 39.2042 51.7034 39.1697C51.7385 39.1351 51.7862 39.1158 51.8359 39.1158H54.0447C54.0944 39.1158 54.1421 39.1351 54.1773 39.1697C54.2124 39.2042 54.2322 39.251 54.2322 39.2998C54.2322 39.3487 54.2124 39.3955 54.1773 39.43C54.1421 39.4645 54.0944 39.4839 54.0447 39.4839Z" fill="#D1D3D4"/>
</svg>
